<svg xmlns:rdf="http://www.w3.org/1999/02/22-rdf-syntax-ns#" xmlns="http://www.w3.org/2000/svg" height="300" width="270" version="1.1" xmlns:cc="http://creativecommons.org/ns#" xmlns:dc="http://purl.org/dc/elements/1.1/">
 <g font-size="80.891px" stroke-width="3" stroke="#000000" font-family="Arial-BoldMT">
  <text y="1455.2319" x="-2508.7158"/>
  <text y="1477.7056" x="-2508.7158"/>
  <text y="1500.1792" x="-2508.7158"/>
  <text y="1522.6528" x="-2508.7158"/>
  <text y="1545.127" x="-2508.7158"/>
  <text y="1626.0164" x="-2508.7158"/>
  <text y="1648.4897" x="-2508.7158"/>
  <text y="1724.9165" x="-2508.7158"/>
  <text y="1747.3901" x="-2508.7158"/>
  <text y="1837.2451" x="-2508.7158"/>
  <text y="1859.7197" x="-2508.7158"/>
  <text y="1931.6035" x="-2508.7158"/>
  <text y="1954.0771" x="-2508.7158"/>
  <text y="2030.4854" x="-2507.5769"/>
  <text y="2052.8291" x="-2505.0947"/>
  <text y="2126.7354" x="-2486.1069"/>
  <text y="2147.4353" x="-2477.3311"/>
  <text y="2212.374" x="-2437.2754"/>
  <text y="2229.5935" x="-2422.822"/>
  <text y="2283.7742" x="-2362.9065"/>
  <text y="2296.6335" x="-2344.4714"/>
  <text y="2333.5496" x="-2277.6174"/>
  <text y="2342.49" x="-2256.9958"/>
  <text y="2365.0906" x="-2188.7532"/>
  <text y="2374.8074" x="-2168.5579"/>
  <text y="2344.7068" x="-2083.9797"/>
  <text y="2335.9871" x="-2063.2629"/>
  <text y="2315.9861" x="-2023.014"/>
  <text y="2304.6599" x="-2003.599"/>
  <text y="2292.4177" x="-1984.7465"/>
  <text y="2279.2419" x="-1966.5345"/>
  <text y="2265.1101" x="-1949.0433"/>
  <text y="2250.0242" x="-1932.3815"/>
  <text y="2233.9727" x="-1916.6412"/>
  <text y="2172.6221" x="-1871.2621"/>
  <text y="2152.7712" x="-1860.7045"/>
  <text y="2071.9795" x="-1833.6517"/>
  <text y="2049.8008" x="-1829.986"/>
  <text y="1973.5046" x="-1826.7758"/>
  <text y="1951.0303" x="-1826.7758"/>
  <text y="1874.6045" x="-1826.7758"/>
  <text y="1852.1309" x="-1826.7758"/>
  <text y="1780.2461" x="-1826.7758"/>
  <text y="1757.7725" x="-1826.7758"/>
  <text y="1681.3462" x="-1826.7758"/>
  <text y="1658.8726" x="-1826.7758"/>
  <text y="-1251.9768" x="-2880.4521"/>
  <text y="-1229.5032" x="-2880.4521"/>
  <text y="-1207.0294" x="-2880.4521"/>
  <text y="-1184.5559" x="-2880.4521"/>
  <text y="-1162.0818" x="-2880.4521"/>
  <text y="-1081.1927" x="-2880.4521"/>
  <text y="-1058.719" x="-2880.4521"/>
  <text y="-982.29236" x="-2880.4521"/>
  <text y="-959.81873" x="-2880.4521"/>
  <text y="-869.96375" x="-2880.4521"/>
  <text y="-847.4892" x="-2880.4521"/>
  <text y="-775.60535" x="-2880.4521"/>
  <text y="-753.13184" x="-2880.4521"/>
  <text y="-676.72363" x="-2879.313"/>
  <text y="-654.37988" x="-2876.8311"/>
  <text y="-580.47363" x="-2857.8433"/>
  <text y="-559.77344" x="-2849.0674"/>
  <text y="-494.83496" x="-2809.0117"/>
  <text y="-477.6153" x="-2794.5581"/>
  <text y="-423.43466" x="-2734.6426"/>
  <text y="-410.57529" x="-2716.2075"/>
  <text y="-373.65921" x="-2649.3535"/>
  <text y="-364.71884" x="-2628.7319"/>
  <text y="-342.11819" x="-2560.4893"/>
  <text y="-332.4014" x="-2540.2939"/>
  <text y="-362.50204" x="-2455.7158"/>
  <text y="-371.22177" x="-2434.999"/>
  <text y="-391.22272" x="-2394.75"/>
  <text y="-402.54889" x="-2375.3352"/>
  <text y="-414.79108" x="-2356.4824"/>
  <text y="-427.96686" x="-2338.2708"/>
  <text y="-442.09869" x="-2320.7795"/>
  <text y="-457.1846" x="-2304.1174"/>
  <text y="-473.23633" x="-2288.3772"/>
  <text y="-534.58691" x="-2242.9983"/>
  <text y="-554.4375" x="-2232.4407"/>
  <text y="-635.22943" x="-2205.3879"/>
  <text y="-657.40814" x="-2201.7219"/>
  <text y="-733.7041" x="-2198.5117"/>
  <text y="-756.17871" x="-2198.5117"/>
  <text y="-832.60443" x="-2198.5117"/>
  <text y="-855.078" x="-2198.5117"/>
  <text y="-926.96277" x="-2198.5117"/>
  <text y="-949.4364" x="-2198.5117"/>
  <text y="-1025.8625" x="-2198.5117"/>
  <text y="-1048.3363" x="-2198.5117"/>
 </g>
 <g stroke="#000000" stroke-width="3" fill="#000000">
  <text font-size="6.218px" xml:space="preserve" y="-21.756617" x="1135.8304" font-family="Webdings"><tspan y="-21.756617" x="1135.8304"/></text>
  <g font-size="9.327px">
   <text y="-34.122585" x="1139.6776" xml:space="preserve" font-family="Webdings"><tspan y="-34.122585" x="1139.6776"/></text>
   <text y="-38.794216" x="1160.2877" xml:space="preserve" font-family="Wingdings 3"><tspan y="-38.794216" x="1160.2877"/></text>
   <text y="-48.412197" x="1169.9056" xml:space="preserve" font-family="Symbol"><tspan y="-48.412197" x="1169.9056"/></text>
  </g>
 </g>
 <g transform="matrix(1.25 0 0 -1.25 .00042207 300.08)" fill="#009a3d">
  <path d="m5.1989 234.8 4.8523-133.43c2.2418-61.684 49.851-96.176 97.949-96.176s95.707 34.492 97.949 96.176l4.852 133.43"/>
  <path d="m5.1989 234.8 4.8521-133.42c2.242-61.684 49.851-96.176 97.949-96.176s95.707 34.492 97.949 96.176l4.852 133.43z" stroke="#000000" stroke-width="2.4" fill="#1e9646"/>
 </g>
 <path stroke-linejoin="round" d="m57.957 51.598c-14.179-0.0057-28.483 2.4371-42.279 7.5084 7.5701 43.747 38.213 79.571 78.949 94.496-0.000966 0.006 0.000967 0.0115 0 0.0171 0.0119 0.004 0.02231 0.0127 0.03421 0.0171-7.4374 42.738 8.2508 87.193 42.348 115.62 34.102-28.43 49.809-72.893 42.365-115.64 40.735-14.926 71.379-50.768 78.949-94.513-41.665-15.316-88.004-6.668-121.3 21.14-0.003-0.0028-0.0138 0.0028-0.0171 0-0.003 0.0028-0.0138-0.0028-0.0171 0-22.27-18.602-50.387-28.636-79.033-28.647zm1.0946 20.524c22.86 0.25313 45.254 8.1549 63.282 22.645-4.8035 5.6362-9.1629 11.794-12.999 18.437-3.8305 6.6347-6.9608 13.469-9.441 20.438-27.316-10.6-48.975-32.547-59.16-60.067 6.0927-1.0404 12.218-1.5213 18.318-1.4538zm156.82 0c5.7917-0.0113 11.612 0.46651 17.394 1.4538-10.184 27.517-31.834 49.482-59.143 60.084-2.479-6.9762-5.6235-13.831-9.4582-20.473-3.8341-6.6408-8.198-12.783-12.999-18.42 18.28-14.686 41.03-22.6 64.21-22.645zm-78.881 37.097c0.004 0.007 0.0135 0.01 0.0171 0.0171 3.6271 4.383 6.9459 9.1209 9.8857 14.213 2.94 5.0922 5.3891 10.334 7.3715 15.667-5.6169 0.9521-11.386 1.4538-17.274 1.4538-5.8797 0-11.631-0.50414-17.24-1.4538 1.9823-5.3327 4.4146-10.575 7.3544-15.667 2.9426-5.0968 6.2548-9.8435 9.8857-14.23zm-22.422 49.839c7.274 1.336 14.763 2.0353 22.422 2.0353 7.6719 0 15.173-0.6932 22.457-2.0353 4.4785 28.957-3.6984 58.676-22.44 81.258-18.738-22.578-26.914-52.305-22.44-81.258z" stroke="#000000" stroke-linecap="round" fill="#000000"/>
 <path stroke-linejoin="round" d="m55.957 49.598c-14.179-0.0057377-28.483 2.4371-42.279 7.5084 7.5701 43.747 38.213 79.571 78.949 94.496-0.00096688 0.0055456 0.0009661 0.011558 0 0.017103 0.011899 0.0043586 0.022306 0.012748 0.034207 0.017103-7.4374 42.738 8.2508 87.193 42.348 115.62 34.102-28.43 49.809-72.893 42.365-115.64 40.735-14.926 71.379-50.768 78.949-94.513-41.665-15.316-88.004-6.668-121.3 21.14-0.0033318-0.0027852-0.013771 0.0027848-0.017103 0-0.0033222 0.0027766-0.013781-0.002777-0.017103 0-22.27-18.602-50.387-28.636-79.033-28.647zm1.0946 20.524c22.86 0.25313 45.254 8.1549 63.282 22.645-4.8035 5.6362-9.1629 11.794-12.999 18.437-3.8305 6.6347-6.9608 13.469-9.441 20.439-27.315-10.6-48.975-32.545-59.16-60.065 6.093-1.04 12.218-1.521 18.317-1.453zm156.82 0c5.7917-0.011295 11.612 0.46651 17.394 1.4538-10.184 27.517-31.834 49.482-59.143 60.084-2.479-6.9762-5.6235-13.831-9.4582-20.473-3.8341-6.6408-8.198-12.783-12.999-18.42 18.272-14.686 41.024-22.6 64.206-22.645zm-78.88 37.098c0.0035877 0.0070694 0.013513 0.010031 0.017103 0.017103 3.6271 4.383 6.9459 9.1209 9.8857 14.213 2.94 5.0922 5.3891 10.334 7.3715 15.667-5.6169 0.9521-11.386 1.4538-17.274 1.4538-5.8797 2e-13 -11.631-0.50414-17.24-1.4538 1.9823-5.3327 4.4146-10.575 7.3544-15.667 2.9426-5.0968 6.2548-9.8435 9.8857-14.23zm-22.422 49.839c7.274 1.336 14.763 2.0353 22.422 2.0353 7.6719-9e-14 15.173-0.6932 22.457-2.0353 4.4785 28.957-3.6984 58.676-22.44 81.258-18.738-22.578-26.914-52.305-22.44-81.258z" stroke="#000000" stroke-linecap="round" fill="#f3de70"/>
 <g stroke-linejoin="round" stroke="#000000" stroke-linecap="round" fill="none">
  <path d="m103.47 118.49c-6.4255 13.053-10.331 26.766-11.87 40.552m20.028 6.2085c0.97832-13.452 4.6415-26.906 11.186-39.56"/>
  <path d="m142.91 158.84c18.527-1.175 35.94-6.4426 51.344-14.914m-15.9-14.94c-12.363 5.7695-26.069 9.1516-40.518 9.5437"/>
  <path d="m109.64 85.241c12.32 7.5349 23.195 17.769 31.658 30.444m17.343-10.997c-11.4-17.22-26.52-30.723-43.66-40.049"/>
 </g>
</svg>
