<svg xmlns="http://www.w3.org/2000/svg" width="701.33" height="741.77" viewBox="0 0 701.3341 741.76859"><g transform="translate(-13.161-68.62)"><path d="m18.841 74.12l13.398 416.62c7.415 175.25 153.92 314.05 331.59 314.14 177.51-.215 324.07-139.06 331.59-314.14l13.398-416.62h-344.98z" fill="#03f" fill-rule="evenodd"/><g stroke="#000" stroke-width="11"><g stroke-linecap="round" transform="translate(13.161 68.62)"><path d="m5.68 5.5l13.398 416.62c7.415 175.25 153.92 314.05 331.59 314.14v-730.77h-344.99z" fill="#ffd700"/><path d="m5.68 5.5l6.223 193.47 313.38 536.32c8.381.634 16.844.966 25.381.971v-306.55l-247.88-424.22h-97.11z" fill="#f00"/></g><path d="m18.84 74.12l13.398 416.62c7.415 175.25 153.92 314.05 331.59 314.14 177.51-.215 324.07-139.06 331.59-314.14l13.398-416.62h-344.98z" fill="none" fill-rule="evenodd"/></g><g fill-rule="evenodd"><path d="m580 21.1c-4.644.05-9.169 2-12.855 4.854-3.191 2.47-5.849 5.627-7.74 9.191-5.132.659-10.222 1.629-15.236 2.902-7.253 1.842-14.4 4.346-20.801 8.223-4.083 2.473-7.836 5.491-11.127 8.949-1.949-2.615-3.431-5.578-4.354-8.707-1.385-4.696-1.521-9.742-3.387-14.27-.676-1.641-1.573-3.192-2.66-4.596-2.129 2.505-3.823 5.378-4.986 8.453-1.366 3.609-1.995 7.489-1.889 11.346.111 4.03 1.012 7.989 2.039 11.885 1.379 5.229 2.992 10.397 4.836 15.48-.673 1.24-1.399 2.449-2.176 3.627-1.36 2.061-2.914 4.107-3.387 6.531-.319 1.635-.099 3.391.727 4.838.473.829 1.138 1.548 1.928 2.084-.438 1.324-1.01 2.605-1.693 3.818-1.435 2.535-3.38 4.757-5.568 6.68-1.045.918-2.152 1.775-3.068 2.82-.917 1.045-1.646 2.319-1.758 3.705-.087 1.079.208 2.166.715 3.123.507.957 1.218 1.792 1.992 2.549.546.534 1.126 1.033 1.643 1.596.516.563.973 1.198 1.215 1.922.26.778.26 1.642 0 2.42-.26.778-.761 1.448-1.271 2.09-.511.641-1.046 1.277-1.391 2.02-.328.71-.471 1.496-.486 2.277-.015.782.095 1.561.254 2.326.317 1.531.831 3.03.959 4.588.245 2.996-1.062 6.075-3.387 7.98-.945-.969-2.111-1.719-3.385-2.176-2.691-.965-5.669-.591-8.467 0-3.975.84-8.03 2.19-10.883 5.078-1.578 1.595-2.705 3.576-4.113 5.322-1.54 1.91-3.456 3.604-4.359 5.885-.6 1.517-.7 3.177-.807 4.805-.106 1.628-.233 3.291-.879 4.789-.489 1.134-1.255 2.122-1.994 3.111-.739.989-1.472 2.01-1.877 3.178-.389 1.12-.459 2.33-.363 3.512.096 1.182.352 2.344.605 3.502.574 2.626 1.135 5.326.727 7.982-.546 3.55-2.745 6.595-4.113 9.916-1.667 4.048-2.089 8.478-2.66 12.818-.669 5.077-1.567 10.13-1.936 15.238-.045.619-.083 1.248-.27 1.84-.093.296-.225.581-.404.834-.18.253-.407.474-.678.627-.359.202-.784.28-1.193.234-.409-.045-.803-.212-1.133-.459-.659-.494-1.044-1.294-1.158-2.109-.099-.708-.011-1.43.18-2.119.19-.689.48-1.347.787-1.992.75-1.573 1.623-3.122 1.936-4.836.171-.941.166-1.92-.068-2.848-.234-.927-.702-1.803-1.383-2.475-.782-.772-1.81-1.251-2.857-1.584-1.048-.333-2.133-.532-3.189-.834-1.532-.438-3-1.092-4.354-1.936l-23.945-112.71c-3.878-.316-7.801-.07-11.609.727-2.825.591-5.588 1.484-8.225 2.66l27.816 115.61c-2.02.602-3.918 1.593-5.564 2.902-1.402 1.115-2.636 2.484-3.385 4.111-1.111 2.414-1.059 5.303 0 7.74.88 2.025 2.432 3.751 4.354 4.838-.284 2-.284 4.04 0 6.04.65 4.58 2.751 8.822 5.078 12.82 2.602 4.47 5.522 8.754 7.982 13.303.772 1.427 1.497 2.879 2.176 4.354l13.303 77.64c-1.218 2.576-2.427 5.156-3.627 7.74-1.383 2.977-2.753 5.961-4.111 8.949.597 1.281 1.327 2.498 2.176 3.627.79 1.051 1.682 2.024 2.66 2.902-1.246.396-2.564.562-3.869.484-1.073-.064-2.137-.291-3.139-.68-.846-.329-1.642-.769-2.43-1.221-.975-.559-1.941-1.134-2.896-1.727.532 3.045.936 6.111 1.209 9.189.286 3.216.43 6.452.242 9.676-.764 13.144-6.975 25.543-7.498 38.699-.178 4.473.313 8.973 1.451 13.303 1.63.356 3.043 1.579 3.627 3.143.51 1.366.391 2.937-.242 4.25-.411.853-1.022 1.599-1.404 2.465-.54 1.222-.587 2.626-.287 3.928.286 1.241.877 2.408 1.691 3.387.808.971 1.844 1.778 2.42 2.902.326.637.488 1.349.539 2.063.051.714-.007 1.431-.102 2.141-.188 1.419-.524 2.833-.438 4.262.096 1.581.706 3.087 1.43 4.496.724 1.409 1.57 2.756 2.197 4.211.893 2.07 1.32 4.308 1.693 6.531.497 2.962.913 5.947.969 8.949.042 2.266-.12 4.535-.484 6.771.568.233 1.133.475 1.693.727.804.36 1.627.762 2.176 1.451.586.737.782 1.713.818 2.654.069 1.787-.362 3.55-.576 5.326-.382 3.172-.069 6.381.152 9.568.221 3.188.346 6.431-.395 9.539-.237.993-.56 1.966-.967 2.902-.369-1.517-.94-2.986-1.693-4.354-.363-.66-.795-1.321-1.451-1.691-.366-.207-.787-.312-1.207-.309-.42.003-.838.114-1.211.309-.52.272-.949.707-1.236 1.219-.287.512-.436 1.097-.457 1.684-.028.774.162 1.541.443 2.262.281.721.654 1.403 1.01 2.092 3.799 7.387 5.569 15.75 5.504 24.06-.038 4.772-.67 9.541-1.877 14.158-1.076 0-2.145.444-2.902 1.209-.592.598-.983 1.361-1.451 2.061-.383.573-.833 1.133-.967 1.809-.086.437-.032.889.018 1.332.049.443.092.896-.018 1.328-.102.402-.334.767-.635 1.053-.301.286-.67.496-1.059.641-.462.172-.958.255-1.451.242-.229.879-.142 1.837.242 2.66.131.28.293.545.434.82.14.275.258.566.291.873.043.404-.067.82-.289 1.16-.222.34-.55.607-.92.775-.524.24-1.119.284-1.693.242-.365-.026-.727-.086-1.092-.109-.365-.023-.737-.008-1.084.109-.225.076-.438.197-.609.361-.172.165-.301.374-.357.605-.068.276-.03.566.006.848.036.282.07.572-.006.846-.081.294-.292.549-.564.686-.273.136-.603.15-.887.039-2.883-.074-5.77-.041-8.65.094-5.03.236-10.05.791-15.05 1.359-3.04.345-6.204.738-8.766 2.412-2.381 1.556-3.994 4.088-4.936 6.771-.891 2.54-1.239 5.283-.91 7.955.108.88.291 1.757.648 2.568.357.811.898 1.556 1.627 2.061.691.479 1.523.724 2.357.828.835.104 1.679.074 2.52.047 12.07-.393 24.16-.299 36.24-.393 13.387-.104 26.773-.438 40.15-.967 1.09-.043 2.185-.087 3.258-.283 1.073-.196 2.131-.552 3.03-1.168 1.083-.742 1.891-1.836 2.455-3.02.564-1.186.898-2.466 1.172-3.75.796-3.729 1.116-7.577.727-11.369-.786-7.659-4.408-14.822-5.08-22.492-.528-6.03.797-12.07 2.42-17.898 4.595-16.518 11.686-32.531 13.17-49.611.755-8.689.021-17.501-2.092-25.963-1.418-5.682-3.449-11.196-5.758-16.578-.763-1.779-1.573-3.631-1.451-5.563.065-1.029.401-2.04.967-2.902.558-.042 1.104-.23 1.568-.541.465-.311.848-.745 1.1-1.244.253-.504.37-1.065.453-1.623.083-.558.135-1.123.266-1.672.345-1.453 1.225-2.717 2.176-3.869 1.151-1.395 2.437-2.688 3.434-4.197 1.109-1.678 1.831-3.576 2.521-5.465.664-1.815 1.31-3.658 1.543-5.576.186-1.53.105-3.093-.24-4.596.584-.193 1.149-.436 1.691-.725 1.525-.813 2.85-1.992 3.871-3.387 1.097-1.499 1.847-3.25 2.176-5.078.872 1.655 1.448 3.465 1.693 5.32.298 2.255.115 4.581.727 6.771.509 1.823 1.594 3.509 3.145 4.596.451.316.936.581 1.4.877.465.296.914.63 1.26 1.059.655.812.88 1.889.961 2.93.081 1.04.038 2.095.248 3.117.288 1.402 1.04 2.69 1.209 4.111.048.401.048.808 0 1.209-1.211 1.596-2.502 3.131-3.869 4.596-.934 1-1.902 1.969-2.902 2.902 1.146 2.214 2.617 4.258 4.354 6.05 2.313 2.383 5.132 4.367 6.771 7.256 1.317 2.321 1.755 5.128 1.209 7.74l-1.693 39.42c.075 9.2 1.214 18.392 3.387 27.332 2.522 10.375 6.437 20.41 11.609 29.75-.848 1.085-1.505 2.318-1.934 3.627-1.064 3.247-.689 6.77-.242 10.158 2.136 16.204 5.636 32.2 7.98 48.37.276 1.902.541 3.825 1.203 5.629.662 1.804 1.766 3.508 3.393 4.531 1.021.642 2.207.99 3.402 1.146 1.196.157 2.409.129 3.613.063 3.149-.175 6.28-.61 9.432-.727 1.696-.063 3.399-.032 5.086-.217 1.687-.185 3.378-.598 4.83-1.477 2.269-1.372 3.758-3.772 4.596-6.287 1.338-4.01 1.201-8.353.969-12.578-.536-9.768-1.497-19.507-2.178-29.27-.524-7.509-.906-15.15-3.387-22.252-.71-2.034-1.594-4.03-1.881-6.168-.179-1.331-.119-2.682-.059-4.02.712-15.792 1.657-31.574 2.182-47.37.367-11.04.502-22.305-2.66-32.895-2.086-6.987-5.611-13.749-5.563-21.04.025-3.739 1.01-7.422 2.418-10.885 1.325-3.249 3.035-6.341 5.08-9.191-1.949-.201-3.872-.643-5.713-1.313-1.641-.597-3.216-1.375-4.688-2.314v-2.662c0-2.822.069-5.644 0-8.465-.025-1.015-.075-2.032.031-3.041.106-1.01.375-2.02.936-2.867.443-.67 1.064-1.221 1.781-1.582.717-.361 1.528-.532 2.33-.49 3.284 10.967 6.834 21.856 10.643 32.652 8.03 22.763 17.213 45.1 25.639 67.72 4.577 12.29 8.966 24.736 15.492 36.11 4.3 7.496 9.505 14.471 15.467 20.727-.367-2.746-.769-5.487-1.209-8.223-7.655-47.642-26.18-92.72-42.57-138.11-11.183-30.962-21.428-62.26-30.717-93.84 1.865-1.206 4.069-1.884 6.289-1.936 1.915-.045 3.839.373 5.563 1.209.383-3.293.626-6.602.727-9.916.103-3.423.055-6.851-.145-10.27-1.556-.393-3.15-.634-4.752-.719-3.17-.168-6.373.281-9.375 1.314.524-1.544 1.362-2.981 2.447-4.197 1.822-2.043 4.288-3.419 6.848-4.389 2.56-.97 5.241-1.568 7.879-2.299 10.392-2.878 20.259-7.851 30.959-9.191 4.416-.553 8.91-.471 13.303.242 1.768-1.741 3.492-3.527 5.17-5.355 2.932-3.194 5.776-6.603 7.32-10.654 1.192-3.126 1.56-6.562 1.055-9.869 1.681-2.78 3.138-5.696 4.354-8.709 1.673-4.145 2.897-8.649 2.176-13.06-.423-2.588-1.509-5.05-3-7.201-1.493-2.156-3.384-4.02-5.463-5.617-3.57-2.746-7.718-4.737-12.09-5.805-.232-2.145-.734-4.262-1.49-6.283-1.618-4.322-4.359-8.13-6.25-12.34-1.174-2.615-2.02-5.386-2.418-8.225-.27-1.908-.35-3.879-1.1-5.654-.713-1.69-1.988-3.087-2.77-4.746-.737-1.565-1.01-3.305-1.195-5.03-.185-1.72-.295-3.461-.74-5.133-.762-2.857-2.483-5.396-4.596-7.465-2.252-2.206-4.974-3.931-7.93-5.03-.484-1.9-1.323-3.71-2.459-5.309-1.585-2.23-3.728-4.03-6.086-5.412-3.473-2.043-7.467-3.23-11.496-3.254-2.17-.013-4.329.306-6.496.42-2.167.114-4.396.012-6.408-.801-.897-.362-1.742-.864-2.457-1.516-.715-.651-1.299-1.454-1.654-2.354-.397-1-.505-2.11-.393-3.184.112-1.074.437-2.118.875-3.105 1.437-3.242 4.04-5.821 6.777-8.07 2.74-2.251 5.69-4.268 8.166-6.807 3.03-3.103 5.28-6.954 6.504-11.11 7.573-.54 15.09-1.812 22.424-3.793 7.935-2.145 15.852-5.248 21.861-10.855 3.518-3.283 6.287-7.364 8.04-11.846-4.732 3.505-10.211 5.995-15.963 7.256-5.01 1.097-10.27 1.259-15.238 0-2.637-.668-5.173-1.732-7.498-3.145 1.126-4.368 1.937-8.818 2.42-13.303.873-8.105.654-16.458-1.936-24.19-.873-2.605-2.01-5.121-3.387-7.498 1.406-1.707 3.402-2.92 5.564-3.385 1.045-.225 2.141-.278 3.178-.021 1.037.256 2.01.841 2.627 1.715.539.766.777 1.725.725 2.66-.073 1.309-.685 2.526-1.381 3.637-.696 1.111-1.493 2.171-2.01 3.377-.697 1.637-.831 3.485-.529 5.238.302 1.754 1.029 3.418 1.982 4.92 2.151 3.387 5.547 6.01 9.432 7.01 4.638 1.199 9.579.082 14.03-1.691 5.495-2.19 10.649-5.437 14.512-9.918 2.994-3.472 5.166-7.649 6.289-12.09-2.533 1.939-5.416 3.421-8.467 4.354-4.843 1.481-10.1 1.555-14.996.242-2.301-.618-4.55-1.552-6.412-3.039-1.862-1.487-3.316-3.567-3.746-5.91-.366-1.992.011-4.03.242-6.05.229-1.99.313-4.01.051-5.992-.263-1.986-.884-3.945-1.986-5.617-1.143-1.735-2.783-3.123-4.641-4.055-1.857-.932-3.924-1.415-6-1.508-.31-.014-.622-.019-.932-.016m-12.201 212.8c.186 0 .373.015.555.047.729.128 1.402.484 1.998.922 1.06.779 1.907 1.823 2.566 2.961.66 1.138 1.139 2.37 1.547 3.621.355 1.089.657 2.194.986 3.291.76 2.53 1.676 5.1 1.482 7.734-.151 2.066-.989 4.04-2.141 5.76-2.898 4.33-7.606 7.04-12.176 9.545-2.798 1.533-5.615 3.048-8.559 4.279-2.451 1.026-4.984 1.85-7.568 2.467 3.468-7.4 7.257-14.649 11.354-21.721 2.794-4.823 5.779-9.684 6.912-15.14.125-.604.228-1.216.439-1.795.211-.579.543-1.133 1.041-1.496.448-.327 1-.474 1.563-.475m-119.55 40.957c1.333-.133 2.7.276 3.783 1.064 1.083.789 1.881 1.944 2.305 3.215.441 1.326.477 2.8 0 4.113-.461 1.268-1.363 2.325-2.305 3.291-.801.822-1.647 1.603-2.391 2.477-.744.874-1.39 1.854-1.723 2.953-.275.908-.322 1.907 0 2.799.203.563.549 1.07.979 1.486.43.416.942.743 1.49.982.507.221 1.044.369 1.533.627.244.129.476.286.67.482.194.197.35.435.43.699.102.339.073.711-.049 1.043-.122.332-.334.625-.59.869-.512.488-1.181.77-1.83 1.051-1.33.574-2.646 1.178-3.949 1.811l-4.443-25.342c.71-.722 1.483-1.385 2.305-1.977 1.13-.813 2.4-1.506 3.785-1.645" transform="translate(13.161 68.62)"/><path d="m518.69 146.62c-1.459.899-2.795 2-3.957 3.26-.893.969-1.702 2.069-2.01 3.35-.156.64-.18 1.318-.025 1.959.155.641.493 1.242.992 1.672.504.434 1.141.676 1.74.965.3.145.595.304.859.506.265.202.499.448.658.74.159.293.238.627.248.961 0 .334-.047.669-.146.988-.199.638-.561 1.21-.916 1.775-1.927 3.068-3.777 6.226-6.283 8.842-.916.956-1.917 1.836-3.03 2.561-.981.642-2.051 1.167-2.898 1.977-.424.405-.788.88-1.012 1.422-.224.541-.302 1.154-.162 1.723.162.661.615 1.234 1.191 1.596.577.361 1.269.517 1.949.498.491-.014.974-.115 1.463-.162.488-.047.999-.037 1.447.162.519.23.899.684 1.248 1.131.349.447.702.915 1.195 1.195.421.24.921.323 1.404.285.483-.038.952-.191 1.389-.4.982-.47 1.832-1.24 2.326-2.211.429-.843.58-1.798.932-2.676.135-.338.304-.67.555-.934.251-.264.593-.454.957-.463.25-.006.499.073.707.211.208.138.379.332.502.549.247.435.309.951.305 1.451-.006.748-.151 1.489-.35 2.211-.332 1.207-.826 2.389-1.619 3.357-.793.969-1.912 1.711-3.152 1.879-1.017.138-2.044-.108-3.07-.105-.513 0-1.033.066-1.506.266-.472.2-.895.543-1.125 1-.2.399-.242.869-.156 1.307.086.438.297.844.574 1.193.555.699 1.355 1.155 2.143 1.574 1.346.716 2.78 1.391 4.305 1.396 1.214.004 2.391-.42 3.492-.932.484-.225.96-.469 1.461-.652.501-.183 1.032-.306 1.564-.279.502.025.991.184 1.439.412.448.228.858.525 1.25.84.784.629 1.52 1.344 2.43 1.773.745.351 1.577.494 2.4.486.824-.008 1.642-.161 2.436-.381 1.588-.439 3.098-1.141 4.705-1.502.993-.223 2.01-.313 2.998-.574.984-.261 1.959-.719 2.588-1.52.365-.465.596-1.028.703-1.609.107-.582.092-1.182-.006-1.766-.124-.743-.379-1.458-.535-2.195-.156-.737-.207-1.526.07-2.227.266-.673.839-1.218 1.527-1.443.688-.225 1.478-.121 2.08.281.359.24.647.575.865.947.218.372.37.78.486 1.195.234.831.335 1.7.627 2.512.316.878.867 1.685 1.639 2.209.386.262.823.45 1.281.535.459.085.938.067 1.385-.068.825-.25 1.493-.882 1.961-1.605.468-.724.763-1.544 1.064-2.352.913-2.443 1.923-4.849 3.03-7.213-2.483-.866-4.929-1.838-7.33-2.91-5.464-2.44-10.695-5.406-15.594-8.844-.009 1.624-.655 3.235-1.771 4.414-.767.81-1.732 1.41-2.732 1.904-1 .495-2.045.893-3.059 1.361-1.473.68-2.879 1.509-4.189 2.467-.644-.748-1.262-1.519-1.852-2.311-.558-.749-1.101-1.539-1.324-2.445-.112-.453-.141-.93-.045-1.387.096-.457.319-.893.66-1.211.412-.384.964-.576 1.443-.871.24-.148.466-.326.633-.553.167-.227.271-.506.252-.787-.014-.2-.088-.392-.199-.559-.111-.167-.256-.309-.414-.432-.316-.245-.684-.415-1.016-.639-.559-.377-1.014-.908-1.299-1.52-.285-.611-.4-1.3-.33-1.971.893-.607 1.948-.972 3.03-1.047.357-.025.716-.02 1.072-.055.356-.035.713-.113 1.021-.295.383-.226.671-.611.779-1.043.108-.432.035-.905-.197-1.285-1.48-1.605-2.856-3.306-4.115-5.09-1.518-2.15-2.866-4.419-4.03-6.779m45.871 32.432c-.288.004-.572.047-.84.15-.602.231-1.065.74-1.367 1.311-.302.57-.46 1.205-.611 1.832-.567 2.358-1.094 4.816-2.559 6.748-1.545 2.039-3.965 3.258-5.586 5.236-1.065 1.299-1.744 2.877-2.793 4.189-1.269 1.587-3.03 2.72-4.896 3.527-1.865.807-3.843 1.31-5.809 1.824-1.784.467-3.565.946-5.354 1.396-2.399.604-4.81 1.158-7.213 1.746-1.051.257-2.101.522-3.143.814-.688.194-1.384.404-1.988.785-.302.191-.58.424-.803.703-.223.279-.391.606-.467.955-.11.505-.023 1.04.18 1.516.203.476.517.897.867 1.277 1.656 1.797 4.093 2.705 6.516 3.03 2.736.362 5.532.053 8.262.465 1.398.211 2.766.61 4.172.756 1.406.146 2.903.012 4.09-.756.72-.466 1.285-1.138 1.746-1.861 1.451-2.276 1.928-5.04 3.143-7.447 1.442-2.862 3.857-5.109 6.363-7.105 2.507-1.997 5.172-3.826 7.367-6.16 2.092-2.225 3.706-4.855 5.119-7.563.616-1.181 1.206-2.406 1.396-3.725.056-.385.076-.778.012-1.162-.064-.384-.216-.76-.477-1.049-.335-.372-.822-.575-1.311-.688-.488-.113-.991-.147-1.482-.242-.564-.11-1.11-.302-1.674-.414-.282-.056-.574-.09-.861-.086m-119.95 102.64c-.17-.005-.341 0-.51.019-1.065.116-2.04.656-2.91 1.281-.539.387-1.059.824-1.395 1.396-.466.795-.52 1.756-.582 2.676-.038.552-.084 1.105-.053 1.658.031.553.143 1.11.4 1.6.298.567.784 1.022 1.338 1.344.554.322 1.175.516 1.805.635 1.198.225 2.46.18 3.607-.232 1.056-.38 2.01-1.08 2.621-2.02.614-.939.873-2.12.637-3.217-.143-.665-.458-1.281-.814-1.861-.435-.709-.938-1.378-1.514-1.979-.345-.36-.721-.699-1.162-.932-.451-.238-.958-.356-1.469-.369m-18.723 6.953c-.645.019-1.285.24-1.801.631-.482.365-.853.865-1.113 1.41-.261.545-.415 1.135-.516 1.73-.127.753-.168 1.526-.066 2.283.101.757.347 1.498.764 2.139.428.658 1.025 1.194 1.674 1.637.649.443 1.35.798 2.049 1.156 1.364.699 2.776 1.428 4.307 1.514.977.055 1.947-.156 2.906-.348.96-.191 1.942-.365 2.912-.234 1.121.151 2.151.698 3.258.93.433.091.878.133 1.318.086.44-.047.876-.185 1.242-.434.368-.249.66-.608.826-1.02.167-.412.205-.876.104-1.309-.143-.609-.553-1.128-1.047-1.512-1-.778-2.323-1.036-3.375-1.746-.845-.571-1.472-1.403-2.094-2.211-.423-.55-.879-1.117-1.514-1.396-.582-.256-1.249-.239-1.873-.119-.624.12-1.227.337-1.85.469-.469.099-.955.15-1.428.072-.473-.077-.934-.292-1.248-.654-.2-.23-.333-.511-.449-.793-.116-.282-.217-.57-.365-.836-.406-.728-1.159-1.242-1.979-1.396-.212-.04-.427-.055-.643-.049m3.373 15.494c-.241-.002-.48.015-.717.055-.475.08-.938.261-1.316.559-.327.258-.586.602-.746.986-.16.385-.221.81-.184 1.225.042.467.212.922.496 1.295.285.373.685.66 1.133.799.412.127.853.13 1.281.084.429-.046.85-.141 1.277-.201.847-.12 1.712-.108 2.561 0 .625.079 1.243.212 1.871.258.628.046 1.277 0 1.852-.258.383-.172.728-.438.965-.785.236-.347.36-.774.316-1.191-.033-.316-.159-.62-.346-.877-.186-.257-.431-.47-.701-.637-.609-.376-1.336-.516-2.049-.572-.713-.057-1.431-.036-2.141-.125-.955-.119-1.878-.435-2.832-.561-.239-.031-.48-.051-.721-.053m13.236 7.266c-.43.006-.863.079-1.279.184-.833.209-1.632.541-2.471.727-.916.203-1.862.227-2.793.35-1.139.15-2.251.448-3.373.697-.44.098-.884.189-1.307.344-.423.154-.828.378-1.137.705-.257.272-.441.611-.537.973-.096.362-.106.745-.039 1.113.134.737.574 1.399 1.156 1.869.576.465 1.28.751 1.998.93.718.179 1.457.258 2.191.352 1.384.176 2.769.403 4.164.383 1.395-.02 2.823-.307 3.982-1.082.929-.621 1.647-1.536 2.094-2.561.365-.839.554-1.784.35-2.676-.106-.461-.315-.899-.615-1.264-.3-.365-.692-.655-1.131-.83-.399-.159-.824-.219-1.254-.213m-6.02 11.32c-.251.015-.499.072-.727.18-.228.107-.434.264-.586.465-.152.201-.248.446-.262.697-.013.236.047.474.156.684.109.21.266.391.447.543.362.303.813.482 1.26.637.337.117.678.222 1.031.275.353.053.719.053 1.063-.043.18-.05.354-.128.5-.244.146-.116.264-.275.314-.455.038-.135.036-.278.012-.416-.024-.138-.072-.27-.129-.398-.417-.943-1.318-1.645-2.326-1.861-.246-.053-.502-.078-.754-.063m101.76 30.928c-.529-.004-1.059.006-1.588.027-.34 2.749-1.48 5.393-3.248 7.525-1.369 1.651-3.125 3-5.131 3.762-1.47.556-3.047.787-4.617.855-1.37.06-2.745 0-4.105-.17-.291-.037-.582-.079-.875-.068-.293 0-.592.076-.836.238-.242.161-.422.417-.486.701-.065.284-.013.593.145.838.127.199.318.353.527.461.21.108.439.174.67.225 1.119.243 2.281.127 3.42 0 .493-.055.993-.113 1.482-.035.245.039.485.112.703.23.218.118.412.283.551.488.216.319.288.717.264 1.102-.024.384-.137.758-.264 1.121-.125.358-.265.716-.482 1.027-.218.311-.521.575-.885.684-.33.099-.684.064-1.025.022-.342-.042-.69-.091-1.027-.022-.318.066-.613.239-.826.484-.213.245-.345.559-.371.883-.034.422.107.845.342 1.197.242.363.582.659.969.861.387.202.82.313 1.256.336.661.035 1.314-.128 1.963-.26.649-.132 1.326-.234 1.971-.082.39.092.758.279 1.059.545.3.266.53.612.65.994.123.391.131.823-.016 1.205-.146.383-.452.71-.838.848-.261.093-.545.1-.818.146-.137.023-.271.055-.396.113-.126.058-.243.143-.326.254-.096.128-.143.289-.143.449 0 .16.048.317.125.457.154.28.421.483.703.633.479.255 1.012.382 1.539.512.528.13 1.058.264 1.561.473.502.208.978.495 1.346.896.314.343.545.771.619 1.23.074.459-.014.949-.275 1.334-.205.302-.502.528-.789.754-.287.226-.576.467-.752.787-.133.242-.194.524-.166.799.028.275.146.542.338.74.169.174.389.293.623.357.234.064.48.074.721.049.482-.05.938-.236 1.393-.406 1.571-.587 3.208-.981 4.789-1.539 2.676-.944 5.17-2.351 7.525-3.934 1.719-1.155 3.381-2.415 4.789-3.934 2.284-2.464 3.845-5.589 4.445-8.895-1.164-.941-2.202-2.037-3.078-3.25-1.336-1.849-2.288-3.96-2.906-6.156-.594-2.111-.883-4.306-.855-6.498-1.513-.45-3.058-.794-4.619-1.027-1.569-.234-3.154-.358-4.74-.369" fill="#fb9"/><path d="m592.07 95.6c-1 .012-2.01.159-2.977.404-2.632.666-5.06 2.045-7.098 3.84-1.557 1.371-2.898 2.988-3.957 4.771-.002.834.157 1.668.465 2.443.364.916.934 1.744 1.629 2.443.686.689 1.49 1.253 2.328 1.746.618.363 1.271.695 1.979.814.711.12 1.448.018 2.129-.219.681-.236 1.312-.604 1.904-1.016 1.184-.823 2.243-1.836 3.529-2.488 1.345-.682 2.904-.933 4.395-.705 1.49.228 2.905.932 3.984 1.984.785-1.294 1.23-2.792 1.279-4.305.073-2.216-.713-4.434-2.094-6.168-1.163-1.461-2.753-2.595-4.539-3.143-.958-.293-1.956-.416-2.957-.404m-25.506 13.1c-2.525-.049-5.065.391-7.506 1.074-3.254.911-6.371 2.246-9.527 3.453-1.525.583-3.068 1.14-4.498 1.928-1.43.787-2.757 1.824-3.648 3.191-.302.464-.552.966-.689 1.502-.138.536-.159 1.108-.008 1.641.201.71.686 1.299 1.164 1.861.274.322.551.643.873.916.322.273.693.497 1.104.596h.002c.392.093.807.07 1.199-.025.393-.095.766-.258 1.127-.439 1.793-.9 3.313-2.246 4.887-3.49 4.545-3.593 9.712-6.426 15.244-8.146 2.801-.871 5.692-1.456 8.611-1.744-1.788-1.049-3.772-1.765-5.818-2.096-.834-.135-1.674-.204-2.516-.221m-51.808 1.152c-.725 2.802-1.127 5.688-1.197 8.582-.256 10.597 3.987 20.936 10.18 29.539 5.842 8.116 13.431 14.925 21.953 20.16 9.462 5.808 20.241 9.722 31.33 10.18 8.349.344 16.719-1.272 24.549-4.191 4.076-1.52 8.02-3.392 11.775-5.588-3.799.785-7.705 1.053-11.576.797-3.14-.207-6.283-.766-9.18-1.994-1.792-.759-3.477-1.771-4.99-2.994-3.185.263-6.387.33-9.58.199-8.924-.365-17.814-2.295-25.945-5.988-10.88-4.941-20.277-13.03-26.943-22.951-5.2-7.735-8.761-16.567-10.379-25.746m63.47 4.791c-6.224 1.136-12.325 2.946-18.16 5.389-4.467 1.87-8.947 4.249-11.773 8.182-.836 1.164-1.51 2.445-1.996 3.793-1.698-1.761-3.428-3.491-5.189-5.189-.776-.749-1.563-1.495-2.447-2.111-.885-.617-1.878-1.103-2.941-1.281-1.345-.225-2.762.067-3.936.762-1.173.695-2.1 1.782-2.65 3.03-.85 1.927-.793 4.166-.201 6.187.622 2.125 1.802 4.057 3.221 5.758 1.418 1.701 3.076 3.187 4.764 4.621 6.292 5.35 13.195 10.145 20.955 12.973 5.249 1.913 10.803 2.892 16.367 3.393 2.986.269 5.983.401 8.98.398 1.24-4.363 2.043-8.849 2.395-13.371.573-7.387-.077-14.917-2.395-21.955-1.222-3.712-2.903-7.272-4.99-10.576m24.834 3.936c-1.745 1.571-3.02 3.663-3.607 5.936-.526 2.023-.509 4.212.232 6.166.875 2.307 2.721 4.174 4.889 5.354 2.089 1.136 4.487 1.675 6.865 1.629 3.165-.061 6.258-1.142 8.959-2.793 1.957-1.196 3.729-2.693 5.236-4.422-3.558-.094-7.091-1.017-10.24-2.676-3.589-1.891-6.61-4.675-9.773-7.215-.841-.675-1.695-1.335-2.561-1.979m-74.13 48.05c-.139-.016-.28-.014-.418.004-.276.037-.544.139-.775.295-.329.221-.581.542-.77.891-.188.349-.315.726-.428 1.105-.091.306-.173.62-.164.939.004.16.032.32.092.469.059.148.15.285.271.389.185.157.43.23.672.248.242.018.486-.014.727-.049.363-.052.727-.108 1.074-.225.347-.117.679-.3.922-.574.211-.238.346-.536.408-.848.062-.312.051-.635 0-.947-.067-.341-.195-.672-.396-.955-.201-.283-.478-.516-.801-.643-.13-.051-.266-.084-.404-.1m-117.61 1.807c-1.427.004-2.855.215-4.221.629-1.293.392-2.531.963-3.668 1.693l27.377 116.29c1.108.626 2.4.925 3.67.848.546-.033 1.093-.135 1.592-.361.498-.226.947-.583 1.23-1.051.375-.618.439-1.379.379-2.1-.06-.721-.226-1.426-.379-2.133l-24.555-113.75c-.474-.045-.95-.066-1.426-.064m135.47 24.04c-.607.005-1.214.116-1.795.295-1.997.616-3.658 1.985-5.488 2.994-3.137 1.73-6.8 2.393-10.377 2.195-2.501-.138-5.03-.68-7.484-.199-1.281.251-2.491.771-3.734 1.17-1.243.399-2.569.678-3.85.426-.885-.174-1.7-.591-2.545-.908-.422-.158-.856-.294-1.303-.357-.447-.064-.908-.055-1.342.068-.431.122-.827.355-1.162.652-.335.297-.61.658-.834 1.045-.712 1.23-.894 2.685-1.098 4.092-.353 2.441-.83 4.91-1.996 7.084-1.213 2.261-3.101 4.073-4.689 6.088-.532.674-1.033 1.374-1.498 2.096.718.648 1.637 1.071 2.596 1.197 1.426.187 2.854-.271 4.191-.799 5.136-2.027 9.846-5.23 13.371-9.48 1.207-1.455 2.308-3.058 3.893-4.09 1.489-.97 3.287-1.35 5.057-1.504 1.77-.153 3.554-.099 5.32-.293 3.561-.39 6.936-1.772 10.18-3.293 2.184-1.024 4.338-2.119 6.387-3.393.391-.243.781-.495 1.109-.818.329-.323.595-.726.686-1.178.077-.383.025-.787-.123-1.148-.148-.361-.388-.681-.674-.947-.594-.552-1.384-.869-2.189-.963-.201-.024-.405-.033-.607-.031m-54.895 20.43c-.537 0-1.075-.005-1.611.014-1.626.056-3.263.246-4.801.777-1.538.532-2.979 1.426-3.977 2.711-.947 1.22-1.453 2.738-1.648 4.27-.196 1.532-.095 3.086.074 4.621.219 1.993.552 3.971.787 5.963.263 2.234.407 4.507 1.125 6.639.12.356.257.71.473 1.018.215.308.518.569.879.672.293.083.61.057.896-.045.287-.102.544-.276.764-.486.439-.421.727-.973 1.039-1.496.947-1.587 2.173-2.985 3.377-4.387 1.49-1.735 2.958-3.49 4.5-5.178.698-.764 1.412-1.514 2.139-2.25.081-.487-.094-1.01-.451-1.35-.184-.176-.409-.305-.645-.402-.235-.098-.482-.168-.727-.24-.244-.072-.489-.148-.719-.258-.23-.11-.445-.256-.609-.451-.219-.259-.337-.597-.35-.936-.012-.339.078-.677.236-.977.296-.56.813-.97 1.346-1.313.533-.342 1.1-.637 1.58-1.051.792-.682 1.301-1.669 1.463-2.701.143-.908.024-1.854-.338-2.699-1.586-.28-3.193-.436-4.803-.465m23.754 1.637c-.373-.008-.743.046-1.09.184-.441.175-.823.481-1.121.85-.299.369-.517.799-.676 1.246-.499 1.406-.418 2.947-.236 4.428.182 1.481.46 2.966.338 4.453-.11 1.339-.542 2.629-.998 3.893-.558 1.546-1.157 3.076-1.797 4.59 2.163-1.284 4.396-2.45 6.686-3.492 5.682-2.586 11.682-4.394 17.564-6.486 1.756-.625 3.509-1.278 5.33-1.676 1.821-.398 3.729-.535 5.547-.121.797.181 1.583.468 2.4.463.409-.003.823-.081 1.184-.273.361-.192.666-.505.807-.889.094-.255.113-.534.086-.805-.027-.271-.099-.533-.186-.791-.38-1.131-1.037-2.168-1.896-2.994-.987.583-2.024 1.084-3.094 1.496-4.377 1.686-9.224 1.837-13.871 1.197-3.692-.508-7.357-1.519-10.578-3.393-1.07-.623-2.105-1.345-3.293-1.695-.358-.106-.733-.176-1.105-.184m-6.891 6.06c-2.221.209-4.396.901-6.33 2.01-2.717 1.564-4.908 3.914-6.748 6.453-1.84 2.539-3.366 5.288-5.05 7.934-7.987 12.554-19.52 22.807-25.895 36.25-4.273 9.01-6.01 19.08-6.04 29.06-.032 9.407 1.431 18.874 4.891 27.621 2.705 6.842 6.62 13.203 11.508 18.701-1.397-4.587-2.739-9.192-4.03-13.811-2.026-7.262-3.927-14.625-4.314-22.15-.571-11.08 2.193-22.18 6.904-32.22 6.182-13.181 15.573-24.572 25.318-35.389 2.118-2.351 4.264-4.689 6.084-7.277 1.82-2.589 3.315-5.455 3.986-8.547.617-2.842.518-5.836-.287-8.631m55.07 1.986c-1.375.041-2.736.293-3.998.83-2.238.953-4.02 2.74-5.492 4.678-1.666 2.195-3.01 4.651-3.803 7.291-.789 2.64-1.01 5.47-.471 8.172.321 1.607.909 3.159 1.73 4.576 2.167-1.787 4.406-3.484 6.713-5.086 4.903-3.405 10.159-6.399 15.869-8.137 3.947-1.201 8.08-1.786 12.205-1.729-1.104-1.457-2.409-2.763-3.865-3.867-2.985-2.264-6.535-3.644-10.07-4.883-2.072-.726-4.172-1.417-6.348-1.709-.816-.11-1.646-.161-2.471-.137m-88.49 1.016c-.356-.006-.71.088-1.035.232-.617.274-1.144.731-1.547 1.273-.403.542-.684 1.168-.881 1.814-.393 1.293-.448 2.659-.611 4-.201 1.65-.572 3.289-.563 4.951.017 3.12 1.367 6.075 2.926 8.777.348.603.711 1.205 1.184 1.717.472.512 1.065.932 1.742 1.096.802.194 1.674.004 2.363-.449.583-.383 1.041-.944 1.34-1.574.299-.631.443-1.33.461-2.027.046-1.796-.715-3.507-1.555-5.096-.839-1.589-1.785-3.161-2.158-4.918-.532-2.502.15-5.099 0-7.652-.019-.329-.053-.66-.152-.975-.099-.315-.269-.616-.523-.826-.274-.227-.634-.338-.99-.344m78.56.568c-5.281.528-10.55 1.186-15.799 1.975-9.108 1.368-18.469 3.256-26 8.559-1.276.898-2.489 1.887-3.621 2.961-4.389 4.161-7.481 9.466-10.859 14.482-6.123 9.09-13.353 17.451-18.76 26.986-5.724 10.1-9.329 21.662-8.559 33.24.515 7.735 2.945 15.222 5.924 22.379 2.301 5.53 4.942 10.919 7.9 16.13 7.851-2.679 15.643-5.532 23.367-8.557 8.834-3.459 17.659-7.166 26.988-8.887 2.718-.501 5.467-.83 8.227-.986 1.103-.292 2.132-.864 2.963-1.646 1.157-1.091 1.897-2.539 2.633-3.949 2.09-4.01 4.322-7.935 6.582-11.848 2.997-5.188 6.05-10.357 8.559-15.799 1.526-3.315 2.846-6.723 3.949-10.201-2.689-1.331-4.923-3.565-6.254-6.254-.45-.91-.798-1.867-1.234-2.783-.436-.916-.973-1.805-1.729-2.482-.8-.718-1.801-1.16-2.756-1.652-.955-.492-1.913-1.075-2.51-1.969-.411-.615-.624-1.342-.746-2.072-.122-.73-.156-1.47-.24-2.205-.171-1.493-.558-2.982-1.316-4.279-.579-.989-1.359-1.843-2.096-2.721-.737-.877-1.447-1.804-1.854-2.875-.439-1.157-.492-2.484 0-3.619.412-.951 1.168-1.712 1.645-2.633.43-.83.619-1.774.633-2.709.014-.935-.143-1.866-.375-2.771-.464-1.812-1.228-3.543-1.574-5.381-.738-3.92.491-7.967 2.305-11.52 1.262-2.472 2.811-4.797 4.607-6.912m30.65 12.06c-5.524-.145-10.954 1.548-15.971 3.865-5.593 2.584-10.838 5.982-15.258 10.273-.534.519-1.06 1.054-1.498 1.656-.438.602-.788 1.277-.943 2.01-.108.508-.12 1.042 0 1.545.129.503.403.974.803 1.305.475.393 1.117.57 1.73.508.658-.067 1.266-.394 1.789-.799.523-.405.976-.891 1.465-1.338 2.422-2.214 5.583-3.399 8.646-4.576 7.374-2.834 15.03-5.96 22.889-5.189 2.138.21 4.262.709 6.408.611.31-.014.624-.042.916-.146.292-.104.563-.294.711-.566.113-.208.147-.453.119-.688-.028-.234-.117-.458-.236-.662-.238-.408-.592-.734-.9-1.092-.88-1.019-1.397-2.303-2.236-3.355-.975-1.223-2.354-2.086-3.83-2.605-1.476-.519-3.049-.711-4.613-.752m-115.86 9.629c-.181.019-.36.065-.527.137-.335.143-.626.384-.842.678-.433.589-.549 1.365-.457 2.09.092.725.375 1.411.682 2.074.262.567.546 1.127.908 1.637.362.51.805.97 1.342 1.289.423.252.905.413 1.396.441.492.029.994-.079 1.418-.33.415-.246.753-.634.895-1.096.071-.231.091-.478.055-.717-.036-.239-.13-.469-.275-.662-.161-.214-.379-.376-.6-.527-.221-.151-.448-.297-.637-.486-.222-.223-.383-.499-.504-.789-.121-.29-.203-.595-.285-.898-.159-.589-.319-1.185-.631-1.709-.156-.262-.349-.505-.584-.699-.235-.194-.513-.34-.811-.404-.178-.038-.362-.047-.543-.027m120.21 2.799c-3.929-.077-7.869.359-11.684 1.305-3.229.8-6.358 1.957-9.461 3.154-4.379 1.689-8.843 3.54-12.205 6.814-.919.896-1.765 1.926-2.137 3.154-.25.827-.272 1.717-.088 2.561.184.844.573 1.64 1.105 2.32.616.788 1.427 1.423 2.34 1.832 2.259-1.574 4.641-2.969 7.119-4.17 4.295-2.08 8.865-3.569 13.529-4.578 4.379-.947 8.951-1.472 13.326-.51 2.899.638 5.681 1.92 8.646 2.035.398.015.799 0 1.188-.076.388-.086.766-.256 1.051-.533.361-.352.549-.855.592-1.357.043-.502-.05-1.01-.186-1.492-.545-1.955-1.768-3.64-2.951-5.289-1.064-1.483-2.114-2.976-3.152-4.477-2.321-.417-4.676-.647-7.03-.693m-3.211 14.828c-4.678.041-9.362.484-13.863 1.734-2.02.56-3.99 1.281-5.9 2.137-1.868.837-3.718 1.835-5.086 3.357-.533.593-.991 1.27-1.221 2.033-.247.822-.217 1.712 0 2.543.289 1.106.897 2.108 1.629 2.986.731.878 1.586 1.646 2.439 2.406 4.68 4.17 9.399 8.296 14.04 12.512 3.177 2.888 6.318 5.819 9.359 8.85.429.427.856.858 1.338 1.225.482.367 1.022.669 1.611.809.734.174 1.508.088 2.238-.102 2.368-.615 4.313-2.244 6.307-3.662 2.103-1.496 4.394-2.817 6.918-3.355 1.831-.391 3.722-.358 5.594-.307.546.015 1.094.033 1.635-.041.541-.074 1.08-.244 1.52-.568.552-.408.916-1.049 1.016-1.729.069-.471.017-.954-.104-1.414-.12-.46-.306-.902-.506-1.334-.985-2.122-2.32-4.06-3.459-6.104-2.616-4.694-4.18-9.907-6.713-14.646-.497-.931-1.037-1.848-1.73-2.645-1.046-1.201-2.415-2.09-3.865-2.748-3.472-1.575-7.377-1.878-11.189-1.932-.667-.009-1.336-.012-2-.006m-15.857 26.578c-.58 2.872-1.452 5.685-2.596 8.383-1.719 4.055-4.04 7.824-5.986 11.775-2.791 5.663-4.817 11.703-7.984 17.16-.598 1.031-1.255 2.06-2.195 2.793-.357.279-.749.509-1.109.783-.361.274-.697.602-.887 1.014-.231.501-.225 1.082-.111 1.621.114.539.331 1.051.512 1.572.288.829.489 1.692.857 2.488.184.398.41.78.697 1.111.288.332.638.612 1.039.791.689.308 1.492.295 2.215.08.723-.215 1.377-.62 1.977-1.078 2.71-2.067 4.401-5.167 5.988-8.184 3.492-6.636 6.865-13.332 10.377-19.957 1.548-2.92 3.15-5.907 3.594-9.182.152-1.124.164-2.27 0-3.393-.266-1.821-1.01-3.584-2.197-4.99-1.098-1.3-2.567-2.279-4.189-2.793m42.6 7.855c-1.649.034-3.292.21-4.902.564-3.605.795-6.953 2.464-10.172 4.271-1.034.58-2.064 1.18-2.98 1.932-.917.751-1.723 1.666-2.207 2.748-.356.795-.53 1.702-.305 2.543.125.466.368.898.688 1.26.32.362.714.655 1.143.877.478.248.997.407 1.525.508 2.386.456 4.815-.286 7.223-.609 3.939-.53 7.997.08 11.699 1.525 4.435 1.731 8.374 4.645 11.494 8.24 2.066 2.381 3.785 5.062 5.086 7.934.552-2.1 1.094-4.202 1.627-6.307.801-3.166 1.586-6.419 1.221-9.664-.28-2.493-1.236-4.876-2.543-7.02-1.399-2.292-3.228-4.355-5.492-5.799-2.747-1.753-6.01-2.529-9.258-2.848-.729-.072-1.462-.122-2.195-.146-.55-.019-1.101-.023-1.65-.012m-163.38 2.629c-.263.019-.521.073-.762.18-.421.186-.767.526-.996.926-.229.4-.345.858-.373 1.318-.057.92.228 1.822.523 2.695.749 2.213 1.605 4.441 1.693 6.775.104 2.745-.865 5.436-.848 8.184.019 2.974 1.19 5.819 2.541 8.469.247.484.5.966.816 1.408.316.442.697.844 1.158 1.131.456.284.984.449 1.52.492.535.043 1.078-.034 1.586-.209.936-.322 1.752-.983 2.258-1.834.432-.726.637-1.571.695-2.414.058-.843-.024-1.687-.131-2.525-.572-4.505-1.865-8.898-2.398-13.408-.323-2.731-.368-5.506-.988-8.186-.085-.365-.181-.73-.334-1.072-.153-.343-.365-.663-.654-.902-.398-.329-.913-.482-1.424-.557-.511-.074-1.028-.077-1.539-.148-.521-.073-1.031-.218-1.553-.289-.261-.036-.528-.052-.791-.033m150.72 13.699c-.585.026-1.168.086-1.742.203-1.148.235-2.268.717-3.111 1.529-.609.587-1.058 1.333-1.322 2.137-.227.69-.318 1.414-.406 2.135-.044.358-.088.718-.086 1.078.002.361.052.724.188 1.059.211.523.624.947 1.098 1.254.474.307 1.01.507 1.547.68 2.06.661 4.217.963 6.307 1.525 2.521.679 4.961 1.752 7.02 3.357 3.297 2.571 5.441 6.361 6.916 10.273.869 2.305 1.537 4.69 1.934 7.121.356 2.183.492 4.401.406 6.611 1.809-1.155 3.431-2.605 4.781-4.273 2.065-2.55 3.488-5.62 4.068-8.85.807-4.486-.043-9.228-2.238-13.223-3.046-5.544-8.573-9.52-14.646-11.291-2.903-.846-5.931-1.223-8.953-1.322-.585-.019-1.173-.029-1.758-.004m-5.391 12.738c-3.422 3.255-7.252 6.079-11.375 8.383-4.67 2.609-9.684 4.542-14.459 6.953-4.775 2.411-9.402 5.387-12.684 9.611-1.498 1.929-2.715 4.162-2.994 6.588-.244 2.116.246 4.28 1.197 6.186 1.043 2.09 2.643 3.899 4.59 5.189.733-.196 1.465-.394 2.195-.598 12.406-3.452 24.483-7.976 36.723-11.977 4.04-1.321 8.1-2.584 12.176-3.791 1.478-1.582 2.581-3.511 3.193-5.588 1.159-3.932.475-8.363-1.797-11.775-2.162-3.247-5.585-5.474-9.182-6.986-2.431-1.023-4.982-1.761-7.584-2.195m-147.77.902c-1.946-.07-3.918.62-5.379 1.912-.948.839-1.681 1.917-2.115 3.105l13.406 67.18c.715.078 1.448-.021 2.117-.283.824-.323 1.54-.889 2.105-1.57.565-.682.983-1.477 1.297-2.305.628-1.656.847-3.433 1.254-5.156.487-2.064 1.248-4.063 2.258-5.928-.375.099-.751.194-1.129.283-.649.153-1.31.29-1.977.264-.666-.026-1.348-.231-1.834-.688-.37-.347-.605-.821-.729-1.313-.123-.492-.14-1-.117-1.51.06-1.366.399-2.72.988-3.953l-9.314-49.957c-.275-.041-.554-.068-.832-.078m12.545 6.57c-.462.039-.903.208-1.338.369-.435.162-.88.319-1.344.336-.308.011-.613-.042-.92-.07-.307-.029-.624-.032-.914.07-.366.129-.658.417-.857.75-.199.333-.316.709-.414 1.084-.11.423-.202.856-.201 1.293 0 .437.1.885.344 1.248.303.452.811.742 1.342.861.531.12 1.085.082 1.621-.016 1.429-.259 2.778-.953 3.811-1.975.357-.353.68-.752.879-1.213.199-.461.267-.992.109-1.469-.139-.421-.449-.779-.834-1-.385-.221-.841-.307-1.283-.27m80.74 1.525c-2.268.026-4.513.64-6.646 1.438-2.567.959-5.03 2.192-7.34 3.67 1.074.183 2.123.515 3.105.986 1.674.803 3.143 2 4.375 3.389 1.492 1.683 2.65 3.66 3.387 5.785 1.551-.456 3.192-.601 4.799-.424 1.395.154 2.754.547 4.15.686.698.069 1.407.074 2.098-.047.691-.121 1.367-.37 1.938-.779.583-.418 1.052-1.01 1.27-1.693.231-.725.173-1.515-.021-2.25-.194-.735-.52-1.429-.826-2.125-.509-1.159-.971-2.341-1.557-3.463-.586-1.122-1.305-2.192-2.254-3.03-1.501-1.324-3.507-1.986-5.504-2.117-.325-.021-.649-.029-.973-.025m-24.15 7.768c-4.048.999-8.05 2.198-11.975 3.592-6.827 2.421-13.445 5.431-19.758 8.982.372 3.704 1.04 7.378 1.996 10.977.465 1.75.997 3.481 1.596 5.189 2.187-2.215 4.524-4.284 6.986-6.188 3.815-2.949 7.928-5.498 12.174-7.783 2.096-1.128 4.226-2.193 6.387-3.193-.231-1.585-.231-3.206 0-4.791.352-2.416 1.244-4.751 2.594-6.785m7.266 1.49c-.9.046-1.79.259-2.604.646-1.13.538-2.094 1.403-2.791 2.441-.697 1.039-1.13 2.247-1.301 3.486-.207 1.507-.027 3.065.514 4.486.541 1.422 1.44 2.704 2.59 3.699 1.694 1.465 3.994 2.292 6.211 1.977 2.081-.296 3.977-1.6 5.08-3.389 1.127-1.828 1.433-4.108.988-6.209-.532-2.514-2.143-4.795-4.375-6.068-1.043-.595-2.215-.973-3.412-1.061-.299-.022-.6-.025-.9 0m-50.674 6.592c-1.082 1.369-2.082 2.803-2.994 4.291-1.323 2.159-2.459 4.433-3.393 6.787 3.118.907 6.158 2.076 9.08 3.492 3.636 1.762 7.089 3.907 10.279 6.387-1.23-3.071-2.2-6.246-2.895-9.48-.523-2.435-.889-4.903-1.098-7.385-1.475-.605-2.939-1.237-4.391-1.896-1.544-.701-3.074-1.433-4.59-2.195m40.02 8.883c-2.539.708-5.01 1.643-7.385 2.793-5.543 2.688-10.546 6.594-14.17 11.576-1.133 1.557-2.151 3.279-2.395 5.189-.291 2.286.64 4.693 2.395 6.188 4.082-4.655 9.351-8.26 15.168-10.379 2.263-.824 4.607-1.427 6.986-1.797.409-.863.549-1.85.398-2.793-.114-.713-.392-1.399-.799-1.996-.272-.399-.598-.758-.895-1.139-.297-.381-.567-.792-.701-1.256-.142-.492-.125-1.019-.029-1.521.095-.503.265-.987.428-1.473.374-1.118.707-2.25.998-3.393m-42.908 7.283c-.597.038-1.184.196-1.697.5-.436.258-.814.62-1.078 1.053-.264.432-.415.935-.42 1.441-.005.486.124.97.354 1.398.23.428.558.802.943 1.098.968.742 2.22.969 3.395 1.297 1.884.527 3.669 1.362 5.389 2.295 3.447 1.871 6.669 4.154 9.578 6.785-.09-3.338-1.427-6.626-3.691-9.08-2.33-2.524-5.49-4.092-8.582-5.588-1.144-.553-2.324-1.116-3.592-1.199-.198-.013-.399-.013-.598 0m-2.744 8.676c-.486-.024-.974.006-1.449.107-.78.166-1.528.537-2.074 1.117-.547.581-.875 1.38-.818 2.176.04.557.263 1.091.574 1.555.311.464.707.863 1.121 1.238 2.598 2.353 5.891 3.758 8.881 5.588 3.464 2.121 6.53 4.821 9.68 7.385 2.414 1.965 4.785 3.986 6.986 6.188.534-1.634.738-3.376.598-5.09-.11-1.342-.43-2.669-.996-3.891-.813-1.754-2.107-3.245-3.494-4.592-2.983-2.895-6.455-5.226-9.879-7.584-2.393-1.648-4.85-3.351-7.684-3.99-.474-.107-.959-.183-1.445-.207m48.45.805c-3.836-.172-7.599 1.171-10.979 2.994-2.049 1.105-3.993 2.39-5.986 3.592-1.284.775-2.598 1.521-3.732 2.502-1.135.981-2.095 2.23-2.455 3.686-.386 1.563-.055 3.201.199 4.791.348 2.178.549 4.38.6 6.586 1.089-1.172 2.221-2.304 3.393-3.393 3.661-3.402 7.708-6.379 11.975-8.982 3.344-2.04 6.95-3.964 9.182-7.184.347-.5.659-1.036.805-1.627.073-.295.104-.603.074-.906-.03-.303-.123-.602-.281-.861-.275-.451-.739-.764-1.236-.941-.497-.178-1.029-.232-1.557-.256m49.2 5.236c-.767 0-1.534.051-2.295.152-2.282.304-4.483 1.061-6.586 1.996-5.742 2.554-10.849 6.457-16.764 8.582-4 1.439-8.302 2.034-12.176 3.793-3.093 1.405-5.85 3.541-7.982 6.186.319 1.7.787 3.372 1.396 4.99.599 1.589 1.334 3.126 2.195 4.59 2.989-2.384 6.124-4.585 9.381-6.586 7.294-4.482 15.23-7.966 23.551-9.979 3.671-.888 7.411-1.49 11.176-1.797.366-2.243.567-4.513.6-6.785.024-1.665-.043-3.332-.199-4.99-.761-.101-1.53-.152-2.297-.152m-42.21 3.545c-2.325.314-4.609.92-6.785 1.797-5.391 2.174-9.977 5.952-14.17 9.979-3.03 2.911-6 6.147-7.186 10.18-.962 3.287-.639 6.812 0 10.178.488 2.57 1.156 5.106 1.996 7.584 2.882-1.305 5.811-2.503 8.781-3.592 4.507-1.653 9.108-3.053 13.771-4.191-.726-2.221-1.525-4.417-2.395-6.586-.824-2.053-1.713-4.084-2.396-6.188-.202-.622-.387-1.257-.428-1.91-.041-.653.072-1.332.428-1.881.373-.576.982-.964 1.619-1.219.637-.255 1.314-.392 1.975-.578 1.783-.503 3.45-1.363 4.988-2.395 1.688-1.132 3.236-2.477 4.592-3.992-1.059-.943-2-2.02-2.795-3.193-.836-1.236-1.509-2.582-1.996-3.992m-56.781 1.896c-.972.673-1.821 1.524-2.494 2.496-1.729 2.495-2.218 5.626-3.492 8.381-1.24 2.681-3.236 5.03-3.992 7.885-.275 1.038-.376 2.122-.299 3.193 1.953.168 3.891.502 5.787.998 7.04 1.84 13.315 5.843 19.16 10.178 4.614 3.421 9.05 7.087 13.271 10.977.005-4.217-.397-8.432-1.197-12.572-.73-3.776-1.806-7.527-3.691-10.879-2.414-4.293-6.04-7.75-9.58-11.176-2.773-2.685-5.559-5.419-8.881-7.385-1.45-.858-2.993-1.562-4.592-2.096m89.92 11.781c-2.421.366-4.798 1.032-7.06 1.977-2.419 1.012-4.704 2.344-6.775 3.951 19.674 60.9 42.1 120.91 67.18 179.79 4.343 10.195 8.764 20.356 13.266 30.482l-9.313-38.1-57.3-178.1m-17.967 7.279c-1.053.618-2.155 1.151-3.293 1.596-.676.264-1.368.5-2.01.846-.638.346-1.23.818-1.586 1.451-.207.369-.328.78-.398 1.197-.1.593-.1 1.202 0 1.795 1.568-.375 3.177-.575 4.789-.598 1.505-.021 3.01.112 4.49.398l-1.996-6.686m-79.77 7.729c-1.876 2.149-3.563 4.463-5.04 6.906-1.909 3.168-3.457 6.554-4.604 10.07 3.443.382 6.858 1.01 10.213 1.869 10.762 2.766 20.816 7.962 29.779 14.529 5.214 3.821 10.08 8.113 14.529 12.805.286-.977.383-2.01.287-3.02-.132-1.39-.632-2.744-1.438-3.885l-3.309-2.301c.315-1.126.507-2.286.574-3.453.095-1.66-.073-3.359-.719-4.891-.987-2.341-2.979-4.08-4.891-5.754-6.346-5.557-12.547-11.367-19.709-15.824-4.88-3.037-10.169-5.417-15.68-7.05m80.03 2.359c-.991-.03-1.978.123-2.955.291-8.12 1.397-16.02 3.863-24.05 5.688-1.945.441-3.913.85-5.742 1.645-1.829.794-3.536 2.02-4.535 3.744-.968 1.673-1.199 3.69-1.025 5.615.173 1.925.723 3.793 1.225 5.66.639 2.377 1.205 4.774 1.697 7.186 2.234-2.21 4.757-4.127 7.484-5.688 6.999-4 15.1-5.556 23.05-6.887 4.02-.672 8.04-1.303 12.07-1.895.476-.961.75-2.02.799-3.094.064-1.393-.251-2.783-.732-4.092-.482-1.309-1.128-2.55-1.762-3.793-.344-.675-.687-1.354-1.113-1.98-.427-.626-.944-1.202-1.582-1.611-.835-.535-1.841-.759-2.832-.789m6.02 19.07c-.962-.008-1.927.08-2.885.184-7.664.826-15.218 2.625-22.451 5.289-3.835 1.412-7.74 3.185-10.279 6.387-.79.996-1.429 2.111-1.896 3.293-1.417 3.581-1.219 7.614-.398 11.377.415 1.904.982 3.774 1.695 5.588 2.12-2.379 4.501-4.525 7.086-6.387 4.733-3.41 10.164-5.861 15.867-7.086 5.425-1.165 11.02-1.222 16.564-1.297 2.195-.03 4.391-.063 6.586-.1-.411-2.188-.777-4.383-1.098-6.586-.257-1.767-.488-3.552-1.086-5.234-.598-1.682-1.605-3.279-3.105-4.246-1.079-.696-2.359-1.031-3.639-1.139-.32-.027-.64-.04-.961-.043m-91.94.297c-1.146 1.454-2.249 2.943-3.309 4.461-1.051 1.505-2.059 3.041-3.02 4.604.826 1.028 1.55 2.138 2.158 3.309.87 1.674 1.501 3.472 1.869 5.322 5.547.554 11.02 1.814 16.256 3.74 8.15 3 15.642 7.586 22.586 12.803 4.219 3.17 8.256 6.583 12.08 10.215 1.622-1.024 2.868-2.634 3.453-4.461.686-2.14.463-4.499-.289-6.617-1.218-3.429-3.723-6.235-6.328-8.775-8.089-7.888-17.712-14.15-28.05-18.701-5.614-2.471-11.446-4.448-17.406-5.898m-8.631 12.805c-.266 2.709-.699 5.399-1.295 8.05-1.466 6.528-3.909 12.79-5.938 19.17-2.028 6.376-3.658 12.99-3.414 19.676.073 2 .318 4.01.918 5.918.6 1.91 1.569 3.725 2.967 5.158 1.331 1.365 3.02 2.351 4.801 3.02 1.784.673 3.667 1.043 5.557 1.293 4.247.562 8.635.54 12.658 2.01 2.75 1.01 5.246 2.703 7.193 4.891-5.223-6.89-9.191-14.727-11.652-23.02-2.289-7.707-3.276-15.756-5.609-23.449-1.523-5.02-3.615-9.871-4.893-14.961-.64-2.549-1.072-5.149-1.293-7.768m99.09 7.186c-1.127 0-2.253.142-3.297.553-.688.271-1.335.658-1.875 1.164-.54.506-.971 1.133-1.219 1.83-.243.684-.306 1.422-.262 2.146.044.724.192 1.439.361 2.145.816 3.4 2.127 6.659 3.492 9.879.524 1.234 1.057 2.466 1.598 3.693 2.132-.006 4.265.093 6.387.299 4.02.39 8 1.159 11.875 2.295.731-4.581.865-9.256.398-13.871-.148-1.468-.361-2.941-.869-4.326-.508-1.385-1.333-2.686-2.523-3.557-1.182-.864-2.648-1.254-4.102-1.428-1.453-.173-2.922-.148-4.381-.27-1.491-.124-2.966-.402-4.459-.51-.373-.027-.749-.043-1.125-.043m-10.184 2.051c-5.242 1.26-10.243 3.506-14.668 6.586-2.656 1.849-5.105 3.995-7.285 6.387-.283 3.701-.049 7.44.697 11.08.504 2.457 1.242 4.867 2.197 7.186 2.248-1.688 4.656-3.16 7.184-4.391 3.873-1.886 8.02-3.202 12.275-3.893 1.034-4.74 1.371-9.631.998-14.469-.221-2.861-.69-5.702-1.398-8.482m-80.85.4c1.332 2.733 2.439 5.575 3.309 8.488.759 2.544 1.337 5.142 1.727 7.768 3.64.795 7.179 2.055 10.502 3.74 5.974 3.03 11.189 7.393 15.824 12.229 2.9 3.03 5.594 6.248 8.06 9.639 1.025-.36 1.94-1.026 2.6-1.889.66-.863 1.062-1.919 1.141-3 .083-1.135-.18-2.263-.402-3.379-.223-1.116-.408-2.27-.174-3.383.231-1.1.856-2.081 1.15-3.166.294-1.083.242-2.256-.145-3.309-4.849-4.222-9.943-8.162-15.248-11.795-6.579-4.505-13.589-8.584-21.291-10.646-2.31-.619-4.67-1.052-7.05-1.295m85.74 20.256c-1.192 5.05-2.726 10.02-4.59 14.869-2.76 7.176-6.244 14.07-10.379 20.557 4.314.389 8.665.356 12.973-.1 6.262-.662 12.394-2.209 18.461-3.893 3.104-.861 6.199-1.758 9.281-2.693-3.655-1.94-7.05-4.363-10.08-7.186-4.568-4.26-8.246-9.382-11.574-14.668-1.423-2.26-2.787-4.557-4.092-6.887m-79.7.748c.061 3.574.446 7.141 1.15 10.645 1.845 9.186 5.938 17.96 12.08 25.03 2.364 2.72 5.02 5.186 7.912 7.338 1.636-2.182 3.173-4.439 4.604-6.762 2.488-4.04 4.654-8.278 6.473-12.66-5.523-7.401-12.569-13.659-20.57-18.27-3.705-2.135-7.613-3.919-11.652-5.322m89.18 1.51c-.266.002-.532.013-.799.037-1.034.092-2.052.364-2.994.799 1.073 1.877 2.171 3.74 3.293 5.588 1.508 2.484 3.094 4.982 5.289 6.887 1.484 1.287 3.225 2.276 5.09 2.893.356-2.382.821-4.746 1.396-7.084.24-.975.5-1.952.582-2.953.082-1-.024-2.042-.482-2.936-.426-.832-1.149-1.502-1.996-1.896-1.171-.546-2.506-.563-3.791-.697-1.865-.195-3.723-.653-5.588-.637m-15.168 3.83c-2.284.456-4.527 1.125-6.688 1.996-2.274.917-4.519 2.104-6.086 3.99-.851 1.024-1.488 2.267-1.598 3.594-.11 1.322.303 2.624.699 3.891 1.149 3.667 2.214 7.362 3.193 11.08 2.823-3.27 5.122-6.992 6.785-10.979 1.103-2.644 1.927-5.396 2.596-8.182.428-1.783.794-3.58 1.098-5.389m31.23 27.04c-2.344 0-4.689.234-6.986.699-7.114 1.441-13.801 5.086-21.06 5.289-4.4.123-8.817-1.04-13.172-.4-1.588.233-3.141.705-4.59 1.396 4.307 2.923 9.306 4.822 14.469 5.49 2.02.261 4.059.337 6.088.199 7.352-.501 14.296-3.819 20.16-8.283 1.784-1.358 3.485-2.825 5.09-4.391m-124.67.705c-1.021 1.149-1.767 2.541-2.158 4.03-.297 1.13-.385 2.35 0 3.453.274.783.779 1.476 1.412 2.01.633.536 1.39.918 2.186 1.152 2.13.628 4.406.205 6.617 0 4.02-.372 8.109-.003 12.08-.719 2.308-.415 4.55-1.196 6.617-2.303-3.637-1.69-7.389-3.132-11.221-4.314-5.066-1.564-10.273-2.673-15.537-3.309m121.47 9.473c-1.785.139-3.558.44-5.289.898-2.512.666-4.924 1.659-7.385 2.496-4.406 1.498-9.02 2.501-13.672 2.494-3.877-.006-7.75-.72-11.375-2.096 1.925 2.05 3.726 4.218 5.389 6.486 2.194 2.994 4.143 6.159 5.986 9.381 4.268 7.458 7.973 15.237 11.08 23.25.561-4.423 1.328-8.82 2.297-13.172 1.809-8.128 4.358-16.18 8.582-23.352 1.312-2.228 2.78-4.364 4.391-6.387m-118.6 3.473c-1.287 2.131-1.708 4.768-1.15 7.193.486 2.116 1.665 4 2.92 5.775 1.255 1.771 2.618 3.487 3.555 5.445 1.421 2.972 1.782 6.437 1.01 9.639 2.824-6.566 6.73-12.667 11.51-17.982 3.071-3.414 6.499-6.506 10.213-9.207-4.695.242-9.399.291-14.1.145-4.663-.145-9.32-.482-13.955-1.01m38.803.498c-3.627 1.154-7.07 2.877-10.172 5.086-6.401 4.562-11.179 11.06-15.05 17.902-1.391 2.455-2.681 4.968-3.865 7.529.573 11.86.505 23.749-.203 35.602-.513 8.581-1.34 17.368 1.018 25.635 1.46 5.119 4.086 9.814 6.713 14.443 3.444 6.068 7.02 12.224 12.207 16.887 2.26 2.03 4.801 3.747 7.527 5.086-3.02-6.94-4.559-14.517-4.492-22.08.098-11.178 3.634-22.01 7.379-32.547 3.745-10.533 7.77-21.12 8.912-32.24 1.475-14.361-2.105-29.19-9.969-41.3m79.7 3.715c-1.347 3.586-2.678 7.179-3.992 10.777-2.876 7.877-5.707 15.963-5.789 24.348-.032 3.226.33 6.566-.795 9.59-.194.523-.433 1.033-.758 1.486-.325.453-.741.848-1.236 1.104-.4.206-.849.319-1.299.32-.45 0-.9-.11-1.297-.322-.491-.263-.89-.674-1.207-1.131-.317-.457-.557-.962-.791-1.467-2.257-4.878-3.963-9.99-5.988-14.969-2.267-5.572-4.936-10.979-7.982-16.17-1.505 7.891-2.309 15.918-2.396 23.951-.196 18.06 3.227 36.03 8.582 53.29 1.566 5.04 3.297 10.04 5.189 14.969 2.571-3.266 4.664-6.91 6.188-10.777 2.2-5.582 3.202-11.575 3.592-17.563.386-5.921.186-11.882-.598-17.764 1.863 6.999 4.197 13.872 6.984 20.557 2.188 5.248 4.654 10.382 7.385 15.369 3.117-10.228 4.932-20.853 5.389-31.535.324-7.584-.033-15.182-.598-22.752-.67-8.99-1.639-17.991-3.793-26.744-1.223-4.969-2.825-9.843-4.789-14.568m-6.75 86.76c-.886 3.046-1.876 6.06-2.967 9.04-1.281 3.499-2.781 7.06-5.508 9.604-1.16 1.08-2.509 1.941-3.693 2.994-.592.527-1.145 1.103-1.592 1.758-.447.655-.786 1.39-.93 2.17-.224 1.215.035 2.461.283 3.672.51 2.488.98 4.984 1.412 7.486 1.441-1.88 3.051-3.632 4.803-5.227 2.622-2.387 5.686-4.474 9.18-5.084 2.296-.401 4.68-.138 6.904.557 2.225.695 4.298 1.812 6.23 3.115.976.659 1.921 1.366 2.826 2.119.636-2.746.225-5.722-1.131-8.193-.844-1.538-2.02-2.859-3.107-4.236-2.443-3.099-4.447-6.514-6.496-9.887-2.02-3.327-4.093-6.623-6.215-9.887m-103.4 8.02c.186 4.089-.475 8.216-1.928 12.04-1.424 3.753-3.609 7.214-6.383 10.115 2.226.423 4.369 1.288 6.264 2.529 3.507 2.298 6.082 5.82 7.826 9.633 2.396 5.238 3.324 11.141 2.65 16.861l18.06-.121c1.13-2.198 1.944-4.557 2.408-6.984.615-3.213.615-6.543 0-9.756-3.802-1.744-7.316-4.113-10.357-6.984-6.655-6.284-10.821-14.674-15.535-22.52-.975-1.623-1.978-3.228-3.01-4.816m107.79 21.06c-.379-.014-.758-.008-1.137.018-2.884.196-5.605 1.504-7.91 3.248-3.319 2.51-5.935 6.02-7.06 10.03-.266.946-.45 1.937-.318 2.91.066.487.21.965.451 1.393.241.428.58.803.996 1.064.704.443 1.608.531 2.402.283.615-.191 1.159-.569 1.609-1.029.45-.46.811-1 1.127-1.563.632-1.122 1.107-2.345 1.924-3.34 1.174-1.43 2.959-2.252 4.775-2.607 1.816-.355 3.686-.289 5.535-.219 2.401.091 4.802.186 7.203.283.331-1.194.331-2.478 0-3.672-.406-1.466-1.296-2.769-2.4-3.814-1.929-1.824-4.546-2.884-7.197-2.982m-116.17 6.506c-.857-.045-1.743.133-2.451.617-.432.295-.795.709-.965 1.203-.142.413-.145.866-.065 1.295.081.429.243.838.426 1.234 1.576 3.416 4.652 5.871 6.865 8.912 2.288 3.143 3.643 6.956 3.854 10.838.842.043 1.687.043 2.529 0 1.05-.054 2.096-.175 3.131-.361-.142-2.133-.344-4.261-.604-6.383-.496-4.05-1.265-8.223-3.611-11.561-1.635-2.325-3.984-4.124-6.623-5.178-.797-.318-1.63-.572-2.486-.617m-7.998 6.947c-.696.024-1.39.166-2.041.414-1.125.429-2.12 1.155-3.252 1.564-1.028.372-2.137.47-3.23.453-1.093-.017-2.18-.145-3.271-.211-4.244-.257-8.488.431-12.645 1.324-3.037.653-6.05 1.415-9.03 2.287 2.368 1.831 4.449 4.04 6.143 6.504 1.089 1.588 2.02 3.286 2.77 5.059l36.01-.242c-.635-2.788-1.482-5.529-2.529-8.189-.963-2.445-2.13-4.871-3.975-6.742-.82-.832-1.784-1.552-2.891-1.928-.66-.224-1.357-.317-2.053-.293m127.57.111c-1.145.028-2.295.187-3.406.436-2.297.514-4.523 1.395-6.484 2.695-1.962 1.3-3.656 3.02-4.816 5.072-1.239 2.186-1.847 4.694-1.977 7.203-.204 3.958.748 7.876 1.695 11.725 1.079 4.38 2.161 8.757 3.248 13.13 1.782-.501 3.442-1.429 4.803-2.684.886-.817 1.641-1.764 2.453-2.654.813-.89 1.7-1.737 2.771-2.289 1.284-.662 2.779-.864 4.217-.715 1.438.149 2.824.635 4.117 1.279 1.787.89 3.42 2.091 4.803 3.531 0-6.544.047-13.09.141-19.633.029-2 .062-4.01-.162-5.996-.224-1.989-.714-3.97-1.674-5.727-.972-1.779-2.436-3.305-4.236-4.236-1.686-.872-3.583-1.189-5.492-1.143m-162.97 8.973c-.61-.024-1.22.208-1.688.602-.396.333-.694.776-.889 1.256-.195.48-.288.998-.314 1.516-.039.768.071 1.537.24 2.287.087.385.191.77.359 1.127.169.357.406.686.725.92.304.223.67.35 1.041.414.371.064.75.069 1.127.068 1.408-.003 2.816-.083 4.215-.24.269-1.025.226-2.131-.121-3.133-.374-1.079-1.079-2.01-1.807-2.889-.38-.46-.772-.918-1.248-1.279-.476-.361-1.044-.625-1.641-.648m165.08 26.934c-.993.059-1.977.334-2.891.736-2.01.883-3.692 2.345-5.322 3.811-.358.322-.717.648-1.018 1.023-.301.376-.543.807-.637 1.279-.131.657.052 1.375.504 1.869.405.443.991.688 1.582.793.889.158 1.805.033 2.686-.168.881-.2 1.746-.477 2.637-.625 1.763-.293 3.573-.076 5.322.289.722.151 1.449.326 2.186.309.368-.009.738-.066 1.082-.197.344-.131.662-.337.904-.615.331-.38.506-.882.547-1.385.04-.503-.045-1.01-.186-1.492-.231-.796-.612-1.546-1.08-2.23-.613-.896-1.384-1.689-2.291-2.285-.907-.596-1.951-.991-3.03-1.096-.331-.032-.663-.035-.994-.016" fill="#fff"/></g></g></svg>