<?xml version="1.0" encoding="UTF-8" standalone="no"?>
<!-- Created with Inkscape (http://www.inkscape.org/) -->

<svg
   width="510"
   height="560"
   id="svg2"
   sodipodi:version="0.32"
   inkscape:version="1.1.1 (3bf5ae0d25, 2021-09-20)"
   version="1.0"
   sodipodi:docname="Wappen_Goeppingen.svg"
   inkscape:output_extension="org.inkscape.output.svg.inkscape"
   xmlns:inkscape="http://www.inkscape.org/namespaces/inkscape"
   xmlns:sodipodi="http://sodipodi.sourceforge.net/DTD/sodipodi-0.dtd"
   xmlns="http://www.w3.org/2000/svg"
   xmlns:svg="http://www.w3.org/2000/svg"
   xmlns:rdf="http://www.w3.org/1999/02/22-rdf-syntax-ns#"
   xmlns:cc="http://creativecommons.org/ns#"
   xmlns:dc="http://purl.org/dc/elements/1.1/">
  <defs
     id="defs4">
    <inkscape:perspective
       sodipodi:type="inkscape:persp3d"
       inkscape:vp_x="0 : 526.18109 : 1"
       inkscape:vp_y="0 : 1000 : 0"
       inkscape:vp_z="744.09448 : 526.18109 : 1"
       inkscape:persp3d-origin="372.04724 : 350.78739 : 1"
       id="perspective10" />
    <inkscape:perspective
       id="perspective2390"
       inkscape:persp3d-origin="372.04724 : 350.78739 : 1"
       inkscape:vp_z="744.09448 : 526.18109 : 1"
       inkscape:vp_y="0 : 1000 : 0"
       inkscape:vp_x="0 : 526.18109 : 1"
       sodipodi:type="inkscape:persp3d" />
  </defs>
  <sodipodi:namedview
     id="base"
     pagecolor="#ffffff"
     bordercolor="#666666"
     borderopacity="1.0"
     inkscape:pageopacity="0.0"
     inkscape:pageshadow="2"
     inkscape:zoom="0.98994949"
     inkscape:cx="32.829958"
     inkscape:cy="312.64221"
     inkscape:document-units="px"
     inkscape:current-layer="g3188"
     showgrid="false"
     inkscape:window-width="1920"
     inkscape:window-height="1017"
     inkscape:window-x="-8"
     inkscape:window-y="-8"
     inkscape:pagecheckerboard="0"
     inkscape:window-maximized="1" />
  <metadata
     id="metadata7">
    <rdf:RDF>
      <cc:Work
         rdf:about="">
        <dc:format>image/svg+xml</dc:format>
        <dc:type
           rdf:resource="http://purl.org/dc/dcmitype/StillImage" />
      </cc:Work>
    </rdf:RDF>
  </metadata>
  <g
     inkscape:label="Ebene 1"
     inkscape:groupmode="layer"
     id="layer1">
    <g
       id="g3188"
       transform="matrix(1.5748031,0,0,1.5748031,-443.82227,-275.98486)">
      <path
         style="fill:#ffffff;fill-opacity:1;stroke:none;stroke-width:0.635px;stroke-linecap:butt;stroke-linejoin:miter;stroke-opacity:1"
         d="M 290.71429,286.36218 H 598.5 c 0,0 3.63408,42.95355 1.76128,64.3195 -2.32874,26.56755 -6.18055,53.60982 -16.07052,78.37767 -8.26758,20.70485 -18.97635,41.66589 -35.39035,56.75311 -19.18738,17.63642 -43.84636,31.56286 -69.58612,35.64498 -39.36904,6.24361 -84.14702,2.00512 -118.078,-18.9136 -27.36243,-16.86915 -43.77416,-48.66001 -56.39857,-78.22172 -11.2478,-26.3382 -13.4049,-55.93536 -15.59559,-84.49083 -1.36391,-17.7785 1.57216,-53.46911 1.57216,-53.46911 z"
         id="path64"
         sodipodi:nodetypes="ccaaaaaaac" />
      <path
         sodipodi:nodetypes="csscccccsssccsscccccssssccscccssssssssscccssssscccsssssssssssscccssssssscccsssssscccsssssssc"
         id="path2414"
         d="M 426.33078,526.80598 C 406.32054,524.59059 391.17573,520.47039 375.21429,512.89955 C 331.29071,492.06569 302.08569,446.35699 290.85061,380.86218 C 286.44721,355.1926 286,349.21424 286,261.86218 L 286,178.36218 L 445.01838,178.36218 L 603.5,178.36218 L 603.5,267.1091 C 603.16956,344.85915 602.84332,357.84431 601.35298,367.86218 C 591.98392,430.8401 572.1136,471.90389 538.21429,498.34393 C 519.52182,512.92326 498.82398,521.49195 471.71429,525.87421 C 462.79449,527.31609 435.9217,527.86781 426.33078,526.80598 z M 479.21429,519.85382 C 507.3333,513.91115 528.67957,502.79339 546.90655,484.59772 C 570.64421,460.90081 587.34936,424.22952 594.61751,379.86218 C 597.96897,359.40367 597.86667,348.9399 598.5,316.61218 L 598.5,286.36218 L 445.35445,286.36218 L 290.71429,286.36218 L 290.72461,312.61218 C 290.73028,327.32468 291.2027,344.76218 291.77443,351.36218 C 296.30479,403.66035 310.66267,445.40998 334.07921,474.37538 C 353.92268,498.92102 382.09703,515.13244 413.92859,520.32041 C 428.31115,522.66451 428.99466,522.70277 449.71429,522.32385 C 464.67406,522.05026 471.54261,521.47516 479.21429,519.85382 z M 540.91868,469.33657 C 537.81686,457.7392 516.89877,444.58548 501.21429,444.36963 C 495.95717,444.29728 492.827,443.63374 488.64244,441.70462 L 483.07059,439.13595 L 479.14412,441.15035 C 473.40938,444.09245 463.67109,444.49332 456.11402,442.09837 C 450.01858,440.16663 450.01068,440.16675 446.11402,442.24943 C 442.85534,443.99112 440.57046,444.31597 432.21429,444.22559 C 426.71429,444.1661 419.92612,443.4702 417.12948,442.67914 C 412.98649,441.50726 411.4121,441.46953 408.62948,442.47544 C 403.83507,444.20861 394.32391,444.14374 390.02744,442.34856 C 386.77182,440.98827 386.16179,440.99417 384.00581,442.40682 C 380.46245,444.72852 380.25442,446.39183 383.04822,450.06325 C 386.6371,454.77951 387.20114,458.03396 385.17108,462.312 C 382.09364,468.79722 375.2635,470.45795 368.1107,466.46017 L 363.69225,463.99066 L 359.45327,466.41437 C 354.77527,469.08911 351.62331,469.42363 346.83313,467.75376 C 341.00247,465.72118 338.90026,456.92347 342.59056,449.99872 C 344.31729,446.75855 344.31575,446.50336 342.54864,443.03728 C 339.72266,437.49427 340.15969,434.12139 344.19729,430.31345 C 346.11293,428.50676 348.99132,426.74061 350.59369,426.38867 C 353.90007,425.66247 359.10133,427.55869 362.34571,430.67311 L 364.47714,432.71915 L 367.07795,430.00449 C 371.64575,425.23673 371.53155,422.0579 366.43635,412.14534 C 356.76926,393.33834 354.11618,379.28539 355.03674,351.76342 C 355.65752,333.20392 355.65137,333.12861 353.09666,328.00197 C 351.6871,325.17336 348.8969,321.50974 346.89622,319.86061 C 343.40664,316.98421 343.35944,316.86258 345.73645,316.87195 C 349.35208,316.8862 357.81027,321.16036 360.80341,324.4857 C 368.67457,333.23048 371.42119,340.88699 372.77643,357.86196 C 375.05473,386.39843 378.68308,398.65621 389.22433,413.42845 C 394.22512,420.43643 397.40018,422.86218 401.57212,422.86218 C 406.3615,422.86218 406.9706,418.32857 403.5874,407.86218 C 402.0946,403.244 401.33625,397.67417 400.96798,388.62344 C 400.19256,369.56647 402.2388,360.94457 411.1823,345.58509 C 419.4715,331.34928 421.19475,324.54722 421.20544,306.02139 L 421.21429,290.6806 L 425.44866,295.35087 C 435.3227,306.24139 437.02773,327.02352 430.10519,352.10782 C 424.13999,373.72309 422.71577,381.24514 422.67279,391.36218 C 422.60925,406.31825 425.76096,414.76648 432.75293,418.38216 C 437.17984,420.6714 440.23204,420.22401 443.05215,416.8725 C 445.77796,413.63306 446.2698,410.77645 447.12368,393.22527 C 447.65971,382.20718 449.82742,374.23696 454.87102,364.73985 C 458.02823,358.7948 461.55815,355.00641 473.71429,344.51682 C 485.62816,334.23628 492.87418,325.18759 497.69222,314.57364 L 500.4437,308.51225 L 501.70172,312.32409 C 503.41719,317.52202 502.54537,329.21942 500.0176,334.92027 C 498.90601,337.42722 494.62487,343.95222 490.50394,349.42027 C 476.32055,368.24018 471.20375,379.46826 468.04713,398.69853 C 466.22036,409.82729 466.76406,416.38444 469.83759,420.2918 C 476.57399,428.85574 488.76322,415.18519 496.07825,390.86218 C 500.41602,376.43881 507.61396,367.61815 522.02573,359.06503 C 531.78284,353.27438 541.82605,344.23503 544.49405,338.84252 L 546.49579,334.79664 L 547.60504,337.97864 C 550.12454,345.20609 547.6227,350.87311 537.03708,361.91653 C 526.78197,372.61515 521.66982,379.50538 516.30301,389.86218 C 511.36421,399.39301 509.12063,406.51639 508.27151,415.36218 C 507.58814,422.48136 508.82812,424.4919 515.80578,427.57845 C 522.347,430.47194 530.37016,436.34978 537.24065,443.28183 C 547.01079,453.1395 549.8226,461.80923 545.80416,469.68602 C 544.63238,471.98291 543.32612,473.86218 542.90137,473.86218 C 542.47662,473.86218 541.58441,471.82566 540.91868,469.33657 z"
         style="fill:#000000" />
      <rect
         y="183.27515"
         x="290.66556"
         height="98.014526"
         width="308"
         id="rect2416"
         style="opacity:1;fill:#da121a;fill-opacity:1;fill-rule:nonzero;stroke:none;stroke-width:8;stroke-linecap:round;stroke-linejoin:round;stroke-miterlimit:3.86400008;stroke-dasharray:none;stroke-opacity:1" />
    </g>
  </g>
</svg>
