<svg xmlns="http://www.w3.org/2000/svg" height="525" width="470"><path d="M5 5v250h460V5z" fill="#fcdb00" fill-rule="evenodd"/><path d="M5 255c-3.905 67.584.784 138.14 56.443 191.39C117.103 499.642 176.083 520.094 235 519c60.202-1.117 119.698-11.507 176.032-75.276C444.967 405.114 469.558 363.696 465 255z" fill="#0081c9" fill-rule="evenodd"/><path d="M219.999 415c0-30 11.904-40.755 28.483-40.852 16.58-.097 25.505 14.013 26.517 40.852 1.012 26.839-5.99 41.45-26.15 41.364C228.69 456.278 220 445 220 415zm-25-120h-25v25h25v120c0 22.445 20.79 47.053 50 48 28.55.925 55.296-15.907 55-68-.295-51.766-8.74-72.177-35-75-29.822-3.206-41.02 12.587-45 30v-55h25v-25h-25v-20h-25v20" fill="#fcdb00" fill-rule="evenodd" stroke="#000" stroke-width="6" stroke-linecap="round" stroke-linejoin="round"/><g stroke="#000"><path d="M55.1 81.253c-13.415 6.917-19.585-.75-14.34-5.676 3.91-3.671 14.706-6.073 20.858-9.354 9.268-4.942 10.456-11.568 22.471-16.49 6.625-2.715 10.044-3.728 16.328-5.462-4.844-4.429-6.056-15.155 1.638-20.294 4.975-3.322 14.528-.609 14.252 6.625 10.452-13.954 28.981-7.235 30.464 8.442 14.07 1.182 30.726-11.728 42.209-11.53 9.399.162 28.53 14.226 42.21 17.402 22.819 5.3 45.776 2.644 78.912 7.986 18.733 3.02 42.905 7.913 55.423 13.67 17.556 8.073 26.16 18.777 47.195 10.125-1.974 11.65-7.244 20.332-22.971 19.605.409 12.51-7.004 26.524-1.012 40.444 12.595 29.258 59.292 47.508 35.996 67.609-11.287 9.738-15.635 8.769-19.569 20.776-2.486 7.59-16.016-.51-27.527 8.075-3.847-4.649.61-10.596 2.005-15.245-4.893 3.977-8.49 10.632-13.383 9.373-.821-3.426 2.257-6.852 5.505-10.278-5.016 3.34-10.032 7.63-15.048 7.708 1.796-6.198 1.299-11.097 12.39-14.852 5.417-1.834 9.716-3.18 13.67-3.867 10.84-1.88 5.337-10.89-4.36-18.737-10.889-8.81-22.297-12.396-33.446-15.397-4.282 13.794-8.665 24.806-12.846 34.501-1.983 4.6-6.403 6.561-11.745 6.607-3.619.031-7.683 9.665-11.163 10.366-9.202 1.853-16.21-.827-23.794 5.05-2.072-5.22 3.952-10.438 6.328-15.657-4.218 4.724-7.11 10.186-17.25 11.62.135-3.35 1.51-7.321 5.783-12.74-4.614 4.87-8.744 10.706-15.326 11.638 3.417-6.24 4.646-12.136 13.58-18.719 5.849-4.31 15.144-1.757 21.377-4.771 5.082-2.458 6.666-6.476 6.15-17.985-.496-11.104-5.437-22.98-10.187-34.76-29.979 15.59-51.513 16.57-66.352 10.75-1.771 16.933-4.064 34.941-6.41 48.968-.62 3.7-1.742 8.045-6.993 9.973-5.087 1.868-7.146 10.227-13.562 10.107-10.784-.202-20.641.011-28.628 5.98-.383-5.75 2.703-11.5 5.227-17.25-4.266 6.458-7.43 14.157-16.973 14.68 1.32-4.893 3.948-9.787 7.341-14.68-5.053 5.565-9.784 12.741-16.15 11.745-.414-5.677 2.516-12.134 12.113-17.985 7.133-4.35 11.766-7.005 16.238-9.176 5.983-2.904-1.19-17.529-4.126-27.072-14.156 6.39-36.642 8.051-57.625 11.656-7.402 1.272-9.743 11.106-22.389 16.884-.66-5.232-2.558-9.721 0-16.884-2.196 9.376-5.473 17.362-12.48 20.554 1.224-8.798 2.448-17.533 3.671-20.92-2.374 10.868-6.123 18.793-13.32 19.326 2.416-10.235 1.046-19.929 9.65-30.705 13.835-17.329 44.874-24.558 67.534-36.703-13.947-13.725-27.72-20.28-41.842-28.63-10.08-5.958-18.388 2.85-27.527 5.506-9.081 2.64-20.913.384-21.656-6.24-.637-5.688 24.231-4.605 29.73-8.074-8.05-4.547-21.034 5.238-29.604 3.259-10.482-2.421-14.45-8.12-16.64-12.618-1.81-3.714 4.268-5.406 9.997-8.259z" fill="#0081c9" fill-rule="evenodd" stroke-width="6" stroke-linecap="round" stroke-linejoin="round"/><path d="M139.89 84.052c-4.04 14.801-10.153 27.292-31.935 22.305m38.816-67.313c.162 5.606-2.868 8.02-6.103 10.23m-40.251-5.003c3.728-1.461 7.456-1.231 11.183.072-.16-4.868.737-9.56 4.707-13.741m41.49 95.494c-2.498 20.101 14.862 30.546 19.805 47.005m40.667-47.783c-1.972 15.244 10.37 21.26 11.256 32.494m66.352-10.752c8.601-3.945 17.202-8.399 25.804-.236m23.29 25.087c-30.68-11.85-18.248-47.64-55.07-55.936" fill="none" stroke-width="6" stroke-linecap="round" stroke-linejoin="round"/><path d="M113.677 65.625c-11.506-12.303-23.79-15.52-35.297-.779 3.09 1.087 4.59 3.09 7.007 7.786 2.863 5.562 8.225 5.816 12.199 4.672 6.49-1.868 8.168-3.645 9.602-6.748 1.91-4.13 3.908-4.47 6.489-4.931z" fill-rule="evenodd" stroke-linecap="round" stroke-linejoin="round"/><path d="M134.18 37.336c4.105-.806 3.733-5.6-2.076-7.267-6.259-1.795-11.015 3.816-12.718 10.122-1.485 5.501 2.618 3.893 4.184 2.486 2.497-2.243 6.082-4.452 10.61-5.341z" fill-rule="evenodd"/><path d="M85.568 65.746c-.277-1.845 4.103-4.752 3.67-.276-.13 1.346-.06 3.39 1.193 4.588 1.618 1.548 1.13 4.155-2.753 1.102-1.64-1.29-1.881-3.885-2.11-5.414zM98.322 62.901c1.123-3.007 8.994-.3 7.524 3.304-1.839 4.51-9.325 1.52-7.524-3.304z" fill="#fff" fill-rule="evenodd"/></g><path d="M5 5h460v295c0 145-125 220-230 220S5 445 5 300z" fill="none" stroke="#000" stroke-width="12" stroke-linecap="round" stroke-linejoin="round"/><path d="M5.873 255h458.06" fill="none" stroke="#000" stroke-width="8" stroke-linecap="round" stroke-linejoin="round"/></svg>