<?xml version="1.0" encoding="UTF-8" standalone="no"?>
<svg
   inkscape:version="1.1.1 (3bf5ae0d25, 2021-09-20)"
   sodipodi:docname="CoA Munderkingen.svg"
   id="svg2130"
   version="1.1"
   viewBox="0 0 403.34999 434.97375"
   height="434.97375"
   width="403.35001"
   xmlns:inkscape="http://www.inkscape.org/namespaces/inkscape"
   xmlns:sodipodi="http://sodipodi.sourceforge.net/DTD/sodipodi-0.dtd"
   xmlns="http://www.w3.org/2000/svg"
   xmlns:svg="http://www.w3.org/2000/svg">
  <defs
     id="defs2124" />
  <sodipodi:namedview
     inkscape:pagecheckerboard="false"
     fit-margin-bottom="0"
     fit-margin-right="0"
     fit-margin-left="0"
     fit-margin-top="0"
     lock-margins="true"
     units="px"
     inkscape:snap-smooth-nodes="true"
     inkscape:snap-object-midpoints="true"
     inkscape:window-maximized="1"
     inkscape:window-y="-11"
     inkscape:window-x="-11"
     inkscape:window-height="1506"
     inkscape:window-width="2560"
     showgrid="false"
     inkscape:document-rotation="0"
     inkscape:current-layer="layer1"
     inkscape:document-units="px"
     inkscape:cy="217.33333"
     inkscape:cx="202"
     inkscape:zoom="1.5"
     inkscape:pageshadow="2"
     inkscape:pageopacity="0"
     borderopacity="1.0"
     bordercolor="#666666"
     pagecolor="#333333"
     id="base"
     showguides="true"
     inkscape:guide-bbox="true"
     inkscape:snap-intersection-paths="true"
     inkscape:object-paths="true"
     inkscape:snap-grids="false"
     inkscape:snap-global="true"
     inkscape:lockguides="false"
     guidecolor="#00ffff"
     guideopacity="0.49803922"
     inkscape:snap-midpoints="true" />
  <g
     id="layer1"
     inkscape:groupmode="layer"
     inkscape:label="munderkingen"
     transform="translate(-216.325,-187.84646)">
    <g
       id="g121893"
       inkscape:label="coa"
       transform="translate(-1383.225,159.90418)">
      <path
         id="path121151"
         style="opacity:1;fill:#ffffff;stroke:#000000;stroke-width:5"
         d="m 2000.4,283.56421 c 0,97.67256 -89.1737,176.85181 -199.175,176.85182 -110.0013,-10e-6 -199.175,-79.17926 -199.175,-176.85182 V 30.442282 h 398.35 z"
         sodipodi:nodetypes="sssccs"
         inkscape:label="coa-0" />
      <g
         id="g101832"
         inkscape:label="lion">
        <path
           style="display:inline;opacity:1;fill:#000000;stroke:#000000;stroke-width:1;stroke-linecap:round;stroke-linejoin:round;stroke-miterlimit:4;stroke-dasharray:none"
           d="m 1839.073,97.564348 c 6.1867,4.041332 6.3861,8.415562 6.3781,14.450282 4.2146,1.31987 8.4153,2.51059 11.5281,-6.4532 5.6008,0.001 7.0565,9.8268 1.5503,16.2077 5.392,1.9051 7.2893,-0.31989 8.5971,-3.24154 9.369,6.37885 1.6661,14.7991 -5.3556,17.47612 -1.8081,8.14547 6.6736,8.07636 10.1475,3.10061 6.6512,10.79554 -1.9037,14.46072 -9.8656,16.91237 2.5652,2.18905 6.2277,2.7321 10.2884,2.6778 3.0472,9.43043 -4.5346,14.00184 -14.5165,17.47612 2.7896,2.43793 6.7095,2.33283 10.9931,1.40937 1.5514,9.41579 -3.986,13.05557 -12.5434,14.23458 1.5486,2.43704 4.9585,2.70258 8.7381,2.53686 -2.2159,6.87206 -5.8832,12.18119 -12.9662,13.81178 -0.7432,3.20932 0.4981,3.58359 1.5503,4.22809 6.0719,7.95485 13.1022,13.0242 26.3552,21.56328 17.8161,7.9255 28.6123,18.45201 37.489,30.16041 19.3253,2.79599 28.1568,0.41254 28.153,-9.15635 0,-8.53536 -8.0737,-15.78574 -26.3208,-15.64847 -43.7915,0.85389 -50.8926,-44.98267 -13.1071,-58.91145 -2.0982,-6.69683 -0.9232,-15.45224 -0.5637,-24.80483 -14.2287,-10.89886 -7.505,-33.61767 6.5686,-49.65661 15.3446,-17.487465 44.7675,-21.671707 50.0878,-36.173708 4.4967,2.756041 6.2097,6.594638 3.9463,11.979602 6.5366,6.67117 0.6659,13.007006 -6.4831,19.308296 2.0404,8.94943 -1.5227,12.95461 -5.7784,16.34864 -0.7723,7.10117 -4.5574,10.91567 -9.4428,13.5299 -0.9796,2.0139 -2.5003,2.67515 -4.228,2.81873 3.0326,7.63528 -3.0322,10.85177 -13.1071,12.12054 -0.3101,5.82537 -8.5303,11.65075 -9.02,17.47612 0.082,3.9079 -0.4478,7.66305 6.9059,13.38897 15.6172,-0.45712 27.9696,-4.94716 37.1977,-13.29664 1.8467,6.32382 0.941,12.87702 -3.5876,19.73212 2.573,-0.22724 3.4547,0.1059 5.1821,0.79725 -2.7696,7.04829 -7.2138,13.30855 -18.9348,16.14446 -1.5305,2.23515 -4.0526,3.80923 -7.1753,4.98286 6.8398,7.64191 12.3517,14.06932 17.6193,23.08177 3.8661,-0.56424 5.2437,-3.15042 3.1006,-8.59713 -1.9144,-7.5988 2.2898,-11.30399 8.5971,-13.67084 -2.5188,17.6164 17.8393,27.48379 -4.2281,40.02596 1.035,28.71099 -11.6091,35.81774 -21.9861,36.92536 -2.2828,8.12324 -5.7933,8.47171 -9.1609,9.72462 -0.9099,-1.63269 -1.616,-3.40126 -1.4093,-5.77839 -2.2673,1.36396 -5.5571,1.82654 -7.1878,4.93277 -2.823,-2.87498 -5.9629,-1.17474 -8.1743,-3.38248 -2.9883,26.36734 -17.6956,14.11485 -14.5165,34.81132 4.2819,1.15951 8.6205,-1.79697 16.0668,-0.56375 0.868,6.31113 5.5681,10.13142 13.9527,11.5568 3.4058,3.28482 10.1717,6.39279 20.7177,9.30181 -1.0288,4.16657 -4.5234,6.11393 -9.3018,6.90588 1.7906,1.21154 3.0448,1.0821 4.0871,0.42281 2.7544,8.18508 -4.1194,8.83076 -10.8521,11.55679 1.2684,3.51452 2.5369,3.39577 3.8053,4.50997 -3.6327,5.07904 -13.467,2.10457 -16.7715,4.50997 1.4543,1.92613 1.3938,3.85227 0.9866,5.7784 -0.8331,0.75958 -1.94,0.8345 -3.5234,-0.28188 1.3912,4.16508 0.6924,5.40416 0.2819,7.04683 -1.1275,0.34512 -2.255,-0.39951 -3.3825,-1.5503 0.2059,1.45634 0.1221,2.91269 -0.4228,4.36903 -3.8993,2.72804 -7.7985,1.96447 -11.6978,1.83217 -0.8043,4.52802 -2.1176,8.1397 -4.7918,9.30181 -1.8761,-0.87776 -3.2563,-0.86281 -6.9059,-4.93278 -0.6487,1.95436 -2.1367,4.01365 -5.7784,6.34214 -2.6207,-0.11422 -5.1147,-0.48168 -6.624,-2.81872 -0.8765,1.25373 -1.8504,2.31258 -3.1006,2.81872 -0.01,4.25205 -1.4268,6.27861 -3.2798,7.62706 0.2176,4.54806 -1.4321,8.26619 -3.5876,11.75955 -3.6434,-2.05715 -6.0893,-4.95249 -7.0757,-8.86949 -1.9768,0.20001 -3.4018,-1.07126 -4.5842,-2.98971 -2.4099,0.49779 -5.1074,-1.40062 -7.7733,-0.49829 -2.1074,3.90344 -5.0114,5.09845 -9.7664,0 -1.4214,1.51058 -2.9887,2.92391 -5.9794,3.38834 -1.4812,0.47213 -2.5046,1.55477 -3.189,3.08937 -0.5068,-3.12838 -2.242,-6.13393 2.2921,-9.7664 -0.7656,-4.08594 -1.2179,-8.17188 0.8969,-12.25782 -2.1594,-0.13226 -4.2087,-0.63151 -5.5808,-3.38835 -4.5178,-2.20936 -9.0356,-3.28842 -13.5534,-4.1856 2.9386,-1.98061 5.3077,-4.15929 14.1514,-4.08594 0.9345,-1.05647 2.1217,-1.73388 3.5876,-1.99314 -0.9235,-2.57116 -1.723,-5.1246 0.9966,-7.17532 -5.9619,0.56909 -2.8769,-4.65659 -4.9829,-7.97257 5.7121,-0.72102 8.4344,0.74978 12.4572,5.18217 10.0043,-2.83143 9.3252,4.44311 9.866,10.56366 8.4368,1.72042 15.0733,1.99439 21.227,-8.07223 2.8896,-5.81424 6.6021,-9.9827 10.2647,-14.25097 -5.2593,-2.77532 -10.2206,-2.27198 -14.9486,0.79726 -3.1967,-1.93114 -7.1037,-2.94898 -12.1582,-2.49143 0.104,-0.89692 0.4608,-1.79383 1.0963,-2.69075 -2.7917,0.46763 -5.3138,0.39606 -7.574,-0.19931 -0.405,-1.27752 -0.7023,-2.74873 0.1993,-6.37806 -4.85,0.40472 -8.7289,-0.51477 -10.6633,-4.08594 3.7569,-0.99292 6.8475,-2.76313 5.8798,-9.26812 -3.8096,0.22598 -6.6527,-1.15892 -8.8695,-3.58765 -0.4495,-7.47414 9.3745,-5.60802 6.7767,-16.84206 -7.758,4.07066 -12.1223,3.85077 -14.7493,3.68731 -14.7191,1.06066 -14.8968,15.61526 -4.9828,16.44343 2.5216,2.29635 1.0671,5.78552 -1.6942,9.66675 1.6912,2.51552 3.4254,5.00245 6.677,6.47771 -0.8105,3.81369 -2.5116,4.95553 -4.0859,6.47772 1.3697,2.40811 2.9879,4.26927 3.0894,9.46742 -1.5629,2.78928 -4.2956,4.74295 -9.5671,4.8832 -0.7253,3.75934 -2.2013,6.76787 -6.8764,6.57738 -2.2509,0.6841 -4.3927,0.27729 -6.378,-1.69418 -3.9851,4.9195 -14.184,-1.12898 -15.3472,0.59795 -0.3766,3.11146 -1.3842,5.59186 -3.0894,7.37463 -2.4864,-4.09295 -6.9975,-2.89566 -8.3712,-4.38492 -0.5854,1.65196 -1.2401,3.29239 -3.3883,4.68389 -0.8867,-0.8842 -1.8197,-1.67575 -2.1925,-3.58766 -2.5682,-1.70789 -4.5403,-3.77344 -5.7801,-6.2784 -5.5158,-2.63506 -10.2744,-0.31947 -6.0791,5.28183 0.6463,3.74799 -2.0447,3.88067 -4.4846,4.28526 -1.1294,1.69633 -2.2589,3.12042 -3.3883,4.28525 -0.7033,1.3803 -0.7853,3.17483 -0.6976,5.08252 -1.899,-1.65359 -3.9447,-2.23138 -5.0825,-9.46743 -1.4284,-0.0615 -2.8569,0.654 -4.2853,-0.59794 -3.113,-0.89682 -5.653,-0.4565 -7.9725,0.49828 -1.9581,2.22167 -5.3296,2.46452 -8.5706,2.89006 -2.4695,4.77397 -6.5801,2.97903 -8.6701,8.27154 -4.5737,-3.30227 -2.4261,-8.69045 0.5979,-14.35063 -3.7415,-2.43713 -7.2173,-0.0987 -11.4606,-3.88663 -5.3921,-0.1867 -8.4034,0.51942 -11.7595,1.09623 0.2608,-4.92594 1.9856,-9.62072 7.275,-13.75268 0.6345,-1.66505 1.4243,-3.13603 0,-7.37463 -1.964,-0.74539 -3.0182,-1.94572 -3.3884,-3.488 -2.9096,-1.64475 -6.3918,-2.57389 -10.3643,-2.89006 2.7948,-3.52851 7.1747,-5.47399 13.952,-7.07566 1.3561,-4.61128 12.2292,-6.41657 16.0448,3.18903 2.9784,6.26509 11.6281,5.07494 13.8523,0.59794 26.9534,1.27495 35.9868,-3.09147 45.942,-13.15474 -7.7932,-2.3617 -13.8864,-5.34972 -16.6428,-9.56709 -6.3359,5.26743 -11.3033,4.86436 -12.7561,0.49829 -2.4734,0.29307 -4.3702,0.0366 -6.2113,-0.55229 -1.1919,-1.94731 -1.8019,-4.3256 -1.5619,-7.71925 -6.6796,-0.43375 -8.8334,-3.35669 -10.2647,-6.67703 3.0751,-0.12378 6.2414,0.75525 9.0688,-2.0928 -5.716,-5.49901 -4.39,-10.33783 -1.6942,-15.04823 1.3561,5.01651 4.1997,5.75612 7.6736,4.68389 -1.1436,-12.38327 7.5386,-17.05407 12.1582,-15.84549 -1.0683,6.83975 2.5354,15.47023 17.0413,6.17874 21.2784,-0.41066 28.839,2.35756 39.9626,-6.87634 -13.6023,-6.6926 -24.2174,-16.74581 -33.5845,-28.20297 -1.9247,4.76796 -4.4304,9.24538 -8.4709,12.95543 -3.2887,-0.75028 -6.5773,-1.20478 -9.866,-0.89692 -0.1801,1.56654 -0.552,2.74939 -0.9966,3.78697 -3.2335,-0.15538 -6.5816,-0.54004 -10.8626,-2.7904 -0.5287,1.76343 -1.4334,3.15077 -2.4914,4.38492 -4.9206,0.91528 -11.7561,-1.77617 -15.2476,-0.89692 0.4446,1.03299 -0.1,1.81873 -0.6976,2.59109 -3.2657,0.41547 -6.4129,0.40464 -8.3712,-3.88663 -0.9941,0.44455 -1.8492,0.98179 -4.3849,0.39863 -1.0466,2.04621 -1.5762,4.29923 -1.2955,6.87634 -14.5033,1.8065 -8.8993,-10.89635 -22.8215,-10.16503 2.8849,3.88345 4.1909,7.63533 3.8867,11.25303 5.2561,5.10756 3.8816,8.55747 2.9597,12.12054 -1.6355,-4.01143 -5.7952,-3.22407 -8.7381,-6.76495 -3.6884,1.08277 -7.1314,1.1839 -10.2883,0.14094 -2.0062,-8.81012 -12.3705,-13.90552 -15.8777,-7.40018 0.078,5.5806 2.1503,5.43195 1.925,12.61483 -3.3641,3.11791 -6.0111,4.62245 -8.3153,5.35558 0.035,3.76501 -1.4343,5.81033 -3.2415,7.46964 -2.0898,-4.05916 -5.4091,-6.46299 -5.6375,-11.27492 -7.6532,-2.91946 -6.1215,-4.78921 -4.7078,-6.67245 -2.5748,-1.02756 -7.8452,0.83195 -11.0619,-1.29554 -5.3777,1.46036 -7.8597,-0.75261 -11.9589,2.39177 -2.2129,-2.81664 -3.5502,-7.33045 2.7904,-10.86263 -3.4877,-8.77509 1.6279,-12.28551 15.9452,-10.16503 0.5266,-3.98912 -0.04,-7.57148 -10.763,-7.37463 0.4565,-2.417 -1.9019,-5.29845 -5.6373,-6.74069 -1.7882,-2.41658 -5.3337,-3.59195 -9.2116,-6.01542 2.0606,-0.98379 3.4341,-2.18232 9.5671,-1.89349 2.3593,-1.63615 5.2556,-2.50518 9.4674,-1.49486 2.1853,-6.98145 9.4271,-1.32482 15.0482,4.98286 3.0496,3.28849 6.2861,6.1098 9.8661,8.07223 2.5502,1.1582 7.0672,1.08386 13.0551,0.39863 17.9909,-10.77692 37.0417,-12.97856 52.021,-23.51909 l -2.2921,-5.48114 c -3.9701,3.82243 -7.0599,2.9501 -10.2647,2.69074 -0.63,-3.46853 1.2282,-5.52896 0.5979,-9.46743 -4.1634,1.10731 -6.6914,0.57909 -8.4708,-0.6976 -0.847,-3.01107 -3.3068,-5.79176 -7.8729,-8.27154 -2.5616,-3.75878 -6.2777,-7.2027 -11.7596,-10.16503 -1.5554,-1.44992 -1.3636,-3.64866 -1.0962,-5.87977 -2.2131,-0.22158 -4.1782,0.42463 -6.8764,-1.49486 3.1551,-2.78146 5.4779,-5.71426 0,-10.06537 -2.89,-1.1291 -5.7801,-1.02543 -8.6701,-0.29897 -3.789,13.5024 -12.4214,10.02132 -15.0483,7.07566 2.0458,-1.56308 4.7864,-0.80994 4.5843,-9.86606 -2.1779,0.63097 -4.266,-0.17621 -6.1788,-3.78697 -2.5102,0.88491 -5.4106,1.32388 -9.7664,0.0996 -2.6138,3.52238 -5.3955,2.98477 -10.2647,3.58766 -0.5429,-2.69848 -1.3721,-5.92079 3.6874,-9.16846 -1.01,-3.18903 -1.1497,-5.78011 0.9965,-8.67017 -3.7716,0.1507 -5.9529,-1.28888 -8.1719,-2.69074 -4.0465,1.73021 -9.2928,2.29273 -11.8592,3.58766 0.546,-4.3495 1.3759,-8.75878 6.8764,-14.15132 1.7686,-2.07907 4.8238,-3.72926 8.1719,-5.28183 -2.3984,-1.55997 -5.5088,-2.97755 -13.1548,-3.488 3.872,-1.79316 7.4408,-4.00333 13.3541,-2.98971 6.9028,-1.34583 11.0639,-0.11125 13.4537,2.7904 7.482,-0.5673 18.7166,6.55831 31.4917,16.84206 11.9578,0.12666 33.4405,24.3616 47.0381,29.39885 1.2553,-2.25093 1.8336,-3.29214 3.8853,-4.18166 3.0959,6.41894 8.2396,10.27831 16.6441,10.06149 -2.4893,-5.46438 -2.4143,-10.7456 -1.1959,-15.94515 1.4252,3.10453 4.1307,3.92297 9.2681,0.39863 -5.0178,-4.48442 -6.0143,-11.64427 -3.7869,-14.6496 4.2162,7.1212 25.9133,6.89774 24.6153,-1.99314 -6.2463,-2.4875 -8.8347,-6.61472 -7.3746,-12.5568 -10.0096,-0.31226 -9.7569,3.80435 -14.849,3.18903 -26.4391,-4.98061 -23.2665,-30.1871 -0.9874,-27.92111 -5.8286,5.77389 -3.4178,19.37009 5.1489,17.69945 4.0272,-1.09907 8.8464,-1.76574 14.3755,-2.11404 1.1947,-3.89297 0.8938,-6.2903 -0.2997,-7.79505 -1.9931,0.151 -3.9863,-0.58951 -5.9794,-3.08937 -1.3234,-5.91677 -2.1575,-11.44544 4.0859,-11.36091 1.2547,-3.68574 5.9617,-1.73145 9.258,-3.43616 -1.1984,-5.779703 -1.1371,-8.385558 -5.8886,-10.923843 -0.6604,-0.352781 -0.7654,-1.031404 -0.4229,-1.694405 1.8726,-3.624929 -1.5793,-9.081722 -1.8503,-12.547198 9.4115,-1.146286 10.6483,1.423191 11.4606,4.1856 2.573,-1.203639 9.3105,-0.622482 15.4469,-0.298972 0.5231,-5.773657 5.5101,-4.828341 11.0982,-8.01385 4.5629,2.894301 6.7075,1.193394 11.0257,7.116936 15.9395,0.931465 20.8972,-2.743339 25.6118,0.597943 -3.2024,4.069866 -3.3609,6.922209 -2.9849,9.560722 0.048,0.334461 -0.1278,0.764315 -0.3885,0.979316 -1.1688,0.964161 -1.9223,2.045139 -2.1077,3.212649 z"
           id="path1120"
           sodipodi:nodetypes="ccccccccccccccccccccccccccccccccccccccccccccccccccccccccccccccccccccccccccccccccccccccccccccccccccccccccccccccccccccccccccccccccccccccccccccccccccccccccccccccccccccccccccccccccccccccccccccccccccccccccccccccccccccccccccccccccccc"
           inkscape:label="lion-f" />
        <path
           id="path66835"
           style="opacity:1;fill:#da251d;stroke:#000000;stroke-width:1;stroke-linecap:round;stroke-linejoin:round;stroke-miterlimit:4;stroke-dasharray:none"
           d="m 1800.041,104.57422 c 3.7126,0 1.7983,5.09208 12.1914,9.02148 -11.2429,6.32078 -12.0097,4.27453 -19.5664,-3.30859 1.3951,-2.85491 3.8663,-5.29868 6.9512,-5.71289 m -18.1094,0 c -1.7802,2.06775 -4.1707,2.61352 -6.6953,2.82031 -4.559,0.0645 -5.6118,1.69612 -6.0605,6.83399 -5.6663,0.81747 -3.0518,8.64335 3.2421,7.82226 7.5787,-0.5097 10.2593,-1.81436 11.8789,-1.17383 0.1001,1.02209 -1.0949,4.01974 0.877,7.02344 2.1036,-2.49595 1.2985,-5.95275 0.4707,-6.78711 2.8738,-0.18614 7.323,0.44342 10.9453,3.89649 3.0648,2.92163 6.3387,13.16688 -0.2832,18.11132 -9.4188,5.7118 -18.8764,-1.10876 -24.2773,2.57813 0.6223,3.09909 2.3939,5.16813 6.5761,5.08203 7.4487,-7.5e-4 5.4806,6.39602 20.1147,-0.46873 0.9502,-0.44576 1.1662,-0.17194 0.449,0.59457 -10.82,11.56462 -16.2176,1.33889 -21.6594,3.36244 -2.7331,4.64163 -6.5396,9.50122 -23.9179,5.7793 -0.1389,6.20535 4.2281,9.10765 12.0586,9.46875 -0.02,0.97656 0,1.9877 0.498,3.48633 -5.8318,2.16643 -13.286,1.71404 -16.9414,5.68164 3.467,2.42681 6.3623,4.85248 6.9316,7.27929 -15.9395,5.15771 -22.9043,-4.98611 -28.2558,-5.21289 -1.7068,6.87316 2.4955,11.23288 8.2441,14.9375 -0.5027,1.17447 -0.3635,2.34897 0.07,3.52344 -2.6005,0.8397 -5.8338,0.91926 -9.3711,0.63477 0.6201,6.91268 8.6612,8.82759 22.127,8.80859 -2.1966,2.90237 -5.3746,5.24327 -8.8789,7.39844 8.5266,4.3269 16.4889,0.7448 25.0156,-5.21289 0.327,2.9658 -2.7486,7.46499 -2.4668,13.66992 4.5787,-0.45746 9.0724,-1.26723 12.543,-6.3418 0.6228,0.26051 1.6106,0.30258 3.1719,0 1.3771,4.11295 1.5346,8.31243 0.2812,12.61328 10.241,0.52246 7.5965,-8.98407 13.0371,-9.16015 0.1578,2.41439 1.4199,5.01164 2.6778,7.60937 7.5758,-4.5859 3.23,-15.39219 7.1875,-17.6875 1.6317,4.88265 0.516,10.95575 1.6211,17.19531 5.9095,-2.64022 7.6174,-9.41275 7.3281,-19.3789 6.1158,2.59765 6.6723,17.45548 17.8281,21.28125 -1.321,-4.82945 -5.1203,-9.2765 -5.0723,-12.1211 0.6394,-1.12489 0.8876,-2.4446 0.7754,-3.94531 2.8676,-0.367 5.549,-1.58539 7.1172,-7.89258 5.4935,11.27295 11.2768,13.81285 17.334,8.17383 -6.1609,-0.75749 -7.9515,-4.64715 -4.1563,-12.54297 6.2934,-1.02838 12.6574,1.89579 16.5586,-5.70898 -10.1019,-1.73722 -11.2692,-6.91815 -10.0761,-11.27344 3.5533,-1.19637 10.9953,8.33495 14.5859,-3.87695 -10.421,-0.23091 -14.4283,-4.32583 -11.1328,-12.82422 1.057,-0.0414 2.1129,-0.033 3.1699,-0.98633 8.9429,1.70671 13.8982,0.0665 12.332,-7.04687 -8.2245,2.1911 -9.1566,-2.61431 -12.6835,-3.45313 -0.9356,-3.13288 -1.7044,-6.14053 -0.4239,-7.61133 0.3863,-0.40187 0.7169,-0.91515 0.916,-1.6914 4.378,1.22885 8.514,1.79339 10.8536,-2.53711 -9.3701,-0.49386 -12.8701,-4.13633 -14.5879,-8.73633 1.5787,-0.96762 2.7193,-2.22883 3.1718,-3.94727 7.1879,-0.22866 11.8386,-1.92483 8.3848,-8.31445 -3.3125,-0.19212 -9.123,6.95691 -14.7969,-0.91602 1.6433,-2.50783 4.1828,-4.68041 7.3282,-6.625 -1.6842,-2.98188 -3.6342,-3.14474 -19.8731,1.83204 -0.3607,-1.43969 -1.2729,-1.77359 -2.1836,-2.11328 -0.8231,-3.92885 6.6368,-3.6175 4.9336,-13.38868 -0.487,-0.0631 -0.9804,-0.0815 -1.4785,-0.0508 l 3e-4,2e-5 c -3.4869,0.2148 -7.2589,2.82891 -11.4883,9.28125 -2.1178,-2.58383 -3.8099,-5.16812 -3.8769,-7.75195 m -79.6289,15.08008 c -12.4413,2.53989 -10.2175,19.29425 9.6542,19.51953 12.0649,0.31044 25.0454,-6.24848 34.6719,-0.84375 1.0128,2.7732 2.5348,3.63055 4.2969,3.59375 2.2348,-0.0116 5.9829,-5.03658 -1.0996,-8.68945 10.1069,0.33754 4.6981,-7.8547 1.3398,-7.16211 -2.7777,0.57287 -3.9127,2.09697 -4.2558,4.71679 -10.018,0.67544 -19.9278,1.40439 -28.4688,2.81836 -7.2416,3.1146 -18.1231,-2.34945 -16.1386,-13.95312 z m 61.7207,1.82812 c 0.3196,-0.0284 0.6474,0.0977 0.8652,0.36524 3.1914,3.92494 5.3701,6.13955 5.3801,10.86914 0.01,4.72958 -2.4684,6.21522 -6.4567,9.26664 -0.4385,0.33619 -0.8551,0.67591 -1.191,0.23726 -0.3357,-0.43896 0.1006,-0.8556 0.5398,-1.19094 3.7236,-2.84888 4.2554,-5.60084 4.2454,-8.3071 -0.01,-2.70626 -1.0002,-5.83988 -4.0684,-9.61328 -0.3482,-0.4283 -0.2835,-1.05773 0.1445,-1.40626 0.1607,-0.13058 0.3493,-0.20363 0.5411,-0.2207 z m -109.0042,250.87179 c -0.2277,-4.73964 4.6289,-8.95537 8.4562,-2.60733 -2.6443,1.21923 -5.2573,0.66157 -8.4562,2.60733 z m 25.7209,7.18776 c 5.9989,5.13235 -2.1886,5.55379 -5.2851,8.94946 -1.9078,-5.56028 0.8444,-7.65637 5.2851,-8.94946 z m 13.6003,-34.459 c -4.6824,4.60839 -10.9286,7.9681 -18.7445,-0.77515 -2.6421,-9.63149 -16.0242,-9.59284 -14.7983,1.40936 -1.982,-6.29922 -7.9665,-2.33802 -9.7951,0.0705 2.6866,0.59076 5.5845,1.93579 7.1877,3.312 2.7153,3.73644 5.049,2.32056 7.3992,1.1275 9.4439,-4.98108 14.8581,12.77157 1.6208,10.6407 -5.4306,-0.93194 -8.2715,3.01034 -3.0302,6.76495 0.5423,7.03218 7.5106,4.66889 9.5132,0.21141 3.3366,-5.46714 11.0814,-3.31977 10.1475,2.81873 -6.4491,8.31207 11.8464,16.53936 8.3857,2.74829 -2.2768,-7.43882 8.3126,-9.95707 9.2313,-0.0705 0.047,2.88315 0,5.82505 6.2717,4.86231 8.3218,1.45311 9.1592,-0.73732 4.2281,-5.07371 -5.6212,-6.87588 -2.9753,-13.04559 4.7918,-14.23459 -0.024,2.01795 -0.4031,4.00354 1.5503,6.20121 2.409,-1.67564 5.2253,-2.12929 8.3858,-1.55031 -0.2787,5.89388 0.3654,10.45473 3.4529,11.48633 1.4333,-4.9788 3.5512,-8.5885 5.9193,-11.69773 1.9248,4.27897 -0.7319,9.30467 5.4966,12.47288 3.7106,-4.10682 5.2149,-9.5173 4.7918,-16.06676 1.3216,1.46774 2.041,0.32569 2.8187,-0.56375 1.2872,4.8999 1.8747,9.99062 7.1173,13.81178 6.1162,-4.42512 5.6554,-10.97211 6.2012,-17.19425 0.8037,7.03516 2.7286,12.6376 6.9059,15.36208 3.62,-3.2833 4.4567,-7.12326 3.3825,-11.34539 2.1701,-0.13777 4.4584,0.27605 7.1878,2.74826 1.5963,-2.63755 1.4042,-5.56124 -1.6913,-8.94947 -0.7983,-2.91685 0.8964,-4.92712 4.2281,-6.34214 -4.7069,-1.73899 -7.2009,-4.11026 -7.9629,-6.97636 3.2681,-1.94847 5.0236,-4.46414 5.2851,-7.5401 -15.7929,-5.17688 -12.2231,-18.94381 -0.2818,-19.66064 14.8223,-1.02918 32.2634,-11.82606 27.553,-28.32823 -6.218,-3.15161 -20.8518,0.25435 -31.1469,-6.48308 -9.73,8.71278 -13.1598,7.2595 -40.5897,8.03338 -12.7298,8.30307 -21.6831,7.7562 -24.6639,-3.03014 -5.2908,1.09114 -8.2218,9.36478 -0.2114,10.99305 -0.5264,1.12558 -0.5541,2.35087 -0.141,3.66435 -3.6037,1.72289 -7.9221,-0.66404 -12.2614,-3.17107 -0.6002,4.06322 0.5739,7.15338 5.7784,8.03338 0.4976,0.92651 1.2288,1.15241 1.9026,1.5503 -2.4745,1.40042 -3.7788,5.35584 -9.1609,6.06027 4.2914,2.81654 7.8487,3.23061 10.077,-0.70468 1.5792,0.59814 2.725,0.32927 3.9462,0.2114 0.067,3.43934 -1.4865,6.06864 -3.6643,8.38572 2.6458,2.17572 8.3461,3.97616 9.5132,-2.32545 0.9237,0.48327 1.9697,0.6813 3.4529,-0.14094 2.2683,5.85921 9.2317,10.27379 18.815,13.88225 -5.511,9.68143 -17.8961,15.98716 -44.395,15.36205 z m 112.7492,29.94903 c 2.4527,-6.02366 -1.0666,-8.22822 -6.9059,-6.55355 -2.3785,-2.8536 -4.8676,-5.48588 -9.0904,-4.6509 -0.1239,2.52869 1.4397,3.81356 3.6644,6.13074 -1.9238,2.33225 -1.7635,4.45609 0.07,6.41261 3.6186,0.39737 7.7037,-0.045 12.2619,-1.3389 z m 21.1405,41.43533 c -3.8567,-3.29751 -5.3011,-7.72802 -1.4798,-9.09041 5.5222,1.26234 2.7127,6.70519 1.4798,9.09041 z M 1700.4692,279.12472 c -1.9497,-4.64967 -4.0665,-5.45374 -6.2012,-5.84887 -0.5822,4.08556 2.1786,3.58627 6.2012,5.84887 z m -69.2312,-8.70505 c -5.4177,-1.84249 -7.4466,2.26365 -5.531,5.68046 1.2572,-3.28488 3.9015,-3.42608 5.531,-5.68046 z m 20.3968,-111.30238 c -0.21,-0.85153 -0.7555,-1.3425 -1.7765,-1.47196 -8.3632,-0.82485 -13.362,0.77611 -10.626,6.12287 -3.8539,1.89826 -5.3391,4.19616 -4.9328,6.83542 2.7566,-2.22781 7.6846,-2.84835 8.5267,-6.2012 1.3616,3.28627 4.6171,4.00213 8.5971,3.73481 0.8068,-3.66435 0.7181,-5.35559 0.2115,-9.01994 z m 11.2748,15.00974 c 1.8584,1.64894 2.62,4.94719 -0.7751,7.54011 0.09,-1.80194 -1.7177,-5.99034 0.7751,-7.54011 z m -20.1539,-24.10014 c -7.9607,3.08451 -11.9157,2.57219 -12.7547,-2.11404 -1.8857,2.80927 -4.5974,4.42544 -8.1743,4.79184 -1.2622,-5.18376 2.0322,-4.24896 5.3555,-8.24479 2.0952,-2.65437 5.1867,-2.81827 9.1609,-0.77515 3.8784,0.60528 5.3143,3.32745 6.4126,6.34214 z m 257.9138,59.68661 c -4.8438,5.15336 4.6887,13.81085 24.2411,9.58368 -2.1259,-2.70673 -4.6013,-5.1571 -12.2615,-3.80529 -5.3333,-1.21396 -7.4546,-6.53073 -11.9796,-5.77839 z m -0.8456,115.56792 c -11.6203,-12.06278 3.6359,-21.49309 8.738,-32.41539 1.2411,-4.86864 -1.8159,-13.56237 0.7047,-16.91238 1.5279,1.9163 2.8842,3.90126 3.1006,6.34214 1.4426,-1.46996 4.9772,-0.42967 6.9059,-2.39592 1.0049,3.79966 2.258,5.61325 3.5234,7.3287 1.7119,-5.42839 4.9205,-4.27539 6.765,-7.04683 2.3449,-0.21797 1.6623,6.16254 7.3287,7.04683 -0.012,-2.61342 0.1859,-5.12171 0.7047,-7.46964 5.2042,-3.68857 15.7624,-3.84758 17.758,-15.78489 2.9896,-0.89592 3.9413,-8.77505 2.9596,-22.4089 1.8792,-0.75166 3.0067,-2.06706 3.3825,-3.94622 12.3652,-7.78585 2.7369,-14.57012 -0.2819,-21.14047 -3.703,3.22504 3.6219,13.9348 -6.624,19.73111 -10.3653,-6.3039 -20.3459,-25.62436 -25.7914,-27.34169 -6.3046,4.55691 2.7981,8.54314 2.5369,14.93928 -44.178,14.61095 -49.4143,-29.52087 -30.5832,-25.93232 -0.2256,10.42569 3.5405,11.27137 8.5971,9.01994 0.4334,-2.56226 -7.4998,-9.06593 0,-10.71118 4.8882,8.80308 10.3981,10.14569 16.3486,6.20121 -5.074,-3.01612 -5.9708,-4.91832 -7.1877,-6.90589 3.4021,-4.26837 16.0881,11.17325 25.4022,2.14121 -1.8267,-1.74813 -9.3763,-2.86983 -12.4571,-5.68045 10.3006,0.20432 14.6738,5.70171 19.9314,-4.38492 -4.0241,-2.19917 -14.6777,1.39123 -19.8318,-1.89348 17.9913,-3.53151 27.0869,-9.02532 27.0071,-16.54309 -15.787,7.50386 -32.1573,12.09176 -49.0718,13.95832 -32.0791,4.43294 -38.0351,54.22114 9.1609,50.87807 45.6017,-3.29799 40.9898,49.84437 -2.5369,32.55633 -34.2405,-31.91486 -41.5605,-24.64864 -62.8576,-47.35466 0.2515,1.27744 0.4227,2.52278 -0.6301,3.27851 -7.6614,3.54053 -13.7058,0.84413 -19.5328,-2.69074 -1.9068,2.36416 -3.9797,4.51518 4.9828,11.26126 -18.3627,6.10946 -19.5433,-3.64752 -26.1101,-0.79726 -0.7897,3.76017 -0.4392,7.23528 0.8969,10.464 -4.2324,-1.82283 -8.4302,-3.67335 -10.0654,-7.57394 -4.8854,-0.0366 -9.8765,-0.23153 -11.6599,4.38491 -1.7759,-1.026 -3.5285,-2.13354 -4.7835,-4.98285 -1.3958,4.46066 -6.7754,4.53915 -13.4537,3.18902 0.9283,-3.15581 1.2966,-6.31162 0.8969,-9.46743 -6.2844,4.65234 -16.4259,6.37704 -22.9212,-3.488 -11.0117,2.24509 -16.7266,-2.62334 -20.4297,-7.37462 1.3645,-2.09028 4.0144,-2.89522 6.6771,-3.68732 -14.1443,-3.72577 -18.268,-11.18468 -18.9349,-19.93143 2.1131,1.58723 4.5395,2.54778 7.9726,1.49486 -3.7876,-5.09556 -2.5719,-8.96942 -1.3952,-12.65646 -19.8186,-10.6218 -36.318,-28.82006 -47.0462,-29.70624 -14.3157,-11.49618 -24.8646,-16.71439 -31.8517,-15.99629 -1.1319,-3.61012 -7.1927,-5.22071 -10.4997,-2.53686 1.9633,0.61741 2.3051,2.60012 5.0032,3.24154 0.9677,1.89807 2.8152,2.91622 5.8489,2.74826 -0.034,5.32886 0.5587,8.31048 1.2684,10.85211 -2.5074,0.54976 -3.7029,2.14897 -5.3556,3.38248 12.3551,7.06579 6.6444,-5.21065 10.7817,-4.01669 0.8079,4.47155 3.4981,6.55885 7.1172,7.46963 5.0326,4.94923 1.8414,6.60891 -0.3523,8.6676 -4.608,3.57532 -2.0124,6.33576 3.2415,5.98979 3.1634,2.11384 8.124,-0.61489 5.9898,-3.45294 -1.5475,-1.87223 -1.6436,-5.05651 -0.2114,-5.7784 14.9862,-6.71792 7.7499,13.55097 13.8823,14.6574 1.4307,-0.237 2.3486,-0.98685 3.0301,-1.97311 4.3643,3.99075 -5.9543,8.5675 0.2114,12.26148 2.2657,-2.61953 5.176,-2.59705 6.9059,-5.21465 0.9057,3.48299 0.1268,6.12368 -1.9731,8.10385 2.311,2.71745 5.1133,2.48707 8.1743,0.70468 3.2688,5.87678 1.0442,7.58621 -0.9865,9.44274 2.4021,3.01532 4.9515,2.34974 7.5401,0.70469 5.9969,2.71385 3.9989,6.37949 2.3254,10.00649 3.0464,1.05301 5.5266,0.73077 7.2582,-1.40937 1.7343,2.58864 2.7345,5.80826 2.2238,9.52221 3.4793,-0.44325 5.8825,-1.84304 7.6736,-3.78697 0.1452,3.32963 4.5446,6.95746 3.5876,11.95886 -8.0636,5.20151 -15.5473,7.36186 -23.6954,10.65627 -9.8279,3.97353 -15.8111,7.15577 -29.6211,12.6635 -13.919,0.96719 -14.1549,0.71923 -23.0966,-7.40052 -8.3513,-8.71271 -14.4143,-14.28081 -15.7144,-1.90264 -3.8655,-4.48969 -7.1387,-3.9643 -10.4695,-2.30689 2.2535,0.99657 3.7685,3.83679 7.5739,5.28182 1.2071,2.98787 3.5101,4.17076 6.976,3.43817 2.3639,3.70972 5.3277,4.90808 8.7699,4.8832 2.3288,3.72478 0.3238,6.37777 -6.0854,7.94153 -15.5377,-3.14463 -19.7507,6.53978 -10.535,9.12564 0.8995,4.40461 7.2887,5.60603 9.6894,-1.09226 3.9778,-0.57663 7.1784,-1.87249 10.5703,-4.6509 0.7993,1.6966 1.0537,3.80188 0.3523,6.62401 -8.5563,-2.18232 -7.9925,7.03692 -3.5233,6.41336 1.4385,-0.20071 1.5904,-3.18286 5.3555,-4.36978 0.2132,-1.26305 0.5879,-2.04153 0.9865,-2.74826 l -0.2818,5.91933 c -11.6698,6.48654 -4.831,9.95689 -0.7047,6.27168 -0.183,3.76358 -2.8622,7.35468 1.1275,9.16087 1.6343,-1.53398 2.2168,-3.63428 1.4093,-6.48308 0.6429,-0.32633 1.3007,-0.60797 1.7617,-1.47983 6.4018,3.77709 7.3777,-2.03028 4.9328,-7.89245 -1.3782,-5.27451 3.2464,-11.49523 11.5568,-8.73806 1.8777,0.61772 3.7199,1.12333 6.6945,5.21465 1.8399,2.64324 5.4656,3.36948 8.8086,0.42281 4.0198,-2.53743 6.1571,-5.62774 -4.5101,-6.2012 -1.5973,-1.19167 -3.1945,-2.2363 -4.7918,-3.24154 -3.2107,-9.14477 16.7081,-5.32004 27.1303,4.58043 1.6638,-2.81663 1.905,-6.18041 1.1275,-9.93602 4.8758,0.006 4.5938,7.73747 14.5164,6.69448 -1.7033,-4.41637 -1.0092,-7.23442 0.071,-9.79508 5.0161,-1.03581 7.0505,12.75246 16.9828,6.27167 -2.6581,-2.48595 -3.6153,-4.81728 -4.228,-7.11729 4.8902,3.9374 9.505,6.66334 13.4594,6.48308 2.29,-2.2696 -3.0635,-6.98647 0.4228,-11.06352 1.9703,4.31227 5.4787,7.54789 11.2044,9.23134 0.2069,-5.7139 5.1289,-6.8753 10.7112,-7.39916 -0.1953,-1.97162 -2.0401,-3.61336 -4.0871,-5.21465 3.2447,-1.15656 7.9846,1.14428 11.4863,3.1006 11.5559,3.07873 30.0871,31.90499 62.7867,29.59666 7.5708,-0.40522 -2.9008,-7.54474 -0.1409,-13.67084 8.5181,13.24084 12.3153,34.20424 1.1979,49.18683 -0.2437,9.58697 -6.6969,8.57829 -6.2049,13.29884 2.3551,2.23471 5.6688,3.1114 9.6169,3.08938 -0.8018,3.88133 -1.9507,7.67591 -4.3351,11.1616 2.7753,2.09492 6.1629,1.2162 9.8661,-1.19589 0.1993,0.59795 0.6644,1.06301 1.3952,1.3952 -1.3727,2.50263 0.5252,6.35034 -0.4485,8.86949 4.0897,0.014 6.5645,-2.39451 8.8197,-5.13235 0.9268,2.97402 2.786,5.69374 6.6272,7.87292 0.6881,-2.13818 1.5024,-4.1975 3.2388,-5.68046 2.013,4.90601 14.497,1.56756 13.7029,7.17532 -17.2197,14.20483 -10.8584,31.28135 -36.0759,25.06377 -3.7182,3.2479 -9.4843,3.64937 -13.6015,1.87264 -3.7432,-1.96111 -5.8055,-0.53632 -5.9899,1.69124 0.046,1.30313 -0.033,2.05054 -0.3523,3.17107 -0.8952,3.91501 3.8627,3.54491 5.7079,3.03013 9.1686,-2.50546 10.2251,1.58741 6.9764,6.34214 -9.5569,-0.0793 -8.5851,4.44581 -7.7515,8.10385 -2.9224,1.85013 -4.0537,3.99878 -3.5939,6.41261 2.1031,-2.00771 8.8232,-0.35216 6.2717,-6.2012 l 1.4798,-0.49328 c 8.2183,7.23409 11.1277,1.06872 13.4594,-7.39917 l 2.6074,1.19796 c -2.4178,2.89716 1.7094,8.91122 4.8623,-0.35234 3.5401,-0.0526 2.853,1.83214 1.9731,3.80529 -3.4766,3.44098 -0.9795,6.85659 1.5503,6.34214 1.1394,-0.29944 1.9432,-0.76662 4.51,-0.35234 6.5711,0.32186 4.6393,-3.47093 0.6342,-6.62402 -1.1792,-2.58005 -0.7464,-4.8377 -0.071,-7.04682 1.5704,0.79841 2.8917,0.72507 4.0872,0.2114 1.1227,1.44377 1.7328,2.93585 5.3556,3.10061 -0.7452,-2.55554 -0.2568,-4.75862 0.2871,-6.94585 2.682,7.42547 5.7198,7.37756 8.7698,7.07565 0.291,-3.0393 0.8395,-5.90697 1.6942,-8.57051 1.5325,1.84366 2.1685,0.32526 2.9897,-0.49829 0.5561,4.16966 2.4564,5.65081 4.8832,6.07909 2.8923,-1.04485 3.0826,-4.47385 4.9829,-8.17189 4.0428,0.9714 7.2039,0.88476 9.3677,-0.39863 -2.5857,-2.92541 -3.6404,-5.73307 -3.7869,-8.47085 3.3835,0.25537 6.4343,0.20819 7.7732,-1.3952 -3.5643,-9.27381 -1.8329,-9.83222 11.8592,-7.6736 0.3066,-2.33117 0.2953,-4.61692 -1.9931,-6.57738 1.4241,-0.60663 2.8926,-1.12428 3.5876,-3.18902 7.452,2.58569 11.6702,1.30872 12.3575,-4.1856 -4.1696,-0.0977 -7.2651,-0.87903 -9.3677,-2.29212 1.8197,-3.22552 10.437,0.31799 15.4468,-5.18217 -24.201,-7.48973 -28.5081,-12.22651 -32.4882,-20.2304 -4.8954,-1.76948 -13.4363,1.30247 -15.7858,0.29946 z m 18.7445,-149.25174 c -15.2596,7.8714 -10.5191,-6.47938 -11.2749,-25.22764 -18.6535,-11.01171 4.2425,-48.1484 29.4557,-59.052385 8.1743,-3.664193 17.9519,-9.00266 25.2277,-14.516459 3.6842,9.892922 -21.8986,15.35453 -26.2142,26.355124 l 25.5095,-16.630506 c 3.3616,12.157145 -24.1422,17.484886 -31.5698,30.583216 5.7621,-1.74616 11.9361,-7.71737 18.6036,-10.57023 -0.6679,5.11698 -4.9846,8.90711 -9.7246,12.54334 4.2281,-1.27221 8.4562,-3.75832 12.6843,-6.90588 -0.01,3.75767 -1.1822,7.41381 -9.7246,10.4293 -0.4492,2.01206 -2.6281,2.72679 -4.51,3.66434 2.9823,0.44357 5.3739,-0.88468 7.6106,-2.67779 -0.5169,5.30852 -3.3842,8.26657 -8.0334,9.44275 -2.0954,2.46589 -5.0854,2.69557 -7.8924,3.38247 2.2111,0.95516 4.6504,1.34006 7.6105,0.42281 -0.4127,5.06508 -7.6588,7.4131 -14.6574,7.7515 0.8554,5.11586 -2.5078,8.7089 -6.483,10.85212 -1.6101,10.90484 -1.3703,18.98038 3.3824,20.15392 z"
           sodipodi:nodetypes="cccccccccccccccccccccccccccccccccccccccccccccccccccccccccccccccccccccccccccccccccccccccccccccccccccccccccccccccccccccccccccccccccccccccccccccccccccccccccccccccccccccccccccccccccccccccccccccccccccccccccccccccccccccccccccccccccccccccccccccccccccccccccccccccccccccccccccccccccccccccccccccccccccccccccccccccccccccccccccccccccccccccccccccccccccccccccccccccccccc"
           inkscape:label="lion-g" />
        <path
           d="m 1800.041,104.57422 c 3.7126,0 1.7983,5.09208 12.1914,9.02148 -11.2429,6.32078 -12.0097,4.27453 -19.5664,-3.30859 1.3951,-2.85491 3.8663,-5.29868 6.9512,-5.71289"
           style="opacity:1;fill:#000000;stroke:#000000;stroke-width:1;stroke-linecap:round;stroke-linejoin:round;stroke-miterlimit:4;stroke-dasharray:none"
           id="path97000"
           inkscape:label="eye" />
      </g>
      <g
         id="g101827"
         inkscape:label="crown">
        <path
           id="path93286"
           style="opacity:1;fill:#fcdb00;stroke:#000000;stroke-width:1;stroke-linecap:round;stroke-linejoin:round;stroke-miterlimit:4;stroke-dasharray:none"
           d="m 1794.9358,86.267037 c -0.8922,2.023804 -2.5797,3.25851 -4.6046,4.528053 1.8779,0.792958 3.539,1.740546 4.1087,3.46679 0.7289,-1.439848 1.648,-2.798401 3.6833,-3.679043 -1.6189,-0.963057 -2.6994,-2.034801 -3.1874,-4.3158 z m 3.7761,11.297311 h -11.2613 c 0.5141,-3.684902 -0.1303,-5.555094 -1.8472,-6.905533 2.9917,-4.901593 -0.8378,-6.887695 -4.5921,-4.768949 -3.5993,-6.080846 -5.9662,-3.140474 -6.2172,0.313567 -0.2019,4.954476 6.6294,11.165306 8.4709,16.941717 h 45.0209 c 2.2732,-1.19295 4.1393,-4.031394 3.0429,-5.898972 2.7152,-1.251896 4.8483,-3.234608 5.4965,-5.989801 9.5952,-8.699919 -6.5754,-10.248469 -9.2314,0.140937 -3.019,0.993014 -3.1591,3.510563 -3.037,6.166686 h -8.513 c 0.345,-3.412816 -0.1687,-5.966941 -2.2617,-6.941837 2.3928,-11.503446 -1.9653,-8.462201 -6.0603,-12.684284 -4.6153,3.949492 -10.0904,2.10129 -6.8354,12.82522 -3.0658,1.651055 -2.5871,4.234849 -2.1746,6.801249 z"
           inkscape:label="crown-y" />
        <path
           style="opacity:1;fill:none;stroke:#000000;stroke-width:1.5;stroke-linecap:round;stroke-linejoin:round;stroke-miterlimit:4;stroke-dasharray:none"
           d="m 1779.561,104.57422 h 45.8917 c 6.2294,0 7.5048,-3.36221 9.063,-7.374625 h -55.746 z"
           id="path98965"
           sodipodi:nodetypes="ccccc"
           inkscape:label="crown-c" />
      </g>
      <g
         id="g120111"
         inkscape:label="star">
        <path
           style="opacity:1;fill:#000000;stroke:#000000;stroke-width:1;stroke-linecap:round;stroke-linejoin:round;stroke-miterlimit:4;stroke-dasharray:none"
           d="m 1660.953,86.801372 h -23.2871 a 0.61729131,0.61729131 119.38406 0 0 -0.5278,0.937359 l 10.1038,16.662429 c 0.415,0.68449 0.3665,1.55376 -0.1223,2.18773 l -12.2724,15.91849 a 0.53904922,0.53904922 63.815239 0 0 0.4269,0.86817 h 24.2836 c 0.8189,0 1.5725,0.44701 1.9651,1.16566 l 11.5214,21.08841 12.2871,-21.10615 c 0.4138,-0.71073 1.1742,-1.14792 1.9966,-1.14792 h 20.4967 a 0.5926449,0.5926449 118.39661 0 0 0.4958,-0.91721 l -9.4352,-14.41484 c -0.4435,-0.67764 -0.453,-1.5512 -0.024,-2.23837 l 11.2736,-18.07364 a 0.60822108,0.60822108 60.97715 0 0 -0.516,-0.930118 h -24.9812 c -0.8206,0 -1.5773,-0.442467 -1.9798,-1.157524 l -9.0755,-16.124393 a 0.6318899,0.6318899 0.58737138 0 0 -1.0949,-0.01122 l -9.5306,16.149218 c -0.4184,0.708903 -1.1802,1.143924 -2.0034,1.143924 z"
           id="path102882"
           sodipodi:nodetypes="ccccccccccccccccccc"
           inkscape:label="star-f" />
        <path
           id="path109560"
           style="opacity:1;fill:#da251d;stroke:#000000;stroke-width:1;stroke-linecap:round;stroke-linejoin:round;stroke-miterlimit:4;stroke-dasharray:none"
           d="m 1678.5437,96.322487 -0.4304,0.753605 c -1.4715,2.576406 0.94,3.805278 3.5934,2.477495 l 17.7876,-8.901318 c 2.2365,-1.119172 1.8062,-2.797451 -0.6946,-2.816245 l -5.4375,-0.04086 c -6.118,-0.04598 -11.7841,3.214631 -14.8185,8.527328 z m 24.1386,19.347033 -0.2964,-0.46081 c -2.9119,-4.52565 -7.8953,-7.29386 -13.2761,-7.37469 l -2.8186,-0.0423 c -2.1318,-0.032 -2.5994,1.58926 -0.7032,2.56413 l 14.343,7.37404 c 2.1024,1.08085 4.0304,-0.0724 2.7513,-2.06034 z m -7.3943,6.70366 3.7226,-0.15824 c 2.3405,-0.0995 2.0526,-1.86237 -0.053,-2.8894 l -14.7465,-7.19354 c -2.4089,-1.17507 -3.935,0.0869 -2.5901,2.40525 l 0.2945,0.50766 c 2.7488,4.73839 7.8993,7.56091 13.3723,7.32827 z m -16.6502,11.68125 1.2694,-2.19094 c 3.1697,-5.47093 2.8343,-12.29257 -0.8567,-17.42624 l -0.3521,-0.4898 c -1.8497,-2.57264 -4.7163,-0.81745 -4.6492,2.35039 l 0.3555,16.75767 c 0.062,2.94264 2.7576,3.54566 4.2331,0.99892 z m -11.9118,-2.00739 2.1423,3.5253 c 1.4189,2.33481 3.3698,1.11789 3.2847,-1.61291 l -0.5595,-17.95313 c -0.097,-3.12265 -2.5079,-4.12093 -4.2274,-1.51257 l -0.3265,0.49522 c -3.3933,5.1473 -3.5154,11.78951 -0.3136,17.05809 z m -19.801,-10.02146 4.1965,0.3413 c 5.7521,0.46781 11.2119,-2.6042 13.7979,-7.76343 l 0.2876,-0.57378 c 1.3802,-2.75366 -1.3781,-3.89106 -4.1428,-2.53293 l -14.9368,7.33774 c -2.3988,1.17845 -1.8663,2.97445 0.7976,3.1911 z m -3.3138,-4.17295 14.8209,-7.49659 c 2.2675,-1.14695 2.1101,-3.2655 -0.4296,-3.34888 l -0.5354,-0.0176 c -5.9968,-0.19688 -11.7015,2.58984 -15.2324,7.44085 l -0.9403,1.29179 c -1.4295,1.96401 0.1491,3.22684 2.3168,2.13041 z m -0.2444,-21.896936 0.2585,0.493687 c 2.8225,5.388879 8.4221,8.746229 14.5052,8.696749 l 3.9871,-0.0324 c 2.6237,-0.0213 2.8422,-2.43016 0.5306,-3.67126 l -15.7966,-8.480969 c -2.6405,-1.417676 -4.8753,0.33928 -3.4848,2.994223 z m 4.4105,-4.324287 16.9466,7.70666 c 2.6537,1.206773 3.9536,-0.685664 2.3868,-3.143995 l -0.3457,-0.542407 c -3.279,-5.144953 -9.0778,-8.121669 -15.1696,-7.787104 l -4.2426,0.233 c -2.5321,0.139068 -1.884,2.484031 0.4245,3.533846 z m 20.1969,2.353463 0.897,1.313671 c 1.4069,2.060491 3.4401,-0.206322 3.3385,-2.69925 l -0.5548,-13.611846 c -0.1062,-2.605569 -2.3302,-2.299081 -3.6958,-0.0775 l -0.3333,0.542291 c -2.7595,4.489164 -2.623,10.180854 0.3484,14.532634 z m 9.5157,0.139926 0.5581,-0.939735 c 2.6593,-4.477721 2.599,-10.064843 -0.1564,-14.484114 l -1.0406,-1.669013 c -1.2456,-1.997735 -2.8517,-1.072325 -2.7924,1.281157 l 0.3683,14.625702 c 0.062,2.450526 1.8112,3.293625 3.063,1.186003 z m 25.5232,3.057928 0.3566,-0.611542 c 1.6589,-2.845017 0.059,-5.21422 -2.895,-3.758741 l -16.4278,8.093379 c -2.7454,1.35255 -2.3447,4.46781 0.7074,4.69341 l 2.7423,0.20269 c 6.7335,0.4977 12.1154,-2.78654 15.5165,-8.619196 z"
           sodipodi:nodetypes="ccccccccccccccccccccccccccccccccccccccccccccccccccccccccccccccccccccccccccccccccccccccccc"
           inkscape:label="star-g" />
      </g>
    </g>
  </g>
</svg>
