<?xml version="1.0" encoding="UTF-8" standalone="no"?>
<!-- Created with Inkscape (http://www.inkscape.org/) -->

<svg xmlns:dc="http://purl.org/dc/elements/1.1/" xmlns:cc="http://creativecommons.org/ns#" xmlns:rdf="http://www.w3.org/1999/02/22-rdf-syntax-ns#" xmlns:svg="http://www.w3.org/2000/svg" xmlns="http://www.w3.org/2000/svg" xmlns:xlink="http://www.w3.org/1999/xlink" xmlns:sodipodi="http://sodipodi.sourceforge.net/DTD/sodipodi-0.dtd" xmlns:inkscape="http://www.inkscape.org/namespaces/inkscape" width="950.80396" height="1001.2471" id="svg2" sodipodi:version="0.32" inkscape:version="0.47 r22583" version="1.0" sodipodi:docname="Wappen Heiligenberg.svg" inkscape:output_extension="org.inkscape.output.svg.inkscape">
  <title id="title2912">Wappen Heiligenberg</title>
  <defs id="defs4">
    <linearGradient id="linearGradient2893">
      <stop offset="0" style="stop-color:#ffffff;stop-opacity:0.3137255" id="stop2895" />
      <stop offset="0.19" style="stop-color:#ffffff;stop-opacity:0.25098041" id="stop2897" />
      <stop offset="0.60000002" style="stop-color:#6b6b6b;stop-opacity:0.1254902" id="stop2901" />
      <stop offset="1" style="stop-color:#000000;stop-opacity:0.1254902" id="stop2899" />
    </linearGradient>
    <radialGradient inkscape:collect="always" xlink:href="#linearGradient2893" id="radialGradient3035" gradientUnits="userSpaceOnUse" gradientTransform="matrix(0.42252733,0,0,0.40007584,-22.788535,-22.717763)" cx="221.44487" cy="226.33101" fx="221.44487" fy="226.33101" r="300" />
  </defs>
  <sodipodi:namedview id="base" pagecolor="#ffffff" bordercolor="#666666" borderopacity="1.0" inkscape:pageopacity="0.0" inkscape:pageshadow="2" inkscape:zoom="0.45" inkscape:cx="405.41017" inkscape:cy="513.58707" inkscape:document-units="px" inkscape:current-layer="charges" showgrid="false" inkscape:window-width="834" inkscape:window-height="690" inkscape:window-x="-1" inkscape:window-y="0" inkscape:window-maximized="0" />
  <metadata id="metadata7">
    <rdf:RDF>
      <cc:Work rdf:about="">
        <dc:format>image/svg+xml</dc:format>
        <dc:type rdf:resource="http://purl.org/dc/dcmitype/StillImage" />
        <dc:title>Wappen Heiligenberg</dc:title>
        <dc:date>2011-01-16</dc:date>
        <dc:creator>
          <cc:Agent>
            <dc:title>Owen Blacker</dc:title>
          </cc:Agent>
        </dc:creator>
        <cc:license rdf:resource="http://web.resource.org/cc/PublicDomain" />
        <dc:language>en-GB</dc:language>
        <dc:subject>
          <rdf:Bag>
            <rdf:li>Wappen Heiligenberg</rdf:li>
          </rdf:Bag>
        </dc:subject>
        <dc:rights>
          <cc:Agent>
            <dc:title />
          </cc:Agent>
        </dc:rights>
        <dc:publisher>
          <cc:Agent>
            <dc:title />
          </cc:Agent>
        </dc:publisher>
        <dc:identifier />
        <dc:source />
        <dc:relation />
        <dc:coverage />
        <dc:description />
        <dc:contributor>
          <cc:Agent>
            <dc:title>Owen Blacker</dc:title>
          </cc:Agent>
        </dc:contributor>
      </cc:Work>
      <cc:License rdf:about="http://web.resource.org/cc/PublicDomain">
        <cc:permits rdf:resource="http://web.resource.org/cc/Reproduction" />
        <cc:permits rdf:resource="http://web.resource.org/cc/Distribution" />
        <cc:permits rdf:resource="http://web.resource.org/cc/DerivativeWorks" />
      </cc:License>
    </rdf:RDF>
  </metadata>
  <g inkscape:label="Field" inkscape:groupmode="layer" id="field" transform="matrix(5.1073859,0,0,5.1073859,-9.7996864,-10.10181)">
    <path sodipodi:nodetypes="ccszsc" id="path3156" d="m 3.9187284,3.9778826 182.1625416,0 -3.99459,92.7325464 C 178.7769,173.54556 134.69793,196.01693 95,196.01693 c -39.697059,0 -84.977417,-26.42184 -87.662072,-99.265169 L 3.9187284,3.9778826 z" style="fill:#ffffff;stroke:none" inkscape:label="Or" />
  </g>
  <g inkscape:label="Charges" inkscape:groupmode="layer" id="charges" transform="matrix(5.1073859,0,0,5.1073859,-9.7996864,-10.10181)">
    <path sodipodi:nodetypes="cccccccccccccccccccccccccccccccccccccccccc" id="path2855" d="m 4.773519,5.2499328 0,30.3211612 7.359411,0 0.07767,15.456704 15.427578,0.07767 0.07767,15.456705 15.437286,0.07767 0.07767,15.456704 15.437286,0.07767 0.07767,15.456705 15.437286,0.07763 0.07767,15.456708 15.427576,0.0776 0.07767,15.45669 15.437288,0.0776 0.0776,15.45671 15.43729,0.0776 0.0776,15.4567 15.43728,0.0776 0.0776,15.45671 13.38869,0.0776 c 9.47632,-9.49458 18.94969,-18.83999 24.94444,-30.94574 l 0.20183,-4.56972 -15.43729,-0.0776 -0.0776,-15.4567 -15.43728,-0.0776 -0.068,-15.45671 -15.43729,-0.0776 -0.0776,-15.45671 -15.43728,-0.07767 -0.0776,-15.456594 -15.437291,-0.07767 -0.07769,-15.456703 -15.437282,-0.07767 -0.06796,-15.456705 -15.437285,-0.07767 -0.07767,-15.456704 -15.437287,-0.07767 -0.07767,-15.456705 -15.437286,-0.07767 0.01928,-10.3575403 -30.554036,0.095141 z" style="fill:#000000;fill-opacity:1;fill-rule:evenodd;stroke:#000000;stroke-width:0.93206250999999996;stroke-linecap:butt;stroke-linejoin:miter;stroke-miterlimit:4;stroke-opacity:1" />
  </g>
  <g inkscape:label="Outline" inkscape:groupmode="layer" id="outline" transform="matrix(5.1073859,0,0,5.1073859,-9.7996864,-10.10181)">
    <path style="fill:url(#radialGradient3035);fill-opacity:1;fill-rule:evenodd;stroke:none" id="path2875" d="m 3.9187284,3.9778826 182.1625416,0 -3.99459,92.7325464 C 178.7769,173.54556 134.69793,196.01693 95,196.01693 c -39.697059,0 -84.977417,-26.42184 -87.662072,-99.265169 L 3.9187284,3.9778826 z" inkscape:label="3D sheen" />
    <path style="fill:none;stroke:#000000;stroke-width:4" d="m 3.9187284,3.9778826 182.1625416,0 -3.99459,92.7325464 C 178.7769,173.54556 134.69793,196.01693 95,196.01693 c -39.697059,0 -84.977417,-26.42184 -87.662072,-99.265169 L 3.9187284,3.9778826 z" id="path2384" sodipodi:nodetypes="ccszsc" inkscape:label="Outline" />
  </g>
</svg>
