<svg height="586.56989" width="499.99976" xmlns="http://www.w3.org/2000/svg"><path d="m9.5548329 335.15683c-.0033.51736 0 1.04379 0 1.56193m480.8902371-327.1654363h-480.8902371v327.1654363c0 132.64441 107.7193971 240.29781 240.4451171 240.29781 132.72571 0 240.44507-107.6534 240.44512-240.29781 0-.51814.003-1.04457 0-1.56193z" fill="#da251d" stroke="#000" stroke-linecap="round" stroke-width="9.106647"/><path d="m263.19002 484.37377c.8755.1886 5.3553-2.321 4.83697-6.4599-.70935-5.6642-1.11228-16.657-1.29068-35.2133-.12709-13.2186-.002-17.8552.68264-25.28613.46105-5.00468.50738-19.00098 2.65413-29.07359 1.11411-5.22746 2.34713-10.01022 2.92426-14.2364.18343-1.34323-1.15832-.53114-2.88893 2.03957-3.63855 5.40485-5.94828 7.82322-7.35057 10.76193-.73849 1.54763-3.5756 10.17377-5.55286 15.1608-2.71992 6.86014-8.94127 14.24737-9.12153 15.74941-.36469 3.03888.19484 4.49643-1.47013 4.51132-1.68042.015-3.99707-2.56488-5.59917-6.45097-3.17858-7.71004-6.93702-17.91385-8.17466-23.37522-1.06626-4.70516-1.64583-6.9996-2.81002-8.22179-4.95629-5.20316-6.39181-6.14386-9.71517-11.97443-.27324-.47938-.59752-1.19179-.95252-1.48109-1.02013-.83135-1.56734 1.16649-.99646 3.81615 1.67991 7.79708 2.45528 12.73173 2.78182 18.58158.16973 3.04057.90688 7.75836 1.61926 19.7879.56008 9.4576 1.04105 11.54106 1.18807 29.40816.19016 23.11.10203 29.0497-.52321 35.2638-.39572 3.9328 5.85271 7.5268 6.93852 7.1304.3647-.1332 31.06264-.8166 32.82024-.4382z" fill="#fff"/><path d="m45.250755 58.684274c-5.250005.22849-5.302092 7.9327-5.072625 11.51707.446684 6.97721 1.787813 15.74973 2.943723 20.2125 1.213191 4.68385 2.63713 8.94345 4.195624 12.893116 1.944819 4.92886 5.956916 10.41922 8.421871 12.93906 3.788284 3.87262 12.974377 9.99196 21.371621 13.99979 7.078829 3.37857 16.797647 7.53023 18.828116 8.81673 1.72527 1.09313 2.373725 4.18535 2.39962 5.06753.000045.001-.0149.0139-.0153.0153-.001.001.0015.014 0 .0153-.002.001-.0128-.002-.0153 0-.0088.004-.0335.0113-.04595.0153-.533285.15428-8.869268.96481-19.707181.50531-9.690729-.41086-15.339323-1.46135-19.707182-2.37343-5.965504-1.24569-8.165682-3.16139-12.84718-4.50187-4.326453-1.23884-6.989015-1.59419-9.711846-1.3823-3.874526.30152-2.848075 12.64746-1.940987 18.37916 1.463629 9.2478 3.745363 14.36662 8.637913 19.43156 4.414017 4.56958 12.112936 10.40272 22.048349 14.91437 5.940599 2.69761 14.619657 4.43045 21.438486 6.4577 3.220215.95738 6.274304 1.83467 11.881503 3.15854.0035.001.01285.0134.0153.0153.0015.002.0143.0136.0153.0153.000015.002.00015.0134 0 .0153-.00049.002.0005.0134 0 .0153-.0015.004-.013.0115-.0153.0153-.0025.004-.01205.0115-.0153.0153-.0035.004-.0111.0116-.0153.0153-.0025.002-.0129.0135-.0153.0153-.0025.002-.0126.0135-.0153.0153-.67507.43606-10.861358 1.96154-18.084052 2.3275-2.500104.12668-14.952662 1.14802-25.20645.60833-11.989511-.63103-21.818663-4.40317-22.338846-4.35988-.0014.0003-.01426-.00037-.01534 0-.006.002-.0095.0114-.01529.0153-.693448.59216.655717 14.1349 3.629036 23.71905 1.717205 5.53507 6.579081 13.65345 16.767205 19.67655 8.615284 5.09327 26.43564 8.24931 42.568738 8.55017 1.067534.0199 10.135969-.0851 11.009679.19327.0136.005.0371.0104.046.0153.001.0005-.0005.0147 0 .0153-.001.001.001.0142 0 .0153-.28705.28171-6.817055 4.77896-15.803849 6.8127-9.348978 2.1157-22.335666 6.35071-37.065318 6.31638-7.823088-.0181-9.858988-1.16243-12.637679-2.45628-1.481662-1.45537-6.153957.26571-7.64096 2.8175-1.606513 2.75695 1.658209 17.20183 6.375584 24.19444 2.874535 4.26099 8.514776 10.00884 14.59563 12.75321 4.667569 2.10653 11.554443 3.46506 17.172937 3.70492 11.857718.50621 23.318776-.64814 30.393245-1.23193 9.68061-.79885 9.31835.43286 9.67885.46841.001.0005.0144-.0005.0153 0 .0005.001-.00026.0142 0 .0153-.002.005-.011.024-.0153.0306-.001.003-.0134.0128-.0153.0153-.5344.64069-4.63552 3.62938-9.23689 7.02568-4.903515 3.6193-13.521473 9.63985-24.515811 14.07213-8.796794 3.54635-22.875231 4.61142-30.483234 4.33625-2.584701-.0935-4.056807 1.08644-5.316205 2.94557-1.629592 2.40567-.879206 6.79341 2.529331 11.97783 3.020555 4.59428 9.767492 12.34572 21.91361 16.72958 10.101033 3.64573 19.176151 3.87785 27.698895 3.32075 10.289474-.67258 31.604494-8.59782 32.539054-8.65156.004-.00012.0121.00003.0153 0 .003-.00003-7.37403 3.17954.0153 0 10.0354-4.3181 14.37722-5.53206 14.85312-5.25218.0177.0115.047.0318.0613.046.0167.0184.0351.0538.0459.0766.0134.0331.0303.0803.0307.1225-.00018.002.00037.013 0 .0153-.0005.003-.0145.0127-.0153.0153-.001.003.001.0123 0 .0153-.002.006.11892 2.47695-12.08156 10.76469-7.47745 5.0794-19.34334 14.14958-28.27173 20.12343-4.626615 3.09559-7.534489 7.7291-24.541056 12.40031-.997265.27391-11.817278 2.05981-13.548038 4.01674-2.284899 2.58347 1.581755 11.47157 8.165724 17.38802 5.639979 5.06815 17.143457 8.53391 24.93165 10.15708 9.99232 2.0825 26.83633-2.9029 37.44376-8.43997 9.65416-5.03948 28.89108-16.96227 39.41436-25.86281.8972-.35552 8.94931-7.407 9.36151-7.92771.009-.0125-.12042.25258-.11276.24084.004-.008.0118-.0253.0153-.0306.0005-.001.0146.001.0153 0-.11438.32275-1.70957 4.03256-7.75089 12.93976-3.74235 5.51766-11.89063 16.09695-21.18275 26.59017-5.5698 6.28982-13.11307 17.17522-26.20796 27.10862-7.93721 6.021-17.04536 9.5744-29.526745 14.494-2.324154.9161-5.246004 2.4102-5.660054 3.959-.922595 3.4512-.06401 6.1295 2.587815 9.0037 4.449714 4.823 8.416554 8.3918 14.370084 11.2011 2.52452 1.1913 7.87767 3.1714 11.63052 3.1008 10.86175-.2044 17.69046-1.6756 23.84155-4.2262 1.00623-.4166 13.50667-7.3489 21.62125-13.3985 7.36317-5.4894 15.01489-12.4023 21.76743-19.8415 9.41586-10.3733 16.87928-22.1553 19.46284-26.5964 3.35404-5.76547 7.27864-11.43968 8.11632-8.99959.80575 2.34707.83919 23.02339.84776 53.00279.001 5.518-.58759 16.4868-1.19297 22.062-.19832 1.8265 22.01638 2.3354 30.78409 2.2926 13.73832-.067 31.16887-.8805 31.16886-.8805.53155-1.0509.76312-2.0523.42875-3.7056-1.17446-5.8073-1.10499-8.4914-2.09781-14.3632-.00044 0 .0154-.012.0153-.015-.28266-4.8759-.86804-10.8533-.96468-13.5515-.36207-10.1113-.90704-22.6721-.39813-29.7522.43831-6.0977.57642-15.27397.91875-15.61874.002-.002.0128-.013.0153-.0153.0127-.011.0326-.0219.0459-.0306.005-.004.0251-.0124.0306-.0153.008-.004.022-.012.0306-.0153.0115-.004.034-.0127.046-.0153.003-.0005-2.76008.78021-2.75704.77972.006-.001 2.7967-.77928 2.80298-.77972.006-.00027.0242.001.0306 0 3.81524-.69297 6.14561 7.56944 11.19344 15.95554 2.59526 4.3116 3.72348 5.4908 5.87999 8.575 8.01412 11.4616 8.71245 11.0041 10.30532 13.1994 2.63045 3.6253 6.67444 7.8576 9.04969 10.3053 3.17342 3.2702 6.83317 6.9833 10.13686 9.9378 3.72004 3.3269 7.38379 6.1091 15.23593 9.7235 6.2172 2.8618 13.40727 5.3513 21.40688 5.9412 8.92785.6584 17.21539-.1426 24.00999-2.7562 6.44577-2.4795 9.49936-4.4951 12.25-8.2841 2.75609-3.7966 4.00644-6.9647 6.86362-12.6026.49367-.9741-.14716-1.6348-1.22863-2.4343-.84832-.7307-11.09391-4.5015-17.59406-7.549-6.0585-2.8405-13.52508-7.8863-18.74249-12.3572-5.44374-4.6649-10.36173-8.4619-17.49384-15.1139-7.47815-6.97466-9.59718-11.38918-14.11115-17.40981-3.81816-5.0926-9.11464-12.63748-11.80593-16.82844-.002-.003-.0133-.0132-.0153-.0153-.001-.001-.0136-.0138-.0153-.0153-.47983-.4694-10.9942-14.38655-8.66869-15.48633 1.58547-.7498 13.23971 12.55728 16.87619 16.08352 4.64786 4.50697 11.34389 9.2828 14.71531 11.89781.007.005.0129.0245.0153.0306.001.003-.00042.0128 0 .0153.00002.002.0137.0125.0153.0153.008.009-4.54053-3.06171.046.0459 4.70863 3.19042 10.09322 6.67186 15.41202 9.03275 4.66917 2.07255 14.21733 5.15379 23.64978 6.4152 9.07574 1.2136 19.55547.5074 27.49435-3.22535 8.44764-3.97193 11.22434-6.15949 14.53882-14.22853.29416-.71613 2.95105-8.22729 2.52656-9.00375-1.01967-1.86498-13.97598-5.69153-21.48343-9.6775-15.34099-8.14506-20.58869-12.23554-26.67437-16.50687-5.59727-3.85345-14.43158-9.6254-19.10999-13.42905-4.60736-3.7459-18.13928-14.73345-18.8803-15.68-.24507-.31304-.35536-.51934-.3675-.64313-.0005-.0174-.004-.0472 0-.0612.003-.01.01-.0226.0153-.0306.002-.003.0131-.0131.0153-.0153.002-.002.0126-.0134.0153-.0153.0146-.009.0415-.0113.0612-.0153.33536-.0505 1.31137.4614 1.88344.84219.90401.60174 12.77011 6.46364 19.23249 10.19812 5.99023 3.46165 11.42923 5.81465 18.61999 9.41719 10.31107 4.55232 18.59422 5.64489 27.76155 5.45124 11.7358-.2479 17.80001-2.80595 22.87687-5.26749.003-.001.013.001.0153 0 6.88681-4.22512 9.71291-6.55177 12.80007-11.32663 5.67989-8.76867 10.26025-15.35914 9.23461-19.86492-.29282-1.28631-16.29727-4.58613-24.60256-6.55747-9.53672-2.26363-19.23742-6.28882-25.82148-9.18378-6.38634-2.80802-15.2469-7.60965-20.51875-10.25937-.002-.001-2.72099-1.52284-2.05187-1.94469.001-.0005.0138.00047.0153 0 .002-.00034.0128.00028.0153 0 .7017-.0523 7.41908 1.60473 13.35249 2.26625 6.2223.69373 11.66691 1.24311 17.5175 1.16375 12.286-.16665 13.79529-.52652 17.2878-1.63844 5.63625-1.79441 9.81862-2.51847 13.44437-5.87999 3.21965-2.98503 10.68893-12.50452 12.58207-17.22112 2.51635-6.26926 5.28701-16.47207 4.38417-17.30856-2.30449-2.13518-3.08924-1.80956-8.28405-1.66906-6.18995.16741-12.70633-.20544-19.50486-.90181-7.00374-.71739-13.77868-2.71053-19.90325-3.73417-12.13354-2.02794-22.44181-7.15755-22.88312-7.82839-.005-.008-.0142-.024-.0153-.0306.0005-.001.0131-.0137.0153-.0153.002-.001.0131.001.0153 0 .002-.001.0132-.0131.0153-.0153 1.60984-1.73023 13.48786-.83082 22.78499-1.79156 8.7626-.90551 13.79941-1.80196 19.57888-3.25993 5.49346-1.38582 7.91218-3.04076 12.13493-6.23962 5.79636-4.39092 7.4812-7.97723 7.80774-8.50795.001-.001-.0005-.0138 0-.0153.00044-.001.0151.001.0153 0-.00001-.001-.00019-.0142 0-.0153.0005-.001-2.43447 3.43363 0-.0153 2.94798-4.17643 5.1827-7.15725 7.38062-12.11218 2.35426-5.30735 5.16467-11.29555 5.16448-16.02014-.00037-3.38202-2.87477-5.34606-4.53667-4.8661-4.26552 1.23189-8.67706 1.90773-14.33249 2.57249-6.06303.71267-7.68066.71402-13.68937.32899-4.00335-.25653-9.67185-.47865-13.62767-1.08719-6.23888-.95973-12.32645-1.61661-12.83232-2.94742-.002-.004-.0145-.0119-.0153-.0153-.001-.007-.001-.0234 0-.0306.19989-.91591 7.49223-2.73357 14.6777-4.32555 4.04246-.89563 14.26924-5.33126 19.43582-8.27853 12.06419-6.88203 18.22332-12.09709 20.55553-16.09262 4.12301-7.06354 6.03853-13.03442 6.89898-17.19415.93814-4.53538 1.41764-7.80796 1.42757-9.96913.0281-6.08919-1.02985-8.12397-4.42531-8.46781-1.53602-.15553-3.95285 1.55455-6.79874 3.04719-11.95476 6.27012-17.64036 8.2671-26.66531 9.49329-4.05314.55069-11.85594 1.17467-14.81464 1.55118-4.48479.57072-9.66793 1.15324-13.66868 1.6417-5.54193.67663-16.2325 1.10979-16.38869-.0339-.2173-1.59105 3.19225-3.10757 7.10731-4.89397 6.1092-2.78757 11.23473-4.35289 16.68835-5.93201 4.29366-1.24325 9.35241-2.95323 14.45229-5.25636.0163-.007.0349-.0242.046-.0306 13.07985-7.62976 16.07759-10.53765 19.99395-16.03218 2.89876-4.06686 7.98275-11.99784 10.89136-20.641236 1.79086-5.32185 3.24662-9.64089 3.99656-15.28187 1.09389-8.22826.24617-16.9519-1.16375-18.00749-1.71643-1.28507-3.11236-1.37029-5.35938-.29094-1.54314.74123-7.65235 6.22744-8.10031 6.40062-.001.0005-.0139-.00035-.0153 0-.002.00018 3.93683-2.08652-.42086.50694-5.53803 3.29594-16.60905 10.02815-30.20757 15.37583-5.67904 2.23332-11.34317 5.09047-20.96561 9.24086-7.66835 3.30756-13.45358 6.14975-20.0552 9.034376-1.74808.76384-7.30447 4.48277-7.80031 2.60734-.0226-.0857-3.32852-7.147106-6.58086-9.239006-2.58355-1.66173-5.67262-2.08058-8.95299 1.1999-1.68943 1.68948-.22938 3.35699-3.51344 6.178096-8.97131 7.70659-26.43534 18.24085-36.81749 27.50912-6.63688 5.92481-9.46906 13.03008-10.24715 18.97662-1.00931 7.71367-1.36357 14.85238 2.81841 26.02707 1.52604 4.07773 4.84614 6.88149 9.63419 9.6678 4.48216 2.6083 8.43008 4.53625 12.46174 4.0522 7.15819-.85944 8.88495-6.27854 8.76599 5.22922-.033 3.19913-1.20058 8.59214-2.25818 13.02327-.97538 4.08663-1.37176 6.29564-2.84604 9.59305-.62626 1.4007-1.30029 2.95879-3.72424 6.76191-1.904 2.98734-7.71403 9.64535-10.75258 11.05964-3.82755 1.78154-5.40626 2.16088-8.6157 1.55826-3.38002-.63465-4.00432-.93045-6.66174-2.55881-2.30742-1.41389-4.53113-3.54475-5.97187-5.40531-1.4429-1.86335-2.66286-4.16923-4.45594-7.90124-2.05461-4.27635-1.66898-13.91752-1.66906-13.91906.003-.003.0125-.0128.0153-.0153-.00003-.001.0001-.0136 0-.0153.002-.005.1019 5.17478.0153-.0306-.10454-6.28427.13532-15.99188.30625-20.4575.28979-7.57134 1.27093-17.4103 1.27094-17.4103 3.5521-.10117 3.2267-3.50517 3.56781-6.50781-.4209-5.2081-1.98821-15.21218-1.89875-15.84844.00047-.002-.0005-.0136 0-.0153.0005-.001-.0005-.0146 0-.0153.0005-.00039.0145.00008.0153 0 .002-.001.0133.001.0153 0 .005-.003.70484-3.56171.0153-1.57475-.59139 1.70415 3.74708-1.60912 5.66442-5.18774-.11269 1.05595.68898-6.01278.88006-10.08125.18995-4.04439-2.07948-7.2757-1.61132-9.091.008-.0317 6.25015.0201 6.22964-2.77618-.0381-5.19537-4.11644-12.672-6.67303-16.21191-2.25368-3.120496-4.47464-5.348476-5.85259-7.185576-1.39986-1.86627-11.14282-10.68076-15.20531-13.61281-2.89468-2.08919-7.23167-4.46328-15.03686-9.03437-6.00122-3.22429-13.52961-4.06165-18.62-3.64438-1.29381.10606-.96784 1.55184-2.18968 3.03188-.73042.88477-.70371 1.23532-3.98125.52062-3.92373-.85561-11.47319.0961-15.17369 2.45834-6.13018 3.91326-11.79874 9.98666-9.9388 19.30072.26743 1.33922.62601 3.92954.79625 5.75749.21185 2.274996.58601 3.671656 1.17906 4.425316.47651.60556 1.45538 2.04807 2.17437 3.20031 1.28341 2.05679 1.35302 2.1023 3.56781 2.0825 2.11449-.0189 2.38617-.15444 4.33344-2.18969 3.21533-3.36066 7.26473-3.20799 11.64447-2.3159 5.99758 1.22161 5.86788 4.8325 5.86659 4.83367-.18368.15153-2.39453-.45109-5.74083.17261-4.01084.74757-3.09812.80324-7.51381 2.17437-5.42062 1.68318-10.16727 6.49695-14.44829 2.84604-2.20941-1.88422-1.28557-8.41653-3.40563-8.64485-1.39631-.15037-6.15273 4.24297-7.67156 9.41718-.57581 3.24477-.60478 5.04578-.0844 7.39131 1.25107 5.63944 1.73508 5.14225 6.04055 7.87616 2.16683 1.37589 4.55423 2.28513 7.42702.65753 3.1392-1.77855 5.73075-5.46635 10.32061-6.76813 3.422-.97055 8.93323-2.42774 9.47944-1.21711.46324 1.02674-6.30072 3.52316-8.71583 5.08794-1.41633.91765-8.73369 6.78273-7.14801 6.76855.6529-.0308 8.01183-1.43784 10.96284-1.83469 1.98254-.26662 5.10065-.34303 8.14625.16844 3.43925.57756 4.42323.60577 5.0225 1.54656.801 1.25739-1.00943 4.20324-4.11906 6.75281-1.21322.99471-15.71087 13.38414-19.6 16.49155-.001.0005-.014-.00025-.0153 0-.003.001 5.57741-5.37625-.0153.0153-4.24344 4.09083-6.80369 7.22191-6.84423 9.63899-.1285 7.66253 9.32476 3.23429 9.32766 3.24109.91351 2.13416-4.88049 15.22838-6.95853 19.2686-1.76792 3.43728-9.50087 17.26608-8.90964 17.40002 1.03061.23347 5.95666-2.27576 6.90756-2.09528.0116.003.0352.0122.046.0153.007.002.0241.0128.0307.0153.0126.005.0349.009.046.0153.002.001.0128.0136.0153.0153.002.002.013-.002.0153 0 .001.002-.00025.0131 0 .0153.62995 5.67742-2.03847 12.76976-3.47594 16.75188-.0005.002-.00023.0136 0 .0153.00044.001-.0005.0145 0 .0153.00036.002-.00012.0132 0 .0153-.0005.005.001.0244 0 .0306-.002.007 2.11836-3.6264-.0153.0306-2.00373 3.43433-1.1605 13.83921-17.42562 12.34187-3.9691-.36313-6.63347-1.3602-10.23735-6.5832-5.03044-7.29046-8.89546-20.81516-9.69951-24.05711-1.70516-6.87518-3.63719-15.28642-3.53719-15.84843.0005-.004-.001-.0116 0-.0153.003-.007.0115-.0232.0153-.0307.007-.011.0212-.035.0306-.0459.84643-.89177 10.70669-1.42136 14.19468-3.09312 8.10769-3.88592 17.70768-10.11572 18.69194-25.70968.53464-8.47065-2.73648-20.26561-8.52191-29.45381-3.58869-5.69944-13.94545-14.73849-20.09253-19.9385-3.58759-3.03485-8.0612-6.22711-8.65156-6.46767-.002-.001-.0134.0005-.0153 0-.001-.00019-.0141-.00001-.0153 0-.75803.007-1.70236-1.17317-2.67968-3.307496-.44492-.97174-5.69625-6.95187-5.69625-6.95187l-2.46531.27562c-6.16916.80111-8.3398 13.463276-8.66687 13.919056-.002.003-.013.0123-.0153.0153-.0149.0174 1.165-.98519-.0613.0612-1.15684.9872-11.95968-3.93743-17.77781-6.06375-5.68585-2.077976-25.98262-11.041026-39.169812-17.544846-5.773784-2.84759-19.104002-11.04142-29.828285-20.30764-2.505605-2.16494-4.019239-4.11461-7.870158-4.09051z"/><g fill="#fff"><path d="m366.50949 482.83217c2.75641-.1018 4.44206-.5672 5.75761-.896 5.45638-1.3639 8.08891-2.5927 11.33868-4.6085 4.18295-2.5945 9.19245-7.9726 7.35208-8.5396-5.80463-1.7885-11.35926-4.7953-16.96689-8.574-6.98376-4.706-23.42963-17.2425-30.94701-24.6616-9.22376-9.1032-10.95667-13.01519-15.88436-19.44833-5.84649-7.63266-11.48474-16.50908-15.28479-22.92553-4.53291-7.6539-9.41729-15.82989-12.50729-21.37804-2.63449-4.73026-8.74077-14.24958-11.25967-17.22378-1.06161-1.2535-6.04001 12.49026-6.29379 14.31118-.26519 1.90283 2.09836 5.13034 4.18449 8.91961 2.70439 4.91229 13.22206 20.80459 16.05714 25.33029 3.08146 4.91899 8.3179 13.65422 16.17055 22.249 7.45536 8.1599 11.92151 13.2298 15.65597 17.6748 2.0164 2.4 6.35145 6.6427 9.35724 9.3976 3.07926 2.8224 9.1514 7.9425 14.56732 11.8383 2.08487 1.4997 2.60666 3.3318.46911 2.9758-3.73535-.6222-7.4003-3.1574-16.2111-10.8704-5.90441-5.1687-6.46415-5.7376-10.72455-10.0667-4.87362-4.9522-7.51175-6.6731-16.79212-16.925-7.18405-7.93601-15.00583-16.56609-17.9282-21.22452-3.95256-6.30064-7.3811-11.32396-9.03752-13.56529-2.95938-4.0044-5.33704-8.7965-6.31117-10.23502-1.98246-2.9275-2.78037-2.92277-3.13878.0186-.11045.90639-1.49089 6.98134-1.04636 9.19519.29335 1.46096.66752 2.75488.83148 2.87537.47622.34999 7.45922 12.50075 8.76621 15.44446.37757.85039 6.26864 12.19451 7.01977 14.12951.33026.8508 4.22095 6.7378 5.06937 9.0467.73769 2.0075 7.32989 11.3589 11.87846 17.1916 4.23191 5.4266 9.14394 11.1963 14.50343 16.0574 3.81721 3.4622 10.28922 6.6142 12.83676 7.9691 5.06391 2.6932 10.13342 3.9679 17.20158 5.751 4.16242 1.0501 4.83404.6072 11.31635.7667z"/><path d="m145.00691 480.75697c15.51054-7.3574 27.1443-18.0468 32.37198-23.654 4.62781-4.9639 4.24241-4.4791 8.9288-9.5744 3.33471-3.6258 5.33405-7.8313 14.98389-20.8345 6.22309-8.38557 7.82223-11.95979 12.17599-18.505 1.48291-2.22934 3.02974-10.68085 2.97124-12.71603-.09-3.12971-.69405-5.89574-1.34031-6.13713-.87552-.32702-2.87105 2.41071-6.86523 7.76279-3.31411 4.4408-6.38158 9.20132-11.45831 14.99389-5.5602 6.34421-14.85312 17.41728-22.53336 26.38188-5.59585 6.5316-9.45592 9.8224-14.93422 14.2204-3.06443 2.4601-16.4952 12.7975-18.28774 11.2872-1.42518-1.2008 16.35362-15.3391 20.56554-18.6782 3.3431-2.6503 5.94257-5.9439 11.29394-11.2996 4.28521-4.2887 13.98299-17.06996 18.50631-23.21167 3.90952-5.30831 10.69348-14.88595 14.66694-21.46332 1.04961-1.73745 3.47137-4.80401 5.73335-8.31433l1.45975-7.30798c-.18808-3.01259-1.77438-9.14647-1.98966-10.12027-.53677-2.42798-1.77256-2.55923-3.50165-.3719-.71372.90288-5.85006 6.95015-9.50313 12.48787-3.41188 5.17209-9.77199 13.84994-14.10612 20.22361-3.77499 5.5514-12.44933 16.47276-17.0429 22.44426-2.14894 2.79355-4.61903 5.16813-15.00538 16.23703-8.33966 8.8878-14.06995 15.2747-20.57458 19.7863-.44849.3111-4.20745 3.0923-11.47231 6.1282-10.34086 4.3214-21.97084 6.8884-20.113045 12.9841 1.217345 3.9943 13.620125 10.6404 22.590605 11.4058 9.83098.8389 16.39882-1.2706 22.47961-4.155z"/><path d="m409.04379 414.52831c5.63499-2.81866 7.50762-6.11428 10.25761-10.37543 3.58764-5.5591-5.41858-6.32783-10.61107-8.96018-12.23823-6.20423-13.62882-6.13172-18.83842-9.47511-6.61222-4.24355-9.70221-6.80904-14.43696-10.23723-5.70781-4.13274-14.7311-10.49052-19.83669-14.63466-5.95397-4.83276-11.72401-9.35887-16.19014-13.68485-5.91019-5.72474-8.83773-8.38584-12.42106-11.83299-3.62641-3.48858-7.53339-9.51342-11.79698-9.70166-3.89496-.17197-7.08112 1.69532-11.12131 3.45308-3.69323 1.60681-4.15954 1.30871-2.07761 4.3828 4.29323 6.33922 6.0997 8.66497 9.61135 12.54508 4.6236 5.10874 9.77423 9.65878 15.21496 14.31897 6.21427 5.32276 15.17494 12.29709 20.31518 16.19194 4.31456 3.26923 7.45943 5.40763 12.17748 8.58576 6.5882 4.43788 15.9028 9.74889 15.30969 10.50785-.70833.90639-11.06344-4.58406-16.03238-7.38473-4.1471-2.33747-10.24922-6.53825-16.42977-10.69732-8.09748-5.44901-12.397-8.6191-18.69312-13.64526-7.88503-6.29457-12.00897-10.69897-15.86451-14.86719-4.50572-4.87114-6.39628-7.01054-11.14378-13.80057-1.39338-1.99285-2.30321-2.39764-3.30771-.83425-1.06192 1.65272-1.22456 3.50662-.45083 4.97032 2.71661 5.13911 4.97342 8.56865 7.64863 12.7934 4.56229 7.20487 10.264 13.10191 12.95518 16.35635 4.88077 5.9023 8.12058 9.49483 11.86219 14.01772.90927 1.09913 13.88891 13.66131 19.5517 17.89388 6.0351 4.51085 14.00134 9.05955 20.66855 11.43302 6.89505 2.45457 17.10617 5.21753 25.74125 5.54501 6.77366.25689 14.37826-1.08263 17.93857-2.86375z"/><path d="m113.13482 419.89878c3.46946-.46733 6.38895-1.93539 12.83183-4.64041 3.69364-1.55076 13.08191-6.56171 17.19011-8.69449 4.26677-2.2151 8.66175-5.73213 11.13498-7.18741 3.57502-2.10359 7.45835-4.70581 13.70513-9.88224 4.04117-3.34872 9.80818-8.93057 13.48658-13.03535 3.58004-3.99502 6.46428-8.23914 9.75094-12.47141 6.09068-7.84301 8.34194-10.36964 9.8709-17.24178l1.29701-5.82958c.0395-2.78924-2.92522-5.83045-3.74236-5.82315-.34955.003-4.31309 3.78738-8.34118 7.39249-2.6991 2.41567-3.85726 4.58705-8.52142 8.72322-2.61748 2.32118-4.47943 4.81804-9.23453 9.3887-2.46016 2.36473-5.67086 4.47988-9.99136 7.85339-4.89419 3.82146-10.90689 9.45301-15.56063 12.85238-6.31371 4.61193-11.62381 7.74447-15.83579 10.54264-2.00888 1.33456-10.27591 5.51153-11.11006 4.49165-.55285-.67593 6.50631-5.85306 9.03577-7.68681 5.19639-3.76719 10.14894-7.80681 15.15135-11.63654 5.68516-4.35243 9.86913-7.56522 13.42345-10.509 3.90776-3.23651 7.02824-5.96567 11.23642-9.97816 2.15378-2.05363 4.72856-5.84013 7.23385-8.20321 6.02622-5.68413 8.78967-8.66868 13.08358-12.86367 4.62884-4.52219 4.37183-3.79396-1.14989-5.38055-3.47907-.99966-5.29347-1.41437-5.53836-1.56353-.75904-.46232-2.52055-.0874-3.69282.55739-2.21083 1.21598-7.85682 5.52346-11.67291 9.438-2.43366 2.49643-4.66703 4.13843-9.22442 8.1196-3.9737 3.47127-7.25457 7.1256-14.31372 12.79262-4.17315 3.35016-5.63827 5.11683-13.37064 10.57469-8.01037 5.65408-12.99117 9.54444-22.47528 16.02785-4.56755 3.12242-12.443694 8.08244-17.807363 9.91552-7.595289 2.59576-21.201227 4.10716-21.212292 6.7296-.01525 3.18778 8.181599 9.37674 14.976703 12.81318 4.278999 2.16398 7.632738 3.50167 12.293322 4.33231 2.768095.49335 9.44241 1.1126 17.0931.0821z"/><path d="m249.88924 410.97283c.72064-1.24673 4.3151-7.76841 4.69713-8.8695 2.60204-7.49953 3.31633-9.61641 3.7786-12.68495.48896-3.24576.46539-3.5426-.36935-4.65354-.49039-.65265-2.87358-6.64626-3.30985-7.37415-.67158-1.1205-1.81851-3.83959-4.61272-10.93562-.67918-1.72479-2.24119-1.6003-3.65757.2915-.61289.81862-8.04992 14.42926-8.87821 15.63218-1.42234 2.06567-1.49058 2.33723-1.22864 4.88959.62891 6.12809 3.10367 11.73392 3.27149 12.76785.43933 2.70662 1.59305 5.83067 3.53155 9.56282.93175 1.79386 3.01704 5.78826 3.39769 5.78485.11716-.001 2.65924-3.16428 3.37988-4.41103z"/><path d="m266.40533 375.07223c1.1733-2.14022 4.78114-8.25341 8.04922-13.38113 2.09559-3.28805 3.97521-6.64855 5.06379-9.71198 1.23982-3.48903.57897-3.88864-3.3304-3.62567-4.47796.30122-10.72482-3.78855-12.15798-2.47149l-11.4591 10.5307s.50258 5.96419.87752 6.69926c.37495.73506 1.07496 3.3539 1.54143 4.23671 2.21867 4.19887 4.69741 13.54506 6.63719 13.54464 2.11459-.00043 3.42358-3.34984 4.77833-5.82104z"/><path d="m237.0586 376.66128c.18367-.24557 3.71652-6.04345 4.66162-7.26131 2.02298-2.60685 4.40607-7.26034 4.39426-8.58075-.008-.88935-.74628-2.61487-1.31631-3.07629-1.70575-1.38075-7.84607-9.71375-9.3845-12.17794l-2.96091-4.74268s-6.76217 4.12824-7.82254 5.07858c-1.42976 1.28139-7.41066 3.07636-7.63215 3.2752-.50272.45133-.37418 3.67559.18786 4.71222 1.28366 2.36764 3.11842 6.70559 3.36538 7.95682.27319 1.38416 3.96683 7.85958 5.90014 10.3437.5094.65452 1.63292 2.10885 2.49672 3.23184 1.80383 2.34508 4.25642 4.15788 5.60894 4.14579.56722-.005 2.31783-2.65961 2.50149-2.90518z"/><path d="m428.37016 355.19096c4.58327-2.38739 6.76243-4.64639 9.51566-8.48818 3.48957-4.86925 5.71443-7.44609 5.23606-11.08706-.33994-2.58735-15.00493-3.2364-22.98778-6.06912-9.92239-3.52096-15.88053-6.51494-21.62323-9.13201-7.74153-3.52797-12.11613-5.95847-17.343-8.66668-6.58276-3.41075-11.16915-6.33628-17.61807-9.88897-7.35009-4.04916-10.49224-5.90061-14.41575-8.0623-6.02433-3.31917-4.87541-2.97811-7.97608-2.58426-1.26862.16114-2.22337 1.6207-4.63121 2.34505-2.51822.75755-4.23686.66026-4.69663 1.00399-1.10485.826-.88497 2.41145.67388 4.35873 2.47435 3.09091 6.54576 5.79772 10.60865 8.69115 2.88139 2.05202 6.06882 4.98122 12.98501 9.1359 2.74076 1.64642 11.04289 6.76761 19.01831 11.21054 4.35868 2.42813 7.78227 3.7174 12.01579 5.96484 3.15893 1.67697 14.37312 7.00068 13.77197 7.89779-.56992.85049-9.33584-2.52427-13.14267-3.94778-7.91885-2.96115-10.75374-4.40308-15.20857-6.71764-8.12997-4.22402-14.58744-7.52558-19.52239-10.40751-7.46548-4.3597-14.86278-9.50287-16.82478-11.02269-3.74715-2.90265-9.62203-8.09336-10.16619-8.08962-1.0582.007.16668 2.46986-.361 6.36306-.29078 2.1454-.73964 3.15795-1.31611 4.32124-1.66399 3.35784-1.42037 4.44772 1.31959 6.50923 6.80263 5.11824 12.03458 8.63093 17.5196 12.50959 2.74111 1.93835 6.81352 4.28577 9.40366 5.92633 5.16894 3.27394 23.46551 14.1197 27.49816 16.0544 5.21937 2.50404 7.65539 4.90554 13.53781 6.44469 8.27582 2.16539 10.18907 1.49262 13.31532 1.54698 5.35612.091 10.62012-.49725 21.41399-6.11969z"/><path d="m257.47089 343.92526c.74133-1.41546.57042-1.77855-1.85464-3.94006-4.80739-4.28495-6.08596-5.63122-7.30596-7.69283-1.41946-2.39868-2.94611-3.57943-4.12082-3.18715-.77274.25804-2.62779 2.03011-5.38085 5.14016-1.68407 1.90242-1.71822 3.50084-.14884 6.96541 1.10375 2.43664 8.85945 11.66834 9.6542 11.89013 1.98626.55432 8.37381-7.68044 9.15691-9.17566z"/><path d="m221.0495 342.92601c.64331-.46607 6.12332-3.20938 6.37914-3.21167 1.64368-.0147 2.81713-3.52823 1.44115-4.31507-.33588-.19206-5.34594-12.35039-7.32561-16.2963-2.02225-4.03076-2.89221-10.78026-5.71465-13.59675l-5.87471-16.86099s-9.37976-10.0725-9.82366-10.55639c-1.01765-1.10931-6.20129-10.36204-6.67248-11.40199-.94463-2.0849-6.69238-8.29164-7.91706-8.85417s-12.25521-9.18995-14.13847-10.83583c-1.88327-1.64588-8.1611-6.33631-12.41034-11.0763-4.19753-4.6823-5.43086-6.38753-6.40354-8.85373-.54226-1.37488-3.23265-6.48909-5.7705-10.96923-1.60676-2.83646-3.82923-10.20212-4.55416-15.09327-.66525-4.48845.74881-17.71048 2.49388-23.31879.78835-2.53362 3.53923-8.11277 4.88909-9.91571.6896-.92108 9.01832-6.55579 9.74648-6.96112 1.83749-1.0228 11.1373-1.07891 13.87347-.0837 1.83407.6671 3.73983-1.46406 3.38987-7.22467-.40541-6.6731-1.24238-10.28862-3.10821-13.42663-.68163-1.14638-3.77754-7.05955-4.12536-7.25817-.34784-.19861-6.85452-8.51848-7.74901-9.11469-2.19088-1.46028-4.76205-5.15725-7.85355-11.29226-1.54794-3.07184-2.18377-4.68328-2.85845-7.24453-1.03093-3.91364-1.68746-4.24065-3.00959-1.49903-1.2371 2.56527-2.06812 6.27874-1.9998 8.93617.0467 1.81685-1.67837 11.29948.0487 17.49216.41352 1.48272 4.12805 3.2843 3.88272 4.30015-.62743 2.59805-3.64399 4.05314-6.45381 3.1131-2.28702-.76514-7.56722.45362-9.87352 2.27899-2.09195 1.6557-3.80488 4.35617-3.79421 5.98162.005.67562-1.73835 8.49322 1.06314 12.5014.83059 1.18837 5.77948 7.08349 6.24343 7.53921 2.28638 2.24585 1.30901 3.94693-2.29192 3.98903-2.06132.0241-8.43679 2.8564-8.58712 3.52151-.30014 1.32805-2.22588 3.66605-3.02549 3.6732-2.07351.0186-3.54697 5.53281-3.0607 11.45427.43963 5.35344 3.67093 12.27913 4.41155 13.37019.74061 1.09107 6.33145 7.42802 7.57111 7.6887.86405.1817 5.33569-1.03644 5.34439-.0639.003.32137-2.97205 2.2016-4.93886 4.3921-4.40747 4.90871-4.78311 9.31806-4.53841 14.06101.23551 4.56487.42151 5.47273 1.62139 7.9142 1.40668 2.86227 2.59847 4.53107 5.1297 7.18283 1.7351 1.81772 6.39716 4.70748 6.87957 5.13005 3.19639 2.79989 10.4116 3.00074 10.4183 3.7506.003.34553-1.20881 1.98422-1.8833 3.27291-1.83951 3.51455-3.38295 9.56422-3.57522 14.01335-.15119 3.49884 4.84437 13.23214 4.8461 13.42461.007.75725 6.09295 5.90739 7.57741 6.41203.86716.29479 4.2427 1.65248 6.60806 1.68164l13.13159-.34745c1.543-1.86256 4.01857-2.69565 4.48591-1.50962.32945.83612-1.25315 2.98207-2.99368 4.05931-.66711.41288-3.80534 8.42892-3.79116 10.01466.009.99471.62019 7.29445 1.30559 8.08958.68541.79513 5.84393 8.88521 6.37513 9.89243.63022 1.19502 4.81752 3.36281 6.04179 3.87966 2.927 1.2357 6.99038 1.32454 9.82811.21488 3.65192-1.42803 4.06059-.93732 4.40753 5.29215.21923 3.93642 1.09853 6.05574 3.71217 8.94719 2.9318 3.24344 5.51597 4.55483 8.98606 4.56015 2.08172.003 3.11889-.21631 3.98405-.84311z"/><path d="m269.0111 321.36125c2.33226-6.46354 4.09856-13.71979 2.9551-15.05366-4.00533-4.67235-8.28252-9.55475-9.32177-9.61699-1.36311-.0816-3.57833 7.21558-6.22294 13.68959-1.51431 3.70702-2.52657 5.57516-5.42446 11.68695-.55665 1.17399-1.74893 2.52232-1.1038 3.4437 5.39615 7.70676 9.65549 12.12447 11.61748 12.08104 2.19974-.0487 5.7764-11.45279 7.50039-16.23063z"/><path d="m280.44062 343.17777c2.71444-1.34413 7.94712-6.69923 9.48652-9.70844 2.0309-3.97 2.01793-3.92467 1.56282-5.45961-.79053-2.66624-.5935-3.91561.69697-4.41951.63981-.24982 4.51873.31103 5.5177.70042 2.43329.94845 8.31738.55804 11.18738-.7423 4.87952-2.21082 9.3979-11.28941 9.64188-11.60227 1.42075-1.82186.87387-13.03418-.82656-16.94637-.36965-.85045-.81341-2.11796-.98613-2.81669-.29406-1.18959 6.81124-1.37277 8.88339-.52864 4.38712 1.78714 12.78978-.35345 16.53659-4.21272.84471-.87007 4.42141-3.6527 5.9773-6.33249 1.5732-2.70961 3.49293-6.1559 3.407-12.10803-.071-4.91592-.50865-5.26981-3.20486-9.53416-2.2114-3.49756-2.22436-3.55332-1.17536-5.05474.52807-.75582 1.39533-1.40367 1.92724-1.43965.5319-.036 2.18561-.12256 3.67488-.19236 2.393-.11216 3.08492-.3757 5.95233-2.2672 4.08708-2.69606 7.29475-6.00974 8.39472-8.67219.46894-1.13507 1.11772-2.66487 1.44173-3.39955 1.81067-4.10569 1.9825-4.79562 1.90685-7.656-.11083-4.19106-.86096-8.42554-1.88379-10.63414-.4769-1.02979-.86881-2.06371-.8709-2.29762-.007-.80579-4.60639-5.85442-6.57089-7.21299-2.33438-1.61438-2.48667-2.9376-.39899-3.46685.73013-.18509 2.30597-.57896 3.50187-.87525 2.50927-.62169 5.94081-3.74867 7.0194-6.39642.8214-2.01634 1.24796-7.92062.75607-10.46508-.20818-1.0769-.24862-3.95199-.0899-6.38908.31644-4.85778.36713-4.70714-3.35852-9.97911-1.48759-2.10501-4.10744-4.03417-4.70455-7.611-.6236-3.73552 3.24054-4.64337 3.60384-6.02856 2.28321-8.70542-.50747-12.99501-1.6476-14.7641-2.08057-3.22832-3.10681-3.68556-6.20191-5.99846-2.80835-2.09863-2.44317-2.04589-7.86827-1.13621-2.7708.4646-3.40738-1.44141-1.21343-3.63321.7186-.71789 1.67614-2.1215 3.51088-5.5383 1.60934-2.99705 2.65914-4.4273 3.31469-8.67807.64385-4.17489 1.82239-7.34576 1.35757-11.87063-.25149-2.44821-1.95796-6.58611-5.56565-6.9409-2.22077-.2184-5.80031 5.73271-10.79176 9.63905-4.1081 3.21502-10.55808 7.79291-10.79947 8.07649-.2414.28358-7.39618 4.99814-7.68587 5.35361s-7.13114 4.28814-9.94279 7.43787c-1.20611 1.35114-5.1806 5.83137-7.66495 10.49257-2.24813 4.21799-3.45796 10.07858-3.41648 14.71787.0413 4.61834.56306 6.60173 4.02025 15.28216 1.68891 4.24057 6.39942 7.16607 9.54742 8.66777 2.59545 1.23812 8.32986 1.33315 9.68783.56163 2.37093-1.34701 5.6748-8.27773 8.65718-7.85916 2.44854.34366 3.58885 9.77547 2.3471 23.29241-.3335 3.63034-1.4495 8.60354-1.44528 9.0759.0143 1.60195-2.48266 9.82303-3.51309 11.56648-2.38835 4.04102-4.63557 7.41893-6.27807 9.43686-.96513 1.18572-2.54395 3.17742-3.50851 4.42601-1.87747 2.43031-4.96781 6.08267-9.73187 8.12622-4.91562 2.10855-8.02891 2.46353-12.86008 2.1618-6.08252-.37987-6.62041-.45846-5.92362 3.00583 1.30807 6.50345 4.38288 12.93361 6.15796 14.00885 1.87268 1.13437 9.31101-3.15161 12.67057-5.54835 3.73739-2.66628 5.43078-4.67695 5.57044-4.80814 3.13188-2.94198 7.19929-8.04179 9.07128-10.75784 2.33937-3.39417 4.87366-8.06998 5.85402-10.66407.32373-.85665 5.1404-9.29314 5.52757-10.02839.38718-.73526 1.97225-6.04859 2.70603-8.54771.73379-2.49912 1.60675-6.17801 1.95087-6.94974.66613-1.49385.76863-2.49205 1.46561-14.27243.31466-5.31864.30467-8.13106-.0339-9.53515-.26411-1.09533-.609-2.78867-.76644-3.76298-.15744-.97432-.83341-2.86427-1.50216-4.19991-1.01541-2.028-1.61824-2.63942-3.65585-3.70796-2.08068-1.09113-2.93238-1.27513-5.78434-1.24964-4.07097.0364-7.30887 2.40907-9.45079 4.46007-1.74687 1.67272-2.01371 1.65429-2.7187.36483-.2712-.49603-3.2258-3.95992-6.07871-8.89151-1.57084-2.71537-3.12732-8.05376-2.66212-11.86423.62129-5.08902 1.66455-7.33943 3.86758-10.76167 1.57548-2.44739 4.73139-6.76301 7.76053-8.77367 3.61276-2.39807 8.85981-6.56343 11.36777-8.11568 3.11331-1.92693 5.8915-4.20011 7.8106-5.16923 1.91909-.9691 7.7835-7.57941 8.26067-8.12794 1.15186-1.32415 1.71867-1.57766 1.73682.45269.0189 2.1193-.94107 3.46778-5.91553 8.30916-2.44545 2.38-5.08531 3.96581-6.69801 5.20919-2.88561 2.22477-5.33554 3.71124-8.40559 5.82666-4.10935 2.83153-6.98243 6.69741-9.55002 9.87693-1.96052 2.42778-3.66883 5.39738-4.52893 8.4258-1.21923 4.29289-.0311 8.43982 3.64235 13.06001 1.47733 1.85806 3.10733 3.23197 5.04246 2.42525 2.44116-1.01768 4.84325-1.35799 8.25051-1.16887 4.76965.26474 8.46451 1.48114 11.50474 3.35557 2.70822 1.66974 5.36441 4.88514 6.25424 8.28613.74057 2.83052.80228 4.14603.55637 10.76681-.37792 10.17446-1.46523 16.07308-2.41118 19.3352-.96515 3.32836-2.7033 8.62144-3.88788 12.50425-1.03688 3.39868-1.95588 6.21877-4.15634 10.18064-2.31688 4.17149-7.77312 13.25597-10.73212 17.2785-2.00584 2.72678-8.23626 8.03233-9.20846 9.31605-.97219 1.28371-8.42056 7.3508-8.57527 7.35218-.1547.002-8.51276 4.90649-9.24101 5.30216-1.81704.98724-5.50536 4.2523-5.50011 4.86895.0133 1.55635-5.55695 8.44972-8.56848 10.6039-1.36896.97923-4.6732 10.13493-4.55944 10.52744.0665.22959-5.0561 11.56886-5.19555 11.57011-.73908.007-2.62616 5.21867-2.6084 7.20435.018 2.01152-5.41766 18.25502-5.63934 18.39479-.22168.13976-3.59411 9.23223-4.32745 10.63657-2.13324 4.08512-1.51109 5.00272 4.19673 6.18966 3.94069.81947 5.54612.7489 7.74611-.34048z"/><path d="m238.02602 330.11596c.99487-1.08907 3.63723-4.61002 4.46994-5.63371l.0559-.69931c-.44709-1.25362-2.03066-5.41868-2.90566-7.24034-2.98325-6.2107-4.17516-9.58044-4.84774-13.70544-.50897-3.12156-.6131-3.3291-1.72995-3.44807-1.01406-.10801-1.32225.15498-2.10093 1.79283-1.22566 2.57795-6.09757 7.51772-5.84883 10.6377.17712 2.22163 2.25571 5.30948 2.51609 6.16091.64186 2.09884 5.03479 12.12122 6.14182 13.36125 1.10576 1.23861 2.31743.88909 4.24939-1.22582z"/><path d="m248.79003 316.64318c.7448-.63818 6.68993-11.72251 7.21805-13.60322.16378-.5832 3.76383-10.15116 3.52931-13.38621-.11837-1.63288-.0936-3.04454.055-3.13702.14864-.0925-.004-.0948-.34073-.005-2.00875.53552-8.17507-7.41187-9.94032-12.81147-1.01748-3.1123-1.18776-3.35818-2.31875-3.34806-.90317.008-1.39358.35278-1.88554 1.32536-.3657.72295-6.32014 14.28101-6.86267 14.98657-.87252 1.1347-.59065 9.7445-.32908 10.05401.26158.3095 2.87206 9.64707 3.0572 10.49917.18513.8521 1.34999 3.5859 2.58859 6.07511 2.49223 5.00871 2.95106 5.30275 5.22891 3.35102z"/><path d="m424.74422 299.51919c8.12305-2.39158 9.26179-3.30396 12.87954-5.76197 3.2403-2.20157 5.93642-6.40675 8.61792-10.40644 2.04671-3.05284 4.57939-11.05743 4.15168-12.43993-.49713-1.6068-11.81079-.85576-17.46294-1.56115-4.25259-.53074-10.94958-1.95763-18.02356-3.5962-7.8829-1.82595-21.91883-6.06581-28.0148-8.24336-9.04618-3.23139-17.02665-7.18164-19.49479-7.48695-1.12387-.13902-4.29756 2.63555-7.14939 4.02831-2.8251 1.37971-5.64623 1.72128-3.68099 5.27349 1.38596 2.50515 9.77619 6.12667 12.80973 7.43984 3.77093 1.63238 7.47648 3.25392 11.88183 4.72033 2.68564.89397 7.24602 2.12574 13.65497 3.73922 2.55848.64411 17.581 3.4408 24.99679 4.48006 1.722.24133 5.8023 1.394 5.73424 2.69636-.0659 1.26033-1.51259.79273-9.85197.95899-5.15623.10281-11.72715-1.21342-16.9357-2.17065-6.92998-1.2736-15.05397-3.25869-21.55856-5.40753-5.1073-1.68724-13.93106-4.58468-17.34818-5.73809-2.43589-.82221-2.98679-.0498-3.75745 1.38484-.25724.47888-5.35372 9.77359-5.03863 12.03049.33708 2.41451 6.36602 2.95616 11.56986 5.37272 6.51464 3.02526 24.89961 7.61801 25.91311 7.96105 1.0135.34303 20.96648 3.29036 21.70014 3.49914 1.98999.56628 11.61224.0503 14.40715-.77257z"/><path d="m226.00002 301.33106c.76578-.39061 3.09148-2.52187 3.61699-4.52556l2.4415-9.30915c-2.76192-7.64-5.64175-5.00525-7.62915-14.2885-1.0777-5.03403-1.57479-7.67634-2.56422-7.6675-.5013.004-4.56628 9.40392-5.26645 10.47153-3.19032 4.86458-4.24921 8.55033-3.4301 11.93935.20591.85191 2.27634 9.03206 3.84162 10.76644 2.82366 3.12869 6.10785 4.08343 8.98981 2.61339z"/><path d="m277.4728 297.05518c1.26151-1.76186 2.14539-3.07765 2.98713-5.12707.77764-1.89337 1.44047-3.06849 2.4666-5.7586 1.1595-3.03974 1.02791-5.20969-.73261-7.70564-1.7863-2.5325-3.931-4.51712-6.00239-7.96355-2.24848-3.74111-3.91728-3.44409-4.49847.42116-.13655.90812-.48947 1.41046-1.24329 3.06201-.575 1.25977-1.26948 2.79755-3.19695 6.15954-1.67617 2.92366-3.39866 8.16696-2.27632 10.16141 1.44454 2.56701 4.25837 5.47119 6.37954 8.20445 2.76906 3.56809 3.83722 3.80775 6.11676-1.45371z"/><path d="m93.881471 298.99757c6.464409-1.19339 22.494509-3.34081 27.667149-5.83699 1.94306-.93766 8.88569-4.07718 12.58671-5.96162 2.25618-1.14877 5.09668-3.10013 7.50063-5.3291 1.31045-1.21506 1.39533-1.46271 1.08935-3.17827-.1825-1.0233-1.13956-5.87077-1.98042-5.98231-.56295-.0747-7.68432 2.40147-8.7082 2.72262-4.41422 1.38456-8.72109 3.02763-10.96005 3.60375-4.10822 1.05713-7.61215 2.41912-16.24875 4.15777-4.848505.97606-10.864629 1.28315-21.144822 1.77644 0 0-7.535464-.79072-7.576514-1.78078-.05528-1.33315 6.661519-1.87505 10.296633-2.12764 6.385589-.44369 13.419313-1.79876 19.706653-3.30069 4.578-1.0936 9.44785-3.16621 13.27305-4.26981 3.56-1.02708 5.5158-2.01471 10.00653-3.71032 6.86688-2.59281 10.41411-4.55566 13.31227-6.47937 1.8976-1.25956 4.2207-6.19277 2.97049-7.5425-3.52712-3.80788-13.79017-9.43501-16.40347-9.4444-1.82371-.007-4.14366 3.03091-9.11226 5.87899-5.43969 3.11812-11.04468 4.86514-17.33557 7.29101-6.532125 2.5189-11.748104 3.3046-25.644836 6.45595-4.350339.98653-12.672408 2.88155-17.933292 3.22552-8.061445.52707-10.966297-.12686-16.483352-.90972-4.764513-.67609-2.088624 7.98569.789782 12.67703 3.752027 6.11527 3.885111 7.42908 9.250651 11.65259 4.038735 3.17912 8.842204 3.65562 14.948373 5.41158 4.668384 1.34249 15.926417 2.26787 26.133265 1.00027z"/><path d="m98.184775 358.66216c2.680605-.29308 12.058335-2.10758 15.162485-2.88995 4.47215-1.12715 8.03545-2.56993 11.81849-4.66807 3.28324-1.82095 16.86804-7.88602 20.57481-10.80356 3.34188-2.63034 9.4859-7.74673 13.18995-10.80252 2.52419-2.08242 7.49428-6.40768 11.68148-10.14675 1.62343-1.44968.98131-5.06566.8081-8.73311-.13893-2.94166-.39799-4.60695-1.53069-5.02606-.91463-.33841-4.72418 2.55606-8.82678 5.48898-4.05139 2.89631-8.19483 5.08215-11.1306 7.15615-2.32523 1.64268-7.11483 4.16081-10.79057 6.44441-3.84391 2.38808-18.22216 10.32368-22.30607 11.77527-7.19925 2.55893-19.78592 7.41835-20.039215 5.31577-.176275-1.46318 9.216025-5.27945 12.489975-6.38762 3.42341-1.15875 6.71202-2.91656 10.68738-4.9107 5.78629-2.90254 9.52601-4.61244 14.11393-8.15096 3.09517-2.3872 15.19031-10.26843 18.18869-12.05875 2.93033-1.7497 6.84048-3.67905 8.56338-4.93487 4.81407-3.50895 7.15104-4.5998 10.58364-6.3611 1.98572-1.01889 4.61163-2.95474 2.4683-3.86329-.68128-.2888-6.54558.0281-9.13437.20481-4.55694.31102-4.82576.2769-8.43626-1.07067-2.05114-.76556-2.53428-1.16416-6.53668-3.40779-1.09592-.61435-1.68003-.38847-7.82732 3.08609-5.25596 2.97076-11.07714 6.9964-14.06585 8.68395-5.93768 3.35265-8.93402 5.68784-17.30631 10.63797-3.55358 2.10106-8.7952 5.09233-15.168899 8.15281-3.72505 1.78867-7.536989 3.86882-12.587038 6.32073-4.825454 2.34287-7.814284 2.52709-14.926877 3.95387-7.472194 1.4989-19.089723.83695-18.372118 5.88705 1.582939 11.14009 8.474129 12.72429 16.539648 16.71983 3.923569 1.94368 12.101478 4.35262 17.706112 4.92248 4.703419.47823 7.740873.19467 14.409277-.5344z"/><path d="m264.37509 279.48844c.50502-.65398 2.27237-2.87377 3.17115-4.78916 1.09322-2.32975 1.661-4.98371 2.30846-9.84585.56029-4.20755.25339-6.65129-1.05318-8.38586-.4878-.64759-1.84419-3.669-2.1675-4.03245-.9163-1.03005-1.94141-3.83599-2.74523-7.5143-.60413-2.76455-3.14447-2.88522-4.17118-.19814-.33021.86423-2.38638 4.40038-3.17253 5.23211-6.41001 6.78155-6.57298 7.26066-4.81165 14.14562.65374 2.55542 1.17968 5.05749 1.30772 5.53217 1.00736 3.73457 3.10396 7.75488 7.62355 11.25515 1.62693 1.26 2.75024-.15596 3.71039-1.39929z"/><path d="m240.60161 275.84153c2.30866-4.79804 2.58645-5.71328 3.34048-11.00619.45234-3.17514 1.01605-6.35334 1.25271-7.06266.67835-2.03316.53069-2.58534-1.34749-5.03897-2.03413-2.65735-5.06848-11.22516-5.64066-12.68362-.79592-2.02878-1.27548-2.68429-2.04126-2.79022-1.33298-.18439-2.81055 1.29303-4.11674 4.11632-.6372 1.37731-7.83275 9.44037-7.97002 10.60235-.37206 3.14941 1.39292 12.01428 2.99007 15.01802.19788.37213 2.97376 7.35358 5.81479 10.57768 2.94782 3.34527 3.14378 3.50438 4.31307 3.50218.69319-.002 1.4372-1.14513 3.40505-5.23489z"/><path d="m211.66235 279.26699c.76546-.88769 5.92458-10.70813 6.74046-17.30787 1.31807-10.66207 1.41702-9.33049-.86671-11.66377-1.94343-1.98558-5.75271-9.78725-6.64751-9.77925-1.10034.01-2.05034 1.33147-2.39004 3.32504-.16439.96473-4.76007 12.06024-6.32496 13.828-1.16822 1.31965-2.08554 4.64628-1.83901 6.66908.40166 3.29579 9.02102 16.55095 9.56096 16.54612.20629-.002 1.00134-.72965 1.76681-1.61735z"/><path d="m290.7903 273.73299c1.97772-2.45399 2.98924-5.83712 3.70937-7.34924 1.79827-3.77598 1.81223-3.81567.036-7.22652-1.7849-3.42761-3.52708-6.88234-4.94352-13.6194-.9672-4.60033-3.18084.0992-5.40112 3.50344-1.82897 2.80426-7.06909 6.78656-7.84176 10.10222-.98181 4.21322-.43972 5.77648 2.50851 9.29075 2.71092 3.23141 3.10754 3.62873 4.44271 4.98866 3.38571 3.44851 4.48192 4.33867 7.48975.31009z"/><path d="m197.7191 255.70415c.12083-.12801 3.91441-5.02816 4.27997-5.45352.8083-.94049 2.97832-7.14517 3.77436-10.79191.88002-4.03142-.43422-4.73111-3.56063-2.00136-4.78614 4.1789-20.72424 3.74644-27.68337-3.47787-4.99972-5.19024-12.79422-27.6656-13.73007-33.20829-4.75311-28.1509-1.66713-26.42322-.69624-26.44751 4.97641-.12455 8.64645 3.52779 11.64969 4.62879 5.60127 2.05346 11.61356-2.15088 16.10301-7.45978 3.33195-3.9401 3.46379-12.02759 3.73092-13.13.6121-2.52604-2.88717-13.27995-3.07758-13.88807-.70424-2.24908-3.26264-6.92926-5.30781-9.70975-1.15861-1.57518-8.49192-10.45481-10.65162-11.99972-.59648-.42668-2.29174-1.86844-3.76726-3.20391-5.77085-5.22311-8.29777-7.21223-9.15251-7.20459-1.05744.009-1.09759.42156-.23682 2.43098.65564 1.53055 7.96257 7.62037 12.91691 13.2273 7.1913 8.13855 11.09534 22.59616 10.60222 26.56853-.14611 1.17705-.43365 3.47775-.63897 5.11264-.5622 4.47663-1.58152 6.8375-3.31566 7.67948-1.76621.85755-2.46046.6398-5.29401-1.66044-2.05705-1.66988-2.4105-1.79477-5.43527-1.92041-5.72725-.23789-11.47585 2.23371-15.35658 6.60256-1.58812 1.78787-1.761 2.25668-2.38599 6.4702-.44595 3.0065-.61599 6.71684-.50594 10.97206.19372 7.49032.0313 14.52806 1.26712 18.70658 1.05495 3.56695 5.48732 13.61452 7.5651 18.15077 1.97488 4.31157 7.29423 9.76118 13.51839 15.05518 6.19642 5.27039 15.10026 13.25586 21.0033 16.27848 1.82395.93395 2.6966 1.46281 4.38534-.32642z"/><path d="m275.94575 253.8575c3.15684-2.66394 4.54691-5.22527 6.63335-7.9217 3.05966-3.95419 4.14026-9.24805 4.10579-10.4726-.0385-1.36665.18991-.69774-3.88528-5.81067-2.27941-2.85987-2.19307-3.15397-4.56458-6.25932-1.64124-2.14911-5.22874 3.50617-7.87844 6.09916-2.61081 2.55494-4.54958 3.3976-4.17279 5.43407.77904 4.21047-.24245 3.43568 1.95373 9.64012 1.20439 3.40253 2.20822 5.29302 4.27026 8.16129 1.06613 1.48297 2.12556 1.68618 3.53796 1.12965z"/><path d="m254.08671 249.29122c2.27951-2.59066 5.47263-8.64483 5.60023-8.76793.65936-.63615 2.58142-6.45872 2.57656-7.80525-.001-.25536-.91301-1.82515-2.02686-3.48842-1.92905-2.88056-5.3489-14.02662-5.65169-14.93865-.46811-1.40998-.74223-1.65652-1.83096-1.64679-.81983.007-8.04893 8.69717-9.85674 10.57378-3.99027 4.14214-4.2731 5.10922-2.82163 9.648.55698 1.74173 3.07728 10.07361 3.44297 10.4705.36568.39689 2.55635 5.0358 2.86725 6.07542.45773 1.53062 5.77628 2.06664 7.70087-.12066z"/><path d="m224.01673 246.85379c2.96301-1.63587 4.77866-3.30452 6.06238-5.57157 2.06181-3.64113 2.11797-3.73699 4.14816-7.0789 1.11946-1.84275 1.85279-3.59282 1.84554-4.40427-.0164-1.83275-3.13118-5.12509-6.35794-10.73974-1.65609-2.88164-3.33699-5.85093-3.81436-7.68341-.38716-1.48617-1.40885-1.7566-2.31754-.61344-1.65272 2.07919-4.39857 5.00265-7.45649 7.93881-3.48407 3.34534-3.71572 4.50597-2.39054 11.97722.77682 4.37962 6.60372 15.72802 6.88898 16.25231.54071.9938 1.49138.97222 3.39181-.077z"/><path d="m415.02417 242.27376c3.91258-.40556 10.48783-1.23287 16.28012-2.71083 3.54157-.90368 5.61259-2.22463 8.57009-4.81821 6.00699-5.26787 7.10183-8.96876 8.32556-11.32858 2.20839-4.25861 7.19953-16.41852 6.60326-17.59987-.69743-1.38179-7.49351.9122-11.15039 1.14488-6.6314.42194-12.93333.091-27.51198-1.60929-12.83721-1.49721-20.27329-2.89559-25.98001-3.88197-3.05899-.52873-5.67542-1.28218-8.85217-1.93187-4.13859-.8464-4.54444-.25937-7.07524 2.20592-3.01321 2.93521-4.79761 4.08-5.28783 6.26477-.18927.84351 3.49454 3.97206 5.17378 5.13358 1.78651 1.23573 8.05562 2.01527 15.45176 3.60825 7.81645 1.68351 19.12187 4.29403 22.5917 4.61012 5.05677.46066 12.83765.4194 19.20073.0285 0 0 5.91747.25004 5.90048 1.89282-.008.81306-6.53299 2.56307-17.95645 2.62007-7.77014.0388-15.83381-.96526-19.40751-1.63947-6.6712-1.25859-27.40808-9.08643-25.78096-4.10045 0 0 .23679 13.95343-.69229 16.97671-.32213 1.04825 4.20888 1.86074 8.82491 3.17312 4.69199 1.33397 10.98428 1.86706 16.11444 2.20767 3.70065.2457 10.86251.35492 16.658-.24583z"/><path d="m110.50518 242.72777c2.43672-.28917 7.78871-2.16938 9.36494-2.9802 2.96354-1.52445 3.75957-1.24223 3.15601-5.68401-.25416-1.8704-.096-6.55793-.26253-7.19723-.28843-1.10716-.41241-1.15099-2.61061-.923-1.26929.13165-8.46884 1.46183-12.04926 2.00114-3.43988.51814-7.08866 1.0116-12.489249 1.27848-5.482529.27093-9.870434.44819-15.799773-.24785-8.580713-1.00729-18.742581-2.9658-18.539766-5.34056.194875-2.28167 1.918549-1.98885 6.424504-.71446 3.111304.87996 14.289687 1.03389 20.756741.80881 2.435334-.0848 11.930503-.97852 14.934813-1.317 9.57852-1.07916 14.64763-2.26977 20.99415-3.97756 1.71082-.46036 4.76359-3.03927 4.21673-4.47443-1.51349-3.97203-6.71807-8.6454-10.48606-8.9272l-.0147.16701s-11.70665 1.02332-19.88231 1.73786c-9.351738.81022-18.930411 1.45494-31.838569 1.51215-8.575959.038-11.559528-.19836-17.355266-1.28256-6.494076-1.21481-9.679467-5.18902-9.383262 2.26981.258083 6.49796 2.768793 13.20408 6.33756 17.66016 4.589946 5.73114 12.596014 9.82075 16.473109 11.4215 2.786869 1.15063 11.908582 3.03687 14.509072 3.41765 3.421339.50099 10.600623 1.67198 17.979877 1.98465 7.425039.3177 10.679559-.61354 15.563889-1.19316z"/><path d="m268.72392 227.16283c1.88498-1.49272 3.75122-3.9625 5.9953-6.67669 1.2087-1.46192 2.05958-3.04369 2.01545-5.0539-.10112-4.70715-.44589-11.88257-.31013-15.25415.13575-3.37158.83065-7.12315.47402-10.02664-.1578-1.28468-4.36065.60757-6.31004 1.71007-1.8079 1.02248-5.20347 3.43703-7.69026 6.05615-1.87238 1.97201-2.68524 2.98152-3.83819 4.39334-1.30708 1.60056-1.3267 5.38948-.1934 11.30397.47705 2.48964 1.62662 5.28813 2.86879 8.60109.99491 2.65349 1.54951 3.87314 2.70866 5.89945.51771.90502 2.68147.0416 4.2798-.95269z"/><path d="m252.72906 207.75485c1.46921-1.68022 1.52598-2.2802 1.46051-4.46524-.054-1.80374-.54421-3.24613-1.3087-4.98147-1.75042-3.97338-2.94056-6.83299-4.77064-11.10296-.38852-.9065-.74948-1.56686-1.98457-1.55582-.31214.003-3.5663 1.92985-6.70719 3.9203l-11.75087 7.44677c-.15866 5.55047 1.17467 9.03806 2.59485 13.30492.60653 1.82228 1.73405 4.04201 3.20898 6.62544 1.55746 2.72801 3.8539 6.92959 4.64423 6.95198.19904.006 8.95352-9.67111 14.6134-16.14392z"/><path d="m224.21652 199.48272c-.26013-.94629-6.66522 1.56913-7.08562 1.66538-3.94817.90396-2.38005 2.02214-2.72666 6.60936-.38651 5.11538 1.36115 7.28096 3.01972 5.90985 5.20845-4.30575 8.48966-8.01097 6.79256-14.18459z"/><path d="m219.14961 197.18727c3.35514-.76576 7.58034-2.89429 10.38388-4.36679 2.6433-1.38834 8.97127-4.77285 11.94925-6.60683 2.90504-1.78906 6.13636-4.33504 6.12441-5.67104-.004-.5024-.62292-1.6458-1.37428-2.54091-1.81178-2.15839-2.42724-5.27404-2.51511-12.73224l-.0705-5.98675s-6.87758.9013-12.04648 4.41062c-3.50459 2.37935-8.55051 7.05816-9.34942 8.44899-1.05806 1.842-2.19328 3.57161-3.65219 8.04148-1.03894 3.18314-1.82861 6.13739-3.15474 10.39674-.48748 1.56572-1.83302 6.74733-1.46831 7.10557.44293.43509 3.42961.1471 5.17353-.49884z"/><path d="m260.48418 196.48535c1.02275-.55112 6.15664-4.81028 6.5952-4.8142.43854-.004 8.67825-6.30903 10.22025-8.20091 2.0034-2.45798 2.5144-7.65194 3.62495-11.02226.97415-2.95636 1.07486-5.10877-.30329-7.06986-1.03017-1.46591-4.19828-7.97033-4.85478-8.21323-1.07527-.39785-2.09908 3.62329-3.05788 5.59485-1.11659 2.29604-3.51014 6.57347-6.01358 9.21848-2.9465 3.11313-8.3996 7.17092-10.75682 8.56825-2.51956 1.49356-3.8652 1.93186-3.86275 3.71263.004 2.64693 1.52416 6.67401 3.42756 9.7331 2.40626 3.86728 2.08705 4.05266 4.98114 2.49315z"/><path d="m113.9928 191.93914c3.08961-.20144 4.34273-11.23613 3.08529-14.34735-.1473-.36397-2.05596-.52838-3.88635-.6305-3.24347-.18095-17.3889-2.50046-23.402723-3.49405-5.413494-.89441-11.187813-2.47641-18.296302-4.67963-3.053394-.94638-5.059344-2.58782-4.667634-4.14237.28424-1.12806 2.877154-.0568 7.093178 1.23886 3.972785 1.22092 8.329289 1.95936 15.030778 3.08696 5.317769.89478 13.215143 1.48013 18.796323 2.08005 8.09868.87052 15.6831 1.80064 20.78-2.85248.9953-.90865.7354-1.23166-1.47532-3.37246-2.80872-2.7199-3.36063-4.25669-3.4074-9.48784-.054-6.03686.0717-5.9465-8.07034-5.80212-3.46815.0615-10.59958.33893-14.74658.90335-4.75624.64732-10.634778 1.14263-16.820672 1.13398-6.927729-.01-20.209132-1.09005-30.41433-3.37606-6.538576-1.46467-13.82115-7.98567-13.796013 1.44133 0 0 .277389 8.37921 5.049399 15.71508 2.910355 4.47405 6.56251 8.00832 10.467954 11.41696 4.915289 4.29003 11.802593 7.16186 19.157646 9.70107 6.603404 2.27972 9.855784 3.02327 19.105932 3.91688 7.857474.75907 15.362384 1.45813 20.417164 1.55034z"/><path d="m406.28503 185.18619c4.97513-.65214 11.37513-2.04992 15.55197-2.85041 2.28129-.43722 9.7625-2.5279 13.50188-4.23527 5.00704-2.28617 10.78854-5.60821 13.74123-8.12548 2.51864-2.14723 3.60364-4.5805 5.36977-7.73574 6.0609-10.82797 6.0179-15.48913 6.01764-19.65248-.00022-3.58615-11.59136 3.78363-19.99442 6.36683-6.76831 2.08065-12.5882 2.63768-24.13844 3.67192-7.92997.71008-9.61982.65217-18.61433 1.46196-3.36064.30257-8.7047.43588-12.19379.30418-9.46702-.35733-11.71107-.47593-12.49553.97066-1.46403 2.69974-1.88659 4.78433-3.70658 7.22978-.9146 1.2289-1.66187 2.4465-1.6606 2.70576.004.86102 2.43588 2.67723 4.23974 3.16666 2.52777.68583 7.40155.74061 13.60473.49706 5.21821-.20488 14.47822-.6949 22.26398-1.59584 3.27502-.37898 8.87033-1.48037 11.4816-2.12157 3.06448-.75249 7.74122-1.93585 12.46465-3.35856 4.7777-1.43906 8.45585-1.02586 8.47937-.38251.0425 1.16086-4.50957 2.54519-7.28311 3.42632-3.92033 1.24546-8.68213 3.48285-12.65981 4.52716-3.09239.81188-8.16834 1.86887-14.48567 3.03153-6.06004 1.1153-13.49996 2.22914-22.72025 2.62325-3.19233.13645-3.79984.15407-4.17271.86602-.23984.45792.30375 2.60693.40695 5.73204.073 2.21188.0998 2.57686 1.52428 2.93901 4.09354 1.04067 9.19967 1.16135 12.65826 1.21286 4.85811.0723 9.0727-.37144 12.81919-.67514z"/><path d="m258.65396 175.96549c3.70992-2.58633 3.7841-2.65152 6.45866-5.67643 1.25019-1.41396 7.1322-11.98701 7.1286-12.38976-.004-.40275 2.525-7.17168 3.59682-7.02922.79002.10501 2.43741 5.33393 3.5168 7.36052 2.00457 3.76363 5.04429 5.99032 5.77151 5.33325.55292-.49958 1.30622-3.12987.8401-9.46984-.55885-7.60122-1.66455-12.48428-2.56983-14.01423-.75795-1.28095-2.77785-3.33122-1.62506-3.9615.87791-.47999 5.22312 4.12177 6.20612 4.16692 1.34819.0619 4.1869-6.55826 1.86569-19.02046-.5389-2.89326 1.59674-6.60177 5.20326-4.84758.99521.48405-1.67179-5.34963-6.05327-11.23946-3.30828-4.44718-8.62621-8.934566-13.05928-13.457646-2.56893-2.62108-7.22109-5.59961-12.51557-8.43707-4.5654-2.44672-6.47351-4.02687-12.07316-6.5269-2.44044-1.08956-5.46873-2.47508-8.92725-1.45127-3.82889 1.13346-2.3304 4.62015-2.34056 6.92008-.0117 2.63707.89096 2.528 5.65623 7.12422 3.14462 3.03306 3.4731 3.68654 5.10354 6.42101.87409 1.46598 2.31417 2.61335 3.35228 3.87718 1.66333 2.024996 2.92859 2.687286 3.95089-.99323.58794-2.11671.98002-3.11318 1.83391-4.52468.8539-1.41151 1.68464-1.8849 1.39297-3.37878-.28427-1.45599-1.04282-.82109-2.38186-1.52779-3.48793-1.84083-2.68276-3.56188 2.34468-3.68467 2.40172-.0587 6.40555 3.66104 8.75174 6.30463 2.85278 3.2144 5.384 7.28667 6.39604 11.264176.90186 3.54446 1.35951 5.99325-.27281 5.99369-2.00046.0005-2.7834-4.41417-3.95393-4.39808-.72289.01-1.85285.67966-3.039 1.80121-2.17807 2.05947-3.0185 2.17771-7.72313 1.08661-3.00977-.69803-3.13869-.69395-3.72135.11804-.66846.93153.83824 3.60661.25595 8.20037-.50603 3.99224-1.24483 8.31602-2.34634 11.42824-.90143 2.5469-1.52356 4.79017-4.41874 6.79695-3.39941 2.3563-6.02006 3.84938-10.14224 7.34259-2.53646 2.14945-17.03788 14.24317-20.05664 16.58963-5.52242 4.29253-10.01377 9.23496-9.50391 9.74482.86148.86146 9.69952-3.2312 13.6468-5.46567 4.94924-2.80165 9.89212-5.49234 16.6206-9.47723 2.27478-1.34721 11.18833-7.19619 11.50193-7.19899.76943-.007-.0813 1.68043-1.59164 3.15671-1.5133 1.4792-2.4358 3.8827-3.40165 8.86269-1.46127 7.53436-1.47832 10.63931-.26994 14.19443.37667 1.10816 2.13128 6.32586 3.12164 6.80356 1.43255.691 4.27042-.4902 7.4704-2.72104z"/><path d="m130.16525 138.35135c2.57584-1.66657 5.26387-1.88284 5.23724-4.74365-.0248-2.66945-6.47074-3.21581-11.82814-5.18878-2.21208-.81465-13.69948-5.65637-16.86631-6.96752-8.16193-3.37927-15.411689-6.70565-19.595903-9.11368-4.260579-2.45198-8.665708-6.01683-12.243248-8.53689-2.893944-2.03854-3.425879-3.25207-2.946654-4.425496.647695-1.58597 3.373434-.0402 7.412724 2.958026 1.325544.9839 2.807554 2.39153 9.762303 6.68141 4.691299 2.89372 12.503218 6.2305 18.244448 8.65831 2.52697 1.06859 13.33546 5.28845 17.44559 6.75429 3.98024 1.41952 13.53132 1.88467 14.4855.7725 1.39942-1.63113.60891-8.42016-1.01588-9.34726-8.28396-4.7268-13.33298-6.15447-17.69594-7.55456-5.31973-1.70713-8.61202-3.52715-14.54347-6.14228-6.95269-3.065386-17.868773-8.508536-22.196507-10.683746-4.326685-2.17467-10.720438-5.2838-19.387377-10.59331-4.694039-2.87564-10.939133-8.25131-13.504738-9.86874-4.123706-2.59971-2.51881 5.51999-1.822314 12.67977.853824 8.77756 2.164736 10.73626 3.845009 14.80639 1.80604 4.374786 5.399489 11.205836 12.342173 17.825916 4.003044 3.81703 12.034288 8.13617 22.573381 11.90939 5.104884 1.82765 16.082413 5.38247 22.070183 7.16787 5.50755 1.6422 10.24227 3.69658 17.30311 6.10569 2.1085.7194.89545-.99416 2.92482-3.15365z"/><path d="m376.00388 139.30465c7.92831.21741 17.79014-3.40115 25.47613-5.77482 6.9262-2.13902 14.4207-5.05881 21.7035-8.56298 8.06563-3.88084 14.25991-10.80507 16.65514-14.03343 4.11907-5.55178 6.16444-11.055006 7.88036-16.066126 3.28311-9.58787 5.84369-24.69768 2.09491-25.45105-1.73204-.34807-12.4808 7.21909-18.81342 10.98689-5.03582 2.99622-11.75847 6.14282-21.67116 10.12986-7.2797 2.92802-17.29685 7.48951-22.91578 9.958216-2.47735 1.08844-9.93398 3.88807-16.35432 6.62975-3.33806 1.42545-6.38639 6.40352-7.31982 9.16394-.87583 2.59005-1.96312 9.2985-.92329 9.20363 6.40297-.58419 16.25991-4.56196 22.0966-6.30107 7.87736-2.34715 19.31158-7.71443 31.28219-13.34271 2.60453-1.22458 5.35532-3.27388 9.01921-5.902696.90756-.65117 3.13206-1.08141 3.64513-.14302.42807.782996-5.25111 5.700526-5.65616 6.077806-1.10128 1.0258-7.39562 5.04363-10.66069 6.80498-9.30378 5.01893-10.49345 5.48995-16.10997 8.0706-6.48633 2.98684-14.91085 6.33462-25.13487 9.4062-3.30253.99217-7.43183 1.76126-8.42773 2.84118-.4809.52147 7.38736 6.35337 14.13404 6.30485z"/><path d="m254.17595 122.6829c.95009-4.21375.12654-9.9745-1.29288-14.24484-1.13211-3.40595-1.59235-4.94506-2.67518-8.32969-1.00517-3.141896-5.16129-6.816296-6.44085-7.870396-2.27749-1.87622-1.64803-1.39194-4.64008-3.16955-2.76508-1.64275-2.39824-2.97669-2.58388-4.62066-.25797-2.28445 1.4177-2.26971.0126-5.63174-1.16482-2.7871-5.1135-2.95386-9.36653-3.03502-8.38979-.16011-11.97308 3.49313-13.25365 7.62884-1.58716 5.12586.28752 6.27191 1.35962 9.70355.4005 1.28191.40891 2.09757.34729 4.37018-.0234.86405.48963 1.70289 1.89292 2.13451.69648.21422 1.60642-.061 3.04354-.92057 4.7152-2.82024 15.45365-.71852 18.94932 3.535796 2.26434 2.75578 5.26628 6.82592 6.61187 9.95287 1.31942 3.06614 1.54603 3.25083.97593 4.88805-.64204 1.84379-2.12679 3.2119-5.12079 4.50878l-9.91954 4.29677s4.78601.42014 6.7015.41586c2.8478-.006 4.55649.75639 6.07557 1.39946.82641.34984 2.98891 1.98482 4.81363 1.99442 2.1231.0112 3.6968-3.40182 4.5096-7.00662z"/><path d="m225.8241 87.486524c-2.4278-.10419-3.07963-.29223-3.46665-1.00008-.62671-1.14627-.38786-1.46001 1.97777-2.59792 1.97808-.9515 5.68379-1.30903 6.74045-.65034.86147.53701 1.40901 2.43795 1.01482 3.52318-.28652.78882-.67252.98549-1.82001.92731-.801-.0406-2.80187-.13158-4.44638-.20215z"/><path d="m213.9731 122.32661c1.49563-.84877 6.65826-2.4709 7.14337-2.77881 2.33486-1.48199 6.93868-2.15347 13.09464-1.90991 5.6212.2224 6.06908.18026 6.79777-.63955 1.16152-1.30675.52957-2.42286-2.11184-3.72977-3.83283-1.89638-10.14171-1.31639-15.41928 1.41752-5.95805 3.08643-9.51659 3.92879-14.61722 3.46011-5.82145-.53491-6.72126.55548-3.13459 3.7985 2.75047 2.48694 4.40302 2.56346 8.24715.38191z"/><path d="m268.72029 102.53432c.48248-2.12102-1.8313-2.29358-2.62912-3.901426-.93509-1.88445.30066-5.16682-1.40256-5.31595-1.21046-.10598-1.30674.35972-2.47192 1.58802-1.49925 1.58046-2.16232 4.69818-1.27113 8.031846.64641 2.41801 7.26444 1.84081 7.77473-.40249z"/></g><path d="m234.65386 86.660964c1.17241.0435-1.05878-1.29882-.005-2.93888 1.1001-1.71216.91214-2.48785-.79108-2.63698-1.21047-.10598-4.94461.011-9.57608.98157-4.68071.98088-6.56018 3.43104-5.51629 4.91296 1.72569 2.44982 11.05853-.49771 15.88846-.31867z"/><path d="m269.43024 440.38477c.78933-26.43518 5.33745-68.39477 3.7877-66.70351l-10.55427 11.51791c2.53623 2.29265-9.47015 35.89968-16.99868 35.83883-4.78049-.0375-12.74575-33.56231-13.98843-37.13047-.82582-2.37122-12.11607-10.12204-11.57661-8.72616 2.29974 5.95073 2.55395 109.9119 3.88589 113.2764.81178 2.0505 44.86923 2.0805 45.59532.5063 1.15165-2.4969-1.05886-18.1721-.15092-48.5793z" fill="#fff"/></svg>