<svg xmlns="http://www.w3.org/2000/svg" viewBox="0 0 601 631">
<path d="m15 355.9c6.11 152.4 131.6 274.1 285.5 274.1s279.4-121.7 285.5-274.1l14.5-355.9h-600z"/>
<path fill="#0f47af" d="m17 19l12.41 336c4.9 145.2 124.7 261.4 271.1 261.4s266.2-116.2 271.1-261.4l12.4-336z"/>
<g fill="#fff" stroke="#000">
<path d="m230.6 378.8l69.85 163.9 69.85-163.9 176.2-14.5-134.6-116.7 40.65-172.6-152 92.7-152-92.7 40.65 172.6-134.4 116.7z" stroke-width="9"/>
<path d="m300.5 167.7l-.1 116.3m0 0l69.9 94.8m-181.2-131.2l111.3 36.4m111.3-36.4l-111.3 36.4m-69.9 94.8l69.9-94.8" stroke-width="3"/>
</g>
</svg>