<?xml version="1.0" encoding="UTF-8" standalone="no"?>
<!-- Created with Inkscape (http://www.inkscape.org/) -->
<svg
   xmlns:svg="http://www.w3.org/2000/svg"
   xmlns="http://www.w3.org/2000/svg"
   version="1.0"
   width="600.0354"
   height="658.92505"
   id="svg3542">
  <defs
     id="defs3544">
    <clipPath
       id="clipPath983">
      <path
         d="M 32.87,813.445 L 557.28,813.445 L 557.28,639.75 L 32.87,639.75 L 32.87,813.445 z"
         id="path985" />
    </clipPath>
  </defs>
  <g
     transform="translate(43.972068,-28.613663)"
     id="layer1">
    <g
       transform="matrix(13.978042,0,0,-13.978042,-7061.7459,9711.7485)"
       id="g979"
       style="fill:#0067a9;fill-opacity:1">
      <g
         clip-path="url(#clipPath983)"
         id="g981"
         style="fill:#0067a9;fill-opacity:1">
        <path
           d="M 502.666,692.13 L 544.375,692.13 L 544.375,666.017 C 544.375,639.617 502.666,639.617 502.666,665.945 L 502.666,692.13 z"
           id="path987"
           style="fill:#0067a9;fill-opacity:1;stroke:#231f20;stroke-width:1.21800005;stroke-linecap:butt;stroke-linejoin:miter;stroke-miterlimit:2.61299992;stroke-dasharray:none;stroke-opacity:1" />
      </g>
    </g>
    <path
       d="M -1.0315579,318.56357 C -5.8679579,293.29127 17.838802,249.80558 17.838802,230.05461 C 19.851632,226.04291 34.850072,192.04831 32.837232,190.04945 C 32.837232,180.05516 12.848632,163.04388 28.839512,159.04616 C 38.847792,163.04388 55.845092,189.05701 69.851092,185.05929 C 71.835972,185.05929 73.848812,185.05929 76.840112,185.05929 C 81.844252,189.05701 101.84683,189.05701 109.84227,192.04831 C 115.85283,195.03962 126.85355,195.03962 131.84371,203.06301 C 139.85313,209.04561 164.85984,232.05347 169.85,246.05947 C 171.84886,246.05947 174.85414,253.06247 179.8443,251.04963 C 179.8443,242.06175 180.85072,230.05461 172.85528,228.05575 C 169.85,219.05389 152.83873,212.05089 163.85342,200.05773 C 168.84358,198.04489 173.84772,191.05587 178.85186,190.04945 C 179.8443,187.04418 214.84532,152.04316 220.85588,152.04316 C 222.85474,154.056 226.85246,155.04844 230.85018,155.04844 C 237.85317,145.05414 211.85402,113.04442 225.84604,99.052402 C 227.85888,89.044132 229.85774,86.052832 232.84904,80.056252 C 246.85503,66.050252 249.86031,53.050672 273.86061,49.052952 C 295.84807,37.045812 343.84866,59.047252 351.85808,84.053972 C 360.85994,98.045982 359.85352,132.05456 349.84524,146.04658 C 346.85394,152.04316 340.85736,157.06128 337.86606,164.0503 C 341.8498,164.0503 346.85394,159.04616 348.8528,156.04088 C 355.8558,153.04958 419.86125,108.05426 392.85568,146.04658 C 381.85496,154.056 371.84668,162.05144 360.85994,170.04688 C 355.8558,173.05216 340.85736,183.04646 340.85736,188.05059 C 357.85466,200.05773 351.85808,203.06301 370.85424,193.05473 C 379.8561,191.05587 408.86053,172.04574 414.84314,178.0563 C 433.85327,186.05173 431.85441,210.05203 445.84643,226.04291 C 448.85171,233.04591 453.86983,239.05647 456.86113,249.06475 C 448.85171,256.05377 442.85513,257.06019 435.85213,262.05035 C 435.85213,272.05862 389.8504,269.05335 388.85796,269.05335 C 385.85268,269.05335 366.85652,291.05478 367.84896,295.06648 C 377.85724,295.06648 385.85268,294.04608 397.85982,295.06648 C 401.85754,291.05478 435.85213,307.05964 441.86269,312.06378 C 446.85285,313.05622 453.86983,314.06264 460.85885,314.06264 C 460.85885,314.06264 462.85771,313.05622 464.87055,314.06264 C 468.39301,314.06264 472.08322,315.79592 475.57773,318.56357 L 28.504042,318.56357 C 27.986852,317.30555 27.204082,316.39697 25.834242,316.0615 C 25.512742,316.8862 25.247162,317.72489 24.995552,318.56357 L -1.0315579,318.56357"
       id="path961"
       style="fill:#231f20;fill-opacity:1;fill-rule:evenodd;stroke:none" />
    <path
       d="M 24.995552,318.56357 C 22.353702,327.6493 24.506322,335.89634 9.8433621,334.06522 C 3.5532421,330.69651 0.24044215,319.16408 -1.0315579,312.45462 L 24.995552,310.78854"
       id="path963"
       style="fill:#231f20;fill-opacity:1;fill-rule:evenodd;stroke:none" />
    <path
       d="M 475.57773,318.56357 C 483.96455,325.21712 491.14927,337.88122 491.84817,347.05082 C 499.85759,354.05382 500.864,440.06071 499.85759,442.05957 C 499.87156,442.05957 497.85873,458.06442 495.85987,459.05687 C 494.85345,468.0727 497.85873,501.06088 481.85387,482.06472 C 474.85087,478.05302 475.85729,468.0727 472.86599,464.07498 C 471.85957,431.05885 470.85315,400.05555 467.84787,368.04584 C 462.85771,364.04812 465.86299,348.05724 454.86227,348.05724 C 454.86227,349.06366 450.86455,391.05369 448.85171,400.05555 C 441.86269,407.05855 451.85699,446.05729 460.85885,453.06029 C 466.85543,465.06742 456.86113,483.05716 459.85243,498.0556 C 459.85243,504.06616 460.85885,509.05632 460.85885,515.06688 C 455.85471,519.0646 467.84787,543.0649 447.85927,541.06604 C 437.85099,550.06789 443.86155,560.07617 435.85213,571.06291 C 429.85555,575.06063 394.85454,582.06363 391.86324,576.06705 C 392.85568,557.07089 414.84314,551.06034 420.85369,536.0619 C 434.85969,522.06988 428.86311,482.06472 422.86653,466.05986 C 414.84314,461.0697 391.86324,434.06413 385.85268,434.06413 C 385.85268,454.0667 415.86353,484.06358 384.86024,499.06202 C 370.85424,513.05404 365.86408,528.06646 356.84824,546.07017 C 354.86336,548.05506 351.85808,548.05506 349.84524,548.05506 C 346.85394,553.07317 348.8528,556.06447 350.85166,563.0535 C 345.8615,570.05649 321.84723,589.06663 313.85179,588.07419 C 309.85407,579.05835 310.84651,571.06291 314.85821,565.06633 C 316.85707,544.05734 323.86006,534.06304 337.86606,520.05704 C 348.8528,499.06202 371.84668,479.07342 347.84638,459.05687 C 343.84866,452.05387 325.84495,433.07169 317.84951,433.07169 C 306.86277,438.06185 273.86061,443.06599 263.85233,438.06185 C 250.85275,438.06185 229.85774,441.06713 220.85588,434.06413 C 205.84346,434.06413 222.85474,460.04931 209.84118,471.064 C 195.86314,471.064 195.86314,479.07342 196.85558,490.06016 C 193.8503,502.0673 194.84274,511.06916 197.84802,525.06118 C 200.8533,531.05776 201.84574,539.06718 199.86086,546.07017 C 186.8473,556.06447 186.8473,556.06447 186.8473,574.06819 C 183.84202,582.06363 149.84742,585.06891 145.8497,581.07119 C 144.84329,577.05949 161.85456,551.06034 164.85984,548.05506 C 166.84472,539.06718 175.84658,517.05176 165.85228,511.06916 C 152.83873,494.05788 176.853,482.06472 148.84101,482.06472 C 124.84071,471.064 160.84814,462.06214 152.83873,453.06029 C 149.84742,446.05729 149.84742,441.06713 144.84329,439.05429 C 133.85655,439.05429 121.84941,439.05429 110.86267,439.05429 C 109.84227,440.06071 102.85325,439.05429 92.844972,438.06185 C 73.848812,443.06599 56.851512,465.06742 68.844672,485.05602 C 69.851092,490.06016 66.845812,497.06316 69.851092,502.0673 C 95.850252,522.06988 73.848812,529.0589 69.851092,551.06034 C 57.843952,563.0535 52.839812,528.06646 45.836812,524.05476 C 38.847792,516.05932 37.841372,510.06274 37.841372,502.0673 C 40.846652,485.05602 29.845932,448.07013 41.853072,437.05543 C 54.852652,415.06797 75.847672,408.06497 95.850252,397.06425 C 106.83699,384.06467 108.84983,388.06239 101.84683,375.04884 C 87.854812,360.0504 95.850252,344.05952 89.853672,332.05238 C 80.851812,330.0675 71.835972,330.0675 63.840532,328.05466 C 42.845512,308.05208 54.852652,344.05952 30.852352,328.05466 C 29.524442,324.75584 29.510462,315.45614 28.504042,313.00998 L 471.13486,315.78677"
       id="path965"
       style="fill:#231f20;fill-opacity:1;fill-rule:evenodd;stroke:none" />
    <path
       d="M 313.85179,588.07419 C 309.85407,579.05835 310.84651,571.06291 314.85821,565.06633 C 316.85707,544.05734 323.86006,534.06304 337.86606,520.05704 C 348.8528,499.06202 371.84668,479.07342 347.84638,459.05687 C 343.84866,452.05387 325.84495,433.07169 317.84951,433.07169 C 306.86277,438.06185 273.86061,443.06599 263.85233,438.06185 C 250.85275,438.06185 229.85774,441.06713 220.85588,434.06413 C 205.84346,434.06413 222.85474,460.04931 209.84118,471.064 C 195.86314,471.064 195.86314,479.07342 196.85558,490.06016 C 193.8503,502.0673 194.84274,511.06916 197.84802,525.06118 C 200.8533,531.05776 201.84574,539.06718 199.86086,546.07017 C 186.8473,556.06447 186.8473,556.06447 186.8473,574.06819 C 183.84202,582.06363 149.84742,585.06891 145.8497,581.07119 C 144.84329,577.05949 161.85456,551.06034 164.85984,548.05506 C 166.84472,539.06718 175.84658,517.05176 165.85228,511.06916 C 152.83873,494.05788 176.853,482.06472 148.84101,482.06472 C 124.84071,471.064 160.84814,462.06214 152.83873,453.06029 C 149.84742,446.05729 149.84742,441.06713 144.84329,439.05429 C 133.85655,439.05429 121.84941,439.05429 110.86267,439.05429 C 109.84227,440.06071 102.85325,439.05429 92.844972,438.06185 C 73.848812,443.06599 56.851512,465.06742 68.844672,485.05602 C 69.851092,490.06016 66.845812,497.06316 69.851092,502.0673 C 95.850252,522.06988 73.848812,529.0589 69.851092,551.06034 C 57.843952,563.0535 52.839812,528.06646 45.836812,524.05476 C 38.847792,516.05932 37.841372,510.06274 37.841372,502.0673 C 40.846652,485.05602 29.845932,448.07013 41.853072,437.05543 C 54.852652,415.06797 75.847672,408.06497 95.850252,397.06425 C 106.83699,384.06467 108.84983,388.06239 101.84683,375.04884 C 87.854812,360.0504 95.850252,344.05952 89.853672,332.05238 C 80.851812,330.0675 71.835972,330.0675 63.840532,328.05466 C 42.845512,308.05208 54.852652,344.05952 30.852352,328.05466 C 28.839512,323.0645 29.845932,317.05394 25.834242,316.0615 C 21.836522,326.0558 25.834242,336.0501 9.8433621,334.06522 C -20.167498,318.06036 17.838802,255.04735 17.838802,230.05461 C 19.851632,226.04291 34.850072,192.04831 32.837232,190.04945 C 32.837232,180.05516 12.848632,163.04388 28.839512,159.04616 C 38.847792,163.04388 55.845092,189.05701 69.851092,185.05929 L 76.840112,185.05929 C 81.844252,189.05701 101.84683,189.05701 109.84227,192.04831 C 115.85283,195.03962 126.85355,195.03962 131.84371,203.06301 C 139.85313,209.04561 164.85984,232.05347 169.85,246.05947 C 169.85,246.05947 174.85414,253.06247 179.8443,251.04963 C 179.8443,242.06175 180.85072,230.05461 172.85528,228.05575 C 169.85,219.05389 152.83873,212.05089 163.85342,200.05773 C 168.84358,198.04489 173.84772,191.05587 178.85186,190.04945 C 179.8443,187.04418 214.84532,152.04316 220.85588,152.04316 C 222.85474,154.056 226.85246,155.04844 230.85018,155.04844 C 237.85317,145.05414 211.85402,113.04442 225.84604,99.052402 C 227.85888,89.044132 229.85774,86.052832 232.84904,80.056252 C 246.85503,66.050252 249.86031,53.050672 273.86061,49.052952 C 295.84807,37.045812 343.84866,59.047252 351.85808,84.053972 C 360.85994,98.045982 359.85352,132.05456 349.84524,146.04658 C 346.85394,152.04316 340.85736,157.06128 337.86606,164.0503 C 341.8498,164.0503 346.85394,159.04616 348.8528,156.04088 C 355.8558,153.04958 419.86125,108.05426 392.85568,146.04658 C 381.85496,154.056 371.84668,162.05144 360.85994,170.04688 C 355.8558,173.05216 340.85736,183.04646 340.85736,188.05059 C 357.85466,200.05773 351.85808,203.06301 370.85424,193.05473 C 379.8561,191.05587 408.86053,172.04574 414.84314,178.0563 C 433.85327,186.05173 431.85441,210.05203 445.84643,226.04291 C 448.85171,233.04591 453.86983,239.05647 456.86113,249.06475 C 448.85171,256.05377 442.85513,257.06019 435.85213,262.05035 C 435.85213,272.05862 388.85796,269.05335 388.85796,269.05335 C 385.85268,269.05335 366.85652,291.05478 367.84896,295.06648 C 377.85724,295.06648 385.85268,294.04608 397.85982,295.06648 C 401.85754,291.05478 435.85213,307.05964 441.86269,312.06378 C 446.85285,313.05622 453.86983,314.06264 460.85885,314.06264 C 460.85885,314.06264 462.85771,313.05622 464.87055,314.06264 C 476.84973,314.06264 490.85573,334.06522 491.84817,347.05082 C 499.85759,354.05382 500.864,440.06071 499.85759,442.05957 C 499.87156,442.05957 497.85873,458.06442 495.85987,459.05687 C 494.85345,468.0727 497.85873,501.06088 481.85387,482.06472 C 474.85087,478.05302 475.85729,468.0727 472.86599,464.07498 C 471.85957,431.05885 470.85315,400.05555 467.84787,368.04584 C 462.85771,364.04812 465.86299,348.05724 454.86227,348.05724 C 454.86227,348.05724 450.86455,391.05369 448.85171,400.05555 C 441.86269,407.05855 451.85699,446.05729 460.85885,453.06029 C 466.85543,465.06742 456.86113,483.05716 459.85243,498.0556 C 459.85243,504.06616 460.85885,509.05632 460.85885,515.06688 C 455.85471,519.0646 467.84787,543.0649 447.85927,541.06604 C 437.85099,550.06789 443.86155,560.07617 435.85213,571.06291 C 429.85555,575.06063 394.85454,582.06363 391.86324,576.06705 C 392.85568,557.07089 414.84314,551.06034 420.85369,536.0619 C 434.85969,522.06988 428.86311,482.06472 422.86653,466.05986 C 414.84314,461.0697 391.86324,434.06413 385.85268,434.06413 C 385.85268,454.0667 415.86353,484.06358 384.86024,499.06202 C 370.85424,513.05404 365.86408,528.06646 356.84824,546.07017 C 354.86336,548.05506 351.85808,548.05506 349.84524,548.05506 C 346.85394,553.07317 348.8528,556.06447 350.85166,563.0535 C 345.8615,570.05649 321.84723,589.06663 313.85179,588.07419 z"
       id="path967"
       style="fill:none;stroke:#231f20;stroke-width:4.1654563;stroke-linecap:butt;stroke-linejoin:miter;stroke-miterlimit:2.61299992;stroke-dasharray:none;stroke-opacity:1" />
    <path
       d="M 6.8380821,546.07017 C 6.8380821,545.06376 6.8380821,545.06376 6.8380821,545.06376 C 6.8380821,545.06376 6.8380821,545.06376 6.8380821,546.07017"
       id="path969"
       style="fill:#231f20;fill-opacity:1;fill-rule:evenodd;stroke:none" />
    <path
       d="M 32.837232,260.06547 C 21.836522,246.05947 44.844372,240.04891 43.837952,249.06475 C 41.853072,254.05491 36.834952,259.05905 32.837232,260.06547"
       id="path971"
       style="fill:#231f20;fill-opacity:1;fill-rule:evenodd;stroke:none" />
    <path
       d="M 73.848812,233.04591 C 66.845812,230.05461 71.835972,220.04633 76.840112,220.04633 C 77.846532,224.05803 80.851812,233.04591 73.848812,233.04591"
       id="path973"
       style="fill:#ffffff;fill-opacity:1;fill-rule:evenodd;stroke:none" />
    <path
       d="M 283.85491,229.06217 L 282.84849,229.06217 C 283.85491,229.06217 283.85491,229.06217 283.85491,229.06217"
       id="path975"
       style="fill:#ffffff;fill-opacity:1;fill-rule:evenodd;stroke:none" />
    <path
       d="M 277.85833,189.05701 C 274.85305,187.04418 273.86061,183.04646 276.85191,182.05401 C 278.85077,183.04646 283.85491,186.05173 277.85833,189.05701"
       id="path977"
       style="fill:#ffffff;fill-opacity:1;fill-rule:evenodd;stroke:none" />
    <path
       d="M 328.85022,556.06447 C 320.85479,548.05506 361.85238,509.05632 363.85124,500.06844 C 367.84896,492.05902 374.85196,485.05602 369.8618,476.06814 C 368.86936,473.06286 367.84896,466.05986 366.85652,466.05986 C 366.85652,454.0667 337.86606,438.06185 337.86606,428.05357 C 344.85508,425.06227 363.85124,413.05513 370.85424,419.06569 C 370.85424,435.05657 371.84668,445.05087 379.8561,460.04931 C 380.86252,476.06814 393.84812,469.06514 377.85724,486.06244 C 376.8648,489.06772 376.8648,492.05902 374.85196,496.07072 C 363.85124,505.0586 356.84824,516.05932 349.84524,528.06646 C 349.84524,532.06418 348.8528,535.06946 346.85394,537.06832 C 331.8555,537.06832 338.8585,556.06447 328.85022,556.06447"
       id="path989"
       style="fill:#ffffff;fill-opacity:1;fill-rule:evenodd;stroke:none" />
    <path
       d="M 426.86425,556.06447 C 422.86653,555.05806 421.84614,553.07317 421.84614,551.06034 C 423.85897,550.06789 423.85897,548.05506 423.85897,548.05506 C 439.86383,531.05776 445.84643,460.04931 421.84614,449.06257 L 421.84614,448.07013 C 416.85597,447.06371 412.85825,442.05957 411.86581,440.06071 C 398.85226,426.06869 362.8588,402.05441 359.85352,386.04955 C 353.85694,373.06395 350.85166,360.0504 346.85394,350.0561 C 324.8525,339.05538 348.8528,391.05369 350.85166,396.05783 C 352.85052,399.06311 355.8558,401.06197 356.84824,406.05213 C 337.86606,412.06269 257.85575,436.06299 250.85275,417.05285 C 248.85389,397.06425 262.84591,411.07025 273.86061,406.05213 C 309.85407,405.05969 311.85293,385.05711 311.85293,355.06024 C 313.85179,343.0531 313.85179,329.0471 313.85179,319.0528 C 316.85707,317.05394 320.85479,317.05394 325.84495,317.05394 C 326.86534,316.0615 356.84824,308.05208 361.85238,308.05208 C 369.8618,300.05664 417.84842,315.05508 428.86311,322.05808 C 431.85441,328.05466 445.84643,337.05652 453.86983,330.0675 C 485.86557,328.05466 490.85573,391.05369 490.85573,416.06041 C 491.84817,417.05285 490.85573,461.0697 484.85915,462.06214 C 483.85273,460.04931 483.85273,459.05687 482.86029,457.05801 C 480.86143,457.05801 478.86257,380.06695 477.85615,369.06623 C 472.86599,359.05796 468.85429,347.05082 461.86527,341.06822 C 428.86311,334.06522 449.85813,357.0591 440.85627,379.06053 C 440.85627,402.05441 414.84314,430.06641 440.85627,448.07013 C 455.85471,465.06742 445.84643,468.0727 448.85171,488.0613 C 444.85399,499.06202 454.86227,526.0676 445.84643,534.06304 C 432.86083,538.06076 431.85441,556.06447 426.86425,556.06447"
       id="path991"
       style="fill:#ffffff;fill-opacity:1;fill-rule:evenodd;stroke:none" />
    <path
       d="M 426.86425,556.06447 C 422.86653,555.05806 421.84614,551.06034 421.84614,551.06034 C 423.85897,550.06789 423.85897,548.05506 423.85897,548.05506 C 439.86383,531.05776 445.84643,460.04931 421.84614,449.06257 L 421.84614,448.07013 C 416.85597,447.06371 412.85825,442.05957 411.86581,440.06071 C 398.85226,426.06869 362.8588,402.05441 359.85352,386.04955 C 353.85694,373.06395 350.85166,360.0504 346.85394,350.0561 C 324.8525,339.05538 348.8528,391.05369 350.85166,396.05783 C 352.85052,399.06311 355.8558,401.06197 356.84824,406.05213 C 337.86606,412.06269 257.85575,436.06299 250.85275,417.05285 C 248.85389,397.06425 262.84591,411.07025 273.86061,406.05213 C 309.85407,405.05969 311.85293,385.05711 311.85293,355.06024 C 313.85179,343.0531 313.85179,329.0471 313.85179,319.0528 C 316.85707,317.05394 320.85479,317.05394 325.84495,317.05394 C 326.86534,316.0615 356.84824,308.05208 361.85238,308.05208 C 369.8618,300.05664 417.84842,315.05508 428.86311,322.05808 C 431.85441,328.05466 445.84643,337.05652 453.86983,330.0675 C 485.86557,328.05466 490.85573,391.05369 490.85573,416.06041 C 491.84817,417.05285 490.85573,461.0697 484.85915,462.06214 C 483.85273,460.04931 483.85273,459.05687 482.86029,457.05801 C 482.86029,457.05801 478.86257,380.06695 477.85615,369.06623 C 472.86599,359.05796 468.85429,347.05082 461.86527,341.06822 C 428.86311,334.06522 449.85813,357.0591 440.85627,379.06053 C 440.85627,402.05441 414.84314,430.06641 440.85627,448.07013 C 455.85471,465.06742 445.84643,468.0727 448.85171,488.0613 C 444.85399,499.06202 454.86227,526.0676 445.84643,534.06304 C 432.86083,538.06076 431.85441,556.06447 426.86425,556.06447 z"
       id="path993"
       style="fill:#ffffff;fill-opacity:1;fill-rule:evenodd;stroke:#231f20;stroke-width:4.1654563;stroke-linecap:butt;stroke-linejoin:miter;stroke-miterlimit:2.61299992;stroke-dasharray:none;stroke-opacity:1" />
    <path
       d="M 175.84658,555.05806 C 174.85414,554.06561 180.85072,526.0676 180.85072,525.06118 C 178.85186,515.06688 167.85114,486.06244 172.85528,480.06586 C 192.85786,471.064 177.84544,494.05788 184.84844,501.06088 C 184.84844,511.06916 192.85786,539.06718 183.84202,545.06376 C 181.85714,548.05506 179.8443,551.06034 177.84544,555.05806 C 177.84544,555.05806 176.853,555.05806 175.84658,555.05806"
       id="path995"
       style="fill:#ffffff;fill-opacity:1;fill-rule:evenodd;stroke:none" />
    <path
       d="M 58.850372,519.0646 C 46.843232,515.06688 44.844372,447.06371 50.854932,442.05957 C 61.855652,418.05927 92.844972,416.06041 111.85511,400.05555 C 123.84827,396.05783 137.84029,379.06053 118.85811,373.06395 C 104.85211,363.05568 101.84683,347.05082 99.847972,333.0588 C 101.84683,328.05466 114.84641,329.0471 120.84299,327.06222 C 122.84185,325.04938 126.85355,324.05694 128.85241,323.0645 C 147.84856,318.06036 166.84472,299.0642 187.83974,297.05136 C 206.84988,290.04836 201.84574,310.06492 201.84574,324.05694 C 193.8503,336.0501 185.85486,341.06822 179.8443,354.05382 C 175.84658,373.06395 184.84844,396.05783 178.85186,418.05927 C 163.85342,418.05927 175.84658,404.05327 160.84814,405.05969 C 156.83645,411.07025 151.84628,416.06041 146.85612,422.05699 C 125.84713,435.05657 89.853672,418.05927 71.835972,440.06071 C 66.845812,441.06713 51.847372,456.06556 55.845092,464.07498 C 55.845092,478.05302 58.850372,492.05902 57.843952,507.07144 C 58.850372,510.06274 61.855652,513.05404 61.855652,518.07216 C 61.855652,518.07216 60.835252,518.07216 58.850372,519.0646"
       id="path997"
       style="fill:#ffffff;fill-opacity:1;fill-rule:evenodd;stroke:none" />
    <path
       d="M 155.844,472.07042 C 155.844,472.07042 153.85912,472.07042 152.83873,472.07042 C 152.83873,468.0727 169.85,457.05801 172.85528,457.05801 C 172.85528,469.06514 166.84472,471.064 155.844,472.07042"
       id="path999"
       style="fill:#ffffff;fill-opacity:1;fill-rule:evenodd;stroke:none" />
    <path
       d="M 179.8443,465.06742 C 178.85186,450.05501 185.85486,444.05843 192.85786,431.05885 C 192.85786,420.05813 189.85258,355.06024 190.84502,355.06024 C 192.85786,342.06066 214.84532,328.05466 226.85246,318.06036 C 239.85203,318.06036 263.85233,328.05466 277.85833,320.05922 C 283.85491,320.05922 286.84621,319.0528 291.86433,320.05922 C 287.85263,334.06522 236.84676,348.05724 223.84718,356.06666 C 208.84874,362.06323 211.85402,365.05454 211.85402,379.06053 C 210.8476,380.06695 210.8476,380.06695 210.8476,380.06695 C 218.84304,405.05969 202.85216,433.07169 202.85216,460.04931 C 198.84046,463.05459 183.84202,466.05986 179.8443,465.06742"
       id="path1001"
       style="fill:#ffffff;fill-opacity:1;fill-rule:evenodd;stroke:none" />
    <path
       d="M 163.85342,452.05387 C 163.85342,452.05387 163.85342,451.06143 162.847,451.06143 C 160.84814,440.06071 146.85612,427.06113 165.85228,427.06113 C 165.85228,428.05357 172.85528,431.05885 175.84658,431.05885 C 175.84658,434.06413 176.853,437.05543 175.84658,441.06713 C 171.84886,445.05087 172.85528,451.06143 163.85342,452.05387"
       id="path1003"
       style="fill:#ffffff;fill-opacity:1;fill-rule:evenodd;stroke:none" />
    <path
       d="M 225.84604,423.06341 C 211.85402,419.06569 228.85132,394.05897 242.85731,408.06497 C 234.8479,423.06341 248.85389,423.06341 225.84604,423.06341"
       id="path1005"
       style="fill:#ffffff;fill-opacity:1;fill-rule:evenodd;stroke:none" />
    <path
       d="M 249.86031,394.05897 C 240.84448,391.05369 232.84904,393.05255 224.8536,390.06125 C 224.8536,371.05112 285.85377,398.05669 290.84393,376.06923 C 292.85677,374.05639 292.85677,340.04782 292.85677,335.05766 C 295.84807,333.0588 295.84807,332.05238 299.85977,331.05994 C 303.84351,336.0501 300.85221,374.05639 298.85335,383.05825 C 292.85677,396.05783 278.85077,393.05255 267.85005,393.05255 C 266.85761,394.05897 249.86031,394.05897 249.86031,394.05897"
       id="path1007"
       style="fill:#ffffff;fill-opacity:1;fill-rule:evenodd;stroke:none" />
    <path
       d="M 265.85119,374.05639 C 260.86103,369.06623 221.84832,380.06695 221.84832,368.04584 C 234.8479,359.05796 258.84819,357.0591 269.84891,346.05838 C 273.86061,345.06594 274.85305,343.0531 279.84321,344.05952 C 282.84849,349.06366 280.86361,361.05682 280.86361,370.05867 C 277.85833,371.05112 267.85005,374.05639 265.85119,374.05639"
       id="path1009"
       style="fill:#ffffff;fill-opacity:1;fill-rule:evenodd;stroke:none" />
    <path
       d="M 11.842222,320.05922 C 7.8445021,312.06378 8.8509121,296.05892 12.848632,290.04836 C 36.834952,288.06348 13.841082,320.05922 11.842222,320.05922"
       id="path1011"
       style="fill:#ffffff;fill-opacity:1;fill-rule:evenodd;stroke:none" />
    <path
       d="M 107.85739,319.0528 C 98.841552,319.0528 85.841972,291.05478 83.843112,285.0582 C 74.841252,274.05748 95.850252,251.04963 76.840112,252.04207 C 73.848812,263.05677 58.850372,298.0438 42.845512,289.05592 C 41.853072,283.04537 59.842812,243.05419 62.848092,242.06175 C 69.851092,242.06175 67.838252,242.06175 72.856372,248.04435 C 77.846532,247.05191 85.841972,228.05575 86.848392,224.05803 C 86.848392,223.05161 86.848392,223.05161 86.848392,223.05161 C 89.853672,231.06103 98.841552,237.05761 101.84683,249.06475 C 115.85283,256.05377 103.84569,227.04933 103.84569,226.04291 C 98.841552,220.04633 99.847972,201.05017 109.84227,206.05431 C 109.84227,226.04291 112.84755,241.04135 115.85283,261.05791 C 116.84527,261.05791 118.85811,261.05791 118.85811,261.05791 C 126.85355,249.06475 121.84941,234.05233 121.84941,223.05161 C 123.84827,221.05275 122.84185,222.05917 123.84827,221.05275 C 126.85355,228.05575 131.84371,238.06403 127.84599,247.05191 C 127.84599,258.05263 126.85355,266.04807 135.84143,276.05634 C 135.84143,275.04993 136.84785,275.04993 137.84029,274.05748 C 137.84029,269.05335 134.84899,246.05947 143.85084,246.05947 C 152.83873,257.06019 138.84671,277.06276 149.84742,290.04836 C 149.84742,290.04836 151.84628,290.04836 152.83873,289.05592 C 152.83873,272.05862 155.844,264.04921 157.85684,249.06475 C 158.84928,249.06475 158.84928,249.06475 160.84814,249.06475 C 162.847,249.06475 187.83974,280.05406 189.85258,282.05292 C 189.85258,283.04537 189.85258,284.06576 189.85258,286.05064 C 186.8473,287.04309 172.85528,289.05592 168.84358,290.04836 C 149.84742,300.05664 127.84599,314.06264 107.85739,319.0528"
       id="path1013"
       style="fill:#ffffff;fill-opacity:1;fill-rule:evenodd;stroke:none" />
    <path
       d="M 38.847792,319.0528 C 37.841372,318.06036 36.834952,318.06036 35.842512,318.06036 C 32.837232,313.05622 32.837232,307.05964 32.837232,304.05436 C 35.842512,301.04908 38.847792,296.05892 43.837952,298.0438 C 43.837952,298.0438 44.844372,298.0438 44.844372,299.0642 C 41.853072,303.06192 44.844372,319.0528 38.847792,319.0528"
       id="path1015"
       style="fill:#ffffff;fill-opacity:1;fill-rule:evenodd;stroke:none" />
    <path
       d="M 80.851812,318.06036 C 69.851092,316.0615 36.834952,306.05322 62.848092,296.05892 C 74.841252,285.0582 76.840112,300.05664 82.836692,311.05736 C 82.836692,314.06264 84.849532,318.06036 80.851812,318.06036"
       id="path1017"
       style="fill:#0067a9;fill-opacity:1;fill-rule:evenodd;stroke:none" />
    <path
       d="M 211.85402,314.06264 L 210.8476,314.06264 C 210.8476,309.0585 210.8476,308.05208 212.84646,304.05436 C 214.84532,303.06192 214.84532,303.06192 216.85816,303.06192 C 216.85816,308.05208 217.8506,314.06264 211.85402,314.06264"
       id="path1019"
       style="fill:#ffffff;fill-opacity:1;fill-rule:evenodd;stroke:none" />
    <path
       d="M 279.84321,311.05736 C 272.84021,309.0585 221.84832,313.05622 228.85132,300.05664 C 231.8566,269.05335 249.86031,274.05748 275.85947,277.06276 C 277.85833,275.04993 293.84921,277.06276 297.84693,278.0552 C 300.85221,286.05064 305.85635,297.05136 303.84351,307.05964 C 300.85221,311.05736 283.85491,311.05736 279.84321,311.05736"
       id="path1021"
       style="fill:#ffffff;fill-opacity:1;fill-rule:evenodd;stroke:none" />
    <path
       d="M 314.85821,306.05322 C 311.85293,304.05436 303.84351,270.05977 303.84351,266.04807 C 305.85635,263.05677 306.86277,261.05791 306.86277,259.05905 C 309.85407,257.06019 316.85707,233.04591 316.85707,233.04591 C 317.84951,232.05347 318.85593,232.05347 319.86235,232.05347 C 319.86235,233.04591 319.86235,236.05119 319.86235,238.06403 C 315.86463,241.04135 314.85821,250.05719 313.85179,256.05377 C 308.84765,275.04993 314.85821,285.0582 317.84951,304.05436 C 316.85707,305.0468 314.85821,305.0468 314.85821,306.05322"
       id="path1023"
       style="fill:#f9d100;fill-opacity:1;fill-rule:evenodd;stroke:none" />
    <path
       d="M 328.85022,303.06192 C 318.85593,300.05664 323.86006,266.04807 323.86006,259.05905 C 327.85778,247.05191 323.86006,242.06175 339.85094,247.05191 C 343.84866,252.04207 349.84524,249.06475 356.84824,249.06475 C 357.85466,251.04963 363.85124,252.04207 367.84896,252.04207 C 368.86936,254.05491 370.85424,251.04963 369.8618,256.05377 C 366.85652,260.06547 348.8528,268.06091 349.84524,274.05748 C 358.86108,276.05634 378.84968,255.04735 383.85382,260.06547 C 378.84968,268.06091 354.86336,288.06348 353.85694,294.04608 C 347.84638,300.05664 334.86078,302.0555 328.85022,303.06192"
       id="path1025"
       style="fill:#f9d100;fill-opacity:1;fill-rule:evenodd;stroke:none" />
    <path
       d="M 219.84946,289.05592 C 219.84946,277.06276 228.85132,266.04807 222.85474,254.05491 C 222.85474,254.05491 222.85474,253.06247 222.85474,252.04207 C 223.84718,252.04207 223.84718,252.04207 223.84718,252.04207 C 226.85246,257.06019 232.84904,276.05634 224.8536,280.05406 C 224.8536,280.05406 221.84832,289.05592 219.84946,289.05592"
       id="path1027"
       style="fill:#f9d100;fill-opacity:1;fill-rule:evenodd;stroke:none" />
    <path
       d="M 29.845932,286.05064 C 7.8445021,281.06048 18.845212,274.05748 20.844072,260.06547 C 32.837232,241.04135 18.845212,221.05275 52.839812,237.05761 C 51.847372,240.04891 51.847372,244.04663 50.854932,248.04435 C 44.844372,252.04207 38.847792,277.06276 35.842512,279.04765 C 35.842512,280.05406 32.837232,284.06576 32.837232,286.05064 C 30.852352,286.05064 29.845932,286.05064 29.845932,286.05064"
       id="path1029"
       style="fill:#ffffff;fill-opacity:1;fill-rule:evenodd;stroke:none" />
    <path
       d="M 203.85858,281.06048 C 190.84502,274.05748 180.85072,246.05947 190.84502,237.05761 C 206.84988,237.05761 209.84118,239.05647 209.84118,259.05905 C 206.84988,259.05905 209.84118,281.06048 203.85858,281.06048"
       id="path1031"
       style="fill:#f9d100;fill-opacity:1;fill-rule:evenodd;stroke:none" />
    <path
       d="M 265.85119,270.05977 C 263.85233,269.05335 240.84448,269.05335 240.84448,269.05335 C 235.85431,266.04807 232.84904,246.05947 231.8566,242.06175 C 232.84904,242.06175 234.8479,242.06175 237.85317,242.06175 C 241.83692,250.05719 260.86103,261.05791 269.84891,249.06475 C 277.85833,243.05419 274.85305,240.04891 286.84621,240.04891 C 300.85221,230.05461 291.86433,226.04291 289.85149,217.05503 C 302.85107,217.05503 295.84807,208.05317 311.85293,220.04633 C 311.85293,234.05233 294.84165,252.04207 294.84165,269.05335 C 289.85149,271.05221 271.84777,270.05977 265.85119,270.05977"
       id="path1033"
       style="fill:#ffffff;fill-opacity:1;fill-rule:evenodd;stroke:none" />
    <path
       d="M 400.8651,259.05905 C 397.85982,257.06019 409.85298,212.05089 405.85526,202.04261 C 396.8534,194.04717 396.8534,203.06301 391.86324,205.04789 C 393.84812,212.05089 392.85568,220.04633 391.86324,228.05575 C 380.86252,234.05233 354.86336,237.05761 344.85508,232.05347 C 336.84566,223.05161 314.85821,213.04333 312.85935,205.04789 C 314.85821,200.05773 326.86534,194.04717 332.84794,192.04831 C 333.85436,193.05473 338.8585,199.05131 341.8498,200.05773 C 341.8498,200.05773 341.8498,201.05017 341.8498,202.04261 C 325.84495,206.05431 336.84566,217.05503 351.85808,209.04561 C 361.85238,207.06073 406.8477,187.04418 412.85825,191.05587 C 415.86353,197.05245 417.84842,206.05431 420.85369,213.04333 C 422.86653,215.05617 431.85441,229.06217 431.85441,234.05233 C 434.85969,234.05233 440.85627,243.05419 440.85627,247.05191 C 437.85099,250.05719 436.85855,251.04963 433.85327,251.04963 C 428.86311,246.05947 433.85327,222.05917 420.85369,238.06403 C 422.86653,245.05305 426.86425,254.05491 416.85597,257.06019 C 411.86581,258.05263 403.8564,260.06547 400.8651,259.05905"
       id="path1035"
       style="fill:#f9d100;fill-opacity:1;fill-rule:evenodd;stroke:none" />
    <path
       d="M 260.86103,246.05947 C 255.84291,240.04891 246.85503,232.05347 241.83692,230.05461 C 240.84448,231.06103 220.85588,232.05347 217.8506,232.05347 C 214.84532,229.06217 197.84802,229.06217 195.86314,229.06217 C 180.85072,212.05089 160.84814,215.05617 184.84844,194.04717 C 189.85258,194.04717 197.84802,196.06001 203.85858,197.05245 C 212.84646,216.04861 225.84604,217.05503 247.84747,218.04747 C 247.84747,219.05389 247.84747,219.05389 248.85389,219.05389 C 263.85233,219.05389 280.86361,228.05575 263.85233,244.04663 C 262.84591,245.05305 261.85347,245.05305 260.86103,246.05947"
       id="path1037"
       style="fill:#ffffff;fill-opacity:1;fill-rule:evenodd;stroke:none" />
    <path
       d="M 55.845092,228.05575 C 48.856072,226.04291 41.853072,223.05161 35.842512,221.05275 C 35.842512,208.05317 44.844372,199.05131 44.844372,189.05701 C 45.836812,188.05059 45.836812,188.05059 46.843232,187.04418 C 54.852652,193.05473 54.852652,190.04945 53.846232,200.05773 C 59.842812,205.04789 67.838252,197.05245 68.844672,207.06073 C 64.846952,212.05089 61.855652,221.05275 57.843952,228.05575 C 56.851512,228.05575 55.845092,228.05575 55.845092,228.05575"
       id="path1039"
       style="fill:#ffffff;fill-opacity:1;fill-rule:evenodd;stroke:none" />
    <path
       d="M 276.85191,223.05161 C 271.84777,220.04633 263.85233,217.05503 264.84477,212.05089 C 265.85119,211.05845 265.85119,211.05845 265.85119,211.05845 C 268.85647,213.04333 273.86061,218.04747 277.85833,222.05917 C 276.85191,222.05917 276.85191,223.05161 276.85191,223.05161"
       id="path1041"
       style="fill:#ffffff;fill-opacity:1;fill-rule:evenodd;stroke:none" />
    <path
       d="M 289.85149,209.04561 C 286.84621,207.06073 287.85263,207.06073 287.85263,206.05431 C 299.85977,198.04489 313.85179,190.04945 326.86534,181.0476 C 337.86606,170.04688 360.85994,155.04844 374.85196,149.03788 C 375.85838,148.04544 388.85796,135.04586 389.8504,140.05 C 381.85496,146.04658 292.85677,211.05845 289.85149,209.04561"
       id="path1043"
       style="fill:#ffffff;fill-opacity:1;fill-rule:evenodd;stroke:none" />
    <path
       d="M 247.84747,211.05845 C 241.83692,209.04561 223.84718,208.05317 221.84832,203.06301 C 229.85774,203.06301 251.84519,200.05773 258.84819,202.04261 C 258.84819,203.06301 258.84819,203.06301 258.84819,203.06301 C 252.85161,208.05317 255.84291,209.04561 247.84747,211.05845"
       id="path1045"
       style="fill:#ffffff;fill-opacity:1;fill-rule:evenodd;stroke:none" />
    <path
       d="M 271.84777,208.05317 C 262.84591,199.05131 286.84621,187.04418 288.85905,199.05131 C 283.85491,204.05545 278.85077,208.05317 271.84777,208.05317"
       id="path1047"
       style="fill:#ffffff;fill-opacity:1;fill-rule:evenodd;stroke:none" />
    <path
       d="M 254.85047,194.04717 C 248.85389,191.05587 223.84718,192.04831 218.84304,188.05059 C 194.84274,186.05173 202.85216,175.06499 217.8506,168.062 C 227.85888,168.062 238.85959,174.0446 251.84519,174.0446 C 257.85575,175.06499 269.84891,171.0533 271.84777,180.05516 C 268.85647,183.04646 268.85647,186.05173 268.85647,191.05587 C 263.85233,194.04717 260.86103,194.04717 254.85047,194.04717"
       id="path1049"
       style="fill:#f9d100;fill-opacity:1;fill-rule:evenodd;stroke:none" />
    <path
       d="M 294.84165,194.04717 C 286.84621,188.05059 285.85377,184.05287 283.85491,177.04988 C 287.85263,171.0533 312.85935,171.0533 320.85479,173.05216 C 320.85479,174.0446 321.84723,176.05744 322.85364,178.0563 C 320.85479,180.05516 295.84807,194.04717 294.84165,194.04717"
       id="path1051"
       style="fill:#f9d100;fill-opacity:1;fill-rule:evenodd;stroke:none" />
    <path
       d="M 320.85479,163.04388 C 313.85179,163.04388 305.85635,161.059 300.85221,160.05258 C 300.85221,159.04616 300.85221,158.05372 300.85221,157.06128 C 306.86277,152.04316 309.85407,159.04616 316.85707,150.05828 C 316.85707,129.04928 342.85622,123.0527 334.86078,97.053542 C 334.86078,97.053542 329.84267,89.044132 329.84267,88.051692 C 319.86235,78.043412 307.85521,74.045692 294.84165,75.038132 C 289.85149,77.050972 284.86133,78.043412 279.84321,80.056252 C 277.85833,82.041132 263.85233,92.049412 263.85233,92.049412 C 249.86031,92.049412 243.84975,102.0437 242.85731,115.05726 C 243.84975,120.04742 254.85047,133.047 254.85047,138.05114 C 236.84676,163.04388 231.8566,106.04142 236.84676,99.052402 C 238.85959,84.053972 257.85575,62.052532 272.84021,61.046112 C 272.84021,60.039692 272.84021,60.039692 273.86061,60.039692 C 274.85305,60.039692 278.85077,59.047252 279.84321,58.054812 C 286.84621,58.054812 301.85863,54.043112 309.85407,60.039692 C 321.84723,64.037412 340.85736,77.050972 342.85622,92.049412 C 356.84824,106.04142 339.85094,159.04616 320.85479,163.04388"
       id="path1053"
       style="fill:#ffffff;fill-opacity:1;fill-rule:evenodd;stroke:none" />
    <path
       d="M 268.85647,162.05144 C 262.84591,162.05144 252.85161,160.05258 248.85389,157.06128 C 247.84747,157.06128 247.84747,156.04088 247.84747,155.04844 C 252.85161,152.04316 255.84291,146.04658 260.86103,145.05414 C 263.85233,152.04316 269.84891,153.04958 269.84891,162.05144 C 269.84891,162.05144 269.84891,162.05144 268.85647,162.05144"
       id="path1055"
       style="fill:#ffffff;fill-opacity:1;fill-rule:evenodd;stroke:none" />
    <path
       d="M 288.85905,158.05372 C 287.85263,157.06128 285.85377,156.04088 283.85491,155.04844 C 282.84849,155.04844 281.85605,155.04844 280.86361,155.04844 C 265.85119,132.05456 267.85005,131.04814 290.84393,118.03458 C 297.84693,118.03458 302.85107,116.0497 310.84651,116.0497 C 311.85293,117.04214 319.86235,118.03458 322.85364,119.05498 C 331.8555,134.05342 312.85935,127.05042 307.85521,128.04286 C 307.85521,132.05456 308.84765,134.05342 312.85935,137.0587 C 312.85935,155.04844 305.85635,143.05528 300.85221,151.05072 C 297.84693,154.056 291.86433,158.05372 288.85905,158.05372"
       id="path1057"
       style="fill:#ffffff;fill-opacity:1;fill-rule:evenodd;stroke:none" />
    <path
       d="M 263.85233,125.05156 C 253.85803,120.04742 247.84747,107.04784 258.84819,103.05012 C 275.85947,102.0437 282.84849,85.046412 302.85107,85.046412 C 313.85179,89.044132 325.84495,92.049412 326.86534,109.0467 C 316.85707,112.05198 306.86277,103.05012 295.84807,109.0467 C 282.84849,109.0467 273.86061,122.06026 263.85233,125.05156"
       id="path1059"
       style="fill:#ffffff;fill-opacity:1;fill-rule:evenodd;stroke:none" />
  </g>
</svg>
