<?xml version="1.0"?>
<svg xmlns="http://www.w3.org/2000/svg" height="631" width="601" xmlns:xlink="http://www.w3.org/1999/xlink">
<defs><clipPath id="e"><path id="a" fill="none" d="m583 19l-12.4 336c-4.94 145.2-124.2 261.4-270.6 261.4s-265.7-116.2-270.6-261.4l-12.41-336h566z"/>
</clipPath></defs>
<path d="m14.53 355.9c6.11 152.4 131.6 274.1 286 274.1 153.9 0 279.4-121.7 285.5-274.1l14.1-355.9h-600l14.43 355.9z"/>
<g clip-path="url(#e)">
<use xlink:href="#a" stroke="#fff" y="1.7" x="-4" stroke-width="6"/>
<path d="m8.943 12.63 567.5-0.56-0.6 12.95h-566.9z"/>
</g>
<g id="b">
<g fill-rule="evenodd" fill="#fff">
<path d="m354 218.3 17 17.7-266 254-17-17.7z"/>
<path d="m545 51-80.1 93.1-15.2-15.8z"/>
<path d="m439 288c11.1-84.6-37-125-101.8-157.2 28.8-10.8 49.8-3.8 49.8-3.8l-38-72 65 48s-1-26 13-45c4 49 40.1 108.2 123.7 131.8-13.7 53.2-64.7 87.2-111.7 98.2z"/>
<path d="m545 51-167 182-21-22z"/>
</g>
<circle fill="none" stroke="#000" stroke-width="4" cx="379.656" cy="210.035" r="6.36"/>
</g>
<path d="m269 298c20.9-6.8 22 14.6 19 19 0 0 24.7-22 36-33l-20-20z"/>
<use xlink:href="#b" transform="matrix(-1,0,0,1,601,0)"/>
</svg>