<svg xmlns="http://www.w3.org/2000/svg" width="701.33" height="741.77" viewBox="0 0 701.3341 741.76859"><g transform="translate(31.964-27.764)"><g fill-rule="evenodd"><path d="m-26.28 33.26l13.398 416.62c7.415 175.25 153.92 314.05 331.59 314.14 177.51-.215 324.07-139.06 331.59-314.14l13.398-416.62h-344.98z" fill="#fff"/><path d="m142.92 448.18c3.379 30.613 6.548 61.25 9.507 91.9 2.808 29.09 5.424 58.46 1.901 87.47-2.493 20.531-8.07 40.686-16.479 59.58l105.85 15.846c-7.975-12.578-14.182-26.28-18.381-40.565-5.193-17.672-7.298-36.11-8.24-54.51-1.642-32.08.189-64.22 0-96.34-.153-26.04-1.634-52.07-4.437-77.961l-69.72 14.578z" fill="#090" stroke="#000" stroke-linecap="round" stroke-width="8"/></g><g stroke="#000"><g transform="translate(-31.964 27.764)"><g stroke-width="11"><path d="m350.68 5.5v730.77c177.51-.22 324.06-139.06 331.58-314.14l13.398-416.62h-344.98z" fill="#f00" stroke-linecap="round"/><path d="m523.26 261.06c-46.19-.164-87.34 35.18-133.53 34.918-11.185-.063-24.862-2.328-39.05-5.67v136.61c15.265 3.62 30.05 6.094 42.03 6.094 45.26 0 85.29-35.14 130.55-35.14 45.26 0 85.29 35.14 130.54 35.14 8.26 0 17.86-1.18 28.03-3.094.173-2.588.318-5.184.43-7.789l4.18-129.94c-11.867 2.446-23.14 4.01-32.635 4.01-45.26 0-85.29-34.976-130.54-35.14z" fill="#fff" fill-rule="evenodd"/></g><path d="m350.73 574.91l-.002.002a141.98056 158.31036 0 0 0 -109.6289 57.84375 129.38888 144.22033 0 0 0 -58.36524 -15.5293 129.38888 144.22033 0 0 0 -67.80859 21.70508c60.29 60.12 143.84 97.28 235.74 97.33 91.81-.111 175.33-37.31 235.63-97.43a129.38888 144.22033 0 0 0 -67.57422 -21.61523 129.38888 144.22033 0 0 0 -58.30273 15.64843 141.98056 158.31036 0 0 0 -109.68945 -57.96289z" fill="#090" stroke-linecap="round" stroke-width="8"/></g><path d="m-26.28 33.26l13.398 416.62c7.415 175.25 153.92 314.05 331.59 314.14 177.51-.215 324.07-139.06 331.59-314.14l13.398-416.62h-344.98z" fill="none" fill-rule="evenodd" stroke-width="11"/></g><g fill-rule="evenodd"><path d="m165.74 483.04c3.61 2.292 7.583 4.01 11.726 5.071 5.958 1.524 12.482 1.629 18.06-.951 2.826-1.306 5.342-3.275 7.289-5.704 2.074 1.83 4.436 3.333 6.972 4.437 4.427 1.926 9.446 2.609 14.161 1.568 5.339-1.178 10.07-4.525 13.411-8.857 2.441-3.17 4.184-6.874 5.071-10.775 4.656.5 9.399.177 13.944-.951 9.132-2.265 17.308-7.769 23.452-14.895 9.442-10.952 14.14-25.862 12.676-40.25-1.385 2.398-3.695 4.245-6.338 5.071-2.15.671-4.505.671-6.655 0 .988-1.037 1.645-2.386 1.852-3.803.155-1.058.063-2.152-.268-3.169 2.107-.224 4.168-.875 6.02-1.901 3.821-2.116 6.621-5.727 8.645-9.598 2.024-3.871 3.367-8.05 4.983-12.11 1.876-4.713 4.131-9.281 5.704-14.1.984-3.02 1.703-6.206 1.268-9.349-.39-2.821-1.687-5.442-2.218-8.24-.662-3.49-.106-7.097.731-10.549.837-3.452 1.956-6.848 2.438-10.367.947-6.918-.612-13.934-2.694-20.599-.817-2.615-1.715-5.205-2.694-7.764-1.767 3.792-3.725 7.496-5.863 11.09-2.682 4.511-5.647 8.854-8.874 12.993-.438-.731-.861-1.47-1.268-2.218-.678-1.245-1.312-2.514-1.901-3.803 6.865-6.946 12.293-15.306 15.846-24.402 2.436-6.238 3.996-12.82 4.595-19.49.67-7.468.133-15.04-1.585-22.342-1.054.205-2.075.581-3.01 1.109-.562.317-1.094.69-1.585 1.109.305-2.867.034-5.794-.792-8.557-.543-1.815-1.319-3.552-1.912-5.351-.593-1.799-1-3.702-.781-5.583.258-2.176 1.344-4.164 2.55-5.994 1.206-1.83 2.562-3.58 3.472-5.573 1.741-3.814 1.708-8.19 1.268-12.36-.899-8.516-3.356-16.817-6.655-24.719-2.095-5.02-4.532-9.892-7.289-14.578-.647.167-1.283.379-1.901.634-.656.27-1.292.588-1.901.951.14-1.325.032-2.676-.317-3.961-.374-1.377-1.024-2.678-1.901-3.803 2.148-.543 4.17-1.581 5.863-3.01 3.298-2.786 5.196-6.87 6.655-10.933 2.433-6.778 3.928-13.891 4.437-21.07.491-6.935.064-13.934-1.268-20.758-1.76.975-3.411 2.146-4.912 3.486-1.311 1.17-2.505 2.465-3.644 3.803-.877 1.03-1.723 2.087-2.535 3.169-.178-4.385-.389-8.77-.634-13.152-.317-5.664-.69-11.33-1.426-16.955-.589-4.501-1.427-9.03-3.328-13.152-1.326-2.875-3.158-5.516-5.388-7.764.246 3.02.031 6.076-.634 9.03-.84 3.732-2.442 7.362-5.071 10.141-2.02 2.134-4.556 3.689-6.947 5.396-2.235 1.595-4.362 3.341-6.363 5.221-1.465-4.581-3.435-9-5.863-13.152-1.434-2.451-3.041-4.827-5.071-6.814-2.457-2.405-5.453-4.167-8.24-6.18-2.674-1.932-5.17-4.11-7.447-6.497-1.302 3.135-2.362 6.369-3.169 9.666-.99 4.046-1.599 8.182-2.694 12.201-.769 2.825-1.778 5.584-3.01 8.24-.56-5.89-3.04-11.582-6.972-16-3.924-4.413-9.11-7.462-14.1-10.617-4.31-2.724-8.538-5.578-12.677-8.557.861 5.087 1.443 10.22 1.743 15.37.32 5.487.32 10.993 0 16.479-1.125-1.208-2.184-2.478-3.169-3.803-2.01-2.702-3.715-5.632-5.071-8.715-1.07 1.621-1.925 3.385-2.535 5.229-.809 2.445-1.186 5.03-1.109 7.606-1.389-4.256-3.253-8.356-5.546-12.201-2.279-3.822-5.02-7.435-8.557-10.141-2.432-1.864-5.185-3.259-7.764-4.912-3.26-2.09-6.25-4.599-8.874-7.447-.114 3.379-.114 6.762 0 10.141.162 4.82.55 9.707-.475 14.42-1.09 5.01-3.714 9.533-5.704 14.261-1.252 2.974-2.26 6.05-3.01 9.19-.97-5.652-3.393-11.05-6.972-15.529-3.359-4.205-7.662-7.556-11.25-11.567-2.882-3.221-5.292-6.863-7.131-10.775-1.904 1.987-3.606 4.167-5.071 6.497-1.893 3.01-3.388 6.269-4.437 9.666-1.301-4.493-3.404-8.753-6.18-12.518-2.741-3.718-6.136-6.951-9.983-9.507-.532 4.967-1.651 9.872-3.328 14.578-1.128 3.166-2.507 6.242-4.12 9.19-3.671-5.124-7.756-9.951-12.201-14.42-3.486-3.504-7.193-6.787-11.09-9.824-.736 7.545-2.726 14.966-5.863 21.867-2.062 4.536-4.617 8.848-7.606 12.835-3.083-1.742-6.395-3.078-9.824-3.961-3.713-.956-7.548-1.383-11.25-2.377-4.243-1.139-8.285-3.03-11.884-5.546-.687 3.496-1.059 7.05-1.109 10.617-.073 5.198.536 10.382 1.268 15.529.724 5.09 1.569 10.162 2.535 15.212-4.566-1.581-9.629-1.694-14.261-.317-5.502 1.636-10.346 5.384-13.31 10.3 3.352 1.764 6.415 4.075 9.03 6.814 5.232 5.475 8.54 12.462 11.726 19.332 1.755 3.785 3.517 7.624 4.278 11.726.883 4.755.383 9.652-.326 14.435-.709 4.784-1.627 9.568-1.576 14.404.063 5.901 1.601 11.78 4.437 16.955-5.703-.633-11.649 1.469-15.687 5.546-4.04 4.079-6.077 9.95-5.863 15.687.066 1.765.332 3.523.792 5.229 2.704-.962 5.775-.846 8.398.317 2.073.919 3.828 2.442 5.337 4.135 1.509 1.693 2.797 3.567 4.171 5.372 1.475 1.939 3.055 3.806 4.345 5.873 1.29 2.067 2.292 4.373 2.468 6.803.197 2.722-.647 5.409-1.641 7.951-.993 2.542-2.154 5.05-2.638 7.736-.745 4.134.171 8.399 1.575 12.358 1.404 3.959 3.295 7.736 4.604 11.727.812 2.475 1.396 5.02 1.743 7.606-4.691.557-9.225 2.382-12.993 5.229-2.488 1.879-4.643 4.197-6.338 6.814 3.268 1.094 6.276 2.954 8.715 5.388 2.85 2.844 4.885 6.408 6.498 10.1 1.613 3.689 2.833 7.536 4.277 11.294 1.544 4.02 3.345 7.937 5.388 11.726-2.782 1.666-5.346 3.696-7.606 6.02-1.785 1.837-3.381 3.858-4.754 6.02 2.474 2.912 4.957 5.817 7.447 8.715 3.596 4.183 7.26 8.431 9.507 13.469 1.892 4.241 2.7 8.869 3.717 13.4 1.018 4.531 2.309 9.117 4.998 12.904 3.132 4.41 8.116 7.459 13.469 8.24-1.641 2.902-3.072 5.924-4.278 9.03-1.532 3.949-2.701 8.04-3.486 12.201 2.222-1.178 4.561-2.135 6.972-2.852 3.487-1.037 7.19-1.57 10.775-.951 4.654.804 8.752 3.466 12.615 6.184 3.863 2.718 7.741 5.603 12.263 6.968 3.897 1.176 8.136 1.142 12.04 0 3.158-.923 6.105-2.56 8.557-4.754.759 2.468 2.584 4.588 4.912 5.704 1.412.677 2.965.989 4.478 1.393 1.513.403 3.041.925 4.237 1.935 1.368 1.155 2.172 2.837 2.785 4.519.614 1.682 1.085 3.431 1.968 4.988 1.298 2.287 3.421 4.02 5.748 5.245 2.327 1.224 4.869 1.979 7.404 2.677 2.998.826 6.118 1.592 9.19 1.109 3.113-.489 5.887-2.218 8.398-4.12 2.805-2.125 5.409-4.516 7.764-7.131"/><path d="m188.67 55.969c.125 5.856-.791 11.734-2.693 17.273-2.448 7.129-6.526 13.773-7.605 21.232-.802 5.544.152 11.328 2.693 16.32 2.061-2.888 3.526-6.199 4.277-9.666.856-3.948.787-8.03 1.268-12.04.856-7.142 3.495-14.07 7.607-19.967-1.494 5.811-2.451 11.761-2.854 17.748-.223 3.322-.276 6.655-.158 9.982 2.846-2.753 5.698-5.5 8.557-8.24 1.214-1.163 2.429-2.326 3.645-3.486-.137-5.775-1.612-11.512-4.277-16.637-2.529-4.861-6.125-9.166-10.459-12.52m44.37.635c.789 6.794 1.371 13.612 1.744 20.441.406 7.439.564 14.892.475 22.342 2.288-2.678 4.357-5.543 6.18-8.557 1.627-2.691 3.059-5.5 4.279-8.398-.676-3.466-1.687-6.867-3.01-10.141-2.315-5.72-5.598-11.05-9.666-15.688m-139.92.951c-.256 4.204-1.283 8.36-3.01 12.201-2.195 4.878-5.517 9.272-6.971 14.42-1.596 5.653-.712 11.957 2.377 16.953 1.925-1.49 3.465-3.471 4.436-5.703 1.31-3.01 1.564-6.384 1.426-9.666-.138-3.278-.647-6.56-.316-9.824.353-3.488 1.684-6.872 3.803-9.666 2.667 2.398 5.258 4.882 7.766 7.447 2.064 2.112 4.072 4.278 6.02 6.496 1.469-2.082 1.891-4.865 1.107-7.289-.562-1.738-1.688-3.247-3-4.518-1.312-1.271-2.813-2.326-4.287-3.404-3.217-2.353-6.337-4.838-9.35-7.447m175.57 2.693c-2.609 7.211-4.988 14.505-7.131 21.867-.827 2.842-1.62 5.695-2.377 8.557 1.102 1.571 2.01 3.278 2.693 5.07 1.259 3.296 1.757 6.842 3.01 10.141 2.35 6.188 7.441 11.277 13.629 13.627-3.799-7.938-6.122-16.579-6.814-25.352-.59-7.477 0-15.05 1.742-22.344-.54 6.828-.111 13.732 1.268 20.441.913 4.442 2.243 8.799 3.963 12.994-.924-4.615-.65-9.465.791-13.945.755-2.346 1.824-4.59 3.17-6.654-1.574-4.742-3.649-9.318-6.18-13.627-2.245-3.823-4.848-7.436-7.764-10.775m-144.36.158c.763 3.743-.055 7.784-2.217 10.934-1.331 1.939-3.149 3.564-4.121 5.705-1.09 2.4-.986 5.178-.475 7.764.782 3.953 2.475 7.724 4.912 10.934.969-1.846 1.464-3.937 1.426-6.02-.042-2.295-.715-4.531-.951-6.814-.469-4.532.864-9.225 3.645-12.834.466 4.02.941 8.03 1.426 12.04.313 2.589.63 5.176.951 7.764 2.198-3.235 3.327-7.184 3.17-11.09-.119-2.946-.945-5.827-2.061-8.557-1.437-3.517-3.363-6.833-5.705-9.824m21.615 5.279c-1.392 1.412-2.739 2.869-4.04 4.369-1.117 1.293-2.217 2.652-2.801 4.258-.699 1.921-.602 4.03-.896 6.05-.235 1.618-.723 3.194-1.344 4.707-1.035 2.525-2.442 4.899-3.25 7.506-1.132 3.653-1.023 7.632 0 11.316 1.055 3.798 3.101 7.357 6.05 9.973 1.702 1.509 3.69 2.693 5.826 3.473.538-2.209.914-4.458 1.121-6.723.498-5.436.03-10.905-.225-16.357-.169-3.62-.244-7.245-.225-10.869 2.361 3.423 3.598 7.609 3.475 11.766-.093 3.153-.943 6.258-.896 9.412.014.941.109 1.886.367 2.791.259.905.685 1.772 1.313 2.475.807.903 1.94 1.509 3.139 1.68.677-3.366 1.77-6.649 3.248-9.748 1.506-3.158 3.421-6.156 4.371-9.523.871-3.085.866-6.489-.449-9.412-.918-2.041-2.424-3.761-4.055-5.293-1.631-1.532-3.406-2.906-5.02-4.455-2.257-2.164-4.188-4.665-5.713-7.395m165.05 1.693c-1.129 4.392-3.88 8.348-7.605 10.934-2.371 1.645-5.077 2.729-7.605 4.119-4.893 2.689-9.211 6.665-11.568 11.727-2.805 6.02-2.619 13.1-.791 19.49 1.175 4.106 3 8.02 5.387 11.566-.056-2.753.102-5.512.475-8.24.892-6.54 3.02-12.903 6.18-18.697 2.861-5.244 6.568-10.02 10.934-14.1-5.314 8.14-9.242 17.18-11.566 26.619-.746 3.03-1.329 6.099-1.744 9.191 4.498-2.398 8.436-5.842 11.41-9.982 4.334-6.03 6.545-13.384 7.447-20.758.89-7.275.567-14.697-.951-21.867m-262.09 5.545c1.343 4.416 2.402 8.917 3.168 13.469.962 5.714 1.482 11.579 3.645 16.955 2.02 5.02 5.464 9.468 9.824 12.678-.674-3.445-1.046-6.949-1.109-10.459-.073-4.076.266-8.193-.475-12.201-.694-3.757-2.345-7.333-4.754-10.299 3.165 3.912 6.334 7.82 9.508 11.725 1.985 2.442 3.974 4.886 6.18 7.131 1.68 1.71 3.481 3.3 5.387 4.754.459-2.401.459-4.888 0-7.289-.835-4.363-3.155-8.332-6.02-11.727-3.588-4.249-8.07-7.716-12.992-10.299-3.889-2.04-8.06-3.538-12.359-4.438m166.54 6.338c-2.185 5.72-5.884 10.855-10.617 14.738-4.758 3.903-10.557 6.591-14.578 11.25-2.691 3.118-4.448 7.02-5.07 11.09-.733 4.793.113 9.814 2.377 14.1 1.218-1.83 2.486-3.626 3.803-5.387 1.487-1.988 3.037-3.93 4.596-5.863 3.437-4.263 6.933-8.502 9.824-13.152 3.376-5.429 5.898-11.386 7.447-17.588-.248 5.782-1.153 11.535-2.693 17.11-.712 2.577-1.558 5.117-2.535 7.605 2.505 3.656 4.486 7.672 5.863 11.885 1.223 3.742 1.969 7.638 2.217 11.566 5.54-4.085 9.34-10.456 10.301-17.271.986-6.996-.91-14.06-3.17-20.758-2.222-6.583-4.815-13.04-7.764-19.332m-115.52.793c-.101 3.671-.798 7.326-2.059 10.775-1.479 4.047-3.715 7.794-5.07 11.885-1.735 5.237-1.959 10.965-.635 16.32 1.732.223 3.437.65 5.07 1.268 1.616.612 3.162 1.411 4.596 2.377 2.02-2.486 3.156-5.671 3.17-8.873.014-3.219-1.061-6.332-1.586-9.508-.59-3.567-.48-7.249.318-10.775 1.789 3.388 3.375 6.883 4.752 10.459 2.02 5.249 3.594 10.693 6.18 15.688 1.56 3.01 3.48 5.836 5.705 8.396 1.488-4.071 2.397-8.352 2.693-12.676.312-4.546-.093-9.279-2.217-13.311-2.471-4.691-6.947-7.913-10.934-11.408-3.658-3.207-7.01-6.769-9.984-10.617m154.02 7.447c-2.74 4.04-5.594 8-8.557 11.885-4.123 5.399-8.479 10.672-11.725 16.639-2.404 4.419-4.17 9.183-5.229 14.1 1.411-3.215 3.472-6.143 6.02-8.557 1.965-1.861 4.218-3.417 6.654-4.596.694-2.216 1.653-4.349 2.852-6.338 1.786-2.965 4.107-5.607 6.814-7.764-.974 3.6-1.979 7.192-3.01 10.775-1.089 3.777-2.221 7.649-1.9 11.566.258 3.146 1.44 6.132 2.219 9.191.815 3.204 1.19 6.519 1.109 9.824 3.292-3.71 5.7-8.2 6.971-12.994 1.544-5.822 1.403-12.01.158-17.906-.651-3.084-1.597-6.099-2.217-9.189-1.097-5.47-1.153-11.149-.16-16.639m-88.26 15.687c-.813 3.176-2.099 6.23-3.803 9.03-2.696 4.432-6.452 8.283-8.24 13.152-.78 2.123-1.158 4.395-1.109 6.656.837-.516 1.876-.698 2.838-.494.962.204 1.838.792 2.393 1.604.385.562.614 1.218.746 1.887.132.668.168 1.35.191 2.031.047 1.362.054 2.777.646 4 .394.815 1.038 1.508 1.824 1.957.786.449 1.711.653 2.613.578.772-2.884 1.458-5.79 2.059-8.715 1.065-5.183 1.859-10.422 2.377-15.688.809 6.283 1.601 12.57 2.377 18.857.591 4.79 1.17 9.581 1.742 14.373-.19-2.916.718-5.902 2.537-8.193 1.374-1.731 3.22-3.067 4.436-4.912.992-1.505 1.516-3.29 1.672-5.086.156-1.796-.043-3.607-.404-5.373-.982-4.801-3.153-9.284-5.703-13.469-2.654-4.355-5.738-8.448-9.191-12.201m158.08 2.346c-2.528 3.592-6.07 6.466-10.1 8.205-3.425 1.477-7.171 2.143-10.52 3.787-3.709 1.821-6.804 4.817-8.893 8.383-2.088 3.566-3.183 7.684-3.311 11.814-.12 3.879.602 7.782 2.104 11.361 2.736-2.83 4.897-6.215 6.313-9.889 1.672-4.34 2.341-9.122 4.84-13.04 2.682-4.21 7.432-7.03 12.412-7.363-4.195 3.616-7.133 8.662-8.205 14.1-.628 3.185-.628 6.495 0 9.68 3.01-1.885 5.564-4.508 7.363-7.574 2.617-4.46 3.587-9.664 4.629-14.729 1.015-4.933 2.138-9.843 3.367-14.727m-253.95 2.092c.879 3.436 1.513 6.932 1.9 10.457.577 5.253.582 10.681-1.109 15.688-1.411 4.177-3.974 7.995-4.594 12.359-.584 4.115.726 8.461 3.486 11.568.295-3.359.825-6.699 1.584-9.984 1.454-6.289 3.751-12.38 6.813-18.06-.683 3.962-1.368 7.922-2.059 11.883-1.133 6.5-2.275 13.186-.951 19.65.707 3.454 2.117 6.762 4.119 9.664 2.031-2.401 3.741-5.072 5.07-7.922 2.198-4.714 3.338-9.872 3.805-15.05.86-9.546-.626-19.506-5.547-27.73-3.061-5.115-7.402-9.457-12.518-12.518m-22.588 5.98c-1.029-.049-2.061.012-3.082.199-3.204.588-6.159 2.441-8.08 5.07 3.366 1.246 6.116 4.055 7.289 7.447.703 2.032.855 4.207 1.307 6.309.226 1.051.53 2.092 1 3.057.474.965 1.124 1.855 1.969 2.52.858.675 1.891 1.098 2.949 1.369 1.058.271 2.147.397 3.23.531 1.905.237 3.806.501 5.703.793-1.583-1.164-2.895-2.695-3.803-4.438-1.865-3.58-1.964-7.828-3.486-11.566-.937-2.301-2.413-4.38-4.277-6.02 3.08.021 6.101 1.685 7.764 4.277.947 1.476 1.457 3.186 1.859 4.893.403 1.706.713 3.443 1.311 5.092.463 1.279 1.111 2.511 2.061 3.484.904.926 2.069 1.594 3.326 1.902-.094-2.641-.199-5.283-.316-7.924-.088-1.976-.188-3.978-.793-5.861-1.135-3.533-3.96-6.309-7.129-8.24-2.66-1.621-5.717-2.747-8.803-2.893m219.73 3.078c-2.377 6.687-3.731 13.736-3.998 20.828-.295 7.833.853 16.03 5.26 22.514 2.519 3.705 6.05 6.716 10.1 8.625-2.768-5.864-4.42-12.253-4.84-18.725-.399-6.162.317-12.394 2.104-18.305 1.04 5.781 2.234 11.534 3.578 17.252 1.21 5.15 2.542 10.272 3.996 15.359-.12-2.087.859-4.208 2.525-5.471.629-.476 1.345-.834 2.104-1.051 0-3.391-.353-6.782-1.051-10.1-1.518-7.211-4.676-14.06-9.05-19.988-3.04-4.126-6.664-7.82-10.73-10.939m-134.01.541c-2.301 2.706-4.03 5.896-5.04 9.301-2.101 7.07-1.064 14.682.674 21.848.928 3.826 2.05 7.604 3.361 11.316 2.354 2.142 4.463 4.554 6.273 7.172 1.581 2.286 2.934 4.73 4.03 7.283 1.121-1.88 1.85-3.993 2.129-6.164.48-3.745-.377-7.542-1.643-11.1-1.266-3.557-2.94-6.958-4.184-10.523-1.803-5.17-2.679-10.661-2.576-16.13 2.74 2.856 4.954 6.215 6.498 9.859 1.604 3.786 2.485 7.877 2.578 11.988.787-1.01 1.397-2.148 1.793-3.361.868-2.655.693-5.538.223-8.291-.617-3.61-1.731-7.14-3.361-10.42-2.501-5.03-6.223-9.452-10.756-12.773m69.82 1.176c-1.626 5.34-4.465 10.306-8.24 14.418-2.389 2.602-5.132 4.852-7.699 7.279-2.567 2.427-4.996 5.084-6.563 8.25-1.45 2.93-2.112 6.245-1.9 9.508 1.598 1.624 3.183 3.262 4.754 4.912 2.138 2.247 4.251 4.517 6.338 6.813-.354-2.676-.462-5.384-.318-8.08.145-2.728.546-5.447 1.268-8.08 1.864-6.808 5.917-12.997 11.41-17.43-2.084 3.172-3.692 6.655-4.754 10.299-.752 2.581-1.231 5.243-1.426 7.924 2.446.232 4.84.995 6.971 2.219 2.189 1.258 4.098 3 5.547 5.07-.017-4.01-.017-8.03 0-12.04.025-5.933.082-11.906-.951-17.748-.818-4.622-2.317-9.121-4.436-13.309m-94.25 5.436c-.463 2.732-1.631 5.341-3.361 7.506-1.402 1.755-3.148 3.201-4.707 4.818-2.888 2.996-5.156 6.636-6.273 10.645-.72 2.581-.956 5.267-1.301 7.924-.344 2.657-.811 5.336-1.949 7.762-2.068 4.407-6.128 7.545-8.738 11.654-1.365 2.149-2.323 4.558-2.803 7.06 3.147-.081 6.26-1.198 8.74-3.137 3.224-2.52 5.257-6.246 6.947-9.973 1.359-2.995 2.557-6.06 3.586-9.188.925.417 1.991.515 2.977.273.986-.241 1.886-.822 2.514-1.619.494-.627.817-1.378 1-2.154.183-.777.229-1.579.205-2.377-.047-1.595-.372-3.172-.422-4.768-.113-3.599 1.246-7.222 3.697-9.859.877 4.241.801 8.677-.223 12.885-.783 3.217-2.115 6.299-3.922 9.07 2.281 2.465 4.346 5.132 6.162 7.957 1.674 2.603 3.136 5.34 4.369 8.178 3.514-3.405 5.906-7.947 6.723-12.771.771-4.553.159-9.266-1.232-13.67-1.941-6.142-5.338-11.7-8.18-17.48-1.403-2.853-2.673-5.769-3.809-8.738m-15.967 1.852c-.402.039-.793.195-1.096.461-.202.177-.362.401-.461.65-.099.249-.137.525-.102.791.064.485.357.908.656 1.295.3.387.622.773.77 1.24.152.481.11.998.068 1.5-.042.502-.068 1.01-.068 1.512v6.813c1.528-1.768 2.626-3.907 3.17-6.18.384-1.606.493-3.295.158-4.912-.151-.728-.398-1.45-.844-2.045-.223-.297-.494-.56-.809-.758-.314-.198-.671-.331-1.041-.367-.134-.013-.268-.013-.402 0m146.84.885c-1.286 4.715-3.768 9.1-7.152 12.623-5 5.214-11.841 8.498-16.412 14.1-2.159 2.643-3.748 5.751-4.629 9.05 1.163.555 2.289 1.187 3.367 1.893 1.422.931 2.762 1.989 3.998 3.156.882-3.354 2.309-6.566 4.207-9.469 2.129-3.256 4.854-6.122 7.996-8.416.589 2.856 1.584 5.629 2.945 8.207 1.203 2.277 2.69 4.401 4.418 6.311.968-3.633 1.879-7.279 2.734-10.939 1.019-4.357 1.964-8.781 1.895-13.256-.071-4.6-1.235-9.178-3.367-13.254m-84.49 18.664c-2.043 3.644-3.663 7.526-4.818 11.541-1.505 5.232-2.214 10.801-1.121 16.13.806 3.934 2.593 7.663 5.154 10.756.035-2.494.376-4.982 1.01-7.395.755-2.875 1.928-5.64 3.473-8.18.834 1.279 2.288 2.132 3.811 2.24.488.035.979-.003 1.455-.111-1.015-2.218-.929-4.909.225-7.06.909-1.693 2.454-3.035 4.258-3.697-3.374-1.595-6.41-3.901-8.852-6.723-1.928-2.228-3.487-4.777-4.594-7.508m149.08.061c-1.86 3.556-4.046 6.941-6.521 10.1-1.967 2.509-4.113 4.872-6.102 7.363-2.311 2.895-4.451 6.06-5.26 9.678-.874 3.908-.11 8.02 1.262 11.783 1.383 3.792 3.38 7.359 5.891 10.52.145-6.807 1.064-13.599 2.734-20.2 1.22-4.822 2.842-9.541 4.84-14.1 1.236 5.365 1.593 10.931 1.053 16.41-.367 3.717-1.144 7.394-2.314 10.941 3.307-3.377 6.4-6.964 9.256-10.73.925-1.22 1.83-2.465 2.531-3.826.701-1.361 1.196-2.849 1.256-4.379.058-1.491-.298-2.973-.83-4.367-.532-1.394-1.236-2.715-1.904-4.049-2.43-4.851-4.405-9.93-5.891-15.15m-46.5 2.945c-1.296.832-2.629 1.605-3.996 2.314-1.17.607-2.365 1.17-3.578 1.684.439 2.369 1.298 4.659 2.525 6.732 2.133 3.604 5.3 6.461 8.416 9.258 3.437 3.085 6.873 6.171 10.309 9.258-3.283-5.02-6.169-10.306-8.625-15.781-1.963-4.377-3.652-8.877-5.05-13.465m-203.04.74c1.123 5.464 1.231 11.134.316 16.637-.607 3.652-1.654 7.215-2.406 10.84-.752 3.625-1.206 7.374-.604 11.03.894 5.423 4.212 10.399 8.873 13.311 1.012-4 1.703-8.09 2.061-12.201.473-5.431.367-10.912-.316-16.32 3.255 4.528 4.703 10.319 3.961 15.846-.3 2.232-.937 4.402-1.4 6.605-.463 2.204-.751 4.489-.342 6.703.437 2.365 1.644 4.519 3.01 6.498.6.87 1.236 1.715 1.902 2.535 1.749-2.536 3.14-5.319 4.119-8.24 1.649-4.921 2.114-10.207 1.584-15.369-.823-8.01-4-15.651-8.24-22.502-3.486-5.635-7.705-10.815-12.518-15.369m115.35 11.891c-.828 1.691-1.391 3.513-1.66 5.377-.244 1.684-.244 3.427.238 5.059.641 2.171 2.094 4.01 3.717 5.592 1.623 1.577 3.442 2.943 5.059 4.527 2.326 2.281 4.214 5.01 5.533 7.984 1.949-1.127 3.39-3.098 3.873-5.297.454-2.069.08-4.256-.727-6.215-.807-1.959-2.025-3.718-3.305-5.406-2.53-3.338-5.356-6.485-8.695-9.01-1.278-.967-2.628-1.84-4.03-2.609m26.879 1.266c.002 7.128-1.574 14.252-4.584 20.713-1.024 2.198-2.212 4.319-3.15 6.555-.939 2.235-1.63 4.619-1.594 7.04.033 2.196.658 4.333 1.107 6.482.965 4.617 1.125 9.399.473 14.07 2.438.987 4.735 2.323 6.799 3.953 1.7 1.343 3.243 2.886 4.586 4.586.125-5.236.548-10.466 1.266-15.654.964-6.964 2.459-13.86 3-20.869.426-5.477.266-11-.475-16.443 1.377 3.604 2.283 7.387 2.688 11.225.326 3.098.326 6.232 0 9.33 2.536 1.777 5.24 3.314 8.06 4.584 1.598.719 3.234 1.354 4.9 1.898-.123-4.215-.176-8.434-.158-12.65.008-1.962.028-3.953-.475-5.85-.709-2.679-2.427-5-4.469-6.875-2.042-1.873-4.412-3.346-6.756-4.824-3.771-2.378-7.515-4.803-11.227-7.273m27.363.41c.149 4.285.43 8.566.842 12.834.237 2.459.518 4.916.842 7.365.471-4.197.823-8.408 1.053-12.625.088-1.612.159-3.224.211-4.838l-2.947-2.736m-93.67 3.416c-3.846 2.78-7.263 6.158-10.09 9.973-1.985 2.683-3.678 5.58-5.04 8.627.869 1.01 1.522 2.198 1.904 3.473.368 1.23.483 2.535.336 3.811 1.487-3.415 3.674-6.524 6.387-9.08 1.779-1.674 3.783-3.11 5.939-4.258 1.092-2.102 1.673-4.466 1.68-6.834.006-1.954-.376-3.908-1.119-5.715m-30.443 2.031c-.129 3.527-1.494 6.997-3.803 9.666-2.579 2.981-6.18 4.883-9.03 7.605-2.749 2.626-4.744 5.974-6.105 9.523-1.362 3.55-2.113 7.307-2.609 11.08-.554 4.208-.795 8.507 0 12.676.819 4.293 2.746 8.37 5.545 11.727 1.601-1.052 3.01-2.402 4.121-3.961 1.375-1.924 2.304-4.166 2.693-6.498-.207-2.162-.365-4.327-.475-6.496-.268-5.318-.23-10.736 1.268-15.846 1.432-4.883 4.199-9.366 7.922-12.834-3.149 4.732-4.209 10.801-2.852 16.32 1.014 4.121 3.287 7.845 6.02 11.09 1.808 2.146 3.828 4.114 6.02 5.863 2.23-5.582 3.417-11.577 3.484-17.588.076-6.731-1.26-13.484-3.961-19.65-2.031-4.637-4.827-8.937-8.24-12.676m132.94.76c.511 4.515-.134 9.157-1.855 13.361-1.175 2.87-2.832 5.515-4.254 8.271-1.422 2.757-2.63 5.704-2.799 8.801-.154 2.829.602 5.718 2.227 8.04 1.967 2.811 5.02 4.625 7.67 6.805 2.72 2.238 5.071 4.925 6.928 7.918-.548-5.839-.836-11.702-.865-17.566-.039-7.797.382-15.588.619-23.381.042-1.393.077-2.792-.072-4.178-.15-1.386-.492-2.766-1.166-3.986-.641-1.159-1.577-2.154-2.695-2.863-1.118-.71-2.415-1.135-3.736-1.221m88.95.371c-2.253 3.338-4.562 6.637-6.928 9.896-3.531 4.864-7.204 9.658-11.506 13.855-2.881 2.811-6.04 5.342-9.402 7.547 2.165 2.036 4.047 4.375 5.568 6.928 2.355 3.951 3.843 8.415 4.33 12.988 5.353-7.923 9.649-16.559 12.74-25.607 2.075-6.074 3.61-12.334 4.578-18.68.595 3.834.295 7.804-.867 11.506-.474 1.511-1.094 2.998-1.236 4.576-.192 2.135.526 4.29 1.732 6.06 1.715 2.52 4.436 4.333 7.422 4.947.871-7.312.322-14.788-1.607-21.895-1.142-4.206-2.764-8.284-4.824-12.12m-73.11.371c-2.704 4.532-4.133 9.817-4.082 15.09.038 3.952.911 7.934 2.844 11.381 2.742 4.891 7.398 8.412 10.639 12.988 2.096 2.959 3.579 6.349 4.33 9.896.519-.977 1.014-1.967 1.484-2.969.668-1.421 1.287-2.866 1.855-4.33-.607-3.967-1.266-7.925-1.979-11.875-1.308-7.251-2.793-14.47-4.453-21.648 2.692 7.112 5.086 14.336 7.174 21.648.832 2.914 1.617 5.843 2.352 8.783.515-2.01 1.355-3.942 2.475-5.691.902-1.409 1.985-2.7 3.215-3.834-1.073-2.755-2.228-5.478-3.463-8.164-2.748-5.978-6.02-11.938-11.133-16.08-3.243-2.63-7.152-4.436-11.258-5.197m-112.16 6.551c-.999 4.242-3.105 8.217-6.05 11.428-2.025 2.207-4.418 4.04-6.598 6.094-2.18 2.054-4.194 4.408-5.168 7.24-.882 2.564-.853 5.336-.879 8.05-.026 2.711-.133 5.506-1.25 7.977-1.189 2.63-3.526 4.716-6.273 5.602 1.471 2.514 3.08 4.946 4.818 7.283 1.742 2.342 3.612 4.587 5.602 6.723 1.761-4.139 3.079-8.466 3.922-12.885 1.085-5.684 1.387-11.507 2.689-17.14 1.488-6.443 4.287-12.579 8.178-17.926-1.669 4.192-2.91 8.553-3.697 12.996-.746 4.212-1.084 8.496-1.01 12.773 2.491 1.549 4.824 3.355 6.947 5.379 3.154 3.01 5.847 6.495 7.955 10.309 2.093-5.295 3.381-10.907 3.809-16.584.507-6.72-.202-13.556-2.352-19.943-2.184-6.49-5.853-12.476-10.645-17.367m25.2 1.9c-1.416 2.01-2.587 4.191-3.479 6.482-2.161 5.555-2.641 11.602-3 17.551-.353 5.793-.617 11.592-.791 17.393 2.451 1.612 4.779 3.41 6.957 5.375 2.663 2.402 5.101 5.05 7.273 7.906-.005-4.429-.111-8.857-.316-13.281-.327-7.03-.908-14.04-1.74-21.03 2.275 5.743 3.616 11.857 3.953 18.03.337 6.158-.293 12.517 1.74 18.34.734 2.102 1.806 4.084 3.162 5.85.3-6 .353-12.02.158-18.02-.138-4.275-.403-8.547-.791-12.807 1.906.075 3.787.683 5.375 1.738.967.643 1.826 1.447 2.529 2.371-.086-4.643-1-9.271-2.688-13.598-1.575-4.04-3.815-7.806-6.482-11.225-3.339-4.281-7.357-8.03-11.857-11.07m122.36 17.371c-4.098 4.325-7.712 9.108-10.756 14.23-2.538 4.272-4.679 8.779-6.387 13.445 1.012 1.021 1.915 2.15 2.689 3.361 1.352 2.116 2.307 4.485 2.801 6.947 1.813-3.042 3.213-6.331 4.146-9.748.759-2.778 1.21-5.639 1.344-8.516.313 1.41 1.066 2.719 2.129 3.697.882.812 1.974 1.395 3.139 1.68-.233-2.122-.384-4.253-.449-6.387-.106-3.439.006-6.882.336-10.307 2.968 4.876 4.067 10.858 3.03 16.471-.354 1.91-.947 3.784-1.063 5.723-.058.969.007 1.952.277 2.885.27.933.754 1.815 1.457 2.484.657.625 1.481 1.047 2.316 1.4.835.353 1.697.647 2.502 1.064 2.341 1.212 4.108 3.484 4.707 6.05.774-4.174 1.187-8.417 1.232-12.662.066-6.176-.668-12.442-3.03-18.15-2.212-5.356-5.844-10.118-10.422-13.67m-71.822 7.06c.529 2.498.529 5.107 0 7.605-.659 3.111-2.107 5.988-3.453 8.869-1.346 2.881-2.62 5.868-2.885 9.04-.387 4.623 1.417 9.173 3.803 13.152 1.709 2.851 3.732 5.512 6.02 7.922-.763-5.507-.869-11.1-.316-16.637.742-7.425 2.676-14.731 5.705-21.551-.385-1.748-1.21-3.397-2.377-4.754-1.652-1.921-3.997-3.236-6.498-3.645m31.33 1.826c-1.186 5.384-1.186 11.03 0 16.412.574 2.604 1.42 5.147 2.523 7.574 2.149-2.571 3.739-5.607 4.629-8.838.584-2.12.868-4.322.842-6.521-1.365-.839-2.638-1.829-3.787-2.945-1.698-1.649-3.124-3.577-4.207-5.682m75.22 1.869c-1.566 2.552-3.21 5.057-4.93 7.508-4.677 6.667-10.01 13.145-12.324 20.953-1.381 4.662-1.611 9.598-1.346 14.453.222 4.071.786 8.124 1.682 12.1 1.788 0 3.565-.743 4.818-2.02.822-.835 1.415-1.876 1.807-2.98.392-1.104.586-2.271.67-3.439.168-2.337-.097-4.684-.012-7.03.186-5.124 2.107-10.168 5.377-14.12-1.17 4.55-1.921 9.206-2.24 13.893-.27 3.954-.233 7.929.111 11.877 3.903-2.397 7.261-5.677 9.748-9.523 2.362-3.653 3.95-7.868 4.146-12.213.304-6.733-2.665-13.11-4.818-19.496-1.101-3.264-2-6.597-2.689-9.973m-262.63 3.91c2.449 3.943 4.224 8.304 5.229 12.836 1.344 6.067 1.3 12.38.475 18.539-.4 2.99-.982 5.954-1.742 8.873 1.743.618 3.334 1.661 4.596 3.01 1.14 1.221 2.01 2.691 2.535 4.277.986-3.472 1.675-7.03 2.059-10.615.821-7.68.228-15.509-1.742-22.977 2.04 5.267 3.53 10.746 4.438 16.32 1.056 6.486 1.321 13.1.791 19.648 2.059-2.76 3.624-5.886 4.596-9.189 2.223-7.553 1.243-15.905-2.219-22.977-2.381-4.864-5.894-9.157-10.141-12.518-2.701-2.137-5.695-3.903-8.873-5.23m-10.121.273c-.271.003-.543.018-.813.045-2.133.214-4.177 1.19-5.705 2.693-1.351 1.328-2.299 3.059-2.693 4.912 2.88 1.522 5.512 3.51 7.764 5.863 2.643 2.762 4.751 6 7.447 8.715 1.031 1.037 2.146 1.991 3.328 2.852.621-1.165.951-2.483.951-3.803 0-1.32-.33-2.638-.951-3.803-1.819-1.931-3.723-3.783-5.705-5.547-1.935-1.723-3.945-3.362-6.02-4.912.664-.607 1.352-1.188 2.061-1.742 1.779-1.393 3.693-2.615 5.705-3.645-1.566-1.076-3.469-1.648-5.367-1.629m177.77 1.154c.1 2.564-.223 5.144-.951 7.605-.825 2.788-2.177 5.491-2.219 8.398-.032 2.289.769 4.529 1.938 6.498 1.169 1.969 2.695 3.697 4.242 5.385 3.206 3.498 6.536 6.882 9.982 10.143-.305-3.641-.568-7.286-.791-10.934-.272-4.434-.484-8.871-.635-13.311-1.342-1.768-2.715-3.511-4.119-5.229-2.394-2.928-4.878-5.782-7.447-8.557m-125.85 2.842c-.247 5.097-1.469 10.147-3.584 14.791-1.948 4.277-4.622 8.174-7.04 12.201-2.423 4.03-4.633 8.279-5.506 12.896-.957 5.063-.246 10.337 1.346 15.238 1.577 4.856 4.02 9.43 7.17 13.445.633-4.658 1.762-9.249 3.361-13.67 1.381-3.817 3.134-7.599 3.361-11.652.289-5.152-1.917-10.11-2.465-15.238-.583-5.458.789-11.1 3.811-15.686v10.08c0 1.085-.036 2.168-.092 3.252-.056 1.084-.115 2.181.092 3.246.404 2.082 1.825 3.839 3.467 5.182 1.642 1.343 3.525 2.355 5.271 3.559 3.602 2.483 6.619 5.808 8.74 9.635.185-3.893-.04-7.806-.672-11.652-1.103-6.716-3.438-13.193-6.498-19.271-2.941-5.842-6.56-11.344-10.758-16.359m81.928 5.75c1.937 5.332 2.38 11.198 1.266 16.76-.865 4.314-2.657 8.441-5.219 12.02.868 2.931 1.4 5.961 1.582 9.01.227 3.814-.094 7.659-.949 11.383 2.268.683 4.417 1.757 6.324 3.162 2.145 1.581 3.983 3.58 5.377 5.852 2.584-8.357 4.127-17.04 4.584-25.771.361-6.913.045-13.862-.947-20.713 1.247 6.083 3.92 11.869 7.746 16.76 2.188 2.797 4.748 5.301 7.59 7.43-.034-4.844-1.121-9.677-3.162-14.07-2.141-4.607-5.307-8.7-9.01-12.176-4.397-4.126-9.577-7.416-15.18-9.645m76.51 2.877c-1.151 2.514-2.666 4.862-4.482 6.947-1.443 1.657-3.077 3.152-4.369 4.93-1.71 2.353-2.767 5.142-3.295 8-.528 2.86-.541 5.796-.291 8.693.255 2.953.78 5.883 1.568 8.74 1.546-1.453 2.745-3.272 3.473-5.266.78-2.138 1.015-4.475.674-6.725.765 1.985 1.912 3.822 3.361 5.379 1.258 1.351 2.74 2.492 4.369 3.361-1.836-4.684-2.645-9.767-2.354-14.789.168-2.889.696-5.757 1.568-8.516 1.025 3.113 1.63 6.362 1.793 9.635.145 2.913-.056 5.85.336 8.74.521 3.838 2.073 7.466 3.922 10.869 1.574 2.898 3.375 5.672 5.379 8.291-1.366-5.821-1.596-11.909-.672-17.816.577-3.69 1.601-7.366 1.344-11.09-.316-4.574-2.556-8.824-5.377-12.438-2.02-2.588-4.36-4.927-6.947-6.947m-125.04 1.234c-.118 3.223-.805 6.422-2.02 9.41-2.024 4.989-5.467 9.314-7.395 14.342-2.633 6.866-2.239 14.554-.672 21.738 1.451 6.652 3.874 13.09 7.17 19.05 1.331-3.184 2.02-6.633 2.02-10.08-.008-6.359-2.329-12.492-2.914-18.824-.706-7.645 1.221-15.508 5.379-21.961-.315 4.925-.539 9.857-.672 14.791-.073 2.715-.119 5.44.189 8.139.309 2.698.983 5.383 2.275 7.771 1.718 3.174 4.529 5.743 7.844 7.17-3.195-4.121-4.386-9.726-3.139-14.789.614-2.491 1.769-4.808 2.781-7.166 1.012-2.358 1.899-4.835 1.926-7.4.022-2.079-.529-4.134-1.365-6.04-.836-1.903-1.954-3.668-3.117-5.391-2.535-3.754-5.306-7.349-8.291-10.756m25.23 3.895c0 0-2.318 8.222-3.756 12.24-.648 1.811-1.46 3.559-2.191 5.338-1.223 2.975-2.712 5.854-3.672 8.924-1.032 3.303-2.166 6.657-2.219 10.141-.067 4.407.983 8.85 3.17 12.678 1.872 3.277 4.564 6.079 7.764 8.08-.896-6.246-.842-12.626.158-18.855.877-5.461 2.48-10.804 4.754-15.846-3.038 8.424-3.758 17.669-2.061 26.461.52 2.696 1.264 5.35 2.219 7.924 2.054-5.05 3.341-10.413 3.803-15.846.341-4.01.235-8.06-.316-12.04 1.333.42 2.614 1.01 3.803 1.744 1.09.674 2.103 1.472 3.01 2.375 1.068-3.485 1.068-7.288 0-10.773-1.401-4.57-3.733-8.839-6.34-12.836-2.305-3.534-8.127-9.705-8.127-9.705m121.77 1.596c-.833 3.769-1.806 7.506-2.914 11.203-.998 3.329-2.108 6.635-2.77 10.05-.661 3.412-.86 6.97-.031 10.346 1.236 5.03 4.611 9.215 7.06 13.781.627 1.169 1.198 2.372 1.926 3.48.728 1.109 1.632 2.133 2.781 2.795 1.613.929 3.661 1.057 5.377.336-.007-3.431-.422-6.861-1.232-10.195-1.466-6.03-4.212-11.719-5.377-17.816-.903-4.729-.828-9.643.223-14.342 1.133 4.078 2.292 8.149 3.475 12.213 1.426 4.902 2.886 9.793 4.369 14.678.999 3.29 2.01 6.578 3.03 9.861 1.12-6.808 1.197-13.787.225-20.617-.776-5.453-2.253-10.892-5.154-15.574-2.662-4.297-6.498-7.858-10.98-10.195m-56.12 13.973c-1.092 5.087-2.632 10.08-4.596 14.895-1.314 3.225-2.82 6.379-3.908 9.688-1.088 3.309-1.755 6.821-1.322 10.277.453 3.614 2.107 7.02 4.438 9.824 3.322 3.99 8.05 6.785 13.152 7.766.943-3.455 1.423-7.04 1.426-10.617.003-5.01-.925-9.977-1.902-14.895-.662-3.333-1.348-6.66-2.059-9.982 1.525 1.884 2.712 4.04 3.486 6.338.822 2.437 1.175 5 1.684 7.521.509 2.52 1.196 5.057 2.594 7.215 1.237 1.909 3.01 3.465 5.07 4.438.746-2.494 1.33-5.04 1.744-7.607.551-3.418.795-6.971-.158-10.299-.778-2.718-2.325-5.162-4.127-7.34-1.802-2.178-3.869-4.119-5.857-6.129-3.452-3.488-6.68-7.195-9.664-11.09m107.78 6.307c-1.626 1.853-3.474 3.511-5.49 4.93-4.382 3.082-9.567 5.04-13.445 8.74-1.253 1.195-2.35 2.554-3.25 4.03 1.073 1.479 1.944 3.105 2.578 4.818.561 1.516.937 3.099 1.119 4.705 1.865-1.601 3.627-3.324 5.268-5.154 3.273-3.651 6.068-7.729 8.291-12.1-.418 5.03-2.047 9.945-4.707 14.229-1.6 2.576-3.568 4.923-5.826 6.947l1.457 5.49c1.74-1.96 3.458-3.939 5.154-5.938 2.814-3.315 5.605-6.747 7.283-10.758 1.49-3.562 2.042-7.456 2.129-11.316.065-2.885-.123-5.775-.561-8.627m-272.57 6.369c-1.064 4.347-1.544 8.837-1.426 13.311.247 9.303 3.133 18.523 8.238 26.305 2.09.572 4.053 1.607 5.705 3.01 2.023 1.718 3.573 3.987 4.438 6.496l.475-6.18c-2.307-6.471-3.697-13.266-4.119-20.12-.227-3.694-.174-7.406.158-11.09.953 4.303 2.01 8.582 3.168 12.834 1.564 5.74 3.319 11.438 5.547 16.955 1.966 4.867 4.299 9.587 6.973 14.1.751-5.831.751-11.759 0-17.59-1.221-9.482-4.553-18.886-10.775-26.14-4.815-5.616-11.283-9.799-18.381-11.885m145.62 3.486c-1.741 4.729-3.918 9.297-6.496 13.627-.999 1.679-2.063 3.328-2.869 5.107-.806 1.779-1.353 3.717-1.252 5.668.101 1.943.838 3.802 1.742 5.525.905 1.723 1.985 3.35 2.854 5.092 2.302 4.614 3.038 9.99 2.061 15.05.65-2.359 1.23-4.738 1.742-7.131.906-4.239 1.595-8.524 2.061-12.834-.396 4.589-.29 9.22.316 13.785.383 2.888.965 5.749 1.742 8.557 1.087-6.94 1.933-13.917 2.535-20.916.568-6.6.916-13.298-.316-19.807-.774-4.086-2.167-8.05-4.119-11.727m-98.56 1.426c-1.483 4.01-2.804 8.08-3.961 12.201-1.8 6.409-3.218 12.978-6.02 19.02-1.544 3.325-3.503 6.475-4.619 9.967-.558 1.746-.9 3.576-.842 5.408.058 1.832.529 3.67 1.5 5.225.948 1.518 2.33 2.712 3.77 3.775 1.44 1.063 2.961 2.02 4.311 3.195 3.228 2.808 5.361 6.843 5.863 11.09.784-3.156 1.158-6.412 1.109-9.664-.076-5.062-1.166-10.05-1.9-15.05-1.452-9.91-1.507-20.02-.16-29.947 2.49 4.1 3.62 9.01 3.17 13.785-.192 2.034-.66 4.04-.742 6.082-.041 1.021.017 2.051.252 3.045.235.994.651 1.955 1.283 2.758.88 1.119 2.129 1.881 3.395 2.533 1.266.652 2.584 1.224 3.734 2.063 1.788 1.303 3.1 3.243 3.645 5.387.855-4.288 1.439-8.632 1.744-12.994.625-8.931 0-18.276-4.279-26.14-2.614-4.818-6.544-8.915-11.25-11.727m147.37 1.586c-1.38 5.22-2.491 10.511-3.328 15.846-.453 2.889-.826 5.809-.695 8.73.131 2.922.789 5.866 2.279 8.383 1.085 1.832 2.573 3.382 3.975 4.984 1.401 1.602 2.75 3.312 3.473 5.314.523 1.451.697 3 .889 4.531.191 1.531.41 3.08 1.014 4.5.88 2.072 2.59 3.778 4.664 4.654 2.074.876 4.487.912 6.586.1-.285-4.454-.761-8.897-1.426-13.311-1.567-10.399-4.191-20.652-8.08-30.422-1.051-2.639-2.203-5.26-3.803-7.607-1.501-2.202-3.386-4.141-5.545-5.703m-80.34 7.605c.061 3.035-.259 6.076-.951 9.03-1.343 5.739-4.049 11.05-6.338 16.48-.773 1.835-1.503 3.7-1.916 5.648-.413 1.948-.498 3.994.016 5.918.514 1.927 1.603 3.652 2.832 5.223 1.229 1.57 2.61 3.02 3.822 4.602 3.141 4.105 5.09 9.113 5.547 14.262.3-2.743.563-5.49.791-8.24.516-6.219.849-12.457.793-18.697-.062-6.839-.591-13.674-1.584-20.441 1.473 2.081 2.505 4.473 3.01 6.973.661 3.272.419 6.651.633 9.982.197 3.068.785 6.11 1.744 9.03.525-2.404 1.159-4.783 1.9-7.129.781-2.471 1.682-4.904 2.695-7.289 1.389.548 2.648 1.423 3.645 2.535 1.084 1.209 1.853 2.695 2.217 4.277 1.01-2.88 1.191-6.04.523-9.02-.668-2.977-2.185-5.76-4.326-7.934-2.249-2.283-5.107-3.856-7.605-5.863-3.131-2.516-5.695-5.733-7.447-9.348m128.12 3.281c-1.123 3.424-2.511 6.762-4.146 9.973-3.493 6.857-8.09 13.09-11.988 19.719-1.881 3.198-3.602 6.491-5.154 9.861 2.062 1.414 3.713 3.418 4.705 5.713 1.105 2.555 1.385 5.461.785 8.18 3.906-2.795 6.836-6.929 8.18-11.541 1-3.441 1.139-7.087 2.129-10.531 1.405-4.887 4.474-9.188 5.713-14.12.8-3.183.8-6.565 0-9.748 2.088 3 3.03 6.791 2.578 10.422-.405 3.29-1.877 6.34-2.801 9.523-.895 3.084-1.276 6.316-1.121 9.523 1.495-2.595 3.304-5.01 5.377-7.17 1.448-1.511 3.03-2.9 4.707-4.146 1.521-1.729 2.442-3.976 2.576-6.275.109-1.874-.291-3.754-.98-5.5-.689-1.746-1.661-3.368-2.717-4.92-2.238-3.291-4.877-6.308-7.842-8.963m-36.533.363c2.669 5.422 4.796 11.11 6.338 16.955 1.963 7.438 2.979 15.12 3.01 22.816 2.387-3.222 4.459-6.676 6.18-10.299 2.155-4.538 3.755-9.339 4.754-14.262-3.16-3.149-6.554-6.06-10.143-8.715-3.232-2.387-6.621-4.558-10.141-6.496m-127.87 4.119c.404 2.476.241 5.04-.475 7.447-.555 1.863-1.429 3.612-2.219 5.389-1.808 4.067-3.184 8.324-4.119 12.676-1.162 5.405-1.642 10.957-1.426 16.48 1.99 2.558 3.791 5.26 5.387 8.08 2.654 4.69 4.734 9.704 6.18 14.895.653-3.474 1.233-6.96 1.742-10.457 1.596-10.968 2.48-22.16.793-33.12-.537-3.486-1.332-6.932-2.377-10.301 1.669 4.1 4.809 7.583 8.715 9.666 2.439 1.3 5.164 2.064 7.924 2.219-.384-2.538-1.191-5.01-2.377-7.289-1.779-3.415-4.383-6.347-7.289-8.873-3.15-2.739-6.681-5.04-10.459-6.814m78.3 15.14c.929 2.908.894 6.115-.1 9-.509 1.478-1.254 2.86-1.926 4.271-.672 1.411-1.277 2.881-1.475 4.432-.217 1.705.07 3.44.566 5.086.496 1.645 1.197 3.22 1.834 4.816.324.813.632 1.633 1.035 2.41.403.777.905 1.515 1.564 2.09 1.108.966 2.648 1.417 4.102 1.201-1.444 2.935-1.518 6.509-.199 9.502.871 1.976 2.29 3.658 3.801 5.201 2.073 2.117 4.354 4.03 6.801 5.701.949-.115 1.845-.63 2.422-1.393.577-.763.828-1.764.68-2.709-.109-.695-.422-1.344-.809-1.932-.387-.588-.85-1.121-1.293-1.668-2.417-2.983-4.296-6.394-5.602-10-.871-2.41-1.49-4.926-1.629-7.484-.139-2.559.217-5.164 1.23-7.518.479-1.113 1.098-2.16 1.629-3.25.531-1.09.976-2.245 1.07-3.453.16-2.055-.727-4.084-2.025-5.686-1.298-1.602-2.985-2.836-4.676-4.02-2.291-1.598-4.626-3.133-7-4.602m24.11.1c-3.372 4.153-5.696 9.15-6.701 14.404-.885 4.628-.747 9.458.5 14 2.059 7.501 7.22 14.1 14 17.904-.507-2.335-.809-4.714-.9-7.102-.186-4.867.497-9.742.199-14.604-.251-4.088-1.201-8.131-2.799-11.902 2.79 3.295 4.675 7.348 5.4 11.604.932 5.469-.028 11.12.801 16.604.399 2.638 1.212 5.213 2.4 7.602 3.308-6.639 4.678-14.229 3.9-21.605-.601-5.704-2.482-11.29-5.602-16.1-2.846-4.392-6.711-8.119-11.203-10.803m-185.91 8.06c-2.791-.017-5.584.413-8.24 1.268 5.982 5.669 11.08 12.27 15.05 19.49 4.101 7.453 7 15.565 8.557 23.928 2.024-.469 4.155-.469 6.18 0 2.893.67 5.551 2.311 7.447 4.596-3.702-5.116-7.244-10.349-10.617-15.688-5.131-8.122-9.995-16.875-10.617-26.463-.127-1.954-.072-3.919.16-5.863-2.556-.822-5.239-1.251-7.924-1.268m281.28 1.527c-4.191 1.158-7.963 3.78-10.51 7.305-1.942 2.689-3.165 5.853-3.844 9.1-.484 2.315-.699 4.685-.641 7.05 2.251-1.228 4.263-2.89 5.895-4.869 2.125-2.578 3.594-5.693 4.23-8.973.35 3.78-.565 7.667-2.564 10.895-.72 1.162-1.573 2.237-2.336 3.371-.763 1.135-1.443 2.349-1.766 3.678-.348 1.435-.256 2.973.258 4.357 3.3-2.856 5.983-6.42 7.816-10.381 1.952-4.215 2.931-8.83 3.332-13.457.233-2.684.276-5.384.129-8.07m-146.48.918c.405 5.864-.311 11.805-2.1 17.404-1.754 5.49-4.527 10.662-5.703 16.305-.779 3.741-.819 7.717.5 11.303 1.335 3.63 4.067 6.726 7.502 8.502.74-3.417 1.144-6.907 1.201-10.402.07-4.233-.369-8.474-1.301-12.604 2.666 3.559 4.587 7.675 5.602 12 .873 3.725 1.077 7.606.6 11.402 2.352-2.265 4.293-4.956 5.701-7.902 2.107-4.409 2.996-9.321 3.201-14.203.266-6.321-.614-12.776-3.301-18.504-2.563-5.464-6.756-10.152-11.902-13.305m125.33 3.439c-4.893 2.616-9.398 5.953-13.328 9.869-4.811 4.795-8.816 10.594-10.51 17.17-.368 1.43-.626 2.888-.77 4.357 1.565 1.876 2.826 4.01 3.717 6.281 1.177 3 1.706 6.262 1.539 9.484.356-3.326 1.133-6.607 2.307-9.74 1.766-4.714 4.433-9.09 7.816-12.816-1.59 3.629-2.671 7.48-3.203 11.406-.236 1.741-.365 3.497-.385 5.254 1.146-2.302 2.827-4.335 4.871-5.895 1.961-1.496 4.253-2.555 6.664-3.076 1.535-6.804 2.267-13.788 2.178-20.762-.049-3.859-.348-7.715-.896-11.535m-163 1.404c.157 2.215.157 4.442 0 6.656-.432 6.099-2.047 12.05-3.803 17.904-.707 2.358-1.441 4.724-1.752 7.166-.311 2.442-.176 4.995.803 7.254.715 1.651 1.857 3.092 3.166 4.326 1.309 1.235 2.788 2.275 4.281 3.279 1.97 1.325 3.979 2.593 6.02 3.803-2.262-4.468-3.567-9.416-3.803-14.418-.271-5.758.88-11.578 3.326-16.797-.571 3.771-.73 7.603-.475 11.408.359 5.362 1.535 10.643 1.9 16 .275 4.03.096 8.133 1.109 12.04.429 1.656 1.071 3.258 1.902 4.754 2.03-6.588 2.361-13.693.951-20.441-.771-3.691-2.055-7.274-3.803-10.615 3.368.463 6.613 1.783 9.348 3.803.724.535 1.413 1.117 2.061 1.742.196-4.501-.07-9.02-.793-13.469-.721-4.439-1.913-8.846-4.051-12.803-2.137-3.957-5.274-7.456-9.26-9.539-2.207-1.154-4.648-1.859-7.131-2.061m-79.86 3.486c1.523 2.045 2.952 4.161 4.279 6.338 5.05 8.28 8.596 17.367 12.359 26.305 2.24 5.319 4.563 10.601 6.971 15.846-1.12-6.419-2.388-12.813-3.803-19.17-1.346-6.05-2.825-12.08-4.436-18.06 2.906 3.88 5.069 8.315 6.338 12.994.935 3.449 1.386 7.01 2.18 10.494.794 3.484 1.969 6.962 4.158 9.787 1.582 2.041 3.669 3.689 6.02 4.754.249-2.738.302-5.493.158-8.238-.35-6.688-1.892-13.355-4.912-19.332-3.854-7.626-10.135-14.02-17.746-17.906-3.63-1.852-7.548-3.139-11.568-3.803m42.625 1.584c1.492 4.415 2.035 9.149 1.584 13.787-.381 3.916-1.454 7.726-2.234 11.582-.78 3.856-1.265 7.86-.459 11.711.727 3.476 2.518 6.721 5.07 9.189 1.509-.863 2.782-2.135 3.645-3.645 1.245-2.178 1.612-4.762 1.539-7.27-.073-2.508-.556-4.982-.904-7.467-.543-3.881-.757-7.807-.635-11.725 1.559 2.729 2.588 5.759 3.01 8.873.615 4.52-.037 9.104-.635 13.627-.578 4.378-1.106 8.763-1.584 13.152 1.013.47 1.971 1.055 2.852 1.742 1.825 1.424 3.305 3.289 4.279 5.389 1.839-3.315 3.179-6.907 3.961-10.617.942-4.467 1.072-9.08.633-13.627-.923-9.555-4.452-18.945-10.615-26.305-2.725-3.254-5.942-6.096-9.508-8.398m157.56 10.826c-3.922 3.195-7.03 7.376-8.971 12.05-2.267 5.47-2.908 11.527-2.436 17.43.514 6.412 2.307 12.681 4.869 18.582 1.684 3.88 3.704 7.615 6.03 11.15 2.02-1.856 3.43-4.361 3.973-7.05.593-2.937.162-5.987-.568-8.893-.73-2.905-1.757-5.736-2.381-8.666-1.587-7.458-.428-15.468 3.205-22.17-.186 7.272.113 14.557.896 21.789.517 4.771 1.245 9.518 2.18 14.225 3.754-1.825 6.929-4.819 8.971-8.459 2.228-3.973 3.087-8.712 2.307-13.199-.562-3.234-1.94-6.284-3.676-9.07-1.736-2.786-3.828-5.331-5.936-7.848-2.782-3.322-5.602-6.612-8.459-9.869m59.979 11.15c-2.73 3.99-7.05 6.857-11.789 7.818-1.533.311-3.101.43-4.631.756-1.53.326-3.056.883-4.213 1.936-1.107 1.01-1.803 2.409-2.15 3.865-.347 1.456-.368 2.97-.285 4.465.156 2.827.675 5.634 1.539 8.33 1.525-.658 2.867-1.732 3.844-3.076 1.386-1.907 1.993-4.251 2.947-6.406 1.605-3.624 4.262-6.777 7.563-8.973-.344 4.383-1.478 8.701-3.332 12.688-2.126 4.572-5.202 8.702-8.973 12.05v7.945c3.122-1.628 5.958-3.808 8.332-6.408 4.646-5.089 7.423-11.642 9.1-18.326 1.365-5.441 2.053-11.05 2.049-16.662m-116.53 1.318c-2.338 4.827-4.977 9.507-7.9 14-2.26 3.476-4.715 6.895-6.102 10.803-1.901 5.356-1.608 11.455.799 16.604 1.962.827 3.771 2.02 5.303 3.5 2.351 2.272 4.04 5.224 4.801 8.402.496-1.648.699-3.384.6-5.102-.153-2.632-1.01-5.168-1.912-7.645-.906-2.476-1.879-4.954-2.289-7.559-.883-5.612 1.074-11.597 5.102-15.604-.958 5-1.16 10.143-.6 15.203.613 5.533 2.139 10.963 4.5 16 1.323-1.993 2.527-4.064 3.602-6.201 1.864-3.706 3.356-7.668 3.701-11.803.602-7.202-2.285-14.192-5.201-20.805-1.445-3.277-2.914-6.545-4.402-9.803m23.883 12.541c-2.703 5.102-4.555 10.654-5.453 16.357-.946 6.01-.835 12.166.107 18.18.631 4.02 1.642 8.01 3.385 11.695 1.743 3.681 4.245 7.05 7.52 9.473 3.166 2.342 7.08 3.754 11.01 3.635 2.141-.065 4.267-.577 6.201-1.496-4.01-4.541-7.182-9.824-9.301-15.502-2.636-7.06-3.632-14.735-2.887-22.24 1.866 6.99 4.488 13.778 7.805 20.21 1.884 3.652 3.991 7.189 6.307 10.584 2.247-1.552 3.882-3.966 4.49-6.629.606-2.655.206-5.467-.748-8.02-1.747-4.671-5.223-8.464-8.766-11.975-5.02-4.975-10.374-9.688-14.541-15.396-2.02-2.765-3.741-5.745-5.131-8.873m-97.16 3.145c.017 2.061-.036 4.122-.158 6.18-.553 9.312-2.538 18.54-5.863 27.26.338 4.7 2.469 9.249 5.863 12.518 3.724 3.587 8.935 5.577 14.1 5.387-1.803-2.732-3.196-5.733-4.119-8.873-1.461-4.967-1.735-10.197-1.902-15.371-.222-6.864-.275-13.731-.158-20.598-.693-1.028-1.49-1.987-2.377-2.854-1.559-1.524-3.392-2.765-5.387-3.645m-72.35.391c-2.505.027-5.01.479-7.354 1.354 3.922 3.055 7.1 7.06 9.189 11.566 2.587 5.585 3.472 11.778 4.906 17.764 1.435 5.986 3.603 12.09 8.09 16.305 2.329 2.19 5.197 3.77 8.238 4.754 4.848 1.568 10.175 1.624 15.05.158-7.477-3.586-13.428-10.237-16.16-18.06-.696-1.992-1.191-4.049-1.844-6.06-.652-2.01-1.474-3.986-2.75-5.668-1.977-2.606-4.883-4.309-7.447-6.34-.939-.744-1.84-1.536-2.695-2.375-.11-1.807.467-3.649 1.586-5.072 1.39-1.768 3.614-2.849 5.863-2.852-2.12-1.883-4.611-3.345-7.289-4.277-2.366-.824-4.877-1.222-7.383-1.195m103 1.391c-2.185 6.954-3.36 14.226-3.475 21.514-.099 6.251.581 12.515 2.02 18.6 3.192 2.086 6.229 4.409 9.08 6.945 3.935 3.506 7.507 7.419 10.643 11.654.102-7.369-.613-14.749-2.129-21.961-1.431-6.809-3.576-13.468-6.387-19.832 2.633 2.37 4.91 5.136 6.725 8.178 2.451 4.108 4.046 8.68 5.152 13.334 1.324 5.571 1.967 11.305 1.906 17.03 1.525-2.089 2.67-4.455 3.361-6.947 1.372-4.942.938-10.218-.113-15.238-1.86-8.883-5.74-17.502-12.1-23.977-4.094-4.169-9.159-7.379-14.678-9.301m129.77 3.416c-3.602 4.099-7.309 8.107-11.11 12.02-5.992 6.162-12.358 12.261-16.03 20.03-2.297 4.866-3.446 10.271-3.326 15.65 1.612-2.674 4.166-4.768 7.105-5.822 2.215-.795 4.638-1 6.957-.604.888-3.394 1.923-6.75 3.1-10.05 1.047-2.941 2.207-5.843 3.477-8.695.873 3.975.795 8.156-.227 12.1-.839 3.239-2.311 6.312-4.309 8.996 2.294-1.532 4.871-2.639 7.561-3.25 2.053-.467 4.171-.646 6.273-.529 1.598-3.09 2.748-6.411 3.402-9.828.899-4.696.858-9.53.377-14.287-.54-5.335-1.63-10.613-3.25-15.725m-150.76 4.311c-.593 4.845-.433 9.782.475 14.578.97 5.129 2.778 10.05 4.279 15.05 1.93 6.426 3.361 13 4.277 19.648-.137-5.938.288-11.888 1.268-17.746.738-4.412 1.792-8.889 1.109-13.311-.47-3.043-1.751-5.912-3.328-8.557-2.16-3.623-4.897-6.899-8.08-9.666m-53.08 1.109c-3.94.057-7.86 1.162-11.25 3.17 4.04 1.537 7.484 4.578 9.508 8.396 1.456 2.747 2.174 5.814 2.912 8.834.738 3.02 1.53 6.078 3.109 8.756 2.301 3.902 6.235 6.766 10.615 7.922 3.856 1.017 8.04.736 11.727-.791-.814-1.277-1.555-2.602-2.219-3.963-1.961-4.02-3.238-8.352-5.229-12.359-2.576-5.186-6.346-9.776-10.934-13.311 4.283 1.081 8.24 3.423 11.25 6.656 3.196 3.433 5.262 7.735 7.447 11.885 2.073 3.937 4.295 7.795 6.656 11.566.147-6.17-1.405-12.373-4.438-17.748-2.278-4.04-5.362-7.589-8.873-10.615-5.667-4.886-12.802-8.507-20.283-8.398m129.25 23.443c-1.8 3.247-3.136 6.75-3.955 10.371-1.504 6.645-1.2 13.832 1.711 19.992 1.597 3.379 3.951 6.398 6.842 8.768-.82-2.726-.968-5.65-.428-8.445.632-3.267 2.208-6.346 4.49-8.768.173 2.347.209 4.705.107 7.06-.16 3.706-.661 7.397-1.496 11.01.73.068 1.476-.054 2.146-.352.67-.298 1.263-.771 1.701-1.359.512-.686.807-1.508 1.033-2.334.226-.826.392-1.67.678-2.477.519-1.465 1.441-2.786 2.639-3.777 1.197-.992 2.667-1.652 4.203-1.889-3.719-1.873-7.05-4.511-9.729-7.699-3.957-4.711-6.408-10.483-8.553-16.25-.475-1.279-.94-2.562-1.391-3.85m-8.344 7.613c-6.408 3.637-11.827 9-15.529 15.371-3.899 6.709-5.883 14.665-4.752 22.342.885 6.01 3.725 11.781 8.238 15.846 4.852 4.37 11.561 6.606 18.06 6.02-1.372-3.705-3.02-7.31-4.912-10.775-2.762-5.05-6.09-9.865-7.764-15.369-2.072-6.816-1.376-14.431 1.9-20.758.133 4.353.557 8.696 1.268 12.992 1.108 6.699 2.957 13.38 6.498 19.17 2 3.274 4.525 6.228 7.447 8.715.862-1.466 1.202-3.231.949-4.912-.186-1.238-.678-2.412-1.289-3.504-.611-1.092-1.339-2.112-2.037-3.15-5.877-8.748-9.592-19.09-9.666-29.633-.029-4.166.505-8.335 1.584-12.359m96.5 3.963c-2.333 1.055-4.782 1.853-7.289 2.377-3.06.639-6.196.867-9.25 1.533-3.054.666-6.104 1.825-8.338 4.01-1.701 1.665-2.826 3.82-4.279 5.705-1.329 1.725-2.942 3.229-4.754 4.436.547 1.129.822 2.39.793 3.645-.034 1.455-.478 2.899-1.268 4.121 2.604-1.137 5.1-2.52 7.447-4.121 4.123-2.813 7.78-6.307 10.775-10.299-.527 4.71-3.048 9.165-6.814 12.04-1.764 1.348-3.762 2.346-5.705 3.42-1.943 1.073-3.868 2.25-5.387 3.869-.674.718-1.259 1.519-1.742 2.377 3.301.589 6.725.479 9.982-.318 3.97-.972 7.661-2.954 10.828-5.537 3.167-2.583 5.823-5.758 8.03-9.199 3.505-5.472 5.893-11.655 6.973-18.06m-148.71 1.523c.907 2 1.406 4.189 1.457 6.387.093 3.964-1.244 7.807-2.578 11.541-2.325 6.511-4.734 13.302-3.922 20.17.35 2.956 1.307 5.846 2.852 8.391 1.545 2.545 3.682 4.738 6.225 6.287 2.56 1.559 5.521 2.454 8.516 2.576-.029-3.933-.292-7.862-.785-11.764-1.104-8.725-3.371-17.304-6.723-25.436 2.899 4.284 5.415 8.828 7.508 13.559 3.384 7.651 5.656 15.792 6.723 24.09 2.131-1.324 3.922-3.193 5.154-5.379 1.382-2.451 2.051-5.258 2.24-8.07.391-5.799-1.218-11.604-3.809-16.807-3.269-6.565-8.06-12.271-13.334-17.367-3.01-2.91-6.192-5.643-9.523-8.18m-31.643 4.02c-4.548.168-9.05 1.703-12.729 4.381 5.481.728 10.696 3.335 14.566 7.283 3.651 3.724 6.071 8.516 9.748 12.213 2.936 2.952 6.64 5.136 10.645 6.275-1.424-3.731-3.393-7.253-5.826-10.42-3.262-4.245-7.359-7.846-11.988-10.533 2.084.292 4.146.743 6.162 1.346 2.734.817 5.407 1.927 7.73 3.584 2.437 1.738 4.453 4.063 5.826 6.723.333-1.39.409-2.841.225-4.258-.328-2.516-1.475-4.883-3.049-6.873-1.574-1.99-3.565-3.621-5.691-5-4.087-2.658-8.799-4.462-13.668-4.705-.65-.032-1.301-.036-1.951-.012m141.37 4.279c-3.047 1.429-6.168 2.699-9.348 3.803-6.199 2.152-12.76 3.743-18.06 7.605-5.426 3.951-9.148 10.263-9.666 16.955-.33 4.264.619 8.619 2.693 12.359 3.113-2.46 6.077-5.109 8.873-7.924 3.249-3.271 6.27-6.767 9.03-10.457-.323 4.686-2.054 9.267-4.912 12.994-2.403 3.134-5.592 5.663-9.191 7.289 2.509 1.594 5.643 2.174 8.557 1.584 2.399-.486 4.6-1.725 6.479-3.295 1.878-1.57 3.456-3.466 4.93-5.42 5.415-7.18 9.627-15.483 10.775-24.402.474-3.68.42-7.427-.158-11.09m-168.02 1.053c-1.271.035-2.541.314-3.734.76-1.91.714-3.641 1.842-5.246 3.1-3.164 2.478-5.908 5.491-8.08 8.873 4.349-1.54 9.154-1.764 13.627-.635 4.738 1.196 8.968 3.824 13.1 6.434 4.131 2.609 8.331 5.275 13.04 6.561 3.136.855 6.445 1.073 9.666.635-2.468-3.597-5.668-6.69-9.348-9.03-4.554-2.899-9.74-4.613-14.738-6.654-3.786-1.546-7.49-3.294-11.09-5.23 2.533-.357 5.139-.193 7.607.477 1.49.404 2.929.99 4.277 1.742-.444-1.823-1.452-3.504-2.852-4.754-1.122-1-2.494-1.726-3.961-2.059-.746-.169-1.509-.236-2.271-.215" transform="translate(-31.964 27.764)" fill="#090"/></g></g></svg>