<?xml version="1.0" encoding="UTF-8" standalone="no"?>
<svg
   height="631"
   width="601"
   version="1.1"
   id="svg6"
   sodipodi:docname="Wappen-Vorlage_Baden-Württemberg.svg"
   inkscape:version="1.1.1 (3bf5ae0d25, 2021-09-20)"
   xmlns:inkscape="http://www.inkscape.org/namespaces/inkscape"
   xmlns:sodipodi="http://sodipodi.sourceforge.net/DTD/sodipodi-0.dtd"
   xmlns="http://www.w3.org/2000/svg"
   xmlns:svg="http://www.w3.org/2000/svg">
  <defs
     id="defs10" />
  <sodipodi:namedview
     id="namedview8"
     pagecolor="#ffffff"
     bordercolor="#666666"
     borderopacity="1.0"
     inkscape:pageshadow="2"
     inkscape:pageopacity="0.0"
     inkscape:pagecheckerboard="0"
     showgrid="false"
     inkscape:zoom="0.70710678"
     inkscape:cx="267.28636"
     inkscape:cy="129.40054"
     inkscape:window-width="1920"
     inkscape:window-height="1017"
     inkscape:window-x="-8"
     inkscape:window-y="-8"
     inkscape:window-maximized="1"
     inkscape:current-layer="svg6" />
  <path
     d="m 14.53,355.9 c 6.113,152.4 131.6,274.1 285.5,274.1 153.9,0 279.4,-121.7 285.5,-274.1 L 600.06,0 h -600 z"
     id="path2"
     sodipodi:nodetypes="cscccc" />
  <g
     id="g3003"
     transform="matrix(0.70510812,0,0,0.70510812,0.08272869,-0.05238851)">
    <path
       id="path2991"
       d="m 254.76575,189.35553 c -1.131,-2.096 -2.33675,-6.86153 -2.79775,-14.37753 -11.87714,4.58142 0.24072,20.47855 2.79775,14.37753 z M 259.967,179.978 c 2.886,1.781 3.9,5.433 9.999,4 v -6 c -4.325,-2.417 -7.568,-1.892 -9.999,2 z m -61.992,39.30555 c 1.428,2.239 2.12611,6.56743 5.64544,7.24593 0.51738,-3.3247 3.28256,-5.31793 2.35456,-9.24593 -3.07001,-0.0906 -3.57069,-0.006 -8,2 z m -5.999,2.64976 c -3.78011,-0.33533 -5.06599,-0.38404 -7.999,3 2.20483,1.327 2.131,3.868 5.999,5.03869 0.92361,-3.96036 2.17,-5.20169 2,-8.03869 z m 3.90011,24.49612 c -3.09526,2.27523 -4.9178,8.18446 -4.7478,11.02146 2.5136,0.74592 5.23732,-0.34579 7.82734,-3 -1.437,-2.229 -0.75056,-4.33552 -3.07954,-8.02146 z m -17.33087,4.7724 c -0.051,3.717 1.21026,6.06038 2.36347,13.13907 3.01068,-2.07012 2.66897,-2.57317 5.999,-4.01372 0.31,-5.799 -3.07891,-10.13412 -8.36247,-9.12535 z"
       clip-rule="evenodd"
       inkscape:connector-curvature="0"
       style="fill:#ffffff;fill-rule:evenodd"
       sodipodi:nodetypes="ccccccccccccccccccccccc" />
    <path
       id="path2993"
       d="M 826.70622,27.020521 H 23.978268 c 0.49839,7.397594 3.155136,359.039109 21.29439,516.877949 -0.036,32.49823 35.553815,143.67738 80.680452,186.83051 1.86,-5.473 4.71089,-11.80798 6.03289,-17.81798 -24.50906,-40.88103 20.29936,-64.05393 47.994,-76.991 8.258,-25.641 16.939,-52.04 21.997,-79.989 3.189,-17.622 12.323,-33.157 13.999,-50.993 -1.025,-3.309 -8.194,-0.473 -7.999,-5 2.85,-3.149 9.46,-2.539 9.999,-7.999 -19.786,7.192 -58.772,10.583 -69.991,-6.999 6.954,-1.712 13.371,-3.961 15.998,-9.999 -23.854,4.446 -48.324,-5.796 -59.993,-19.997 7.471,0.471 11.59,-2.408 17.998,-3 21.354,-24.346 16.332,-70.935 42.995,-89.989 4.307,-3.078 9.055,-2.56 12.998,-7.999 -11.312,-6.688 -22.188,-19.135 -16.998,-38.995 16.927,10.741 36.602,-5.404 42.995,-17.998 -14.856,-5.141 -16.33446,-21.98401 -34.63535,-23.14928 1.72569,-1.58355 1.66488,-3.64491 2.63935,-5.84772 -83.038936,70.96521 -143.399031,-58.17025 -45.994,-74.991 -2.334,3.665 -5.233,6.765 -7.999,9.999 -1.865,19.693 6.389,34.013 21.997,36.996 14.689,2.807 30.192,-2.441 39.995,-8.999 0.928,-3.928 -3.477,-2.522 -2,-6.999 -16.143,-0.814 -24.399,-26.637 -11.998,-37.996 -10.812,-44.622 34.402,-13.634 55.993,-17.998 -1.84,-9.84 2.422,-13.576 6,-17.998 -1.586,-12.746 -8.497,-20.167 -9.999,-32.996 -15.521,0.523 -25.612,-4.384 -25.997,-18.998 2.962,-4.037 4.799,-9.199 7.999,-12.999 -8.149,-20.838 7.866,-30.259 10.999,-45.994 8.164,12.5 26.651,14.677 24.997,36.996 6.887,7.81 18.694,6.359 23.997,-2 -8.39311,-10.413995 15.62568,-31.786507 21.998,-36.996 2.034,15.035 18.998,22.166 11.999,39.995 5.338,2.661 10.4,5.598 13.998,9.999 5.956,-2.044 10.521,-5.478 17.998,-6 -3.76985,-16.117184 9.88854,-26.558168 21.997,-38.995 3.255,13.899 19.566,23.756 11.999,41.995 4.632,2.034 6.836,6.496 9.999,9.999 3.143,21.117 -12.502,27.731 -28.996,25.997 -1.823,4.176 -4.368,7.631 -5,12.999 15.366,7.964 27.925,18.736 23.997,45.994 11.304,2.294 13.761,7.57 19.998,19.998 10.155,20.237 4.242,73.12 35.996,61.992 1.694,25.358 -5.152,42.176 -27.997,42.995 -2.965,26.86 31.544,25.507 43.994,12.999 v 18.998 c 69.408,-1.971 140.84,9.25 183.978,39.995 22.046,6.762 43.059,14 61.992,4.999 18.139,-8.622 30.583,-32.831 33.996,-54.993 -4.69153,-39.46534 -58.15532,-18.83664 -61.992,-48.994 -21.748,5.374 -51.172,8.451 -61.992,-8.999 -29.081,3.235 -56.723,22.81 -79.99,2 -1.595,-4.405 -5.091,-6.907 -7.999,-9.999 -28.883,-1.338 -62.939,11.122 -81.99,-4 -13.046,-10.355 -17.12367,-20.52467 -17.87067,-43.86667 5.781,-18.549 16.85967,-31.80033 13.87067,-59.12033 -7.43675,-12.68493 -16.75238,-13.36651 -25.997,-14.999 1.936,-15.911 13.963,-28.672 30.996,-25.997 7.104,1.116 11.14,8.681 18.998,8.999 -1.954,-19.329 -18.455,-32.252 -37.995,-24.997 -6.1125,-67.884003 81.46946,-75.980447 91.988,-15.998 4.569,28.45 -6.995,43.988 -15.998,56.993 -23.22136,36.17932 -57.20194,72.32358 -37.995,90.99 13.805,8.582 42.04,6.189 59.992,4.999 -1.58358,-19.77107 15.01642,-46.22645 17.998,-61.993 3.781,-23.545 -11.168,-36.854 -27.996,-25.997 -4.609,-28.596 23.801,-43.563 43.994,-28.997 C 531.026,97.9 518.158,91.77 499.944,90.986 c 2.514,-33.456 56.631,-55.956 79.99,-24.997 3.03,6.968 4.96,15.037 3.999,25.997 -8.701,34.294 -33.817,52.171 -43.994,84.99 15.69844,-6.38619 35.12514,-21.69156 36.995,-35.996 9.61597,20.47778 2.45617,40.63658 -9.998,54.994 -10.367,11.554 -27.85,16.538 -32.996,32.996 11.102,6.172 32.404,1.756 45.994,1 2.59755,-23.22569 17.65078,-47.86574 21.997,-66.992 -2.803,-12.195 -6.112,-23.884 -19.997,-24.997 2.453,-13.699 12.879,-25.557 26.996,-25.997 11.217,-0.35 14.452,7.306 22.997,11.999 2.221,-23.499 -19.608,-34.588 -37.995,-27.997 4.237,-20.477 25.718,-46.808 55.993,-44.994 20.834,1.248 38.599,15.42 33.995,43.995 -14.199,34.46 -41.913,55.408 -55.992,89.989 16.381,-3.616 26.581,-13.414 33.995,-25.997 22.85245,39.16391 -42.65776,56.73756 -37.995,72.992 8.616,2.937 21.67,6.024 31.996,4 10.804,-18.86 23.236,-36.09 35.995,-52.994 2.338,-18.335 -2.253,-29.742 -17.997,-29.996 0.6,-10.279 11.298,-22.257 18.997,-23.997 19.251,-4.351 25.743,10.991 30.996,24.997 8.875,-5.44 12.104,-20.372 7.999,-32.996 -6.345,-10.848 -25.779,-12.285 -37.995,-8.999 4.542,-21.356 19.421,-38.995 41.995,-41.995 27.131,-3.606 45.59453,12.835334 53.993,31.996 6.42931,14.66815 -5.687,32.309 -9.999,46.994 9.42497,-1.38629 18.86452,-21.68832 22.997,-22.998 4.726,10.939 10.19384,26.84322 6.999,39.995 -2.47044,10.16972 -11.06847,18.94214 -18.997,24.997 -17.757,12.971 -44.191,14.152 -68.991,19.998 -13.284,7.713 -25.554,16.441 -31.996,30.996 38.968,15.265 65.031,49.564 55.993,101.987 -1.613,9.356 -11.466,23.898 -15.998,30.996 -7.969,12.479 -13.352,20.444 -23.997,29.996 -15.485,13.895 -34.965,23.314 -59.993,19.998 6.602,25.474 0.444,51.909 2,82.99 6.911,14.419 35.681,6.981 49.994,13.998 12.129,8.202 16.725,23.937 25.996,34.995 13.847,0.521 18.665,-8.215 20.998,-13.998 9.792,10.197 7.095,23.889 6.999,40.995 -7.508,6.491 -14.974,13.022 -27.997,13.999 -5.562,13.102 -10.959,26.369 -23.997,31.996 1.221,17.664 -7.919,31.6 -28.996,31.996 -1.322,4.04 1.638,14.617 1,25.996 23.91,3.752 40.475,14.852 49.994,32.996 2.088,3.577 -2.02386,9.03013 2.86514,9.80713 49.36888,-55.83563 82.02915,-150.70071 83.10018,-208.28455 6.16092,-178.05041 14.83481,-336.34494 18.8249,-495.411059 z M 263.967,112.986 c -12.118,-1.82 -22.311,-10.565 -29.996,1 4.175,12.488 26.064,10.082 29.996,-1 z m 55.993,4.999 c -3.828,-4.171 -8.577,-7.421 -13.998,-9.999 -4.799,2.2 -10.517,3.482 -13.999,7 2.264,10.933 21.702,8.829 27.997,2.999 z M 211.974,227.972 c 23.519,-2.494 28.786,18.504 42.995,21.997 12.712,-36.483 -35.38,-55.702 -42.995,-21.997 z m 231.60061,359.954 c -5.662,35.54 -50.27761,21.986 -55.62361,-1.999 23.28,6.659 41.525,-5.551 41.995,-27.997 -5.183,0.15 -6.022,4.644 -8.999,7 -17.397,12.651 -42.087,3.561 -44.994,-15.998 -2.445,-16.449 9.918,-32.258 23.997,-33.996 -4.06,2.967 -1.792,13.568 0,16.998 24.667,11.475 31.882,-6.566 44.994,-19.998 13.054,-13.371 27.425,-21.932 40.995,-32.996 -51.785,-5.09 -83.093,27.536 -125.984,37.996 1.838,15.836 -4.438,23.559 -10.999,30.996 -1.163,1.836 -6.525,-0.525 -5,4 3.298,2.906 9.115,-0.174 11.999,-1 2.005,15.002 -6.054,19.942 -9.999,28.996 1.35,3.498 7.521,-1.627 7.999,1 -3.989,2.676 -1.15,12.182 -2,17.998 -3.427,10.902 -15.942,16.49 -27.997,12.998 -0.485,23.92 14.685,41.374 6,66.991 5.658,19.171 -7.788,35.165 -23.997,38.995 1.766,27.43 -6.648,44.68 -6,70.991 4.768,9.054 10.856,20.081 22.997,19.997 9.918,-0.068 12.478,-6.568 18.998,-12.998 4.71201,-17.58169 -1.63639,-28.05 -4,-48.994 -1.708,-17.727 -0.137,-35.619 9.999,-43.994 -0.99023,-10.37768 -0.67598,-15.46908 0,-24.997 9.955,-8.62 16.111,-23.331 31.996,-24.997 10.192,-1.068 20.15,3.825 31.996,0 8.42862,-13.17106 52.97557,-39.69406 43.995,-56.992 -4.19088,-6.3995 -1.78156,-8.40144 -12.36739,-8 z M 543.932,610.924 c 10.007,1.693 21.194,-2.106 29.997,-7 1.291,-3.957 -3.292,-2.041 -2,-5.998 15.854,2.048 19.169,-28.412 7.999,-34.996 0.357,21.41 -13.38,39.709 -33.996,38.995 -18.36156,-7.67932 -23.94402,-35.41074 -12.998,-46.994 2.483,2.849 5.131,5.534 6.999,8.999 6.91,1.578 7.295,-3.371 11.999,-4 2.193,-18.857 -3.227,-30.104 -6,-43.994 -2.355,0.022 -2.943,-1.723 -5.999,-1 -37.53758,26.43333 -34.27102,84.26292 3.999,95.988 z M 259.967,582.928 h -2 c -8.102,21.227 -14.362,44.297 -19.998,67.99 8.055,2.557 17.458,-0.845 23.997,-2.999 7.746,-15.534 3.02,-43.933 2,-62.992 -3.235,1.235 -0.763,-3.236 -3.999,-1.999 z m 317.961,25.996 c -4.035,24.295 -17.485,39.174 -43.994,40.995 -2.731,26.722 -34.873,34.117 -43.994,10.999 -13.387,4.125 -11.46,15.231 -10,30.996 17.258,2.412 24.315,17.955 31.996,30.995 6.496,11.027 3.121,29.085 4,46.994 2.46628,17.29039 2.17833,24.39931 13.998,37.996 16.629,4.228 24.725,-5.324 27.996,-15.998 5.787,-18.875 -5.927,-47.18 -1.999,-67.992 0.901,-4.776 5.254,-8.643 5.999,-12.998 -15.45933,-15.15222 4.38056,-49.42863 12.998,-55.993 9.687,-6.979 20.929,-4.749 28.997,-10.998 9.635,-7.465 14.633,-26.221 9.998,-39.996 -8.904,7.738 -21.994,9.417 -35.995,5 z"
       clip-rule="evenodd"
       inkscape:connector-curvature="0"
       style="fill:#fcdb00;fill-opacity:1;fill-rule:evenodd"
       sodipodi:nodetypes="ccccccscccccccccccccccccccccccccccccccccccccccccccccccccccccccccccccccccccccccccccccccccccccccccaccacccscscccccccccccccccccccccccccccccccccccccccccccccccccccccccccccccccccccccccccccccccccccc" />
    <path
       id="path2995"
       d="m 417.948,139.982 c 13.751,24.522 -10.276,57.754 -9.999,82.99 0.414,37.651 53.928,33.828 89.988,28.997 V 239.97 c -21.24,-0.424 -48.219,3.227 -65.992,-5 -5.161,-8.17 -9.825,-16.838 -7.999,-31.996 14.904,-45.423 61.265,-59.386 57.993,-122.984 -18.55767,-54.179146 -68.40877,-35.336022 -77.99,4.999 41.535,-7.021 48.716,37.372 31.996,61.992 1.883,-20.042 -26.687,-36.729 -37.995,-18.998 7.756,2.986 16.48,5.726 19.998,11.999 z m 103.98133,30.38157 c -2.35676,10.58227 -3.85033,16.69343 -7.99333,25.61243 -4.10386,9.22807 -5.27778,13.33622 -7.999,22.998 -1.066,10.486 -1.627,19.002 0,26.997 6.225,30.582 47.235,26.182 73.991,11.999 v -18 c -15.911,-1.206 -34.488,-2.926 -47.994,1 2.06,7.939 8.877,11.121 15.998,13.999 -18.012,0.347 -26.178,-9.151 -23.997,-28.997 14.71761,-27.58465 50.18846,-41.68321 51.993,-65.992 -15.46,13.536 -32.793,25.199 -47.994,38.995 0.703,-12.295 3.10043,-19.62974 7.62961,-32.87065 C 545.17899,137.99409 582.65,113.46 575.928,74.99 c -13.412,-24.609 -60.4,-14.104 -67.991,8.999 33.042,-1.644 43.573,32.936 28.997,53.994 -3.851,-8.194 -7.675,-17.902 -18.998,-18.998 -9.327,-0.902 -16.209,4.301 -19.998,12.998 20.138,0.193 28.69351,17.26693 23.99133,38.38057 z M 587.927,247.969 c 3.939,24.984 35.296,33.794 59.992,20.997 -0.93,-10.595 1.772,-17.558 4,-24.997 -9.156,-1.434 -22.279,-3.365 -31.996,-1 -1.695,11.027 5.337,13.327 9.998,17.998 -8.441,-0.575 -13.507,-3.392 -15.998,-7.999 -5.141,-9.508 0.579,-15.572 2,-19.998 3.106,-9.676 7.606,-16.018 14.998,-21.997 5.479,-4.433 13.596,-7.072 18.998,-11.999 7.64584,-6.40603 18.65195,-22.51416 11.998,-30.996 -12.44912,19.19534 -36.47313,29.62969 -47.994,45.995 2.544,-9.767 2.865,-21.077 6,-29.996 4.4866,-10.04301 6.72696,-16.95436 11.998,-23.998 10.04724,-17.18051 37.46513,-45.89216 41.995,-62.993 10.01589,-51.912309 -51.62391,-44.363843 -67.992,-13.998 17.742,-0.744 25.593,8.403 31.996,18.998 0.702,19.033 -0.145,36.517 -11.998,42.995 1.165,-12.83 -7.639,-15.692 -13.998,-20.998 -9.472,-0.806 -14.678,2.653 -19.998,6 46.742,27.369 -15.183,75.42 -3.999,117.986 z M 799.9,140.982 c -8.603,7.437 -13.71,16.974 -24.997,22.997 -18.93296,12.55273 -47.09495,19.04515 -48.994,18.998 20.818,-24.176 58.536,-31.452 55.993,-78.99 -5.205,-12.135 -14.809,-21.874 -29.996,-23.997 -23.003,-3.216 -42.319,8.556 -49.994,22.997 25.387,-4.226 40.62,9.015 41.995,31.996 -5.298,13.367 -12.842,24.487 -25.997,29.997 5.702,-24.803 -25.826,-36.867 -35.995,-18.998 16.138,2.822 21.493,14.425 19.997,26.997 -3.94406,14.86604 -15.41361,26.75018 -23.997,35.996 -2.053,2.508 -5.138,7.708 -7.999,11.999 -15.76285,24.82777 -17.39278,40.17191 -9.998,60.993 19.45071,12.35237 46.209,2.664 55.992,22.997 4.224,8.776 3.906,19.545 4,32.996 -7.789,28.666 -29.348,51.472 -59.992,54.993 -3.854,0.443 -8.788,0.596 -12.999,0 -27.979,-3.96 -46.515,-18.646 -70.991,-27.996 -11.87,-4.535 -25.422,-6.949 -38.994,-9.999 -33.217,-7.464 -70.163,-16.022 -108.987,-7.999 -0.113,1.22 -0.299,2.368 -2,2 -3.652,21.354 -21.58,32.606 -43.995,31.996 -5.521,16.835 5.157,32.129 19.998,34.996 -6.806,16.286 -32.455,19 -49.994,10.999 1.158,11.506 10.406,14.924 19.998,17.998 -13.62,15.767 -47.805,16.717 -69.991,7.999 -6.582,23.414 -22.335,37.658 -39.995,49.994 2.583,44.41 8.997,84.991 11.999,128.983 -3.861,9.471 -4.878,21.786 -12.999,26.997 -9.499,2.832 -25.213,-0.55 -30.996,5.999 3.191,3.808 7.361,6.638 7.999,12.998 6.534,1.171 10.491,-4.076 15.998,-3.999 8.705,0.121 10.842,6.044 15.998,11.998 9.186,-2.891 24.177,0.443 25.997,10.999 18.656,-1.009 15.053,-24.276 31.996,-26.997 -2.956,-24.287 -14.285,-39.6 -9.999,-71.99 -2.311,-3.047 -3.601,-12.365 -3,-14.998 7.702,4.299 7.444,20.445 18.998,20.996 6.69,0.32 13.025,-4.304 13.998,-13.998 -15.988,-4.678 -27.708,-18.949 -28.997,-34.995 4.119,7.798 13.889,23.119 24.997,14.998 1.927,-1.409 1.918,-5.284 4,-7.999 -20.09,-0.909 -21.027,-26.297 -24.997,-39.995 6.18,7.151 8.524,18.14 22.997,16.998 2.302,-4.364 6.652,-6.68 7.999,-11.999 -28.071,-1.258 -19.912,-38.746 -35.995,-51.993 13.967,3.364 16.179,18.483 21.997,29.997 55.325,6.419 91.852,-38.097 146.982,-37.996 39.59742,3.71768 55.21528,22.19693 68.991,57.993 5.392,14.328 6.854,36.458 -3,46.994 -6.134,3.37 -11.527,2.712 -18.997,0.999 -1.885,10.242 4.959,16.82 9.998,17.998 23.457,5.482 35.558,-25.022 28.996,-45.994 18.037,7.258 30.215,48.089 7,56.993 11.086,7.497 25.607,-0.595 29.996,-8.999 1.637,-14.969 -2.569,-24.094 -7.999,-31.996 13.08244,6.5199 21.85026,23.7045 23.997,35.996 1.309,8.707 -0.981,18.843 0,27.996 3.24327,29.03533 -48.02847,38.33764 -49.994,45.994 2.27,4.73 7.385,6.613 11.999,8.999 8.2487,-18.78732 24.78512,-3.02527 33.995,3.999 2.049,-12.793 17.501,-14.189 27.997,-7.998 1.516,-8.15 11.606,-7.725 17.997,-10.999 -0.481,-7.529 -7.081,-14.232 -2.999,-22.997 4.479,14.046 30.682,12.702 30.996,-4 -29.003,4.91 -25.271,-36.702 -11.999,-46.994 1.065,8.453 -3.976,10.232 -3.999,15.998 -0.042,10.465 10.363,18.459 19.997,16.998 7.688,-1.166 15.917,-11.648 15.998,-20.997 -25.219,-0.065 -28.293,-32.886 -18.997,-52.993 1.354,0.979 1.295,3.37 2.999,3.999 -7.328,37.202 34.575,47.454 45.995,24.997 V 561.93 c -5.278,0.137 -9.376,6.092 -15.998,6 -21.287,-0.297 -20.07,-36.899 -41.995,-40.996 -11.964,-2.234 -21.884,0.688 -29.996,-1.999 -9.176,-3.039 -11.983,-9.785 -17.998,-18.998 2.47624,-48.34061 5.46963,-82.00062 -25.997,-108.986 12.959,3.622 18.786,14.732 29.997,17.998 38.307,11.16 60.096,-27.462 79.989,-41.995 28.54019,-48.04446 14.07859,-112.64409 -37.995,-118.985 v 17.998 c 3.923,1.744 7.818,3.514 9.999,7 -14.739,-1.926 -19.384,-13.945 -17.998,-31.996 8.01949,-17.69638 13.30047,-27.5929 26.997,-37.996 15.719,-11.562 39.563,-11.486 58.992,-17.998 15.98441,-1.13166 54.52847,-39.29197 35.996,-49.995 z M 152.981,463.941 c 47.737,-1.921 33.171,-84.232 70.991,-98.987 -0.697,6.302 -5.701,8.297 -9.999,10.999 -4.463,13.256 -10.891,27.13 -13.998,42.995 -5.059,25.829 -8.998,51.125 -27.997,63.992 16.573,4.954 33.461,3.08 43.995,-4 10.051,-6.754 13.891,-14.794 19.998,-22.996 3.37,-28.001 2.574,-52.457 9.999,-72.991 -5.662,36.333 6.075,90.063 -13.998,111.985 32.817,2.331 60.314,-17.559 59.992,-54.993 -5.909,-16.016 -8.924,-44.3 -3,-62.992 -11.18215,46.29588 34.66624,79.91025 62.993,65.992 -5.903,-10.164 -15.805,-17.643 -17.998,-29.997 -3.478,-19.595 3.896,-48.36 2,-63.992 -0.609,-5.021 -1.246,-13.339 2,-15.998 v 12.998 c 4.509,10.156 0.782,28.548 2,41.995 2.074,23.909 19.163,37.055 45.994,32.996 -9.679,-7.652 -14.936,-19.726 -13.998,-37.995 0.75825,-18.65811 -7.7851,-47.58103 -8.999,-65.992 2.52,4.146 3.907,9.425 6.999,12.999 1.132,17.533 5.187,32.142 15.998,39.995 24.585,0.255 33.56,-15.101 35.996,-36.995 -20.134,6.463 -38.461,3.909 -41.995,-15.998 -1.566,-8.823 0.98,-19.032 0,-28.997 -0.804,-8.169 -5.011,-15.093 -3,-21.997 5.722,10.61 5.42,27.243 22.998,25.997 5.479,-5.186 10.471,-10.86 11.999,-19.998 -33.751,1.878 -25.993,-29.532 -31.996,-51.993 -3.432,-12.841 -13.741,-30.144 -24.997,-31.996 -5.738,4.49 -16.784,14.304 -24.997,6.999 7.984,-2.681 13.969,-7.362 19.997,-11.999 3.895,-10.816 0.865,-21.527 -2,-30.996 -11.404,-10.301 -33.909,-7.266 -40.995,5 -22.609,8.411 -58.913,-8.367 -74.99,5.999 v 11.999 c -22.882,6.733 -37.253,-12.802 -55.993,-6.999 -1.535,8.201 2.505,10.827 5.999,13.998 -16.14977,6.31505 -20.26442,22.32454 -9.998,29.997 13.25533,9.63141 30.056,4.001 43.995,-5 4.951,-3.197 6.452,-7.112 11.999,-7.999 27.989,-4.474 40.663,19.328 37.995,50.994 -4.709,8.278 -5.904,16.876 -14.998,18.998 -20.336,4.745 -50.927,-18.743 -66.992,0 9.232,3.1 10.101,14.563 17.998,18.998 11.143,1.064 19.012,-8.701 29.997,-9.999 13.112,-1.549 26.221,2.953 37.995,-4 2.863,-6.593 10.25,-9.896 11.999,-18.998 2.521,-13.131 -0.157,-28.593 1,-40.995 4.114,11.651 9.897,23.876 6.999,39.995 -0.972,5.403 -8.479,20.051 -13.999,24.997 -13.138,11.772 -36.781,6.472 -55.993,16.998 -21.467,11.761 -26.065,36.068 -55.993,28.997 2.841,11.003 14.437,17.562 24.997,17.998 26.457,1.092 37.898,-35.471 60.992,-35.996 -2.144,4.188 -7.633,5.033 -11.999,7 -4.526,5.804 -9.726,10.064 -12.999,14.998 -3.552,5.355 -9.635,11.237 -13.998,14.998 -11.14,9.601 -24.403,11.749 -36.996,20.998 -28.192,20.707 -19.18,70.343 -45.994,93.989 8.558,2.459 15.541,5.376 24.995,4.995 z m 182.977,-311.96 c 17.07879,8.60518 13.20518,35.70341 -5.999,30.997 18.1313,-15.44542 4.01975,-27.96151 -11.998,-21.998 -0.758,-8.652 10.848,-11.749 17.997,-8.999 z m -58.993,30.996 c -7.182,9.582 -21.553,19.232 -32.996,6 -3.72372,-6.82548 -4.05536,-12.61035 -2,-17.998 15.993,-16.224 33.588,5.992 47.994,9.999 -1.339,5.883 -7.604,0.756 -12.998,1.999 z m 230.972,396.951 c -6.191,-34.531 11.062,-59.3 29.996,-74.99 -3.776,-8.074 -12.132,-16.914 -19.997,-20.998 -14.037,-7.289 -22.006,-0.258 -32.996,6.999 -11.846,7.823 -27.224,19.537 -37.995,29.997 -3.805,3.693 -5.753,5.818 -8.999,8.998 -4.383,4.292 -12.268,11.081 -16.998,12.998 -14.546,5.896 -28.414,-2.912 -32.996,-13.998 -3.712,3.954 -4.541,10.791 -4,18.998 3.601,3.024 3.243,7.852 5.999,9.998 17.333,13.5 39.203,-9.25 45.994,-18.997 -0.877,24.575 -2.444,49.188 -22.997,53.993 -3.712,0.868 -11.446,-2.302 -14.998,2 27.1121,23.2705 41.5319,-1.86999 44.995,-22.997 4.665,12.384 24.567,16.419 20.996,33.995 -2.49,12.264 -16.909,20.121 -25.996,30.996 -4.994,5.978 -11.099,17.31 -16.998,20.998 -14.394,8.998 -43.475,-1.787 -52.993,9.998 4.777,2.889 4.337,10.994 9.999,12.999 2.427,-1.905 2.681,-5.984 5,-7.999 8.25,-6.068 15.482,2.117 20.998,4.999 7.853,-7.786 26,-9.896 29.996,3 17.191,-0.142 26.936,-7.728 37.996,-13.999 5.898,-15.764 18.279,-25.048 29.996,-34.995 -0.061,10.271 -5.059,15.605 -4,26.997 7.851,10.449 27.145,7.835 27.996,-7 -16.264,0.523 -17.641,-24.473 -7.998,-32.995 3.359,13.971 9.12,25.542 27.996,23.997 9.395,-6.271 18.607,-12.723 21.998,-24.997 -36.431,7.617 -46.34,-19.544 -59.994,-37.995 z m -277.966,71.99 c 4.645,-18.957 11.105,-41.795 15.998,-57.992 4.64317,-11.67702 11.44337,-29.8949 13.999,-30.996 1.708,-21.372 -5.236,-34.092 -4,-54.993 -7.566,-1.149 -21.4033,0.64998 -31.7823,-0.094 -12.50927,42.25223 -21.62281,97.25471 -38.2097,135.07702 -13.25908,6.23707 -45.26272,17.81757 -43.995,27.996 3.312,3.354 9.159,4.173 7.999,11.998 h 4.999 c 2.166,-12.033 26.067,-19.568 28.997,-2.999 6.9,1.997 16.729,-0.191 23.997,-1 5.927,-10.405 9.718,-22.945 21.998,-26.997 z m -13.998,44.995 c 15.2732,-4.23841 17.998,-6.86756 17.998,-20.997 -11.927,-14.03 -25.233,7.232 -17.998,20.997 z m 135.983,-12.999 c 1.62191,7.98847 3.77924,18.31503 10.999,18.998 4.27552,-0.66226 6.63152,-15.07054 7,-17.998 1.327,-16.314 -14.891,-13.226 -17.999,-1 z m 303.962,-2.999 c 4.249,1.749 3.272,8.726 5.999,11.999 6.87,-1.13 6.083,-9.916 5.999,-17.998 -6.313,-3.342 -8.456,3.518 -11.998,5.999 z m -475.94,-2 c -18.445,-17.415 -29.448,26.123 -6,24.997 -1.14,-11.473 6.534,-14.131 6,-24.997 z m 205.974,23.997 c 6.578,-5.42 16.041,-7.956 13.999,-21.997 -10.86,-15.412 -24.998,12.981 -13.999,21.997 z m 21.997,-11.998 c 1.689,2.31 2.59,5.408 2,9.998 6.597,2.837 9.822,-4.299 15.998,-4.999 1.226,-4.774 2.845,-9.153 2,-15.998 -8.079,-10.056 -18.053,2.706 -19.998,10.999 z m 63.992,-13.998 c -16.607,-4.604 -12.467,16.682 -1,17.997 6.096,-4.651 -0.263,-9.809 1,-17.997 z m -325.959,0.999 c -15.248,-6.196 -21.967,32.37 0,26.997 -3.614,-7.33 -1.503,-17.176 2,-22.998 -1.03367,-3.09735 -0.67615,-2.75876 -2,-3.999 z m 417.948,5.999 v 17.998 c 5.203,1.796 2.762,11.236 11.998,8.999 1.608,-9.058 5.831,-15.499 4,-27.997 -4.308,-7.81 -12.352,-6.211 -15.998,1 z m 29.996,-2.999 c -1.614,12.279 2.522,18.808 5.999,25.997 24.517,1.156 15.058,-43.191 -5.999,-25.997 z m 33.996,0 c -2.977,10.667 -2.02,21.345 5.999,25.997 5.233,-3.434 10.022,-7.309 11.998,-13.998 -1.13,-8.808 -8.658,-20.56 -17.997,-11.999 z m -385.952,5.999 c -0.37357,5.62265 -1.19691,18.26561 2,19.998 8.377,-1.621 13.616,-6.383 19.997,-9.999 3.344,-16.796 -15.264,-19.735 -21.997,-9.999 z m 81.989,-3 c -8.998,1.044 -20.167,18.416 -8.999,23.998 6.01,-4.656 8.671,-12.66 10.999,-20.998 -1.795,0.129 -2.34,-0.992 -2,-3 z m -53.993,31.996 c 13.014,-0.457 23.165,-10.563 19.998,-20.997 -14.428,-10.314 -28.271,5.521 -19.998,20.997 z"
       clip-rule="evenodd"
       inkscape:connector-curvature="0"
       style="fill:#da251d;fill-opacity:1;fill-rule:evenodd;stroke:none;stroke-width:2.83644;stroke-miterlimit:4;stroke-dasharray:none;stroke-opacity:1"
       sodipodi:nodetypes="cccccccccccsccccccccccscccccscccccsccccccccccccccccccccccccccccccsccccccccccccccccccccccccccccccccccccccccccccccccccsccccccccccccccccccccccccccccccccsccccccccccccccsccccccccccsccccccccccccccccccccccccccccccccscccccccccccccccccccccccccccccccccccccccccccccccccccccccccccccccccccccccccccccccccccccccccccc" />
    <path
       id="path2997"
       d="m 197.975,241.97 c 0.385,2.615 3.206,2.793 2,6.999 19.206,0.792 30.43,9.564 45.994,13.999 -5.91,-11.75 -19.327,-22.271 -33.996,-23.997 -11.34744,-4.46398 -21.06244,0.69099 -27.997,4 -0.997,4.33 1.117,5.549 2,7.999 6.577,-0.424 5.422,-8.578 11.999,-9 z m 9.999,-128.984 c 13.602,-2.357 13.354,1.957 15.998,10.999 2.482,8.488 10.099,18.068 11.999,24.997 21.292,1.769 46.849,4.391 67.991,3 3.725,-10.606 15.326,-13.337 25.997,-16.998 1.868,-10.13 4.851,-19.146 11.998,-23.997 6.027,11.367 24.445,0.753 19.998,-13.999 -2.86081,-7.138437 -9.78189,-3.564325 -13.999,-4.999 8.30861,-8.737819 10.95653,-28.721613 -2,-35.996 -4.886,10.41 -18.489,18.342 -11.998,33.996 -4.115,1.141 -10.676,-0.176 -13.999,1 2.379,0.725 -6.828,6.251 -5.999,11.999 1.822,7.51 11.228,7.437 17.998,9.999 -10.34831,28.50685 -56.15884,23.32358 -52.993,-4.999 10.777,7.152 24.883,0.455 20.997,-15.998 -7.99561,-9.076907 -13.00046,-4.618894 -13.998,-6.999 7.277,-10.021 2.418,-25.513 -4,-32.996 -14.272,1.576 -20.085,20.811 -11.999,32.996 -23.516,-3.666 -26.694,28.784 0,23.997 0.38067,16.30444 -5.43007,19.1565 -13.998,22.998 -15.659,3.722 -25.982,-6.519 -29.996,-21.997 21.601,2.795 16.85911,-25.542049 5.70911,-23.310049 -3.05781,0.874507 -5.36052,1.205633 -5.70911,0.313049 6.442,-15.265 -2.283,-30.449 -13.998,-33.996 -12.18199,14.414421 -4.76372,31.662274 0,35.996 -12.651,1.431 -15.784,18.986 -3.999,23.994 z m -31.996,132.983 c -36.79354,13.31539 -72.07895,-6.36964 -61.86665,-44.24754 -73.604051,52.54382 4.38531,109.54894 59.86665,57.24654 -0.746,-5.746 0.589,-9.41 2,-12.999 z m 537.933,497.03202 c -5.896,-31.487 -30.601,-39.3 -63.992,-36.995 -4.804,5.861 -9.61,11.62698 -15.998,15.90398 -7.049,-0.618 -7.281,-8.051 -11.999,-10.999 -12.035,-0.704 -12.29,10.373 -21.997,11.998 -11.01564,-12.03393 -17.53011,-3.24564 -25.996,2 -6.41711,7.15242 -10.902,11.096 -9.999,22.997 6.42439,39.27818 19.45465,84.04246 -27.996,78.991 -29.427,2.276 -35.916,-20.92 -31.996,-46.994 4.809,-31.99 -2.042,-59.696 -25.997,-68.991 -17.00922,-8.0234 -47.96519,-9.38788 -65.992,5.999 -2.323,-4.691 -7.84874,-7.11796 -15.998,-6.999 -5.63695,0.40951 -9.29539,6.9016 -10.999,7.999 -3.368,0.369 -1.795,-4.203 -4.999,-4 -24.157,1.639 -33.64,30.139 -27.997,58.993 8.34556,21.6535 -11.18391,51.83713 -29.996,55.993 -19.474,0.721 -31.406,-7.407 -33.996,-21.997 -2.573,-14.5 6.545,-29.91 7.999,-44.995 1.558,-16.16 -1.029,-30.695 -9.999,-38.995 -6.349,1.983 -11.114,5.552 -17.998,7 -1.387,-6.612 -6.312,-9.687 -5.999,-17.998 -7.858,-2.359 -12.208,6.096 -16.998,9.999 -5.365,-4.301 -10.428,-8.903 -10.999,-17.998 -7.363,-3.604 -10.162,3.959 -12.999,7.999 -6.83,3.759 -10.194,-13.538 -16.998,-15.998 -16.53097,-2.55206 -24.30032,4.0275 -23.997,19.09102 -5.961,0.188 -8.91,-2.659 -15.998,-1 -0.731,-2.934 -3.765,-3.566 -5.999,-4.999 -12.034,5.632 -18.66246,19.66364 -21.44946,34.54164 99.06009,111.6913 214.11817,131.09134 287.67756,130.92332 135.33635,0.59168 235.55928,-63.87969 289.7039,-131.46996 z"
       clip-rule="evenodd"
       inkscape:connector-curvature="0"
       style="fill:#005198;fill-opacity:1;fill-rule:evenodd"
       sodipodi:nodetypes="ccccccccsccccccccccccccccccccccccccccccccccccccccccccccccccccccccccc" />
  </g>
</svg>
