<svg xmlns="http://www.w3.org/2000/svg" width="701.33" height="741.77" viewBox="0 0 701.3341 741.76859"><g transform="translate(-14.589-47.14)"><path d="m20.269 52.639l13.398 416.62c7.415 175.25 153.92 314.05 331.59 314.14 177.51-.215 324.07-139.06 331.59-314.14l13.398-416.62h-344.98z" fill="#f00" fill-rule="evenodd"/><g stroke="#000" stroke-width="11"><path d="m5.727 6.953l7.385 229.64a1068.1005 1068.1005 0 0 1 479.26562 468.07226c65.982-30.968 120.18-82.8 153.61-146.99a1274.3097 1274.3097 0 0 0 -640.25977 -550.7207z" transform="translate(14.589 47.14)" fill="#fff" stroke-linejoin="round" stroke-linecap="round"/><path d="m20.269 52.639l13.398 416.62c7.415 175.25 153.92 314.05 331.59 314.14 177.51-.215 324.07-139.06 331.59-314.14l13.398-416.62h-344.98z" fill="none" fill-rule="evenodd"/></g></g></svg>