<?xml version="1.0" encoding="UTF-8" standalone="no"?>
<!-- Created with Inkscape (http://www.inkscape.org/) -->
<svg
   xmlns:svg="http://www.w3.org/2000/svg"
   xmlns="http://www.w3.org/2000/svg"
   version="1.0"
   width="460.47101"
   height="615.875"
   id="svg6355">
  <defs
     id="defs6357" />
  <path
     d="M 460.471,2.8421709e-14 C 460.471,2.8421709e-14 460.061,66.612 460.061,426.028 C 460.061,426.028 443.994,615.875 232.492,615.875 C 19.454,615.875 1.23,429.309 1.23,429.309 L 0,0.411 L 460.471,2.8421709e-14 z"
     id="path6333" />
  <path
     d="M 445.71,21.453 C 445.71,21.453 445.328,83.795 445.328,420.159 C 445.328,420.159 430.375,597.833 233.563,597.833 C 35.324,597.833 18.365,423.231 18.365,423.231 L 17.221,21.837 L 445.71,21.453 z"
     id="path6335"
     style="fill:#ffd404" />
  <path
     d="M 138.592,415.232 L 128.172,415.232 L 128.207,97.313 C 128.207,97.313 128.034,84.316 130.529,76.676 C 133.024,69.036 139.96,56.036 139.96,56.036 C 139.96,56.036 118.638,61.982 112.795,91.914 C 106.952,121.847 109.31,141.733 109.31,141.733 C 109.31,141.733 83.683,116.823 71.791,120.309 C 64.593,122.42 57.748,136.096 66.768,156.289 C 71.346,166.534 64.513,183.659 64.513,183.659 C 64.513,183.659 71.893,179.969 76.814,170.948 C 81.734,161.927 80.812,153.419 80.812,153.419 C 80.812,153.419 97.931,151.369 106.337,174.741 C 106.462,175.09 106.849,174.741 106.849,174.741 L 106.849,226.815 C 106.849,226.815 66.768,190.219 58.362,213.899 C 54.845,223.807 59.387,229.275 64.513,236.656 C 69.638,244.037 62.053,269.356 62.053,269.356 C 62.053,269.356 71.791,268.434 75.687,257.465 C 79.583,246.496 78.455,238.809 78.455,238.809 C 78.455,238.809 88.091,234.298 101.519,255.21 C 101.865,255.751 102.339,255.107 102.339,255.107 L 102.442,325.633 C 102.442,325.633 59.388,292.01 55.288,321.327 C 54.208,329.056 57.963,331.033 62.054,339.574 C 67.897,351.772 59.901,371.044 59.901,371.044 C 59.901,371.044 66.84,369.573 72.032,358.913 C 77.225,348.252 76.27,340.188 76.27,340.188 C 76.27,340.188 88.295,336.774 98.957,358.778 L 99.777,358.913 L 99.915,415.226 L 87.873,415.226 C 75.265,415.226 65.046,425.445 65.046,438.05 C 65.046,450.658 75.275,460.349 87.873,460.877 C 90.311,460.98 89.389,467.015 89.389,470.722 C 89.389,483.33 99.608,493.549 112.216,493.549 C 124.821,493.549 135.04,483.33 135.04,470.722 C 135.04,466.762 134.288,460.977 137.978,460.98 C 150.583,460.99 161.417,450.663 161.417,438.053 C 161.417,425.451 151.198,415.232 138.592,415.232 z M 88.773,450.016 C 71.849,450.016 71.849,423.773 88.773,423.773 C 105.696,423.772 105.696,450.016 88.773,450.016 z M 111.735,483.843 C 94.812,483.843 94.812,457.601 111.735,457.601 C 128.659,457.601 128.659,483.843 111.735,483.843 z M 138.592,451.04 C 121.669,451.04 121.669,424.798 138.592,424.798 C 155.516,424.798 155.516,451.04 138.592,451.04 z M 382.975,411.952 L 372.554,411.952 L 372.589,94.033 C 372.589,94.033 372.416,81.036 374.911,73.396 C 377.406,65.756 384.342,52.756 384.342,52.756 C 384.342,52.756 363.021,58.702 357.177,88.634 C 351.334,118.567 353.692,138.453 353.692,138.453 C 353.692,138.453 328.065,113.543 316.174,117.029 C 308.976,119.14 302.13,132.815 311.151,153.009 C 315.729,163.254 308.896,180.379 308.896,180.379 C 308.896,180.379 316.277,176.689 321.197,167.668 C 326.118,158.647 325.195,150.139 325.195,150.139 C 325.195,150.139 342.314,148.089 350.719,171.461 C 350.844,171.811 351.232,171.461 351.232,171.461 L 351.232,223.536 C 351.232,223.536 311.151,186.94 302.746,210.62 C 299.228,220.528 303.77,225.996 308.896,233.377 C 314.021,240.758 306.436,266.077 306.436,266.077 C 306.436,266.077 316.174,265.155 320.069,254.186 C 323.965,243.217 322.838,235.53 322.838,235.53 C 322.838,235.53 332.474,231.019 345.902,251.931 C 346.248,252.472 346.721,251.828 346.721,251.828 L 346.824,322.354 C 346.824,322.354 303.77,288.731 299.671,318.048 C 298.591,325.777 302.346,327.754 306.437,336.294 C 312.28,348.493 304.284,367.765 304.284,367.765 C 304.284,367.765 311.222,366.294 316.416,355.634 C 321.608,344.973 320.653,336.909 320.653,336.909 C 320.653,336.909 332.679,333.495 343.34,355.499 L 344.16,355.634 L 344.298,411.947 L 332.255,411.947 C 319.646,411.947 309.427,422.166 309.427,434.771 C 309.427,447.379 319.656,457.07 332.255,457.598 C 334.693,457.701 333.77,463.736 333.77,467.443 C 333.77,480.051 343.989,490.27 356.598,490.27 C 369.203,490.27 379.422,480.051 379.422,467.443 C 379.422,463.483 378.669,457.698 382.36,457.701 C 394.965,457.711 405.799,447.383 405.799,434.774 C 405.799,422.171 395.58,411.952 382.975,411.952 z M 333.154,446.735 C 316.231,446.735 316.231,420.492 333.154,420.492 C 350.078,420.492 350.078,446.735 333.154,446.735 z M 356.117,480.563 C 339.193,480.563 339.193,454.321 356.117,454.321 C 373.04,454.32 373.04,480.563 356.117,480.563 z M 382.975,447.76 C 366.051,447.76 366.051,421.518 382.975,421.518 C 399.897,421.518 399.897,447.76 382.975,447.76 z M 263.653,414.822 L 253.232,414.822 L 253.267,96.903 C 253.267,96.903 253.094,83.907 255.59,76.266 C 258.085,68.626 265.021,55.627 265.021,55.627 C 265.021,55.627 243.699,61.572 237.856,91.505 C 232.013,121.438 234.371,141.324 234.371,141.324 C 234.371,141.324 208.744,116.414 196.852,119.9 C 189.654,122.011 182.808,135.687 191.83,155.881 C 196.407,166.126 189.574,183.251 189.574,183.251 C 189.574,183.251 196.955,179.561 201.876,170.54 C 206.796,161.519 205.874,153.011 205.874,153.011 C 205.874,153.011 222.992,150.961 231.398,174.333 C 231.523,174.682 231.911,174.333 231.911,174.333 L 231.911,226.408 C 231.911,226.408 191.83,189.812 183.424,213.491 C 179.906,223.399 184.449,228.867 189.574,236.248 C 194.7,243.629 187.114,268.949 187.114,268.949 C 187.114,268.949 196.852,268.026 200.748,257.057 C 204.644,246.088 203.516,238.401 203.516,238.401 C 203.516,238.401 213.152,233.89 226.58,254.802 C 226.927,255.343 227.4,254.699 227.4,254.699 L 227.503,325.225 C 227.503,325.225 184.449,291.602 180.349,320.919 C 179.27,328.648 183.024,330.625 187.115,339.166 C 192.958,351.364 184.963,370.636 184.963,370.636 C 184.963,370.636 191.901,369.166 197.094,358.505 C 202.287,347.844 201.332,339.78 201.332,339.78 C 201.332,339.78 213.357,336.366 224.019,358.37 L 224.839,358.505 L 224.977,414.818 L 212.935,414.818 C 200.327,414.818 190.108,425.037 190.108,437.642 C 190.108,450.25 200.337,459.941 212.935,460.469 C 215.373,460.572 214.451,466.608 214.451,470.314 C 214.451,482.922 224.67,493.141 237.278,493.141 C 249.883,493.141 260.102,482.922 260.102,470.314 C 260.102,466.354 259.349,460.569 263.04,460.572 C 275.645,460.582 286.479,450.255 286.479,437.645 C 286.478,425.041 276.259,414.822 263.653,414.822 z M 213.834,449.605 C 196.91,449.605 196.91,423.363 213.834,423.363 C 230.758,423.363 230.758,449.605 213.834,449.605 z M 236.796,483.434 C 219.872,483.434 219.872,457.191 236.796,457.191 C 253.72,457.191 253.72,483.434 236.796,483.434 z M 263.653,450.63 C 246.729,450.63 246.729,424.388 263.653,424.388 C 280.577,424.388 280.577,450.63 263.653,450.63 z"
     id="path6337"
     style="fill-rule:evenodd" />
</svg>
