<?xml version="1.0"?>
<svg height="1074" width="806" xmlns="http://www.w3.org/2000/svg" xmlns:xlink="http://www.w3.org/1999/xlink">
<path d="m117.4 797.3c6.1 152.4 131.6 273.7 285.5 273.7s279.4-121.3 285.5-273.7l14.6-355.9h-600z"/>
<path id="a" fill="#fcdb00" d="m686 460.4-12.4 336c-4.9 145.2-124.2 261.6-270.6 261.6s-265.7-116.4-270.6-261.6l-12.4-336z"/>
<use width="1" xlink:href="#c" transform="translate(-120.1,441.4)" height="1"/>
<g id="f" transform="translate(.6)">
<g id="d" transform="translate(101.9,441.4)">
<path id="c" stroke="#000" stroke-width="3.306" d="m523.1 26.67c-19 0-34.4 15.41-34.4 34.4 0 19 15.4 34.4 34.4 34.4s34.4-15.4 34.4-34.4c0-18.99-15.4-34.4-34.4-34.4zm0 14.98c10.7 0 19.4 8.69 19.4 19.42s-8.7 19.43-19.4 19.43-19.4-8.7-19.4-19.43 8.7-19.42 19.4-19.42z" fill="#da251d"/>
<g stroke="#000" fill-rule="evenodd" fill="#da251d">
<g stroke-width="3.3">
<path d="m532.3 357.9v89.7c-2.7 12.4-10.6 25.3-26.4 29.5v-63.8"/>
<path d="m515.4 400.1v76.1c-2.7 12.4-10.1 20.6-26.4 25l-0.4-66"/>
<path d="m498.3 423.6v76.2c-2.7 12.5-10.3 19.5-26.2 22.8l-0.7-70.9"/>
<path d="m481.4 443.1v73.9c-0.6 13.1-13.4 22.6-27.4 21.2l0.7-70.1"/>
<path d="m463.3 460.2v75.3c-2.7 12.4-10.2 18.9-26.2 19.1l-0.1-72.8"/>
<path d="m445.6 473.4v80.1c-2.7 12.4-12.7 17.5-20.1 12.9v-78.5"/>
<path d="m425.1 486.8v80.5c0 9.7-18 17.3-18 5.5v-77.5"/>
<path d="m301.4 494.8v83.6c0 14.7 18.4 13.2 18.4 0.3v-83.9"/>
<path d="m321.8 494.6v82.1c0 14.7 18.4 13.2 18.4 0.3v-82.4"/>
<path d="m341.9 495.5v81c0 14.7 18.4 13.2 18.4 0.3v-81.3"/>
<path d="m361.8 494.9v80.8c0 14.7 18.4 13.2 18.4 0.3v-81.1"/>
</g>
<path stroke-width="5" d="m299.5 494.9h80.3v-214h28.1v214c41.9-13.3 100.9-71.4 123.5-126.6v-292.1l-15.8-0.01-16 22.37h-177.2l-13.3-22.37h-9.6"/>
</g>
<path id="b" stroke="#000" stroke-width="3.306" d="m281.3 180.5 19.2-19.2 19.2 19.2-19.2 19.2zm-26.5 0 45.7-45.7 45.7 45.7-45.7 45.7z" fill="#da251d"/>
<path stroke="#000" stroke-width="3.3" d="m299.5 473.5h59v-215.7h70.8l0.4 203.5c35.3-21.4 65-60 84.4-94.9v-140.9" fill="none"/>
<use xlink:href="#b" transform="translate(92.58)"/>
<use xlink:href="#b" transform="translate(185.2)"/>
</g>
<g id="e" transform="matrix(3.306,0,0,3.306,91.35,432.1)">
<g fill-rule="evenodd">
<path d="m96.22-124.9c3.78 6 6.08 38.13 29.08 35.55 3.8-0.42 11.3 9.1 23.4 11.08 0 0 7.8 11.94 13.4 17.98 9.7 6.19 10.6 14.49 15 19.68 3.5 4.2 9.1 5.22 15 21.6-11.1 1.98-4.4 21.77 9.4 11.88 5.3 7.158 17.8-1.301 9.4-9.64 11.7-5.25-0.2-22.48-8.1-7.27-3.4-2.15-5.4-6.78-5.4-9.09 0-5.24 7.1-11.38 8.3-15.23 2-6.24-1.5-10.37 3.5-14.34-11.1 1.43-14.1 10.84-15.8 15.06-3.4 8.45-10.6-1.76-10.6-6.76-0.1-5.76 5.5-9.7 6.4-18.7 0.5-4.26-2.1-9.01-0.2-15.33-16.5 8.19-2.2 24.96-16.5 24.74l-15.8-20.16c-0.9-4.22 1.1-8.97 1.2-12.71 0-5.24-4.3-13.84-0.7-19.54-7.7 2.9-9.8 5.5-8.3 21.2 1.1 12.09-16.5-0.11-16.8-7.7-0.5-15.4-8.5-17.7-10.9-28.1-4.5 11.5 5 24.5 2.6 27-11.2 11.94-17.9-19.5-27.58-21.2z"/>
<g stroke="#000">
<path d="m142.1-64.62c2.1-13.09 4.4-15.62 15.7-20.64 0.6-0.95 1.9-2.33 3.3-2.76 2.5-0.83 2.6 1.85 1.9 7.88l7.5 17.18c-3.9 3.99-11.1 6.97-21.5 6.92-6.2-2.75-6.1-4.37-6.9-8.58z" fill="#f2b398"/>
<path d="m32.18-28.97 64.16-1.76 45.66-36.57c1.2 6.97 6.3 10.32 10.1 12.29l-45.8 52.15-76.86 0.646 2.74-26.76z" fill="#da251d"/>
<path d="m34.71-29.97c1.8-9.44-24.22-9.93-23.8 13.82 0.42 23.76 20.94 23.47 20.56 11.42-0.27-8.17 1.04-13.68 3.24-25.24z" fill="#da251d"/>
</g>
<g stroke="#000">
<g fill="#fcdb00">
<path d="m17.62-25.56c3.4-2.48 9.52-1.88 11.95 1-0.75-10.81-11.49-6.67-11.95-1z"/>
<path d="m28.5-7.521c-4.12 1.759-9.38 0.829-12.66-1.871 0.83 10.14 12.43 7.398 12.66 1.871z"/>
<path d="m13.86-17.5c3.29 4.1 11.17 4.83 15.7-0.29-5.77-4.94-11.83-4.21-15.7 0.29z"/>
</g>
<path d="m55.94-29.97c0.61-4.77-11.76-11.61-16.96 0.91-2.01 4.85-2.33 23.12-0.27 27.14 3.07 6.033 17.17 7.837 16.65-2.833-0.4-8.167-0.91-13.39 0.58-25.22z" fill="#da251d"/>
<g fill="#fcdb00">
<path d="m41.13-25.02c3.4-2.48 8.4-2.23 10.83 0.65-1.14-10.54-10.37-6.31-10.83-0.65z"/>
<path d="m51.79-7.75c-4.12 1.758-7.47 1.317-10.75-1.383 0.8 9.167 10.5 6.278 10.75 1.383z"/>
<path d="m39.61-16.79c3.21 2.6 8.5 4.34 12.66 0.47-3.27-3.91-8.29-4.17-12.66-0.47z"/>
</g>
<path d="m80.71-30.46c0.6-4.77-13.73-11.38-18.93 1.15-2.01 4.85-1.67 21.23-0.45 25.58 1.79 6.447 19.62 10.47 19.09-0.196-0.4-8.174-1.21-14.7 0.29-26.53z" fill="#da251d"/>
<g fill="#fcdb00">
<path d="m63.87-24.92c3.4-2.48 9.44-2.44 12.99 0.44-3.23-9.9-12.53-6.11-12.99-0.44z"/>
<path d="m76.67-7.91c-3.85 2.412-9.57 1.755-13.02-1.334 1.25 10.53 13.32 7.371 13.02 1.334z"/>
<path d="m63.03-17.09c3.37 3.55 9.46 4.55 13.87 0.22-4.43-3.67-9.98-3.95-13.87-0.22z"/>
</g>
<path d="m96.74-33.93c-2.11-4.32-9.95-5.09-11.73 8.35-0.69 5.21-0.34 22.34 4.74 26.23 9.13 6.988 30.65-7.863 23.15-14.36-5.7-4.96-11-9.77-16.16-20.22z" fill="#da251d"/>
<g fill="#fcdb00">
<path d="m89.06-22.68c1.92-5.58 5.19-4.64 8.71-2.51-4.73-12.32-10.41-4.31-8.71 2.51z"/>
<path d="m106.8-11.47c-2.8 4.697-12.21 7.199-16.57 4.283 4.17 10.56 18.87 3.617 16.57-4.283z"/>
<path d="m88.76-13.86c4.41 4.372 14.14 4.083 13.04-6.36-7.05-0.42-10.7 1.76-13.04 6.36z"/>
</g>
<path d="m116-50.08c-4-5.85-18.03 3.13-13.1 15.75 2 4.89 14.5 18.74 18.8 20.2 6.4 2.2 20-10.53 11.2-17.23-6.5-4.96-10.7-9.72-16.9-18.72z" fill="#da251d"/>
<g fill="#fcdb00">
<path d="m107.1-35.17c0.2-4.21 5-7.87 8.8-7.99-9-6.11-12.9 4.11-8.8 7.99z"/>
<path d="m126.6-30.42c-0.5 5.33-3.5 8.23-7.6 9.14 8.8 5.89 13.3-4.44 7.6-9.14z"/>
<path d="m112.7-26.53c5-0.84 9.5-3.67 9.4-10.52-7.5 0.49-10.6 4.69-9.4 10.52z"/>
</g>
<path d="m138-63.3c-2.8-7.19-20.4-3.62-16.8 11.14 1.2 5.11 14.2 16.52 18.6 17.17 8.4 1.22 16.2-14.29 8.2-17.13-4.6-1.62-8.3-6.8-10-11.18z" fill="#da251d"/>
<g fill="#fcdb00">
<path d="m126.5-51.74c-0.2-4.2 3.8-7.61 7.6-8.05-8.2-6.03-11.8 4.39-7.6 8.05z"/>
<path d="m142.8-51.22c0.6 2.61-0.4 8.32-5.9 10.49 10.9 2.12 10.9-9.4 5.9-10.49z"/>
<path d="m129.9-44.64c4.1-0.7 8.9-4.71 8.1-11.12-6.9 2.01-8.7 5.19-8.1 11.12z"/>
</g>
<path d="m168.9-69.15c-1.7 1.42-1 1.34-3.4 3.4-0.9 0.74-4 1.6-5.1 1.54-3-0.15-0.8 4.64 2.7 4.55 0 0 4.3 0.72 6.2-0.3 2-1.06 3.6-3.68 4.1-4.8 0.6-1.26-2.3-6.16-4.5-4.39z" fill="#f2b398"/>
<path d="m156.2-70.28c-0.3 2.44-1.5 4.96-3 6.48 1.7-0.96 4.1-2.21 4.9-3.87l-1.9-2.61z"/>
<g fill="#f2b398">
<path d="m167.7-73.38c-1.7 1.45-1.5 1.87-3.9 3.93-0.9 0.74-3.9 1.25-5 1.2-3-0.15-3 5.11 0.5 5.02 0 0 6.6 0.87 7.9-0.47 1.6-1.62 4.4-4.91 4.9-6.03 0.7-1.63-2.5-5.36-4.4-3.65z"/>
<path d="m165.7-79.19c-1.6 1.51-2.5 3.7-3.6 5.54-0.6 0.97-2.9 1.16-4 1.11-3-0.15-3.1 5.26 0.4 5.17 0 0 5.1 0.46 6.4-0.88 1.5-1.62 4.7-4.7 5.2-5.86 0.6-1.85-2.8-6.59-4.4-5.08z"/>
<path d="m163.3-82.91c-1.6 1.5-1.9 2.82-4.3 4.88-0.9 0.74-1.6 0.6-2.7 0.54-3-0.15-3.1 5.86 0.4 5.77 0 0 4.3 0.69 5.6-0.65 1.6-1.62 4.4-4.81 5-5.93 0.6-1.27-2.4-6.13-4-4.61z"/>
</g>
<path d="m158.1-85.39c-0.1 1.1 1.1 1.75 2.4 2.35"/>
<path d="m157.8-77.46 1.8 0.03"/>
</g>
</g>
</g>
</g>
<use xlink:href="#f" transform="matrix(-1,0,0,1,806,0)"/>
<path stroke="#000" stroke-width="3.3" d="m174.1 575.1h459.8v18.06h-459.8z" fill="#da251d"/>
<path stroke="#000" stroke-width="3.3" d="m174.1 649.7h459.8v18.06h-459.8z" fill="#da251d"/>
</svg>