<?xml version="1.0"?>
<svg xmlns="http://www.w3.org/2000/svg" viewBox="0 0 601 631" xmlns:xlink="http://www.w3.org/1999/xlink">
<defs><clipPath id="c" clipPathUnits="userSpaceOnUse"><use xlink:href="#a"/></clipPath></defs>
<path d="m14.53 355.9c6.113 152.4 131.6 274.1 285.5 274.1s279.4-121.7 285.5-274.1l14.53-355.9h-600z"/>
<path id="a" d="m17 19 12.41 336c4.9 145.2 124.7 261.4 271.1 261.4s266.2-116.2 271.1-261.4l12.4-336z" fill="#da251d"/>
<g>
<path d="m229 367h77" stroke="#000" stroke-width="9" fill="none"/>
<rect stroke-linejoin="round" height="323.5" stroke="#000" stroke-width="9" fill="#009200" style="color-rendering:auto;color:#000000;shape-rendering:auto;image-rendering:auto" rx="0" ry="0" width="895.7" clip-path="url(#c)" y="431.4" x="-117.9"/>
<use xlink:href="#b" stroke="#000000" y="0" x="0" stroke-width="12.5"/>
</g>
<path id="b" transform="matrix(.8889 -.4582 .4582 .8889 -33.67 247.8)" fill="#fcdb00" d="m473.8 199.1c0 0.3-0.7 0.6-1.5 0.6s-1.4-0.3-1.4-0.6 0.6-0.6 1.4-0.6 1.5 0.3 1.5 0.6zm-76.9-85.1c0.7-1.2 0.5-2.1-0.8-2.1-0.9 0-1.9 0-2.2 0.6-0.3 0.5 0.3 1 1.1 1.4 0.9 0.5 1.7 0.7 1.9 0.1zm31.6 26.1c-0.3 0.4-0.8 0.6-1.3 0.4-0.4-0.2-0.6-0.8-0.3-1.2 0.2-0.5 0.7-0.7 1.2-0.4 0.4 0.2 0.6 0.7 0.4 1.2zm-64.7-113.2c0.4-0.63 1-0.77 1.3-1.4 3-5.29 5.7-10.85 7.5-14.02 0.3-0.62 5.4 0.34 5.1 0.96-2.2 4.07-5.7 9.71-8.9 15.18-2.8 4.75-5.2 9.42-7.7 12.21-1 1.18-2.8 3.28-5.1 3.76 0.8-3.51 4.2-10.12 7.8-16.69zm-1.2-20.07c2.1 1.685 5.3 3.519 6.4 4.439-1.9 4.59-13.3 26.44-18.4 36.72-0.4 1-0.8 2.33-0.6 3.13 0.2 1.31-1.8 1.51-1.1-0.9 0.6-1.02 0.3-1.62 0.4-2.48 1.1-6.71 0.1-7.15 0.7-9.98 3.3-7.81 9.7-24.53 12.6-30.93zm30 12.54c-0.1-0.47-0.8-1.22-1.2-1.4-0.6-0.22-1.5 0.53-2.1 0.29-3.3-1.73-6.1-4.91-7.3-4.12-3.1 2.09-16.4 26.51-19.1 28.59 0.2 2.14 1 6.19 1.8 8.49 5.7-6.92 8.3-10.14 13.5-11.36 3.9-4.01 11-16.56 14.4-20.49zm13.1 11.72c3.1-3.59 1.1-2.17-1.2-3.12-2.5-1.09-6.4-2.75-7.6-4.73-0.2-0.37-1.1-0.99-1.6-1.04-3.5 4.41-10.4 15.97-14.3 20.15 1.7 5.36-1.4 11.24-6.3 13.84-0.2 0.49-1.2 1.44-1 1.94 0.4 0.89 5 1.98 5.7 1.81 6.2-6.09 19.9-21.46 26.3-28.85zm11.6 13.65c2.4-3.29 2.4-2.87-2.1-5.96-0.7-0.46-3-3.11-4.1-4.93-1.5-2.18-3.2 0.26-3.8 0.87-7.1 7.49-21 24.34-28.1 30.48-1.2 3.34-4.9 7.12-8.1 8.77 1.3 3.39-3.1 10.81-7.7 11.98-0.7 3.59-2.9 7.79-6.3 9.32-0.2 0.62-0.4 2.31-0.3 2.94 0.1 0.39 0.7 0.61 0.7 1.01 0 0.47-0.5 1.24-0.5 1.74 0 0.2 0.8 0.5 0.9 0.9 0.1 0.2-1.4-0.1-1.5 1-0.3 2.7 1.9 2.1 2.8 1.7 1.1-0.4 3-1.4 3.8-2.1 1.8-4.07 4.8-10.61 10.7-12.24 1.6-2.81 2.2-9.38 12.9-11.77 1.6-7.94 10.1-9.82 12.6-12.58 4.8-5.09 13.3-14.81 18.1-21.13zm1.1 23.05c5.4-4.77 16-14.02 16-15.15 0-1.72-4.6-1.91-6.8-3.79-2.1-1.88-3-4.95-4.8-4.85-0.4 0.03-10.2 12.22-16.3 19.18-2.5 2.89-4.6 4.67-4.8 4.92-0.5 1.18-0.8 3.45-0.8 5.46-0.2 5.06 1.6 3.24 3.6 1.91 2.6-1.66 5.1-3.75 7.5-4.05 3.3-0.41 3.7-1.19 6.4-3.63zm24.5-4.08c0.4-0.44 1.9-1.1-0.1-2.19-0.7-0.37-1.4-1.15-1.9-1.72-1.5-1.64-2.3-3.41-3.6-3.47-5.9 4.63-13.6 13.03-18.7 17.38-2.2 1.94-3.3 6.77-6.2 10.3-0.7 0.95-0.7 1.54 0.7 1.65 1.8 0.14 4.2-0.12 5.7-0.32 6.8-5.5 18.5-15.62 24.1-21.63zm-27.3 37.45c-1.9 0.3-3.9 1.8-4.7 2.1-0.7 0.3-1.7-1.3-1.1-1.7 1.7-0.9 2.6-1 4.3-2.23 3.5-2.58 4.3-9.85 5.8-11.09 3.1-2.63 7.1-4.97 11-8.11 4.8-3.82 9.6-8.49 13.2-12.17 1.8-1.74 2.4-2.41 4 0.2 0.6 0.87 1.1 1.87 1.9 2.72 3.4 3.73 4.6 3.53 2.1 5.61-7 5.83-14.4 13.29-20.7 17.7-3.6 0.38-9 3.04-11.7 7.27-0.3 0-2.2-0.5-4.1-0.3zm21.2-3.19c-0.8 0.49-1.3 1.15-2.1-0.02-0.6-0.95 0.1-1.53 0.9-2.15 6-4.69 10-10.2 17-15.2 2.9-2.06 2.8-2.97 4 0.96 0.7 2.34 2 2.34 3.5 4.25 2.1 2.68 1.1 3.07-1.3 4.68-3.2 2.21-1.6 1.6-4 2.75-0.8 0.34-2.3 0.65-3.1 0.86-3.8 1.01-7-1.07-14.9 3.87zm7.5 15.79c0.2 1.1 2.5 3.3 3.5 2.7 6.9-3.7 15.6-9.7 24.5-14.2 0.7-0.3 1.6-1.3 0.6-2.2-1.3-1.18-3.4-2.24-4.8-3.74-0.8-1.29-1.7-2.46-2-3.41-0.8-2.04-1.7-1.63-3-0.86-4 2.34-6.4 3.37-8.1 4.72-4 3.14-3.7 11.69-10.7 16.99zm40.2 2.2c0.4-0.2-2.4-2.7-4.3-5.8-1.9-2.9-2.9-6.4-3.2-6.2-7.7 4.1-20.5 11.5-31 16.6-3 6.7-7.2 7.4-9.6 9.7-0.5 1.1 0.4 2.8 0 4.9 1.7 0 3.7 0.1 5.2 0.8 4-4 6.9-7.2 14.4-7.8 2.2-1.1 5.7-3.1 7.9-4 4.9-1.9 15.1-6.3 20.6-8.2zm9.2 14c1.6-0.5-0.2-3.3-2.1-5.4-1.8-2-2-6.3-3.4-5.9-7 2.1-25.1 8.9-28.4 11.2-0.9 0.6-2 4.4-0.8 4.4 2.5 0.1 5.1-2.3 8.8-1.6 6.8 1.3 6.6 4.1 8.6 3.5 3.6-0.9 12.8-4.7 17.3-6.2zm8.2 12.3c0.6-0.2 0.2-0.8-0.4-1.9-0.7-1.4-2.1-3.5-2.9-5.1-0.7-1.2-0.8-2.3-1.1-2.5-1.4-0.9-15.5 4.5-18.9 6.3-1.7 1-2.1 3-4.8 5-2.2 1.6-4.6 3.3-7.5 4.9 0 0.5 0.8 1 1.5 1.6s1.3 1.2 1.9 1.1c6.7-1 23.7-6.6 32.2-9.4zm5 10.3c1.2-0.4-0.2-1-1.2-3.6-0.6-1.6 0-3.4-1-3.2-7.5 1.3-27 8.4-34.8 9.7-3.2 2.6-8.9 6-15.6 6.5-0.4 0 0.5 1.3 0.8 1.5 1.2 0.7 3.9-0.5 5.2 0 1.4 0.5 3.1 2 4.1 2.2 2.8-3.5 6.8-4.3 11.2-2.7 6.1-1.7 23.7-7.8 31.3-10.4zm7 14.7c0.2-0.1-0.1-1-0.6-2.3-0.4-1-1.9-2.2-2.5-3.4-1.2-2.7-1.7-5.4-2-5.4-8.2 2.1-24.4 7.7-29.7 9.6-0.5 0.1-2.3 3.4-2.9 4.6-1.1 2.2-0.2 1.7 1.6 1.2 6.3-1.7 11.5-1.1 16.8 2.2 3-0.3 16.1-4.9 19.3-6.5zm5 13.6c0.3-0.2-1.8-2.2-3-4.6-1.1-2.4-1.3-5.1-1.6-5-3.9 1-14.9 4.6-17.4 6.1-2.2 1.2-7.5 8.3-17.4 9.5-0.8 0.1 3 4.4 3.7 4.2 6.5-1.7 27.1-7.3 35.7-10.2zm1.2 9.1c-0.4-1.4-1.1-4.8-1.8-4.7-6.7 1.4-26.6 8.1-34.3 9.1-1.6 1-4.2 3.3-6.1 4.4 8.2-0.3 31.9-3.5 43.2-5.7 0.8-0.2-0.6-1.6-1-3.1zm-173-187.7c3 1.788 8.2 3.511 11.2 3.659 0.1 3.676-4.5 12.11-5.9 16.17 2.3 1.73 1.8 4.19-1.1 3.43-1.6 2.86-4.1 8.09-4.2 11.46-1.9 1.11-5.6 2.81-8 3.51 2.4-8.64 3.2-12.15 1.2-17.15 1-5.44 5.6-16 6.8-21.08zm-16.3-3.146c1.1-4.605 1.1-2.117 3.2-0.8546 2.4 1.452 5.4 2.317 7.7 2.192 0.4-0.0241 1.4 0.322 1.8 0.701-1.6 5.375-5.7 15.67-6.8 21.27-5.4 1.69-8.3 7.7-7.6 13.16-0.3 0.47-0.5 1.82-1 1.94-0.9 0.21-4.5-2.96-4.8-3.58 1.4-8.58 5.1-25.35 7.5-34.83zm-17.6-3.301c1.2-3.919 1.1-3.322 6.3-1.413 1.2 0.471 2.5 0.799 3.7 1.017 3.8 0.677 3.8 1.003 3.4 3.112-2 10.11-5.8 29.19-6.7 38.53-2.1 2.88-2.9 8.14-2.5 11.67-3.5 0.91-6.9 8.82-5.3 13.2-2.4 2.71-4.6 6.88-3.9 10.54-0.4 0.52-1.6 1.71-2.2 1.94-0.4 0.15-0.9-0.2-1.2 0.03-0.4 0.27-0.7 1.14-1.1 1.42-0.8 0.57-3 1.14-3.8 0.57-0.7-0.89 0.1-3.26-0.6-4.4 2.2-3.83 5.5-10.22 3.4-15.99 1.4-2.9 5.9-6.7 1.6-16.79 5.6-5.92 2-14.71 2.7-18.42 1.4-6.82 3.8-17.47 6.2-25.01zm-18.9 10.76c0.8-7.175 2.1-19.54 3.1-20.18 1.4-0.97 3.1 2.32 5.9 2.98 2.7 0.661 6.6-1.31 7.5 0.15 0.2 0.39-3.6 15.13-5.8 24.08-0.9 3.71-1.1 6.52-1.2 6.75-0.7 1.09-2.4 2.66-4 3.89-4 3.09-2.8 0.84-2.9-1.58-0.2-3.06-0.6-6.61-1.8-8.75-1.6-2.92-1.2-3.66-0.8-7.336zm-10.4-21.43c0.1-0.6-0.1-2.13 1.9-1.15 0.7 0.33 1.5 0.73 2.2 0.81 2.2 0.26 4.3-0.75 5.1 0.25-0.3 7.489-2.6 18.53-3.2 25.18-0.3 2.96-3.6 6.63-4.8 11.02-0.4 1.18-0.9 1.48-1.8 0.43-1.1-1.39-2.3-3.48-3-4.86 0.5-8.7 2-23.59 3.6-31.68zm-12.4 49.5c0.2 0.68 1.2 0.33 1.2-0.36 0-1.83-1-6.06-0.4-7.98 0.6-2.11 4.5-5.72 4.7-7.9 0.7-9.039 1.8-25.46 3.4-34.81 0.4-2.42 0.6-3.29-2.5-3.12-1 0.06-2.2 0.16-3.3 0.02-5-0.62-5.2-2.36-5.4 0.89-0.7 9.094-2.9 23.29-2.9 30.98 1.8 3.13 3.4 9.02 1.5 13.58 0.3 0.62 1.8 1.18 2.2 1.78 0.9 1.51 1.1 5.14 1.5 6.92zm-11-24.39c0.1 0.93-0.2 1.71 1.2 1.64 1.1-0.05 1.2-0.92 1.3-1.926 0.3-7.625 2.3-17.62 2.3-26.28-0.1-3.56 0.4-4.02-3.2-4.26-1.7-0.11-3.8-0.22-5.5-0.31-3.4-0.17-2.9 0.7-2.9 3.53 0.1 3.88-0.6 8.108-0.1 10.78 0.2 0.779 0.8 2.245 1.1 2.992 1.4 3.66 5.2 4.486 5.8 13.84zm-17.3 3.39c-1 0.48-4.1-0.15-4.2-1.25-1-7.777-1.9-21.09-3.5-30.97-0.1-0.73 0.2-2.06 1.5-1.76 1.7 0.38 4.2 0.93 6.3 0.79 1.5-0.09 2.7-0.58 3.7-0.84 2.1-0.55 2.3 0.42 2.4 1.94 0.4 4.55 1 10.6 0.9 12.79-0.2 5.079-6.8 10.54-7.1 19.3zm-26.1-32.6c-0.3-0.82 3.7-0.22 6-0.74 2.1-0.51 3.6-1.65 5-1.99 0.9-0.2 3.2-1.63 3.4-0.78 2 8.15 1.5 27.6 5.4 38.12-3.7 6.27-1.3 10.22-1.7 13.54-0.7 1.06-2.5 1.3-4 2.86-1.1-1.37-2.3-2.97-3.7-3.73 0.9-5.64 1.2-11.28-2.7-17.78-0.4-2.368-1.5-7.076-2.1-9.414-1.2-5.06-4-14.48-5.6-20.09zm-14.9 4.79c-0.2-1.7 2.3-0.91 4.9-1.98 2.2-0.92 5.3-4.64 5.8-3.27 2.4 6.93 7.9 25.2 8 29.17 0 1.13-2.4 4.17-3.1 3.28-1.5-1.99-1.1-5.475-3.8-8.099-5-4.812-7.1-3.056-7.8-4.941-1.4-3.556-3.6-9.621-4-14.16zm-14.5 2.38c-0.2-0.54 1-0.61 1.8-0.58 1.8 0.06 3.9 0.39 5 0.01 0.9-0.33 2.4-1.73 3.4-1.37 1.6 0.59 4 10.2 4.5 14.1 0.2 1.905-1.2 3.889-1.3 6.595-0.1 2.741 1.1 6.205 0.8 8.995-0.4 0.29-1.3-0.04-2.2-0.25-0.9-0.23-1.8-0.4-2-0.92-3.1-6.034-6.8-18.28-10-26.58zm-10.2 3.78c-0.4-1.249 1.1-0.419 3.1-1.462 1.6-0.798 2.6-2.298 3-1.388 3.3 6.839 7.4 20.06 10.9 27.14-0.3 4.14 0.2 10.68 3.7 16.45 0.2 0.37-1.3 0.42-1.7 0.24-1.3-0.57-1.9-3.45-3-4.23-1.2-0.86-3-0.89-3.7-1.56 1.2-4.33-0.9-8.54-4.7-11.16-2.3-6-5.4-16.36-7.6-24.03zm-16 3.836c-0.1-0.756 2.2-0.831 2.9-1.045 2.6 1.28 6 0.018 7.1-1.591 0.5-0.109 1.7-0.901 1.8-0.461 3.1 7.883 5.9 17.01 7.5 22.41 0.1 0.44-1.4 3.85-2 4.99-1.3 2.22-1.3 1.19-2-0.61-2.2-6.08-5.7-10.01-11.5-12.39-1.5-2.607-3.2-7.824-3.8-11.3zm-14.6 2.317c-0.1-0.384 2.8-0.504 5.4-0.958 2.6-0.426 4.9-1.209 5-0.888 1.4 3.762 3.7 8.04 4 10.93 0.2 2.482-2.5 10.89 2.3 19.67 0.4 0.66-5.3 0.14-5.6-0.63-2.4-6.26-8.5-19.48-11.1-28.13zm-7.3 1.998c1.3-0.452 3.1-1.918 3.4-1.188 2.8 6.247 8.4 21.76 12.1 28.62 0.1 1.88-0.3 5.31-0.1 7.53-5.1-6.22-13.7-23.49-18.5-33.99-0.4-0.7539 1.6-0.4222 3.1-0.9693zm240.2 132c-0.6 0.3-0.5 1.5 0.2 1.9 1 0.5 3.3-0.9 3.8-1.8 0.7-1.4-0.4-2-0.9-1.8-0.9 0.3-2.3 1.2-3.1 1.7zm-27.2-27.7c-1.7 0.1-2.1 2.1-1.2 2.7 0.3 0.2 0.9 0.3 1 0.5 0.2 0.4-0.5 1.3-0.4 1.7 0 0.5 1 1.3 1 1.8 0.1 0.5-0.2 1.5-0.6 1.8-0.1 0.2-0.6 0.1-0.8 0.3-0.8 0.5-1.6 2.3-2.1 3.1-0.6 1 0.1 2 0.9 1.7 1.4-0.5 3.9-2.6 4.6-3.9 1-1.8 1-6.1 0.5-8.2-0.2-0.8-2.1-1.6-2.9-1.5zm-4.5 8c-0.7-0.8-3.2 0.6-3.7 1.5-0.7 1.3-1.8 5.3-0.4 5.9 1.4-0.6 3.5-5.7 4.1-7.4zm-21.5-4.1c-0.4-0.8-0.1-2.8-0.9-3-1.5-0.3-3.3 2.2-3.4 4.7 0 0.6 0.7 1.7 0.9 2.3 0.1 0.5-0.1 1.9 0.4 2 0.7 0.2 1.3-1.8 1.8-2.2 0.7-0.6 2.6-1 2.7-1.9 0-0.8-1.2-1.3-1.5-1.9zm69.1 42.3c-2.2-1.5-3-2.7-5.3-0.9-2.1 1.7-4.5 4.4-5.9 6 0.4 2.7 6.3 6.8 8.9 6.6 2.1-0.1 6.9-3.4 7.1-5.5 0.1-1.9-2.5-4.5-4.8-6.2zm-34.3-90.24c-0.2 0.67-4.7 7.73-5.4 7.39-1-0.53-2.5-1.25-3.9-10.2-0.5-3.08 5.7-10.15 7.6-9.84 2.2 0.34 1.9 11.72 1.7 12.65zm-23.4 33.29c-0.2-0.83-5.1-2.99-6-2.7-0.7 0.19-1.8 0.28-2.6 1.52-0.5 0.65-1.6 2.22-1.6 4.05 0 1.94 1.2 4.18 1.8 4.48 0.8 0.4 3-0.2 3.9-0.6 1.6-0.75 4.7-5.93 4.5-6.75zm2.2 24.15c0.2-1.9-5.5-6-7.5-7.1-1.3-0.8-3.4 3.7-3.5 5.3-0.1 1 1.4 3 2.3 3.5 3.6 1.9 8.3 0.5 8.7-1.7zm3.7-13.6c5.3 2.9 1.4 3.6 0.5 4.4-1.4 1.4-5.7 0.6-7.8-0.8-1.1-0.7-2.7-3.4 1.3-5.2 0.3-0.1 0.4-1.1 0.5-1.4 0.4-1.78 2-1.29 2.3 0.6 0.2 1 2.4 2 3.2 2.4zm7.2-6.19c1.4 1.05 1.1 1.25-0.3 2.09-1.8 1.1-6.9-0.74-8.1-2.51-1.1-1.69 1.1-5.75 3.2-4.11 1.3 1.05 3 2.85 5.2 4.53zm-4.9-15.32c1-2.36 0.5-2.15-0.9-2.66-1.6-0.55-3.3-1.57-4.6-2.58-1.1-0.92-1.3-1.24-2.3-0.12-2.1 2.6-4 7.71 0.6 9.82 4.4 2 5.6 0.54 7.2-4.46zm10.5 3.66c1.6 0.65 2 1.21 0.6 3.19-0.9 1.26-2.2 2.89-6.2 0.86-3.9-2.02-2.6-3.3-1.3-5.4 3.2-4.78 2-0.7 6.9 1.35zm-7.3-22c0.8 1.93 1.3 3.91 2.5 5.06 1.1 1.11 1.5 1.84 0.8 2.9-1.2 1.84-1.2 4.2-2.6 4.43-1 0.15-1.7-0.48-2.5-0.88-1-0.52-2.1-0.92-2.8-1.45-0.9-0.71-3-2.51-3.1-3.64-0.2-1.72 2.1-5.36 4-7.3 2.6-2.61 3-0.77 3.7 0.88zm9.8 8.14c-0.3-0.55-0.6-1.18-1.2-0.32-0.3 0.39-0.7 0.87-1 1.28-0.9 0.9-1.9 1.59-1.9 2.35-0.3 4.75 5 6.36 7.3 5.82 1.7-0.4 4.3-3.75 4.1-5.46-0.1-2.06-5.4-0.33-7.3-3.67zm15.2-8.95c0.2 1.39-1.2 2.75-2.9 4.12-2.3 1.94-4.9 4.18-9.3 0.25-1-0.89 1.7-5.39 3-5.29 4.5 0.33 9-1.56 9.2 0.92zm3.3-17.62c2.6 2.13-6 11.46-10.6 11.83-0.2-2.74 8-13.97 10.6-11.83m-15.7 81.08c0.4 1.3-1.3 4.2-2.2 5.2-2.2-0.3-3.8 1.1-4.2 2.4-5.7-4.7-4.5-12.1-1.5-13.7 2.2-1.1 2.6 4.2 7.9 6.1zm6.5 5c-1.2-1-1.6-2-3.2-0.5-1.5 1.3-3.1 3.6-2.8 4.6 0.7 3 10.9 4.6 12.5-0.2 0.6-1.8-3.4-1.6-6.5-3.9zm1.5-13.4c1.6-2.2 1.3-2.1-0.5-3.2-2.3-1.5-3.9-3.1-4.9-4.4-1.1-1.5-1-4.1-3.2-1.1-2.8 3.9-1.1 11 1.5 12.6 1.6 1.1 5.3-1.5 7.1-3.9zm5.2 0.5c-1.8 1.1-6.3 6.5-5.7 7.2 3.8 4.4 9 2.1 10.3-0.3 0.5-1-3.2-6.8-4.6-6.9zm3.1-10.2c1.5-2.1 1.2-1.9-0.7-4.2-1.5-1.8-2.9-4-3.8-6.41-0.7-1.96-0.5-5.08-3.3-1.23-2.3 3.34-3.1 8.84-0.1 11.54 4.1 3.7 6.5 2.2 7.9 0.3zm5.9-0.1c1.4 0 1.9 3.9 2.7 5 0.9 1.2 4.3 1.3 4.1 4.4-0.1 2.3-4.4 3-9.4-0.5-4.7-3.2 0.3-9 2.6-8.9zm13.9-4.8c-1.1-1.1-2.1-2.1-2.9-3-1.6-1.58-2-2.07-3.3-1.21-1.9 1.31-4.2 3.61-3.9 4.21 2 4.7 6.8 4.8 9.8 3.4 2.7-1.2 2.4-1.3 0.3-3.4zm-9-8.51c-0.1 1.39-2.1 3.89-3.4 4.4-1.2 0.51-4.5 0.21-5.2-0.87-2.1-2.91-4.1-12.48 2.6-13.96 3-0.65 0 10.23 6 10.43zm7.2-7.17c0.1-1.03-0.3-2.37-0.3-3.94 0.1-1.97 0.8-7.68 1.1-10.29 0.2-1.99-1.8-1.36-2.8-0.57-3.7 2.9-6.1 13.49-1 17.95 0.8 0.72 3-2.06 3-3.15zm7.3 2.06c3-0.01 6.7 0.15 6.7 0.87-0.1 2.62-9.1 7.5-13.1 4.53-0.6-0.44 0.8-2.3 2.3-3.75 1.6-1.64 2-1.65 4.1-1.65zm7.4-13.61c-2.2-0.81-8.5 6.18-7.8 8.57 3 0.7 8.8-6.3 7.8-8.57zm-32.2 76.73c0.4 0 0.7-0.1 1-0.2 0.5-0.2-0.8-0.9-0.3-1.2 1.3-0.9 4.4-1.7 5.6-2.5 3.5-2.9 1.9-4 1.4-5-1.4-2.6-2.7-5.1-3.8-5.7-3.3-1.8-9.4 10.3-5.9 13.1 0.5 0.3 1.2 1.6 2 1.5zm14.4-23.4c0.9 2.8 2.5 6 3 7.9-0.5 1.5-3.9 4.6-5.2 3.7-5.1-3.8-3.3-10.8-0.5-13.5 3.2-3.2 2.6 1.3 2.7 1.9zm9.5-11.5c0.9 3.9 3.3 7.4 4.8 9.5 1.2 1.7-5 5.5-8 4-2.9-1.6-2.3-10.8 0.3-14.6 2.7-4.1 2.6-0.2 2.9 1.1zm6.9 33.1c5.6-0.6 1.5-3.1 1-3.6-1.5-1.4-4.1-3.1-5.4-5.3-1.7-2.7-1.2-4.2-4.8-1.8-1.6 1-3.1 2.5-3 3.6 0 3 7.7 7.5 12.2 7.1zm-1.8-14.5c1.8 3.8 7.2 8.7 12.5 3.5 1.5-1.6 0.6-1.8-1.2-2.6-2.5-1.1-4.4-3.3-5.5-4.9-1.7-2.7-2.1-1.6-3.6-0.6-0.5 0.4-0.9 0.7-1.3 1-1.5 1.3-1.9 1.5-0.9 3.6zm9.8-15.9c2.7-2 0.8-1.9 0-2.8-1.8-2.5-2.3-6.4-2.5-9.3-0.1-2.7 0.2-3.8-3-1.7-6.9 4.6-4.9 12.8-2 15.5 1.3 1.2 5.4 0 7.5-1.7zm10.4 12.4c2.5-0.6 3.4-2 1.6-3.1-3.3-2.2-7.7-5.1-8.5-5.7-1.8-1.4-5.1 2.3-3.5 4.4 2.9 4 7.4 5.1 10.4 4.4zm3.8-33.9c-10.2 1-13.3 12.4-9.3 17.1 2.3-0.8 6.3-4.5 9.1-6.2-0.9-1.9-0.7-6.7 0.2-10.9zm-3.6 23c2.9 2.1 7.8 3 12.4-1.2 2.9-2.7 1-3.6-2.8-5-4.4-1.5-4.6-1.3-7 0.2-5.2 3.4-6.4 3.2-2.6 6zm17.6-23.38c3.4-0.66 2.8 0.48 1.9 2.38-1.1 2.4-3.3 7.1-5.7 8.7-1.8 1.2-6.4 0.1-5.7-4.7 0.5-3.1 6.2-5.7 9.5-6.38zm-41.3 72.28c-0.6 0.3-1.6 1.2-3 2.1-1.8 1.1-4.4 2-4.8 1.7-2-1.5-1.8-3.3-1.6-4.2 0.3-1.3 1.5-1.3 1.8-2.2s1.2-2.5 2.5-2.7c1.6-0.4 4.7 4 5.1 5.3zm9.1-5.1c4.1-2.5 1.3-2.5 0-4.7-0.3-0.4-0.5-0.9-0.7-1.4-0.8-2 0.2-5.4-4-2.9-1.8 1.2-3.7 3.2-3.7 4.5-0.1 2 3.7 5.3 5.7 5.5 0.7 0 1.8-0.4 2.7-1zm-1.5 8.6c-1.2-3-0.8-3.5-4.8-1.7-1.8 0.8-4.1 2.6-4.7 3.8-2.9 5.1 4.9 14.9 11.9 5 1-1.5-2.3-2.5-2.4-7.1zm11.4 4.1c2.2-0.5 2.8-1.8 2.3-2.7-0.4-0.8-1.7-1.1-2.4-2.3-2-3.4-3.7-7.2-5.8-6.5-5.2 1.8-0.7 9.6 2.2 11.4 0.8 0.4 2.3 0.5 3.7 0.1zm-1.7-28.5c1.1-0.6 1.8 0.5 2.2 1.7s1.1 2.7 1.7 4c1.1 2.3 0.8 2.5-1.5 3.4-1.8 0.6-3.8 1-4.8 0.4-1.2-0.6-2.1-3.8-1.7-5.1 0.3-1.1 2.5-3.4 4.1-4.4zm11.8 14.4c-1.4-2-1.2-3.4-2.2-4-1.1 0-3 0.6-4.4 1.3-2.6 1.3-2.4 1.6-1.9 3.6 2.5 10.3 9.2 6.9 11.2 4.4 0.6-0.7-1.3-3-2.7-5.3zm4.7-12.2c2.4-1.2 2.3-1.3 1.7-3.4-0.6-1.9-1.2-4-1.6-5.9-0.4-2.5 0-4.8-3.7-2-3.2 2.5-6.5 6.9-5.1 10.3 1.6 3.6 5.8 2.5 8.7 1zm0.5 4c2.1-2.4 2.3-0.9 3.9 1.1 1.9 2.2 4.2 5 3.6 5.8-1.5 2-8.3-0.2-9.1-2.5-0.4-1.1 0.5-3.1 1.6-4.4zm14.8-21.7c-1 3.2-4 8.5-2.5 10.5-0.9 1.2-3.8 2.4-5.5 2.6-4.5-4.3 1.2-12.1 5.4-14.7 1.2-0.7 3.7-2 2.6 1.6zm1.1 13.9c-2.2-0.4-1.7-0.2-3.5 0.6-2.1 0.9-5.1 2.1-4.9 3.5 0.7 4.2 15.5 5 16.7 1 0.6-2.3-4.8-4.5-8.3-5.1zm4.8-7.8c2.1-2.7 5.5-5.1 9.5-3.2 2 0.9 3.2 2.2 0.8 4-2 1.5-5.7 2.9-8.5 3.2-4.5 0.3-3.4-1.8-1.8-4zm-46.7 66.8c-0.7-0.3-2.8 0.2-3.1 0.9-1.2 3.2 4.2 6.3 5.7 5.2 1.3-1-1.1-5.4-2.6-6.1zm-2.4-5.9c2-0.7 1.9-1.1 1.4-2.8-0.4-1.3-0.9-2.9-1.1-4.3-0.2-1.2 0.7-3.2-1.9-1.3-3 2.2-2.1 7.1-0.4 8.5 0.4 0.3 1.2 0.2 2-0.1zm14.9 6.7c-0.3-1.3-0.8-2.9-1.2-4.3-0.5-1.7-0.5-2.8-2.3-1.8-0.6 0.3-1 0.7-1.4 0.9-1.8 0.9-1.9 1.4-1.7 3.5 0.2 2.8 2.2 4 4.1 4.3 2.5 0.5 3.3 1.1 2.5-2.6zm-1.5-20c0.1 1.8 0.1 3.7-0.1 5.3-0.2 2.7-0.9 2.8-2.6 3.6-1.5 0.6-3.2 1.1-4 0.7-4-4.3-0.4-10.3 3.1-12.6 4.6-3 3.5 0.9 3.6 3zm8.3 3.9c1.1-0.2 3.3-1.3 4.3-1.7 2.1-0.7 2.2-0.8 1.2-2.8-0.9-1.9-2.2-4.3-2.5-6-0.5-2.5 0.4-4.3-3.3-2.3-2.6 1.4-5 4.8-3.5 10.1 0.7 2.5 1.1 3.3 3.8 2.7zm14.9-4.5c0.4-0.1 0.7-0.2 1-0.3 1.1-0.4 1.5-0.6 0.8-1.8-1.9-3.1-2.5-6.6-2.8-9.3-0.4-3.9-0.5-4.9-3.5-1.8-1.7 1.7-3.2 4.1-3.4 4.8-0.4 2.4 3.1 6.6 5.8 8.2 0.7 0.4 1.6 0.4 2.1 0.2zm-14.8 12.4c-0.4-1.2-0.9-1.1-1.3-1-0.7 0.1-1.1 0.1-0.9 1.7 0.3 1.9 0.9 5.6 2 6.7 1.2 1.3 3.4 0.8 2.7-0.7-0.8-1.4-2-4.9-2.5-6.7zm14-3.5c-0.5-2.2-2-3.5-4-2.4-0.8 0.5-2.1 1.1-2.9 1.3-0.8 0.1-2.4 0.4-2 2.7 0.2 1 0.7 3.3 1 4.3 0.9 2.9 3.6 2.6 5.1 2.8 1 0.1 2.8-0.5 3.7-0.8 1.2-0.4 2.1-0.6 1.2-2.4-0.8-1.5-1.7-3.8-2.1-5.5zm5.1-6.3c-0.9 9.9 7.8 10.7 11.3 9.6 3.4-1.1 1.8-2.7 1-3.7-1.6-1.8-4.4-4.4-6-5.8-0.7-0.6-1.7-2-2.8-1.4-1.1 0.4-2.3 0.5-3.5 1.3zm6.1-19.1c-1.2 4.1-0.7 10-0.3 12.4 0.5 2.5-7.6 0.2-7.1-7.6 0.2-1.7 2.1-4.9 4.2-6.8 4-3.2 3.9-0.4 3.2 2zm8.4 9.6c-0.2 0.2-1 0.4-1.7 0.6-1.2 0.2-1.4 0.2-1.6-1.1-0.3-1.6-0.6-4.3-0.1-5.4 1.3-3 7.1-10.4 9.8-8.6 1.1 0.9-4.1 7.5-5.1 10.1-0.4 1-0.7 3.3-1.3 4.4zm0.4 4.4c-1.2 0.1-3.2 0.3-3.7 1.7-0.5 1.2 0.5 1.9 1.4 2.8 2.4 2.7 12 5.2 12.9 1 0.2-1.2-7.5-5.6-10.6-5.5zm21.3-7.4c-0.4 0.3-0.8 0.1-1.3 0.5-0.5 0.3-1.3 1.2-1.9 1.6-3.9 2-9.3 3.1-11.2 1.1 0.6-2.9 9.1-6.2 13.6-5.9 3.3 0.2 2 1.5 0.8 2.7zm-245.2-104.4c2.6 0.89 3.3 1.06 3.1 3.96-0.1 2.69-0.9 6.23-1.5 8.29-2.3 1.22-8.4-1.86-9.8-4.12-1.1-1.77-1-6.99 0.6-8.31 1.5-1.23 4.9-0.77 7.6 0.18zm91.6-25.39c-0.5 0.55-0.5 2.05-0.7 2.7-0.3 0.7-1.7 1.97-1.4 2.66 0.4 0.79 1.6 0.68 3 0.91 1 0.17 1.5 1.05 2.5 1.07 1.5 0.04 3.5-0.88 4.3-1.41 2.5-1.79 4.9-10.52 3.5-11.94-1.5-1.59-6.8 3.34-8.3 4.89-0.9 0.46-2.3 0.36-2.9 1.12zm14.8 5.03c0.1 1.09-2.5 5.05-3.6 4.15 0.1-1.67 2.3-4.39 3.6-4.15zm-28.5 50.21c0.1 0.5-1.5 1-1.6 1.6-0.1 0.4 0.7 1.1 0.6 1.6 0 0.5-0.9 1.3-0.9 1.8s0.8 1.4 0.6 1.8c-0.1 0.4-0.9 0.9-1.2 1-1.1 0.2-3.5 0.4-4.4-0.2-0.4-0.4-0.8-1.6-0.7-2.1 0.2-0.6 0.8-1.5 1-2.1 0.3-0.8 0.2-2.3 0.5-3 0.3-0.6 1.3-1.6 1.9-1.7 1.1-0.3 3.9 0.2 4.2 1.3zm0.6-16.88c0.8-0.32 5.4 2.42 5.7 3.37 0.5 1.36-1.9 3.5-2.2 4.91-0.1 0.54 0.4 1.36 0.1 1.81-0.7 0.97-3.6 1.54-4.6 1.04-0.9-0.41-1.7-2.51-1.9-3.47-0.3-1.82 2.1-7.35 2.9-7.66zm-20.1 12.22c1.4-1.34 8.1 0.96 10.1 1.86 1.5 0.7-1 5-2.2 6-0.8 0.7-3.3 0.6-4.3 0.2-3.5-1.9-5.2-6.5-3.6-8.06zm8.5-10.79c-3.7-2.07-3.8 1.21-4 2.36-0.4 1.95 2.8 5.04 5.2 5.92 1.2 0.47 4.3 0.15 3.5-4.06-0.1-0.38 0.6-0.98 0.9-1.27 1.1-1.37-0.2-2.37-1.9-1.54-0.9 0.43-2.8-0.94-3.7-1.41zm0.7-9.54c-1.6-0.5-1.6-0.16-1.5 1.51 0.1 2.1 4.6 5.15 6.7 5.06 2-0.09 4.1-4.2 1.5-4.92-1.6-0.47-4.1-0.85-6.7-1.65zm14.9-4.73c1.3-2.17 1.1-1.82 2.4-0.95 1.3 0.92 3.1 1.77 4.7 2.19 1.4 0.39 1.8 0.38 1.4 1.81-0.8 3.28-3.2 8.26-7.6 5.71-4.2-2.42-2.6-6.12-0.9-8.76zm-9-6.49c-1.5-0.89-2.2-0.92-3 1.4-0.4 1.47-1 3.5 2.9 5.51 3.9 2 4.3 0.27 5.2-2.08 2.1-5.31-0.6-2.01-5.1-4.83zm22-6.71c-2.1 0.48-5 1-6 0.39-1.3-0.81-2.2-0.14-2.3 1.12-0.1 2.28-2.5 4.08-1.9 5.36 1 1.97 3.2 1.11 4.6 1.52 1.1 0.32 3.5 1.65 4.5 1.09 1.5-0.84 3.1-4.83 3.6-7.53 0.6-3.61-0.8-2.35-2.5-1.95zm-12.1-3.47c0.6-0.07 1.3-0.18 1 0.86-0.2 0.47-0.4 1-0.5 1.54-0.3 1.2-0.2 2.44-0.8 2.92-3.7 2.98-8.1-0.43-9-2.6-0.6-1.58 0.6-5.67 2-6.54 1.8-1.05 3.5 4.23 7.3 3.82zm-2.4-17.71c-1.2 0.67-1.3 2.88-1.5 5.02-0.2 3.03 0.5 6.25 6.3 7.58 1.3 0.29 2.7-4 1.8-5.02-2.8-3.45-4.4-8.79-6.6-7.58zm9.7 2.11c2.3-1.4 6.7-14.62 3.4-15.5-3.2-0.88-5.8 11.57-3.4 15.5zm-32.8 48.09c0.4 0.05 1 3.13 0.9 3.54-0.8 1.03-2.2 2.2-3.9 3.89-0.2-2.13 1.7-7.6 3-7.43zm2.9-9.25c0.8 0.09 1.3 3.39-0.3 3.3-2.4-0.13-0.5-3.38 0.3-3.3zm-4.9 1.55c-1-0.89-3.5 3.02-3.9 3.81-0.6 1.28-0.2 5.25 0.5 5.64 0.4 0.2 1.2-0.58 1.5-0.93 0.2-2.33 2.2-7.34 1.9-8.52zm-32.6-10.51c0.1-0.58-1.6 0.9-1.8 1.45-0.2 0.62 0.2 2.07 0.6 2.59 0.2 0.33 1.5 1.15 1.4 0.75-0.3-1.42-0.5-3.12-0.2-4.79zm7.8-18.69c0.1-0.33-1-1.71-1.4-2.42-0.1-0.33-1.1 0.48-1.1 0.84-0.1 0.36 0.5 1.02 0.8 1.22 0.3 0.24 1.5 0.74 1.7 0.36zm6.6 34.26c-1.3 0.5-2.7 3.48-3 4.88 1.6 1.55 1.3 3.72 0.5 4.78 7.1 1.87 12.4-3.33 12-6.73-0.3-2.47-4.9 0.29-9.5-2.93zm-7.5-2.28c1.5 0.48 2.5 0.18 2.2 2.34-0.2 2.04-1.2 4.62-2.1 4.98-2.9 1.12-10.1-6.24-7.1-10.35 1.1-1.49 3.3 1.82 7 3.03zm9.7-9.68c0.8-2.54 0.9-2.22 2.9-1.43 2.6 1.05 4.7 1.4 6.4 1.42 1.9 0.03 3.9-1.5 2.8 2.02-1.5 4.53-8.3 7.23-11.2 6.13-1.8-0.7-1.8-5.23-0.9-8.14zm-3.5-3.66c0.2 2.07-1.6 8.9-2.6 8.8-5.7-0.59-6.9-6.18-5.6-8.55 0.5-1 7.4-1.4 8.2-0.25zm6.8-8.12c0.8-2.39 0.8-1.98 3.6-1.79 2.2 0.15 4.6 0.01 6.9-0.62 1.9-0.52 4.2-2.32 2.7 1.84-1.2 3.58-5 7.2-8.7 6.39-5-1.1-5.2-3.73-4.5-5.82zm-4-4.63c-0.8-1.01-3.8 0.64-5.1 0.63-1.3-0.02-3.2-2.46-5.3-0.78-1.7 1.31 0 4.83 5.2 6.69 4.8 1.73 6.4-4.87 5.2-6.54zm-3.6-13.91c1.3 0.23 2.6 0.45 3.7 0.61 2 0.28 2.5 0.31 2.6 1.71 0 2.1-0.5 5.01-1 5.13-4.5 1.01-7.1-2.51-7.7-5.4-0.6-2.66-0.3-2.51 2.4-2.05zm11.2 1.54c-1.1 0.88-2 3.96-1.6 5.31 0.3 1.29 2.4 3.77 3.7 3.76 3.6-0.04 12.5-3.97 9.8-10.26-1.1-2.77-8.3 5.99-11.9 1.19zm1.5-9.88c0.8-0.63 2.1-1.09 3.4-2.02 1.6-1.17 5.8-5.06 7.8-6.82 1.5-1.34 2.1 0.65 2.1 1.93-0.3 4.67-7.5 12.79-14.1 11.21-1.1-0.26 0-3.62 0.8-4.3zm-5-4.34c-1.7-2.39-4-5.32-4.6-4.89-2.1 1.6-0.8 11.72 3.9 13.24 0.7 0.23 1.4-2 1.7-4 0.4-2.29 0.2-2.64-1-4.35zm6.3-14.2c1.9 1.25-0.2 10.48-2.5 11.32-2.3-2.04 0-10.82 2.5-11.32zm-42.9 63.17c0.3-4.5 1.7-3.31 2.8-3.47 3-0.41 6.1-1.36 7.2-0.79 3.3 1.64-3.1 13.97-7.4 12.72-1.9-0.57-2.8-5.08-2.6-8.46zm10.9-17.43c-2.9 0.98-6.4 1.52-8.2 2.2-0.9 1.27-1.5 5.84 0 6.33 6 2 10.7-3.53 11.3-7.36 0.7-4.52-2.5-1.38-3.1-1.17zm3.7-14.59c-3.6 1.46-7.6 1.83-10 2.2-2.1 0.33-1.2 7.8 0.8 8.53 3.2 1.13 10.2-4.76 11.8-8.99 1.8-4.66-1.3-2.25-2.6-1.74zm-29.6 14.52c-2.8-4.96 1.6-3.02 2.2-2.89 2.1 0.4 4.4 0.75 6.9 0.57 3.3-0.23 4.2-1.52 4.3 2.85 0.1 1.91-0.2 3.93-1.1 4.54-2.6 1.7-10.1-1.13-12.3-5.07zm11.7-7.32c-4.1 0.7-10.7-0.31-9.5-7.65 0.4-2.12 0.6-2.03 2.2-1.07 2.4 1.4 5.3 1.68 7.2 1.61 3.2-0.11 2.6 0.78 2.6 2.66 0 0.57 0 1.13-0.1 1.66-0.1 1.94-0.1 2.39-2.4 2.79zm7.4-17.28c0.1-3.11 1.1-1.59 2.2-1.55 2.8 0.09 6-1.67 8.4-3.11 2.1-1.34 2.7-2.2 2.9 1.36 0.2 7.75-7.1 10.68-10.7 9.93-1.7-0.34-2.9-4.1-2.8-6.63zm-16.2-1.01c-0.9-2.37-0.3-3.9 1.7-3.11 3.6 1.51 8.6 3.36 9.5 3.64 2.2 0.69 1.1 5.47-1.5 5.44-5-0.07-8.5-3.1-9.7-5.97zm25.1-22.89c5.1 8.81-2.4 18.02-8.5 17.48-0.8-2.41-0.1-7.69-0.3-11.07 2.1-0.37 5.8-3.3 8.8-6.41zm-16.3 16.51c-3.4-1.1-7-4.64-6.2-10.78 0.5-3.93 2.4-2.92 5.7-0.58 3.7 2.64 3.7 2.92 3.8 5.76 0.3 6.23 1.2 7.04-3.3 5.6zm8.2-28.18c-1.4-3.161-2-2.005-3-0.178-1.4 2.276-3.9 6.786-3.8 9.656 0.1 2.12 3.6 5.28 7.1 1.9 2.2-2.15 1.1-8.391-0.3-11.38zm-33.3 75.37c0.4 1.32 0.5 3.51-0.1 4.72 0.9 0.82 0.4 3.32 1.3 3.59 2.4 0.74 4-0.3 4.6-0.99 0.9-0.94 0.2-1.9 0.8-2.68 0.5-0.77 1.3-2.42 0.8-3.6-0.7-1.56-6.1-1.5-7.4-1.04zm-1.2-10.03c-0.3-4.8 1.3-2.41 3.8-2.68 0.5-0.06 1.1-0.15 1.6-0.27 2.1-0.48 4.3-3.33 4.6 1.57 0.2 2.21-0.4 4.84-1.5 5.68-1.5 1.23-6.4 0.04-7.7-1.46-0.5-0.54-0.8-1.69-0.8-2.84zm-6.2 6.59c3.1-0.73 3.3-1.93 4.2 2.37 0.4 1.98 0.6 3.91 0.1 5.14-2.5 5.34-15.1 6.98-11.5-5.9 0.5-1.74 2.5-0.5 7.2-1.61zm-9.2-7.23c-0.9-2.12-0.2-3.34 0.9-3.47 0.9-0.11 1.9 0.75 3.2 0.64 3.9-0.34 6.9-2.02 7.6 0.1 1.5 5.24-6.9 6.5-9.5 5.62-0.8-0.28-1.7-1.54-2.2-2.89zm23-15.32c-0.1-1.23-1.4-1.14-2.7-0.76-1.2 0.37-2.8 0.69-4.2 0.95-2.5 0.44-2.5 0.72-1.9 3.16 0.5 1.8 1.4 3.7 2.4 4.21 1.3 0.59 4.4-0.53 5.2-1.61 0.7-0.92 1.3-4.02 1.2-5.95zm-18.5-1.39c2.5-0.11 3.5-1.03 4.5-0.54 0.7 0.88 1.3 2.72 1.6 4.31 0.4 2.84 0 2.87-1.9 3.62-9.8 3.97-10.9-3.54-10.1-6.57 0.2-0.89 3.3-0.71 5.9-0.82zm7.2-10.57c-0.4-2.64-0.3-2.64 1.8-3.33 1.9-0.61 4-1.36 5.7-2.17 2.3-1.03 4-2.76 3.8 1.95-0.1 4.02-1.9 9.24-5.4 10.03-3.8 0.86-5.4-3.19-5.9-6.48zm-4 1.54c0.8-3.02-0.5-2.33-3.1-2.54-2.9-0.25-6.5-0.51-6.8 0.49-0.8 2.35 5 6.61 7.3 5.96 1.1-0.28 2.2-2.2 2.6-3.91zm8.5-24.89c-2 2.66-4.5 8.19-7 8.15-0.5 1.45 0.2 4.43 1 5.97 6.1 1.15 9.2-8.04 8.9-12.93-0.1-1.33-0.6-4.18-2.9-1.19zm-11.9 7.69c1.6 1.5 1.2 1.28 1.6 3.12 0.4 2.25 1.2 5.41-0.1 6.07-3.8 1.89-13-9.7-10.4-13.02 1.5-1.86 6.4 1.34 8.9 3.83zm3.3-9.16c1.1-3.23 1.1-7.414-2.8-9.577-1.9-1.092-3.6-1.326-3.7 1.633-0.1 2.524 0.9 6.344 2.3 8.764 2.3 3.9 3.4 1.73 4.2-0.82zm-25 77.07c0.7 0.4 1.5 2.39 1 3.07-1.8 2.83-7.5 0.24-7.5-1.68 0.1-1.65 5-2.2 6.5-1.39zm5.8-1.09c-0.5-1.97-0.1-2.13 1.6-2.73 1.3-0.45 2.8-0.92 4.1-1.57 1.1-0.59 2.2-2.47 2.1 0.78 0 3.68-4.6 5.8-6.6 5.27-0.5-0.14-0.9-0.91-1.2-1.75zm-14.2-8.47c1.3-0.49 2.8-0.98 4.1-1.4 1.7-0.54 2.5-1.09 2.8 0.83 0.1 0.64 0.1 1.17 0.1 1.6 0.4 1.92 0.1 2.29-1.7 3.32-2.3 1.32-4.5 0.41-5.9-0.92-1.8-1.79-2.7-2.08 0.6-3.43zm17.3-10.68c-1.4 0.94-3 2.07-4.3 3.12-2 1.73-1.7 2.35-1.3 4.21 0.3 1.59 0.9 3.23 1.7 3.63 5.9 0.75 8.7-5.59 8.5-9.82-0.2-5.46-2.8-2.33-4.6-1.14zm-8.1-4.87c-0.4-1-0.8-2.11-1.1-3.15-0.7-2.08-0.6-2.27 1.6-2.62 2-0.33 4-0.98 5.6-1.72 2.3-1.05 3.2-3.56 3.8 0.59 0.3 2.97-1 6.9-6.2 8.73-2.5 0.84-2.6 0.73-3.7-1.83zm-5-14.3c-0.1-0.31-0.2-0.61-0.3-0.9-0.3-1.1-0.4-1.48 1-1.57 3.3-0.21 6.3-1.68 8.5-2.93 3.1-1.8 4-2.22 3.3 1.71-0.4 2.21-1.4 4.67-1.8 5.23-1.7 1.54-6.7 1.15-9.4-0.03-0.7-0.31-1.2-0.96-1.3-1.51zm-1.6 19.07c1.2-0.37 1.4 0.06 1.6 0.47 0.3 0.61 0.6 0.9-0.9 1.66-1.7 0.88-5.1 2.52-6.6 2.31-1.7-0.23-2.7-2.36-1-2.6 1.6-0.23 5.2-1.29 6.9-1.84zm-5.9-13.17c2.1-0.82 4-0.4 4.3 1.86 0.1 0.95 0.3 2.39 0.7 3.12 0.3 0.77 0.9 2.25-1.1 3.19-1 0.45-3.1 1.4-4.2 1.72-2.9 0.9-4.1-1.47-5.2-2.59-0.6-0.69-1.2-2.54-1.4-3.43-0.4-1.18-0.8-2.09 1.2-2.37 1.7-0.24 4.1-0.85 5.7-1.5zm1.6-7.69c-7.5 6.41-13.3-0.16-14.4-3.7-1.1-3.32 1.2-3.02 2.4-2.91 2.4 0.23 6.2 1.04 8.2 1.5 1 0.22 2.6 0.22 2.9 1.46 0.2 1.14 0.8 2.19 0.9 3.65zm12.1-15.77c-2.5 3.02-7.4 5.74-9.4 6.61-2.2 0.95 3.8 5.99 9.4 1.59 1.3-1.01 2.8-4.17 3.2-6.78 0.3-4.75-1.7-3.19-3.2-1.42zm-13-1.85c0 0.39 0.3 1.11 0.6 1.76 0.5 1.14 0.6 1.32 1.8 0.71 1.5-0.76 3.8-2.09 4.4-3.06 1.7-2.77 4.4-11.86 1.3-12.91-1.3-0.47-3.7 7.61-5.2 9.96-0.6 0.95-2.3 2.47-2.9 3.54zm-3.7 2.16c0.3 1.17 1.5 3.54 1.2 4.26-0.4 0.62-2.3 0.13-3.5 0.24-3.4-1.13-11.2-6.77-8.3-9.94 0.8-0.84 8.2 3.48 10.6 5.44zm-6.3-21.64c-0.1 0.54 0.3 0.7 0.3 1.34s-0.3 1.76-0.2 2.45c0.6 4.36 2.8 9.4 5.6 9.76 2-2.12-0.2-10.98-3.1-14.49-2.1-2.51-2.4-0.69-2.6 0.94zm101.2 198.9c-0.6-0.3 0.4-2 0.5-2.4 12.8-30.6 25.9-58 35.3-79.2 2.3-5.3 4.3-10.5 6.1-15 0.4-1.2 0.9-3.3 3.1-2.2 1.2 0.7 3.2 1.5 4 1.4 0.4-0.1 1-1 1.5-1 0.1 0 2.2 1.2 3.7 2.2 1.8 1.2 1.3 1.6 0.4 2.9-9.3 13.8-22.3 38.9-33.9 60.2-1.5 2.8-4.1 5.6-5.6 8.2-4.1 7.4-6.8 13.8-10.2 18.9-1 0.1-2.1 2.2-3.2 3.9-0.5 0.8-1.1 2.4-1.7 2.1zm70.2-85.4c2.8-4.1 4.5-5.1 4-5.8-0.5-0.8-2 1.3-4.9 1.8-2.4 0.4-4.5-0.1-6.3-0.9-3.9-2-3.4-5-7.2 1.6-15.2 26.6-39.4 68-51.6 89.9-0.9 1.5-2.5 2.6-3.2 3.9-0.8 1.5 10.7 7.2 11.6 5.7 15.7-27.7 37.1-67 57.6-96.2zm13.1 14.4c3-3.3 2.8-2.2 0.3-4.9-1.5-1.8-2.9-4.3-3.9-6.8-1.8-4.8 0.7-10-4.7-1.8-17.2 26.1-45.9 72.7-59 97.8-0.5 0.9 1.6 1.8 3.3 2.8 2.3 1.2 4.6 2.3 5.2 1.2 16.8-30.4 40.7-67.9 58.8-88.3zm14.8 4.3c4.5-4.4 2.2-2.9-0.5-3.4-2.2-0.5-3.9-1.3-5.1-2.2-1.4-0.8-4.8 0.4-5.8 1.8-18.9 25.8-49 67.9-59 90.5-0.7 1.5 3.1 3.1 4 1.7 15.2-23.4 47.5-69.8 66.4-88.4zm-40.2 66.2c14-18.4 32.5-39 48-52 4.7-3.9 3.9-2.6 0.8-5.2-1.1-0.9-2-2.1-2.5-3.5-1.2-3.6 1.7-8-4-1.9-4.6 4.9-10 11.4-15.5 18.4-4.3 5.3-9.4 10.6-13.6 16.6-2.8 3.9-4.7 8.3-7.6 12.1-11.5 15.1-22.3 30-28.8 39.9-0.8 1.2 0.2 1.9 1.1 2.6 1.3 1.1 3.1 1.8 4.1 0 4.1-6.9 10.2-16.7 18-27zm59.2-44.3c3.3-2.5 2.6-2.4 0.4-3.9-4.9-3.4-3.1-6.1-7.3-2.3-37.1 33.6-56.5 63.3-67.7 80.2-0.8 1.1-0.1 1.5 0.6 2.2 1.6 1.5 2.7 1.4 3.7 0 9.7-13.6 47.4-58.5 70.3-76.2zm5.3 12.9c5.3-3.7 3.1-2.3 1-6.6-2-4.1 0.6-6.9-5.6-1.7-5.4 4.6-11.6 9.7-17.6 15.8-4.9 5-9.3 11.1-14.3 16.6-13.7 14.7-26.7 30.2-35.1 42.5-1.5 2.2 3.2 5.7 4.8 3.6 16.7-21.2 42-52.6 66.8-70.2zm9.6 10.4c-6.9 5.7-16.2 13.2-25.5 21.7-16.1 14.8-32.9 32.2-42.2 44.2-1.5 2-1.3 3-4.4 0.5-2.2-1.8-2-2.3-0.6-4.4 14.8-22.1 46.6-53.1 66.7-68.6 5-3.8 2.6-2.4 5.4 0.8 2.5 2.8 4.8 2.4 0.6 5.8zm3.7 6.7c0.3 2.1 0.9 4 1.7 5.5 1.2 2.5 0.5 3-1.9 4.1-25.8 11.4-49.8 36.5-64.9 56.9-1.5 1.9-2.1 2.4-4.1 0.5-2.4-2.4-1.8-2.5 0.2-4.9 9.3-10.7 24.3-26.3 39.2-40 10-9.1 20.2-17.1 27.5-23.3 1.8-1.4 2-0.7 2.3 1.2zm-109.1-91.9c1.6-4.7 1.4-6.6 2.2-6.6 1-0.1 0.1 2.4 1.5 5 1.1 2.1 2.7 3.6 4.5 4.5 3.8 2 6-0.2 2.9 6.7-12.5 28.1-31.5 72.1-42 94.9-0.7 1.5-0.6 3.5-1.2 4.9-0.7 1.5-12.2-4.4-11.5-6 13.1-29.1 32.1-69.6 43.6-103.4zm-18.7-1.8c0.9-4.4 0.2-3.5 3.8-3.2 2.4 0.2 5.2-0.1 7.7-0.8 5-1.4 7.8-6.42 4.4 2.7-10.9 29.3-31.7 79.9-44.3 105.4-0.4 0.9-2.3-0.2-4.1-1.1-2.4-1.1-4.6-2.3-4.1-3.5 14.6-31.4 30.8-72.8 36.6-99.5zm-12.9-10.07c0.9-6.18 1.1-3.43 3.1-1.6 1.6 1.47 3.3 2.33 4.7 2.86 1.5 0.54 2.6 4.01 2 5.71-9.4 30.5-25.3 79.8-37.4 101.3-0.8 1.4-4.5-0.7-3.9-2.3 9.8-26.1 27.9-79.7 31.5-106zm-28.9 71.97c6.5-22.2 12.2-49.2 13.4-69.48 0.4-6.06-0.1-4.71 3.8-3.72 1.4 0.34 2.9 0.38 4.3-0.07 3.6-1.11 5.5-6.03 3.9 2.17-1.2 6.6-3.3 14.7-5.6 23.3-1.8 6.6-3.1 13.9-5.4 20.9-1.5 4.5-3.9 8.6-5.3 13.2-5.4 18.2-11 35.7-15.1 46.9-0.5 1.3-1.6 0.9-2.8 0.6-1.6-0.5-3.2-1.4-2.4-3.3 3.2-7.4 7.5-18.1 11.2-30.5zm1.2-74.01c0.1-4.13 0.4-3.48 2.9-2.61 5.7 1.92 6.7-1.07 6.1 4.59-5.3 49.73-18 82.93-25.1 101.8-0.5 1.3-1.2 1-2.2 0.8-2-0.4-2.7-1.3-2.1-3 5.3-15.8 19.5-72.7 20.4-101.6zm-13.6 3.53c-0.2-6.46 0-3.78 4.7-4.67 4.6-0.87 5.2-4.6 4.7 3.44-0.5 7.11-0.9 15.11-2.2 23.51-1.1 7-3.4 14.1-4.8 21.4-3.7 19.7-8.4 39.5-13.3 53.5-0.8 2.5-6.4 0.9-5.7-1.7 7.1-26.1 17.2-65.1 16.6-95.48zm-13.2-1.61c-0.6 8.89-1.1 20.89-2.6 33.39-2.5 21.7-6.6 45.5-10.9 60.1-0.7 2.3-1.7 2.8 2.2 3.8 2.8 0.8 3 0.3 3.9-2.1 9.2-25 15.6-68.9 16.2-94.27 0.2-6.24 0.5-3.51-3.8-3.9-3.7-0.34-4.7-2.43-5 2.98zm-6.7 0.98c-1.8 0.97-3.8 1.53-5.4 1.81-2.8 0.44-2.8 1.32-2.3 3.9 5.7 27.6-0.8 61.7-8.6 85.8-0.8 2.4-0.8 3.2 1.9 3.7 3.3 0.6 3.1 0 3.8-3 3.4-13.8 7.4-35.1 9.9-55.2 1.6-13.4 2.2-26.3 3-35.84 0.2-2.28-0.6-2.08-2.3-1.17zm60.5 180c0.9-2.6 4-2.9 3.1-0.4-11.7 32.5-39.3 133.2-47.9 166.3-0.7 2.4-3.2 1.8-5.7 0.9-4.2-1.4-4.7-2.7-4-5 8.3-27.1 39.9-118.2 54.5-161.8zm-8.9-7.7c1.1-3.3 6.4 1.8 5.4 5.2-2.4 8.4-5.8 20.5-10.5 33.8-3.6 10-8.3 20.6-12.2 32-12.5 36.4-25.3 76.2-32.2 98.1-1 3.1-13.7-0.8-12.5-3.8 14-34.8 50.6-130.4 62-165.3zm-62.7 122.3c5.2-12.6 10.6-27.8 16.8-41.4 5.8-12.7 12.6-24.5 18.4-36.3 3.4-6.8 5.6-13.5 8.6-19.7 5-10.4 10.4-19.7 14.4-27 0.7-1.5 1.6-1 1.1 0.5-14 44.1-48.7 128.9-61.4 164.8-1.2 3.1-4.2 1.8-7.1 0.1-3.3-2-6.5-5.1-5-8.8 3.6-8.8 8.8-19.2 14.2-32.2zm53.7-124.6c0.5-1 1.9-0.3 1.2 0.7-2.9 4.4-7.9 14.7-11.1 20.1-0.6 0.9-1.4 0.1-0.8-0.8 3.1-5.2 8.1-14.9 10.7-20zm-54.1 116.1c3.4-7.7 7.3-20.5 10.8-28.4 3.1-6.9 5.9-9 8.9-15.6 6.7-14.9 13.4-28.3 17.8-37.9 0.4-0.8 2-4 1.5-4.5-0.5-0.7-2.3 3.2-2.8 4-1.4 2.2-2.7 4.8-4.3 7.7-2.2 4-4.4 8.9-7.3 14-1.1 2-3 4.4-4.2 6.6-2.7 5-5.5 10.3-8.4 15.9-3.8 7.4-7 15.5-10.9 23.3-5.4 10.9-9.4 21.7-13.8 32-3.3 7.5-7.7 14.2-10 20.7-0.9 2.7 3.3 6.5 4.4 3.9 4.7-11.1 11.2-25.9 18.3-41.7zm50.6-120.4c1.3-2.2 3.4-1.1 2.2 1.1-8.9 16.9-24.1 44-38.4 72.1-1.7 3.3-3.8 6.4-5.3 9.3-6.3 12.5-10.4 22-13.2 28.5-2 4.7-2.7 8-3.3 9.2-3.1 6.7-7.1 13.4-10.3 19.7-1.4 2.6-2.3 5.1-3.4 7.6-1.6 3.3-3.4 6.4-4.7 9-0.9 1.8-8.4-1.3-7.4-3.1 20.6-37.1 59-111.7 83.8-153.4zm-4.6-1.8c1.2-1.6 2.8-0.8 1.8 0.9-20.9 36-64.3 115.6-83.8 150.7-2.2 3.9-14.5-3.9-12-7.6 23-34.1 69.7-110.9 94-144zm-10.1-3.7c1.8-2.6 7.5 0.3 5.7 3-5.2 7.4-13.1 18.4-21.8 31.5-24.1 36.5-56.6 87.9-71.2 111.5-1.6 2.5-4 1.1-7.5-1.3-5.1-3.5-3.4-5.2-1.9-7.3 28.4-38.5 76.7-108.9 96.7-137.4zm-34.1 35.5c5.9-7.9 12-15.5 17.2-22.7 4-5.6 7.3-11.1 10.9-16 1.1-1.4 2.8-0.5 1.8 0.9-3.3 4.7-6.6 10.2-10.6 15.9-4.7 6.7-10.1 13.7-15 21.1-1.5 2.1-3.3 4.2-4.7 6.4-1.3 2.1-3.3 6.1-4.7 8.3-1.2 1.8-1.2 1.8-2.5 3.7-22.8 33-46.6 66.2-58.9 83.5-1.8 2.5-2.9 1.1-6.2-1.1-3.5-2.3-3.4-3.6-1.4-6 16.9-20.3 47.7-59.2 74.1-94zm81.4-9.4c0.6-1.6 0.2-2.5-1.7-3.5-2-1-2.9-0.9-3.5 0.9-15.7 49.6-34.2 114.2-47.1 164.6-0.5 2.2 1.7 3.1 4.1 3.6 2.5 0.6 5.2 0.8 5.7-1.5 8.3-35.7 30.2-128.5 42.5-164.1zm12.6 11.1c0.3-1.2-0.6-2.1-1.8-3.7-0.5-0.7-0.8-2.5-1.5-3-3.6-2.4-5.5-2.1-6.1-0.1-12.7 41-33.4 124.7-41.8 160.8-0.6 2.4 1.2 4 4.7 4.8 4.4 1.1 5.9 1.3 6.5-1.2 9.8-45.6 27.7-117.5 40-157.6zm8.3 8.8c0.2-0.6 2.6-5.2-0.6-6-2-0.6-4 0.1-4.5 1-1.9 3.8-2.7 6.7-4 11-2.3 7.2-3.4 14.8-5.6 22.6-11.1 39.3-21.4 86.3-29.2 122.2-0.5 2 1.7 2.9 4 3.6 4.5 1.3 5.5 0.6 5.9-1.7 7.5-40.2 18.8-108 34-152.7zm-19.5 154.2c-0.2 1.8 0.6 4.9-6 3.9-6.5-1-5.4-4.1-4.7-7.6 7.5-38.5 18-103.1 34.4-148.4 0.7-2.1 0.9-3.5 3.1-0.8 2.1 2.6 1.7 3.5 1.1 5.7-8.9 33.5-23.9 102-27.9 147.2zm25.5-111.4c1.1-4.4 1.7-9 2.9-13.2 2.1-7.7 4.3-12.7 6.2-19.4 0.7-2.3-2.1-3.8-2.8-1.4-2.2 8.8-9.6 41-11.9 50.6-9.5 39.2-11.6 56.2-16.9 95-0.3 2.5-0.3 5.5 3.4 4.4 2.9-0.9 3.1-1.4 3.3-3.7 2.7-38.1 7.4-77.1 15.8-112.3zm-89.8-95.9c2-3 7.3-0.3 5.2 2.6-30.8 42-70 92.6-102.5 133.5-1.3 1.7-3.4 0.4-5.3-1.2s-3.6-3.7-2.1-5.5c23.9-27.8 83.2-98.4 104.7-129.4zm-16.2-3.4c1.2-1.6 2.6-2.3 6.9-1 3.9 1.1 5.2 2.3 4 3.9-25.7 34.5-78.6 99.4-102.8 127.5-1.56 1.9-4.1 0.2-6.68-1-4.07-1.9-4.5-4-2.78-6 30.96-34.7 76.26-89.9 101.4-123.4zm-11.6-2.1c0.9-1.2 1.6-2.2 4.3-1.7 3 0.6 3.5 0.9 2.7 2.4-2 3.8-4.6 7.2-7.2 10.8-4.4 6.1-9.6 12.2-14.6 18.5-25.2 32.2-54.9 67.6-79.23 95.2-1.38 1.5-3.35 0.3-5.27-1.2-3.74-2.8-3.73-4-2.13-5.7 28.03-29.7 74.33-79.6 101.4-118.3zm-113.1 109.4c-0.72 0.7-1.87 1.9-1.55 2.6 1.48 3.2 7.77 6.4 10.53 3.5 26.72-28.8 72.62-76.4 99.62-116.3 1.2-1.9 2.2-2.8-1.3-3-3.2-0.1-3.8 0.7-5.2 2.5-21.8 27-67.9 80.8-102.1 110.7zm74.6-87.7c3-3.5 6.3-6.7 9-10.1 4.9-6.2 8.9-12.5 13.1-18 1.5-1.9 4.3-0.4 2.8 1.4-5.8 7.1-11.4 14.8-17.8 22.4-26 30.8-56.98 64.3-85.82 90.6-3.57 3.2-8.38-2-4.56-5 29.83-23.1 59.88-53.7 83.28-81.3zm191.8 13.9c0.9-2 1.8-2.9 3-0.9 1.7 2.8 3.5 10 3.1 13.5-0.3 2.3-1.9 6.1-4.2 8.7-1 1.2-2.2 3.1-2.9-0.8-1-5.7-1.1-15.7 1-20.5zm-12.4 29c-6.7-12.1-5.7-30-2.8-41.6 1.3-5.2 1.3-5.9 4.6-2.5 2 1.8 4.2 4.2 6.2 6.1 2.7 2.6 2.2 2.2 1.1 6.3-2.2 8.1-2.6 20.5-1 28 0.4 1.7 0.6 2.3-0.8 3.4-1.2 0.8-2.8 1.6-4.2 1.9-1.8 0.4-2.3-0.2-3.1-1.6zm-11.6-8.3c-8.7-10.8-12.6-33-10.2-47.1 1-6.2 1-6.6 5.3-3.8 2.6 1.7 5.4 3.8 7.9 5.9 5.3 4.5 4.5 4 3.4 10.2-1.7 9.2-3.5 23-2.7 32.9 0.4 4.3 1.4 8.4-3.7 1.9zm-11.6-8.6c-0.3 0.6-2.5-0.7-5.5-4.2-8.7-10.4-12.1-32-12-47.7 0-5.6-0.2-6 4.1-3.9 3.7 1.8 6.9 4 9.7 6 4.8 3.5 4.4 2.4 3.1 8.1-2.1 9.9-2.2 24.8-0.5 35.8 0.4 2.4 1.7 4.7 1.1 5.9zm-16.7-15.4c-0.8 0.5-3.3-0.4-7.6-5.1-9.1-9.9-14-28.2-14.1-42.5 0-4.6 0-5.4 4.5-3.5 2.7 1.3 6 2.8 8.7 4.1 5 2.4 4.7 1.5 4.8 5.3 0.1 9.1-0.4 23.4 2.1 34.4 0.5 2.2 2.2 6.2 1.6 7.3zm-24.8-15.2c-11.2-10.2-17.4-29-17.8-42.4-0.3-6.9 0.2-5.9 4.8-3.7 2.9 1.4 6 3.6 8.9 4.9 5.3 2.3 4.7 1.4 4 6.4-1.3 10.7 1.2 21.6 4.3 31.1 0.5 1.6 7.4 14.2-4.2 3.7zm-19.1-12.1c-10-7.1-16.9-25.8-17.6-39.4-0.2-3.7 0.5-4.1 3.5-2.9 2.9 1.1 5.8 2.3 8.4 3.3 3.8 1.5 3.8 1.3 3.8 4.8-0.2 8.7 1.3 21.7 4.7 31.8 1.1 3.6 1 5.1-2.8 2.4zm-17.8-8.5c-10.8-10.7-15.8-22.1-23.2-37.5-1.1-2.9-1.2-4.3 2.9-3.1 4.2 1.2 8.4 2.5 12.1 3.5 5.5 1.4 5.4 1.4 5.4 6.1 0 8.9 2.2 19.4 5.5 28.3 2.3 6.1 2.1 7-2.7 2.7zm-11.7-5.9c-7.2-10.1-13-23.6-15-33.9-0.4-2.3-0.1-2.5-3.3-3.1-2.1-0.4-4.5-0.8-6.9-1.2-3-0.4-3.6-0.3-2.9 3.3 3 15.4 13.6 31.5 26.3 37.2 6.5 3 3.5 0 1.8-2.3zm-31.9-38.9c2 13.8 4.9 25.8 11.9 34 2.2 2.4 2.1 3.1-1.3 2.1-15.9-5-21.7-21.8-21.4-32 0-2.9 8.1-5.4 10.8-4.1zm-6.9 34c-10-3.1-18.5-8.8-10.8-24.8 2.7-5.4 2.2-1.9 2.7 0.4 1.4 6.8 4.2 14.4 9.5 22.2 1.6 2.2 3 3.6-1.4 2.2z"/>
</svg>