<?xml version="1.0" encoding="UTF-8" standalone="no"?>
<!-- Created with Inkscape (http://www.inkscape.org/) -->
<svg
   xmlns:svg="http://www.w3.org/2000/svg"
   xmlns="http://www.w3.org/2000/svg"
   version="1.0"
   width="225"
   height="233"
   id="svg2">
  <defs
     id="defs4" />
  <g
     id="layer1">
    <path
       d="M 93.800505,229.48529 C 64.504562,224.42632 37.440984,207.60809 20.95554,182.88584 C 9.5386651,166.98076 2.8140018,147.75084 3.2246726,128.11699 C 2.2179164,86.089558 2.4059891,44.043169 2.0066052,2.006557 C 75.668864,2.006557 149.33112,2.006557 222.99338,2.006557 C 221.29803,46.67438 220.53342,91.407674 217.43088,136.0036 C 214.29155,165.28348 197.85401,192.52026 173.76242,209.58792 C 152.73121,225.16453 126.05536,233.70456 99.764843,230.22049 C 97.769887,230.03595 95.778696,229.8027 93.800505,229.48529 z "
       style="fill:#ea2e19;fill-opacity:1;stroke:#000000;stroke-width:4.01312447;stroke-miterlimit:4;stroke-dasharray:none;stroke-opacity:1"
       id="path1319" />
    <path
       d="M 164.70067,199.29126 C 163.98559,186.43983 163.26333,180.62027 154.62931,161.02178 C 151.03145,152.85496 142.0988,145.12736 153.06895,144.92755 C 161.89479,144.7668 171.75822,141.19961 176.11825,136.59157 L 178.4946,134.08004 L 175.14779,134.08004 C 171.03507,134.08004 170.75519,132.46889 174.70043,131.5048 C 178.39245,130.60261 186.56175,125.90975 186.56175,124.69107 C 186.56175,124.1818 185.76112,123.61203 184.78256,123.42492 C 183.30884,123.14311 183.56803,122.44615 186.29222,119.36554 C 188.10109,117.32 189.90207,114.37653 190.2944,112.82449 C 190.90615,110.40439 190.67952,110.00262 188.70257,110.00262 C 186.56596,110.00262 186.67322,109.68273 190.16979,105.62681 C 194.17398,100.98209 194.94494,98.487336 192.37613,98.487336 C 191.09833,98.487336 191.19463,97.861169 192.89936,95.08509 C 195.71871,90.493881 195.71321,86.981967 192.8878,87.715573 C 190.5297,88.327854 190.17895,86.901011 191.90183,83.704664 C 194.2456,79.356444 192.0682,79.254504 187.69805,83.507862 C 185.22747,85.912429 182.65638,87.701507 181.98448,87.4836 C 181.3126,87.265694 178.97647,89.416846 176.79308,92.263954 C 170.95668,99.874491 169.16591,99.011623 172.32816,90.112583 C 174.31547,84.519986 174.32515,84.606351 171.80099,85.401788 C 169.20626,86.21946 168.99628,84.236589 171.39851,81.601029 C 172.33692,80.571479 173.35349,77.537595 173.65755,74.859088 C 174.19933,70.086762 174.16329,70.014123 171.86106,71.237476 C 168.66932,72.93349 168.16722,72.069263 170.14172,68.27813 C 172.52966,63.693209 172.36261,59.804295 169.80624,60.468051 C 167.95916,60.947631 167.85276,60.475379 168.36907,54.088984 C 168.81818,48.533937 168.63189,47.191979 167.41168,47.191979 C 166.57842,47.191979 165.43458,47.650795 164.86979,48.211561 C 164.2035,48.873118 163.85178,47.126988 163.86817,43.239054 C 163.8918,37.634451 163.73933,37.263209 161.51039,37.49822 C 159.30585,37.730672 159.17637,37.445126 159.78175,33.686214 C 160.14165,31.451407 159.96353,28.784426 159.38589,27.759575 C 158.44504,26.090352 158.16391,26.225913 156.68746,29.060735 C 154.99043,32.319113 149.65983,36.561704 149.65983,34.653991 C 149.65983,32.481326 147.35961,33.69799 143.38302,37.973991 C 140.03073,41.578669 139.02378,42.137775 137.75978,41.096209 C 136.50529,40.062481 135.89715,40.316827 134.47666,42.469338 C 133.51778,43.922364 132.26378,46.337209 131.69,47.835651 C 130.83101,50.078916 130.37362,50.335001 129.10019,49.285667 C 127.8254,48.235204 127.36528,48.503126 126.48181,50.810302 C 125.89232,52.349772 125.41,54.493036 125.41,55.573101 C 125.41,58.138242 123.58691,59.198952 121.76229,57.695421 C 120.05836,56.291341 119.44151,57.896292 119.16128,64.462844 C 118.91694,70.188652 116.97528,71.909939 116.97528,66.400758 C 116.97528,60.546438 115.0539,55.456235 112.97676,55.807732 C 111.84301,55.999576 111.0723,54.982024 110.57355,52.634789 C 109.62379,48.165065 108.82274,47.455502 107.20551,49.651451 C 106.05312,51.216234 105.65858,50.781381 103.98448,46.101388 C 102.30898,41.417446 101.87167,40.936116 100.39263,42.148062 C 98.990864,43.296717 98.624435,43.279552 98.206655,42.045702 C 97.930603,41.23042 96.174013,38.90492 94.303103,36.877922 C 90.918217,33.210643 90.895321,33.203855 89.656452,35.502263 C 88.441848,37.755635 88.284827,37.677298 83.22825,32.29529 C 78.847261,27.632342 78.038848,27.133498 78.004876,29.072142 C 77.946065,32.427631 76.298065,32.893095 74.095332,30.176349 C 71.796504,27.341127 66.454853,23.114562 65.170403,23.114562 C 64.668721,23.114562 64.258242,24.527799 64.258242,26.255094 C 64.258242,30.164972 63.726626,30.17264 60.097303,26.315057 C 55.411828,21.334901 48.44314,20.653431 48.44314,25.1754 C 48.44314,27.9803 47.650524,27.836372 42.726965,24.137413 C 40.452895,22.428962 38.423192,21.199041 38.216523,21.404251 C 38.009833,21.609451 38.328466,23.05105 38.924582,24.607795 C 40.308913,28.22297 40.326533,33.583004 38.954073,33.583004 C 37.079297,33.583004 37.832534,36.483607 40.535579,39.673155 C 43.763595,43.482153 43.782604,43.813376 40.799167,44.264724 C 38.579307,44.600566 38.716442,44.917443 42.933695,49.197153 C 45.41242,51.712599 47.310233,53.875437 47.151058,54.003489 C 46.991872,54.131522 45.754745,54.808664 44.401888,55.50824 C 42.002031,56.749247 41.989203,56.832873 43.874723,58.943836 C 44.937632,60.133829 47.657673,62.451742 49.919257,64.094742 C 52.180842,65.737742 53.604199,67.132095 53.08228,67.193297 C 52.56036,67.254499 51.421654,67.372275 50.551822,67.455 C 46.872357,67.804998 48.330703,69.899456 54.242009,72.754812 C 60.552246,75.802852 60.560764,75.813189 57.650707,76.888815 C 53.629441,78.375171 54.514025,79.860127 60.637659,81.90305 C 66.154545,83.743553 66.941844,85.049071 63.080721,85.954087 C 61.784742,86.257848 60.558328,87.001071 60.355343,87.605675 C 59.866529,89.061669 64.638274,91.159427 68.438995,91.159427 C 72.0994,91.159427 74.801649,92.096193 74.801649,93.365112 C 74.801649,93.879282 73.61552,94.299959 72.165803,94.299959 C 68.494423,94.299959 68.877828,95.822715 73.220143,98.487336 C 75.249746,99.732783 76.910331,101.15271 76.910331,101.6427 C 76.910331,102.13271 77.859243,102.83265 79.019013,103.19813 C 82.608856,104.32941 81.486985,106.15406 77.701084,105.34165 C 75.816451,104.93723 72.49528,104.34525 70.320709,104.02611 C 66.60545,103.48089 66.366923,103.61208 66.366923,106.20082 C 66.366923,109.3692 64.238195,109.76784 60.040889,107.38551 C 55.769427,104.96109 53.557652,105.35233 54.3271,108.39624 C 54.950381,110.86195 54.767906,110.97302 50.241868,110.88282 C 43.855008,110.75553 42.617166,111.62389 44.695662,114.77354 C 46.954205,118.19601 46.845725,118.37739 42.54002,118.37739 C 38.611909,118.37739 31.573688,121.10175 31.573688,122.62225 C 31.573688,123.09844 32.048143,123.77918 32.628028,124.13503 C 33.207913,124.49087 33.682369,125.17921 33.682369,125.66466 C 33.682369,126.79346 27.798973,128.84582 24.563145,128.84582 C 23.199957,128.84582 22.084621,129.2596 22.084621,129.76533 C 22.084621,131.09393 29.888303,132.86264 33.078571,132.25711 C 35.909025,131.71989 36.606371,132.85178 34.644843,134.79936 C 33.105656,136.3276 34.394939,136.97604 40.608809,137.79892 C 46.782917,138.61655 47.036074,138.78377 45.280118,140.88453 C 43.297566,143.25637 44.687174,143.96616 51.132139,143.87367 C 57.05295,143.78869 57.821562,144.2396 55.568748,146.47639 C 53.474938,148.55533 56.648109,149.93825 62.413148,149.45928 C 67.513141,149.03556 68.770546,150.11798 66.173635,152.69641 C 63.769549,155.08342 66.530005,155.44374 74.584519,153.7943 C 79.053105,152.87921 82.908771,152.31072 83.152675,152.53099 C 83.396588,152.75127 82.54055,154.04713 81.250391,155.41068 C 79.186233,157.59224 79.111705,157.96877 80.629567,158.54708 C 81.578277,158.90856 84.21351,159.2043 86.485636,159.2043 C 88.757762,159.2043 90.616761,159.6433 90.616761,160.17987 C 90.616761,161.6202 85.376774,165.01483 80.957342,166.43753 C 78.834051,167.12107 76.855708,168.30415 76.561029,169.0666 C 76.266349,169.82905 72.669115,171.26949 68.567169,172.26758 C 64.465213,173.26566 61.329316,174.43612 61.598522,174.86861 C 61.867728,175.30109 64.538453,175.94308 67.533459,176.29529 C 73.967893,177.05192 74.521156,177.4306 72.581961,179.75057 C 71.23578,181.3611 71.546267,181.45897 76.385492,180.94947 C 79.283658,180.64435 82.539916,180.03086 83.621633,179.58616 C 85.27807,178.90521 85.475457,179.13094 84.872625,181.01678 C 84.216128,183.07053 84.446136,183.20338 87.65039,182.62096 C 89.571845,182.27172 92.521572,181.33537 94.205356,180.54016 C 98.2675,178.62173 99.051487,178.71287 99.051487,181.10364 C 99.051487,182.9168 99.43746,183.00906 103.00526,182.04876 C 105.17984,181.46346 108.58703,179.997 110.57678,178.78994 C 113.82575,176.81902 114.12094,176.78567 113.47279,178.46273 C 111.63508,183.21767 116.85949,182.0157 121.53413,176.60806 C 122.87488,175.05708 123.61975,174.77974 123.99425,175.6921 C 124.28968,176.4118 124.90999,177.00065 125.37272,177.00065 C 127.48532,177.00065 132.54806,168.30291 135.42624,159.72879 C 137.16589,154.54632 139.06371,150.30612 139.6436,150.30612 C 141.31873,150.30612 161.50404,191.9527 155.81531,201.76601 C 155.73389,201.90645 164.89724,199.06292 164.70067,199.29126 z "
       style="fill:#ffffff;fill-opacity:1;stroke:#000000;stroke-width:2.62646413;stroke-linecap:round;stroke-linejoin:round;stroke-miterlimit:4;stroke-dasharray:none;stroke-opacity:1"
       id="path4095" />
    <path
       d="M 75.279337,172.67598 C 78.994213,169.51276 88.231624,171.53738 94.063418,170.2763 C 109.90462,168.13922 124.78961,160.03859 135.46444,148.25351 C 138.97426,145.87991 133.60068,146.71925 131.8496,146.24841 C 117.42453,145.1339 103.82298,140.01593 90.151327,135.73837 C 75.235015,131.77891 60.194698,125.67581 44.469429,127.81832 C 40.527424,127.65765 50.287157,125.2672 51.940613,125.45077 C 67.846363,125.77594 83.051384,131.27298 98.215355,135.53625 C 110.42609,138.89834 122.65505,144.04236 135.54431,143.37783 C 140.79857,140.45237 131.27083,133.00196 130.12237,128.7866 C 116.67518,107.72266 101.56492,87.701677 85.073546,68.899499 C 76.297763,59.471582 67.507422,50.027571 58.518053,40.78574 C 55.904991,38.449103 53.455022,34.067882 58.16132,38.588342 C 74.999167,53.922773 90.73689,70.467181 105.29774,87.934469 C 117.44276,103.7215 129.44417,119.74606 138.6172,137.46625 C 142.51156,144.4304 144.01703,130.7499 145.19894,127.73093 C 147.12154,104.89673 146.09523,81.878158 148.62422,59.091263 C 149.56354,53.28345 151.50383,46.971014 155.35924,42.620384 C 153.00107,49.55159 150.8435,56.667021 150.65803,64.10296 C 148.49197,87.58759 152.16794,111.74966 145.38179,134.68087 C 142.92887,138.45247 143.46658,143.64526 148.33354,139.16492 C 164.4249,129.024 175.10538,112.6829 182.89582,95.785536 C 184.28468,92.336223 186.82803,90.033716 184.56034,95.208404 C 179.78349,106.75307 175.0306,118.83796 165.60155,127.52524 C 159.24326,133.86697 151.36237,143.71438 142.33814,143.03798 C 135.31239,152.64534 126.96419,161.63267 115.14805,166.05657 C 107.18248,170.1051 98.420293,172.12758 89.498112,172.36482 C 84.781091,172.56269 79.970975,173.27707 75.279337,172.67598 z "
       style="fill:#000000"
       id="path4093" />
  </g>
</svg>
