<svg xmlns="http://www.w3.org/2000/svg" width="701.33" height="741.77" viewBox="0 0 701.3341 741.76859"><g transform="translate(-18.875-63.19)"><path d="m24.555 68.69l13.398 416.62c7.415 175.25 153.92 314.05 331.59 314.14 177.51-.215 324.07-139.06 331.59-314.14l13.398-416.62h-344.98z" fill="#f00" fill-rule="evenodd"/><path d="m5.68 5.5l4.172 129.75 531.59 541.07c51.16-35.654 91.77-85.21 116.05-143.2l-518.37-527.62h-133.43z" transform="translate(18.875 63.19)" fill="#ffd700" stroke="#000" stroke-linejoin="round" stroke-linecap="round" stroke-width="11"/><g fill-rule="evenodd"><path d="m144.9 186.03l37.08 148.54 147.86 39.701-37.08-148.54-147.86-39.701m238.01 242.25l37.08 148.54 147.86 39.701-37.08-148.54-147.86-39.701"/><path d="m24.555 68.69l13.398 416.62c7.415 175.25 153.92 314.05 331.59 314.14 177.51-.215 324.07-139.06 331.59-314.14l13.398-416.62h-344.98z" fill="none" stroke="#000" stroke-width="11"/></g><g fill="#ffd700" stroke="#000" stroke-linejoin="round" stroke-width="11"><path d="M229.82878 493.43829A109.07003 109.07003 0 0 0 120.75846 602.50861 109.07003 109.07003 0 0 0 229.82878 711.57892 109.07003 109.07003 0 0 0 338.8991 602.50861 109.07003 109.07003 0 0 0 229.82878 493.43829m14.02929 33.3125a77.09948 77.09948 0 0 1 60.25 55.10547h-60.25v-55.11zm-28.06.012v55.09h-60.17a77.09948 77.09948 0 0 1 60.17188 -55.09375zm-61.37 91.44h150.87a77.09948 77.09948 0 0 1 -75.46679 61.41016 77.09948 77.09948 0 0 1 -75.39843 -61.41016z" stroke-linecap="round"/><path d="m652.58 198.72c-4.237-12.242-6.138-25.289-5.571-38.23.454-10.344 2.477-20.617 5.98-30.361-6.172 3.091-12.04 6.795-17.48 11.04-4.797 3.741-9.266 7.902-13.34 12.42-6.802-6.921-14.781-12.681-23.491-16.959-14.477-7.111-30.762-10.04-46.89-10.181-16.71-.149-33.792 2.749-48.3 11.04-14.06 8.04-25.09 20.868-32.2 35.421-6.716 13.748-10.06 28.928-16.56 42.781-3.537 7.542-8.03 14.693-13.8 20.7-4.416 4.597-9.56 8.493-15.18 11.5 7.484 3.711 14.13 9.09 19.32 15.64 7.572 9.555 11.858 21.23 16.1 32.661 4.546 12.25 9.244 24.594 16.56 35.421 12.194 18.04 31.429 30.98 52.51 36.454 19.539 5.074 40.928 3.782 59.1-5 18.635-9 33.29-25.741 40.19-45.25 3.198-9.04 4.784-18.559 6.731-27.952 1.948-9.392 4.316-18.828 8.909-27.25 2.787-5.109 6.37-9.783 10.58-13.8-4.176-1.214-8.108-3.259-11.5-5.98-6.949-5.575-11.33-13.636-16.1-21.16-6.681-10.538-14.675-20.6-25.3-27.14-10.766-6.627-23.708-9.228-36.34-8.74-14.13.546-28.386 5.04-39.1 14.26-12.305 10.594-19.09 27.01-18.86 43.24.227 16.05 7.104 31.833 18.4 43.24 8.416 8.499 19.21 14.619 30.821 17.48-.434-6.723.676-13.542 3.22-19.78 4.02-9.854 11.674-18.18 21.16-23-5.779 2.471-12.505 2.639-18.4.46-6.444-2.382-11.701-7.416-15.18-13.34-3.483-5.93-5.319-13-4.14-19.78 1.095-6.295 4.754-12.01 9.66-16.1 5.624-4.693 12.915-7.347 20.24-7.36 8.755-.015 17.424 3.779 23.46 10.12 4.48 4.706 7.496 10.665 9.395 16.88 1.899 6.214 2.729 12.704 3.256 19.18 1.452 17.855.496 36.52-7.565 52.52-4.758 9.442-11.935 17.684-20.762 23.504-8.827 5.82-19.293 9.181-29.865 9.36-12.162.206-24.283-3.817-34.2-10.865-9.914-7.05-17.625-17.04-22.384-28.24-8.04-18.909-7.606-40.28-5.52-60.721 1.932-18.937 5.32-38.19 14.72-54.741 4.418-7.78 10.15-14.87 17.18-20.405 7.03-5.536 15.383-9.483 24.22-10.875 8.386-1.321 17.02-.335 25.2 1.93 8.182 2.265 15.962 5.781 23.559 9.57 20.346 10.147 39.661 22.36 57.55 36.39z" fill-rule="evenodd"/></g></g></svg>