<svg xmlns="http://www.w3.org/2000/svg" width="1313.14" height="768.48" viewBox="0 0 1313.1382 768.47851"><path d="m688.88 5.5v446.09 23.572c12.84 160.46 148.12 285.18 309.38 285.24 161.17-.128 296.48-124.88 309.38-285.24v-23.572-446.09h-309.38z" fill="#fff"/><g stroke="#000" stroke-width="11"><g stroke-linecap="round"><path d="m688.88 382.66v68.932 23.572c12.84 160.46 148.12 285.18 309.38 285.24 161.17-.128 296.48-124.88 309.38-285.24v-23.572-68.932h-618.76z" fill="#09f"/><path d="m688.88 5.5v446.09 23.572c12.84 160.46 148.12 285.18 309.38 285.24 161.17-.128 296.48-124.88 309.38-285.24v-23.572-446.09h-309.38z" fill="none"/><path d="m845.8482 440.50688a55.5 55.5 0 0 0 -55.5 55.5 55.5 55.5 0 0 0 55.5 55.5 55.5 55.5 0 0 0 55.5 -55.5 55.5 55.5 0 0 0 -55.5 -55.5zm304.8145 0a55.5 55.5 0 0 0 -55.5 55.5 55.5 55.5 0 0 0 55.5 55.5 55.5 55.5 0 0 0 55.5 -55.5 55.5 55.5 0 0 0 -55.5 -55.5zM998.2564 602.35454a55.5 55.5 0 0 0 -55.5 55.5 55.5 55.5 0 0 0 55.5 55.5 55.5 55.5 0 0 0 55.5 -55.5 55.5 55.5 0 0 0 -55.5 -55.5z" fill="#fff"/></g><g fill="#09f" fill-rule="evenodd"><path d="m998.26 25.82c-1.902 4.058-4.091 7.909-6.531 11.496-5.155 7.572-11.374 13.883-17.342 20.465-5.971 6.582-11.79 13.596-15.854 22.13-3.712 7.791-5.847 16.678-6.529 25.691-1.499 19.803 3.862 39.34 9.692 57.854 5.831 18.521 12.299 37.23 13.164 57.09.713 16.369-2.432 32.564-5.127 48.615-2.694 16.05-4.959 32.646-2.493 48.754.666 4.35 1.681 8.637 3.267 12.602 1.586 3.965 3.757 7.605 6.529 10.386 5.072 5.088 11.825 7.04 16.872 12.17 1.698 1.726 3.174 3.788 4.354 6.085 1.18-2.297 2.657-4.36 4.354-6.085 5.05-5.126 11.8-7.082 16.871-12.17 2.772-2.782 4.944-6.421 6.529-10.386 1.586-3.965 2.601-8.25 3.267-12.602 2.466-16.1.201-32.703-2.493-48.754-2.694-16.05-5.84-32.24-5.127-48.615.866-19.858 7.334-38.567 13.164-57.09 5.831-18.521 11.192-38.06 9.692-57.854-.683-9.02-2.817-17.894-6.529-25.691-4.065-8.533-9.89-15.543-15.854-22.13-5.971-6.582-12.188-12.896-17.342-20.465-2.441-3.581-4.629-7.432-6.531-11.496z"/><path d="m921.11 102.39c-3.034-.021-6.067.369-9.03 1.194-8.934 2.469-17.05 8.719-23.402 16.903-4.375 5.634-7.991 12.238-10.266 19.538-2.275 7.301-3.179 15.313-2.252 23.06 1.425 11.902 6.99 22.395 13.06 31.776 5.695 8.796 12.02 17.11 16.325 27.05 3.345 7.713 5.397 16.287 5.987 25.02 4.03-1.907 7.571-5.392 9.988-9.836 2.417-4.443 3.698-9.819 3.618-15.183-.091-6.112-1.884-11.952-3.294-17.812-.707-2.928-1.322-5.902-1.589-8.941-.264-3.039-.17-6.157.532-9.08 1.135-4.751 3.945-8.896 7.62-10.817 3.233-1.692 6.917-1.628 10.34-.676 5.393 1.499 10.356 5.149 14.15 10.141 3.409 4.488 5.872 9.997 7.572 15.795 1.7 5.798 2.663 11.89 3.314 18.01 1.263 11.878 1.373 23.975 0 35.837-.539 4.652-1.312 9.294-2.749 13.641-1.437 4.347-3.569 8.408-6.503 11.374-2.801 2.831-6.249 4.575-9.796 5.408-4.398 1.033-9.137.649-13.06-2.027-2.507-1.71-4.609-4.324-5.987-7.44-3.59 6.21-5.356 14.01-4.897 21.636.584 9.721 4.776 18.903 10.884 25.02 4.325 4.328 9.686 7.225 15.242 7.44 4.326.167 8.648-1.297 12.453-3.856 3.805-2.559 7.112-6.188 9.859-10.344 4.661-7.05 7.72-15.575 9.656-24.38 1.937-8.802 2.791-17.906 3.404-27.01 1.212-17.996 1.494-36.13 0-54.09-2.135-25.674-8.02-51.14-19.05-73.02-5.787-11.479-13.191-22.13-22.861-28.402-5.925-3.838-12.592-5.875-19.266-5.921zm154.28 0c-6.669.046-13.348 2.084-19.266 5.921-9.668 6.265-17.07 16.915-22.861 28.402-11.03 21.875-16.912 47.35-19.05 73.02-1.494 17.96-1.212 36.1 0 54.09.613 9.09 1.468 18.203 3.404 27.01 1.937 8.802 4.997 17.325 9.656 24.38 2.747 4.156 6.05 7.785 9.859 10.344 3.805 2.559 8.127 4.02 12.453 3.856 5.551-.213 10.913-3.109 15.242-7.44 6.111-6.116 10.301-15.296 10.884-25.02.458-7.625-1.308-15.424-4.897-21.636-1.377 3.114-3.48 5.731-5.987 7.44-3.924 2.676-8.662 3.06-13.06 2.027-3.547-.833-6.995-2.578-9.796-5.408-2.935-2.965-5.067-7.03-6.503-11.374-1.437-4.347-2.21-8.989-2.749-13.641-1.373-11.855-1.263-23.956 0-35.837.651-6.117 1.612-12.215 3.314-18.01 1.7-5.798 4.162-11.307 7.572-15.795 3.793-4.992 8.757-8.642 14.15-10.141 3.423-.952 7.108-1.015 10.34.676 3.672 1.922 6.483 6.072 7.62 10.817.7 2.93.796 6.05.532 9.08-.264 3.039-.882 6.01-1.589 8.941-1.413 5.856-3.204 11.695-3.294 17.812-.081 5.36 1.201 10.743 3.618 15.183 2.416 4.443 5.957 7.928 9.988 9.836.59-8.73 2.643-17.309 5.987-25.02 4.311-9.938 10.633-18.251 16.325-27.05 6.072-9.38 11.638-19.869 13.06-31.776.926-7.744.023-15.755-2.252-23.06-2.274-7.301-5.891-13.908-10.266-19.538-6.355-8.184-14.466-14.43-23.402-16.903-2.964-.818-5.998-1.21-9.03-1.194z"/></g></g><g fill-rule="evenodd"><path d="m998.26 50.43c-2.329 49.48-3.469 99.14-3.417 148.78.051 47.45 1.191 94.89 3.417 142.18 2.226-47.29 3.365-94.74 3.415-142.18.053-49.646-1.086-99.3-3.415-148.78"/><path d="m924.04 129.98c-1.16.004-2.319.114-3.469.337-6.707 1.302-12.788 6.635-16.209 13.924-2.218 4.727-3.351 10.172-3.624 15.633-.381 7.595.884 15.306 3.624 22.11-.421-6.709-.322-13.468.294-20.15.507-5.502 1.413-11.11 3.831-15.758 2.968-5.707 8.127-9.483 13.557-10.26 4.083-.585 8.25.439 12.04 2.429 3.785 1.99 7.213 4.922 10.364 8.201 6.622 6.892 12.12 15.406 16.274 24.82 8.724 19.778 11.317 42.802 12.314 65.33.756 17.09.59 34.81-4.924 50.49-1.686 4.794-3.872 9.356-6.737 13.188-2.866 3.833-6.435 6.92-10.444 8.513-3.795 1.508-7.937 1.635-11.789.365 3.578 3.085 8.04 4.539 12.378 4.03 5.375-.63 10.357-4.198 14.07-9.08 3.712-4.874 6.242-10.98 8.04-17.309 4.522-15.961 4.553-33.31 3.837-50.2-.948-22.4-3.252-45.28-11.501-65.23-4.792-11.59-11.539-21.942-19.746-30.05-3.644-3.6-7.602-6.778-11.948-8.858-3.257-1.56-6.746-2.485-10.227-2.469m148.41 0c-3.48-.012-6.969.912-10.227 2.469-4.343 2.08-8.3 5.258-11.941 8.858-8.207 8.107-14.953 18.458-19.746 30.05-8.248 19.949-10.554 42.826-11.502 65.23-.715 16.898-.683 34.24 3.839 50.2 1.794 6.331 4.324 12.438 8.04 17.309 3.712 4.874 8.693 8.442 14.07 9.08 4.335.508 8.8-.946 12.378-4.03-3.851 1.271-7.993 1.142-11.789-.365-4.01-1.593-7.577-4.68-10.443-8.513-2.866-3.833-5.05-8.394-6.737-13.188-5.514-15.682-5.68-33.403-4.924-50.49.997-22.524 3.59-45.549 12.314-65.33 4.152-9.414 9.653-17.929 16.274-24.82 3.152-3.279 6.576-6.209 10.363-8.201 3.785-1.99 7.95-3.01 12.04-2.429 5.43.778 10.587 4.553 13.557 10.26 2.418 4.65 3.325 10.257 3.832 15.758.617 6.686.715 13.445.294 20.15 2.74-6.804 4-14.516 3.623-22.11-.274-5.462-1.405-10.907-3.623-15.633-3.421-7.291-9.502-12.622-16.209-13.924-1.149-.223-2.31-.333-3.47-.337"/></g><path d="m950.64 220.55h95.24v35.16h-95.24z" fill="#09f" stroke="#000" stroke-linejoin="round" stroke-linecap="round" stroke-width="11"/><path d="m5.5 8.07v446.09 23.572c12.84 160.46 148.12 285.18 309.38 285.24 161.17-.128 296.48-124.88 309.38-285.24v-23.572-446.09h-309.38z" fill="#fff"/><g stroke="#000" stroke-linecap="round"><g fill="#f00" stroke-width="8"><path d="m166.70469 32.86388a18.544882 28.638931 0 0 0 -18.54492 28.638672 18.544882 28.638931 0 0 0 .18945 3.861328l-52.959 52.959a28.638931 18.544882 0 0 0 -3.85937 -.19141 28.638931 18.544882 0 0 0 -28.63867 18.54493 28.638931 18.544882 0 0 0 28.63867 18.54492 28.638931 18.544882 0 0 0 3.86133 -.18946l52.957 52.957a18.544882 28.638931 0 0 0 -.18945 3.85742 18.544882 28.638931 0 0 0 18.54492 28.64062 18.544882 28.638931 0 0 0 18.54492 -28.64062 18.544882 28.638931 0 0 0 -.18945 -3.85742l52.957-52.957a28.638931 18.544882 0 0 0 3.85742 .18946 28.638931 18.544882 0 0 0 28.64062 -18.54492 28.638931 18.544882 0 0 0 -28.64062 -18.54493 28.638931 18.544882 0 0 0 -3.85742 .18946L185.06 65.36a18.544882 28.638931 0 0 0 .19141 -3.859375 18.544882 28.638931 0 0 0 -18.54492 -28.638672zm0 69.08l34.738 34.736-34.738 34.736-34.736-34.736 34.736-34.736z"/><path d="m149.33 222.92h34.742v336.19h-34.742z"/><path d="m233.37 382.56v26.994h-28.639v-24.17h-20.658v100.92h20.658v-24.17h28.639v26.996h46.949v-26.06h-21.13v-54.46h21.13v-26.06h-46.949z"/><path d="m136.42 204.14h60.56v17.841h-60.56z"/></g><path d="m169.02148 529.50059a72.53551 72.53551 0 0 0 -68.63867 49.29493h-69.06C80.01 687.63 189.6 762.92 314.88 762.97v-184.17h-77.24a72.53551 72.53551 0 0 0 -68.61852 -49.29641z" fill="#090" stroke-width="11"/></g><path d="m314.88 18.395v734.25c156.76-.125 288.37-121.46 300.91-277.44v-22.928-433.88h-300.91"/><g stroke="#000"><path d="m314.88 8.07v754.9" fill="none" fill-rule="evenodd" stroke-width="11"/><g stroke-linecap="round"><g stroke-width="8"><path d="m552.97 8.07l-238.09 590.52v164.38c29.803-.024 58.717-4.319 86.14-12.303l223.24-553.68v-188.92h-71.29zm-238.09 754.9c-1.695 0-3.387-.021-5.076-.049 1.689.028 3.381.048 5.076.049zm-32.717-1.75c.399.043.799.084 1.199.125-.4-.041-.8-.083-1.199-.125zm5.914.572c.894.078 1.788.156 2.684.227-.896-.07-1.79-.149-2.684-.227zm5.092.402c.932.066 1.865.126 2.799.184-.934-.057-1.867-.118-2.799-.184zm5.01.314c1.587.086 3.177.163 4.77.225-1.593-.062-3.182-.139-4.77-.225zm5.74.258c1.409.05 2.82.09 4.232.121-1.413-.031-2.824-.071-4.232-.121z" fill="#fff"/><path d="m550.86 331.66l-46.994-18.948-25.69 63.716 46.994 18.948z" fill="#f00"/><path d="m503.87 312.71l-46.994-18.948-25.69 63.716 46.994 18.948z" fill="#fff"/><path d="m482.57 230.04l46.994 18.948-25.69 63.716-46.994-18.948z" fill="#f00"/><path d="m529.56 248.99l46.994 18.948-25.69 63.716-46.994-18.948z" fill="#fff"/><path d="m602.24 204.23l-46.994-18.948-25.69 63.716 46.994 18.948z" fill="#f00"/><path d="m555.25 185.28l-46.994-18.948-25.69 63.716 46.994 18.948z" fill="#fff"/><path d="m533.95 102.61l46.994 18.948-25.69 63.716-46.994-18.948z" fill="#f00"/><path d="m580.94 121.56l-25.691 63.717 46.994 18.947 22.02-54.609v-10.588l-43.32-17.467z" fill="#fff"/><path d="m499.49 459.09l-46.994-18.948-25.69 63.716 46.994 18.948z" fill="#f00"/><path d="m452.49 440.14l-46.994-18.948-25.69 63.716 46.994 18.948z" fill="#fff"/><path d="m431.19 357.48l46.994 18.948-25.69 63.716-46.994-18.948z" fill="#f00"/><path d="m478.18 376.42l46.994 18.948-25.69 63.716-46.994-18.948z" fill="#fff"/><path d="m572.06 8.07l-12.43 30.83 46.994 18.949 17.629-43.725v-6.05h-52.19zm34.564 49.779l-25.691 63.715 43.32 17.465v-74.07l-17.629-7.107zm-256.9 637.16l-25.691 63.715 9.115 3.676c15.858-.946 31.424-3.086 46.6-6.354l16.971-42.09-46.994-18.947zm-25.691 63.715l-9.162-3.693v7.941c2.503-.002 4.998-.036 7.488-.098l1.674-4.15z" fill="#f00"/><g fill="#fff"><path d="m606.63 57.845l-46.994-18.948-25.69 63.716 46.994 18.948z"/><path d="m624.26 14.12l-17.629 43.725 17.629 7.107v-50.832zm-300.22 744.6l-1.674 4.15c3.612-.09 7.206-.261 10.789-.475l-9.115-3.676z"/></g><path d="m448.11 586.52l-46.994-18.948-25.69 63.716 46.994 18.948z" fill="#f00"/><path d="m401.11 567.57l-46.994-18.948-25.69 63.716 46.994 18.948z" fill="#fff"/><path d="m379.81 484.91l46.994 18.948-25.69 63.716-46.994-18.948z" fill="#f00"/><g fill="#fff"><path d="m426.8 503.86l46.994 18.948-25.69 63.716-46.994-18.948"/><path d="m314.88 680.96v74.07l9.162 3.693 25.691-63.715-34.854-14.05z"/></g><path d="m328.43 612.35l-13.549 33.602v35.01l34.852 14.05 25.691-63.717-46.994-18.947z" fill="#f00"/><path d="m375.42 631.29l46.994 18.948-25.69 63.716-46.994-18.948z" fill="#fff"/></g><path d="m5.5 8.07v446.09 23.572c12.84 160.46 148.12 285.18 309.38 285.24 161.17-.128 296.48-124.88 309.38-285.24v-23.572-446.09h-309.38z" fill="none" stroke-width="11"/></g></g></svg>