<?xml version="1.0" encoding="UTF-8" standalone="no"?><svg xmlns:svg="http://www.w3.org/2000/svg" xmlns="http://www.w3.org/2000/svg" version="1.0" width="500" height="524"><path d="M 223.91565,509.05208 C 128.50163,465.4101 58.210942,389.07751 32.811121,301.52079 C 24.896238,274.2371 19.540476,232.4612 8.075891,78.049781 C 4.5587265,30.678539 5.118181,5.1106786 5.1773046,5.1106786 L 494.88994,5.1106786 C 494.88994,5.1106786 490.99376,80.239245 484.80945,147.09397 C 472.67669,278.25347 470.70007,290.60928 456.14086,326.30084 C 431.62853,386.39219 387.92225,436.66063 322.28635,480.25277 C 299.03831,495.69299 255.0636,518.91594 249.12274,518.8902 C 247.06922,518.88121 235.72604,514.45419 223.91565,509.05208" style="fill:#fff;stroke:#000;stroke-width:10" /><path d="M 249.88746,241.31867 L 24.642587,241.31867 L 25.998457,252.19809 C 34.206601,318.05997 64.021692,377.94737 114.41564,429.79497 C 150.34125,466.757 187.6211,491.07128 231.7603,513.51056 C 238.72649,517.05218 249.88746,523.02467 249.88746,522.97564 L 249.88746,241.31867 z M 248.55917,8.815421 L 491.61544,8.815421 C 491.61544,8.815421 487.64439,58.481216 485.74982,88.192516 C 481.13148,160.61964 472.95466,241.43444 472.73698,241.43444 L 249.88151,241.32116 L 248.55917,8.815421" style="fill:#000" /></svg>
