<svg xmlns="http://www.w3.org/2000/svg" height="472" width="423"><path d="M4.9 4.65h413.2v265.042c0 130.274-112.283 197.658-206.6 197.658S4.9 399.966 4.9 269.692z" fill="#0081c9" fill-rule="evenodd" stroke="#000" stroke-width="8" stroke-linecap="round" stroke-linejoin="round"/><g stroke="#000" stroke-linecap="round" stroke-linejoin="round"><path d="M45.08 40.916c6.3-6.275 8.044.147 10.27 3.813 50.482-5.02 83.921 14.102 118.286 31.914 19.374-3.601 37.526-5.167 60.8-15.27l77.71 137.581c-15.341-2.366-30.683-5.16-46.024-3.519 7.505 35.225 32.947 46.96 57.235 59.382 24.006 12.276 59.444 14.884 70.703 34.075-21.973 18.783-43.945 22.83-65.918 28.25-.155 39.613-8.45 57.86-19.618 68.562-23.446-4.137-35.638-35.753-47.547-80.788-5.354-20.246-17.2-37.23-37.105-45.797l9.64 34.65c-16.02-.77-23.717-2.926-31.655-5.042-8.5-19.814-13.52-34.753-15.099-44.878l-41.811-12.832 6.35 35.418c-13.878-5.321-27.333-10.855-38.475-17.545-1.29-12.22-1.264-24.441-1.199-36.662-10.24-7.532-21.662-18.605-33.269-30.237-1.331 16.238-2.663 25.804-3.994 32.386-11.368-5.515-21.696-13.11-31.688-21.376 3.356-16.267 8.6-30.645 8.158-50.71.556-9.02-2.804-15.428-7.025-21.263-2.919-4.034-11.195 3.753-8.983-11.95.845-6 3.395-8.865 6.094-12.296l-3.113-10.449c-8.116 1.844-13.074-5.682-4.157-8.784 5.495-1.911 8.396-2.525 12.085-3.534 6.632-1.723 6.79-6.037-1.256-13.631-2.344-6.49-5.33-13.556.605-19.468z" fill="#fff" fill-rule="evenodd" stroke-width="5"/><path d="M266.122 195.435c-23.004-44.184-42.2-90.6-92.486-118.792m13.122 167.206c14.1 4.4 28.46 9.9 37.114 15.27m-112.249-46.89c10.915 6.843 21.497 14.683 33.324 18.788m-66.593-49.026c.705-13.261 1.69-26.45.953-33.72m-20.09-31.529c7.565 13.29 32.886 16.187 49.507-1.833M47.19 127.731c26.82 19.7 65.066 12.645 82.492-33.591M74.01 147.43c6.48 1.26 12.377 1.686 19.02.492m172.636 129.656c13.284 12.685 26.26 2.603 14.337-12.062 14.353 7.66 24.9-.426 14.79-11.424m-49.345 21.359c8.457 5.499 21.579 1.276 18.112-8.102 7.241 5.04 17.204-.278 13.576-11.604m14.337-18.757c8.893 17.545-8.91 24.714-22.486 11.899m-10.562-10.999c10.108 14.518-1.653 24.747-13.43 16.204m6.771-23.52c8.02 11.604 27.93 12.505 27.93-5.057m-35.608-10.835c12.684 10.23 5.443 28.544-11.016 23.961m1.814-30.377c5.88 6.874 23.23 10.23 23.539-8.56M247.799 173c5.042 14.501-2.352 22.137-15.02 15.28 10.109 17.087-3.321 30.688-19.019 20.458m16.443-43.078c9.364 13.765.859 30.41-14.774 23.356 8.44 14.518-4.682 24.747-22.032 16.81m33.34-63.685c9.363 13.748-3.775 28.56-17.189 20 8.44 14.534-5.135 29.478-19.926 19.706m-25.337-5.172c18.55 6.4 24.43-7.348 20.364-19.558 13.122 5.957 24.138-3.06 18.549-17.562 12.684 3.813 19.916-3.847 12.221-17.579m-80.261 44.47c18.565 4.255 27.005-6.432 22.777-18.79 15.698 6.875 26.552-5.204 21.125-19.705 12.684 3.813 23.684-10.23 13.575-22.603M111.62 157.41c18.565 4.305 24.446-7.627 20.98-18.773 15.243 8.086 27.912-3.813 21.561-18.33 15.245 5.188 25.807-11.605 13.139-23.962m-49.491 32.063c16.896 6.874 21.124-12.373 14.79-19.706 12.215 5.188 22.324-5.5 14.03-19.231 13.883 4.73 20.67-11.915 14.336-19.526m121.598 214.523c13.883 14.485 25.806-7.35 12.23-14.976m12.215-11.146c21.125 6.416 53.266 19.231 72.269 29.46M55.043 44.73c-2.576 7.332.34 10.687 3.774 15.891 3.16 5.025 5.88 9.608.972 18.92 9.98 17.268-17.63 25.725-15.378 39.768m227.581 181.646c2.138 15.418 11.923 52.67 34.247 74.045M282.1 301.414c3.645 13.437 19.18 47.939 29.144 61.523m-21.579-63.979c2.544 6.416 24.446 43.52 27.913 48.267m-19.764-49.183c3.32 5.205 17.334 22.308 20.655 26.58m-14.337-31.768c4.682 3.371 16.005 13.748 20.217 18.02m-16.426-26.106c7.225 2.586 29.548 15.876 35.445 20.148m-34.263-29.002c4.245 1.67 41.796 20.147 49.038 24.272m-49.783-32.832c13.576 5.204 46.024 19.706 61.576 27.644M40.916 96.782c2.879-3.3 6.08-4.955 8.473-6.733.405-4.73-4.037-6.318-11.586-3.716M199.424 255.29c1.28 4.746 6.804 22.291 8.44 27.038m.324-22.75c.842 4.271 5.427 21.375 7.241 23.96m1.199-21.374c.842 3.355 3.775 15.876 6.334 22.291M120.17 217.732c0 3.355-.256 19.701-.256 24.742m8.91-18.33c-1.264 6.873.421 20.163 1.296 24.271m5.476-20.917c.437 4.288 3.029 20.917 4.244 24.894M58.808 151.457c-1.264 6.416-5.427 29.935-7.695 36.81m14.79-35.124c0 4.271-5.151 32.063-6.334 39.395m11.907-37.25c.437 9.46-1.652 35.875-2.56 42.291m201.431-14.35c3.775 0 18.258.49 22.032.85m-28.916-12.363c5.427 0 18.354 1.136 21.675 1.152m-27.022-11.473c5.735-.393 17.95-.442 22.194-.442m-29.435-11.162c4.228-.426 14.79-2.603 18.111-2.603m-27.313-9.77c4.228-.426 18.565-3.356 22.34-3.814m-35.163-9.496c7.533-.85 21.733-3.794 27.468-4.253m-38.34-8.578c5.898-1.277 25.817-5.464 30.79-5.923m-42.124-6.526c8.457-2.144 26.589-5.389 33.668-6.306m-48.123-5.573c13.5-.74 33.248-6.856 38.031-9.386" fill="none" stroke-width="5"/><path d="M99.692 83.06c3.92 0 6.95-2.438 7.112-5.5 0-3.043-3.192-5.498-7.112-5.498s-6.934 2.455-6.934 5.499c0 3.06 3.176 5.5 6.934 5.5zm0 7.79c8.149 0 14.79-5.957 14.79-13.29 0-7.332-6.641-13.125-14.79-13.125S84.918 70.392 84.918 77.56c0 7.332 6.625 13.126 14.774 13.29z" fill="none" stroke-width="4.999"/></g></svg>