<svg xmlns="http://www.w3.org/2000/svg" width="701.33" height="741.77" viewBox="0 0 701.3341 741.76859"><g transform="translate(-27.447-69.19)" fill-rule="evenodd" stroke="#000" stroke-width="11"><path d="m33.13 74.69l13.398 416.62c7.415 175.25 153.92 314.05 331.59 314.14 177.51-.215 324.07-139.06 331.59-314.14l13.398-416.62h-344.98z" fill="#fff"/><path d="m378.11 162.62l-287.82 405.71h287.82 287.82l-287.82-405.71zm15.818 69.83l66.19 93.13h-66.19v-93.13zm-31.639.002v93.12h-66.18l66.18-93.12zm-58.4 120.13h58.4v94.14h-58.4v-94.14zm90.04 0h58.41v94.14h-58.41v-94.14zm-122.45 7.648v86.5h-61.47l61.47-86.5zm213.27 0l61.47 86.5h-61.47v-86.5zm-271.43 115.05h111.92l-55.963 55.961-55.959-55.961zm217.66 0h111.92l-55.963 55.961-55.961-55.961zm-37.05 4.967l60.51 60.5h-60.51v-60.5zm-31.639.002v60.5h-60.5l60.5-60.5zm-180.23 5.791l54.711 54.711h-93.59l38.883-54.711zm392.09 0l38.883 54.711h-93.59l54.709-54.711z" fill="#f00" stroke-linejoin="round"/></g></svg>