<?xml version="1.0" encoding="UTF-8" standalone="no"?>
<!-- Created with Inkscape (http://www.inkscape.org/) -->
<svg
   xmlns:svg="http://www.w3.org/2000/svg"
   xmlns="http://www.w3.org/2000/svg"
   version="1.0"
   width="353.77328"
   height="379.44455"
   id="svg3729">
  <defs
     id="defs3731" />
  <g
     transform="translate(-173.11336,-342.63991)"
     id="layer1">
    <path
       d="M 174.79473,345.50186 C 174.79473,345.50186 183.7679,524.64582 187.3676,566.52587 C 190.78605,606.31274 208.73465,643.88634 237.90595,672.32365 C 268.08988,701.75093 307.2515,717.95292 348.18236,717.95292 C 389.11101,717.95292 428.27941,701.75093 458.4588,672.32365 C 487.6301,643.88634 505.57644,606.31274 508.99263,566.52587 C 512.59459,524.64582 521.57454,345.50186 521.57454,345.50186 L 174.79473,345.50186 z"
       id="path149"
       style="fill:#ffffff;stroke:#1b1a1c;stroke-width:3.24617004;stroke-linecap:butt;stroke-linejoin:miter;stroke-miterlimit:4;stroke-dasharray:none;stroke-opacity:1" />
    <path
       d="M 176.6101,346.13665 C 176.6101,346.13665 185.58327,525.28062 189.18297,567.16067 C 192.60142,606.94754 210.55002,644.52113 239.72132,672.95845 C 269.90525,702.38572 309.06687,718.58772 349.99773,718.58772 C 390.92637,718.58772 430.09478,702.38572 460.27417,672.95845 C 489.44546,644.52113 507.39181,606.94754 510.808,567.16067 C 514.40995,525.28062 523.3899,346.13665 523.3899,346.13665 L 176.6101,346.13665 z"
       id="path3391"
       style="fill:#ffffff;stroke:#1b1a1c;stroke-width:6.99347687;stroke-linecap:butt;stroke-linejoin:miter;stroke-miterlimit:4;stroke-dasharray:none;stroke-opacity:1" />
    <path
       d="M 229.22891,608.651 L 218.53571,608.651 L 218.53571,625.77558 L 235.50739,625.77558 L 235.50739,643.30972 L 245.5879,643.30972 L 256.90963,643.30972 L 256.90963,660.76059 L 279.51761,660.76059 L 279.51761,676.72502 L 323.22077,677.92564 C 346.20344,681.93327 351.08342,693.24011 355.78673,704.34779 C 362.57577,693.05418 365.73358,682.69547 389.96059,677.92564 L 432.6194,677.92564 L 432.6194,660.76059 L 449.09276,660.76059 L 449.09276,643.30972 L 464.75504,643.30972 L 464.75504,627.1787 L 486.20989,627.1787 L 486.20989,608.651 L 481.16894,608.651 L 453.75742,533.80221 L 229.22891,608.651 z"
       id="path2430"
       style="fill:#0066b3;fill-opacity:1;fill-rule:evenodd;stroke:#1b1a1c;stroke-width:2.87249994;stroke-linecap:butt;stroke-linejoin:miter;stroke-miterlimit:4;stroke-dasharray:none;stroke-opacity:1" />
    <rect
       width="38.469257"
       height="17.038691"
       x="218.48804"
       y="608.60333"
       id="rect2446"
       style="opacity:0.98989898;fill:#0066b3;fill-opacity:1;fill-rule:nonzero;stroke:#1b1a1c;stroke-width:2.87249994;stroke-linecap:butt;stroke-linejoin:miter;marker:none;marker-start:none;marker-mid:none;marker-end:none;stroke-miterlimit:4;stroke-dasharray:none;stroke-dashoffset:0;stroke-opacity:1;visibility:visible;display:inline;overflow:visible;enable-background:accumulate" />
    <rect
       width="38.469257"
       height="17.038691"
       x="235.50745"
       y="626.27106"
       id="rect3354"
       style="opacity:0.98989898;fill:#0066b3;fill-opacity:1;fill-rule:nonzero;stroke:#1b1a1c;stroke-width:2.87249994;stroke-linecap:butt;stroke-linejoin:miter;marker:none;marker-start:none;marker-mid:none;marker-end:none;stroke-miterlimit:4;stroke-dasharray:none;stroke-dashoffset:0;stroke-opacity:1;visibility:visible;display:inline;overflow:visible;enable-background:accumulate" />
    <rect
       width="38.469257"
       height="17.038691"
       x="256.90967"
       y="643.30975"
       id="rect3356"
       style="opacity:0.98989898;fill:#0066b3;fill-opacity:1;fill-rule:nonzero;stroke:#1b1a1c;stroke-width:2.87249994;stroke-linecap:butt;stroke-linejoin:miter;marker:none;marker-start:none;marker-mid:none;marker-end:none;stroke-miterlimit:4;stroke-dasharray:none;stroke-dashoffset:0;stroke-opacity:1;visibility:visible;display:inline;overflow:visible;enable-background:accumulate" />
    <rect
       width="38.469257"
       height="17.038691"
       x="279.5177"
       y="660.76062"
       id="rect3358"
       style="opacity:0.98989898;fill:#0066b3;fill-opacity:1;fill-rule:nonzero;stroke:#1b1a1c;stroke-width:2.87249994;stroke-linecap:butt;stroke-linejoin:miter;marker:none;marker-start:none;marker-mid:none;marker-end:none;stroke-miterlimit:4;stroke-dasharray:none;stroke-dashoffset:0;stroke-opacity:1;visibility:visible;display:inline;overflow:visible;enable-background:accumulate" />
    <rect
       width="38.469257"
       height="17.038691"
       x="317.9801"
       y="660.76062"
       id="rect3360"
       style="opacity:0.98989898;fill:#0066b3;fill-opacity:1;fill-rule:nonzero;stroke:#1b1a1c;stroke-width:2.87249994;stroke-linecap:butt;stroke-linejoin:miter;marker:none;marker-start:none;marker-mid:none;marker-end:none;stroke-miterlimit:4;stroke-dasharray:none;stroke-dashoffset:0;stroke-opacity:1;visibility:visible;display:inline;overflow:visible;enable-background:accumulate" />
    <rect
       width="38.469257"
       height="17.038691"
       x="356.17206"
       y="660.76062"
       id="rect3362"
       style="opacity:0.98989898;fill:#0066b3;fill-opacity:1;fill-rule:nonzero;stroke:#1b1a1c;stroke-width:2.87249994;stroke-linecap:butt;stroke-linejoin:miter;marker:none;marker-start:none;marker-mid:none;marker-end:none;stroke-miterlimit:4;stroke-dasharray:none;stroke-dashoffset:0;stroke-opacity:1;visibility:visible;display:inline;overflow:visible;enable-background:accumulate" />
    <rect
       width="38.469257"
       height="17.038691"
       x="394.15015"
       y="660.76062"
       id="rect3364"
       style="opacity:0.98989898;fill:#0066b3;fill-opacity:1;fill-rule:nonzero;stroke:#1b1a1c;stroke-width:2.87249994;stroke-linecap:butt;stroke-linejoin:miter;marker:none;marker-start:none;marker-mid:none;marker-end:none;stroke-miterlimit:4;stroke-dasharray:none;stroke-dashoffset:0;stroke-opacity:1;visibility:visible;display:inline;overflow:visible;enable-background:accumulate" />
    <rect
       width="38.469257"
       height="17.038691"
       x="295.823"
       y="643.72192"
       id="rect3366"
       style="opacity:0.98989898;fill:#0066b3;fill-opacity:1;fill-rule:nonzero;stroke:#1b1a1c;stroke-width:2.87249994;stroke-linecap:butt;stroke-linejoin:miter;marker:none;marker-start:none;marker-mid:none;marker-end:none;stroke-miterlimit:4;stroke-dasharray:none;stroke-dashoffset:0;stroke-opacity:1;visibility:visible;display:inline;overflow:visible;enable-background:accumulate" />
    <rect
       width="38.469257"
       height="17.038691"
       x="334.59796"
       y="643.30975"
       id="rect3368"
       style="opacity:0.98989898;fill:#0066b3;fill-opacity:1;fill-rule:nonzero;stroke:#1b1a1c;stroke-width:2.87249994;stroke-linecap:butt;stroke-linejoin:miter;marker:none;marker-start:none;marker-mid:none;marker-end:none;stroke-miterlimit:4;stroke-dasharray:none;stroke-dashoffset:0;stroke-opacity:1;visibility:visible;display:inline;overflow:visible;enable-background:accumulate" />
    <rect
       width="38.469257"
       height="17.038691"
       x="372.78992"
       y="643.72192"
       id="rect3370"
       style="opacity:0.98989898;fill:#0066b3;fill-opacity:1;fill-rule:nonzero;stroke:#1b1a1c;stroke-width:2.87249994;stroke-linecap:butt;stroke-linejoin:miter;marker:none;marker-start:none;marker-mid:none;marker-end:none;stroke-miterlimit:4;stroke-dasharray:none;stroke-dashoffset:0;stroke-opacity:1;visibility:visible;display:inline;overflow:visible;enable-background:accumulate" />
    <rect
       width="38.469257"
       height="17.038691"
       x="411.2735"
       y="643.72192"
       id="rect3372"
       style="opacity:0.98989898;fill:#0066b3;fill-opacity:1;fill-rule:nonzero;stroke:#1b1a1c;stroke-width:2.87249994;stroke-linecap:butt;stroke-linejoin:miter;marker:none;marker-start:none;marker-mid:none;marker-end:none;stroke-miterlimit:4;stroke-dasharray:none;stroke-dashoffset:0;stroke-opacity:1;visibility:visible;display:inline;overflow:visible;enable-background:accumulate" />
    <rect
       width="38.469257"
       height="17.038691"
       x="274.2489"
       y="626.27106"
       id="rect3374"
       style="opacity:0.98989898;fill:#0066b3;fill-opacity:1;fill-rule:nonzero;stroke:#1b1a1c;stroke-width:2.87249994;stroke-linecap:butt;stroke-linejoin:miter;marker:none;marker-start:none;marker-mid:none;marker-end:none;stroke-miterlimit:4;stroke-dasharray:none;stroke-dashoffset:0;stroke-opacity:1;visibility:visible;display:inline;overflow:visible;enable-background:accumulate" />
    <rect
       width="38.469257"
       height="17.038691"
       x="312.7323"
       y="625.77563"
       id="rect3376"
       style="opacity:0.98989898;fill:#0066b3;fill-opacity:1;fill-rule:nonzero;stroke:#1b1a1c;stroke-width:2.87249994;stroke-linecap:butt;stroke-linejoin:miter;marker:none;marker-start:none;marker-mid:none;marker-end:none;stroke-miterlimit:4;stroke-dasharray:none;stroke-dashoffset:0;stroke-opacity:1;visibility:visible;display:inline;overflow:visible;enable-background:accumulate" />
    <rect
       width="38.469257"
       height="17.038691"
       x="351.21588"
       y="625.77563"
       id="rect3378"
       style="opacity:0.98989898;fill:#0066b3;fill-opacity:1;fill-rule:nonzero;stroke:#1b1a1c;stroke-width:2.87249994;stroke-linecap:butt;stroke-linejoin:miter;marker:none;marker-start:none;marker-mid:none;marker-end:none;stroke-miterlimit:4;stroke-dasharray:none;stroke-dashoffset:0;stroke-opacity:1;visibility:visible;display:inline;overflow:visible;enable-background:accumulate" />
    <rect
       width="38.469257"
       height="17.038691"
       x="389.69946"
       y="626.27106"
       id="rect3380"
       style="opacity:0.98989898;fill:#0066b3;fill-opacity:1;fill-rule:nonzero;stroke:#1b1a1c;stroke-width:2.87249994;stroke-linecap:butt;stroke-linejoin:miter;marker:none;marker-start:none;marker-mid:none;marker-end:none;stroke-miterlimit:4;stroke-dasharray:none;stroke-dashoffset:0;stroke-opacity:1;visibility:visible;display:inline;overflow:visible;enable-background:accumulate" />
    <rect
       width="38.469257"
       height="17.038691"
       x="428.47449"
       y="626.27106"
       id="rect3382"
       style="opacity:0.98989898;fill:#0066b3;fill-opacity:1;fill-rule:nonzero;stroke:#1b1a1c;stroke-width:2.87249994;stroke-linecap:butt;stroke-linejoin:miter;marker:none;marker-start:none;marker-mid:none;marker-end:none;stroke-miterlimit:4;stroke-dasharray:none;stroke-dashoffset:0;stroke-opacity:1;visibility:visible;display:inline;overflow:visible;enable-background:accumulate" />
    <rect
       width="38.469257"
       height="17.038691"
       x="256.90967"
       y="608.73694"
       id="rect3384"
       style="opacity:0.98989898;fill:#0066b3;fill-opacity:1;fill-rule:nonzero;stroke:#1b1a1c;stroke-width:2.87249994;stroke-linecap:butt;stroke-linejoin:miter;marker:none;marker-start:none;marker-mid:none;marker-end:none;stroke-miterlimit:4;stroke-dasharray:none;stroke-dashoffset:0;stroke-opacity:1;visibility:visible;display:inline;overflow:visible;enable-background:accumulate" />
    <rect
       width="38.469257"
       height="17.038691"
       x="295.23993"
       y="608.73694"
       id="rect3386"
       style="opacity:0.98989898;fill:#0066b3;fill-opacity:1;fill-rule:nonzero;stroke:#1b1a1c;stroke-width:2.87249994;stroke-linecap:butt;stroke-linejoin:miter;marker:none;marker-start:none;marker-mid:none;marker-end:none;stroke-miterlimit:4;stroke-dasharray:none;stroke-dashoffset:0;stroke-opacity:1;visibility:visible;display:inline;overflow:visible;enable-background:accumulate" />
    <rect
       width="38.469257"
       height="17.038691"
       x="333.43182"
       y="608.73694"
       id="rect3388"
       style="opacity:0.98989898;fill:#0066b3;fill-opacity:1;fill-rule:nonzero;stroke:#1b1a1c;stroke-width:2.29802418;stroke-linecap:butt;stroke-linejoin:miter;marker:none;marker-start:none;marker-mid:none;marker-end:none;stroke-miterlimit:4;stroke-dasharray:none;stroke-dashoffset:0;stroke-opacity:1;visibility:visible;display:inline;overflow:visible;enable-background:accumulate" />
    <rect
       width="38.469257"
       height="17.038691"
       x="371.91534"
       y="608.73694"
       id="rect3390"
       style="opacity:0.98989898;fill:#0066b3;fill-opacity:1;fill-rule:nonzero;stroke:#1b1a1c;stroke-width:2.87249994;stroke-linecap:butt;stroke-linejoin:miter;marker:none;marker-start:none;marker-mid:none;marker-end:none;stroke-miterlimit:4;stroke-dasharray:none;stroke-dashoffset:0;stroke-opacity:1;visibility:visible;display:inline;overflow:visible;enable-background:accumulate" />
    <rect
       width="38.469257"
       height="17.038691"
       x="410.33203"
       y="608.73694"
       id="rect3392"
       style="opacity:0.98989898;fill:#0066b3;fill-opacity:1;fill-rule:nonzero;stroke:#1b1a1c;stroke-width:2.87249994;stroke-linecap:butt;stroke-linejoin:miter;marker:none;marker-start:none;marker-mid:none;marker-end:none;stroke-miterlimit:4;stroke-dasharray:none;stroke-dashoffset:0;stroke-opacity:1;visibility:visible;display:inline;overflow:visible;enable-background:accumulate" />
    <rect
       width="38.469257"
       height="17.038691"
       x="447.74072"
       y="608.65106"
       id="rect3394"
       style="opacity:0.98989898;fill:#0066b3;fill-opacity:1;fill-rule:nonzero;stroke:#1b1a1c;stroke-width:2.87249994;stroke-linecap:butt;stroke-linejoin:miter;marker:none;marker-start:none;marker-mid:none;marker-end:none;stroke-miterlimit:4;stroke-dasharray:none;stroke-dashoffset:0;stroke-opacity:1;visibility:visible;display:inline;overflow:visible;enable-background:accumulate" />
    <g
       transform="matrix(1.5955747,0,0,1.5955747,162.58122,328.93734)"
       id="g3414"
       style="stroke:#1b1a1c;stroke-opacity:1">
      <rect
         width="31.517616"
         height="89.802528"
         x="41.770336"
         y="85.503372"
         id="rect3396"
         style="opacity:0.98989898;fill:#0066b3;fill-opacity:1;fill-rule:nonzero;stroke:#1b1a1c;stroke-width:1.80029178;stroke-linecap:butt;stroke-linejoin:miter;marker:none;marker-start:none;marker-mid:none;marker-end:none;stroke-miterlimit:4;stroke-dasharray:none;stroke-dashoffset:0;stroke-opacity:1;visibility:visible;display:inline;overflow:visible;enable-background:accumulate" />
      <path
         d="M 57.691917,95.30752 L 57.691917,110.31826"
         id="path3398"
         style="fill:none;fill-rule:evenodd;stroke:#1b1a1c;stroke-width:2.75684357;stroke-linecap:round;stroke-linejoin:miter;stroke-miterlimit:4;stroke-dasharray:none;stroke-opacity:1" />
      <path
         d="M 57.658983,117.36975 L 57.658983,132.38049"
         id="path3400"
         style="fill:none;fill-rule:evenodd;stroke:#1b1a1c;stroke-width:2.75684357;stroke-linecap:round;stroke-linejoin:miter;stroke-miterlimit:4;stroke-dasharray:none;stroke-opacity:1" />
      <path
         d="M 57.544353,139.60801 L 57.544353,154.61875"
         id="path3402"
         style="fill:none;fill-rule:evenodd;stroke:#1b1a1c;stroke-width:2.75684357;stroke-linecap:round;stroke-linejoin:miter;stroke-miterlimit:4;stroke-dasharray:none;stroke-opacity:1" />
      <path
         d="M 38.352762,58.71727 L 45.705264,58.71727 L 45.705264,66.69161 L 52.023054,66.69161 L 52.023054,58.71727 L 63.035233,58.71727 L 63.035233,66.69161 L 68.292493,66.69161 L 68.292493,58.71727 L 76.705524,58.71727 L 76.705524,85.50337 L 38.352762,85.50337 L 38.352762,58.71727 z"
         id="path3404"
         style="fill:#0066b3;fill-opacity:1;fill-rule:evenodd;stroke:#1b1a1c;stroke-width:1.44023347;stroke-linecap:butt;stroke-linejoin:miter;stroke-miterlimit:4;stroke-dasharray:none;stroke-opacity:1" />
      <path
         d="M 45.705264,51.12266 L 45.705264,58.71727 L 38.352762,58.71727 L 41.770335,51.12266 L 45.705264,51.12266 z"
         id="path3408"
         style="fill:#0066b3;fill-opacity:1;fill-rule:evenodd;stroke:#1b1a1c;stroke-width:1.44023347;stroke-linecap:butt;stroke-linejoin:miter;stroke-miterlimit:4;stroke-dasharray:none;stroke-opacity:1" />
      <path
         d="M 52.023054,51.12266 L 52.023054,58.71727 L 63.035233,58.71727 L 63.035233,51.12266 L 52.023054,51.12266 z"
         id="path3410"
         style="fill:#0066b3;fill-opacity:1;fill-rule:evenodd;stroke:#1b1a1c;stroke-width:1.44023347;stroke-linecap:butt;stroke-linejoin:miter;stroke-miterlimit:4;stroke-dasharray:none;stroke-opacity:1" />
      <path
         d="M 68.292493,51.12266 L 68.292493,58.71727 L 76.705524,58.71727 L 73.287951,51.12266 L 68.292493,51.12266 z"
         id="path3412"
         style="fill:#0066b3;fill-opacity:1;fill-rule:evenodd;stroke:#1b1a1c;stroke-width:1.44023347;stroke-linecap:butt;stroke-linejoin:miter;stroke-miterlimit:4;stroke-dasharray:none;stroke-opacity:1" />
    </g>
    <g
       transform="matrix(1.5955747,0,0,1.5955747,365.97171,328.93734)"
       id="g3424"
       style="stroke:#1b1a1c;stroke-opacity:1">
      <rect
         width="31.517616"
         height="89.802528"
         x="41.770336"
         y="85.503372"
         id="rect3426"
         style="opacity:0.98989898;fill:#0066b3;fill-opacity:1;fill-rule:nonzero;stroke:#1b1a1c;stroke-width:1.80029178;stroke-linecap:butt;stroke-linejoin:miter;marker:none;marker-start:none;marker-mid:none;marker-end:none;stroke-miterlimit:4;stroke-dasharray:none;stroke-dashoffset:0;stroke-opacity:1;visibility:visible;display:inline;overflow:visible;enable-background:accumulate" />
      <path
         d="M 57.691917,95.30752 L 57.691917,110.31826"
         id="path3428"
         style="fill:none;fill-rule:evenodd;stroke:#1b1a1c;stroke-width:2.75684357;stroke-linecap:round;stroke-linejoin:miter;stroke-miterlimit:4;stroke-dasharray:none;stroke-opacity:1" />
      <path
         d="M 57.658983,117.36975 L 57.658983,132.38049"
         id="path3430"
         style="fill:none;fill-rule:evenodd;stroke:#1b1a1c;stroke-width:2.75684357;stroke-linecap:round;stroke-linejoin:miter;stroke-miterlimit:4;stroke-dasharray:none;stroke-opacity:1" />
      <path
         d="M 57.544353,139.60801 L 57.544353,154.61875"
         id="path3432"
         style="fill:none;fill-rule:evenodd;stroke:#1b1a1c;stroke-width:2.75684357;stroke-linecap:round;stroke-linejoin:miter;stroke-miterlimit:4;stroke-dasharray:none;stroke-opacity:1" />
      <path
         d="M 38.352762,58.71727 L 45.705264,58.71727 L 45.705264,66.69161 L 52.023054,66.69161 L 52.023054,58.71727 L 63.035233,58.71727 L 63.035233,66.69161 L 68.292493,66.69161 L 68.292493,58.71727 L 76.705524,58.71727 L 76.705524,85.50337 L 38.352762,85.50337 L 38.352762,58.71727 z"
         id="path3434"
         style="fill:#0066b3;fill-opacity:1;fill-rule:evenodd;stroke:#1b1a1c;stroke-width:1.44023347;stroke-linecap:butt;stroke-linejoin:miter;stroke-miterlimit:4;stroke-dasharray:none;stroke-opacity:1" />
      <path
         d="M 45.705264,51.12266 L 45.705264,58.71727 L 38.352762,58.71727 L 41.770335,51.12266 L 45.705264,51.12266 z"
         id="path3436"
         style="fill:#0066b3;fill-opacity:1;fill-rule:evenodd;stroke:#1b1a1c;stroke-width:1.44023347;stroke-linecap:butt;stroke-linejoin:miter;stroke-miterlimit:4;stroke-dasharray:none;stroke-opacity:1" />
      <path
         d="M 52.023054,51.12266 L 52.023054,58.71727 L 63.035233,58.71727 L 63.035233,51.12266 L 52.023054,51.12266 z"
         id="path3438"
         style="fill:#0066b3;fill-opacity:1;fill-rule:evenodd;stroke:#1b1a1c;stroke-width:1.44023347;stroke-linecap:butt;stroke-linejoin:miter;stroke-miterlimit:4;stroke-dasharray:none;stroke-opacity:1" />
      <path
         d="M 68.292493,51.12266 L 68.292493,58.71727 L 76.705524,58.71727 L 73.287951,51.12266 L 68.292493,51.12266 z"
         id="path3440"
         style="fill:#0066b3;fill-opacity:1;fill-rule:evenodd;stroke:#1b1a1c;stroke-width:1.44023347;stroke-linecap:butt;stroke-linejoin:miter;stroke-miterlimit:4;stroke-dasharray:none;stroke-opacity:1" />
    </g>
    <path
       d="M 279.51761,512.18902 L 303.6529,512.18902 L 303.6529,497.39369 L 330.14686,497.62641 L 330.14686,484.01586 L 381.75845,484.01586 L 381.75845,497.62641 L 407.56424,497.62641 L 407.56424,512.18902 L 432.6194,512.18902 L 432.6194,608.651 L 279.51761,608.651 L 279.51761,512.18902 L 279.51761,512.18902 z"
       id="path3462"
       style="fill:#0066b3;fill-opacity:1;fill-rule:evenodd;stroke:#1b1a1c;stroke-width:2.87249994;stroke-linecap:butt;stroke-linejoin:miter;stroke-miterlimit:4;stroke-dasharray:none;stroke-opacity:1" />
    <path
       d="M 353.88819,504.96339 C 325.31693,504.96339 311.56669,533.60448 311.56669,549.73698 L 312.59892,608.651 L 397.24193,608.651 L 397.24193,549.20701 C 397.24193,525.16864 376.83079,504.96339 353.88819,504.96339 z"
       id="path3456"
       style="fill:#ffffff;fill-rule:evenodd;stroke:#1b1a1c;stroke-width:2.2980001;stroke-linecap:butt;stroke-linejoin:miter;stroke-miterlimit:4;stroke-dasharray:none;stroke-opacity:1" />
    <path
       d="M 279.51761,497.62641 L 303.6529,497.62641 L 303.6529,512.18902 L 279.51761,512.18902 L 279.51761,497.62641 z"
       id="path3465"
       style="fill:#0066b3;fill-opacity:1;fill-rule:evenodd;stroke:#1b1a1c;stroke-width:2.87249994;stroke-linecap:butt;stroke-linejoin:miter;stroke-miterlimit:4;stroke-dasharray:none;stroke-opacity:1" />
    <path
       d="M 303.6529,497.39369 L 311.91076,484.01586 L 330.14686,484.01586 L 330.14686,497.62641 L 303.6529,497.39369 z"
       id="path3467"
       style="fill:#0066b3;fill-opacity:1;fill-rule:evenodd;stroke:#1b1a1c;stroke-width:2.87249994;stroke-linecap:butt;stroke-linejoin:miter;stroke-miterlimit:4;stroke-dasharray:none;stroke-opacity:1" />
    <path
       d="M 330.14686,484.01586 L 339.41334,470.4053 L 370.83464,470.4053 L 381.75845,484.01586 L 330.14686,484.01586 z"
       id="path3469"
       style="fill:#0066b3;fill-opacity:1;fill-rule:evenodd;stroke:#1b1a1c;stroke-width:2.87249994;stroke-linecap:butt;stroke-linejoin:miter;stroke-miterlimit:4;stroke-dasharray:none;stroke-opacity:1" />
    <path
       d="M 381.75845,484.01586 L 397.24193,484.01586 L 407.56424,497.62641 L 381.75845,497.62641 L 381.75845,484.01586 L 381.75845,484.01586 z"
       id="path3471"
       style="fill:#0066b3;fill-opacity:1;fill-rule:evenodd;stroke:#1b1a1c;stroke-width:2.87249994;stroke-linecap:butt;stroke-linejoin:miter;stroke-miterlimit:4;stroke-dasharray:none;stroke-opacity:1" />
    <path
       d="M 407.56424,497.62641 L 432.6194,497.62641 L 432.6194,512.18902 L 407.56424,512.18902 L 407.56424,497.62641 z"
       id="path3473"
       style="fill:#0066b3;fill-opacity:1;fill-rule:evenodd;stroke:#1b1a1c;stroke-width:2.87249994;stroke-linecap:butt;stroke-linejoin:miter;stroke-miterlimit:4;stroke-dasharray:none;stroke-opacity:1" />
    <path
       d="M 311.91076,545.34808 C 311.89402,544.01865 312.99593,540.81559 313.5612,538.88387 L 395.63445,538.88387 C 395.94443,540.13445 396.82507,543.75843 396.82507,545.45229 L 311.91076,545.34808 z"
       id="path3479"
       style="fill:#0066b3;fill-opacity:1;fill-rule:evenodd;stroke:#1b1a1c;stroke-width:2.87249994;stroke-linecap:butt;stroke-linejoin:miter;stroke-miterlimit:4;stroke-dasharray:none;stroke-opacity:1" />
    <path
       d="M 317.07498,529.1188 C 317.47512,527.16407 320.34213,523.83566 321.12705,522.65458 L 387.5407,522.65458 C 388.37442,523.13575 392.07904,529.31217 391.69226,529.1188 L 317.07498,529.1188 z"
       id="path3483"
       style="fill:#0066b3;fill-opacity:1;fill-rule:evenodd;stroke:#1b1a1c;stroke-width:2.87249994;stroke-linecap:butt;stroke-linejoin:miter;stroke-miterlimit:4;stroke-dasharray:none;stroke-opacity:1" />
    <g
       transform="matrix(1.5955747,0,0,1.5955747,162.58122,328.93734)"
       id="g3497"
       style="fill:#0066b3;fill-opacity:1;stroke:#1b1a1c;stroke-opacity:1">
      <path
         d="M 101.51698,139.63185 C 101.55081,141.35109 98.07805,142.73031 97.465638,139.63185 L 97.552569,124.05973 C 98.939354,121.3661 100.19551,120.56915 101.51698,119.14812 L 101.51698,139.63185 z"
         id="path3485"
         style="fill:#0066b3;fill-opacity:1;fill-rule:evenodd;stroke:#1b1a1c;stroke-width:1.80029178;stroke-linecap:butt;stroke-linejoin:miter;stroke-miterlimit:4;stroke-dasharray:none;stroke-opacity:1" />
      <path
         d="M 110.95443,139.68096 C 110.98826,141.4002 107.5155,142.77942 106.90309,139.68096 L 106.90309,114.33977 C 107.66186,113.88256 110.27001,112.27829 110.9979,112.25944 L 110.95443,139.68096 z"
         id="path3487"
         style="fill:#0066b3;fill-opacity:1;fill-rule:evenodd;stroke:#1b1a1c;stroke-width:1.80029178;stroke-linecap:butt;stroke-linejoin:miter;stroke-miterlimit:4;stroke-dasharray:none;stroke-opacity:1" />
      <path
         d="M 121.81737,139.63393 C 121.8512,141.35317 118.37844,142.73239 117.76603,139.63393 L 117.76603,110.71307 C 118.84998,110.62614 120.93887,110.58267 121.81737,110.71307 L 121.81737,139.63393 z"
         id="path3491"
         style="fill:#0066b3;fill-opacity:1;fill-rule:evenodd;stroke:#1b1a1c;stroke-width:1.80029178;stroke-linecap:butt;stroke-linejoin:miter;stroke-miterlimit:4;stroke-dasharray:none;stroke-opacity:1" />
      <path
         d="M 133.18004,139.63392 C 133.21387,141.35316 129.74111,142.73238 129.1287,139.63392 L 129.1287,112.3362 C 130.29958,112.68299 131.99727,113.62226 133.26697,114.38626 L 133.18004,139.63392 z"
         id="path3493"
         style="fill:#0066b3;fill-opacity:1;fill-rule:evenodd;stroke:#1b1a1c;stroke-width:1.80029178;stroke-linecap:butt;stroke-linejoin:miter;stroke-miterlimit:4;stroke-dasharray:none;stroke-opacity:1" />
      <path
         d="M 142.11775,139.70321 C 142.15158,141.42245 138.67882,142.80167 138.06641,139.70321 L 138.02294,117.83938 C 138.93303,118.49043 141.19578,121.51792 142.16122,122.89044 L 142.11775,139.70321 z"
         id="path3495"
         style="fill:#0066b3;fill-opacity:1;fill-rule:evenodd;stroke:#1b1a1c;stroke-width:1.80029178;stroke-linecap:butt;stroke-linejoin:miter;stroke-miterlimit:4;stroke-dasharray:none;stroke-opacity:1" />
    </g>
    <path
       d="M 306.03879,355.94506 C 306.03879,355.94506 308.61139,407.30544 309.64342,419.3124 C 310.62349,430.71926 315.76933,441.49156 324.13271,449.64451 C 332.7864,458.08128 344.014,462.72637 355.74883,462.72637 C 367.48303,462.72637 378.71257,458.08128 387.36497,449.64451 C 395.72834,441.49156 400.87354,430.71926 401.85296,419.3124 C 402.88564,407.30544 405.46018,355.94506 405.46018,355.94506 L 306.03879,355.94506 z"
       id="path3693"
       style="fill:#0066b3;fill-opacity:1;stroke:#1b1a1c;stroke-width:2.2980001;stroke-linecap:butt;stroke-linejoin:miter;stroke-miterlimit:4;stroke-dasharray:none;stroke-opacity:1" />
    <path
       d="M 370.50659,365.91628 C 362.6484,370.44026 362.6484,373.04065 362.6484,373.04065 L 362.6484,397.17513 L 385.36598,397.17513 C 385.36598,397.17513 389.63806,397.17513 393.72439,390.31469 L 393.72439,417.24734 C 389.63678,410.18913 385.36598,410.18913 385.36598,410.18913 L 362.6484,410.18913 L 362.6484,433.40693 C 362.6484,433.40693 362.6484,437.98886 370.50659,441.56795 L 341.71652,441.56795 C 348.72639,437.37154 348.72639,433.40693 348.72639,433.40693 L 348.72639,410.18913 L 327.22861,410.18913 C 327.22861,410.18913 323.20414,410.18913 320.35614,417.24734 L 320.35614,390.31469 C 325.06161,397.17513 327.22861,397.17513 327.22861,397.17513 L 348.72639,397.17513 L 348.72639,373.04065 C 348.72639,373.04065 348.72639,370.51998 341.71652,365.91628 L 370.50659,365.91628 z"
       id="path3727"
       style="fill:#ffffff;fill-rule:evenodd;stroke:#1b1a1c;stroke-width:2.39299989;stroke-linecap:butt;stroke-linejoin:miter;stroke-miterlimit:4;stroke-dasharray:none;stroke-opacity:1" />
  </g>
</svg>
