<svg xmlns="http://www.w3.org/2000/svg" viewBox="0 0 419.99998 500" enable-background="new 0 0 595.275 706.354"><g stroke="#000" stroke-linejoin="round" stroke-linecap="round" stroke-width="3"><path d="m 414.5 290.5 c 0 113.31 -90 205 -205 205 -115 0 -205 -91.69 -205 -205 v -285 h 410 c -1.101 95.08 1.758 189.98 0 285 z" fill="#da121a"/><path d="m 131.75 58.48 c 8.805 20.821 0.819 29.26 -11.94 37.723 -35.904 23.823 -27.13 61.04 6.186 94.76 44.09 44.627 96.19 71.992 136.18 93.16 l -39.658 -78.57 l 68.09 30.491 l 32.736 -24.88 l -101.95 -38.16 l 97.09 -37.6 l -139.74 -28.808 c 1.876 25.935 -17.08 32.01 -31.427 20.764 -10.111 -7.929 -6.599 -24.358 16.09 -39.13 l -18.843 -37.19 l 0.091 19.719 z" fill="#fcdd09"/></g><path d="m 161.37 80.29 a 3.175 3.042 0 1 1 -6.349 0 3.175 3.042 0 1 1 6.349 0 z" transform="matrix(1.10251 0 0 1.15044 -24.449 -12.537)"/><path d="m 235.22 190.48 l 74.6 30.423 m -73.02 -18.518 l 59.52 28.04 m -122.49 -56.35 l 17.196 68.52 m -46.561 -135.45 c -18.514 39.05 24.656 45.41 42.39 31.795 l 36.35 67.27 l -26.488 -11.493 l 35.85 72.75 m 1.323 -138.62 l 51.06 19.05 m -71.16 -3.704 l 41.01 15.344 m -64.17 1.603 l 30.875 11.949 l -13.337 4.421" fill="none" stroke="#000" stroke-linejoin="round" stroke-linecap="round" stroke-width="3"/></svg>