<svg xmlns="http://www.w3.org/2000/svg" version="1.0" width="476" height="522"><path d="M5.99 5.765h464.02V298.17c0 143.725-127.918 218.065-232.01 218.065-104.092 0-232.01-74.34-232.01-218.065z" fill="#fcdb00" fill-rule="evenodd"/><path d="M5.99 5.765l377.662-.789L8.064 329.88 5.99 261.003z" fill-rule="evenodd" stroke="#000" stroke-width="3" stroke-linecap="round" stroke-linejoin="round"/><path d="M470.01 282.507l-.358-139.53L94.064 467.878c44.933 28.3 57.966 46.168 143.936 48.356 85.97 2.188 232.465-56.416 232.01-233.728z" fill="#da251d" fill-rule="evenodd" stroke="#000" stroke-width="3" stroke-linecap="round" stroke-linejoin="round"/><path d="M309.335 270.168v-66.722c-11.778 4.325-30.379 11.392-44.619 6.645-4.747-14.24 2.32-32.841 6.645-44.619H204.64c4.325 11.778 11.392 30.379 6.645 44.62-14.24 4.746-32.841-2.32-44.619-6.646v66.722c11.778-4.325 30.379-11.392 44.619-6.645 4.747 14.24-2.32 32.841-6.645 44.619h66.722c-4.325-11.778-11.392-30.379-6.645-44.619 14.24-4.747 32.841 2.32 44.619 6.645z" fill-rule="evenodd" stroke="#000" stroke-width="2" stroke-linecap="round" stroke-linejoin="round"/><path d="M5.99 5.765h464.02V298.17c0 143.725-127.918 218.065-232.01 218.065-104.092 0-232.01-74.34-232.01-218.065z" fill="none" stroke="#000" stroke-width="10" stroke-linecap="round" stroke-linejoin="round"/></svg>