<?xml version="1.0" encoding="UTF-8"?>
<svg width="600" height="629" xmlns="http://www.w3.org/2000/svg">
 <path d="m594.55 5.098-16.534 349.85c-6.011 147.82-124.75 267.96-278.07 267.96-153.31 0-272.05-120.15-278.07-267.96L5.342 5.099z" fill="#00973f" />
 <path d="m407.71 5.098-382.02 385.68c15.239 90.484 73.194 166.78 154.04 205.28l406.29-410.19 8.542-180.77z" fill="#fff" stroke="#000" stroke-width="5"/>
  <path d="M378.33 63.578c-4.721.06-9.568 1.615-13.728 3.41-7.548 3.267-11.662 10.197-16.638 16.338.411-11.592-5.243-12.364-16.368-13.643-22.661-.756-60.738 5.56-69.131 20.969-15.639 3.314-30.94 1.605-44.039 3.913-3.418.726-6.306 3.903-5.701 7.535.314 5.183.533 12.485 4.254 15.405-.177 8.796 2.052 12.778 9.286 17.557-3.98-.56-10.363.046-12.752-3.963-2.345-4.265-2.239-10.073-2.875-14.808-5.218.908-11.284 1.617-15.61 4.914-6.142 4.327-8.277 13.131-5.72 20.03 2.647 6.656 9.077 11.68 15.884 13.54 8.124 2.208 17.654.92 26.02.755.756 5.809 2.08 11.124 6.015 18.097 16.041.508 26.343-1.719 39.865-3.135 14.568 3.314 28.909 6.624 43.9 7.26-9.516 3.071-18.637 2.39-28.392 2.01-6.307 3.602-11.527 9.759-17.109 14.403-10.241 8.334-18.652 18.804-27.773 28.046.725-4.038 2.707-9.104 5.583-12.264 4.007-4.404 7.152-6.583 10.707-11.438-13.493-2.662-27.803-.545-41.524-1.545l-11.094-2.071c-7.326-1.452-12.264-2.39-16.06-6.368-5.325-5.447-7.155-14.084-9.152-21.21-3.115-12.04-7.911-24.006-17.018-32.795-8.864-8.123-20.015-13.54-32.238-13.448 1.272 4.295 2.709 8.577 4.357 12.752-7.52-3.027-16.445-5.787-23.145-4.287 1.823 3.705 3.74 8.581 5.858 11.56-5.734.91-11.15 2.376-16.504 4.66 4.417 4.192 9.256 7.822 14.28 11.256-9.217 1.72-17.255 5.42-24.4 10.755 10.79 5.51 17.19 4.91 24.324 8.244 5.28 2.738 8.984 8.637 12.085 13.508 6.05 9.939 13.146 19.136 19.484 28.893 4.675 7.14 10.921 12.647 17.61 17.822-.058.069-.128.163-.185.233 4.044 3.414 7.647 1.606 12.514.69 12.693 2.194 24.052 5.613 35.882 10.65 7.2 3.283 17.389 2.7 22.229 9.234 8.597-3.259 14.607-6.649 22.489-9.658-9.516 8.364-21.83 14.53-33.264 20.098-9.939 3.72-21.437 9.402-32.04 9.66-7.293.559-14.023-4.433-19.047-9.169-3.761-3.662-7.871-7.288-11.037-11.512-6.515-7.873-15.71-15.56-24.68-17.715-9.938-2.223-20.177 0-29.814 2.557 3.22 4.62 4.136 5.948 7.186 8.08-5.037 2.648-9.939 5.521-14.658 8.712a332.118 332.118 0 0 0 11.57 5.296c-7.608 1.693-13.282 4.22-19.046 9.545 5.37 1.77 10.832 3.22 16.324 4.567-7.731 4.357-15.885 5.962-19.485 14.903 6.05.77 12.102 1.329 18.169 1.95l10.529 1.77c4.72 1.997 7.14 6.37 11.618 9.032a129.75 129.75 0 0 0 21.388 10.497c9.697 3.314 17.594 9.893 27.229 13.523 15.768 6.9 33.39 2.46 48.408-.407 13.993-2.814 26.745-8.047 40.026-13.07 7.156-2.374 12.716-4.42 22.17-7.848-8.092 6.156-19.69 10.556-28.554 15.79.16.64.33 1.27.516 1.892 5.24 17.514 21.012 27.602 28.68 42.37-4.734-3.13-8.214-7.656-12.994-10.636-2.768-.166-5.705 1.482-8.276 2.436-8.729 3.948-16.956 7.17-24.006 13.887-7.018 6.398-10.318 14.159-15.522 22.252-9.924 17.033-9.425 36.789-7.654 55.789.272 4.645-.606 8.594-6.234 7.99-9.273-3.314-15.76-14.07-21.252-21.786-5.794-9.212-14.205-17.713-25.656-18.637-7.397.182-15.945 1.377-22.193 5.674-1.09.636-1.799 1.663-2.115 3.115 4.25 1.331 8.591 2.298 12.812 3.72-8.275 3.208-17.64 6.461-23.054 13.92 3.75.498 7.532.77 11.299 1.15-6.625 4.613-13.493 8.547-19.196 14.4 5.506.137 10.922-.272 16.413.348-7.125 4.554-14.554 4.977-18.502 13.357 7.065.198 15.175-1.317 21.876.983 6.489 1.92 10.694 8.124 16.578 11.922 10.242 7.185 21.148 8.802 32.737 12.599 20.067 5.516 37.735 12.334 56.953 14.512 1.77-14.555 6.819-29.582 13.236-42.012 6.005-12.798 12.253-25.204 21.63-35.913 9.91-13.464 25.43-19.165 40.24-25.444-2.148-4.069-4.75-7.868-7.049-11.831-2.889-5.114-3.826-10.543-4.523-16.291 2.27 4.311 3.782 8.91 6.263 13.055 5.837 9.147 13.778 15.796 22.478 21.97l16.197 8.607-.106.155c3.248 1.804 6.3 4.387 8.808 6.541 6.732 6.308 13.933 12.373 19.88 19.44 2.54 3.372 5.732 7.579 3.357 11.921-4.644 2.36-10.227 3.251-15.262 4.49-11.15 2.422-21.981 6.477-32.1 11.71-11.937 7.797-20.892 15.526-21.193 28.924 3.81-1.262 7.6-2.578 11.373-3.948-2.087 6.625-3.236 12.812-2.404 19.785a238.267 238.267 0 0 0 10.876-7.67c-.786 7.957-1.542 15.52 1.272 23.189 4.932-3.721 9.348-7.972 13.508-12.54-1.012 7.412-.953 14.039.545 21.392 6.263-6.022 10.83-12.375 18.53-16.777 10.15-5.78 20.361-9.68 29.59-17.23 9.772-7.744 15.534-18.47 25.306-26.276 7.08-6.096 15.855-10.197 22.573-16.625 4.387-4.222 3.78-9.698 2.827-15.173-2.571-12.132-8.59-23.673-13.461-34.792-3.647-8.26-5.16-16.323-9.516-24.068-3.07-5.37-6.398-10.59-9.288-16.08 4.34-1.575 13.069-1.394 12.873-7.792.06-8.29-8.592-16.367-13.371-22.585.746-6.909-5.966-24.082-9.289-34.158-1.89-5.49-3.904-10.937-5.87-16.397-2.935-8.184-4.084-17.14-6.186-25.671-2.543-11.861-6.958-23.208-9.272-35.097 14.562-25.432 3.236-52.4-8.503-69.917-.545-11.164-.334-22.252.861-33.372 1.075-8.471-.786-16.29-1.588-24.656a486.706 486.706 0 0 0-6.58-.44c6.8-4.178 12.539-9.272 16.003-16.261 2.027-6.808 2.997-15.807-1.028-22.087-4.76-6.52-13.748-11.438-21.308-11.4z"/>
  <path d="M376.65 72.697c-5.016.146-10.366 1.839-13.236 5.674a84.288 84.288 0 0 0-10.1 16.729c-1.164 2.39 1.243 4.356 2.62 6.05 2.056-4.644 3.13-9.68 6.669-13.417 3.147-3.283 7.034-7.381 11.588-8.41 5.264-1.301 11.197-1.52 16.895.734-.84-4.064-5.897-6.272-9.635-7.012a23.236 23.236 0 0 0-4.8-.348zm-94.834 14.812c-2.834.05-5.659.719-7.99 1.842-1.898.413-4.56.187-4.56.187s-.449 2.2-.343 2.782c1.139.487 2.443.903 3.135 1.171-1.4 2.155-1.863 3.624-2.566 6.336-.308 1.181-.076 2.666.199 3.985 1.229 5.522 4.869 6.701 8.152 8.47 5.613 1.393 10.937-3.78 15.611-3.931 3.451 1.104 5.28 3.086 7.944 4.552-2.527-6.518-4.253-13.585-7.565-19.756-2.543-4.093-7.294-5.723-12.018-5.638zm.084 4.121c1.15-.008 2.341.154 3.51.502v.002c6.337 3.494.588 14.84-5.916 12.434-3.041-.635-6.274-5.469-5.13-8.605 1.003-2.745 4.086-4.31 7.536-4.332zM259.59 126.2c-.67 3.727-2.69 5.434-4.732 8.293-1.804-2.905-2.614-5.882-2.6-8.863 2.01-.483 5.435.117 7.333.57zm11.634-.5c-1.14 3.327-2.991 5.69-5.91 8.262-1.904-2.754-3.288-5.024-3.938-7.596 2.768-1.331 5.37-1.512 9.848-.666z" fill="#fff"/>
  <path d="M203.33 123.57c-3.808 1.259-7.312 3.442-8.309 5.94-3.026 7.581 1.253 17.17 9.362 20.104 10.998 4.78 25.204-2.284 36.443-4.386 14.408-2.35 28.37-9.203 41.955-5.426 6.334 1.761 8.964 5.888 15.45 12.266-3.324-9.017-5.335-10.574-9.5-13.854-6.488-5.485-28.036-1.04-37.755-.25-11.632 1.513-22.132 3.768-34.068 2.03-3.903-.787-8.38-2.619-10.59-6.128-1.83-2.859-2.454-6.583-2.989-10.295v-.002zm-57.715 4.125v.002c2.33 6.473 10.316 14.437 14.627 19.654 2.239-1.073 5.148-2.764 7.451-4.758-1.89-3.495-4.397-5.816-7.695-8.207-3.102-2.405-10.587-6.237-14.383-6.691zm-18.068 6.246c4.766 7.655 14.239 14.515 20.789 20.641 1.618-1.012 4.645-3.256 5.996-4.482-1.24-2.814-3.408-4.985-5.86-6.996-4.886-4.207-14.437-8.239-20.925-9.163zm-4.725 12.564c-1.375.004-2.634.148-3.709.445 5.537 5.946 14.028 10.457 20.637 15.146 1.756-1.676 4.667-3.39 4.774-5.373-3.421-6.164-14.27-10.24-21.701-10.219zm3.7 17.336c-6.356-.006-13.596 1.286-17.557 2.441 6.419 2.523 18.572 4.818 23.398 7.752 1.634-2.782 3.477-5.127 3.75-8.47-2.28-1.249-5.776-1.719-9.59-1.723h-.002zm2.494 78.441c-1.713-.008-3.381.153-4.944.525 7.624 6.647 15.574 10.24 23.494 12.822 1.77-1.164 4.174-3.809 5.823-5.156-4.378-3.19-15.116-8.15-24.373-8.191zm-2.854 14.533.002.002c-2.859-.02-5.773.253-8.781.701 6.268 3.786 13.821 9.316 19.736 8.862 1.625-1.74 3.764-4.15 5.121-5.497-5.36-2.94-10.62-4.033-16.078-4.068zm3.014 12.391c-5.12-.02-11.384.994-15.207 1.992 6.566 2.784 8.618 7.213 15.863 6.184.951-2.214 3.355-5.289 3.951-7.772-1.32-.276-2.898-.397-4.605-.404h-.002zm-.717 12.84c-6.232.454-11.495 1.634-17.078 4.553 5.491 2.072 11.21 3.253 17.018 3.994.031-2.86.045-5.704.06-8.547zm44.342 141.44v.002c-4.462-.02-8.784 1.245-13.135 2.338 7.655 3.283 15.446 5.975 22.707 10.166 1.877-2.058 3.933-3.934 5.78-6.023-3.782-2.571-7.61-5.46-12.239-6.247a21.288 21.288 0 0 0-3.113-.236zm-5.836 13.75c-4.28-.008-8.677 2.068-12.502 3.672 6.308 2.86 12.842 5.038 19.438 7.125 1.634-2.557 3.253-5.115 4.887-7.654-3.404-1.211-6.928-2.616-10.498-3.07a12.324 12.324 0 0 0-1.324-.073zm.123 13.541c-6.23.032-11.328 1.42-17.285 4.094 4.87 1.89 10.772 4.31 16.111 3.63 2.043-1.588 2.74-5.356 3.92-7.655a46.319 46.319 0 0 0-2.746-.069zm-8.584 13.68c-5.164.038-9.859 1.908-14.646 4.39 4.387 1.74 8.986 3.95 13.705 4.632 3.057-1.15 4.268-5.87 5.403-8.592a21.981 21.981 0 0 0-4.461-.43zm196.55 20.354c-7.85 1.074-14.817 8.766-18.186 17.08 6.005-.711 15.124-6.15 22.061-9.574-1.07-3.051-2.733-5.853-3.875-7.506zm6.235 12.352c-7.035 1.376-17.46 12.846-16.801 18.828 6.489-2.784 14.74-8.24 20.898-11.672-1.16-3.129-2.563-4.784-4.098-7.156zm6.242 10.482c-6.474 3.873-9.606 12.09-11.438 18.898 7.14-3.6 12.708-6.79 18.879-11.812-1.966-3.361-5.593-5.935-7.442-7.086zm11.102 9.127v.002c-5.295 4.326-7.548 12.297-8.955 18.695 7.518-3.51 13.99-8.26 20.617-13.191-3.646-2.179-7.412-4.763-11.662-5.506z" fill="#da251d"/>
  <path d="M241.66 126.96c2.496-.045 5.007-.077 7.503-.09a228.06 228.06 0 0 1-3.828 8.818 295.29 295.29 0 0 1-3.675-8.728zm-10.681 2.057c2.092-1.466 4.715-1.214 6.454-1.028-.68 2.298-1.391 4.568-2.087 6.853-2.647-1.87-3.517-3.07-4.366-5.825zm44.702-1.528c1.615-1.25 5.612.378 7.35.97-1.437 1.588-2.355 3.644-4.928 5.836-2.056-2.219-2.12-3.763-2.422-6.805zM286.58 129.5c1.338-.893 5.814 1.272 5.927 2.247-.49 1.075-1.861 3.766-3.404 4.718-1.24-1.513-3.015-5.59-2.523-6.965zm-10.15 13.236c1.134 2.86 1.784 5.793 2.541 8.759-2.708.12-5.431.182-8.154.212 1.453-3.419 2.8-6.444 5.613-8.971zm-13.811 1.589c1.622 2.442 2.855 5.645 3.704 8.37-3.086.317-6.188.544-9.288.665 1.266-3.933 1.771-7.19 5.584-9.036zm24.46 1.8c1.498 1.012 2.994 4.23 2.725 5.256-1.095 1.31-5.827.621-6.434-.545-.406-.896 2.235-4.288 3.709-4.711zm-37.319 1.24c1.363 2.707 2.557 5.477 3.66 8.305-2.66.105-5.324.136-7.987.166 1.15-3.04 2.345-5.869 4.327-8.47zm-12.177 2.903a72.601 72.601 0 0 1 5.28 8.08c-1.967.151-3.933.286-5.916.408.136-2.829.288-5.658.636-8.487z" fill="#fff"/>
 <path d="m594.76 5.1-16.54 349.97c-6.014 147.87-124.8 268.05-278.17 268.05-153.36 0-272.14-120.19-278.17-268.05L5.34 5.1z" fill="none" stroke="#000" stroke-width="10"/>
</svg>
