<svg xmlns="http://www.w3.org/2000/svg" width="701.33" height="741.77" viewBox="0 0 701.3341 741.76859"><g transform="translate(-28.16-51.23)"><path d="m33.84 56.729l13.398 416.62c7.415 175.25 153.92 314.05 331.59 314.14 177.51-.215 324.07-139.06 331.59-314.14l13.398-416.62h-344.98z" fill="#fff" fill-rule="evenodd" stroke="#000" stroke-width="11"/><path d="m405.69 78.11c-9.283 6.925-21.05 10.439-32.615 9.736-8.183-.498-16.15-3.02-24.34-3.408-13.375-.635-26.678 4.607-36.994 13.14-10.267 8.495-17.622 19.907-24.881 31.08-7.259 11.175-14.776 22.511-25.26 30.74-10.179 7.992-23.09 12.696-36.02 12.17-4.971-.202-9.989-1.19-14.355-3.574-4.367-2.384-8.04-6.273-9.496-11.03-.81-2.638-.925-5.464-.527-8.195.398-2.731 1.299-5.372 2.475-7.869 4.957-10.524 14.505-18.12 24.338-24.34 4.613-2.916 9.406-5.637 14.604-7.301 5.308-1.7 10.907-2.257 16.346-3.477 5.438-1.22 10.926-3.234 14.809-7.232 4.049-4.17 5.923-10.348 4.869-16.06-8.562 2.626-17.38 4.423-26.287 5.355-15.401 1.613-31.1.658-46.24 3.893-7.614 1.626-15.04 4.326-21.656 8.436-6.613 4.109-12.394 9.663-16.313 16.391-6.53 11.21-7.503 24.715-11.684 36.996-2.231 6.555-5.515 12.946-10.709 17.525-1.314 1.158-2.752 2.167-4.264 3.051a23.690352 23.69035 0 0 0 -22.67168 -16.84361 23.690352 23.69035 0 0 0 -23.68929 23.68926 23.690352 23.69035 0 0 0 1.1621 7.24018 23.690352 23.69035 0 0 0 -19.35141 23.27716 23.690352 23.69035 0 0 0 23.69123 23.68926 23.690352 23.69035 0 0 0 15.62097 -5.91987 23.690352 23.69035 0 0 0 20.00961 11.02139 23.690352 23.69035 0 0 0 23.68928 -23.69121 23.690352 23.69035 0 0 0 -3.8613 -12.9042c6.362-.548 12.898.587 18.871 2.926 5.741 2.249 11.01 5.537 16.408 8.508 5.403 2.971 11.08 5.671 17.18 6.582 5.387.805 10.915.173 16.18-1.221 5.265-1.394 10.3-3.534 15.26-5.785 9.919-4.503 19.986-9.573 30.869-10.03 8.74-.368 17.297 2.285 25.607 5.02 8.31 2.732 16.758 5.604 25.506 5.691 8.263.083 16.34-2.33 24.12-5.111 7.781-2.781 15.472-5.97 23.584-7.545 9.335-1.813 19.07-1.42 28.28.973 8.507 2.211 16.482 6.075 24.783 8.965 10.935 3.807 22.592 5.923 34.12 4.9 16.14-1.431 31.453-8.908 47.654-8.996 7.639-.041 15.193 1.574 22.568 3.566 10.664 2.881 21.264 6.593 32.3 7.02 14.466.553 28.54-4.582 42.973-5.715 11.776-.924 23.639.84 35.05 3.895 15.289 4.093 29.952 10.518 43.32 18.984-2.997-10.803-8.546-20.89-16.06-29.21-10.659-11.791-25.27-19.906-40.889-22.879-9.923-1.889-20.1-1.752-30.18-2.434-6.956-.47-14.187-1.442-19.957-5.355-2.755-1.868-5.093-4.383-6.6-7.352-1.506-2.968-2.156-6.392-1.676-9.686.599-4.103 2.917-7.829 5.953-10.654 3.036-2.825 6.758-4.816 10.598-6.383 10.668-4.353 22.298-5.579 33.652-7.539 11.354-1.96 22.958-4.872 32.06-11.934 6.242-4.841 11.04-11.522 13.631-18.984-7.265 3.206-14.999 5.345-22.879 6.328-14.518 1.811-29.2-.295-43.811-.973-15.757-.731-32.359.439-45.758 8.762-7.935 4.929-14.238 12.07-20.03 19.398-5.787 7.333-11.22 15.01-17.945 21.492-6.778 6.534-14.861 11.787-23.77 14.83-8.909 3.043-18.651 3.822-27.828 1.721-3.13-.717-6.219-1.778-8.918-3.518-2.699-1.74-5-4.202-6.174-7.191-1.01-2.563-1.146-5.406-.77-8.133.377-2.727 1.253-5.359 2.23-7.932 3.244-8.538 7.709-16.677 13.732-23.543 6.02-6.866 13.652-12.43 22.289-15.4 9.317-3.204 19.502-3.34 28.721-6.814 9.233-3.48 17.15-10.34 21.906-18.984-8 3.352-16.639 5.178-25.313 5.354-13.829.279-27.643-3.587-41.38-1.947-14.321 1.71-27.341 9.308-38.457 18.498-18.322 15.15-32.535 34.819-51.11 49.652-5.659 4.519-11.779 8.605-18.609 11.01-6.83 2.407-14.463 3.034-21.309.672-3.23-1.114-6.25-2.89-8.668-5.305-2.418-2.414-4.214-5.478-4.961-8.813-.68-3.038-.481-6.246.398-9.232.879-2.987 2.424-5.757 4.361-8.193 3.875-4.874 9.222-8.356 14.711-11.295 16.05-8.593 34.381-13.45 48.19-25.312 6.652-5.713 12.02-12.919 15.578-20.932"/><g fill-rule="evenodd"><path d="m378.83 240.15c0 0-48.536 42.788-71.65 65.47-36.955 36.26-76.6 70.58-107.04 112.75-19.661 27.24-37.27 56.959-47.77 89.11-5.879 18-9.715 37.474-7.962 56.38.841 9.07 2.536 19.285 8.72 25.807 8.287 8.74 21.692 10.513 33.34 12.898 38.33 7.853 117.18 4.03 117.18 4.03v148.21c0 0 3.196 4.606 5.309 6.365 8.614 7.171 18.58 13.08 29.19 16.367 13.03 4.04 40.692 3.637 40.692 3.637 0 0 27.658.406 40.693-3.637 10.612-3.291 20.578-9.196 29.19-16.367 2.113-1.759 5.309-6.365 5.309-6.365v-148.21c0 0 78.85 3.821 117.18-4.03 11.644-2.386 25.05-4.158 33.34-12.898 6.183-6.522 7.879-16.741 8.72-25.807 1.753-18.903-2.082-38.38-7.962-56.38-10.501-32.15-28.11-61.874-47.77-89.11-30.444-42.17-70.09-76.49-107.04-112.75-23.12-22.681-71.65-65.47-71.65-65.47"/><path d="m378.83 321.39l-14.186 175.61c-6.103 5.216-12.292 10.33-18.586 15.314-13.347 10.57-27.22 20.705-38.469 33.482-6.551 7.438-12.146 15.718-16.615 24.564-7.966-.708-15.964-1.061-23.961-1.057-18.403 0-37.25 1.813-54.854-3.561-7.04-2.15-13.971-5.61-18.523-11.398-3.372-4.288-5.238-9.624-5.977-15.03-.739-5.405-.4-10.904.279-16.316 3.757-29.937 17.761-57.6 33.482-83.35 13.948-22.848 29.429-44.761 46.3-65.54-23.13 20.608-44.17 43.56-62.691 68.39-17.654 23.666-33.25 49.594-39.893 78.36-2.476 10.727-3.674 21.868-2.139 32.77 1.101 7.818 3.767 15.702 9.262 21.371 4.936 5.093 11.718 7.972 18.521 9.975 21.264 6.259 43.909 5.111 66.04 3.846 22.13-1.265 44.747-2.545 66.08 3.473 3.306.933 6.583 2.046 9.598 3.693 3.01 1.647 5.772 3.855 7.721 6.684 2.296 3.334 3.382 7.481 3.02 11.512 1.537 29.891 1.776 59.85.713 89.76-.182 5.131-.407 10.261-.666 15.389a59.12859 30.27669 0 0 0 -23.58594 24.15039 59.12859 30.27669 0 0 0 59.12891 30.27539 59.12859 30.27669 0 0 0 59.12695 -30.27539c1.176-8.562 1.931-17.18 2.26-25.818 1.076-28.25-2.396-56.621.23-84.77.682-7.308 1.793-14.651 4.49-21.477 1.227-3.106 2.829-6.153 5.301-8.398 2.231-2.027 5.123-3.313 8.123-3.611-7.541-2.246-16.17-.422-22.15 4.684-3.071 2.619-5.437 6-7.17 9.646-1.733 3.645-2.851 7.556-3.66 11.51-3.58 17.486-1.199 35.553-.756 53.4.373 15.03-.64 30.05-.756 45.08 0 .063 0 .125 0 .188a59.12859 30.27669 0 0 0 -9.99024 -4.77539c-.261-5.155-.487-10.312-.67-15.471-1.063-29.912-.824-59.87.713-89.76-.368-4.03.718-8.181 3.02-11.514 1.949-2.828 4.708-5.03 7.723-6.68 3.01-1.646 6.291-2.759 9.596-3.695 18.703-5.297 38.479-5.09 57.902-4.322 19.424.768 39.02 2.046 58.19-1.217 5.461-.93 10.893-2.237 15.959-4.479 5.066-2.241 9.771-5.455 13.248-9.768 3.755-4.657 5.954-10.46 6.77-16.387.861-6.261.234-12.629-.713-18.877-1.602-10.577-4.12-21.02-7.516-31.16.416 11.512-.531 23.07-2.814 34.37-1.526 7.547-3.797 15.254-8.904 21.02-5.261 5.934-12.963 9.135-20.66 11.04-13.333 3.306-27.23 3.282-40.963 3.561-11.698.237-23.394.686-35.09.92-4.856-11.248-11.49-21.727-19.588-30.922-11.253-12.777-25.12-22.912-38.469-33.482-6.293-4.984-12.482-10.1-18.584-15.313l-14.186-175.61m0 181.66c7.831 6.18 15.666 12.356 23.508 18.523 14.1 11.09 28.619 22.631 37.04 38.469 2.804 5.27 4.864 10.933 6.119 16.77-4.04 0-8.07.097-12.07.578-6.469.777-12.93 2.577-18.348 6.197-6.191 4.137-10.724 10.506-13.277 17.5-1.01 2.764-1.726 5.635-2.137 8.549v105.53a59.12859 30.27669 0 0 0 -20.83984 -1.95898 59.12859 30.27669 0 0 0 -21.3418 2.07617v-105.37c-.38-2.919-1.098-5.794-2.137-8.549-2.619-6.947-7.305-13.09-13.277-17.5-8.367-6.177-18.794-8.781-29.04-10.592 1.26-4.583 3.01-9.03 5.242-13.227 8.426-15.837 22.945-27.378 37.04-38.469 7.841-6.168 15.678-12.343 23.51-18.523zm0 221.55469a48.934475 21.906075 0 0 1 48.93359 21.90625 48.934475 21.906075 0 0 1 -48.93359 21.90625 48.934475 21.906075 0 0 1 -48.93555 -21.90625 48.934475 21.906075 0 0 1 48.93555 -21.90625" fill="#fff"/></g></g></svg>