<svg xmlns="http://www.w3.org/2000/svg" width="701.33" height="755.53" viewBox="0 0 701.32729 755.52848"><g transform="translate(4.125-156.03)" fill-rule="evenodd"><path d="m1.551 161.53l13.398 424.47c7.415 178.55 153.92 319.96 331.59 320.06 177.51-.219 324.07-141.68 331.59-320.06l13.398-424.47h-344.98z" fill="#ffd700" stroke="#000" stroke-width="11"/><path d="m334.73 193.7c-3.958 5.742-8.535 11.05-13.629 15.818-15.367 14.371-35.28 23.653-48.92 39.672-10.866 12.76-16.979 29.02-19.957 45.514-1.78 9.86-2.514 19.897-4.625 29.691-.253 1.175-.532 2.361-1.09 3.426-.558 1.064-1.43 2.01-2.561 2.416-.779.28-1.656.285-2.434 0-.646-.237-1.213-.666-1.656-1.191-.444-.526-.768-1.146-.996-1.795-.456-1.298-.531-2.693-.637-4.064-.471-6.13-1.61-12.186-2.553-18.262-1.815-11.694-2.916-23.52-5.598-35.05-4.323-18.581-12.886-36.34-25.799-50.38-6.829-7.426-14.826-13.777-23.607-18.742 3.835 4.419 6.825 9.569 8.762 15.09 3.844 10.958 3.457 22.954 1.842 34.453-1.615 11.5-4.409 22.844-5.25 34.426-1.07 14.732 1.296 30.23 9.736 42.35 4.114 5.908 9.498 10.793 14.754 15.713 5.256 4.92 10.492 10 14.207 16.17 5.152 8.552 7.05 18.61 10.467 27.99 1.643 4.509 3.684 9.08 3.406 13.873-.112 1.938-.61 3.852-1.459 5.598-2.087-6.329-5.135-12.342-9.01-17.768-8.05-11.279-19.355-19.715-29.449-29.21-4.894-4.601-9.528-9.48-13.873-14.604 3.02 6.701 5 13.871 5.842 21.17 1.646 14.285-1.04 28.84.973 43.08 1.678 11.868 6.662 23.23 14.12 32.613 9.358 11.782 22.281 20.262 32.13 31.641 9.124 10.545 15.346 23.284 20.443 36.26 4.35 11.08 7.99 22.512 13.873 32.857.513.903 1.048 1.806 1.346 2.801.149.498.235 1.016.225 1.535-.011.519-.121 1.039-.354 1.504-.344.688-.948 1.233-1.645 1.559-.697.326-1.482.44-2.25.389-1.76-.117-3.341-1.062-4.867-1.947-2.543-1.476-5.142-2.856-7.789-4.137 2.077 7.095 4.517 14.08 7.303 20.932 3.339 8.208 7.237 16.305 12.898 23.12 7.284 8.77 17.334 15.246 23.12 25.07 5.604 9.511 6.526 20.995 10.223 31.396.258.725.531 1.455.602 2.221.035.383.018.774-.076 1.146-.094.373-.268.728-.525 1.014-.426.474-1.066.731-1.703.752-.637.021-1.27-.181-1.816-.51-1.093-.658-1.819-1.769-2.512-2.84-2.903-4.486-5.887-8.923-9.06-13.223-6.569-8.905-13.932-17.202-20.516-26.1-6.584-8.894-12.442-18.519-15.506-29.15-2.433-8.444-3.046-17.32-5.354-25.799-2.535-9.314-7.05-17.942-10.953-26.771-2.223-5.03-4.252-10.148-6.084-15.334.795 5.392 1.041 10.865.73 16.307-.073 1.276-.177 2.561-.525 3.791-.348 1.23-.958 2.413-1.908 3.268-.922.829-2.172 1.317-3.408 1.217-1.193-.097-2.295-.723-3.168-1.543-.873-.82-1.543-1.827-2.186-2.838-2.204-3.468-4.197-7.142-5.139-11.143-1.591-6.755-.076-13.802.027-20.74.145-9.715-2.508-19.299-6.328-28.23-2.271-5.311-4.959-10.443-8.03-15.334-.284 3.642-.366 7.302-.244 10.953.044 1.309.114 2.629-.119 3.918-.233 1.289-.805 2.565-1.828 3.383-.568.455-1.259.751-1.977.871-.718.12-1.462.064-2.16-.141-.985-.289-1.866-.867-2.621-1.563-.755-.695-1.393-1.508-2-2.332-5.797-7.815-9.556-17.01-11.855-26.461-2.299-9.455-3.182-19.2-3.609-28.922-.814-18.502-.024-37.22-3.762-55.36-3.971-19.269-12.928-37.22-17.04-56.46-2.827-13.238-3.311-26.866-3.164-40.4.124-11.455.692-22.905 1.703-34.32-8.426 16.765-16.46 33.727-24.09 50.867-7.353 16.51-14.458 33.767-14.359 51.84.074 13.606 4.257 26.869 9.492 39.43 3.251 7.799 6.964 15.492 12.168 22.15 4.165 5.328 9.266 9.969 12.656 15.82 3.795 6.549 5.198 14.176 6.328 21.66.19 1.26.375 2.526.389 3.801.013 1.274-.15 2.565-.633 3.744-.466 1.139-1.227 2.156-2.189 2.922-1.614-2.224-3.01-4.607-4.156-7.104-1.184-2.575-2.106-5.266-2.902-7.986-2.704-9.232-4.053-18.981-8.518-27.502-4.163-7.944-10.756-14.285-17.04-20.688-11.517-11.74-22.335-24.16-32.613-36.994-3.469-4.333-6.877-8.714-10.223-13.14 1.888 21.567 4.977 43.03 9.248 64.25 2.935 14.583 6.53 29.31 14.12 42.11 7.22 12.175 17.772 22.08 29.21 30.422 9.03 6.588 18.785 12.406 26.29 20.689 3.678 4.062 6.741 8.645 9.492 13.385 3.611 6.221 6.707 12.741 9.248 19.471-4.153-7.663-9.511-14.672-15.818-20.688-8.525-8.13-18.708-14.391-29.449-19.227-9.581-4.313-19.655-7.537-28.963-12.412-9.831-5.149-18.707-12.12-26.04-20.445 2.07 6.53 4.262 13.02 6.572 19.471 6.508 18.16 14.06 36.16 25.311 51.84 10.771 15.01 25.14 27.83 42.35 34.561 11.395 4.458 23.653 6.142 35.777 7.789 3.794.515 7.629 1.041 11.195 2.434 3.793 1.481 7.157 3.898 10.182 6.623 3.03 2.725 5.743 5.77 8.559 8.711 6.07 6.341 12.614 12.226 18.498 18.74 2.273 2.517 4.473 5.172 5.84 8.275.781 1.772 1.276 3.67 1.461 5.598-3.2-1.717-6.659-2.953-10.223-3.652-4.162-.816-8.464-.898-12.654-.242 3.304 3.3 6.32 6.887 9 10.709 4.349 6.192 7.805 12.965 12.01 19.258 4.201 6.293 9.308 12.228 15.984 15.789 6.072 3.239 13.226 4.401 18.74 8.518 2.978 2.223 5.317 5.204 7.252 8.377 1.935 3.173 3.493 6.556 5.16 9.877 3.186 6.346 6.816 12.576 8.518 19.471.493 1.996.82 4.04.975 6.086-2.02 1.132-3.783 2.724-5.111 4.623-.968 1.383-1.714 2.953-1.947 4.625-.194 1.39-.025 2.829.486 4.137-.838-.608-1.943-.835-2.953-.605-1.01.23-1.907.911-2.4 1.822-.479.884-.57 1.971-.244 2.922-1.541-.683-3.402-.591-4.867.242-1.041.592-1.862 1.519-2.477 2.547-.615 1.028-1.038 2.159-1.418 3.295-.73 2.182-1.322 4.43-1.432 6.729-.11 2.298.287 4.662 1.432 6.658 1.015 1.771 2.608 3.202 4.475 4.03 1.867.825 3.998 1.037 5.99.596.446 2.744 1.183 5.441 2.191 8.03.99 2.543 2.297 5.05 4.381 6.816 2.01 1.697 4.677 2.587 7.301 2.434.238 10.223.076 20.456-.486 30.666-.908 16.489-2.861 32.919-5.842 49.16 3.039-1.238 5.75-3.269 7.789-5.84 1.24-1.563 2.232-3.313 3.486-4.865 1.255-1.552 2.85-2.939 4.789-3.41.794-.193 1.617-.227 2.434-.244.973-.021 1.947-.021 2.92 0-.055 3.01-.217 6.01-.486 9.01-.477 5.317-1.291 10.605-2.434 15.82 2.632-.731 4.995-2.395 6.572-4.625.659-.933 1.18-1.953 1.766-2.934.586-.981 1.247-1.936 2.127-2.664.893-.739 1.983-1.219 3.113-1.476 1.13-.258 2.302-.299 3.459-.227 1.066.067 2.127.229 3.164.486-.203 6.407-.285 12.817-.244 19.227.031 4.855.133 9.71.305 14.563 4.441-2.06 8.67-4.579 12.596-7.504 4.117-3.068 7.941-6.63 10.709-10.953 1.318-2.059 2.41-4.37 2.434-6.814.022-2.29-.897-4.53-.73-6.814.048-.656.186-1.308.463-1.904.277-.596.696-1.134 1.24-1.502.7-.474 1.574-.646 2.418-.602.844.044 1.663.293 2.449.602 1.999.786 3.815 1.966 5.598 3.164 2.803 1.883 5.562 3.83 8.275 5.84-1.432-2.392-2.426-5.04-2.92-7.787-.39-2.17-.467-4.418 0-6.572.148-.681.354-1.361.73-1.947.496-.772 1.279-1.347 2.15-1.635.872-.288 1.827-.295 2.717-.068 1.112.284 2.104.917 2.998 1.637.894.72 1.708 1.535 2.6 2.258 2.74 2.221 6.212 3.522 9.736 3.65-1-3.785-1.898-7.601-2.678-11.439-2.443-12.03-3.767-24.26-4.625-36.508-.454-6.483-.778-12.975-.973-19.471.371-.523.878-.946 1.459-1.217.753-.351 1.628-.437 2.436-.242.893.973 1.784 1.946 2.676 2.92 5.466 5.967 10.927 11.949 16.793 17.523 3.963 3.766 8.108 7.341 12.414 10.709 1.737-2.899 3.69-5.668 5.84-8.275 3.624-4.395 7.807-8.33 12.414-11.682-4.841-.713-9.595-2.024-14.12-3.894-7.852-3.248-14.936-8.145-21.375-13.689-2.157-1.857-4.312-3.88-5.396-6.512-.633-1.537-.868-3.208-.975-4.867-.139-2.158-.047-4.422.975-6.328.903-1.685 2.445-2.926 4.01-4.02 1.567-1.095 3.219-2.11 4.506-3.523 1.54-1.692 2.483-3.937 2.516-6.225.027-1.879-.555-3.752-1.572-5.332-1.017-1.58-2.461-2.869-4.107-3.775-2.153-1.186-4.612-1.713-7.06-1.947-2.049-.196-4.117-.196-6.166 0 .015-1.789.124-3.578.326-5.355 1.141-10.03 5.211-19.464 9.248-28.719 3.251-7.454 6.707-15.173 12.9-20.443 4.745-4.04 10.713-6.297 16.06-9.492 9.92-5.925 17.561-14.979 24.338-24.338 5.864-8.099 11.233-16.558 16.06-25.313-1.527-.943-3.317-1.455-5.111-1.461-2.796-.009-5.535 1.221-7.545 3.164-.831.803-1.549 1.726-2.438 2.465-.444.37-.932.691-1.467.91-.535.219-1.118.331-1.693.275-.515-.05-1.017-.234-1.441-.531-.424-.297-.771-.705-.994-1.172 1.402-2.708 2.863-5.386 4.381-8.03 7.515-13.09 17.632-24.673 29.451-33.83 3.155-2.444 6.889-4.196 10.707-5.355 6.808-2.067 14.316-.789 21.18-2.676 13.312-3.661 26.673-8.61 37.967-16.551 12.864-9.04 24.07-20.828 32.371-34.32 8.427-13.69 14.04-28.961 18.01-44.539 1.659-6.509 3.039-13.09 4.137-19.715-2.283 4.485-5.154 8.669-8.518 12.412-6.4 7.121-14.544 12.585-23.365 16.307-9.48 4-19.799 6.066-28.719 11.195-8.868 5.099-15.834 12.942-21.904 21.18-1.54 2.09-3.064 4.243-5.111 5.84-.723.564-1.53 1.062-2.434 1.217-.554.095-1.135.057-1.658-.148-.523-.205-.983-.58-1.262-1.068-.35-.613-.395-1.364-.26-2.057.135-.693.436-1.34.744-1.975 3.199-6.598 7.515-12.647 12.658-17.873 12.12-12.32 28.495-19.839 40.4-32.369 8.02-8.444 13.708-18.87 18.01-29.693 7.808-19.647 11.269-40.76 13.145-61.818 1.024-11.492 1.592-23.02 1.703-34.561-2.408 10.387-7.383 20.17-14.359 28.23-9.665 11.171-22.958 18.959-31.641 30.91-5.495 7.563-8.864 16.419-12.412 25.07-2.846 6.937-5.883 13.952-6.572 21.418-.071.771-.119 1.556-.391 2.281-.136.363-.328.708-.59.994-.261.286-.595.51-.967.617-.343.099-.711.096-1.057.001-.346-.087-.668-.255-.949-.475-.562-.439-.948-1.07-1.227-1.727-.629-1.485-.759-3.144-.619-4.75.139-1.606.537-3.177.932-4.74 1.665-6.602 3.303-13.255 6.084-19.471 4.391-9.815 11.459-18.17 16.795-27.502 5.697-9.966 9.387-21.03 11.195-32.371 1.077-6.753 1.494-13.625.973-20.443-1.183-15.488-7.135-30.18-13.629-44.29-6.798-14.772-14.272-29.23-22.391-43.32 1.678 9.227 2.494 18.61 2.434 27.988-.095 14.877-2.396 29.705-6.328 44.05-4.375 15.965-10.79 31.497-12.656 47.945-1.758 15.492.597 31.22-.973 46.73-1.916 18.933-9.583 36.797-13.14 55.49-.611 3.208-1.141 6.544-2.922 9.281-.601.924-1.343 1.767-2.254 2.387-.911.62-1.998 1.01-3.1.988-1.069-.018-2.114-.416-2.984-1.037-.87-.621-1.573-1.455-2.127-2.369-1.408-2.324-1.852-5.093-2.191-7.789-.305-2.427-.547-4.861-.729-7.301-2.037 5.757-4.067 11.516-6.086 17.279-3.294 9.401-6.6 19-6.814 28.963-.17 7.882 1.611 15.773.73 23.607-.271 2.411-.822 4.86-2.184 6.867-.681 1-1.562 1.882-2.611 2.49-1.049.609-2.27.94-3.48.865-1.57-.097-3.051-.869-4.193-1.951-1.143-1.082-1.972-2.457-2.621-3.891-1.317-2.908-1.906-6.132-1.76-9.32l1.029-5.525c-7.094 10.07-12.171 21.561-14.846 33.588-2.067 9.295-2.719 18.912-5.598 27.988-5.126 16.16-16.804 29.24-26.03 43.46-6.161 9.498-11.395 19.773-19.377 27.803-.7.704-1.433 1.398-2.318 1.848-.443.225-.921.386-1.414.441-.493.056-1 .004-1.465-.178-.684-.271-1.238-.825-1.576-1.479-.338-.654-.469-1.403-.449-2.139.04-1.472.657-2.855 1.23-4.211 4.483-10.608 6.85-22.19 12.945-31.963 6.859-10.997 17.847-18.752 25.857-28.941 8.557-10.885 13.523-24.544 13.953-38.38-1.687 2.134-3.714 4-5.98 5.506-1.971 1.31-4.204 2.369-6.57 2.434-1.01.028-2.02-.128-2.967-.455 3.508-11.365 7.256-22.654 11.24-33.861 4.431-12.462 9.262-25.02 17.281-35.535 10.592-13.893 26.14-23.423 36.508-37.48 3.632-4.923 6.58-10.347 8.762-16.06 2.438-6.387 3.918-13.14 4.381-19.957.588-8.666-.458-17.357-.488-26.04-.042-11.962 1.858-23.929 5.6-35.29-3.567 6.9-8.09 13.308-13.387 18.984-6.503 6.964-14.14 12.795-20.688 19.715-7.599 8.03-13.797 17.808-15.576 28.719-1.087 6.662-.496 13.469 0 20.2.19 2.585.365 5.196-.043 7.756-.408 2.559-1.453 5.096-3.365 6.846-.371.339-.774.649-1.225.873-.45.224-.951.36-1.453.344-.68-.021-1.337-.325-1.838-.785-.501-.46-.853-1.07-1.064-1.717-.423-1.294-.296-2.696-.148-4.049 1.719-15.714 5.766-31.06 9.137-46.51 2.323-10.642 4.39-21.528 9.492-31.15 6.654-12.552 17.949-21.989 25.797-33.83 8.87-13.383 13.06-29.725 12.17-45.756-.568-10.197-3.108-20.16-5.088-30.18-1.98-10.02-3.406-20.346-1.727-30.42.593-3.555 1.567-7.04 2.678-10.465.84-2.593 1.759-5.161 2.756-7.697-6.166 5.591-11.89 11.67-17.1 18.16-13.41 16.698-23.454 36.37-27.27 57.44-2.026 11.182-2.295 22.617-4.137 33.83-.531 3.231-1.194 6.46-1.217 9.734-.012 1.77.158 3.57-.271 5.287-.215.858-.585 1.69-1.156 2.365-.571.676-1.355 1.189-2.225 1.354-1.013.192-2.086-.107-2.926-.705-.84-.598-1.455-1.478-1.842-2.434-.773-1.912-.655-4.048-.586-6.109.659-19.637-4.412-39.38-14.12-56.46-6.21-10.931-14.275-20.784-23.607-29.21-11.979-10.812-25.937-19.217-38.21-29.693-4.367-3.727-8.513-7.712-12.412-11.926 1.434 6.478 2.812 12.969 4.137 19.471 3.226 15.839 6.138 31.786 10.953 47.22 4.76 15.255 11.37 29.937 19.713 43.566 9.718 15.877 21.743 30.29 30.91 46.49 3.675 6.495 6.89 13.287 9.01 20.443 4.32 14.608 3.917 30.28 1.217 45.27-3.271 18.16-9.829 35.694-11.926 54.03-.183 1.605-.336 3.225-.809 4.77-.473 1.544-1.302 3.03-2.6 3.992-.722.535-1.574.893-2.463 1.023-.888.13-1.811.032-2.648-.293-1.489-.578-2.635-1.838-3.381-3.25-.746-1.412-1.135-2.981-1.486-4.539-.96-4.257-1.69-8.564-2.189-12.898-1.861 5.09-3.408 10.295-4.625 15.576-2.899 12.575-3.926 25.587-2.92 38.453.533 6.813 1.632 13.624 1.217 20.445-.488 8.02-3.059 15.769-6.23 23.15-3.172 7.378-6.961 14.478-10.08 21.879-7.868 18.69-11.282 38.897-16.795 58.41-.273.966-.553 1.937-1 2.836-.447.899-1.075 1.732-1.92 2.275-.856.551-1.944.775-2.92.486-.577-.171-1.099-.511-1.516-.945-.417-.434-.734-.96-.961-1.518-.455-1.115-.554-2.338-.615-3.541-.372-7.291.491-14.581 1.072-21.857 1.485-18.577 1.141-37.26.072-55.861-.238-4.142-.51-8.334.242-12.414.89-4.826 3.176-9.281 5.734-13.469 2.559-4.188 5.424-8.2 7.652-12.572 4.59-9.01 6.315-19.445 4.867-29.449-3.095 2.568-5.95 5.423-8.518 8.518-.823.992-1.62 2.01-2.559 2.896-.939.883-2.039 1.632-3.283 1.971-.812.221-1.678.262-2.496.065-.818-.197-1.583-.639-2.127-1.281-.55-.649-.858-1.478-.984-2.32-.126-.842-.082-1.701.001-2.547.699-6.454 3.993-12.288 7.06-18.01 4.479-8.359 8.626-16.926 13.873-24.826 5.732-8.63 12.733-16.395 18.01-25.311 6.713-11.341 10.461-24.34 11.439-37.482 1.121-15.07-1.331-30.22-5.355-44.781-1.798-6.506-3.911-12.924-6.328-19.227 1.617 4.961 1.442 10.484-.486 15.332-2.52 6.337-7.71 11.145-12.168 16.307-7.6 8.799-13.374 19.15-17.04 30.18-2.392 7.205-3.9 14.898-2.678 22.391.185 1.132.432 2.265.412 3.412-.001.574-.089 1.149-.271 1.693-.182.544-.471 1.056-.871 1.467-.401.411-.914.716-1.473.852-.558.136-1.161.1-1.691-.121-.414-.173-.778-.454-1.072-.793-.294-.338-.52-.732-.688-1.148-.335-.832-.441-1.738-.529-2.631-.859-8.699-.413-17.525 1.316-26.09 2.881-14.277 9.29-27.832 10.465-42.35.836-10.334-1.038-20.736-4.088-30.645-3.05-9.909-7.261-19.412-11.244-28.984-6.03-14.486-11.549-29.18-16.551-44.05 1.474 6.447 1.804 13.154.973 19.715-1.544 12.177-6.975 23.464-12.207 34.568-5.232 11.1-10.415 22.56-11.4 34.795-.979 12.162 2.261 24.24 5.799 35.916 3.538 11.677 7.438 23.444 7.83 35.639.228 7.102-.718 14.413 1.461 21.18.293.911.646 1.827.639 2.783-.004.478-.1.962-.328 1.383-.228.42-.594.773-1.041.943-.459.175-.984.149-1.441-.031-.457-.18-.85-.505-1.152-.893-.605-.775-.847-1.766-1.057-2.727-3.082-14.12-2.484-29.06-7.545-42.592-4.189-11.199-12.08-20.763-21.418-28.23-4.824-3.859-10.05-7.21-15.576-9.979 4.195 6.529 6.956 13.974 8.03 21.66 1.341 9.581.083 19.325-1.457 28.877-1.54 9.551-3.367 19.13-3.166 28.807.218 10.534 2.951 21.15 8.762 29.936 6.191 9.365 15.517 16.251 22.15 25.311 4.257 5.818 7.325 12.434 9.736 19.229 3.981 11.217 6.236 23.429 3.65 35.05-.329 1.48-.736 2.943-1.217 4.381-2.645-2.034-5.02-4.414-7.06-7.06-2.222-2.889-4.03-6.096-5.354-9.492-2.02 7.767-2.189 16.01-.488 23.852 2.75 12.686 10.189 23.927 13.387 36.508 3 11.807 2.168 24.407 5.842 36.02.26.821.544 1.648.586 2.508.021.43-.02.866-.152 1.275-.133.41-.36.793-.678 1.084-.289.264-.649.446-1.031.529-.382.083-.783.067-1.158-.043-.756-.221-1.365-.803-1.779-1.473-.414-.67-.658-1.428-.898-2.178-2.2-6.868-4.407-13.736-6.328-20.688-4.943-17.879-8.101-36.559-17.04-52.814-3.331-6.06-7.476-11.812-9.248-18.496-1.577-5.947-1.159-12.246-.184-18.32.975-6.075 2.495-12.07 3.104-18.19 1.362-13.707-2.041-27.842-9.492-39.43.414 5.601.17 11.249-.729 16.793-.169 1.04-.361 2.08-.693 3.08-.332 1-.81 1.964-1.498 2.762-.705.816-1.631 1.446-2.662 1.762-1.031.316-2.166.31-3.18-.059-1.204-.438-2.186-1.357-2.914-2.41-.728-1.054-1.227-2.245-1.709-3.432-5.327-13.1-9.267-26.754-11.926-40.645-2.822-14.739-4.205-29.813-3.164-44.783.838-12.04 3.255-24 7.545-35.29 9.389-24.701 27.26-45.18 39.43-68.63 7-13.494 12.08-27.919 16.06-42.592 4.668-17.207 7.848-34.817 9.492-52.57"/><path d="m328.14 73.64c-2.583 2.752-5.415 5.271-8.451 7.514-10.08 7.442-22.254 11.768-31.932 19.721-7.64 6.278-13.443 14.651-17.217 23.791-6.247 15.13-6.959 31.88-10.33 47.896-1.644 7.812-3.962 15.554-7.826 22.539-.581 1.051-1.201 2.088-1.961 3.02-.76.93-1.667 1.754-2.734 2.305-.931.48-1.982.744-3.03.707-1.047-.037-2.089-.382-2.92-1.02-1.21-.928-1.897-2.403-2.203-3.896-.306-1.493-.274-3.03-.301-4.557-.069-3.874-.532-7.729-.939-11.582-1.629-15.394-2.397-30.951-5.947-46.02-3.286-13.947-8.922-27.28-15.965-39.758-2.349-4.162-4.856-8.234-7.514-12.207-1.702 5.146-3.165 10.369-4.383 15.65-2.248 9.749-3.66 19.737-3.443 29.74.261 12.06 2.89 23.993 6.887 35.37 2.841 8.09 6.416 16.01 11.582 22.852 6.625 8.776 15.769 15.67 20.975 25.355 3.721 6.924 5.166 14.808 6.574 22.541 3.498 19.216 7.08 38.453 8.766 57.912.353 4.073.618 8.227-.313 12.209-.311 1.332-.763 2.649-1.525 3.785-.762 1.136-1.861 2.084-3.172 2.477-.954.285-1.985.266-2.951.023-.966-.243-1.87-.701-2.684-1.275-1.851-1.305-3.238-3.185-4.254-5.209-1.016-2.024-1.686-4.201-2.32-6.375-1.945-6.669-3.616-13.443-4.381-20.348-.718-6.478-.638-13.08-2.191-19.408-1.936-7.891-6.361-15.03-11.896-20.975-4.369-4.694-9.454-8.721-15.03-11.896-.535 4.172-1.058 8.348-1.566 12.523-1.027 8.429-1.994 17.03-.313 25.355 1.01 4.983 2.957 9.766 5.635 14.09 4.411 7.12 10.674 12.87 16.904 18.469 8.47 7.611 17.1 15.202 23.791 24.418 8.466 11.667 13.45 25.426 18.783 38.818 6.441 16.18 13.55 32.13 18.469 48.834.46 1.563.904 3.15.967 4.777.063 1.628-.287 3.323-1.279 4.615-.647.843-1.542 1.479-2.523 1.887-.982.408-2.049.593-3.111.617-2.74.062-5.49-.97-7.514-2.818 2.519 2.929 4.923 5.958 7.201 9.08 3.262 4.468 6.27 9.123 9.703 13.461 6.582 8.317 14.699 15.442 20.35 24.418 8.718 13.849 10.767 30.723 12.834 46.957 1.81 14.215 3.792 28.408 5.947 42.574 1.721-.476 3.4-1.106 5.01-1.879 1.023-.491 2.036-1.052 2.816-1.877.949-1 1.492-2.339 1.738-3.697.246-1.359.214-2.75.141-4.129-.529-9.914-3.16-19.585-5.947-29.11-5.655-19.33-12.02-38.457-17.219-57.914-2.91-10.885-5.478-21.932-10.02-32.24-2.79-6.338-6.297-12.334-9.213-18.615-2.916-6.281-5.259-12.968-5.5-19.889-.322-9.252 3.118-18.291 3.131-27.549.007-5.153-1.067-10.304-3.131-15.03-.071 3.635-1.42 7.232-3.756 10.02-.527.628-1.106 1.22-1.785 1.678-.679.458-1.467.778-2.285.826-1.215.072-2.407-.464-3.34-1.246-.933-.782-1.642-1.795-2.295-2.822-7.777-12.232-9.115-27.303-11.27-41.637-2.109-14.03-5.189-27.902-7.199-41.947-2.023-14.13-2.94-28.674.313-42.574 2.992-12.788 9.388-24.508 16.279-35.688 9.809-15.912 20.798-31.15 29.11-47.895 6.472-13.03 11.254-26.829 15.652-40.697 2.635-8.308 5.139-16.656 7.512-25.04m47.43 0c2.373 8.386 4.877 16.735 7.512 25.04 4.399 13.868 9.18 27.667 15.652 40.697 8.316 16.741 19.304 31.982 29.11 47.895 6.892 11.18 13.287 22.899 16.279 35.688 3.252 13.9 2.336 28.442.313 42.574-2.01 14.04-5.09 27.917-7.199 41.947-2.155 14.334-3.492 29.405-11.27 41.637-.653 1.027-1.362 2.04-2.295 2.822-.933.782-2.124 1.318-3.34 1.246-.818-.049-1.606-.368-2.285-.826-.679-.458-1.259-1.05-1.785-1.678-2.336-2.785-3.685-6.383-3.756-10.02-2.064 4.721-3.138 9.873-3.131 15.03.013 9.258 3.453 18.297 3.131 27.549-.241 6.921-2.584 13.607-5.5 19.889-2.916 6.281-6.423 12.277-9.213 18.615-4.54 10.312-7.107 21.359-10.02 32.24-5.202 19.457-11.564 38.584-17.219 57.914-2.787 9.529-5.418 19.2-5.947 29.11-.074 1.379-.105 2.77.141 4.129.246 1.359.789 2.694 1.738 3.697.78.825 1.793 1.386 2.816 1.877 1.61.773 3.289 1.403 5.01 1.879 2.155-14.167 4.137-28.359 5.947-42.574 2.067-16.234 4.116-33.11 12.834-46.957 5.65-8.976 13.768-16.1 20.35-24.418 3.433-4.338 6.441-8.993 9.703-13.461 2.278-3.12 4.682-6.149 7.201-9.08-2.024 1.848-4.774 2.88-7.514 2.818-1.063-.024-2.13-.209-3.111-.617-.982-.408-1.876-1.044-2.523-1.887-.992-1.292-1.342-2.988-1.279-4.615.063-1.628.507-3.215.967-4.777 4.919-16.702 12.03-32.658 18.469-48.834 5.333-13.393 10.317-27.15 18.783-38.818 6.688-9.216 15.321-16.807 23.791-24.418 6.23-5.598 12.493-11.349 16.904-18.469 2.677-4.322 4.628-9.104 5.635-14.09 1.682-8.323.714-16.926-.313-25.355-.509-4.176-1.032-8.351-1.566-12.523-5.572 3.175-10.656 7.202-15.03 11.896-5.536 5.948-9.96 13.08-11.896 20.975-1.553 6.33-1.474 12.93-2.191 19.408-.765 6.905-2.436 13.678-4.381 20.348-.634 2.174-1.304 4.351-2.32 6.375-1.016 2.024-2.403 3.904-4.254 5.209-.814.574-1.718 1.033-2.684 1.275-.966.243-1.997.262-2.951-.023-1.31-.392-2.41-1.341-3.172-2.477-.762-1.136-1.214-2.453-1.525-3.785-.93-3.982-.665-8.135-.313-12.209 1.686-19.459 5.267-38.696 8.766-57.912 1.408-7.733 2.853-15.617 6.574-22.541 5.205-9.686 14.349-16.58 20.975-25.355 5.166-6.843 8.741-14.761 11.582-22.852 3.997-11.382 6.626-23.315 6.887-35.37.216-10-1.196-19.991-3.443-29.74-1.218-5.282-2.681-10.505-4.383-15.65-2.657 3.973-5.165 8.04-7.514 12.207-7.04 12.478-12.679 25.811-15.965 39.758-3.55 15.07-4.318 30.624-5.947 46.02-.408 3.853-.871 7.708-.939 11.582-.027 1.524.005 3.063-.301 4.557-.306 1.493-.994 2.969-2.203 3.896-.831.638-1.873.982-2.92 1.02-1.047.037-2.098-.227-3.03-.707-1.067-.55-1.975-1.375-2.734-2.305-.76-.93-1.38-1.967-1.961-3.02-3.865-6.985-6.182-14.727-7.826-22.539-3.371-16.02-4.083-32.768-10.33-47.896-3.774-9.14-9.577-17.513-17.217-23.791-9.677-7.953-21.856-12.279-31.932-19.721-3.036-2.243-5.868-4.761-8.451-7.514m-61.52 14.158c.929 4.105.696 8.467-.666 12.449-1.852 5.414-5.635 9.904-9.113 14.447-8.358 10.92-15.372 22.921-20.229 35.787-3.037 8.05-5.221 16.393-8.225 24.451-.397 1.065-.825 2.153-1.6 2.984-.387.416-.86.761-1.395.955-.534.194-1.132.233-1.674.063-.491-.155-.922-.477-1.24-.881-.318-.404-.528-.889-.643-1.391-.23-1-.088-2.053.105-3.064.813-4.243 2.525-8.252 4.223-12.225 6.908-16.16 13.799-32.368 22.23-47.791 3.148-5.76 6.515-11.415 10.447-16.67 2.395-3.2 4.994-6.248 7.779-9.115m75.61 0c2.785 2.867 5.385 5.915 7.779 9.115 3.932 5.255 7.299 10.91 10.447 16.67 8.429 15.423 15.32 31.629 22.23 47.791 1.698 3.973 3.409 7.982 4.223 12.225.194 1.01.336 2.061.105 3.064-.115.502-.324.986-.643 1.391-.318.404-.749.726-1.24.881-.542.171-1.14.132-1.674-.063-.534-.194-1.01-.539-1.395-.955-.775-.832-1.203-1.919-1.6-2.984-3-8.06-5.188-16.405-8.225-24.451-4.856-12.866-11.87-24.867-20.229-35.787-3.478-4.544-7.261-9.03-9.113-14.447-1.362-3.982-1.595-8.345-.666-12.449m-177 14.313c.293-.006.587.025.873.09.572.129 1.112.385 1.598.713 1.626 1.096 2.62 2.939 3.115 4.836.495 1.897.548 3.877.662 5.834.594 10.215 2.918 20.258 3.779 30.453.571 6.759.503 13.611 2 20.227.909 4.02 2.39 7.916 2.891 12 .2 1.631.237 3.313-.223 4.891-.179.612-.436 1.211-.842 1.703-.406.492-.972.873-1.604.965-.481.07-.978-.029-1.414-.244-.436-.215-.812-.542-1.117-.92-.611-.755-.939-1.694-1.248-2.615-2.114-6.312-3.847-12.763-4.889-19.338-1.712-10.81-1.538-21.845-3.113-32.676-.902-6.199-2.372-12.298-3.557-18.449-.266-1.38-.516-2.802-.258-4.184.129-.691.39-1.363.809-1.928.419-.564 1-1.016 1.672-1.225.28-.087.572-.131.865-.137m278.38 0c.293.006.585.05.865.137.671.209 1.253.66 1.672 1.225.419.564.679 1.237.809 1.928.259 1.382.008 2.803-.258 4.184-1.185 6.151-2.655 12.251-3.557 18.449-1.575 10.831-1.401 21.866-3.113 32.676-1.041 6.575-2.774 13.03-4.889 19.338-.309.921-.637 1.86-1.248 2.615-.306.378-.681.705-1.117.92-.436.215-.933.314-1.414.244-.631-.092-1.198-.473-1.604-.965-.406-.492-.663-1.091-.842-1.703-.46-1.578-.422-3.26-.223-4.891.501-4.088 1.982-7.987 2.891-12 1.497-6.616 1.429-13.468 2-20.227.861-10.195 3.185-20.239 3.779-30.453.114-1.957.167-3.937.662-5.834.495-1.897 1.489-3.74 3.115-4.836.486-.328 1.026-.584 1.598-.713.286-.065.58-.096.873-.09m-338.5 11.264c-9 14.06-15.279 29.856-18.373 46.26-2.343 12.423-2.851 25.368.223 37.631 3.713 14.817 12.399 27.838 21.25 40.29 3.354 4.717 6.762 9.416 9.561 14.482 2.799 5.066 4.988 10.545 5.713 16.287.743 5.892-.056 11.99 1.549 17.707.824 2.937 2.257 5.664 3.303 8.529 1.046 2.865 1.704 6.02.904 8.959-.273 1.01-.74 2-1.551 2.656-.63.509-1.43.778-2.236.857-.806.079-1.621-.021-2.412-.193-2.271-.493-4.392-1.562-6.268-2.934-1.876-1.372-3.518-3.043-5.02-4.814-4.47-5.267-7.764-11.459-10.182-17.93-4.03-10.791-5.779-22.593-11.953-32.32-4.406-6.939-10.779-12.348-16.602-18.15-7.483-7.457-14.173-15.708-19.922-24.57-1.736 9.03-1.962 18.345-.664 27.447 1.795 12.593 6.455 24.612 11.953 36.08 4.569 9.532 9.941 19.02 18.15 25.676 5.228 4.241 11.385 7.149 17.455 10.06 6.07 2.911 12.195 5.915 17.299 10.305 6.155 5.294 10.52 12.342 14.387 19.48 5.25 9.692 9.765 19.768 15.05 29.439 2.095 3.831 4.31 7.597 6.641 11.289-2.597 1.585-5.594 2.507-8.633 2.656-2.243.11-4.504-.196-6.641-.885-3.054-.985-5.828-2.737-8.227-4.869-2.399-2.132-4.439-4.64-6.281-7.268-3.685-5.255-6.629-11.04-10.727-15.977-7.511-9.05-18.29-14.617-28.555-20.363-2.619-1.466-5.268-2.978-8.186-3.684-1.459-.353-2.977-.497-4.467-.318-1.49.179-2.953.691-4.172 1.566-1.186.852-2.116 2.031-2.768 3.338-.651 1.307-1.03 2.739-1.217 4.188-.454 3.521.218 7.131 1.555 10.42 1.337 3.289 3.319 6.282 5.529 9.06 7.117 8.946 16.532 15.721 25.678 22.578 4.993 3.743 9.961 7.557 15.389 10.637 5.428 3.079 11.377 5.421 17.594 5.965 7.881.689 15.847-1.523 23.684-.443 6.04.831 11.683 3.596 16.602 7.191 4.918 3.596 9.172 8.01 13.283 12.51 7.878 8.617 15.351 17.644 21.691 27.447 4.524 6.995 8.453 14.355 12.396 21.693 1.032 1.919 2.065 3.838 3.1 5.756-1.359.89-2.86 1.565-4.428 1.992-2.673.728-5.542.724-8.213-.012-2.671-.736-5.137-2.199-7.06-4.193 2.868 3.108 5.745 6.207 8.633 9.297 4.213 4.508 8.482 9.03 13.502 12.617 4.114 2.942 8.691 5.224 12.619 8.41 4.633 3.757 8.218 8.653 11.281 13.771 3.063 5.118 5.653 10.507 8.641 15.67 1.824 3.152 3.798 6.223 5.395 9.496 1.597 3.273 2.816 6.789 3.02 10.426.098 1.78-.051 3.573-.441 5.313 1.747.421 3.524.716 5.313.885 2.354.222 4.728.222 7.082 0-3.159-14.595-8.232-28.772-15.05-42.06-7.478-14.567-17-27.988-27.01-40.951-11.203-14.516-23.375-29.16-27.891-46.928-1.584-6.235-2.167-12.672-3.1-19.04-.96-6.553-2.313-13.05-4.02-19.445.847 4.2-.191 8.768-2.846 12.141-.612.778-1.308 1.5-2.125 2.059-.817.559-1.761.951-2.746 1.041-1.067.097-2.145-.164-3.113-.623-.968-.459-1.833-1.109-2.641-1.813-3.097-2.695-5.393-6.186-7.383-9.777-1.99-3.591-3.716-7.331-5.898-10.809-.763-1.216-1.582-2.399-2.25-3.67-.668-1.271-1.186-2.647-1.293-4.078-.108-1.446.207-2.892.637-4.277.43-1.385.977-2.733 1.355-4.133.908-3.359.817-6.918.318-10.361-.499-3.444-1.394-6.815-2.088-10.225-1.2-5.895-1.795-11.914-1.771-17.93-1.425 3.628-3.051 7.177-4.869 10.625-.73 1.384-1.509 2.773-2.637 3.857-.564.542-1.213 1-1.934 1.307-.721.304-1.515.45-2.293.369-.68-.071-1.337-.314-1.922-.668-.585-.354-1.1-.818-1.545-1.338-.889-1.039-1.493-2.286-2.066-3.527-3.02-6.534-5.468-13.317-7.748-20.14-5.731-17.16-10.426-34.674-13.725-52.46-2.073-11.182-3.595-22.496-3.762-33.867-.157-10.729.882-21.598-1.328-32.1-2.469-11.726-8.825-22.21-13.06-33.424-3.5-9.263-5.558-19.1-5.756-28.998-.108-5.413.338-10.836 1.328-16.16m395.79 5.172c.239 8.616-.581 17.259-2.436 25.676-4.03 18.282-12.865 35.32-15.938 53.791-1.857 11.162-1.556 22.554-1.328 33.867.144 7.162.257 14.342-.441 21.471-1.672 17.05-7.91 33.27-12.396 49.805-2.926 10.787-5.161 21.892-10.182 31.877-.486.967-1 1.93-1.719 2.744-.714.814-1.647 1.474-2.709 1.682-.98.191-2.01-.015-2.91-.445-.901-.43-1.686-1.072-2.402-1.768-3.467-3.371-5.442-8.226-5.313-13.06-.66 4.87-1.324 9.74-1.992 14.609-.99 7.218-1.973 14.68 0 21.693.525 1.866 1.254 3.671 1.768 5.541.514 1.87.809 3.843.445 5.748-.496 2.599-2.163 4.816-3.977 6.742-1.814 1.926-3.837 3.684-5.32 5.875-1.921 2.837-2.82 6.223-4.188 9.365-.684 1.571-1.495 3.099-2.584 4.422-1.089 1.323-2.469 2.438-4.074 3.037-.822.307-1.7.474-2.576.451-.877-.023-1.752-.242-2.516-.674-.818-.462-1.489-1.155-2.02-1.93-.533-.774-.934-1.63-1.299-2.496-1.45-3.445-2.35-7.122-2.656-10.848-2.02 3.202-3.519 6.73-4.428 10.404-2.405 9.726-.624 20.07-2.656 29.883-1.504 7.261-5.05 13.963-9.334 20.02-4.28 6.05-9.303 11.54-14.13 17.17-9.615 11.215-18.543 23.13-25.23 36.3-7.888 15.525-12.513 32.466-18.816 48.699-.552 1.42-1.117 2.842-1.459 4.326-.342 1.485-.454 3.048-.09 4.527.318 1.293.986 2.477 1.328 3.764.345 1.298.345 2.686 0 3.984 1.496.751 3.311.833 4.869.221.944-.371 1.792-.987 2.436-1.771 2.653-11.277 6.06-22.377 10.182-33.2 3.879-10.18 8.667-20.485 17.04-27.447 6.608-5.491 14.949-8.474 21.914-13.504 7.1-5.128 12.641-12.385 15.717-20.586-1.252 2.242-3.327 4.01-5.738 4.896-2.411.884-5.138.876-7.543-.025-1.343-.503-2.595-1.285-3.557-2.35-.961-1.065-1.621-2.422-1.756-3.85-.112-1.183.133-2.379.559-3.488.426-1.109 1.029-2.142 1.654-3.152 5.702-9.207 13.46-16.935 20.14-25.455 4.993-6.364 9.394-13.179 14.467-19.479 5.073-6.3 10.924-12.155 18.07-15.939 6.381-3.378 13.546-4.978 20.68-6.088 7.134-1.11 14.351-1.767 21.377-3.43 16.345-3.869 31.25-13.234 42.28-25.898 7.472-8.576 13.178-18.548 18.15-28.777 2.369-4.872 4.584-9.818 6.641-14.83-6.588 4.435-13.749 8.02-21.25 10.625-9.43 3.28-19.568 5.114-27.893 10.625-5.992 3.967-10.662 9.604-15.01 15.328-4.344 5.725-8.494 11.668-13.77 16.547-3.937 3.64-8.645 6.712-13.945 7.525-1.121.172-2.276.24-3.383-.006-1.107-.246-2.168-.832-2.814-1.764-.612-.882-.807-2-.734-3.072.073-1.071.393-2.109.734-3.127 3.463-10.325 9.319-19.657 15.273-28.775 7.11-10.887 14.577-21.784 24.57-30.1 9.836-8.189 21.837-13.635 30.99-22.58 11.229-10.973 17.17-26.23 21.25-41.39 3.992-14.83 6.516-30.05 7.525-45.38-3.584 6.077-8.08 11.618-13.281 16.381-8.744 8-19.629 13.989-26.12 23.906-3.905 5.968-5.927 12.962-7.457 19.928-1.53 6.966-2.631 14.05-4.939 20.803-2.01 5.883-4.962 11.496-9.08 16.16-2.952 3.345-6.613 6.242-10.924 7.391-.858.228-1.749.386-2.633.307-.884-.079-1.768-.415-2.381-1.057-.621-.649-.915-1.556-.986-2.451-.072-.895.061-1.792.188-2.682 1.987-13.961 2.931-28.21 7.439-41.572 2.548-7.552 6.203-14.699 10.404-21.473 6.311-10.174 13.91-19.625 18.814-30.547 3.043-6.777 5-14.06 5.535-21.471 1.031-14.286-3.2-28.413-8.191-41.838-3.573-9.611-7.563-19.07-11.953-28.332m-203.45 10.189c-2.253 6.449-4.444 12.918-6.574 19.408-3.843 11.712-7.496 23.533-9.547 35.688-2.105 12.476-2.461 25.52 1.408 37.566 2.6 8.095 7.03 15.514 9.549 23.635 3.752 12.1 3.069 25.05 3.287 37.721.15 8.717.742 17.454 0 26.14-.157 1.839-.375 3.678-.783 5.479-.351 1.548-.884 3.132-2.035 4.225-.717.681-1.653 1.132-2.635 1.25-.982.118-2-.1-2.844-.623-.976-.609-1.671-1.595-2.135-2.648-.464-1.053-.72-2.182-.996-3.299-.914-3.703-2.068-7.343-3.287-10.957-2.626-7.786-5.573-15.524-6.887-23.635-1.601-9.883-.784-20.303-4.539-29.584-2.128-5.261-5.635-9.884-7.67-15.182-1.096-2.853-1.754-5.88-3.129-8.609-1.194-2.37-2.919-4.47-5.01-6.104 1.085 1.429 1.761 3.164 1.926 4.951.165 1.787-.181 3.619-.986 5.223-.557 1.109-1.321 2.1-1.926 3.184-.604 1.083-1.053 2.317-.891 3.547.162 1.233.937 2.33 1.934 3.074 1.614 1.205 3.843 1.531 5.734.838 2.474 4.662 4.077 9.786 4.697 15.03.61 5.148.28 10.353.277 15.537-.002 5.184.345 10.467 2.227 15.297 1.793 4.602 4.882 8.561 7.355 12.836.65 1.123 1.265 2.283 1.59 3.539.325 1.256.341 2.628-.18 3.816-.28.637-.711 1.209-1.252 1.646-.541.437-1.193.738-1.879.857-.873.152-1.782.009-2.605-.318-.824-.327-1.57-.832-2.248-1.402-1.903-1.601-3.305-3.728-4.361-5.979-1.057-2.251-1.788-4.639-2.525-7.01-2.804-9.03-5.808-18.273-5.164-27.703.329-4.815 1.61-9.588 1.252-14.4-.22-2.958-1.068-5.867-2.471-8.48-1.3 5.247-2.459 10.527-3.477 15.836-1.177 6.143-2.168 12.378-1.879 18.627.447 9.665 4.01 19.1 9.705 26.922 5.545 7.623 12.965 13.682 18.938 20.975 7.03 8.586 11.981 18.874 14.244 29.738 1.053 5.05 1.531 10.204 2.035 15.34.894 9.108 1.876 18.272 1.096 27.391-.147 1.714-.358 3.436-.891 5.072-.533 1.636-1.407 3.195-2.709 4.32-.73.63-1.587 1.116-2.506 1.408-1.406.448-2.953.432-4.35-.043-1.397-.475-2.635-1.407-3.477-2.619.118 1.852.434 3.692.939 5.479 1.815 6.411 5.979 11.878 8.609 18 3.413 7.944 4.149 16.74 4.852 25.357 1.301 15.961 2.634 31.922 3.758 47.896.814 11.57 1.519 23.15 1.721 34.748.076 4.393.103 8.906 1.723 12.99.296.747.658 1.494 1.252 2.035.413.376.926.638 1.469.768.543.13 1.116.13 1.662.016.693-.145 1.345-.473 1.877-.939.984-.862 1.516-2.149 1.715-3.441.199-1.293.098-2.611.008-3.916-.915-13.278-.666-26.603-.627-39.912.046-15.6-.198-31.2-.313-46.801-.125-17.01-.096-34.03-.939-51.03-.142-2.863-.308-5.733-.117-8.594.191-2.86.75-5.731 1.996-8.313 1.818-3.769 4.967-6.695 7.514-10.02 4.593-5.988 7.258-13.432 7.512-20.975-2.239 3.683-5.11 6.981-8.451 9.705-.807.658-1.65 1.287-2.598 1.719-.947.432-2.01.654-3.037.471-.856-.154-1.652-.587-2.287-1.182-.635-.594-1.116-1.342-1.453-2.145-.674-1.604-.773-3.385-.799-5.125-.145-9.82 1.84-19.617 5.32-28.801 3.812-10.06 9.388-19.386 15.809-28.02 4.641-6.239 9.732-12.137 14.244-18.469 6.03-8.458 11.03-17.734 13.932-27.705 1.516-5.205 2.453-10.569 2.973-15.965.85-8.827.576-17.81-1.408-26.453-.783-3.413-1.832-6.766-3.131-10.02.173 1.947-.27 3.944-1.252 5.635-1.2 2.066-3.13 3.608-5.15 4.883-2.02 1.275-4.176 2.337-6.119 3.727-4.518 3.231-7.668 8.109-9.617 13.311-1.949 5.202-2.781 10.749-3.375 16.271-.728 6.764-1.118 13.561-1.564 20.35-.4 6.078-.859 12.232-2.816 18-1.923 5.666-5.217 10.744-8.141 15.965-.436.778-.867 1.564-1.439 2.248-.572.684-1.302 1.265-2.16 1.508-.967.273-2 .096-2.975-.156-1.03-.267-2.078-.643-2.816-1.408-.614-.636-.959-1.493-1.119-2.363-.16-.87-.148-1.762-.133-2.646.24-13.986 1.119-27.959 1.096-41.947-.012-6.951-.245-13.943.781-20.818 1.462-9.798 5.427-19.03 7.826-28.643 2.052-8.219 2.952-16.78 2.035-25.2-1.024-9.404-4.27-18.407-7.67-27.23-3.935-10.218-8.11-20.343-12.521-30.365m-197.64 11.621c.121 0 .242.014.361.035.374.068.725.238 1.025.471.3.233.548.528.75.85.404.643.617 1.386.807 2.121 1.469 5.705 1.874 11.62 2.293 17.496.755 10.587 1.576 21.22 4.02 31.551 1.865 7.899 4.666 15.561 8.03 22.947.727 1.595 1.487 3.192 1.869 4.902.382 1.71.359 3.574-.434 5.137-.359.707-.874 1.339-1.518 1.803-.644.463-1.42.752-2.213.777-.807.026-1.618-.222-2.279-.686-.662-.463-1.173-1.136-1.449-1.895-.43-1.178-.296-2.476-.287-3.73.036-4.97-1.962-9.694-3.729-14.34-4.481-11.788-7.657-24.04-10.04-36.428-1.732-9-3.03-18.414-.572-27.25.26-.933.572-1.879 1.186-2.629.307-.375.688-.697 1.127-.9.33-.153.692-.238 1.055-.234m404.82 3.842c.658.059 1.27.411 1.717.898.447.487.74 1.101.92 1.736.282.996.3 2.051.201 3.082-.099 1.031-.313 2.047-.494 3.066-2.074 11.647.239 23.65-.879 35.428-.961 10.125-4.43 19.831-8.197 29.28-1.473 3.694-3 7.38-4.979 10.832-.807 1.411-1.687 2.78-2.635 4.1-.579-5.05-.579-10.172 0-15.225 1.432-12.505 6.363-24.399 7.906-36.891 1.103-8.928.454-17.997 1.463-26.936.248-2.196.604-4.406 1.465-6.441.318-.752.714-1.489 1.303-2.055.294-.283.635-.521 1.012-.678.377-.157.79-.232 1.197-.195m-205.86 2.295c.644 1.149 1.16 2.37 1.537 3.633.955 3.201.998 6.588 1.258 9.918.694 8.907 2.985 17.635 3.633 26.545.916 12.599-1.466 25.313 0 37.859.148 1.27.336 2.547.227 3.82-.11 1.274-.553 2.568-1.484 3.443-.537.504-1.228.852-1.959.941-.731.089-1.497-.088-2.092-.521-.549-.4-.934-.999-1.166-1.637-.232-.638-.322-1.319-.371-1.996-.131-1.814.029-3.634.139-5.449.488-8.094-.049-16.207-.418-24.307-.532-11.667-.718-23.386-2.516-34.926-.377-2.422-.826-4.844-.865-7.295-.039-2.45.355-4.964 1.564-7.096.639-1.127 1.497-2.129 2.514-2.934m54.07 71.947c-.156 4.768-.576 9.528-1.258 14.25-1.634 11.313-4.782 22.419-9.5 32.83-2.465 5.441-5.384 10.77-6.566 16.625-.334 1.654-.535 3.363-1.258 4.889-.33.696-.768 1.347-1.334 1.869-.566.522-1.262.913-2.02 1.064-.5.1-1.023.095-1.514-.043-.491-.138-.947-.41-1.281-.795-.354-.408-.561-.93-.633-1.465-.072-.535-.013-1.084.125-1.605.276-1.044.852-1.977 1.346-2.938.851-1.655 1.467-3.417 2.096-5.168 3.329-9.28 7.089-18.454 9.221-28.08 1.582-7.141 2.284-14.575 5.309-21.234 1.737-3.824 4.219-7.308 7.266-10.199m195.71 4.223c.598 3.183.598 6.479 0 9.662-.872 4.644-2.986 8.969-5.443 13.01-2.457 4.04-5.275 7.845-7.732 11.881-5.637 9.258-9.423 19.771-16.688 27.814-2.379 2.634-5.145 5.02-6.734 8.197-.337.672-.616 1.373-.969 2.037-.352.664-.786 1.3-1.373 1.77-.386.308-.849.542-1.342.574-.246.016-.497-.021-.725-.117-.227-.096-.429-.253-.568-.457-.199-.293-.258-.663-.232-1.016.026-.353.131-.696.232-1.035 1.829-6.096 3.218-12.36 5.855-18.15 3.112-6.835 7.852-12.771 12-19.03 5.796-8.735 10.498-18.18 16.688-26.645 2.17-2.967 4.519-5.803 7.03-8.49m-488.82.908c.685 2.845 1.855 5.573 3.443 8.03 3.02 4.67 7.427 8.234 11.186 12.332 5.398 5.885 9.449 12.88 12.906 20.08 3.583 7.46 6.633 15.301 11.76 21.799.852 1.08 1.761 2.121 2.48 3.293.72 1.172 1.25 2.504 1.25 3.879 0 .818-.197 1.647-.639 2.336-.442.689-1.142 1.227-1.943 1.393-.548.113-1.124.052-1.658-.115-.534-.167-1.031-.438-1.498-.746-1.574-1.038-2.834-2.5-3.836-4.098-1-1.598-1.758-3.335-2.473-5.08-5.117-12.49-8.516-26.1-17.211-36.428-2.321-2.756-4.973-5.214-7.385-7.891-2.412-2.677-4.614-5.632-5.809-9.03-1.094-3.112-1.295-6.533-.574-9.752m100.63 8.711c2.738 1.901 5.04 4.428 6.668 7.334 2.392 4.259 3.304 9.164 4.891 13.783 3.036 8.837 8.585 16.728 10.891 25.783 1.161 4.559 1.466 9.335.891 14-1.952-3.657-3.953-7.287-6-10.891-6.317-11.11-13.189-22.21-16-34.676-1.134-5.02-1.584-10.196-1.334-15.338m288.11 0c.25 5.141-.2 10.317-1.334 15.338-2.815 12.468-9.687 23.564-16 34.676-2.049 3.604-4.05 7.234-6 10.891-.575-4.669-.27-9.445.891-14 2.306-9.06 7.855-16.946 10.891-25.783 1.587-4.619 2.499-9.525 4.891-13.783 1.632-2.906 3.93-5.433 6.668-7.334m97.15 97.54c-1.582 3.274-3.445 6.413-5.563 9.369-5.524 7.714-12.703 14.1-20.2 19.908-7.623 5.908-15.634 11.294-23.422 16.982-3.513 2.566-7.04 5.227-11.125 6.732-.715.264-1.454.493-2.215.539-.761.046-1.553-.103-2.178-.539-.537-.375-.923-.947-1.115-1.572-.192-.626-.195-1.302-.055-1.941.244-1.108.904-2.089 1.707-2.891.803-.802 1.748-1.444 2.684-2.086 6.393-4.383 12.647-8.967 18.738-13.76 10.175-8.01 19.918-16.611 30.742-23.715 3.878-2.545 7.886-4.892 12-7.03m-477.58 1.883c7.311 6.137 14.873 11.976 22.66 17.496 7.637 5.414 15.486 10.52 23.23 15.775 5.795 3.932 11.531 7.948 17.209 12.05-1.196.849-2.575 1.44-4.02 1.721-2.591.505-5.296-.003-7.744-.99-2.448-.987-4.678-2.435-6.883-3.885-11.473-7.544-22.817-15.421-32.699-24.955-3.484-3.361-6.809-6.964-9.178-11.186-1.071-1.909-1.938-3.932-2.582-6.02m234.31 224c-3.77-.027-7.543.138-11.299.463-3.982.345-7.956.871-11.953.885-3.63.013-7.248-.397-10.846-.885-2.285-.31-4.65-.645-6.863 0-1.61.47-3.046 1.444-4.205 2.656-1.572 1.644-2.661 3.744-3.1 5.977 3.03-.034 6.05.04 9.08.221 8.94.536 17.827 2.01 26.783 1.992 10.06-.02 20.05-1.925 30.11-1.992 4.22-.028 8.442.268 12.617.885-1.871-2.686-4.4-4.908-7.305-6.418-3.609-1.876-7.692-2.628-11.732-3.1-3.744-.437-7.51-.656-11.279-.684m-44.992 17.869c-3.197-.086-6.441.161-9.471 1.188-2.17.735-4.206 1.866-5.977 3.32.349.955 1.079 1.765 1.992 2.213 1.01.495 2.18.542 3.299.434 1.118-.108 2.221-.361 3.342-.434 2.467-.159 4.893.561 7.305 1.107 11.27 2.552 22.997 1.369 34.531.664 13.209-.808 26.52-.968 39.623.885 3.761.532 7.514 1.231 11.311 1.332 3.797.101 7.696-.429 11.05-2.217 1.933-1.031 3.632-2.453 5.533-3.543 1.587-.91 3.309-1.583 5.092-1.992-1.512-1.223-3.38-2-5.313-2.213-1.981-.218-3.983 0-5.977 0h-19.258-27.01c-13.507 0-27.04 1.058-40.508 0-3.189-.251-6.369-.659-9.566-.744m97 16.682c-10.03.62-20.06 1.063-30.11 1.328-23.834.63-47.695.26-71.5-1.107.612 2.355 2.149 4.457 4.207 5.756 2.168 1.368 4.772 1.82 7.305 2.215 5.284.823 10.595 1.52 15.938 1.77 15.495.724 31.04-2.332 46.48-.885 5.979.56 12.03 1.791 17.93.664 1.581-.302 3.14-.777 4.563-1.531 1.422-.754 2.705-1.797 3.627-3.117 1.032-1.479 1.584-3.289 1.551-5.092m-2.656 13.504c3.85 6.159 8.387 11.886 13.502 17.04 4.21 4.245 8.811 8.105 13.725 11.512 1.242-1.291 2.661-2.412 4.205-3.32 2.556-1.504 5.456-2.419 8.412-2.656-6.692-1.397-13.191-3.714-19.258-6.863-7.701-3.997-14.7-9.34-20.586-15.715m-78.98 1.951c-1.823 2.789-3.305 5.802-4.4 8.949-2.654 7.627-2.997 15.846-3 23.922-.002 6.961.225 13.978-1.031 20.824-.594 3.237-1.519 6.414-2.754 9.465 2.066-1.315 3.929-2.945 5.506-4.818 1.549-1.84 2.835-3.925 4.646-5.508.781-.683 1.652-1.262 2.582-1.721.134-8.091.365-16.18.689-24.266.205-5.105.448-10.227 0-15.316-.344-3.907-1.096-7.779-2.238-11.531m45.32 1.238c-.817.037-1.632.155-2.426.352-.87 2.735-1.463 5.558-1.77 8.412-.798 7.435.359 14.931 1.715 22.285 1.356 7.354 2.919 14.729 2.934 22.21.005 2.372-.147 4.746.002 7.113.149 2.367.613 4.76 1.768 6.832.805 1.444 1.994 2.744 3.543 3.32 1.191.443 2.508.428 3.762.221.638-.105 1.273-.26 1.855-.539.583-.279 1.115-.688 1.467-1.23.455-.703.577-1.581.514-2.416-.064-.835-.299-1.645-.514-2.455-1.191-4.483-1.757-9.108-2.215-13.725-1.24-12.51-1.719-25.08-2.436-37.629-.202-3.543-.424-7.085-.664-10.625-1.522-1.029-3.274-1.715-5.09-1.992-.808-.124-1.628-.168-2.445-.131m-16.793.141c-.982-.038-1.971.104-2.898.432 1.311 9.827 1.904 19.749 1.771 29.662-.166 12.424-1.469 24.8-2.436 37.19-.85 10.904-1.442 21.829-1.771 32.762 2.814-2.39 5.794-4.582 8.855-6.641 2.142-1.44 4.372-2.751 6.641-3.984 0 0 1.253-5.724 1.328-8.635.263-10.231-2.243-20.348-3.1-30.547-1.021-12.159-3.098-24.321-2.434-36.523.165-3.036.46-6.06.885-9.07-.777-1.758-2.227-3.207-3.984-3.984-.899-.397-1.875-.617-2.857-.654m35.617.211c-1.281-.02-2.565.207-3.762.664.475 11.295 1.064 22.584 1.77 33.867.466 7.456.984 14.909 1.551 22.357 1.467.181 2.9.633 4.205 1.328 3.179 1.692 5.523 4.875 6.197 8.412-.223-8.726-.812-17.444-1.77-26.12-1.181-10.708-2.921-21.356-3.764-32.1-.197-2.506-.345-5.02-.443-7.527-1.25-.561-2.615-.864-3.984-.885m-48.13.701c-.562 0-1.124.062-1.674.184-1.403.31-2.719 1.01-3.764 1.992-.605 10.547-1.121 21.1-1.549 31.654-.481 11.876-.851 23.756-1.107 35.639 1.474-1.297 3.221-2.283 5.092-2.877 1.499-.476 3.076-.701 4.648-.664.522-10.625 1.038-21.252 1.549-31.877.522-10.846 1.04-21.692 1.551-32.539-1.368-.989-3.059-1.516-4.746-1.512" transform="translate(-4.125 156.03)" fill="#090"/></g></svg>