<?xml version="1.0" encoding="UTF-8" standalone="no"?>
<!-- Created with Inkscape (http://www.inkscape.org/) -->

<svg
   xmlns:dc="http://purl.org/dc/elements/1.1/"
   xmlns:cc="http://creativecommons.org/ns#"
   xmlns:rdf="http://www.w3.org/1999/02/22-rdf-syntax-ns#"
   xmlns:svg="http://www.w3.org/2000/svg"
   xmlns="http://www.w3.org/2000/svg"
   version="1.1"
   width="702.28021"
   height="747.73059"
   id="svg2">
  <defs
     id="defs4" />
  <metadata
     id="metadata7">
    <rdf:RDF>
      <cc:Work
         rdf:about="">
        <dc:format>image/svg+xml</dc:format>
        <dc:type
           rdf:resource="http://purl.org/dc/dcmitype/StillImage" />
        <dc:title></dc:title>
      </cc:Work>
    </rdf:RDF>
  </metadata>
  <g
     transform="translate(950.19524,-189.91418)"
     id="g3289">
    <g
       id="g3030">
      <path
         d="m -824.625,193.625 c -38.43447,0.42804 -76.91066,-0.78102 -115.3125,1.15625 0.68123,71.28961 7.52892,142.32934 9.83768,213.56091 2.53335,39.98262 6.25459,79.91061 6.58102,120.00019 2.01638,47.36007 5.99619,94.7534 14.4563,141.3764 19.047,86.65427 73.89086,165.15921 148.71875,212.6875 52.22611,31.90853 112.93838,52.00772 174.74994,50.98798 31.42781,0.63478 62.80578,-4.61735 92.81256,-13.30048 35.14883,-11.59393 69.2786,-27.21789 99.125,-49.46875 24.28778,-17.79152 45.74184,-39.45254 64.85625,-62.475 19.71104,-24.94011 36.29561,-52.485 47.55431,-82.29597 8.86944,-21.0223 14.93204,-42.91481 18.2212,-65.4969 9.45247,-60.71018 6.16234,-122.48943 8.13827,-183.72986 1.0947,-92.1176 3.45192,-184.21287 6.6613,-276.27877 2.32401,-8.27816 -9.02874,-3.4481 -13.8674,-4.86134 -149.43009,-1.78 -298.87601,-1.39564 -448.31393,-1.86216 -38.07291,-0.0426 -76.14584,-0.0425 -114.21875,0 z"
         id="path2996-7"
         style="fill:#f2f2f2" />
      <path
         d="m -945.01685,196.27608 c -0.4231,39.88104 10.82155,76.03624 11.26045,115.88538 0.2639,16.18574 4.20013,38.82381 6.10293,54.69668 15.3849,21.68516 18.01132,41.73719 36.44912,60.91794 6.0783,4.41735 10.5343,10.95382 16.7188,15.0625 9.5958,4.93342 17.3593,12.93041 27.083,17.63427 20.5247,12.97315 43.5816,21.21579 66.1044,29.92826 25.4166,7.1963 50.0441,17.3516 74.8227,26.4315 15.9445,7.3272 31.6599,15.0298 45.4899,25.9747 19.8133,13.7922 37.8722,31.3858 48.001,53.6266 10.6675,20.0225 20.5307,40.4029 28.6864,61.4672 7.2129,16.1803 13.6039,32.4665 22.6568,47.7182 21.9078,40.4485 53.0344,75.593 90.8786,101.5982 12.4818,8.8707 25.91,16.2177 39.3084,23.4336 7.0926,2.7659 13.3181,7.8138 20.9313,9.7792 5.8167,1.6373 11.6641,5.5144 17.3917,5.9776 21.6374,-9.5112 37.83015,-30.26151 57.49774,-43.31171 10.08851,-13.7534 15.78675,-23.91386 23.49375,-39.18576 12.6086,-19.9394 18.33988,-37.19925 26.67348,-59.19855 -14.8219,-4.9275 -17.38407,-9.46428 -31.66367,-15.66358 -15.53141,-3.9381 -28.9072,-13.048 -42.6055,-20.9597 -27.0084,-17.7253 -47.9575,-43.405 -63.5938,-71.4063 -14.0416,-26.2839 -22.1634,-55.2663 -32.8978,-82.8941 -13.5189,-33.44413 -33.0709,-64.63264 -58.1647,-90.51213 -15.7957,-14.32215 -32.1278,-28.93728 -50.8437,-39.53125 -21.0729,-12.86215 -44.5894,-21.3772 -68.5087,-27.3877 -32.8695,-9.55572 -66.923,-16.06191 -97.6163,-31.64355 -11.0081,-5.7705 -22.9342,-11.12711 -31.6876,-20.125 -2.8429,-3.90007 -8.5925,-5.62596 -11.8437,-9.625 -17.6695,-16.0897 -32.8886,-35.41685 -41.3111,-57.99008 -1.8501,-5.49471 -9.9088,-22.52878 -14.4389,-25.16141 -34.0104,-10.96889 -66.61834,4.11779 -100.24304,-7.92481 -4.3125,0.25 -9.81946,-7.8612 -14.13196,-7.6112 z"
         id="path2996-74"
         style="fill:#3771c8" />
      <path
         d="m -859.28485,319.89667 c -1.394,3.4479 1.5693,7.9048 1.375,11.7187 1.454,16.2111 0.7724,32.9123 -3.1875,48.5625 -1.5376,16.0441 0.545,32.9799 8.3125,47.0938 7.4548,9.2599 15.8228,19.0447 27.375,23 11.6171,2.3299 26.6024,1.924 34.125,-8.6563 6.5036,-6.4441 8.5359,-16.2713 14.9375,-22.5 4.5351,-0.7877 7.5532,4.8863 10.9894,7.1107 7.3046,5.9231 13.8413,15.3458 23.6669,16.5143 0,-6.8208 -0.6438,-15.3317 -8.176,-18.1851 -6.564,-4.5342 -16.8143,-9.3938 -16.0428,-18.8774 1.9184,-5.2781 8.9151,-2.3477 12.6563,-5.125 8.9415,-4.1531 18.7551,-9.6255 23.4063,-18.6875 2.2091,-7.8609 4.527,-16.5052 0.5,-24.2812 -6.5702,-15.0153 -18.8713,-27.9594 -34.2501,-33.9375 -25.0034,-2.9664 -50.3399,-0.7326 -75.4679,-1.9322 -6.7812,-0.2309 -13.7285,-0.1371 -20.2196,-1.8178 z m 215.3438,103.875 c 0.034,10.2035 4.1796,20.1685 1.4499,30.3958 -2.5109,20.1824 -10.4757,41.91254 -1.8561,61.63544 3.5426,5.9095 3.6286,13.699 9.8515,17.8122 3.2556,2.4952 5.7467,5.9579 7.8047,9.219 12.073,8.2551 28.719,9.8668 42.125,4.3438 8.2551,-5.6745 12.4443,-15.1602 17.8126,-23 4.5901,-5.183 10.8267,0.9648 14.2812,4.3437 4.1021,3.3786 7.2286,7.7965 10.625,11.6563 3.7582,2.2336 8.5464,2.9195 12.0625,5.3437 -0.8292,-4.9643 1.5133,-11.5638 -2.1563,-15.5312 -8.0228,-4.3352 -11.2822,-14.2861 -19.75,-17.9688 -4.0876,-3.6254 1.3017,-8.279 4.9688,-9.2187 5.2919,-1.5876 10.7753,-1.7558 15.4688,-5.2813 8.164,-4.364 16.499,-10.9409 16.7525,-20.85674 2.233,-7.4178 1.6918,-15.2716 -2.5025,-21.8932 -8.5976,-15.5553 -22.4894,-30.5637 -41.3006,-32.0294 -28.3443,-3.4252 -57.2141,-1.2632 -85.637,-4.4706 0,1.8333 0,3.6666 0,5.5 z m 121.125,196.56244 c -2.9623,9.651 3.8311,19.4272 1.0626,29.2813 -1.6199,13.4695 -6.4283,26.3757 -7.8934,39.6842 -0.9576,16.073 -0.4518,33.1089 9.0184,46.8158 5.7834,8.8082 12.7367,19.5583 24.5406,19.7393 7.1458,2.0555 14.8409,3.7931 21.7718,-0.021 4.8993,-2.0177 11.1211,-4.7573 12.1563,-10.5937 4.3821,-4.7234 8.0343,-10.1322 11.1875,-15.75 2.7228,-5.0876 8.4566,-0.6194 10.9062,2.3125 7.9639,7.7755 11.725,20.3359 23.4376,23.6562 3.4464,2.1529 0.076,-3.3664 0.75,-5.5 -0.083,-4.5131 2.1463,-9.9904 -3.0313,-12.7812 -6.2431,-6.7501 -13.2864,-13.7873 -16.4375,-22.5938 1.1635,-4.9365 8.2045,-3.788 11.9062,-5.4062 11.477,-3.6873 23.888,-10.7173 26.4376,-23.5625 2.4632,-8.2322 2.7101,-17.8636 -2.8438,-24.8125 -3.0892,-7.952 -7.4813,-15.3694 -14.3438,-20.7188 -7.0674,-6.1554 -16.101,-9.7779 -25.0624,-12.2187 -23.5808,-3.1569 -47.8123,0.278 -71.1563,-4.5313 -4.0831,-1.1582 -8.1902,-3.0739 -12.4063,-3 z"
         id="path3002-9"
         style="fill:#ffcc00" />
      <path
         d="m -859.79278,317.39258 c -1.5044,0.008 -2.8124,1.32667 -2.8562,2.82098 -0.4367,3.19059 1.0444,6.20989 1.413,9.33282 0.8689,5.7855 0.9367,11.6662 0.9652,17.51056 -0.029,7.4876 -0.4143,15.00145 -1.5865,22.39782 -0.61,3.23989 -1.7199,6.38094 -2.1235,9.66804 -1.2576,8.4672 -0.6996,17.11968 0.6675,25.53723 1.2072,7.11381 3.099,14.12508 6.0506,20.71705 2.5738,4.84756 6.3837,8.90096 10.1656,12.83732 4.4749,4.50965 9.29103,8.75334 14.73997,12.03734 3.21599,1.87148 6.8943,2.6867 10.55965,3.12009 5.98691,0.71887 12.11788,0.37187 17.99058,-0.97544 3.51451,-0.8434 6.87945,-2.42574 9.53314,-4.90113 5.07255,-4.42423 8.86031,-10.09655 12.1402,-15.9377 1.90332,-3.44801 3.4627,-7.1811 6.0965,-10.14911 0.28911,-0.32725 0.64179,0.19499 0.91282,0.29988 8.62757,6.40978 15.43466,15.10121 24.63603,20.79384 2.69917,1.59313 5.80806,2.96651 9.02143,2.56505 1.21275,-0.32677 1.67904,-1.70958 1.6099,-2.85032 0.0745,-2.93873 -0.4339,-5.848 -0.83865,-8.73861 -0.49215,-2.99637 -1.59257,-6.08936 -4.00559,-8.05888 -2.50257,-2.19563 -5.517,-3.6779 -8.20119,-5.62865 -3.06488,-2.07068 -6.29296,-4.03376 -8.6838,-6.88339 -1.30534,-1.70101 -2.36525,-3.69882 -2.62453,-5.85311 -0.0618,-0.96219 0.58051,-1.95226 1.56006,-2.10548 1.5999,-0.40772 3.30656,-0.0894 4.88374,-0.61029 5.8983,-1.36809 11.21971,-4.43239 16.22212,-7.74731 4.44198,-3.03507 8.69455,-6.51438 11.85383,-10.89851 1.11345,-1.608 1.78393,-3.48995 2.04825,-5.422 0.68358,-3.34178 1.77049,-6.61662 2.29342,-9.99138 0.60006,-5.69085 -1.19703,-11.3047 -3.57773,-16.39475 -4.15925,-8.70247 -10.44361,-16.30255 -17.73608,-22.55124 -4.7972,-4.05227 -10.1381,-7.57149 -16.03633,-9.79498 -4.31614,-1.27901 -8.87335,-1.27589 -13.3375,-1.52896 -15.14333,-0.56397 -30.30016,-0.28966 -45.44974,-0.44907 -10.60373,-0.0966 -21.2147,-0.25674 -31.7992,-0.93903 -1.3979,-0.0812 -2.729,-0.4444 -4.038,-0.91198 -0.8028,-0.21312 -1.6329,-0.34881 -2.469,-0.3167 z m 8.7445,7.18736 c 5.1704,0.0781 10.22317,1.38253 15.39717,1.43892 18.61128,0.89688 37.23445,-0.17662 55.84136,-0.65046 1.4287,-0.0118 2.8883,-0.1518 4.29772,-0.0834 6.62165,3.69259 13.45448,7.04977 19.79373,11.20057 6.06936,4.05063 11.60611,9.11674 15.178,15.55785 2.49048,4.38862 4.41396,9.26874 4.59961,14.3675 0.11905,4.22851 -1.2221,8.43639 -3.66105,11.86751 -4.26366,6.23178 -10.70867,10.61685 -17.43561,13.83202 -4.06599,1.89279 -8.30009,3.52387 -12.70814,4.40095 -1.59002,0.24753 -3.27505,0.47699 -4.85761,0.0888 -1.49246,-0.58592 -2.46388,-1.92445 -3.69175,-2.88976 -9.8547,-8.96303 -18.98243,-18.69983 -28.61272,-27.91419 -2.92419,-2.76264 -5.86994,-5.52843 -8.98985,-8.06234 -0.4712,-0.29518 -1.19979,-0.85561 -1.70377,-0.33137 -0.45581,0.54706 -0.0517,1.27212 0.34783,1.71691 2.8738,4.04105 7.54053,6.55665 9.91276,10.98633 0.73827,1.28325 0.89636,2.75596 0.93661,4.21362 0.15608,2.58532 1.65304,4.8322 3.22895,6.79039 3.43859,4.0759 7.60348,7.52191 10.71177,11.86138 3.71049,4.91007 6.52416,10.75842 6.78519,16.99786 0.29361,6.51521 -2.14998,12.81307 -5.48435,18.29251 -3.3632,5.57976 -8.20502,10.38377 -14.18737,13.0854 -5.03109,2.38276 -10.88887,3.39818 -16.34796,1.97573 -6.76778,-1.70387 -12.46693,-6.12144 -17.52557,-10.75739 -3.42705,-3.18189 -6.71225,-6.54723 -9.49665,-10.31813 -3.0939,-4.2986 -5.1607,-9.29768 -6.1419,-14.49594 -1.1522,-5.59096 -1.6797,-11.32155 -1.4501,-17.03051 0.1277,-1.55413 0.2325,-3.1762 0.9104,-4.59346 0.4943,-0.67459 0.6738,-1.48999 0.7082,-2.31421 0.3113,-3.25009 0.236,-6.52254 0.2816,-9.78367 0.01,-13.60313 -1.0575,-27.18595 -0.9287,-40.78988 0.088,-2.46372 0.048,-4.98969 0.6882,-7.37512 0.6777,-1.26725 2.3741,-1.21565 3.604,-1.2844 z m 203.58908,90.87863 c 0,6.07273 -0.18369,12.20286 0.81413,18.20704 0.42517,3.12178 1.47291,6.14725 1.52458,9.31362 0.17637,5.33175 -0.89791,10.58551 -1.72514,15.82664 -1.65755,9.81242 -3.55368,19.6028 -4.61781,29.49916 -0.44721,5.61167 -0.38211,11.28751 0.3739,16.86504 0.78215,5.08095 2.68271,9.90564 4.90545,14.5127 1.19267,2.72759 2.48531,5.43866 3.19388,8.33678 0.29207,1.45248 1.48326,2.48914 2.35181,3.61858 3.01684,3.42535 6.90875,6.08602 9.44532,9.91161 0.30014,0.65771 0.39272,1.42292 0.94421,1.94417 1.83122,1.81753 4.20487,2.98043 6.49788,4.12694 5.08968,2.37653 10.50194,4.24787 16.14243,4.62587 6.86924,0.38889 13.88294,0.0188 20.48174,-2.01814 2.21186,-0.73572 4.16732,-2.08904 5.81263,-3.72878 4.05437,-3.75376 7.45043,-8.19238 10.38429,-12.86187 1.59096,-2.61787 2.76864,-5.51034 4.69286,-7.91745 0.77355,-0.95468 2.02305,-1.78782 3.29312,-1.32247 1.97287,0.58084 3.48165,2.08748 5.04964,3.33417 3.55126,3.1398 6.97338,6.42841 9.99902,10.07905 0.72786,0.81668 1.19106,1.8198 1.83036,2.68869 1.4979,1.69161 3.6595,2.6256 5.75928,3.35043 3.24602,0.97464 6.54801,2.19076 9.11133,4.45871 0.49572,0.60887 1.57987,1.00051 2.16381,0.30484 0.73088,-1.29486 0.44157,-2.8744 0.55424,-4.30478 -0.0289,-3.91301 -0.0544,-7.84147 -0.45903,-11.73458 -0.24349,-1.90581 -1.00434,-3.88734 -2.66403,-4.96847 -1.44597,-1.03175 -3.02565,-1.92637 -4.26004,-3.2166 -2.66746,-2.42269 -4.82542,-5.31194 -7.04977,-8.14743 -1.73065,-2.00203 -3.57169,-4.04638 -5.98578,-5.21842 -1.15014,-0.46454 -2.51823,-1.04028 -2.9381,-2.31996 0.007,-0.93668 0.94757,-1.52518 1.58196,-2.0772 1.70895,-1.23648 3.70096,-2.08776 5.74397,-2.59671 1.57604,-0.40482 3.23937,-0.23409 4.79015,-0.76817 3.54588,-1.05688 6.80151,-2.90336 9.99909,-4.73755 4.49338,-2.67834 8.85164,-5.75175 12.14322,-9.84664 1.53889,-1.92979 2.59879,-4.20144 3.16808,-6.60008 1.25038,-4.63233 1.827,-9.41468 2.57467,-14.14601 0.28495,-3.42816 -0.79101,-6.79133 -2.02043,-9.9409 -2.59469,-6.37752 -6.44548,-12.18469 -10.78043,-17.52088 -4.20279,-5.07122 -8.95908,-9.70994 -14.35964,-13.47675 -5.04742,-3.3828 -10.92179,-5.37175 -16.89292,-6.39607 -8.83639,-1.6206 -17.84338,-1.93343 -26.80192,-2.32428 -13.85532,-0.48829 -27.72166,-0.61442 -41.57282,-1.23185 -6.58456,-0.23449 -13.17665,-0.53216 -19.71411,-1.39307 -1.16169,-0.13319 -2.32332,-0.26765 -3.48508,-0.40006 0,0.0704 0,0.14076 0,0.21113 z m -115.46993,5.76221 c 2.15629,0.33726 3.91408,1.76927 5.72831,2.8944 3.30018,2.26417 6.59988,4.59725 9.32331,7.52829 0.76259,0.91126 1.57443,2.07555 1.34646,3.31864 -0.38116,0.52587 -1.13878,0.14439 -1.64753,0.0688 -1.9128,-0.61579 -3.56107,-1.8388 -5.18301,-3.01661 -3.31804,-2.55264 -6.23572,-5.57723 -8.73876,-8.91667 -0.37209,-0.55099 -0.83066,-1.22371 -0.82878,-1.87687 z m 124.08245,0.82695 c 4.91607,0.0605 9.7173,1.26053 14.6245,1.45612 15.09092,1.10573 30.22659,1.29154 45.34641,1.71089 5.05427,0.20421 10.13004,0.37621 15.14595,1.01755 3.4621,0.48768 6.8306,1.52033 9.95629,3.09529 7.38606,3.36887 14.66992,7.41735 20.32392,13.33799 4.0201,4.24482 7.1826,9.34475 9.25323,14.79862 1.89505,5.86582 1.02832,12.35098 -1.35466,17.93738 -3.22473,7.63876 -9.446,14.01275 -17.14455,17.13864 -5.27619,2.30329 -10.78795,4.18464 -16.51539,4.92936 -1.09101,0.13095 -2.29194,0.10529 -3.14356,-0.67739 -1.87604,-1.46156 -3.51135,-3.23957 -5.16688,-4.94113 -6.1995,-6.63441 -11.73874,-13.87978 -18.06664,-20.40669 -4.0584,-4.17047 -8.22592,-8.27183 -12.53614,-12.16956 -1.42931,-1.22139 -2.80258,-2.53501 -4.35168,-3.60395 -0.40065,-0.34212 -1.23298,-0.35795 -1.31374,0.29031 -0.0899,0.84211 0.66812,1.44457 1.03807,2.12894 3.24192,4.60967 7.91442,8.21034 10.21658,13.45686 0.32378,0.67316 0.2918,1.42124 0.34306,2.1407 0.3293,1.44966 1.1498,2.72826 1.86503,4.0115 2.94313,4.83255 7.03587,8.83491 10.16128,13.53765 2.93199,4.10483 5.74545,8.48742 6.86555,13.47033 2.08822,8.61279 -0.0665,18.02082 -5.37335,25.06012 -4.30109,5.76681 -10.57188,10.02489 -17.47135,12.07865 -3.60784,1.03726 -7.43269,1.1668 -11.14843,0.6604 -2.73552,-0.33185 -5.57787,-0.68976 -8.02965,-1.99759 -3.95984,-2.01512 -7.37329,-4.93837 -10.63356,-7.9235 -4.40623,-4.15166 -8.43017,-8.78922 -11.48759,-14.03713 -1.75107,-3.16909 -3.31395,-6.49171 -4.16214,-10.03209 -1.10371,-5.16432 -0.76521,-10.51537 -0.80297,-15.77638 0.2019,-19.96506 0.39245,-39.93897 1.42178,-59.88207 0.22011,-3.51744 0.3948,-7.07612 1.09081,-10.52245 0.11791,-0.47893 0.7083,-0.18386 1.04982,-0.28737 z m 77.43641,84.7645 c 1.11413,0.31579 1.3939,1.61253 1.79394,2.54511 0.2398,0.65408 0.49485,1.3083 0.58716,1.99141 -0.89488,0.35563 -2.21507,0.46703 -2.81218,-0.46045 -0.70488,-1.08832 -0.63755,-2.57474 -0.0967,-3.71533 0.11717,-0.17993 0.30087,-0.35583 0.52783,-0.36074 z m 12.16076,15.56534 c 2.28576,1.10506 4.31029,2.64784 6.40429,4.07225 1.82512,1.32825 3.69639,2.68022 5.19638,4.38776 0.755,1.13206 1.21699,2.54161 1.11137,3.91186 -0.0845,0.34998 -0.37062,0.92646 -0.79471,0.78295 -1.73085,-1.06642 -3.01765,-2.70442 -4.46012,-4.1186 -2.7155,-2.86802 -5.34332,-5.83467 -7.58333,-9.09487 l 0.0851,0.0396 0.041,0.0188 z m 24.89624,94.6849 c -1.48742,0.17073 -2.32554,1.69282 -2.59523,3.02921 -0.90557,3.72144 -0.37868,7.60636 0.16858,11.33823 0.59939,3.58767 1.86851,7.07873 1.77566,10.75752 -0.0349,4.96155 -1.15941,9.82124 -2.04523,14.68201 -1.58209,8.03819 -3.26732,16.05609 -5.42952,23.95849 -0.81379,3.48481 -0.92969,7.09076 -1.13649,10.65606 -0.25868,6.80494 -0.0585,13.6299 0.5705,20.40999 0.43713,4.38312 1.38966,8.72438 3.0507,12.81356 2.96074,7.57969 7.25766,14.61153 12.35641,20.94185 2.82495,3.4283 5.9722,6.68097 9.75896,9.03742 1.69067,1.02429 3.62026,1.61172 5.58036,1.83277 5.07973,0.91417 10.06339,2.27011 15.13641,3.2084 2.45984,0.37296 4.98473,0.0383 7.31638,-0.7712 5.66683,-1.65546 11.37807,-3.91979 15.70355,-8.04511 1.16922,-1.10693 2.20768,-2.50237 2.34038,-4.15999 0.56687,-2.17241 2.53355,-3.50275 3.91596,-5.11648 2.5394,-2.79176 4.39367,-6.11666 6.16282,-9.43417 0.74035,-1.24441 1.5358,-2.55445 2.66262,-3.45733 0.93923,-0.0511 1.70693,0.66167 2.46912,1.11137 2.87306,2.05268 5.08921,4.84067 7.31161,7.55228 2.83133,3.58902 5.1095,7.63022 8.0179,11.17603 2.41006,2.90041 5.40701,5.34218 8.90842,6.81677 2.42444,1.11762 4.85707,2.28945 7.42926,3.0079 0.7122,0.16589 1.72695,-0.082 1.81221,-0.92955 0.1675,-1.41157 -0.68889,-2.66498 -1.01986,-3.98947 -1.04136,-3.40902 -0.79921,-7.06079 -0.23522,-10.52894 0.29704,-1.96366 -0.19579,-4.03898 -1.47204,-5.56578 -1.84615,-2.25673 -4.15227,-4.06223 -6.03153,-6.27112 -3.82412,-4.30311 -7.44787,-8.83821 -10.51813,-13.71127 -0.66886,-1.20309 -1.57907,-2.35934 -1.84252,-3.72327 0.041,-0.34978 0.56244,-0.42846 0.82696,-0.58353 3.5133,-1.45363 7.46279,-1.48017 10.9912,-2.91102 5.81519,-2.06572 11.31069,-5.01067 16.29313,-8.63731 2.62157,-1.96339 4.81535,-4.46368 6.38018,-7.34722 3.40143,-5.94002 5.09223,-12.77527 5.36502,-19.59808 0.0941,-3.81518 -0.32809,-7.75337 -2.07062,-11.19337 -1.08893,-1.91891 -2.40321,-3.70277 -3.31523,-5.71165 -1.16445,-2.25673 -1.98798,-4.67828 -3.05218,-6.98675 -2.49163,-4.69011 -6.2161,-8.57006 -10.04572,-12.18918 -3.5856,-3.32241 -7.57002,-6.31029 -12.14853,-8.10201 -3.19126,-1.35104 -6.38078,-2.7196 -9.53993,-4.13171 -4.36249,-1.79313 -9.14391,-2.10872 -13.80661,-2.4546 -17.572,-1.07684 -35.20796,-0.5744 -52.76572,-1.93262 -4.67526,-0.4075 -9.33204,-1.26839 -13.7335,-2.90914 -3.0884,-0.95898 -6.23834,-1.92059 -9.50049,-1.93799 z m 7.68585,7.92048 c 4.41444,0.20156 8.68663,1.52021 13.08158,1.90587 11.00706,1.38181 22.09427,1.92328 33.16737,2.46455 10.42158,0.62922 20.90336,1.67193 30.93228,4.68319 7.13255,2.19277 13.91196,5.72549 19.38186,10.83673 4.50507,4.12989 8.39349,8.96069 11.45373,14.26585 2.67673,4.82348 4.25231,10.49064 3.35608,16.03022 -0.84389,5.51902 -3.52479,10.5794 -6.8849,14.98665 -4.60894,5.62497 -11.04965,9.52762 -17.85668,11.94366 -4.19533,1.43421 -8.65733,2.09246 -13.09501,1.94129 -1.50664,-0.0868 -2.93877,-0.73511 -4.0203,-1.78877 -2.82751,-2.46764 -4.99985,-5.58291 -7.37968,-8.49232 -7.60737,-9.74263 -14.91563,-19.81899 -23.82424,-28.44441 -2.60088,-2.53785 -5.23501,-5.07557 -8.07004,-7.3399 -0.5529,-0.27177 -1.2391,0.42672 -0.82568,0.94441 1.26892,2.22388 3.09054,4.06787 4.67593,6.07131 2.84645,3.3853 5.93888,6.6369 8.0437,10.5407 0.68794,1.41748 0.78147,3.10029 0.25511,4.58926 -0.31209,1.29788 -0.37908,2.96322 0.77415,3.87369 0.90712,0.66517 2.18901,0.70508 2.87944,1.66655 2.71281,2.73264 4.50346,6.18029 6.37823,9.50895 2.96114,5.5635 5.54669,11.40106 7.14988,17.51879 0.62244,2.56298 0.61149,5.27109 -0.0242,7.83683 -1.35896,6.20172 -4.73278,11.75937 -8.72957,16.63075 -3.54151,4.22214 -7.83487,7.99996 -12.90655,10.31266 -3.21336,1.3511 -6.67634,2.10549 -10.14791,2.42048 -3.14934,0.17946 -6.29055,-0.66907 -9.00947,-2.23201 -7.00993,-3.71399 -12.7885,-9.34454 -17.56481,-15.60243 -3.83896,-5.13531 -7.04125,-10.89687 -8.36869,-17.22323 -1.235,-5.6929 -1.53869,-11.55572 -1.63094,-17.3746 -0.0874,-9.52736 0.93614,-19.02899 2.18941,-28.45113 1.18091,-10.73199 1.65949,-21.52686 1.86664,-32.31737 0.11737,-3.1959 0.12933,-6.48411 1.11143,-9.53919 0.41973,-1.11062 1.43771,-2.05335 2.66262,-2.10549 0.32446,-0.0443 0.65214,-0.0598 0.97941,-0.0618 z m 67.20525,84.98741 c 2.54135,1.20799 4.85324,3.28822 5.70647,6.05545 0.42417,1.03491 1.19489,2.0461 2.34005,2.28724 1.13542,1.00091 1.78037,2.44245 2.42511,3.7711 0.32506,0.77852 0.57769,1.58304 0.61874,2.43391 -2.26587,-1.24574 -3.88042,-3.3212 -5.60979,-5.192 -1.98408,-2.33501 -3.96783,-4.75663 -5.13053,-7.62324 -0.20559,-0.57486 -0.35267,-1.16612 -0.44096,-1.77351 l 0.0855,0.0383 0.007,0 z m 13.40113,17.15463 c 1.8151,0.30228 3.14712,1.71485 4.52798,2.79814 3.75047,3.2952 7.25349,6.99475 9.80048,11.3395 0.6303,1.07919 1.12461,2.54699 0.36296,3.69733 -0.45931,0.6555 -1.35057,0.57883 -1.99108,0.26688 -2.22717,-0.97263 -3.67408,-3.0458 -5.20779,-4.84485 -2.77456,-3.43657 -5.51022,-6.99468 -7.26156,-11.06927 -0.19995,-0.67928 -0.58992,-1.44785 -0.3307,-2.14668 0.0242,-0.0329 0.0584,-0.0444 0.0997,-0.041 z"
         id="path3002"
         style="fill:#000000" />
      <path
         d="m -632.20624,935.63947 c -22.052,-3.2497 -44.2018,-8.3051 -59.388,-13.5546 -76.2414,-26.3545 -128.7138,-65.5799 -174.9909,-130.81314 -25.3546,-35.74045 -46.9603,-86.72887 -54.1566,-127.80717 -7.2013,-41.10622 -13.6523,-116.74591 -13.6635,-160.20558 0,-8.72858 -1.0241,-27.33432 -2.2708,-41.34609 -1.2467,-14.01176 -2.938,-39.68396 -3.7586,-57.04931 -2.7606,-58.42008 -4.3584,-88.50396 -6.788,-127.797 -1.3292,-21.49997 -2.542,-49.57772 -2.6947,-62.39501 l -0.2779,-23.30415 15.2166,-0.92516 c 20.9479,-1.27363 627.7327,-0.0197 675.3248,1.39563 l 9.4586,0.28127 -0.8284,28.94226 c -0.4556,15.91825 -1.4741,47.20972 -2.2634,69.53661 -1.5914,45.01829 -2.1971,77.42512 -5.3117,284.16038 -0.3114,20.67304 -1.5957,46.04451 -2.854,56.38103 -1.2582,10.33652 -2.6856,22.17654 -3.1718,26.31115 -0.4863,4.13461 -1.4853,9.88547 -2.2199,12.7797 -0.7346,2.89422 -2.1018,9.65995 -3.0381,15.03494 -0.9363,5.37499 -3.3285,14.17043 -5.3161,19.54542 -8.162,22.07293 -14.5692,38.42745 -15.6091,39.84259 -0.6077,0.82693 -2.0215,3.8715 -3.1419,6.76573 -1.1204,2.89422 -4.6167,9.39478 -7.7695,14.44566 -3.1528,5.0509 -5.7324,9.62541 -5.7324,10.16559 0,1.36191 -13.0726,20.06425 -25.4858,36.46132 -8.9175,11.77948 -40.3112,43.10273 -53.4476,53.32773 -11.4366,8.9019 -33.0484,23.9212 -34.421,23.9212 -0.469,0 -4.4179,2.2534 -8.7753,5.0075 -8.9213,5.6389 -34.8743,17.7926 -44.0064,20.6081 -3.3077,1.0198 -8.3819,3.0166 -11.2762,4.4373 -9.9534,4.886 -46.262,13.3531 -70.5274,16.4469 -16.6295,2.1203 -60.6888,1.7757 -76.815,-0.6008 z m 74.423,-12.7063 c 8.6702,-1.4042 17.878,-3.1039 32.3251,-5.967 10.7444,-2.1292 30.1736,-7.6618 34.4369,-9.8061 2.1462,-1.0795 5.9084,-2.4454 8.3605,-3.0353 7.9669,-1.9168 35.6796,-15.031 49.8564,-23.593 21.479,-12.9722 41.1572,-28.0445 41.1572,-31.5241 0,-0.9485 -5.0025,-3.0613 -25.5595,-10.7952 -4.548,-1.7111 -10.065,-4.3487 -12.26,-5.8614 -2.1949,-1.5127 -4.6241,-2.7504 -5.3981,-2.7504 -0.774,0 -7.0359,-3.38287 -13.9152,-7.51748 -6.8794,-4.13461 -12.777,-7.51747 -13.1059,-7.51747 -0.329,0 -5.1261,-3.14427 -10.6604,-6.98728 -45.0449,-31.27922 -74.6137,-65.6263 -101.2914,-117.65997 -3.9874,-7.77725 -7.2498,-14.64494 -7.2498,-15.26154 0,-0.61659 -2.6153,-6.76997 -5.8117,-13.6742 -3.1965,-6.90421 -6.6165,-15.04383 -7.6,-18.08806 -2.9339,-9.08068 -26.4827,-55.88457 -32.493,-64.58081 -7.3008,-10.56334 -15.7496,-19.3746 -27.7665,-28.95773 -9.1878,-7.327 -27.8593,-20.45429 -29.0929,-20.45429 -0.3083,0 -5.433,-2.67828 -11.3882,-5.95173 -5.9552,-3.27344 -15.3518,-7.59072 -20.8812,-9.59395 -5.5295,-2.00322 -13.7748,-5.03027 -18.3229,-6.72673 -24.7963,-9.24931 -43.4511,-15.74404 -48.1118,-16.75033 -2.8942,-0.62488 -7.6302,-2.21201 -10.5245,-3.52697 -2.8942,-1.31495 -9.9982,-4.19962 -15.7866,-6.41037 -13.8109,-5.27469 -31.5741,-13.6887 -39.0908,-18.51633 -3.3077,-2.12436 -7.7032,-4.77197 -9.7677,-5.88356 -2.0644,-1.11159 -7.2012,-4.68093 -11.4151,-7.93188 -4.2138,-3.25095 -8.3328,-5.91081 -9.1534,-5.91081 -0.8206,0 -3.1891,-1.86057 -5.2631,-4.13461 -2.0743,-2.27403 -6.8976,-6.80863 -10.7186,-10.07688 -3.821,-3.26826 -11.1585,-11.55628 -16.3054,-18.4178 -5.1469,-6.86154 -10.2457,-12.47553 -11.3306,-12.47553 -2.4319,0 -2.7087,22.76765 -0.5117,42.09784 0.7988,7.02883 1.7662,27.326 2.1497,45.10482 0.3834,17.77882 1.7358,50.59257 3.0052,72.91946 4.8802,85.83555 9.9728,116.25684 26.4275,157.86688 10.5107,26.57865 26.8739,57.32274 38.9266,73.13686 3.3752,4.42851 8.6908,11.37237 11.8123,15.43079 16.3065,21.2001 64.962,64.95856 81.4543,73.25586 2.1486,1.081 6.6128,3.7156 9.9205,5.8548 19.1361,12.3757 54.5593,26.5637 80.7429,32.3399 6.0337,1.331 13.3383,2.9949 16.2325,3.6975 2.8942,0.7027 11.3514,2.0317 18.7937,2.9535 7.4423,0.9219 17.5908,2.248 22.5524,2.947 10.6701,1.5033 39.8578,0.8009 52.6223,-1.2664 z m -49.4682,-43.8876 c -1.1481,-7.1801 -6.9328,-16.1681 -19.2432,-29.8995 -5.594,-6.2398 -9.9766,-12.9555 -12.1228,-18.5768 -2.7698,-7.25428 -5.2141,-10.38983 -13.886,-17.81252 -5.7884,-4.95466 -11.8226,-10.80312 -13.4092,-12.99658 -1.5867,-2.19347 -4.7397,-6.01784 -7.0066,-8.49861 -2.267,-2.48076 -5.3665,-6.5772 -6.8879,-9.10319 -1.5214,-2.52599 -4.7959,-7.93857 -7.2766,-12.02795 -4.9793,-8.20801 -16.5395,-19.98899 -25.0405,-25.51866 -8.1804,-5.32113 -20.1662,-17.84156 -24.8071,-25.91363 -8.4942,-14.77416 -24.5735,-32.32914 -32.735,-35.73926 -5.8221,-2.4326 -27.1482,-23.38358 -30.5307,-29.99352 -5.4342,-10.61953 -17.7797,-21.95468 -31.0346,-28.49482 -7.9317,-3.91364 -10.2142,-3.7053 -15.9742,1.45818 -5.3884,4.83029 -9.2824,5.57624 -15.515,2.9721 -7.1365,-2.98177 -10.5054,-8.35455 -10.6663,-17.01021 -0.1142,-6.14124 -0.7105,-7.3703 -4.8713,-10.03723 -5.4963,-3.52291 -9.5418,-9.5943 -9.5418,-14.32001 0,-5.30839 4.3486,-12.9703 8.4124,-14.82187 5.2894,-2.40999 13.4269,-2.12729 15.6435,0.54343 2.1388,2.57709 6.883,2.99461 8.2832,0.72897 1.7067,-2.76134 11.8017,-6.11244 15.7047,-5.21317 9.4777,2.18381 16.419,13.35686 13.3883,21.55003 -0.9786,2.64553 -0.4418,4.21855 2.415,7.07532 2.0204,2.02043 5.0255,3.67349 6.6781,3.67349 1.6525,0 4.678,0.76243 6.7232,1.69432 5.8383,2.66013 10.3705,0.58123 23.6287,-10.83848 15.1074,-13.01237 16.2997,-13.77093 28.085,-17.86822 6.5621,-2.28137 10.9106,-2.95636 14.2832,-2.21708 8.9433,1.96036 20.1038,8.25005 28.6393,16.14014 4.6571,4.3049 10.6814,9.64146 13.3874,11.85902 6.066,4.97108 4.6518,6.98882 -5.7196,8.16034 -6.3488,0.71713 -9.0466,0.0695 -18.9559,-4.55045 -17.4939,-8.1562 -26.2808,-6.85407 -38.5564,5.71366 -14.7087,15.0588 -17.2033,24.6662 -8.9915,34.62861 7.8714,9.54935 16.9082,14.4166 26.6948,14.3779 9.4277,-0.0373 16.6899,-2.88136 29.7,-11.63142 29.1622,-19.6133 43.3471,-20.30753 60.1398,-2.94341 4.7963,4.95956 11.5961,11.96278 15.1105,15.56273 7.2316,7.40762 7.8649,9.47072 3.007,9.7963 -7.6606,0.51343 -12.6211,-0.73531 -21.6764,-5.45672 -12.2482,-6.38624 -15.8685,-7.22892 -22.9105,-5.33273 -8.1773,2.20191 -26.5467,14.90997 -30.9774,21.43025 -6.6336,9.76226 -4.1714,21.43113 7.1028,33.66228 6.9277,7.5156 19.6964,14.10646 27.329,14.10646 4.361,0 19.7805,-5.42677 28.7626,-10.12278 1.6352,-0.85489 4.6645,-2.22561 6.7318,-3.04605 2.0673,-0.82043 5.6511,-2.25252 7.964,-3.1824 5.9376,-2.3871 20.7614,-2.09902 27.0429,0.52556 4.8322,2.01901 14.6084,11.84266 14.6084,14.67927 0,0.64651 3.7211,6.20721 8.2692,12.35712 4.5481,6.1499 8.2692,11.94798 8.2692,12.88462 0,4.08295 -18.6178,-3.96472 -27.8146,-12.02309 -5.064,-4.43707 -11.9516,-6.04415 -18.349,-4.28131 -7.8594,2.1657 -26.1782,12.40082 -30.5788,17.08508 -7.4574,7.93807 -2.5776,22.38874 10.651,31.54063 5.5567,3.84424 7.7561,4.44944 15.6068,4.29449 5.2955,-0.10449 12.5817,-1.51342 17.3263,-3.3503 12.9231,-5.00319 29.9142,-7.12017 38.301,-4.77203 7.5279,2.10769 9.707,4.28734 22.4086,22.41382 4.2794,6.10727 8.4335,11.99482 9.2311,13.08345 4.9507,6.75653 -8.8741,2.75574 -22.3906,-6.47962 -9.5736,-6.54139 -11.1668,-7.12979 -18.8154,-6.94921 -10.7164,0.25301 -20.581,3.90035 -26.7683,9.89731 -7.1058,6.88716 -6.6923,12.77621 1.784,25.41145 11.548,17.214 13.5257,28.2418 7.6058,42.4101 -2.9821,7.1372 -4.6446,6.9406 -5.8654,-0.6936 z m 225.0494,-42.4589 c 6.0044,-2.5256 28.1422,-23.91407 28.1422,-27.18965 0,-1.32154 4.0594,-6.60312 9.021,-11.73683 4.9615,-5.13372 9.0209,-9.90548 9.0209,-10.6039 0,-0.69843 2.9366,-5.45054 6.5256,-10.56026 12.0915,-17.21437 36.5447,-70.68622 34.1198,-74.60975 -0.5918,-0.95765 -5.4123,-2.75227 -10.7121,-3.98803 -9.6847,-2.25819 -20.5839,-5.57977 -26.1745,-7.97679 -1.6539,-0.70909 -5.9263,-2.50765 -9.4944,-3.9968 -13.4574,-5.61657 -38.1941,-22.68845 -50.3298,-34.73494 -15,-14.88961 -18.3853,-18.74878 -25.3256,-28.87051 -15.363,-22.40536 -20.1189,-30.63305 -25.4484,-44.02648 -1.7607,-4.42464 -4.5454,-11.42766 -6.1882,-15.56227 -1.6428,-4.13461 -3.8816,-9.54719 -4.9751,-12.02795 -2.6166,-5.93604 -9.7943,-27.42856 -9.7943,-29.32743 0,-5.01288 -20.2482,-44.71438 -32.1815,-63.09971 -9.0875,-14.00084 -30.9689,-39.1286 -34.0735,-39.1286 -0.6321,0 -4.4198,-3.08687 -8.4173,-6.85972 -3.9974,-3.77285 -9.1287,-7.84965 -11.4027,-9.05957 -2.274,-1.20993 -4.1346,-2.79805 -4.1346,-3.52917 0,-1.69775 -28.9326,-19.63332 -31.7299,-19.66963 -1.1543,-0.015 -5.6057,-1.96095 -9.892,-4.32436 -4.2862,-2.36344 -10.3754,-4.76924 -13.5314,-5.34622 -3.156,-0.57699 -7.1816,-1.9778 -8.9458,-3.11291 -3.1174,-2.00584 -9.0687,-3.76311 -40.3937,-11.92743 -8.2693,-2.15521 -17.403,-4.68717 -20.2972,-5.62655 -2.8942,-0.93939 -8.9834,-2.55567 -13.5315,-3.59176 -10.9685,-2.4987 -34.7196,-11.08691 -37.7057,-13.6341 -1.3055,-1.1136 -3.1795,-2.02473 -4.1645,-2.02473 -0.9849,0 -4.5166,-1.72069 -7.848,-3.82373 -3.3315,-2.10306 -7.6304,-4.42188 -9.5533,-5.15294 -1.9228,-0.73106 -9.068,-5.60695 -15.8781,-10.83534 -6.8102,-5.22837 -14.0652,-10.61912 -16.1222,-11.97943 -2.0571,-1.36032 -5.0177,-4.57404 -6.5791,-7.1416 -1.5614,-2.56756 -3.4742,-4.66829 -4.2507,-4.66829 -0.7764,0 -5.0923,-4.43424 -9.5908,-9.85387 -9.3475,-11.26146 -22.2006,-34.91107 -28.0722,-51.65257 l -4.0027,-11.41302 -39.7508,-0.3187 c -41.8962,-0.33589 -51.6927,0.71164 -52.9884,5.66601 -1.1516,4.40432 4.0147,138.39901 5.7647,149.51258 1.2317,7.82211 2.8852,11.26257 11.8196,24.59325 8.1482,12.15738 32.8817,37.29365 43.2142,43.91785 3.6108,2.31481 7.7954,5.31505 9.2994,6.66717 1.5039,1.35212 8.608,5.55016 15.7867,9.32897 7.1787,3.77879 14.0671,7.71641 15.3075,8.75026 1.2404,1.03385 4.6233,2.37666 7.5175,2.98404 2.8942,0.60737 8.3068,2.62477 12.0279,4.48309 3.7211,1.85834 8.4572,3.87995 10.5245,4.49247 2.0673,0.61254 5.7884,2.01004 8.2692,3.10554 2.4807,1.09551 6.8785,2.6781 9.7727,3.51687 8.2262,2.384 30.5371,10.52173 33.4323,12.19417 1.4359,0.82944 3.9331,1.50808 5.5494,1.50808 1.6163,0 3.3086,0.59857 3.7607,1.33014 0.4522,0.73158 2.691,1.66814 4.9751,2.08124 11.5343,2.08602 50.4209,20.24252 64.1229,29.93953 3.8766,2.7435 9.2219,6.52431 11.8784,8.40178 18.5728,13.12644 30.4353,25.70817 41.315,43.81985 4.7607,7.92539 9.7426,16.77782 11.0707,19.67204 1.3281,2.89423 5.8868,12.57386 10.1305,21.5103 4.2436,8.93644 7.7157,16.80016 7.7157,17.47493 0,1.54272 4.5916,12.2491 12.1727,28.38358 3.2281,6.87018 5.8693,13.38392 5.8693,14.47496 0,1.09104 0.9713,2.78987 2.1586,3.77519 1.1872,0.98531 2.5838,3.7277 3.1036,6.09418 0.5198,2.36649 1.9164,5.10888 3.1036,6.09419 1.1873,0.98532 2.1586,2.56868 2.1586,3.5186 0,1.93082 13.915,22.80089 23.6641,35.49204 11.5171,14.99263 14.6108,18.58594 20.6465,23.98074 3.2843,2.93556 10.7266,9.98245 16.5384,15.65975 5.8119,5.6773 12.9449,11.84358 15.8513,13.70285 2.9063,1.85925 6.2029,4.48734 7.3257,5.84018 1.1227,1.35286 2.7284,2.45973 3.5682,2.45973 0.8397,0 7.0152,3.63905 13.7232,8.08676 15.3563,10.18187 51.6083,28.68513 61.06,31.16543 5.9141,1.552 7.2982,1.475 12.4521,-0.6928 z m 96.4017,-150.19382 c 2.2282,-5.29245 6.4044,-29.22009 8.463,-48.48769 3.0997,-29.01277 4.4199,-73.01983 5.1419,-171.39832 0.4249,-57.88453 1.5649,-138.25937 2.5335,-178.61076 1.1513,-47.96695 1.2503,-73.87683 0.286,-74.8412 -0.8113,-0.81127 -8.8645,-1.39103 -17.8959,-1.28836 -9.0315,0.10269 -19.1272,0.12991 -22.4349,0.0604 -80.6148,-1.69198 -509.6637,-2.32082 -512.2042,-0.75071 -4.7829,2.95604 8.9571,37.18335 21.4265,53.37492 10.4826,13.61159 25.5431,28.87541 31.8361,32.26576 2.2741,1.22514 4.1346,2.86783 4.1346,3.65043 0,0.78259 4.2286,4.1915 9.3969,7.57535 17.4886,11.45042 46.6119,24.03417 69.5366,30.04575 11.1534,2.92478 20.1851,5.37935 42.0978,11.44101 7.4423,2.05873 17.1703,4.73163 21.6178,5.93977 12.5561,3.41076 37.9555,13.70154 45.3648,18.37992 3.6787,2.32282 7.7035,4.64065 8.9439,5.15071 9.2513,3.80434 42.2533,30.01411 55.6293,44.18012 19.3067,20.44692 40.8714,53.96408 51.6403,80.26244 1.5237,3.72114 3.6309,8.79544 4.6825,11.2762 1.0517,2.48077 3.1097,8.23163 4.5734,12.7797 1.4637,4.54807 3.1795,9.62236 3.8128,11.27621 0.6333,1.65384 2.6333,7.06642 4.4443,12.02795 12.6215,34.57855 22.3412,52.74245 39.8037,74.38393 17.306,21.4476 32.7959,34.52908 54.734,46.22386 5.2706,2.80965 11.0214,5.99359 12.7797,7.07541 1.7582,1.08182 9.2859,3.79139 16.7282,6.02128 7.4423,2.2299 15.2229,4.61639 17.2902,5.30334 2.0673,0.68694 5.9685,1.32097 8.6694,1.40894 4.1812,0.13621 5.2163,-0.56592 6.9678,-4.72642 z m -75.1744,-166.1361 c -1.7477,-7.54096 -7.8354,-16.30327 -17.8082,-25.63238 -5.4202,-5.07029 -12.5352,-13.47096 -15.8111,-18.66813 -9.4927,-15.05992 -10.0912,-15.71218 -19.1997,-20.92351 -9.8861,-5.65625 -28.5249,-24.01162 -35.6767,-35.13421 -5.6744,-8.82482 -13.8729,-16.2799 -24.8016,-22.55241 -13.3468,-7.66041 -23.3782,-16.64037 -36.4087,-32.59224 -10.9171,-13.3648 -18.9747,-20.42275 -28.3089,-24.79691 -8.4867,-3.97705 -22.9952,-14.85489 -28.6335,-21.46828 -16.834,-19.74502 -19.779,-22.41873 -30.5617,-27.74659 -6.0179,-2.97346 -12.2868,-5.40629 -13.931,-5.40629 -1.6441,0 -4.934,2.02971 -7.3107,4.51048 -3.7117,3.87423 -5.4192,4.51048 -12.1042,4.51048 -10.2568,0 -15.2153,-4.56587 -16.6425,-15.32448 -0.8723,-6.57579 -1.6781,-7.88882 -6.8417,-11.14849 -8.1806,-5.16415 -11.0519,-11.64107 -8.8258,-19.90838 2.7115,-10.0698 12.8698,-14.7418 23.3715,-10.74905 3.2389,1.23142 5.1304,0.8204 10.3786,-2.25524 15.2752,-8.95188 28.8517,-1.06635 28.192,16.37448 -0.2366,6.25652 -0.1536,6.36342 6.903,8.89266 14.1031,5.05483 16.7781,4.00494 34.9571,-13.72023 12.9788,-12.65468 25.8758,-19.8155 35.6922,-19.81731 8.3802,-10e-4 24.4379,6.52403 29.7833,12.10345 2.3363,2.43858 4.7639,4.43379 5.3947,4.43379 0.6307,0 4.2253,2.07765 7.9879,4.61701 8.6371,5.82909 8.8572,9.28477 0.7967,12.50992 -7.4195,2.9687 -11.9187,3.04742 -18.3364,0.32085 -10.6043,-4.50528 -20.656,-5.91706 -27.2874,-3.83259 -7.5612,2.3768 -10.7603,4.93766 -15.5131,12.41813 -13.536,21.30477 -12.9251,26.5155 4.4858,38.25943 5.6107,3.7845 8.7897,4.86472 14.2832,4.85329 7.886,-0.0164 20.2097,-5.08976 28.3168,-11.65735 2.7935,-2.26306 7.2738,-5.8814 9.9562,-8.04077 10.7651,-8.66603 24.7329,-12.74504 37.7061,-11.01123 6.4243,0.85857 8.707,2.30815 19.6289,12.46493 6.7976,6.32137 14.2571,13.07622 16.5766,15.01078 5.6065,4.67612 3.4918,6.51598 -7.6074,6.61838 -6.8633,0.0633 -11.0611,-0.97396 -19.0364,-4.70396 -12.1759,-5.69461 -17.2125,-5.32718 -26.9378,1.96518 -3.5376,2.6526 -9.0267,6.71865 -12.1981,9.03569 -7.9653,5.81959 -11.5117,12.18749 -11.5184,20.68293 -0.01,6.36757 0.768,7.93286 8.0321,16.26202 9.9986,11.46449 20.899,17.13002 31.0531,16.13992 6.7484,-0.658 11.1491,-2.57804 33.7559,-14.72773 10.947,-5.88333 12.9123,-6.4344 23.3041,-6.53473 14.2787,-0.13787 18.7299,2.13567 28.2446,14.42612 3.9381,5.08713 9.6974,11.86598 12.7984,15.06411 3.1009,3.19814 5.6381,6.55322 5.6381,7.45573 0,3.47129 -13.3687,0.10014 -24.07,-6.06963 -6.7278,-3.87882 -12.6545,-6.21196 -15.78,-6.21196 -6.2873,0 -16.2247,4.21569 -26.5697,11.27152 -9.476,6.46311 -13.1865,10.79157 -13.2321,15.4359 -0.073,7.43374 9.4552,18.56596 20.3085,23.72722 8.7385,4.15559 10.7453,3.80898 34.2286,-5.91194 11.3997,-4.71893 14.7265,-5.43185 25.3471,-5.43185 l 12.2251,0 6.9268,7.35619 c 12.9638,13.76742 22.7135,25.38135 22.7135,27.05655 0,0.91911 -0.8457,1.66379 -1.8794,1.65485 -4.3187,-0.0374 -16.957,-4.73377 -21.2796,-7.90746 -8.3076,-6.0995 -15.0021,-7.61785 -23.8925,-5.41896 -13.2223,3.27028 -25.1162,12.56813 -25.1162,19.63409 0,4.18207 4.0077,11.49158 10.7484,19.60344 11.1836,13.45857 14.6233,27.59391 9.6255,39.55544 -2.6236,6.27903 -4.9419,6.68003 -6.2399,1.07933 z"
         id="path2996"
         style="fill:#000000" />
    </g>
  </g>
</svg>
