<?xml version="1.0" encoding="iso-8859-1"?>
<!DOCTYPE svg PUBLIC "-//W3C//DTD SVG 1.0//EN" "http://www.w3.org/TR/2001/REC-SVG-20010904/DTD/svg10.dtd">
<!-- Creator: CorelDRAW -->
<svg xmlns="http://www.w3.org/2000/svg" xmlns:odm="http://product.corel.com/CGS/11/cddns/" xml:space="preserve" width="1831px" height="1949px" style="shape-rendering:geometricPrecision; text-rendering:geometricPrecision; image-rendering:optimizeQuality; fill-rule:evenodd"
     viewBox="0 0 1832 1950">
 <defs>
  <style type="text/css">
   <![CDATA[
    .str3 {stroke:#1F1A17;stroke-width:4}
    .str0 {stroke:#1F1A17;stroke-width:8}
    .str1 {stroke:#1F1A17;stroke-width:8;stroke-linecap:round;stroke-linejoin:round}
    .str2 {stroke:#1F1A17;stroke-width:17}
    .fil2 {fill:none}
    .fil3 {fill:#0093DD}
    .fil1 {fill:#DA251D}
    .fil0 {fill:#FFF500}
   ]]>
  </style>
 </defs>
 <g id="Ebene 1">
  <g>
   <path class="fil0 str0" d="M30 30l1772 0 -99 1226c-135,524 -536,664 -800,664 -265,0 -654,-140 -786,-664l-87 -1226z"/>
   <g>
    <path class="fil1 str0" d="M425 1509l78 0 0 79 -78 0 0 -79z"/>
    <path class="fil1 str0" d="M425 1431l157 0 0 78 -157 0 0 -78z"/>
    <path class="fil1 str0" d="M503 1353l158 0 0 78 -158 0 0 -78z"/>
    <path class="fil1 str0" d="M582 1275l157 0 0 78 -157 0 0 -78z"/>
    <path class="fil1 str0" d="M661 1197l157 0 0 78 -157 0 0 -78z"/>
    <path class="fil1 str0" d="M739 1119l157 0 0 78 -157 0 0 -78z"/>
    <path class="fil1 str0" d="M818 1041l157 0 0 78 -157 0 0 -78z"/>
    <path class="fil1 str0" d="M503 1509l158 0 0 79 -158 0 0 -79z"/>
    <path class="fil1 str0" d="M582 1431l157 0 0 78 -157 0 0 -78z"/>
    <path class="fil1 str0" d="M661 1353l157 0 0 78 -157 0 0 -78z"/>
    <path class="fil1 str0" d="M739 1275l157 0 0 78 -157 0 0 -78z"/>
    <path class="fil1 str0" d="M818 1197l157 0 0 78 -157 0 0 -78z"/>
    <path class="fil1 str0" d="M896 1119l157 0 0 78 -157 0 0 -78z"/>
    <path class="fil1 str0" d="M975 1041l157 0 0 78 -157 0 0 -78z"/>
    <path class="fil1 str0" d="M661 1509l157 0 0 79 -157 0 0 -79z"/>
    <path class="fil1 str0" d="M739 1431l157 0 0 78 -157 0 0 -78z"/>
    <path class="fil1 str0" d="M818 1353l157 0 0 78 -157 0 0 -78z"/>
    <path class="fil1 str0" d="M896 1275l157 0 0 78 -157 0 0 -78z"/>
    <path class="fil1 str0" d="M975 1197l157 0 0 78 -157 0 0 -78z"/>
    <path class="fil1 str0" d="M1053 1119l157 0 0 78 -157 0 0 -78z"/>
    <path class="fil1 str0" d="M1132 1041l157 0 0 78 -157 0 0 -78z"/>
    <path class="fil1 str0" d="M818 1509l157 0 0 79 -157 0 0 -79z"/>
    <path class="fil1 str0" d="M896 1431l157 0 0 78 -157 0 0 -78z"/>
    <path class="fil1 str0" d="M975 1353l157 0 0 78 -157 0 0 -78z"/>
    <path class="fil1 str0" d="M1053 1275l157 0 0 78 -157 0 0 -78z"/>
    <path class="fil1 str0" d="M1132 1197l157 0 0 78 -157 0 0 -78z"/>
    <path class="fil1 str0" d="M1210 1119l158 0 0 78 -158 0 0 -78z"/>
    <path class="fil1 str0" d="M1289 1041l79 0 39 0 0 78 -118 0 0 -78z"/>
    <path class="fil1 str0" d="M975 1509l157 0 0 79 -157 0 0 -79z"/>
    <path class="fil1 str0" d="M1053 1431l157 0 0 78 -157 0 0 -78z"/>
    <path class="fil1 str0" d="M1132 1353l157 0 0 78 -157 0 0 -78z"/>
    <path class="fil1 str0" d="M1210 1275l158 0 0 78 -158 0 0 -78z"/>
    <path class="fil1 str0" d="M1289 1197l118 0 0 78 -118 0 0 -78z"/>
    <path class="fil1 str0" d="M1368 1119l39 0 0 78 -39 0 0 -78z"/>
    <path class="fil1 str0" d="M1132 1509l157 0 0 79 -157 0 0 -79z"/>
    <path class="fil1 str0" d="M1210 1431l158 0 0 78 -158 0 0 -78z"/>
    <path class="fil1 str0" d="M1289 1353l118 0 0 78 -118 0 0 -78z"/>
    <path class="fil1 str0" d="M1368 1275l39 0 0 78 -39 0 0 -78z"/>
    <path class="fil1 str0" d="M425 1041l78 0 0 78 -78 0 0 -78z"/>
    <path class="fil1 str0" d="M1289 1509l118 0 0 79 -39 0 -79 0 0 -79z"/>
    <path class="fil1 str0" d="M1368 1431l39 0 0 78 -39 0 0 -78z"/>
    <path class="fil1 str0" d="M425 1197l78 0 0 78 -78 0 0 -78z"/>
    <path class="fil1 str0" d="M425 1119l157 0 0 78 -157 0 0 -78z"/>
    <path class="fil1 str0" d="M503 1041l158 0 0 78 -158 0 0 -78z"/>
    <path class="fil1 str0" d="M425 1353l78 0 0 78 -78 0 0 -78z"/>
    <path class="fil1 str0" d="M425 1275l157 0 0 78 -157 0 0 -78z"/>
    <path class="fil1 str0" d="M503 1197l158 0 0 78 -158 0 0 -78z"/>
    <path class="fil1 str0" d="M582 1119l157 0 0 78 -157 0 0 -78z"/>
    <path class="fil1 str0" d="M661 1041l157 0 0 78 -157 0 0 -78z"/>
   </g>
   <rect class="fil1 str0" x="427" y="805" width="982" height="195"/>
   <path class="fil1 str0" d="M819 1195c0,-117 197,-117 197,0l0 313 -197 0 0 -313z"/>
   <path class="fil2 str0" d="M819 1195l197 0"/>
   <path class="fil1 str0" d="M1016 1205c0,-59 49,-88 98,-88l0 400 -98 0 0 -312z"/>
   <path class="fil1 str0" d="M819 1195c0,-58 -49,-88 -98,-88l0 401 98 0 0 -313z"/>
   <g>
    <g>
     <path class="fil2 str1" d="M819 1234l-78 0"/>
     <path class="fil2 str1" d="M761 1254l-20 -20 20 -19"/>
    </g>
    <g>
     <path class="fil2 str1" d="M819 1410l-78 0"/>
     <path class="fil2 str1" d="M761 1429l-20 -19 20 -20"/>
    </g>
   </g>
   <g>
    <g>
     <path class="fil2 str1" d="M1016 1234l78 0"/>
     <path class="fil2 str1" d="M1075 1254l19 -20 -19 -19"/>
    </g>
    <g>
     <path class="fil2 str1" d="M1016 1410l78 0"/>
     <path class="fil2 str1" d="M1075 1429l19 -19 -19 -20"/>
    </g>
   </g>
   <path class="fil1 str0" d="M780 414l-393 195 40 117 982 0 39 -117 -393 -195 -275 0z"/>
   <path class="fil2 str0" d="M1252 609l-236 -156"/>
   <path class="fil2 str0" d="M819 453l-235 156"/>
   <path class="fil3 str0" d="M227 1528c18,4 77,-66 131,-49 110,35 204,62 257,25 60,-42 88,-11 169,10 42,-20 168,-46 244,10 95,-32 149,-37 300,1 73,-1 148,-81 262,6 -180,301 -477,389 -687,389 -212,0 -503,-89 -679,-393 1,0 2,0 3,1z"/>
   <path class="fil2 str2" d="M30 30l1772 0 -99 1226c-135,524 -536,664 -800,664 -265,0 -654,-140 -786,-664l-87 -1226z"/>
   <path class="fil1 str0" d="M387 766l0 -157 79 0 0 78 39 0 0 -78 79 0 0 78 39 0 0 -78 79 0 0 78 39 0 0 -78 78 0 275 0 0 78 40 0 0 -78 78 0 0 78 40 0 0 -78 78 0 0 78 39 0 0 -78 79 0 0 157 -39 39 -982 0 -40 -39z"/>
   <path class="fil2 str0" d="M387 766l1061 0"/>
   <path class="fil2 str0" d="M1134 609l-118 -117"/>
   <rect class="fil1 str0" x="387" y="961" width="1061" height="78"/>
   <rect class="fil1 str0" x="819" y="188" width="196" height="831"/>
   <rect class="fil1 str0" x="780" y="1019" width="275" height="39"/>
   <path class="fil2 str0" d="M702 609l117 -117"/>
   <path class="fil1 str0" d="M772 101l0 88 23 28 233 0 27 -30 0 -85 -39 0 0 39 -39 0 0 -39 -40 0 0 39 -39 0 0 -39 -39 0 0 39 -40 0 0 -39 -47 -1z"/>
   <path class="fil2 str0" d="M773 188l282 0"/>
   <rect class="fil1 str0" x="780" y="375" width="275" height="39"/>
   <path class="fil2 str0" d="M859 219l0 156"/>
   <path class="fil2 str0" d="M898 219l0 156"/>
   <path class="fil2 str0" d="M937 219l0 156"/>
   <path class="fil2 str0" d="M977 219l0 156"/>
   <rect class="fil1 str0" x="780" y="707" width="275" height="39"/>
   <g>
    <path class="fil2 str3" d="M874 928l0 -87c0,-58 87,-58 87,0l0 87 -87 0z"/>
    <path class="fil2 str3" d="M887 913l0 -67c0,-45 61,-45 61,0l0 67 -61 0z"/>
   </g>
   <g>
    <g>
     <path class="fil2 str3" d="M1165 947l0 -87c0,-58 87,-58 87,0l0 87 -87 0z"/>
     <path class="fil2 str3" d="M1178 932l0 -67c0,-44 61,-44 61,0l0 67 -61 0z"/>
    </g>
    <g>
     <path class="fil2 str3" d="M576 947l0 -87c0,-58 88,-58 88,0l0 87 -88 0z"/>
     <path class="fil2 str3" d="M589 932l0 -67c0,-44 62,-44 62,0l0 67 -62 0z"/>
    </g>
    <g>
     <path class="fil2 str3" d="M1049 947l0 -87c0,-58 87,-58 87,0l0 87 -87 0z"/>
     <path class="fil2 str3" d="M1062 932l0 -67c0,-44 61,-44 61,0l0 67 -61 0z"/>
    </g>
    <g>
     <path class="fil2 str3" d="M460 947l0 -87c0,-58 88,-58 88,0l0 87 -88 0z"/>
     <path class="fil2 str3" d="M473 932l0 -67c0,-44 62,-44 62,0l0 67 -62 0z"/>
    </g>
    <g>
     <path class="fil2 str3" d="M1281 947l0 -87c0,-58 87,-58 87,0l0 87 -87 0z"/>
     <path class="fil2 str3" d="M1294 932l0 -67c0,-44 61,-44 61,0l0 67 -61 0z"/>
    </g>
    <g>
     <path class="fil2 str3" d="M693 947l0 -87c0,-58 87,-58 87,0l0 87 -87 0z"/>
     <path class="fil2 str3" d="M706 932l0 -67c0,-44 61,-44 61,0l0 67 -61 0z"/>
    </g>
    <g>
     <path class="fil2 str3" d="M874 623l0 -87c0,-57 87,-57 87,0l0 87 -87 0z"/>
     <path class="fil2 str3" d="M887 608l0 -67c0,-44 61,-44 61,0l0 67 -61 0z"/>
    </g>
   </g>
   <path class="fil2 str0" d="M386 1569c15,-14 15,-14 29,-14 19,0 41,-4 59,0 3,0 22,11 25,11 30,18 92,3 125,3"/>
   <path class="fil2 str0" d="M424 1624c12,-12 12,-12 25,-12 15,0 33,-3 49,0 3,0 18,9 21,9 24,15 76,3 104,3"/>
   <path class="fil2 str0" d="M462 1679c10,-10 10,-10 20,-10 12,0 27,-3 39,0 3,0 15,7 17,7 20,12 62,3 84,3"/>
   <path class="fil2 str0" d="M545 1726c7,-7 7,-7 15,-7 9,0 20,-2 29,0 2,0 11,5 13,5 15,9 46,2 63,2"/>
   <path class="fil2 str0" d="M628 1773c5,-5 5,-5 9,-5 7,0 14,-1 20,0 2,0 8,4 9,4 10,6 31,1 42,1"/>
   <path class="fil2 str0" d="M710 1821c3,-3 3,-3 5,-3 3,0 7,-1 10,0 1,0 4,2 5,2 5,3 16,1 22,1"/>
   <path class="fil2 str0" d="M662 1568c42,-35 86,9 120,9 22,0 39,-2 57,-13 5,-4 18,-9 26,-11 20,-3 18,-13 32,15"/>
   <path class="fil2 str0" d="M701 1626c36,-35 74,9 104,9 19,0 33,-2 49,-13 4,-3 15,-9 22,-11 17,-3 16,-12 28,15"/>
   <path class="fil2 str0" d="M741 1684c30,-35 62,9 87,9 15,0 27,-2 41,-13 3,-3 13,-9 18,-11 14,-4 39,-11 50,16"/>
   <path class="fil2 str0" d="M780 1745c23,-26 46,7 65,7 12,0 20,-2 30,-10 3,-2 10,-7 14,-8 11,-3 29,-9 37,12"/>
   <path class="fil2 str0" d="M819 1806c15,-17 31,5 43,5 8,0 13,-1 20,-7 2,-1 6,-4 9,-5 7,-2 19,-6 25,8"/>
   <path class="fil2 str0" d="M859 1867c7,-8 14,2 20,2 4,0 7,0 10,-3 1,-1 3,-2 4,-2 3,-1 9,-3 12,3"/>
   <path class="fil2 str0" d="M938 1568c12,-8 29,-18 45,-18 15,0 30,10 37,21 11,17 69,0 86,-9 9,-5 25,-5 33,-5 13,0 18,-6 35,11"/>
   <path class="fil2 str0" d="M976 1628c10,-6 22,-14 34,-14 11,0 22,8 28,16 8,13 51,0 64,-6 7,-4 19,-4 24,-4 10,0 14,-4 26,8"/>
   <path class="fil2 str0" d="M1014 1688c7,-4 15,-9 23,-9 7,0 15,5 18,11 6,8 35,0 43,-5 4,-3 12,-3 16,-3 6,0 9,-2 17,6"/>
   <path class="fil2 str0" d="M1024 1740c7,-4 15,-9 24,-9 7,0 15,5 18,11 6,8 36,0 44,-5 5,-2 13,-2 17,-2 6,0 9,-3 17,5"/>
   <path class="fil2 str0" d="M1053 1790c7,-4 15,-9 23,-9 8,0 15,5 19,11 6,8 35,0 44,-5 4,-2 13,-2 16,-2 7,0 10,-3 18,5"/>
   <path class="fil2 str0" d="M1212 1568c9,-2 29,-9 38,-8 6,0 17,4 20,10 2,3 33,16 39,16 35,0 57,-18 86,-27 14,-4 64,-15 53,9"/>
   <path class="fil2 str0" d="M1225 1622c7,-1 22,-7 29,-6 5,0 13,3 16,7 1,3 25,13 29,13 27,0 44,-14 67,-21 11,-3 49,-11 40,7"/>
   <path class="fil2 str0" d="M1238 1676c5,-1 15,-5 20,-4 3,0 9,2 11,5 1,2 18,9 21,9 19,0 31,-10 46,-15 8,-2 35,-7 29,5"/>
   <path class="fil2 str0" d="M1251 1731c2,-1 9,-3 11,-3 2,0 6,2 7,3 0,1 10,5 12,5 10,0 17,-5 26,-8 5,-1 20,-5 17,3"/>
  </g>
 </g>
</svg>
