<?xml version="1.0" encoding="UTF-8" standalone="no"?>
<!-- Created with Inkscape (http://www.inkscape.org/) -->
<svg
   xmlns:dc="http://purl.org/dc/elements/1.1/"
   xmlns:cc="http://creativecommons.org/ns#"
   xmlns:rdf="http://www.w3.org/1999/02/22-rdf-syntax-ns#"
   xmlns:svg="http://www.w3.org/2000/svg"
   xmlns="http://www.w3.org/2000/svg"
   xmlns:sodipodi="http://sodipodi.sourceforge.net/DTD/sodipodi-0.dtd"
   xmlns:inkscape="http://www.inkscape.org/namespaces/inkscape"
   version="1.0"
   width="676.29248"
   height="706.23676"
   id="svg2907"
   sodipodi:version="0.32"
   inkscape:version="0.46"
   sodipodi:docname="Wappen Siegmaringen.svg"
   inkscape:output_extension="org.inkscape.output.svg.inkscape">
  <metadata
     id="metadata34">
    <rdf:RDF>
      <cc:Work
         rdf:about="">
        <dc:format>image/svg+xml</dc:format>
        <dc:type
           rdf:resource="http://purl.org/dc/dcmitype/StillImage" />
      </cc:Work>
    </rdf:RDF>
  </metadata>
  <sodipodi:namedview
     inkscape:window-height="850"
     inkscape:window-width="1424"
     inkscape:pageshadow="2"
     inkscape:pageopacity="0.0"
     guidetolerance="10.0"
     gridtolerance="10.0"
     objecttolerance="10.0"
     borderopacity="1.0"
     bordercolor="#666666"
     pagecolor="#ffffff"
     id="base"
     showgrid="false"
     inkscape:zoom="0.46593681"
     inkscape:cx="953.25613"
     inkscape:cy="84.967324"
     inkscape:window-x="0"
     inkscape:window-y="14"
     inkscape:current-layer="svg2907" />
  <defs
     id="defs2909">
    <inkscape:perspective
       sodipodi:type="inkscape:persp3d"
       inkscape:vp_x="0 : 353.11838 : 1"
       inkscape:vp_y="0 : 1000 : 0"
       inkscape:vp_z="676.29248 : 353.11838 : 1"
       inkscape:persp3d-origin="338.14624 : 235.41225 : 1"
       id="perspective36" />
    <inkscape:perspective
       id="perspective2559"
       inkscape:persp3d-origin="297.93036 : 222.42977 : 1"
       inkscape:vp_z="595.86072 : 333.64465 : 1"
       inkscape:vp_y="0 : 1000 : 0"
       inkscape:vp_x="0 : 333.64465 : 1"
       sodipodi:type="inkscape:persp3d" />
  </defs>
  <path
     d="M 0,1.6881462e-14 L 676.2925,1.6881462e-14 C 665.86316,118.41502 658.89761,190.43035 644.911,343.76267 C 621.01015,526.15703 481.5501,640.06628 338.30558,706.23674 C 186.45205,649.34079 47.660891,517.14247 29.404378,343.91996 C 16.539744,221.85698 9.7486642,118.42311 0,1.6881462e-14 z"
     id="path1738"
     style="fill:#000000;fill-opacity:1;fill-rule:evenodd;stroke:none;stroke-width:1px;stroke-linecap:butt;stroke-linejoin:miter;stroke-opacity:1" />
  <path
     d="M 15.110584,14.792416 L 661.18161,14.792416 C 651.60761,133.17219 642.36276,244.80682 632.82741,343.68448 C 619.16166,451.61853 547.75681,592.67692 338.50851,695.89218 C 120.11891,604.07325 55.916382,450.36034 41.423959,343.83108 C 28.164861,246.367 20.610617,93.56986 15.110584,14.792416 z"
     id="path1740"
     style="fill:#d8201f;fill-opacity:1;fill-rule:evenodd;stroke:none;stroke-width:1px;stroke-linecap:butt;stroke-linejoin:miter;stroke-opacity:1" />
  <path
     d="M 296.19815,72.937173 C 294.28725,78.249261 287.59213,80.900361 284.24837,85.318962 C 277.07501,92.398151 268.94565,100.35574 267.5101,110.08444 C 280.89253,116.72652 286.63723,99.475741 295.7205,93.284348 C 302.89096,88.864249 311.01074,85.328649 320.0985,87.982346 C 321.52566,88.427641 322.011,90.192745 321.52946,91.520642 C 313.87645,95.498042 308.14333,101.69353 304.79498,109.21192 L 305.75048,110.53742 C 317.70245,109.65252 330.60663,104.79621 335.86659,93.736234 C 339.69499,85.330746 348.29871,77.81545 356.90723,75.16345 C 366.46735,74.725745 375.06567,70.743751 384.62509,72.517143 C 386.06044,72.955548 386.53919,74.28684 386.06374,76.055739 C 377.93278,80.472442 369.33016,83.572633 362.63345,90.646129 C 360.2422,95.067726 354.98304,99.934918 357.37559,105.23981 C 364.54216,107.89391 369.80541,99.934119 376.97268,100.37701 C 389.4041,98.612214 396.57018,89.328718 407.08859,83.575829 C 418.56222,75.174136 433.38319,73.410031 447.72193,71.203327 C 449.15898,71.20103 451.06708,72.529626 451.06958,73.859421 C 449.63123,78.276723 444.37527,78.281018 441.50527,81.371322 C 438.15861,84.467318 431.94305,86.238614 430.51229,90.663606 C 426.68219,91.546507 425.25333,95.523607 423.33923,97.735504 C 433.376,101.2737 445.80393,100.39749 455.8407,103.93568 C 462.04927,107.91608 472.08874,104.82078 477.82685,109.24807 C 477.34651,116.32077 467.78908,111.90267 463.00737,114.55297 C 448.18719,118.08757 432.89136,119.40937 416.64003,119.40568 C 404.2094,122.94098 391.30592,125.59328 378.40214,124.26408 C 376.48624,126.91668 375.05309,130.01198 376.9635,132.67027 C 384.61401,139.30786 397.99854,137.53886 407.55376,134.44167 C 416.63853,131.79126 424.28465,125.60227 433.37141,122.50387 C 450.57505,118.52897 468.74049,116.32077 486.90683,119.86456 C 487.86223,121.19016 489.77443,123.40775 487.37978,124.72915 C 472.08984,126.49935 455.35287,130.91605 444.83824,143.74354 C 448.1816,149.49213 457.26377,149.49353 463.95109,150.82362 C 478.29452,153.48032 494.0676,153.92322 507.45463,149.50242 C 509.83989,148.62131 512.70869,149.94611 513.6622,151.71961 C 513.6605,156.1419 508.40234,158.79081 504.57823,160.122 C 502.19467,160.5624 499.32487,161.4488 497.41286,163.2128 C 479.72468,171.17459 457.25908,170.7238 437.65949,170.27521 C 433.35583,168.50472 426.66542,169.83381 422.8466,165.85412 C 413.28268,163.19882 405.15901,155.67833 394.16874,158.32983 C 391.77658,160.98093 387.47652,158.32194 384.60672,159.20834 C 371.22069,161.41804 360.22652,156.99504 347.80299,154.77865 L 339.20146,155.66046 C 326.76914,159.63646 312.43521,156.53946 299.52453,156.98016 C 287.57636,156.97647 274.67667,144.59138 264.15526,155.20008 L 191.02914,145.01291 C 184.33213,140.14882 178.60021,136.16263 173.8232,129.52764 C 172.87109,115.37585 183.38741,106.08926 191.04122,95.91907 C 197.72964,91.049182 204.42635,83.975686 211.59162,80.884882 C 213.50333,81.324885 215.89907,81.766685 215.41423,83.975986 C 210.15417,95.035969 203.46086,105.20965 202.02271,117.59024 C 202.02271,121.57184 202.49897,125.55503 206.32497,127.76463 L 207.76352,127.32163 C 213.02068,110.95745 222.5815,96.363767 236.45257,83.981578 C 238.36128,83.098976 240.27408,81.327781 242.66613,82.658175 C 244.57244,84.427473 245.53024,87.082767 243.61794,88.854063 C 235.97102,97.254158 232.62197,106.98364 232.13563,117.59694 C 242.1765,114.06084 247.44055,103.88985 249.82721,94.604855 C 258.91557,79.121077 276.60355,71.166377 295.24435,71.170871 L 296.19815,72.937173"
     id="path6936"
     style="fill:#000000;fill-opacity:1;fill-rule:nonzero;stroke:none" />
  <path
     d="M 367.80563,78.348626 C 361.10642,84.092427 352.97896,91.609222 350.58761,100.01241 C 349.63061,103.10921 350.11005,106.21089 352.50121,107.9749 C 354.41321,110.19249 358.23912,108.42049 360.62328,109.75059 C 358.23123,112.40169 356.79638,115.93769 353.45661,117.26359 C 334.81442,111.51439 319.03694,122.12728 301.34896,122.1186 C 301.35595,120.3486 301.8332,118.1389 303.74361,116.8156 C 311.86957,113.7211 320.95024,114.1633 328.1255,110.625 C 334.81362,109.7439 336.25137,103.54891 341.02699,100.45741 C 344.85449,90.281425 355.85505,80.99673 367.32328,77.906027 L 367.80563,78.348626"
     id="path6938"
     style="fill:#fcc707;fill-opacity:1;fill-rule:nonzero;stroke:none" />
  <path
     d="M 280.80835,78.765859 C 273.16273,86.732543 267.42402,96.461334 263.11457,106.18743 C 263.11966,108.83963 260.24556,112.82581 263.58922,114.59281 C 267.41513,116.80241 271.71519,115.47991 276.01665,115.92061 C 270.76189,129.63289 254.9902,116.80441 244.47208,122.55011 C 240.17062,122.10941 235.86447,130.9541 233.47721,124.31981 C 239.69447,118.12632 250.68554,117.24521 254.51544,108.39902 C 256.42745,94.690139 267.42142,83.186757 280.80835,78.765859"
     id="path6940"
     style="fill:#fcc707;fill-opacity:1;fill-rule:nonzero;stroke:none" />
  <path
     d="M 432.80618,79.685411 C 428.50861,86.319304 420.38015,88.084108 416.55504,95.608093 C 414.16229,96.488797 411.77094,96.928799 411.29179,99.586291 C 412.72734,104.00639 419.8971,101.79739 423.72001,102.68458 C 432.32243,103.57318 439.97285,106.22917 448.57747,106.66977 C 451.43998,107.55347 455.26638,107.55916 456.70273,109.76806 C 444.27521,112.42186 429.45663,111.53407 417.0248,109.31728 C 413.2011,110.64138 409.37898,111.52478 406.03542,113.73927 C 399.34381,115.50907 391.6907,115.50488 385.00048,116.83397 C 384.04698,115.06048 385.95589,114.17788 386.91389,112.85158 C 393.12555,107.98728 400.77996,105.77309 408.90513,104.88969 C 409.85943,104.45208 411.29179,103.56798 411.29708,102.23859 C 408.43127,98.254699 402.20932,99.584893 397.4371,97.813299 C 408.42758,91.180204 417.99209,83.661013 430.41822,79.24391 L 432.80618,79.685411"
     id="path6942"
     style="fill:#fcc707;fill-opacity:1;fill-rule:nonzero;stroke:none" />
  <path
     d="M 303.93045,95.940641 C 297.71689,105.22723 292.45793,114.07602 289.58783,125.12961 C 288.62463,127.7852 288.15008,131.3246 289.10788,133.97989 C 300.57121,144.15608 318.74044,145.04087 334.03478,140.17808 C 356.02632,133.99397 358.89603,103.03241 385.66588,105.2464 C 379.44802,109.6695 371.8037,115.41779 369.88461,122.93349 C 366.54105,125.14808 367.49425,129.12548 365.58614,131.77858 C 365.1017,135.76547 368.9299,139.30486 372.74962,141.07336 C 395.69047,149.92245 416.72671,138.43105 435.3683,128.26116 C 439.19351,128.70036 442.06271,123.83956 445.88522,126.93056 C 450.18628,127.37845 454.01039,126.04726 457.83589,124.28246 L 459.7494,124.28166 C 448.75373,128.26255 439.19101,135.33375 430.11214,142.41414 C 429.62709,144.62344 426.76448,147.72134 430.10634,149.92904 C 444.92133,155.68712 459.74211,160.10852 476.94745,159.67461 C 480.29181,159.23041 485.07112,159.23191 488.89942,158.78961 L 488.89782,159.23031 C 466.90578,165.4217 442.05063,164.97022 420.54622,158.33003 C 414.81221,154.79184 407.64414,152.57834 402.85864,148.15425 C 394.73946,149.47865 386.61359,152.57325 378.48533,152.13404 C 368.92541,152.57185 361.2755,151.68625 353.15023,148.58806 L 342.6338,145.92977 C 330.68383,150.34837 314.90795,152.55727 301.53141,150.34507 C 289.09979,148.12828 277.63116,143.26309 265.20203,142.37599 C 266.51255,142.8831 233.6314,148.94467 234.13382,149.00699 C 235.56997,147.2343 236.52028,145.9076 237.00342,144.1391 C 234.61207,140.59741 231.74166,143.695 227.91865,142.80791 C 222.18644,142.8106 218.36163,138.38261 213.58322,136.16992 C 211.67061,129.97793 215.49981,123.34293 216.92937,117.15464 C 221.23563,112.29164 221.24012,105.21025 226.49569,101.23155 C 227.93064,105.65884 223.15133,109.63894 223.62448,114.50354 C 221.71568,119.36773 220.75448,125.55703 223.14094,130.42082 C 226.4849,137.94711 236.04802,138.8319 243.69324,138.8356 C 250.38745,138.3956 257.55392,137.0682 262.81937,132.64201 C 275.2446,130.4361 279.54925,118.05052 287.67682,110.53363 C 291.50432,104.33934 297.24303,98.592241 303.93045,95.940641"
     id="path6944"
     style="fill:#fcc707;fill-opacity:1;fill-rule:nonzero;stroke:none" />
  <path
     d="M 200.72737,94.679054 C 197.37672,104.84934 191.16066,116.78773 196.41563,126.96512 C 199.28613,131.83081 206.92965,132.27521 207.4072,138.0216 C 208.84056,138.908 210.75825,139.7962 211.22951,141.1199 C 205.4964,143.33369 203.11044,138.46271 197.84828,138.0258 C 191.63482,135.36761 184.46505,129.61322 183.51454,122.98392 C 185.43234,111.92014 192.12435,103.96484 199.77486,94.676058 L 200.72737,94.679054"
     id="path6946"
     style="fill:#fcc707;fill-opacity:1;fill-rule:nonzero;stroke:none" />
  <path
     d="M 347.7164,123.45868 C 343.41255,129.65147 335.28418,131.41627 328.59696,134.06777 C 319.99254,133.62707 309.47752,134.50977 302.30246,130.08478 L 302.30616,129.19619 C 317.5986,128.75578 331.46347,119.91409 347.7164,123.45868"
     id="path6948"
     style="fill:#ed1c24;fill-opacity:1;fill-rule:nonzero;stroke:none" />
  <path
     d="M 256.89951,127.8593 C 253.54995,129.63279 247.81644,130.069 244.95053,130.0668 C 248.76805,128.3016 252.59655,127.8593 256.89951,127.8593"
     id="path6950"
     style="fill:#ed1c24;fill-opacity:1;fill-rule:nonzero;stroke:none" />
  <path
     d="M 335.58697,152.54219 L 328.38355,153.28069 C 317.97189,156.61047 305.96769,154.01679 295.15547,154.38599 C 285.14915,154.38279 274.34612,144.01067 265.53478,152.89521 C 265.93154,155.11729 267.93492,156.23158 269.9399,156.97068 C 287.94855,161.04894 307.96627,161.42453 324.37629,169.57636 C 325.97432,170.68905 325.97183,172.91593 325.57357,174.39742 C 320.37013,178.84009 312.76326,177.3562 307.55963,181.79887 C 265.24388,184.51538 290.44496,228.33079 301.89781,240.02352 C 317.18066,270.63176 307.08657,227.65141 465.77432,270.31249 C 516.74422,276.48941 523.66054,269.48572 549.09288,266.54458 C 532.27222,277.9486 557.62931,300.37608 490.98489,305.87731 C 490.18058,309.20888 487.78194,312.17246 486.17961,315.50753 C 480.97078,322.91537 470.4254,331.8064 478.56625,340.69913 C 477.76014,356.25501 477.36059,371.44339 480.9603,385.88858 C 481.75911,394.03671 485.35833,401.81895 489.3582,409.22729 C 494.56103,413.30535 502.67781,420.44506 505.88196,425.63002 C 506.68008,438.96451 500.35856,450.34496 501.15638,463.68545 C 499.55236,479.23883 503.56651,496.6494 504.14472,511.47027 C 502.94235,516.28324 504.14073,522.58089 498.53524,524.43207 C 497.73752,527.76415 492.93304,527.02785 492.93175,530.73142 C 492.52939,536.65458 495.73194,542.21463 493.72856,547.76939 C 486.92061,554.43364 477.70762,562.21528 466.90159,561.096 C 463.70023,555.17294 457.29243,564.80376 454.89738,558.50242 C 458.09764,549.61089 460.10352,539.98356 464.10688,531.46393 C 469.31271,528.12886 475.31866,522.5754 479.72438,518.13013 C 481.3249,508.5012 480.52679,498.50128 480.93224,488.49936 C 478.53399,482.94221 479.33111,478.12754 478.13134,472.19899 C 472.77092,452.13333 456.23487,429.1032 443.60332,423.80679 C 450.71936,424.31241 442.03245,445.69558 435.29989,451.5663 C 417.67832,468.97227 406.74596,492.87222 395.12973,513.23937 C 395.52949,518.05783 392.72899,521.75821 389.52564,524.72488 C 385.51988,527.31356 379.52012,526.20437 376.31717,529.16515 C 375.51296,539.16577 378.71132,552.50196 366.30177,556.57573 C 359.49641,559.16731 351.49068,561.0166 343.88221,559.90781 C 342.28428,558.79512 345.48184,557.31084 343.48465,556.20304 C 338.67917,555.82975 335.07497,561.0161 331.0724,557.68033 C 331.87911,552.12178 335.48032,547.67961 338.28501,542.86595 C 339.88933,530.64104 351.49667,524.34369 362.70685,519.16463 C 371.51779,512.12598 377.92549,502.49496 383.12833,493.23513 C 398.34537,473.60618 404.97506,453.64918 414.18386,431.79715 C 416.59249,422.90951 400.22711,411.39594 392.62363,403.9876 C 383.85434,383.48784 382.10911,380.44337 380.02983,373.32363 C 344.78029,393.98129 303.8209,385.63991 274.07129,412.39249 C 264.39803,424.59243 262.09585,451.07717 261.36454,461.52828 L 260.15838,475.60627 L 261.35406,485.97659 C 262.15287,500.79377 264.15016,515.23936 268.55019,528.94894 C 268.14873,533.02031 266.94896,537.09518 263.34326,539.31607 C 261.34617,541.54274 257.74056,540.42906 256.54149,542.65224 C 256.5349,549.32078 254.93637,556.72893 250.52796,561.91239 C 242.92099,567.09755 233.71848,568.94893 225.306,571.16582 C 222.90925,568.57384 219.7062,571.53462 216.90161,571.16802 L 211.29682,571.16742 C 212.50438,563.38918 215.30778,555.61014 219.7094,548.9377 C 221.71338,538.19669 231.20779,540.88693 236.01007,532.0007 C 237.21293,527.18174 240.61781,516.42235 239.82049,511.23949 C 240.22714,497.53409 238.14127,488.19278 236.14089,474.49118 C 218.24429,413.10672 214.48709,392.81927 249.12546,485.73402 C 245.1202,486.47091 242.3211,489.80219 239.11785,492.76886 C 238.96945,502.43514 238.90144,508.09426 236.4283,517.60055 C 233.22455,532.071 218.06463,525.79812 223.14943,537.70495 C 223.54849,544.3752 216.28675,553.88449 210.28539,558.32476 C 203.8769,559.80395 199.87443,566.4717 193.06917,565.72891 C 190.26528,560.17605 184.66218,569.80377 181.46113,563.87452 C 185.4626,552.39561 182.26354,537.57663 191.47853,527.57411 L 201.48744,520.17016 C 204.28884,514.61191 209.49107,510.53834 210.69933,504.24279 C 224.44637,455.29794 195.29025,384.96323 186.53394,364.08947 C 164.55658,344.81734 155.85999,264.83902 174.84421,250.35449 C 183.85378,240.14126 189.88869,216.84928 196.97626,206.01379 C 189.76825,204.5311 187.06462,205.14497 179.45845,205.14367 C 170.25365,205.88157 157.09911,207.50457 148.29376,203.05751 C 146.69084,201.57542 145.36384,195.6216 146.16745,194.14171 C 146.5681,193.76792 146.96317,193.03072 147.36362,192.65683 C 146.568,190.43345 143.36266,192.28643 142.16498,190.80604 C 137.76116,189.69595 138.44034,181.81784 137.64222,178.48686 C 138.04268,168.10955 154.24638,168.43302 161.85395,164.73064 C 170.26293,161.76936 178.66932,159.54618 186.27679,155.84391 C 191.08147,151.39984 196.2865,146.58807 203.09286,145.47319 L 204.29383,144.36369"
     id="path5052"
     style="fill:#000000;fill-opacity:1;fill-rule:nonzero;stroke:none"
     sodipodi:nodetypes="ccccccccccccccccccccccccccccccccccccccccccccccccccccccccccccccccccccccccccccccccc" />
  <path
     d="M 262.55463,142.68138 C 259.29386,144.29659 253.7344,150.16582 250.39554,153.6362 C 250.39933,157.70917 254.00244,159.56096 257.60425,159.93605 C 260.40225,163.63673 265.60519,161.04574 269.61225,163.26823 C 281.22019,165.12241 294.0241,165.4978 304.03341,171.42565 C 298.82548,176.98171 290.02234,180.31718 282.01221,179.94528 C 271.60634,178.4582 262.80389,173.27294 253.19653,169.93657 C 251.59131,170.67547 248.79052,171.04737 249.59153,173.64025 L 249.59532,174.37874 C 255.59767,178.08411 265.60459,179.56989 266.4035,187.71813 C 282.21843,222.27272 269.25833,207.72856 280.22024,234.79751 C 287.08542,246.95161 295.75206,256.5378 313.49956,265.95541 C 347.73458,252.86578 413.29107,268.3915 450.55328,275.3129 C 458.15676,279.38677 468.16307,279.38987 477.37057,281.24835 C 497.52576,283.43333 516.3395,278.95717 535.0209,275.98388 C 528.30272,283.25931 525.63584,297.45015 494.97897,295.69783 C 489.37577,295.32204 482.17365,295.69154 478.16869,291.24827 C 475.76655,290.13268 473.76417,291.98986 472.96585,293.83915 C 472.5611,298.65471 481.771,298.28621 477.76644,303.84037 C 476.56027,311.24941 474.15953,316.43367 472.55581,323.47242 C 469.74962,338.6586 474.45633,349.98542 469.65475,363.68862 C 470.70822,379.538 461.54636,383.86352 496.3516,421.54896 C 508.83296,435.06321 491.80897,438.14812 498.74266,481.57926 C 498.50478,482.71571 500.17681,498.51117 497.36692,514.15673 C 496.85152,517.02643 491.08236,523.62976 489.38896,526.37853 C 486.58037,530.4537 491.48261,536.23765 489.88229,540.68621 C 490.28044,542.53929 490.67731,544.76137 489.48003,546.60946 C 483.86995,549.57394 479.06457,555.86959 471.86115,553.27372 C 473.06502,548.09165 476.66912,542.90539 476.27236,537.34854 C 475.47065,536.60764 474.26908,536.23445 473.07071,536.60575 C 469.86446,540.31072 470.26142,545.86717 467.06177,549.57234 C 465.05919,549.94084 464.25937,552.15933 462.25579,551.05103 C 464.25818,544.01359 469.86666,538.08973 473.06612,531.05009 C 480.67499,526.97872 481.4751,522.40692 488.68122,517.59576 C 490.36223,498.52036 489.78312,482.26163 489.33033,479.45923 C 490.93605,473.53418 482.85253,457.36503 480.85095,450.70148 C 482.85343,440.32966 431.97231,406.87558 425.5753,398.72714 C 416.77135,387.24204 396.96784,367.34495 399.37137,351.41897 L 398.97161,349.93499 C 391.2494,250.07347 415.95655,287.88384 397.11304,337.81075 C 394.7109,346.69868 394.47762,352.01377 392.11492,359.15757 C 361.99192,375.94847 317.28582,376.49643 282.29832,391.15293 C 303.90579,373.17374 299.1071,368.95547 302.31714,348.57384 C 309.99082,333.92473 303.85635,336.42154 297.51546,348.93914 C 289.50654,379.57095 277.86694,371.10075 264.98133,399.29947 C 262.5791,404.85293 258.97609,409.67009 258.17328,415.96714 C 255.76535,423.00299 258.56874,431.89631 255.76644,437.81757 C 256.56356,443.00633 256.56087,447.079 255.36309,452.26745 C 255.3574,460.41879 255.35331,468.19503 254.15603,476.71186 C 254.5478,488.56807 254.94606,500.42447 257.74486,512.27688 C 257.74356,515.98045 258.14751,519.68552 260.1437,522.65129 C 259.34658,527.46586 264.14876,533.76351 257.34211,536.72419 C 255.74268,535.9806 252.93958,535.24499 251.33816,536.72239 C 248.13291,541.90995 251.73242,549.68609 248.12812,554.87235 C 242.92728,558.57702 237.31729,564.87586 230.11607,563.38749 C 230.51253,558.94671 232.11635,555.24254 234.5165,551.90987 C 234.52229,550.42758 234.12273,548.9436 232.12145,548.9429 C 228.11509,548.2031 229.31296,553.01826 227.31228,554.50035 C 225.71365,558.57392 225.31109,564.50307 220.50642,565.61256 L 220.10237,565.24187 C 223.31121,557.46443 224.91204,547.82941 234.12203,544.12644 C 241.72561,539.68547 244.81641,532.3686 245.61782,523.10618 C 246.2276,504.12245 247.2581,493.58715 242.94565,478.56245 L 243.34731,477.82555 C 237.74731,454.85304 235.75212,431.51743 229.75157,408.91881 C 229.75366,406.69792 230.15452,404.47834 228.55149,402.99635 C 214.89643,375.15095 206.27432,369.64147 194.70453,357.70638 C 192.03375,353.3421 230.91988,312.18611 196.01636,356.52871 C 185.85567,351.73758 181.41592,337.85255 182.89864,330.52059 C 185.73652,316.48749 195.27684,289.16761 198.61647,286.80942 C 206.09694,281.52728 176.88303,316.28617 176.16369,314.27027 C 173.31522,306.28759 171.99943,298.49332 172.5469,289.93808 C 173.54567,274.33055 180.74567,256.19039 196.15408,229.75326 C 200.15784,226.05089 205.95018,203.63133 211.95812,202.52593 C 217.56361,204.00931 220.76467,199.93504 225.16699,198.07976 C 229.17884,194.83527 229.94151,193.3395 231.17853,188.54401 C 224.77213,191.13689 220.36501,191.78211 213.56035,192.52191 C 209.55588,194.7415 203.55174,194.74569 199.14692,193.9987 C 193.64049,194.5914 174.61702,196.3611 158.31855,196.95479 C 157.9159,196.215 155.51845,195.4749 156.31727,193.61962 C 159.51952,189.17635 180.23939,199.2283 177.84114,190.33658 C 173.83618,189.22778 164.62439,191.16785 160.62182,191.16655 C 152.84598,192.87713 151.51389,187.69117 148.71169,185.09769 C 147.91358,181.76671 149.91346,178.80194 150.71647,175.83946 C 161.12594,168.06152 175.93773,168.43791 187.54687,163.25405 C 197.55618,155.84401 207.56808,147.70186 221.181,146.96077 C 227.58231,147.33296 233.22465,146.88168 239.23249,145.77628 C 240.43516,144.29169 242.3913,145.11298 242.79585,143.63189"
     id="path5068"
     style="fill:#f9d100;fill-opacity:1;fill-rule:nonzero;stroke:none"
     sodipodi:nodetypes="cccccccccccccccccccccscsccccccccccccccccccccccccccccccccccccccccccccsssscccccccccccccccc" />
  <path
     d="M 234.70334,155.93239 C 235.50625,156.30428 237.10548,157.04787 236.30846,158.52806 C 233.10411,165.19222 223.89242,165.93591 217.08726,168.52739 C 213.88631,169.26728 209.88224,169.63508 206.68199,168.52309 C 205.07757,167.4101 204.28185,165.18672 205.08026,163.33743 C 205.88038,161.11305 208.68457,161.48565 210.68575,161.48625 C 213.08979,162.22664 212.28887,166.30281 215.48843,165.93211 C 216.692,165.93021 217.49111,165.56361 218.29063,165.19102 C 216.29204,164.45222 213.8899,163.33673 214.28746,160.37266 C 212.28548,158.88937 208.28641,159.63256 207.4842,157.40888 C 210.68925,152.22742 218.29262,156.30129 223.89372,155.56339 L 234.70334,155.93239"
     id="path5084"
     style="fill:#000000;fill-opacity:1;fill-rule:nonzero;stroke:none" />
  <path
     d="M 253.43002,160.36757 L 250.63182,161.84706 C 251.42754,160.73607 251.03067,158.51388 253.03186,158.51448 C 254.23363,158.88767 253.43281,159.62937 253.43002,160.36757"
     id="path5088"
     style="fill:#fcc707;fill-opacity:1;fill-rule:nonzero;stroke:none" />
  <path
     d="M 322.27934,170.01407 C 323.08225,170.38596 323.88236,171.49606 323.08155,172.23775 C 313.87605,174.82743 305.47056,171.86426 296.26136,170.38107 C 293.45637,168.52579 289.4567,167.78639 287.85418,164.45252 L 289.85986,163.33983 C 299.86497,167.0465 311.07096,169.64377 322.27934,170.01407"
     id="path5092"
     style="fill:#000000;fill-opacity:1;fill-rule:nonzero;stroke:none" />
  <path
     d="M 170.88499,174.06287 C 170.48094,177.02665 168.08379,179.61503 165.2788,181.10032 C 163.27822,182.5823 159.67491,182.57631 156.87221,181.83472 C 156.87481,181.09652 155.27558,180.35293 156.47525,179.61254 C 157.27367,177.76335 159.67461,179.24793 161.27993,178.50304 C 164.87774,176.65096 166.88382,167.02363 170.88499,174.06287"
     id="path5096"
     style="fill:#000000;fill-opacity:1;fill-rule:nonzero;stroke:none" />
  <path
     d="M 399.23945,370.78828 C 399.43469,372.95034 425.31075,411.90226 438.06224,420.57229 C 440.38299,422.15024 428.11625,456.62274 414.64943,469.31231 C 402.63744,477.09085 398.85467,497.4574 390.04613,508.93811 C 390.84485,517.08625 385.4312,524.1167 372.70298,524.84801 C 372.29833,529.66357 370.04778,541.16715 366.73358,545.87247 C 366.32674,552.90891 356.47142,553.67248 350.06761,555.52716 C 350.86773,549.9682 350.5208,550.38174 349.72368,545.19299 C 348.92367,544.0827 347.7201,544.08489 346.52342,544.0809 C 343.31808,549.26845 342.5655,550.07186 337.35687,554.14503 L 336.55865,554.14853 C 338.55914,545.9975 344.78019,541.24844 348.78405,534.2116 C 355.92136,528.48567 363.02991,523.84457 369.03546,520.6584 C 391.35196,495.82601 414.80172,460.20298 420.50318,436.48658 C 419.62867,427.98942 420.54033,420.86818 417.80065,414.04665 C 417.3228,412.85696 385.33942,394.57269 385.70103,371.63613 C 385.73888,369.23569 395.70914,367.534 395.43262,365.1747"
     id="path5104"
     style="fill:#fcc707;fill-opacity:1;fill-rule:nonzero;stroke:none" />
  <path
     d="M 264.40376,278.19188 L 237.33641,292.03998 C 223.91863,306.40038 209.40014,326.49021 206.35528,346.2323 C 207.64383,349.20626 211.64659,350.19632 214.02367,347.44675 L 226.59759,322.8868 C 237.22526,306.1646 258.75433,298.13031 272.84041,285.26038 C 273.48823,280.59931 268.95099,276.32022 264.40376,278.19188"
     id="path5112"
     style="fill:#000000;fill-opacity:1;fill-rule:nonzero;stroke:none" />
  <path
     d="M 220.07291,402.16068 C 218.58033,409.55265 244.47378,468.5806 228.82382,507.16801 C 229.47055,510.76743 231.94808,517.47442 229.59588,519.96804 C 225.40157,521.63727 221.1103,523.67111 218.84377,527.33693 C 220.17647,529.95168 217.33472,532.71393 218.66741,535.32858 C 219.06408,544.2296 206.35084,554.65594 200.49459,557.84171 C 198.54364,558.89998 196.60667,558.02267 194.95391,558.41983 C 196.95,552.77989 201.27093,544.39897 202.88125,538.66495 L 201.24437,537.12115 C 196.3643,539.77504 195.9211,538.28796 193.6325,543.48121 C 192.94883,544.45998 187.39248,558.08858 186.51746,558.26364 C 190.60991,540.29294 187.40536,535.77687 204.0176,524.15845 C 236.24984,514.55528 216.30572,426.42524 201.71563,377.6189"
     id="path6919"
     style="fill:#fcc707;fill-opacity:1;fill-rule:nonzero;stroke:none" />
  <path
     style="fill:#fcc707;fill-opacity:1;fill-rule:evenodd;stroke:#000000;stroke-width:3.51600003;stroke-linecap:round;stroke-linejoin:round;stroke-miterlimit:4;stroke-dasharray:none;stroke-opacity:1"
     id="path7564"
     d="M 70.539909,155.46976 L 74.90311,112.2487 L 35.025316,95.026687 L 74.633422,77.197245 L 69.605679,34.047951 L 104.85058,59.439573 L 139.70063,33.512294 L 135.33743,76.733354 L 175.21522,93.955373 L 135.60712,111.78481 L 140.63486,154.93411 L 105.38995,129.54249 L 70.539909,155.46976 z" />
  <path
     style="fill:#000000;fill-opacity:1;fill-rule:nonzero;stroke:#231f20;stroke-width:0;stroke-linecap:square;stroke-linejoin:miter;stroke-miterlimit:4;stroke-dasharray:none;stroke-opacity:1"
     id="path2544"
     d="M 141.01213,155.84582 C 140.69835,155.74156 105.33281,129.43256 105.08606,129.41222 C 105.4066,129.32803 105.34033,95.734152 105.41758,94.863754 C 115.34551,114.63046 130.41378,136.46025 141.01213,155.84582 z" />
  <path
     style="fill:#000000;fill-opacity:1;fill-rule:nonzero;stroke:#231f20;stroke-width:0;stroke-linecap:square;stroke-linejoin:miter;stroke-miterlimit:4;stroke-dasharray:none;stroke-opacity:1"
     id="path2548"
     d="M 69.214526,33.684161 C 69.528299,33.788427 104.77942,59.422653 105.02617,59.442993 C 104.70563,59.527181 105.41729,93.693171 105.34005,94.692651 C 95.412117,74.925949 79.812878,53.069737 69.214526,33.684161 z" />
  <path
     style="fill:#000000;fill-rule:evenodd;stroke:#000000;stroke-width:0.7663843px;stroke-linecap:butt;stroke-linejoin:miter;stroke-opacity:1"
     id="path2554"
     d="M 75.433873,112.51725 L 70.768501,155.38036 L 104.72617,95.538418 L 75.433873,112.51725 z" />
  <path
     style="fill:#000000;fill-rule:evenodd;stroke:#000000;stroke-width:0.7663843px;stroke-linecap:butt;stroke-linejoin:miter;stroke-opacity:1"
     id="path2556"
     d="M 35.036768,95.088772 L 104.72577,94.5056 L 74.98402,76.718864 L 35.036768,95.088772 z" />
  <path
     style="fill:#000000;fill-rule:evenodd;stroke:#000000;stroke-width:0.7663843px;stroke-linecap:butt;stroke-linejoin:miter;stroke-opacity:1"
     id="path2558"
     d="M 139.49114,33.897474 L 134.89243,76.627262 L 106.31701,93.893037 L 139.49114,33.897474 z" />
  <path
     style="fill:#000000;fill-rule:evenodd;stroke:#000000;stroke-width:0.7663843px;stroke-linecap:butt;stroke-linejoin:miter;stroke-opacity:1"
     id="path2560"
     d="M 106.63315,95.121796 L 175.28953,93.764161 L 135.34228,111.5509 L 106.63315,95.121796 z" />
  <path
     style="fill:#000000;fill-rule:evenodd;stroke:#000000;stroke-width:1px;stroke-linecap:butt;stroke-linejoin:miter;stroke-opacity:1"
     d="M 192.15005,356.42945 C 187.95509,308.40294 217.06403,314.31598 220.9845,274.47892 C 220.84411,273.9902 223.60982,270.00393 223.6403,286.99914 C 219.2141,307.01225 196.43966,326.56665 199.87893,352.03026 C 200.69254,357.23458 198.7469,359.98624 203.81291,368.97047 L 194.80585,365.91447 L 192.15005,356.42945 z"
     id="path2660"
     sodipodi:nodetypes="ccccccc" />
  <path
     style="fill:#000000;fill-rule:evenodd;stroke:#000000;stroke-width:1px;stroke-linecap:butt;stroke-linejoin:miter;stroke-opacity:1"
     d="M 180.90432,314.47686 C 191.51483,286.48128 189.92419,299.14388 194.71557,278.9023 C 194.57518,278.41358 200.17135,269.85503 197.80683,283.58433 C 193.38063,302.44746 179.96847,313.4945 183.40774,341.21271 L 182.25376,323.74415 L 180.90432,314.47686 z"
     id="path2662"
     sodipodi:nodetypes="cccccc" />
  <path
     style="fill:#000000;fill-rule:evenodd;stroke:#000000;stroke-width:1px;stroke-linecap:butt;stroke-linejoin:miter;stroke-opacity:1"
     d="M 170.31666,302.68134 C 171.16053,300.45482 172.92865,274.82641 173.06155,276.70534 C 174.14741,292.27539 180.13733,288.64007 181.11227,286.53722 C 185.32081,277.45981 185.33712,280.71006 188.91792,265.58269 C 188.77753,265.09397 194.3737,256.53542 192.00918,270.26472 C 187.58298,289.12785 174.17082,300.17489 177.61009,327.8931 L 173.84338,318.69819 L 170.31666,302.68134 z"
     id="path2664"
     sodipodi:nodetypes="cssccccc" />
  <path
     style="fill:#000000;fill-rule:evenodd;stroke:#000000;stroke-width:1px;stroke-linecap:butt;stroke-linejoin:miter;stroke-opacity:1"
     d="M 179.72349,249.24187 C 180.80935,264.81192 183.31563,254.42705 184.29057,252.3242 C 197.81011,251.19364 202.2717,227.40763 203.46113,240.40625 C 192.5031,262.09984 189.10641,245.7132 173.82111,276.04414 C 175.884,268.01041 178.27708,259.24115 179.72349,249.24187 z"
     id="path2666"
     sodipodi:nodetypes="ccccc" />
</svg>
