<?xml version="1.0"?>
<svg xmlns="http://www.w3.org/2000/svg" height="592" width="576" xmlns:xlink="http://www.w3.org/1999/xlink">
<path d="m7.0582 6.489 13.288 346.36c5.331 134.09 131.62 232.64 267.65 232.64s262.01-98.55 267.35-232.64l13.59-346.36z" stroke="#000" stroke-width="13" fill="#fff"/>
<path d="m288.02 13.016h-274.19l13.029 339.59c5.192 130.13 128.28 226.37 261.16 226.37" stroke="#fff" stroke-width="3"/>
<path d="m411.23 521.39c-21.95 0-38.5-9.7-38.5-22.56 0-9.78 9.64-17.9 24.51-21.11v-22.97h-69.23v-229.17h48.44c5.71-8.08 20.74-16.54 34.54-16.54 13.79 0 28.82 8.46 34.53 16.54h48.95v229.17h-69.26v22.97c14.87 3.21 24.52 11.33 24.52 21.11 0 12.86-16.55 22.56-38.5 22.56z"/>
<path fill="#0081c9" d="m488.24 448.54v-216.75h-46.54c0-4.25-15.16-16.54-30.71-16.54-15.56 0-30.71 12.29-30.71 16.54h-46.06v216.75h69.23v34.42c-14.08 1.77-24.52 8.2-24.52 15.87 0 9.03 14.46 16.35 32.3 16.35 17.83 0 32.29-7.32 32.29-16.35 0-7.67-10.44-14.1-24.52-15.87v-34.42h69.24z"/>

<g transform="matrix(.95218 0 0 .95218 6.686 1.1171e-7)">
<g fill="#fff">
<circle cy="288.55" cx="105.61" r="46"/>
<circle cy="288.55" cx="234.36" r="46"/>
<circle cy="372.3" cx="170.36" r="46"/>
<circle cy="455.55" cx="106.98" r="46"/>
<circle cy="457.55" cx="231.73" r="46"/>
<circle cy="138.34" cx="211.27" r="9.957"/>
<circle cy="138.84" cx="237.02" r="9.957"/>
<circle cy="140.59" cx="260.65" r="9.957"/>
<circle cy="163.34" cx="269.15" r="9.957"/>
<circle cy="160.97" cx="244.77" r="9.957"/>
<circle cy="158.47" cx="222.02" r="9.957"/>
<circle cy="158.47" cx="197.9" r="9.957"/>
<circle cy="179.97" cx="206.4" r="9.957"/>
<circle cy="180.34" cx="230.15" r="9.957"/>
<circle cy="183.59" cx="253.15" r="9.957"/>
<circle cy="200.3" cx="216.98" r="9.957"/>
<circle cy="203.3" cx="239.11" r="9.957"/>
<circle cy="222.55" cx="225.23" r="9.957"/>
</g>
<circle cy="128.63" cx="348.27" r="10.77"/>
<circle cy="145.01" cx="330.65" r="10.77"/>
<circle cy="132.88" cx="372.52" r="10.77"/>
<circle cy="139.51" cx="394.27" r="10.77"/>
<circle cy="150.26" cx="355.02" r="10.77"/>
<circle cy="155.76" cx="377.27" r="10.77"/>
<circle cy="161.38" cx="399.65" r="10.77"/>
<circle cy="166.38" cx="336.77" r="10.77"/>
<circle cy="172.76" cx="359.9" r="10.77"/>
<circle cy="178.76" cx="382.65" r="10.77"/>
<circle cy="188.51" cx="341.15" r="10.77"/>
<circle cy="195.38" cx="364.27" r="10.77"/>
<circle cy="210.26" cx="346.4" r="10.77"/>
</g>

<rect y="247.61" width="55.226" x="350.05" height="36.342"/>
<rect y="247.61" width="55.226" x="420.52" height="36.342"/>
<rect y="298.09" width="55.226" x="350.05" height="36.342"/>
<rect y="298.09" width="55.226" x="420.52" height="36.342"/>
<rect y="349.51" width="55.226" x="350.05" height="36.342"/>
<rect y="349.51" width="55.226" x="420.52" height="36.342"/>
<rect y="399.03" width="55.226" x="350.05" height="36.342"/>
<rect y="399.03" width="55.226" x="420.52" height="36.342"/>


<path d="m427.81 498.83c0 4.82-3.91 8.73-8.73 8.73h-15.71c-4.82 0-8.73-3.91-8.73-8.73s3.91-8.73 8.73-8.73h15.71c4.82 0 8.73 3.91 8.73 8.73z"/>
<path d="m428.35 232.26c-1.65-6.91-8.53-12.26-17.12-12.26s-15.48 5.35-17.13 12.26z"/>

<g fill="#fff">
<path d="m230.41 117.46c-0.24 2.44 0.04 1.7 1.96 1.86 1.13 0.1 2.39 0.35 3.4 0.7 1.52 0.54 1.58 0.65 2.01-1.03 1.54-5.93 3.13-13.59 8.84-19.141 3.44-3.35 8.87-6.078 15.59-6.844 7.32-0.833 12.01 3.036 12.26 7.495 0.11 2.07-3.99 2.5-8.63 3.04-2.09 0.24-4.07 0.95-6.2 1.07-2.84 0.16-5.48-0.14-7.25 0.3-4.48 1.09-7.52 7.06-6.43 10.29 0.56 1.64 2.97 1.79 5.18 1.85 6.6 0.17 15.65-0.28 23.37-1.15 5.85-0.66 10.01-1.41 12.54-3.26v-10.11c0.01 0.02-9.87-20.407-26.15-19.285-15.92 1.097-29.2 21.035-30.49 34.215z"/>

<rect height="24.794" width="42.401" y="253.39" x="356.46"/>
<rect height="24.794" width="42.401" y="253.39" x="426.93"/>
<rect height="24.794" width="42.401" y="303.86" x="356.46"/>
<rect height="24.794" width="42.401" y="303.86" x="426.93"/>
<rect height="24.794" width="42.401" y="355.28" x="356.46"/>
<rect height="24.794" width="42.401" y="355.28" x="426.93"/>
<rect height="24.794" width="42.401" y="404.8" x="356.46"/>
<rect height="24.794" width="42.401" y="404.8" x="426.93"/>
<path fill="#fff" d="m421.08 498.83c0 1.95-2.32 3.54-5.19 3.54h-9.33c-2.87 0-5.19-1.59-5.19-3.54s2.32-3.54 5.19-3.54h9.33c2.87 0 5.19 1.59 5.19 3.54z"/>
<path fill="#fff" d="m421.07 227.85c-0.95-2.01-4.91-3.56-9.84-3.56-4.94 0-8.9 1.55-9.85 3.56-0.32 0.69 0.2 0.75 1.09 0.73h17.51c0.89 0.02 1.42-0.04 1.09-0.73z"/>
<path d="m204.78 58.191c1.27-3.235 2.36-7.994-1.01-12.675-4.24-5.879 3.85-8.809 6.78-2.142 5 11.367 3.35 18.945-3.45 24.339-3.13 2.489-7.14 4.344-12.73 4.344-10.73 0-15.96-6.971-17.41-14.085-0.94-4.648 0.02-9.359 1.1-12.219 4.14-11.001 24.99-26.423 44.99-14.045-13.1-1.868-22.06 0.944-28.84 4.92-4.14 2.425-8.2 5.126-9.84 8.57-1.75 3.65-1.85 9.525-0.24 13.49 1.72 4.221 4.83 7.3 9.94 7.3 4.7-0.001 8.62-2.499 10.71-7.797z"/>
<path d="m228.54 107.19c0.6-3.55 0.04-3.62-3.31-3.95-10.01-0.96-18.87-1.85-26.86-5.116-23.88-9.75-37.21-29.202-24.79-53.719 1.98-3.921 5.32-8.064 8.65-12.219-12.57 1.953-19.4 15.053-20.71 25.113-1.81 13.842 5.43 27.942 13.97 36.366 1.57 1.548 7.72 4.999-1.62 3.652-14.59-2.102-32.58-5.145-48.16-10.634-5.93-2.089-14.46-4.887-17.99-7.603-1.84-1.412-5.23-5.886-4.52-8.093 1.07-3.333 8.61-1.965 9.99-1.071 5.36 3.451 12.99 5.81 17.98 3.094 9.4-5.118 7.26-15.592 9.88-25.114 0.81-2.948 3.96-4.141 2.19-5.223-3.65-2.222-10.29 1.653-15.84 3.24 3.57-14.918-13.81-8.093-21.11-22.773-2.14 5.396-10.353 7.419-12.141 12.854-1.904 5.792 1.599 8.701 2.222 14.6 0.577 5.466-0.749 11.584-7.36 12.032-7.966 0.539-8.681-7.298-7.796-14.571 0.854-7.019 2.926-12.963-2.063-17.299-7.261-6.308-17.021-3.927-26.899-0.952-2.786 0.839-8.391 0.238-12.558-1.071-3.575-0.762-3.252 0.538-2.142 2.856 1.309 2.738 1.186 6.531 1.369 8.451 0.755 7.969-8.377 19.912 0.952 31.898 5.341 6.861 13.711 6.456 19.367 4.223 6.031-2.38 10.117-3.125 12.815 0.246 4.109 5.133-2.903 12.75-8.298 11.322-10.948-2.898-14.168-3.754-18.251 0.317-6.586 6.566 1.15 14.834-6.586 25.784-1.497 2.02-1.443 2.28 0.855 2.83 13.392 3.18 13.002 5.2 21.047 4.15 8.266-1.07 12.238-4.21 18.011-8.96 2.875-2.37 2.196-1.88 3.159 1.09 0.455 1.41 0.975 2.88 1.597 4.05 2.002 3.79 1.957 2.55 3.623-0.02 5.553-8.58 19.997-11.36 20.107-19.324 0.08-5.872-15.685-7.209-11.268-13.331 3.391-4.701 14.418 2.105 29.758 8.094 7.16 2.797 15.87 5.475 23.25 7.781 6.74 2.1 13.64 3.71 19.12 4.52 4.24 0.63 4.1 1.08 0.22 3.31-5.48 3.16-12.06 7.65-16.88 12.72-9.64 10.11-15.88 22.21-21.43 16.66-2.65-2.65-1.13-5.75 1.27-8.02 2.64-2.47 6.14-4.08 5.64-7.13-1.31-7.94-13.21-3.83-21.55-5.74-1.79-0.41-3.24-1.59-4.42-2.7-2.22-2.1-2.19-3.71-3.76-0.01-1.32 3.1-1.62 7.32-1.12 11.6 0.38 3.23 1.04 3.52-3.76 1.92-2.29-0.77-5.118-1.36-9.67-0.32-8.371 1.92-7.434 14.96-25.831 20.74-5.969 1.87-4.688 1.37-0.804 5.27 5.694 5.71 11.389 12.93 20.328 12.84 3.11-0.04 11.565-4.05 15.117-7.66 5.14-5.22 10.55-9.44 13.57-2.94 1.03 2.23-0.48 5.77-3.49 8.18-4.29 3.41-9.69 2.37-13.414 6.34-4.675 5-3.571 11.98-2.142 20.4 0.335 2.58 0.155 5.33 0.238 7.63-0.058 1.01-1.182 4.78-0.238 5.18 1.249 0.54 5.186-1.48 6.966-1.72 7.56-1.04 23.93-0.9 29.81-8.63 4.17-5.48-1.68-13.07-2.1-19.76-0.24-3.76 1.37-6.72 4.6-6.67 4.45 0.08 6.11 5.15 6.11 9.45 0 3.09-3.02 5.03-0.79 9.44 2.97 5.87 12.81 4.79 17.82 15.11 1.23 2.54 1.12 3.74 5.03 0.82 6.91-5.16 11.21-12.07 10.87-22.52-0.13-4.14-0.75-9.64-7.22-13.37-5.85-4.85 2.3-2.63 2.7-2.6 3.14 0.22 6.36 0.02 8.71-0.79 4.32-1.49 1.59-2.11 0.18-3.64-1.34-1.46-2.57-3.1-2.78-4.67-0.62-4.55 2.36-16.26-4.37-18.17-6.68-1.89-12.17 0.84-15.79 4.68-1.76 1.88-2.2 4.41-3.81 6.03-3.18 3.22-7.5 4.23-9.64 1.91-3.28-3.58-0.81-7.71 5-12.98 4.62-4.18 9.8-8.85 15.83-12.65 5-3.15 10.97-5.7 14.17-6.87 10.57-3.86 36.54 0.7 47.41-0.49 1.94-0.22 3.22-4.31 3.78-7.7z"/>
</g>

<path d="m414.64 37.711c36.29 20.564 90.19 10.451 126.66-9.175 8.86-4.768 5.34-1.748 3.07 3.474-0.62 1.436-1.25 3.053-1.84 4.856-3.68 11.207-5.32 25.508-12.22 31.263-8.57 7.142-15.85 5.638-22.39 5.084-19.68-1.666-35.86-10.055-46.64 4.914-4.01 5.556-5.89 12.356-5.72 18.727 0.36 13.146 7.95 24.966 12.98 23.746 2.42-0.58 3.3-6 1.71-9.56-2.02-4.52-4.1-9.61-0.68-15.033 6.86-10.897 15.11-6.1 23.6-9.073 3.19-1.117 6.62-3.523 9.27-7.283 1.45-2.062 1.4-4.312 4.09-1.076 2.59 3.11 2.83 9.222 2.5 14.959-0.18 3.159-1.64 3.457-0.66 4.547 0.81 1.083 1.34-0.154 5.11 0.233 15.75 1.62 25.25 12.626 28.17 22.226 1.39 4.55 1.76 3.93-2.9 4.26-14.18 1-14.51 12.71-20.35 17.49-2.18 1.74-4.19 1.62-6.54 1.52-4.62-0.2-3.44 0.2-1.18 2.15 8.48 7.29 8.37 12.56 8.6 19.37 0.95 14.36-1.73 15.86-3.89 23.4-0.72 2.5-1.57 5.99-1.75 8.54-0.09 1.34 0.99 6.14 0 6.54-0.98 0.41-3.89-3.4-4.82-4.22-2.11-1.88-4.54-3.77-7.91-4.11-11.23-1.11-23.92 6.43-32.81-2.62-10.05-10.22 9.2-32.69-2.06-34.75-3.69-0.68-5.92 3.69-5.44 7.26 0.69 3.8 5.67 4.28 2.7 13.33-3.21 7.97-12.5 12.1-19.88 16.15-1.25 0.8-2.32 1.66-3.27 2.51-4.52 4.03-4.16 4.49-5.66-0.2-0.82-2.55-1.74-5.41-2.97-8.7-1.74-4.65-4.23-10.26-5.12-14.88-0.77-3.98-0.51-7.67 0.05-10.72 0.62-3.43 0.22-3.18-1.67-2.66-2.89 0.81-5.61 1.29-8.02 1.08-6.18-0.54-10.24-3.97-9.46-6.54 0.62-2.06 5.62-0.58 9.14-6 6.35-9.76 4.49-26.7 19.84-27.89 12.05-0.93 10.62 4.51 13.33 8.27 1.27 1.77 3.93 2.75 5.05 1.95 5.91-4.26-6.18-11.04-10.29-20.33-5.09-11.524-3.98-28.168 7.03-40.947-24.48 2.4-42.57 5.316-51.86 10.791-11.68 7.483-17.61 19.836-22.93 29.086-0.69 1.43-0.97 2.98-1.62 4.3-0.44 0.89-0.12 1.84-1.04 2.56-1.09 0.86-2.09-0.12-3.57-1.07-2.5-1.62-5.42-2.95-8.05-3.14-0.89-0.06-3.08 0.18-3.41-0.63-0.48-1.23 1.05-3.13 1.39-3.73 2.86-4.56 6.27-9.235 9.14-13.371 3.75-5.41 2.5-4.549-3.18-2.501-8.05 2.898-20.2 7.515-32.75 11.662-16.81 5.56-33.58 10.26-42.92 11.19-2.38 0.24-2.78 5.43-2.78 5.43v-27.543c0 2.047 0.59 5.205 1.76 5.594 2.39 0.119 4.16-0.842 7.15-1.487 1.36-0.295 3.15-0.391 4.82-0.833 5.51-1.675 11.85-3.867 16.72-6.19 4.62-1.436 1.3-2.504-0.07-3.265-12.38-6.903-14.17-20.437-13.09-26.411 0.92-5.09 0.46-5.057-1.01-8.649-0.44-1.09-0.87-2.158-1.36-3.134-1.25-2.476-2.72-4.509-3.1-7.063-0.39-2.622 0.14-5.762 0.95-8.252 1.11-3.365 3.13-6.1 6.1-7.413 3.07-1.359 4.49-1.272 4.22-0.363-0.22 0.744-1.84 2.159-2.3 2.778-4.92 6.634-1.37 12.742 1.62 15.711 6.37-10.93 20.8-16.623 32.74-16.346 6.82 0.159 15.56 3.728 18.89 9.217 4.03 6.656 2.88 17.845-4.14 24.743-4.48 4.406-12.19 6.919-19.57 7.2-6.43 0.246-12.86-0.535-18.99-5.534-1.05-0.854-0.97-3.648-0.31-6.081 1.28-4.748 2.26-2.452 4.33-0.955 12.33 8.875 30.24 3.043 31.69-4.866 2.14-11.664-14.28-15.237-20.24-13.806-21.3 5.118-21.7 26.466-15.59 34.417 9.78 12.722 27.63 6.848 50.35-1.329 14.02-5.051 30.58-10.847 45.84-14.156 7.4-1.608 4.84-2.118 0.79-3.711-2.77-1.091-6.5-2.192-8.91-3.032-5.06-1.768-2.68-2.272-0.93-4.255 1.62-1.822 2.98-3.96 3.98-5.841 2-3.751 2.31-3.032 4.48-1.804z"/>
<path d="m131.88 146.68c-1.53-1.22-3-1.74-4.29-2.67-0.85-0.62-1.51-1.7-2.45-2.28-0.43-0.27-2.05-0.75-2.49-1-2.82-1.58-3.57-2.79-7.71-2.77-5.67-0.26-8.6 1.97-13.17 4.44-2.569 1.39-5.396 2.7-8.097 4.29 4-0.71 6.447-1.06 9.577-2.21 4.23-1.54 7.15-3.92 12.32-3.59 3.37 0.22 6.24 2.71 9.53 5.68 0.92 0.83 3.12 1.58 3.42 3.03 0.35 1.73-3.25 5.95-5.86 11.19-2.27 4.52-4.6 9.72-7.15 13.99-2.19 3.68-4.87 6.73-6.01 8.92 5.72-2.28 11.08-12.83 15.66-21.24 1.68-3.11 3.64-5.92 4.94-7.92 2.43-3.77 2.09-3.61 5.77-1.63 3.49 1.88 7.6 4.31 11.07 7.91 5.5 5.71 9.39 14.46 10.65 16.81 0.71-1.34-0.66-12.41-12.56-22.37-2.53-2.12-5.39-3.85-8.97-5.8-1.48-0.81-1.79-1.22-0.86-2.99 0.46-0.87 1.02-1.73 1.32-2.22 1.54-2.53-0.41-3.09-2.14-0.9-0.65 0.82-1.57 2.87-2.5 3.33z"/>
<g fill="#fff">
<path d="m491.21 168.82c-10.83-6.19-14.36-16.27-19.76-22.14-1.68-1.83-5.69-4.57-9.88-1.19-3.31 2.67-8.06 6.13-11.54 11.49-1.45 2.22-2.68 5.06-3.22 7.97-0.25 0.53-0.24 1.61-1.1 1.37-0.6-0.16-0.42-1.65-0.37-2.15 0.29-3.02 1.7-7.01 3.38-10.11 3.3-6.08 8.41-11.89 13.09-13.45 1.11-0.37 4.58-1.54 2.38-4.04-0.46-0.52-0.95-1.85-1.19-2.5-1.31-3.51 2.26-6.55 3.69-3.22 0.44 1.02 1.6 2.92 2.26 3.81 2.2 2.98 4.88 1.01 6.61-1.72 3.8-6.03 11.6-16.72 24.57-13.87-4.09 1.45-8.07 3.04-11.6 5.3-5.77 3.68-10.35 8.46-12.38 12.26-2.51 4.7-2.38 6.48-0.3 10.89 2.81 5.94 11.25 14.82 15.36 21.3z"/>
<path d="m499.27 142.85c1.75 0.02 3.41 0.17 4.97 0.14-2.74-1.84-3.65-3.58-6.72-5.11-1.25-0.62-3.39-0.11-4.18 0.09-2.74 0.72-3.44 3.36-0.11 4.43 1.48 0.47 3.79 0.42 6.04 0.45z"/>
<path d="m523.9 45.912s-13.49 10.632-7.7 20.313c0.8 1.331 2.46 2.34 3.13 1.507 0.79-0.991-0.48-1.916-1.1-3.53-2.71-6.972 5.67-18.29 5.67-18.29z"/>
</g>
<path d="m108.51 37.184c0.3 10.325-1.21 16.68-3.71 20.768-3.43 5.621-8.54 7.197-11.842 11.05-2.608 3.042-2.498 3.521-5.713 1.983-1.259-0.602-3.915-1.959-7.22-3.531-3.574-1.699-7.899-3.7-11.824-6.625-8.231-6.136-15.237-14.778-19.478-19.123-1.251-1.282-2.151-0.803-1.031 0.595 2.756 3.449 5.914 6.83 9.164 10.434 3.828 4.245 7.855 8.68 12.538 12.141 4.104 3.033 9.265 5.331 13.568 7.181 4.523 1.944 5.237 3.328 0.873 8.054-3.158 3.421-3.245 9.78-6.824 14.917-4.924 7.062-13.618 13.082-20.234 17.492 4.196-1.61 8.213-4.28 12.2-7.2 2.392-1.75 4.971-3.45 7.022-5.471 2.482-2.45 4.621-5.82 6.294-7.838 1.145-1.381 1.495-4.75 2.514-7.337 1.287-3.27 3.824-6.456 5.772-7.617 1.073-0.64 3.754 0.113 4.999 0 0.981-0.09 3.497-1.993 0.714-2.201-4.761-0.358-2.017-2.937-1.429-3.75 0.93-1.283 2.08-2.648 3.75-3.868 1.667-1.221 3.857-2.297 5.537-3.809 2.43-2.194 4.51-5.292 4.88-7.438 0.83-4.941 2.32-16.189-0.52-18.807z"/>
</svg>
