<?xml version="1.0" encoding="UTF-8" standalone="no"?>
<!-- Created with Inkscape (http://www.inkscape.org/) -->

<svg
   xmlns:dc="http://purl.org/dc/elements/1.1/"
   xmlns:cc="http://creativecommons.org/ns#"
   xmlns:rdf="http://www.w3.org/1999/02/22-rdf-syntax-ns#"
   xmlns:svg="http://www.w3.org/2000/svg"
   xmlns="http://www.w3.org/2000/svg"
   version="1.1"
   width="700"
   height="759.65424"
   id="svg2">
  <defs
     id="defs4" />
  <metadata
     id="metadata7">
    <rdf:RDF>
      <cc:Work
         rdf:about="">
        <dc:format>image/svg+xml</dc:format>
        <dc:type
           rdf:resource="http://purl.org/dc/dcmitype/StillImage" />
        <dc:title></dc:title>
      </cc:Work>
    </rdf:RDF>
  </metadata>
  <g
     transform="matrix(1.0011427,0,0,1.0011427,-0.79989624,-0.70228631)"
     id="g3907">
    <path
       d="M 576.12124,3.2854458 C 390.50657,3.7062995 204.86869,3.5887626 19.272331,5.5216585 14.365655,6.0613998 9.3407225,5.7050773 4.6730625,7.4384165 7.1612672,72.434836 14.082018,137.15382 18.343982,202.04173 c 7.27042,96.04129 12.22852,192.43647 23.850347,288.02505 4.353108,32.51325 12.88814,64.52943 28.152831,93.63973 11.558296,25.59184 28.336819,48.58022 48.47977,67.86153 22.83066,24.03903 46.43769,48.5792 77.05841,62.40325 30.76119,15.18784 63.48544,26.94178 96.52443,35.69813 40.87439,8.5525 83.54646,3.98756 123.89169,-4.99072 50.17449,-11.47803 98.58523,-33.89965 136.05807,-69.42431 29.23846,-25.78851 55.38562,-56.67004 71.26531,-92.69397 28.65177,-61.28932 34.56053,-129.61688 40.96673,-196.20446 5.87645,-71.80404 10.79373,-143.68955 17.90947,-215.38649 4.82264,-55.7601 8.4647,-111.613517 13.002,-167.396505 -39.79287,-0.3460275 -79.58774,-0.3511 -119.3818,-0.2875192 z"
       id="path2996-1"
       style="fill:#d20e00;fill-opacity:1" />
    <path
       d="m 339.21534,401.67809 c -40.77425,-0.55754 -78.99445,21.05311 -106.76319,49.61198 -15.71421,16.05551 -27.38206,35.65604 -32.48893,57.53457 -13.31095,41.3584 -10.05707,88.38795 12.33807,126.02237 14.77195,25.25203 36.46465,45.53692 60.88198,61.24449 15.88509,6.50498 31.91945,13.89697 49.41552,14.06749 26.29333,1.20669 53.56193,0.57472 78.32102,-8.81235 35.65346,-14.78243 68.1577,-40.92587 83.39378,-77.16536 20.20428,-46.30112 18.68534,-102.2936 -5.65434,-146.56778 -16.63665,-26.63597 -40.47209,-49.01052 -68.90726,-62.85459 -22.06378,-9.66163 -46.4745,-13.29314 -70.53665,-13.08082 z"
       id="path2998-8-1"
       style="fill:#e6e6e6" />
    <path
       d="m 343.81336,417.24234 c -50.90724,0.72663 -100.1708,31.30617 -122.19246,77.5578 -16.9292,33.71431 -17.51458,73.97535 -7.35076,109.72255 9.74522,29.34484 31.90965,52.80642 56.7855,70.0752 24.35589,16.89687 54.44956,26.74694 84.2827,22.27125 40.0666,-5.22185 79.57253,-25.15149 104.05528,-57.79448 40.11452,-56.2488 29.13941,-141.45736 -22.17043,-187.26686 -25.13947,-23.1966 -59.32643,-35.50574 -93.40983,-34.56546 z m -3.13061,23.73586 c 6.76107,0.29247 6.96487,9.09707 7.25161,14.15198 1.0361,21.33689 -2.86049,42.87139 -1.34175,64.05157 -0.47803,4.42337 7.32064,4.12087 7.79487,0.67082 -1.72703,-2.34591 -5.82432,-2.58358 -5.71827,-6.35719 -2.2826,-18.61459 0.50795,-37.5836 3.79504,-55.91401 1.17777,-3.62342 1.8604,-11.87651 7.29013,-10.43766 4.57261,5.23932 3.46048,13.50999 5.04744,19.93424 2.94293,25.20188 2.08181,51.24939 7.57127,75.87155 -1.49612,6.73747 -10.24556,6.86608 -15.55773,8.68929 -11.70897,2.54156 -23.57292,4.49225 -35.42796,5.90994 10.69578,-0.74421 1.82009,5.10153 0.70284,6.2295 16.40285,-6.96523 34.58945,-10.84443 52.39127,-9.77555 4.9553,1.85409 -0.01,6.87435 -2.74743,8.30594 -2.49831,2.05956 -8.58195,6.46687 -9.20035,7.57122 5.88104,-3.21175 15.03858,0.63678 13.92834,8.14616 0.074,3.49984 -3.56943,7.38895 -4.88777,8.81706 3.83336,-1.30339 9.01767,-1.40664 12.20341,-2.90702 -2.0715,-5.06473 -0.88283,-10.91558 2.36395,-15.36602 6.74336,-8.90796 14.96504,-17.3428 17.18692,-28.75131 2.896,-7.57144 6.49024,-15.61127 13.00199,-20.60506 5.65234,-0.36208 3.42666,7.65537 3.92931,11.02129 -1.46892,20.75041 -4.19133,41.66317 -9.17135,61.80514 -7.81648,24.78143 -31.30665,39.85724 -43.98659,61.6978 -0.72655,3.11138 -2.41367,6.03701 -5.94198,6.58075 -16.51249,3.62496 -33.89321,1.19882 -50.47454,4.40864 -4.63874,1.27855 -9.89079,-1.873 -9.32811,-6.9962 -2.38126,-35.70969 -15.35704,-70.16588 -16.13371,-106.12377 -0.35788,-24.17594 2.61136,-48.56277 8.275,-71.91067 1.63109,-4.1729 2.62697,-11.91598 8.40177,-11.78809 5.56679,3.38126 4.03315,11.50655 4.63214,17.155 0.51715,14.56988 -3.77533,28.98377 -2.77924,43.47832 2.01737,-0.46075 5.08826,-1.57645 6.83641,-2.17232 -5.34089,-7.28868 -2.6718,-17.36283 -3.34142,-25.81178 0.91514,-16.25826 0.86312,-33.14717 5.80121,-48.65407 1.73344,-4.64784 8.57625,-4.42744 9.96712,0.35136 6.25133,17.51269 3.10821,36.82784 3.3017,55.10662 0.043,4.87878 -0.053,9.81419 0.78738,14.63133 3.63536,-23.99429 -2.87079,-49.1972 5.33499,-72.58109 1.36346,-3.67996 3.71129,-8.29141 8.24209,-8.43371 z m 88.64982,69.73785 c 4.43805,0.99783 2.60966,7.35716 2.04449,10.66992 -1.58287,4.67954 -3.43737,10.72411 -8.21008,12.87426 -4.51318,-1.64024 -2.38265,-8.10527 -1.72503,-11.69231 1.62899,-4.17618 3.42426,-10.12312 7.89062,-11.85187 z m -89.54436,79.16192 c -1.656,2.21568 -3.43126,4.87551 -3.73771,7.50735 1.05722,-2.99505 2.6803,-5.7517 4.47247,-8.36993 l -0.66292,0.77825 -0.071,0.0838 z"
       id="path2998-0"
       style="fill:#2c5aa0;fill-opacity:1" />
    <path
       d="M 688.72156,9.3346309 C 460.11739,18.752389 211.12563,-9.1025265 8.12379,13.349325 28.662127,16.400544 23.029593,377.0956 33.414878,374.40141 242.13663,377.48519 450.8846,376.18578 659.61886,375.82993 650.7222,373.93353 698.98361,7.4508121 688.72156,9.3346309 z"
       id="path2998-5"
       style="fill:#ffd42a" />
    <path
       d="M 307.72469,757.59671 C 232.35513,743.38662 157.87114,709.36854 109.14859,648.20322 50.303429,583.15821 32.94975,493.5185 30.812332,408.4562 19.449171,274.27893 13.297483,136.36117 0.79898324,2.2675236 87.804872,-0.92644407 174.07177,3.4071896 261.22787,1.7925107 407.48485,1.2891485 553.74264,1.0683311 700.00002,0.70148472 691.16982,141.59357 676.96254,282.0861 665.5671,422.77506 c -7.56554,82.49559 -24.99933,169.5465 -83.5385,232.0913 -68.53858,74.08261 -173.8946,114.0291 -274.30391,102.73035 z m 113.72246,-24.97035 c 77.57203,-19.25117 144.99533,-73.53411 185.68411,-141.57665 38.30335,-64.5825 39.42622,-140.89824 47.97482,-213.25069 -202.94353,-0.24174 -405.88705,-0.48344 -608.830575,-0.72509 0.862444,74.40983 3.581756,153.72105 44.863187,218.43268 C 151.34663,697.53022 275.36786,761.76 393.60663,738.13913 c 9.35326,-1.43136 18.66822,-3.20201 27.84052,-5.51277 z M 655.93878,356.34897 C 665.09713,244.79982 673.1819,133.07513 679.92059,21.38699 459.43616,17.678333 238.86326,19.874261 18.33988,20.384244 27.322814,134.58233 33.672473,248.95685 42.348304,363.17322 c 104.482336,6.08085 209.455096,3.58522 314.148226,4.82058 99.18552,0.29916 198.37103,0.59832 297.55654,0.89748 0.62857,-4.18077 1.25714,-8.36154 1.88571,-12.54231 z"
       id="path2998-8"
       style="fill:#000000" />
    <path
       d="m 295.71922,675.66679 c -0.36748,-1.40608 -9.34403,-46.66169 -12.95808,-65.32993 -5.51957,-28.51191 -6.23412,-63.6058 -1.99886,-98.17964 3.90048,-31.84101 6.39019,-40.42047 13.91283,-47.94301 5.03924,-5.03924 9.16214,-10.76461 9.16214,-12.72316 0,-4.85465 14.82207,-12.45223 19.11585,-9.79844 1.90432,1.17687 4.11349,0.18659 4.90908,-2.20017 1.74945,-5.24824 22.45487,-8.11943 22.45487,-3.11381 0,1.94275 3.27259,3.53221 7.27242,3.53221 12.48045,0 15.52212,8.78226 16.14632,46.62018 0.74706,45.28302 6.41621,76.15367 12.8106,69.75927 2.44238,-2.44228 4.61714,-5.66064 4.83284,-7.15186 2.98145,-20.60638 28.75813,-46.07211 41.63346,-41.13142 8.43288,3.23597 8.04339,8.54854 -1.81198,24.71487 -4.84955,7.95515 -8.99825,22.9201 -10.20104,36.79662 -2.39386,27.61847 -10.26517,44.36628 -31.70245,67.45275 -9.22286,9.93251 -15.74022,20.75795 -15.74022,26.14496 0,8.8807 -1.02199,9.19556 -30.01823,9.24668 -16.50999,0.031 -33.93993,1.10383 -38.73315,2.38846 -4.79322,1.28442 -8.8821,1.69642 -9.0864,0.91544 z m 45.88291,-14.6582 c 12.33317,-0.19329 20.33495,-2.03908 20.33495,-4.69077 0,-2.40476 5.66474,-10.80753 12.58829,-18.67304 30.62913,-34.79615 31.60801,-36.5694 36.45255,-66.04107 2.62637,-15.97744 4.81213,-34.2789 4.85725,-40.6699 0.079,-11.19892 -0.13016,-11.33929 -5.77289,-3.87327 -3.22036,4.26056 -6.87543,12.10406 -8.12243,17.42984 -1.24711,5.32578 -6.62681,14.37246 -11.95499,20.10373 -5.70657,6.13827 -8.73483,12.90285 -7.36917,16.46157 1.27492,3.32271 1.06572,6.06504 -0.46523,6.09415 -1.53094,0.031 -7.14085,1.11834 -12.46673,2.42077 -9.17304,2.24299 -9.295,2.06711 -2.31322,-3.33861 7.19278,-5.5692 5.85573,-14.62828 -2.15905,-14.62828 -8.93232,0 -26.63059,16.70779 -29.98632,28.3083 -3.40755,11.7793 -3.59233,11.87875 -3.9253,2.11112 -0.33736,-9.89929 5.18431,-16.06657 35.20375,-39.32003 8.94763,-6.93096 8.89591,-6.95677 -10.92739,-5.45044 -10.95451,0.8326 -27.51302,5.33898 -36.79642,10.01435 -14.62798,7.36696 -15.61406,7.49753 -7.39358,0.97907 l 9.4857,-7.52154 -9.4857,-1.77956 c -8.20337,-1.53905 -7.87121,-1.8509 2.45669,-2.30712 6.56828,-0.29004 21.90681,-2.52862 34.08591,-4.97451 18.00861,-3.61675 21.63857,-5.60561 19.44001,-10.65166 -1.48692,-3.41255 -3.75302,-25.37738 -5.03584,-48.81093 -1.32854,-24.26715 -3.99974,-42.60653 -6.20581,-42.60653 -5.84483,0 -12.08495,65.0458 -6.4213,66.93371 6.95736,2.31902 5.28365,8.59526 -2.29382,8.60146 -6.09194,0 -6.58208,-3.47368 -4.84154,-34.35893 2.12763,-37.75388 1.29193,-46.98625 -4.25326,-46.98625 -7.26992,0 -11.74869,21.79265 -10.5368,51.27022 0.76287,18.55809 -0.32236,30.59772 -2.84468,31.55908 -2.72342,1.03811 -3.62575,-9.56523 -2.71651,-31.92245 1.26011,-30.986 -2.53933,-48.67397 -9.05569,-42.15771 -4.84594,4.84604 -8.75714,66.42226 -4.5491,71.62217 2.15484,2.66289 2.97564,4.84165 1.82378,4.84165 -1.15165,0 -4.53909,0.93825 -7.52744,2.08491 -4.49528,1.72503 -4.91588,-2.12053 -2.43598,-22.27149 5.63243,-45.76896 -4.64615,-52.83378 -11.48626,-7.89492 -6.42621,42.21974 -5.71837,61.88777 3.84656,106.87615 4.60043,21.63787 8.2686,43.29856 8.15145,48.1348 -0.17889,7.38998 1.42239,8.52263 10.03386,7.09684 5.63582,-0.93305 19.39749,-1.83969 30.5817,-2.01488 z M 427.6649,517.37725 c 0,-5.1644 -0.4172,-5.1644 -3.75472,0 -2.0651,3.19545 -3.75472,8.42438 -3.75472,11.61993 0,5.1644 0.41721,5.1644 3.75472,0 2.0651,-3.19555 3.75472,-8.42448 3.75472,-11.61993 z"
       id="path2998-8-17"
       style="fill:#000000" />
    <path
       d="m 144.01322,576.45514 a 107.40651,110.62468 0 1 1 -214.813017,0 107.40651,110.62468 0 1 1 214.813017,0 z"
       transform="matrix(1.4525292,0,0,1.4102738,292.13315,-254.98509)"
       id="path2997"
       style="fill:none;stroke:#000000;stroke-width:6.28822899;stroke-miterlimit:4;stroke-opacity:1;stroke-dasharray:none" />
    <path
       d="m 144.01322,576.45514 a 107.40651,110.62468 0 1 1 -214.813017,0 107.40651,110.62468 0 1 1 214.813017,0 z"
       transform="matrix(1.2981979,0,0,1.260432,298.47723,-168.09353)"
       id="path2997-1"
       style="fill:none;stroke:#000000;stroke-width:6.25402784;stroke-miterlimit:4;stroke-opacity:1;stroke-dasharray:none" />
    <path
       d="m 144.01322,576.45514 a 107.40651,110.62468 0 1 1 -214.813017,0 107.40651,110.62468 0 1 1 214.813017,0 z"
       transform="matrix(1.3482176,0,0,1.3089966,295.39778,-565.97227)"
       id="path2997-1-7"
       style="fill:#d20e00;fill-opacity:1;stroke:#000000;stroke-width:7.52749968;stroke-miterlimit:4;stroke-opacity:1;stroke-dasharray:none" />
    <path
       d="m 308.06929,71.828205 c 13.25446,31.998695 20.86514,65.991255 22.56826,100.510835 -34.50856,-1.70621 -68.48986,-9.35017 -100.47861,-22.60046 l 0,74.94847 c 31.98875,-13.25029 65.9701,-20.89424 100.47861,-22.60045 -1.70621,34.50865 -9.31792,68.5222 -22.56826,100.51081 l 74.94852,0 C 369.76738,270.6088 362.12347,236.59525 360.41735,202.0866 c 34.50863,1.70621 68.52215,9.35012 100.51076,22.60045 l 0,-74.94847 c -31.98861,13.25034 -66.00213,20.89425 -100.51076,22.60046 1.70302,-34.51958 9.34601,-68.51214 22.60046,-100.510835 l -74.94852,0 z"
       id="path12-0"
       style="fill:#ffd42a;fill-opacity:1;stroke:#000000;stroke-width:9.2307682;stroke-miterlimit:4;stroke-opacity:1;stroke-dasharray:none" />
  </g>
</svg>
