<?xml version="1.0" encoding="UTF-8" standalone="no"?>
<!-- Generator: Adobe Illustrator 14.0.0, SVG Export Plug-In . SVG Version: 6.00 Build 43363)  -->
<svg
   xmlns:dc="http://purl.org/dc/elements/1.1/"
   xmlns:cc="http://creativecommons.org/ns#"
   xmlns:rdf="http://www.w3.org/1999/02/22-rdf-syntax-ns#"
   xmlns:svg="http://www.w3.org/2000/svg"
   xmlns="http://www.w3.org/2000/svg"
   xmlns:sodipodi="http://sodipodi.sourceforge.net/DTD/sodipodi-0.dtd"
   xmlns:inkscape="http://www.inkscape.org/namespaces/inkscape"
   version="1.0"
   id="Ebene_1"
   x="0px"
   y="0px"
   width="531.49603"
   height="559.13385"
   viewBox="0 0 595.28 841.89"
   enable-background="new 0 0 595.28 841.89"
   xml:space="preserve"
   sodipodi:version="0.32"
   inkscape:version="0.45.1+0.46pre1+devel"
   sodipodi:docname="Heitersheim.svg"
   inkscape:output_extension="org.inkscape.output.svg.inkscape"><metadata
   id="metadata2468"><rdf:RDF><cc:Work
       rdf:about=""><dc:format>image/svg+xml</dc:format><dc:type
         rdf:resource="http://purl.org/dc/dcmitype/StillImage" /></cc:Work></rdf:RDF></metadata><defs
   id="defs2466"><inkscape:perspective
   sodipodi:type="inkscape:persp3d"
   inkscape:vp_x="-50 : 600 : 1"
   inkscape:vp_y="0 : 1000 : 0"
   inkscape:vp_z="700 : 600 : 1"
   inkscape:persp3d-origin="300 : 400 : 1"
   id="perspective2454" /><inkscape:perspective
   sodipodi:type="inkscape:persp3d"
   inkscape:vp_x="-50 : 600 : 1"
   inkscape:vp_y="0 : 1000 : 0"
   inkscape:vp_z="700 : 600 : 1"
   inkscape:persp3d-origin="300 : 400 : 1"
   id="perspective2470" />
	
	
	
	
	
	
</defs><sodipodi:namedview
   inkscape:window-height="746"
   inkscape:window-width="1024"
   inkscape:pageshadow="2"
   inkscape:pageopacity="0.0"
   guidetolerance="10.0"
   gridtolerance="10.0"
   objecttolerance="10.0"
   borderopacity="1.0"
   bordercolor="#666666"
   pagecolor="#ffffff"
   id="base"
   showgrid="false"
   inkscape:zoom="0.95195344"
   inkscape:cx="265.74802"
   inkscape:cy="268.87544"
   inkscape:window-x="-4"
   inkscape:window-y="-30"
   inkscape:current-layer="Ebene_1"
   units="cm"
   inkscape:document-units="cm" />
<path
   style="fill:#e2001a"
   id="path2453"
   d="M -85.791182,24.096679 L -67.582713,483.45341 C -60.328932,666.87043 97.033686,816.68318 298.80721,816.68318 C 500.72876,816.68318 658.23941,666.87043 665.34515,483.45341 L 683.40559,24.096679 L -85.791182,24.096679 L -85.791182,24.096679 z" /><polygon
   style="fill:#ffffff;stroke:#000000;stroke-width:3.11382212;stroke-miterlimit:4;stroke-dasharray:none"
   id="polygon2455"
   points="321.328,438.008 260.992,273.416 321.328,319.64 381.808,273.416 321.328,438.008 "
   transform="matrix(2.0560601,0,0,2.0560601,-362.01052,-490.24732)" /><polygon
   style="fill:#ffffff;stroke:#000000;stroke-width:3.11382212;stroke-miterlimit:4;stroke-dasharray:none"
   id="polygon2457"
   points="321.328,438.008 156.736,498.488 202.96,438.008 156.736,377.672 321.328,438.008 "
   transform="matrix(2.0560601,0,0,2.0560601,-362.01052,-490.24732)" /><polygon
   style="fill:#ffffff;stroke:#000000;stroke-width:3.11382212;stroke-miterlimit:4;stroke-dasharray:none"
   id="polygon2459"
   points="321.328,438.008 381.808,602.744 321.328,556.448 260.992,602.744 321.328,438.008 "
   transform="matrix(2.0560601,0,0,2.0560601,-362.01052,-490.24732)" /><polygon
   style="fill:#ffffff;stroke:#000000;stroke-width:3.11382212;stroke-miterlimit:4;stroke-dasharray:none"
   id="polygon2461"
   points="321.328,438.008 486.064,377.672 439.768,438.008 486.064,498.488 321.328,438.008 "
   transform="matrix(2.0560601,0,0,2.0560601,-362.01052,-490.24732)" /><path
   style="fill:none;stroke:#000000;stroke-width:8.00275677;stroke-miterlimit:4;stroke-dasharray:none;stroke-opacity:1"
   id="path2463"
   d="M -85.791182,24.096679 L -67.582713,483.45341 C -60.328932,666.87043 97.033686,816.68318 298.80721,816.68318 C 500.72876,816.68318 658.23941,666.87043 665.34515,483.45341 L 683.40559,24.096679 L -85.791182,24.096679 L -85.791182,24.096679 z" />
</svg>