<?xml version="1.0" encoding="UTF-8" standalone="no"?>
<!-- Generator: Adobe Illustrator 14.0.0, SVG Export Plug-In . SVG Version: 6.00 Build 43363)  -->

<svg
   version="1.0"
   id="Ebene_1"
   x="0px"
   y="0px"
   width="531.49603"
   height="559.13385"
   viewBox="0 0 595.28 841.89"
   enable-background="new 0 0 595.28 841.89"
   xml:space="preserve"
   sodipodi:version="0.32"
   inkscape:version="1.1.1 (3bf5ae0d25, 2021-09-20)"
   sodipodi:docname="Wappen_Konstanz.svg"
   inkscape:output_extension="org.inkscape.output.svg.inkscape"
   xmlns:inkscape="http://www.inkscape.org/namespaces/inkscape"
   xmlns:sodipodi="http://sodipodi.sourceforge.net/DTD/sodipodi-0.dtd"
   xmlns="http://www.w3.org/2000/svg"
   xmlns:svg="http://www.w3.org/2000/svg"
   xmlns:rdf="http://www.w3.org/1999/02/22-rdf-syntax-ns#"
   xmlns:cc="http://creativecommons.org/ns#"
   xmlns:dc="http://purl.org/dc/elements/1.1/"><metadata
   id="metadata2578"><rdf:RDF><cc:Work
       rdf:about=""><dc:format>image/svg+xml</dc:format><dc:type
         rdf:resource="http://purl.org/dc/dcmitype/StillImage" /></cc:Work></rdf:RDF></metadata><defs
   id="defs2576"><inkscape:perspective
   sodipodi:type="inkscape:persp3d"
   inkscape:vp_x="-50 : 600 : 1"
   inkscape:vp_y="0 : 1000 : 0"
   inkscape:vp_z="700 : 600 : 1"
   inkscape:persp3d-origin="300 : 400 : 1"
   id="perspective3304" /><inkscape:perspective
   sodipodi:type="inkscape:persp3d"
   inkscape:vp_x="-50 : 600 : 1"
   inkscape:vp_y="0 : 1000 : 0"
   inkscape:vp_z="700 : 600 : 1"
   inkscape:persp3d-origin="300 : 400 : 1"
   id="perspective2580" />
	
	
	
	
	
	
</defs><sodipodi:namedview
   inkscape:window-height="1017"
   inkscape:window-width="1920"
   inkscape:pageshadow="2"
   inkscape:pageopacity="0.0"
   guidetolerance="10.0"
   gridtolerance="10.0"
   objecttolerance="10.0"
   borderopacity="1.0"
   bordercolor="#666666"
   pagecolor="#ffffff"
   id="base"
   showgrid="false"
   inkscape:zoom="0.67279205"
   inkscape:cx="-44.590301"
   inkscape:cy="480.83208"
   inkscape:window-x="-8"
   inkscape:window-y="-8"
   inkscape:current-layer="g3828"
   units="cm"
   inkscape:document-units="cm"
   inkscape:pagecheckerboard="0"
   inkscape:window-maximized="1" />
<g
   id="g3828"><polygon
     transform="matrix(2.0998413,0,0,2.0998413,-375.45543,-504.1191)"
     points="505.144,333.68 508.456,250.16 134.344,250.16 137.656,333.68 505.144,333.68 "
     id="polygon2561"
     style="fill:#da121a" /><path
     d="M 685.2668,196.55594 L 673.77647,490.31534 C 666.51942,677.63799 505.65478,830.64082 299.43356,830.64082 C 93.363538,830.64082 -67.349916,677.63799 -74.758156,490.31534 L -86.399676,196.55594 L 685.2668,196.55594 L 685.2668,196.55594 z"
     id="path2563"
     style="fill:#ffffff;stroke:#000000;stroke-opacity:1" /><path
     d="M 210.23231,196.55594 L 388.63482,196.55594 L 388.63482,820.51119 C 361.72326,826.86111 329.21771,830.48963 299.28238,830.64082 C 269.34704,830.64082 237.14387,827.16349 210.23231,820.96475 L 210.23231,196.55594 L 210.23231,196.55594 z"
     id="path2565"
     style="stroke:#000000;stroke-width:0.21600002" /><path
     d="M -55.406018,589.79742 C -67.198727,556.08237 -73.095082,522.51851 -75.060533,488.80346 L -78.084304,411.24372 L 677.25381,411.24372 L 673.77647,490.31534 C 672.56696,522.06494 665.76348,555.17524 654.57552,589.79742 L -55.406018,589.79742 z"
     id="path2567"
     style="stroke:#000000;stroke-width:0.21600002" /><g
     style="stroke:#000000;stroke-width:3.08635044;stroke-miterlimit:4;stroke-dasharray:none;stroke-opacity:1"
     transform="matrix(2.0952779,0,0,2.0536531,-374.76014,-488.70929)"
     id="g2569">
		<line
   x1="137.65601"
   y1="333.67999"
   x2="505.216"
   y2="333.67999"
   id="line2571"
   style="fill:none;stroke:#000000;stroke-width:3.08635044;stroke-miterlimit:4;stroke-dasharray:none;stroke-opacity:1" />
	</g><path
     d="M -93.35435,21.1772 L -74.758156,490.31534 C -67.349916,677.63799 93.363538,830.64082 299.43356,830.64082 C 505.65478,830.64082 666.51942,677.63799 673.77647,490.31534 L 692.22148,21.1772 L -93.35435,21.1772 L -93.35435,21.1772 z"
     id="path2573"
     style="fill:none;stroke:#000000;stroke-width:8.00275677;stroke-miterlimit:4;stroke-dasharray:none" /></g>
</svg>
