<svg width="487" height="512" xml:space="preserve" xmlns="http://www.w3.org/2000/svg"><path d="M243.5 512C109.23 512 0 406.6 0 277.05V0h487v277.05C487 406.6 377.77 512 243.5 512z"/><path fill="#69C" d="M6.43 6.43v270.62c0 126.2 106.14 228.51 237.07 228.51s237.07-102.31 237.07-228.51V6.43H6.43z" style="fill:#005198"/><path fill="#1A171B" d="M447.33 70.12c-2.15-14.19-5.77-29.77-20.08-36.96-45.74-23.33-117.21-20.3-117.21-20.3-18.77.46-37.46 1.69-55.03 5.04-96.5 18.39-175.95 80.18-175.95 80.18-2.15-4.15-4.19-8.38-6.23-12.57 1.15-.88 2.27-2 2.81-3.23.68-1.43.8-3.35-.12-4.69-.69-1.11-1.84-1.74-2.96-2.04-2.73-.69-5.34.3-7.54 1.38v-.11L62.41 56.2c-6.97-4.81-13.58-10.42-20-16.53L28.61 25.7c3.07 14.73 6.15 29.73 5.27 45.88l14.54 13.61c-2.54 1.24-5.31 3.73-5.42 6.73-.04 1.58.84 2.84 2.08 3.77 1.73 1.15 4.27 1 6.27.58l58.84 119.14-1 .07-14.42 13c-18.58 16.11-34.23 34.57-38.84 57.03-2.58 14.07-.88 29.34 4.62 41.53 13.77 17.81 22.03 37.85 24.49 60.34 1.08 8.73 3.65 16.8 7.15 24.54 6.46 14.61 20.73 28.45 34.88 35.91 29.18 20.27 64.56 27.23 102.68 24.34 7.79 7.04 15.03 14.63 20.96 23.54.32.05.64.11.97.16 6.26-3.09 12.54-6.17 18.8-9.27.58-.27 1.31-.81 1.31-1.54-2.54-6-3.29-15.48-4.21-20.73 3.28-1.19 6.81-2.39 10.1-3.58l14.81-6.23 37.96-17.81 5.04-2.19c2.8-.7 5.96-2.24 8.92-.81.65.31 1.15.96 1.11 1.69-.08.77-.5 1.39-1 1.96l-13.54 9.19c-6.87 5.04-14.68 10.27-19.57 17.69-2.07 3.42-3 8.27-1.46 12.27.35.5.96.5 1.46.46 6.31-4.84 13.31-7.92 20.69-10.15l17.77-4.81c6.49-2 13.58-4.85 17.34-11.49 4.42-9.7-2.69-18.24-7.23-26.08l-11.12-20.81c-5.76-10.73-16.84-16.96-28.26-18.15-16.16-1.28-32.84-.35-48.45 1.45l-14.77 2.05-19.96 3.53-19.69-13.61-17.83-36-.12-.47c.04.04.12.04.2.04l53.84 10.16 21.38 3.5 18 2.42 15.07 1.49 13.96.97 14.77.46c31.84-.39 63.61-.96 89.18-16.53 25-15 33.89-41.69 31.96-69.92-6.87-67.48-10.81-204.9-10.81-204.9zM196.55 399.51c-28.07 1.88-54.8-5.19-70.61-29.42-1.92-3.08-1.45-3.41-2.91-6.72 13.23-15.26 30.89-21.5 50.53-21.92 7.54 16.07 15.06 32.14 22.6 48.21.38 3.28.67 6.57.39 9.85z" style="fill:#000"/><path fill-rule="evenodd" clip-rule="evenodd" fill="#FCEE21" d="M193.61 327.02 82.29 101.64s112.4-79.32 197.72-82.05 99.66-14.04 153.07 24.44c11.2 8.06 9.71 26.43 10.66 40.67 0 0 2.55 129.03 9.41 188.42 3.22 27.93-6.66 55.05-32.09 68.92-22.42 12.79-47.75 14.69-75.21 14.69-78.16 0-147.05-19.22-147.05-19.22l-1.92-5.34c58.95-28.89 141.77-73.63 210.37-67.14 41.96 3.96 32.88 30.42 13.75 51.72-13.09 14.58-31.95 25.66-38.16 29.71 8.98-3.08 17.67-7.39 25.93-12.41 15.95-9.94 33.39-25.78 35.33-44.97.91-10.16-5.05-19.11-13.86-23.79-16.39-8.71-38.61-8.29-57.38-5.1-92.16 15.65-179.25 66.83-179.25 66.83zM44.42 45.58c4.88 4.47 9.96 8.62 15.11 12.31l2.65 20.27v.23l-4.23 2.07-9.52-18.16c-.43-.61-8.63-15.22-9.25-14.98-.54.3 6.4 15.45 6.56 16.06l9.52 18.43-4.04 1.96-14.27-13.35c.5-12.3-1.19-24-3.38-35.34l10.85 10.5zM267.2 460.96c-.92-3.19-1.34-6.81-1.27-10.83 1.96-1.66 3.42-3.73 3.5-6.29-.11-1.81-1.25-3.58-2.94-4.37-5.96-2.56-10.56 2.38-15.57 4.19l-11-22.35-.07-.04 18.5-9.23c1.54-1.21 2.3-2.9 1.89-4.79-.3-1.05-1.09-2.1-2.11-2.71-1.03-.57-2.41-.61-3.58-.37l-12.21-8.45 14.21-2.59 14.36-2.08c15.63-2.03 32.37-2.87 48.65-1.7 6.45.79 12.4 2.68 17.52 6.59 4.19 3.2 7.28 7.5 9.43 11.87l9 16.96c3.36 6.78 9.49 12.62 8.67 21.03-1.32 7.5-9.5 10.66-15.68 12.63l-17.22 4.64c-6.78 2.11-13.34 4.71-19.29 8.85-.37-6.71 5.01-11.38 9.88-15.6 7.58-6.1 15.49-11.34 23.36-16.63 1.43-1.28 2.41-2.74 2.38-4.63-.08-.8-.3-1.51-.76-2.15 14.3 2.35-9.99 24.86-10.33 25.55 4.97-1.28 9.73-3.51 14.02-6.71 4.23-3.39 7.58-7.76 7.02-13.19-.38-3.02-2.68-5.84-5.44-7.2-5.84-2.83-14.08-2.17-19.53.76-41.36 22.24-65.39 28.84-65.39 28.84zm-98.06-123.38c-23.71.38-47.04 11.53-58.01 33.92-7.08 13.46-7.58 33.36-.26 46.81 5.05 10.51 15.83 19.94 26.27 24.31l21.29 8.91 26.2 8.28c2.24-4.48-106.4-32.74-63.77-90.43 5.96 13.01 16.68 22.86 29.96 28.48 13.34 6.1 30.73 8.12 46.6 7.14 1.5 7.94-.17 16.54-.62 25.79-1.4 1.05-2.27 2.56-2.12 4.37.2 1.28 1.05 2.48 2.23 3.16 1.7 1.09 4.07.41 5.58-.52l12.92-6.37 11.08 22.28c-3.85 2.07-10.14 4.29-10.22 9.87.15 1.7 1.02 3.35 2.64 4.22l1.51.61c-35.02 1.66-66.79-6.07-93.59-25.02-20.43-10.97-34.38-32-37.51-53.82-2.11-23.34-10.55-43.99-24.65-62.35-5.91-12.97-6.89-30.84-2.44-44.78 5.28-17.75 18.2-32.75 33.17-46.09l15.98-14.52.33-.45 57.43 116.2zm-96-258.12c.23 1.62-1.04 2.89-2.3 3.81l-20.16 9.96c-1.15.38-2.73.5-3.88 0-.72-.31-.84-1.08-.68-1.77.34-1.15 1.27-2.23 2.34-2.89l20.11-9.89c1.46-.33 3.65-.79 4.57.78z" style="fill:#fcdb00"/><path fill-rule="evenodd" clip-rule="evenodd" fill="#1A171B" d="M236.36 85.42c2.3-.96-1.7 8.04-1.08 6.8-2.83 5.6-7.24 10.21-11.54 14.7 3.91.77 7.82 1.54 11.73 2.32-5.68 7.11-22.57 18.25-29.73 6.52-4.11-6.74-8.23-13.47-12.34-20.21-.23-.37 8.53-13.51 7.09-18.37-2.01-6.8-9.48-9.73-15.95-10.09-15.56-.87-26.18 11.79-42.6 6.62.96 5.12 4.42 8.04 9.42 8.92-16.83 10.12-35.42 22.81-55.69 22.69 13.03 30.01 42.02 16.87 63.61 4.58-10.69 18.68-28.43 31.46-50.03 20.84 4.16 11.62 11.42 25.17 25.47 25.71 14.56.56 28.1-9.86 39.75-17.21-7.48 10.31-21.43 33.51-36.46 32.45 7.84 9.39 18.57 17.19 31.13 11.88 10.89-4.61 18.46-14.67 26.18-23.18-5.8 15.04-13.22 34.37-28 42.84 22.2 9.54 39.92-8.92 52.91-24.65-1.86 11.23-6.54 21.9-15.07 29.65 24.31 8.23 37.72-19.62 48.26-36.03-2.69 8.63-3.68 17.69-6.92 26.18-5.81 15.24-18.95 23.95-34.65 26.97 6.95 4.92 15.96 5.25 24.15 4.74-4.25 4.83-22.32 30.72-29.61 23.61-4.9-3.2-12.75-23.97-20.73-13.76-1.25 1.82-6.88 12.1-5.27 14.15 2.92 4.07 14.18-8.38 15.92 3.58-9.3-1.05-22.73.02-18.07 13.23 1.48 4.19 3.22 9 5.89 2.85 2.4-5.53 8.45-5.79 13.49-4.19-9.3 7.54-18.9 19.54-2 24.65 2.63.79 16.39 3.58 8.68-1.72-6.5-4.47-4.4-9.04 1.4-13.16 2.58-1.83 11.06-6.69 14.3-3.92 1.66 6.88-5.73 10.8 6.4 7.22 3.25-.96 14.63-3.91 12.11-9.6-2.49-5.63-12.42-7.4-17.51-9.39 2.06-4.31 9.09-7.68 12.69-10.41l13.08-9.93c1.28 2.9 3.18 5.54 5.69 7.5.14-13.8-.57-32.57 10.15-43.07 2.97 6.46 3.24 13.98 2.63 20.95-.72 8.19-1.91 2.43-6.67 1.85 1.19 8.79 7.48 15.19 11.05 3.27 2.76-9.2 1.79-19.22.49-28.58 5.7 9.27 14.28 24.92 8.16 35.87-3.07 5.5-11.57 8.23-16.77 11.04-6.33 3.42-13.48 6.41-18.29 11.97-4.25 4.91-4.05 12.18 3.56 13.15 7.79.53 14.55-3.91 19.19-9.84-.41-.06-9.04.2-8-1.89 4.29-7.1 19.25-11.88 26.23-15.84.07 3.85-.78 7.65-2.34 11.15 5.37.65 12.72 4.25 14.92 9.61.62-5.95 3.17-11.64 7.93-15.42-3.11-2.06-6.01-4.93-7.69-8.3 5.54-.08 11.08-.15 16.63-.23 3.37-.05 6.76-.19 10.12-.03 8.67.41.95 3.98-1.87 6.45 5.14 1.98 33.66 1.38 23.62-10.65-5.97-6.49-16.09-5.07-23.98-4.83-6.19.19-13.55 1.58-19.71.4-14.64-1.33-16.11-25.81-15.81-36.3 3.07 7.35 6.62 14.6 11.84 20.69 2.53 2.95 6.78 8.17 11.32 7.39 4.63-1.69.95-9.47-.24-12.19-1 1.71-1.96 3.44-2.88 5.19-2.17.18-4.49-4.36-5.19-5.43-3.45-5.25-6.42-10.97-7.12-17.3 14.38 2.34 24.16 20.9 31.12 31.88 2.06-4.68 1.31-10.72-1.12-15.11 5.47.62 10.95 1.23 16.42 1.85 3.75.42 14.5-.31 17.54 2.72-7.1 7.79-17.25 23.21 1.74 19.65 3.97-.74 15.19-1.85 8.27-6.72-7.99-5.62 5.21-7.34 9.42-7.36 6.42-.03 13.08 1.64 10.49 9.43-.7 6.2-.29 6.03 5.37.67 4.11-3.89 10.81-11.42 5.09-16.86-4.9-4.02-11.39-4.71-17.3-5.81 2.82-2.93 6.68-5.69 10.96-4.51 5.27 1.45 8.1 5.84 6.54-2.96-2.51-14.21-14.29-9.32-22.66-3.26-4.41-9.26 14.41-9.63 10.82-12.54-6.94-5.61-16.92-14.45-19.98-.29-.97 4.5-.8 8.88-1.37 13.38-1.04 8.35-10.1 3.87-14.96 3.11-5.24-1.56-10.44-3.26-15.66-4.89 4.83-3.02 9.84-7.23 11.96-12.69-16.11 5.21-32.42 4.3-45.63-7.19-6.3-5.48-11.92-11.87-17.78-17.81 17.17 9.06 43.68 26.21 60.3 6.88-11.01-2.12-21.63-9.12-28.34-17.96 18.24 6.97 45.03 14.66 58.3-5.27-17.45 0-33.28-12.72-46.42-22.84 10.66 3.6 22.14 8.1 33.57 6.99 14.17-1.37 19.69-13.28 21.58-25.91-11.16 9.11-37.34-4.95-48.11-9.69 11.8.66 24.37 1.73 35.79-1.94 17.46-5.61 19.23-22.24 15.79-38.02-13.58 19.51-34.94 18.25-53.81 7.15 23.61.24 58.04-3.7 52.14-35.8-17.71 10.54-39.81 8.2-59.66 8.34 3.66-3.12 5.55-7.65 3.46-12.34-12.32 13.05-30.04 6.59-42.68 17.61-5.3 4.63-8.52 12.24-3.96 18.54 1.3 1.81 13.68 8.64 13.69 8.35-.01 7.92-.02 15.85-.04 23.77-.02 13.65-20.73 12.58-28.96 9.06 3.84-3.38 7.81-6.62 11.53-10.15-10.15-2.67-12.95-10.94-12.99-20.61 6.85.69 12.13-.97 14-8.15-4.98 0-10.27-.5-14.37-3.6-5.48-4.14-6.75-10.87-11.57-15.43-7.32-6.92-23.37-7.55-30.92.09-6.39 6.47-19.35 7.99-11.47 20.29 5.28 8.23 4.15 2.04 9.49-.99 5.82-3.31 13.98 2.14 18.69 5.18-7.3-1.2-12.6 1.68-19.18 4.01-7.72 2.73-5.32 1.39-12.44 1.49 7.12 19.43 17.6 3.28 29.5.08-3.26 5.6-11.17 14.95-18.83 11.98 1.36 7.58 15.72 1.21 19.26-.26" style="fill:#000"/><path fill-rule="evenodd" clip-rule="evenodd" fill="#FFF" d="M238.13 46.91c.08 1.96-1.16 4.23.57 5.62.62.54 2.38-.31 3.19-.46 2.47-.07 2.12-3.92 4.7-.8.19 1.58-1 2.85-2.15 3.88-1.38 1.15-3.27 1.65-5.12 1.15-1.85-.46-3.42-2.27-4.04-4.04-.39-1.58-.81-3.65-.04-5.23.27-.15.5-.39.9-.39.61-.03 1.67-.35 1.99.27z"/><path fill-rule="evenodd" clip-rule="evenodd" fill="#ED1C24" d="M231.32 53.77c3.57 2.77 6.54 6.42 6.92 10.84-5.92-3.54-13.26-7.77-20.42-4.27-1.69 1-3.43 2.73-4.42 4.47-1.92-2.39-3.84-5.35-3.3-8.81 1.38-4.85 6.65-6.54 10.69-8.15 3.45 2.04 7.25 3.35 10.53 5.92zm3.57 17.08c-6.66 1.74-11.38 8.19-18.31 9.3-1.88.31-3.8-.07-5.19-1.42-.96-.88-1.5-1.92-2.04-2.96 9.66 2.84 16.01-5.73 25.54-4.92zM75.52 97.81l-16.16 7.96-5.3-10.73 16.04-7.96.27.27 5.15 10.46zm301.2 89.18 5.35 4.24c-3.61.73-7.5 1.84-9.5 5.46-1.65 3.31-.38 7.26 1.27 10.19.43.5 1.2.65 1.78.38 4.45-3.34 8.61-7.31 14.42-7.42 3 .16 4.24 3.38 4.92 5.73l.47 2.46c-2.69-1.76-7.47-2.39-10.62-.58-3.27 1.51-6.31 4.51-8.62 7.5-.27.43 0 .96.23 1.35l.89.65c6.49.88 13.19 1.35 18.54 5.04.84.77 1.38 1.65 1.45 2.69-.19 3.97-3.38 6.88-6.04 9.7.69-3-.2-5.96-2.69-7.89-4.19-2.81-9.66-2.88-14.96-2.61-4.2 1-9.08 1.22-11.66 5.27-.81 1.96.23 3.89 1.58 5.35l1.99 1.72c-4.46 1.16-8.99 2.66-13.96 2.12-.38-.15-1-.27-1.03-.81.27-3.15 2.5-5.58 4.23-8.15l5.76-7.07c.39-.65.31-1.51.08-2.19-.96-1.89-3.04-2.5-4.89-2.93l-33.69-3.8-3-3.77c3.96-1.62 8.12-3.2 11.92-5.31l17.81 5.54 8.84 2.42c3.92.27 7.73-1.31 9.69-4.88 1.23-3.18.77-7 1.23-10.54.5-3.84.85-7.8 3.08-10.96 1.75-1.28 3.63.22 5.13 1.1zm-130.87 53.26-24.91 18.85c-1.5 1.27-2.88 2.81-3.04 4.73 0 1.04.69 1.92 1.54 2.46 5.39 1.97 10.97 3.38 15.69 6.96.43.47.88 1.04.54 1.66-3.16 3.03-7.3 3.76-11.19 5.11l-2.23.58c.65-1.96 1.46-4.46.46-6.5-.96-1.8-2.88-2.39-4.8-2.34-7.61.81-14.42 4.27-19.58 10.41-1.15 1.81-2 3.97-1.3 6.23.39 1.31 1.19 2.46 2.11 3.58-3.38-.88-6.8-1.73-9.53-4.24-.77-.96-1.23-2.04-.93-3.34 1.31-4.76 5.96-8.5 9.85-11.77l3.57-2.77c.24-.46.55-1.16.16-1.66-1.15-1.31-3-1.22-4.5-1.84-4.88-1.34-11.04-1.23-14.5 3.08l-1.46 2.19c-.99-2.46-2.3-6.12-.69-8.92 2.77-2.85 6.96-2.66 10.96-2.5 2.15.19 4.27.5 6.46.7.43-.16.84-.58 1.11-1.01-.12-3.89-1.11-7.92-4.81-9.96-3.15-1.69-7.35-.65-10.38.47 1.31-3.23 1.84-7.2 4.73-9.73 2.08-.61 3.5 1.11 5 2.23 4.08 4 6.88 8.5 10.11 12.84 2.12 2.04 4.93 2.81 7.93 2.16 1.69-.47 3.31-1.08 4.65-2.34l9-9.54 14.54-16.34 5.77-.96c-.83 3.53-1.01 7.87-.33 11.52zm-31.73 139.22-13.99 6.89-25.62-51.77 14.43-7 25.57 51.57-.39.31zm36.23 25.61c-16.46 8.16-32.92 16.33-49.38 24.49 1.1-13.8 2.12-27.73-.04-40.23 5.71-2.82 9.72-4.8 15.42-7.61.58.36 1.16.72 1.74 1.07 10.75 7.44 21.5 14.86 32.26 22.28zm5.99 2.23c.16.62-.03 1.2-.41 1.62l-1.16.77-53.88 26.58c-.54.07-1.19.12-1.66-.23-.5-.38-.46-1.12-.27-1.62.38-1.11 1.61-1.08 2.38-1.7l53.04-26.11c.78-.23 1.63 0 1.96.69zm-9.6 38.19L231 453.27l-11.31-22.89 16.12-7.96 11.27 22.8-.34.28zm18.27-2.72c.61.57.8 1.49.53 2.34-.42 1.27-1.5 2.5-2.69 3.27l-36.22 17.89c-1.5.54-3.65.66-5.03-.23-.58-.54-.81-1.19-.7-2 .34-1.73 1.85-3.23 3.39-4.03l35.56-17.54c1.58-.63 3.74-.67 5.16.3zm-13.31 49.67c-5.9-9.43-13.1-17.55-21.61-24.38 10.75-5.33 21.48-10.66 32.22-16 .67 11.74 2.89 22.32 6.16 32.11-5.59 2.77-11.18 5.53-16.77 8.27z" style="fill:#da251d"/><path fill-rule="evenodd" clip-rule="evenodd" fill="#FCEE21" style="fill:#fcdb00" d="m172.55 332.2-.31-.34L61.75 108.08l15.08-7.54 110.75 224.24-16.03 7.92z"/><path fill="#ED1C24" d="M224.49 87.13s11.09-5.02 14.26-15.05c0 0 1.06 6.73-.79 10.96 0 0-6.95 3.49-13.47 4.09z" style="fill:#da251d"/></svg>