<svg xmlns="http://www.w3.org/2000/svg" height="490" width="424"><path d="M4 5.003v280c.003 110.455 97.546 199.994 208 199.994s207.997-89.54 208-199.994v-280z" fill="#fff"/><path d="M4 5.003l362.072 413.994c-18.58 17.525-71.221 65.609-154.072 66-82.85.39-208-65.472-208-199.994v-280" fill="#0f47af" fill-rule="evenodd" stroke="#000" stroke-width="3" stroke-linecap="round" stroke-linejoin="round"/><g fill="#0f47af" fill-rule="evenodd" stroke="#000" stroke-width="3" stroke-linecap="round" stroke-linejoin="round"><path d="M243.115 138.399l-9.653 11.48c2.783 7.567 13.133 12.35 18.604 5.844 5.47-6.505-1.019-15.88-8.95-17.324zm17.083 16.976c5.48 5.914-.313 12.803-7.08 8.42-3.218 3.826-12.315 5.323-18.438.174-5.358-4.505-10.072-9.775-7.741-15.655l-6.889-5.792c-1.53-1.287-.609-7.045-2.14-8.332l-78.069-65.644 7.08-8.42 9.184 7.724 13.515-16.073 8.42 7.079-5.793 6.888 6.889 5.792 5.792-6.888 7.654 6.436-5.793 6.888 6.889 5.792 5.792-6.888 8.42 7.08-13.516 16.072 30.616 25.743c1.53 1.287 7.045-.61 8.575.678l6.889 5.792c5.392-3.305 10.628-.209 16.751 4.94 6.123 5.148 6.21 14.367 2.993 18.194z"/><path d="M180.885 138.399l9.653 11.48c-2.783 7.567-13.133 12.35-18.604 5.844-5.47-6.505 1.019-15.88 8.95-17.324zm-17.083 16.976c-5.48 5.914.313 12.803 7.08 8.42 3.218 3.826 12.315 5.323 18.438.174 5.358-4.505 10.072-9.775 7.741-15.655l6.889-5.792c1.53-1.287.609-7.045 2.14-8.332l78.069-65.644-7.08-8.42-9.184 7.724-13.515-16.073-8.42 7.079 5.793 6.888-6.889 5.792-5.792-6.888-7.654 6.436 5.793 6.888-6.889 5.792-5.792-6.888-8.42 7.08 13.516 16.072-30.616 25.743c-1.53 1.287-7.045-.61-8.575.678l-6.889 5.792c-5.392-3.305-10.628-.209-16.751 4.94-6.123 5.148-6.21 14.367-2.993 18.194z"/></g><path d="M65 350l-15 10v55c28.007 32.075 61.37 55.455 105 68V360l-15-10V200l10-10h10v-30h-15l-37.5-85c6.5-2 8.5-20-5-20s-11.5 18-5 20L60 160H45v30h10l10 10z" fill="#da121a" fill-rule="evenodd" stroke="#000" stroke-width="3.067" stroke-linecap="round" stroke-linejoin="round" transform="matrix(.95652 0 0 1 2.957 -6.583)"/><path d="M50 360h105m-90-10h75M65 200h75m-85-10h95m-90-30v15h17v-15h17v15h17v-15h17v15h17v-15" fill="none" stroke="#000" stroke-width="3.067" stroke-linecap="round" stroke-linejoin="round" transform="matrix(.95652 0 0 1 2.957 -6.583)"/><path d="M89.043 343.417v-38c0-12 23.914-12 23.914 0v38zM90.957 239.417v-24c0-12 20.086-12 20.086 0v24z" fill-rule="evenodd"/><g><path d="M65 350l-15 10v55c28.007 32.075 61.37 55.455 105 68V360l-15-10V200l10-10h10v-30h-15l-37.5-85c6.5-2 8.5-20-5-20s-11.5 18-5 20L60 160H45v30h10l10 10z" fill="#da121a" fill-rule="evenodd" stroke="#000" stroke-width="3.067" stroke-linecap="round" stroke-linejoin="round" transform="matrix(-.95652 0 0 1 421.043 -6.583)"/><path d="M50 360h105m-90-10h75M65 200h75m-85-10h95m-90-30v15h17v-15h17v15h17v-15h17v15h17v-15" fill="none" stroke="#000" stroke-width="3.067" stroke-linecap="round" stroke-linejoin="round" transform="matrix(-.95652 0 0 1 421.043 -6.583)"/><path d="M334.957 343.417v-38c0-12-23.914-12-23.914 0v38zM333.043 239.417v-24c0-12-20.086-12-20.086 0v24z" fill-rule="evenodd"/></g><g stroke="#000" stroke-linecap="round"><path d="M177 356v-5.65h9.616v-25c0-5 5.616-5 5.616 0v25h5.615v-25c0-5 5.616-5 5.616 0v25h5.616v-25c0-5 5.616-5 5.616 0v25h5.616v-25c0-5 5.615-5 5.615 0v25h5.616v-25c0-5 5.616-5 5.616 0v25H248V356h-10.842v13c0 5-5.616 5-5.616 0v-13h-5.616v13c0 5-5.615 5-5.615 0v-13h-5.616v13c0 5-5.616 5-5.616 0v-13h-5.616v13c0 5-5.616 5-5.616 0v-13h-5.615v13c0 5-5.616 5-5.616 0v-13z" fill="#fff" fill-rule="evenodd" stroke-width="2" stroke-linejoin="round"/><path d="M177 364v118l-25.783-5.583L152 299l-5-5v-35h10l20-50-3.708-3.74c-5.29.789-6.074-4.249-2.855-7.007 3.22-2.758 8.69.765 5.71 4.931L182 209h60l5.853-5.816c-2.98-4.166 2.49-7.689 5.71-4.93 3.219 2.757 2.434 7.795-2.855 7.007L247 209l20 50h10v35l-5 5 .783 177.417L247 482V364c0-20-15-40-35-40s-35 20-35 40z" fill="#da121a" fill-rule="evenodd" stroke-width="3"/><path d="M152 299h120m-115-40h15.714v18h15.715v-18h15.714v18h15.714v-18h15.714v18h15.715v-18H267" fill="none" stroke-width="3"/></g><path d="M4 5.003v280c.003 110.455 97.546 199.994 208 199.994s207.997-89.54 208-199.994v-280z" fill="none" stroke="#000" stroke-width="6" stroke-linecap="round" stroke-linejoin="round"/></svg>