<svg enable-background="new 0 0 834.25 871.188" height="521.70532" viewBox="0 0 500 521.70533" width="500" xmlns="http://www.w3.org/2000/svg"><g clip-rule="evenodd" transform="translate(5.278087 -354.76591)"><path d="m470.5266 548.50785c-10.07756 46.08595-26.60349 89.62449-50.08669 130.42074-32.95678 54.38032-69.94423 95.58921-118.68677 137.73312-16.92801 13.62751-39.02832 31.41072-56.80037 44.0175-19.42612-13.76016-37.9577-26.60232-56.3807-41.58161-64.37571-56.8978-113.785631-119.13403-147.551241-198.98795-30.448098-82.21819-38.6315309-165.15249-28.19064-251.5393h464.246331c6.48006 61.2519 5.07781 119.35533-6.54992 179.9375z" fill="none" stroke="#000" stroke-width="17.609"/><g fill-rule="evenodd"><path d="m470.5266 548.50785c-10.07756 46.08595-26.60349 89.62449-50.08669 130.42074-32.95678 54.38032-69.94423 95.58921-118.68677 137.73312-16.92801 13.62751-39.02832 31.41072-56.80037 44.0175-19.42612-13.76016-37.9577-26.60232-56.3807-41.58161-64.37571-56.8978-113.785631-119.13403-147.551241-198.98795-30.448098-82.21819-38.6315309-165.15249-28.19064-251.5393h464.246331c6.48006 61.2519 5.07781 119.35533-6.54992 179.9375z" fill="#fcdb00"/><g transform="matrix(.5869626 0 0 .5869626 .682515 359.95022)"><path d="m122.898 30.457c-.786 20.526 22.836 31.29 38.788 37.631 21.093 7.76 43.408 12.598 66.07 16.771l33.471 5.339c18.654 3.005 40.27 5.007 49.51 23.781 5.143 12.682 5.926 27.451 5.231 41.969-2.093 13.768-10.112 29.121-25.278 33.71-8.457 1.668-18.216 1.001-25.624-2.42-4.447-3.004-1.136-8.427-.787-12.35.873-4.59 1.481-10.18-1.569-14.018-2.528-2.919-6.537-3.253-10.285-2.67-11.942 3.673-23.098 15.271-29.112 25.701-8.02 12.766-5.321 31.456 3.399 43.137 8.454 10.263 18.914 23.864 33.819 23.364 12.639.667 22.053-6.343 31.38-13.601 8.802-6.258 22.575-8.513 32.947-3.922l9.24 3.588 1.481-.417c-4.01-35.044 33.733-58.325 60.492-73.26 10.285-8.177 21.965-17.773 22.4-30.873-.173-3.587-2.962-7.259-6.624-8.427-13.859-3.086-25.104 6.759-33.383 16.938-1.744-13.768 6.188-24.365 17.17-32.791-9.152 2.419-15.775 11.681-24.93 14.518-14.293 3.755-31.9 2.503-42.011-8.762-1.831-2.001-2.877-4.255-3.836-6.508-.347-1.083.435-1.669 1.308-1.918 2.615.917 4.443 3.588 6.885 4.84 5.58 3.753 14.295 3.92 20.223.75 10.982-5.256 19.263-16.772 31.728-18.607 5.492-1.252 12.291-.918 17.521.667.608-.667-.437-1.25-.612-1.919-6.362-5.756-15.515-5.006-23.708-6.591-7.323-.668-14.905-.25-19.874 5.506-4.619 5.592-6.711 12.099-9.414 18.44-6.711-.501-12.551-6.006-15.167-11.596-4.271-8.345-3.397-20.277 2.877-27.454 8.717-9.928 21.095-12.433 33.907-13.099 3.225-10.18 12.901-20.776 24.406-22.195 22.313-3.004 42.274 4.421 61.973 10.179 20.399 8.428 51.342 15.269 70.083-1.251 1.569 13.017 3.484 29.871-10.375 36.795-9.674 3.756-21.092.752-30.157-2.419-5.144-2.001-10.199-4.255-15.078-6.758 1.48 4.088 3.746 8.176 5.402 12.35 7.496 17.019 8.717 38.881 5.057 57.989-5.232 21.943.872 44.806 21.092 57.572l2.79 1.67c-3.05 2.501-8.89 2.668-12.987 1.418-4.446-1.586-8.455-4.256-12.464-6.759.61 14.185 3.747 27.703 8.89 40.301 2.79.917 5.84 1.001 8.806 1.669 9.412-4.173 20.832-8.427 31.813-4.506 10.983 2.754 18.307 13.684 29.114 16.688 12.901 4.506 26.759.583 35.562-9.678 13.336-12.434 22.14-28.287 17.434-46.31-3.484-12.933-14.905-24.698-26.934-32.375-3.836-1.919-9.152-3.254-13.423-1.418-8.457 5.34-3.573 16.103-2.701 23.528.26 1.585-.175 2.838-1.134 3.923-6.451 4.755-15.43 4.172-23.709 4.005-14.468-1.669-23.795-16.688-27.196-28.619-3.05-11.599-.61-24.531.524-36.129 1.482-11.849 10.023-24.282 22.313-28.537 6.102-2.419 12.552-3.922 19.265-5.089l44.365-6.926c30.594-5.921 61.19-11.764 87.688-27.117 10.024-6.174 18.393-15.854 17.955-27.451 14.818.334 30.683 3.254 37.655 17.021 5.667 16.104-4.444 30.039-15.775 41.469-15.43 14.353-33.474 22.695-52.472 28.953-1.483.834-2.355 2.253-2.528 3.756 0 1.585 1.045 3.086 2.528 3.921 1.394.834 3.484.5 5.054.249 30.681-5.672 58.663-18.857 80.802-43.387 7.932 15.686 16.038 40.051 1.656 55.487-7.061 7.676-16.04 11.599-25.103 15.269l-31.556 10.681c-5.229 2.252-10.546 4.338-14.905 8.51-.959 1.085-1.656 2.92-.783 4.255 4.098 5.09 11.941 2.587 18.217 3.254 25.54-1.335 49.509-6.259 68.512-22.778 2.353-2.42 4.532-4.923 6.277-7.511 6.537 12.517 11.415 30.122 3.398 43.639-9.328 14.685-25.889 20.275-41.315 24.782-16.823 4.422-34.692 6.341-52.736 8.093-1.046.333-2.004 1.167-2.528 2.087-.349 1.334 0 2.753 1.224 3.671l2.002 1.167c23.449 4.673 46.81 10.847 72.522 8.844 8.104-1.083 15.861-2.835 22.749-6.841 1.656 16.103 1.395 34.459-12.814 45.307-18.041 11.848-44.364 6.842-65.372 4.506-11.418-1.502-22.75-3.17-34.517-3.92-.438.248-.262.833-.087 1.166 8.193 5.008 16.734 9.345 24.928 14.351l31.118 18.441c12.466 6.175 25.451 14.769 40.791 10.93-.348 15.687-3.746 33.042-20.48 39.468-21.181 5.924-40.618-3.671-58.055-12.015-12.288-6.592-23.968-14.52-35.56-22.614-1.221-.333-2.614-1-3.922-.416-2.617 2.669-.699 6.675.435 9.429 14.555 28.702 27.979 58.993 56.308 81.186 7.669 5.006 15.951 8.678 25.802 8.761-6.364 14.102-16.825 32.875-34.78 35.795-21.354 2.422-36.607-11.43-51.6-24.863-25.105-25.616-43.584-53.819-61.364-82.271l-19.003-31.708c-4.184-5.506-10.286-9.26-17.345-8.094-13.946 3.504-21.88 17.94-26.323 29.454-9.24 26.035-10.11 61.745 13.509 81.688 16.04 13.934 35.913 19.107 56.918 21.693-21.964 20.694-28.587 51.484-20.135 80.101 1.221 4.425 2.528 8.847 4.184 13.02 16.737-18.858 36.523-37.631 58.576-47.979 8.453-2.836 21.094-4.422 27.631 3.338 6.448 7.428 8.104 19.608 3.137 28.203-2.264 4.257-6.275 8.094-10.37 11.347.086-5.091.696-11.347-4.622-13.767-5.664-.836-10.286 2.252-14.902 4.59-13.077 7.843-25.105 18.273-38.53 25.529l.176.336 57.79-7.76c8.108 1.166 17.258 2.17 21.528 10.013 2.442 5.756 2.528 13.268 1.483 19.69-1.135 4.008-3.487 8.347-7.845 10.18-5.057 2.421-11.68 1.837-17.258 1.002 2.18-2.669 5.84-5.423 4.881-9.26-4.012-4.508-10.459-4.508-16.389-5.174-12.898-1.084-26.758-.502-39.57-1.586 16.297 12.601 36.607 27.701 42.796 46.809 1.048 4.173.61 8.928-2.091 12.182-6.713 7.344-19.524 6.009-28.068 3.172l-7.059-2.922c3.747-1.334 9.152-4.006 9.5-8.592.176-10.517-10.548-16.854-17.955-23.531-19.003-15.019-40.01-25.281-63.02-31.04-7.409-1.085-16.823-1.919-22.053 4.174-2.353 2.669-3.05 5.839-3.574 9.177-8.803-4.92-19.262-13.599-18.219-24.448.438-3.837 3.139-7.341 6.712-9.511 15.081-7.676 35.216-3.17 50.294 1.003-22.576-19.776-46.196-37.716-71.736-50.983-4.009-1.919-9.065-3.422-13.771-1.919-11.505 5.175-6.975 19.108-6.537 28.788 2.701 18.188 6.886 35.795 15.864 51.48 5.402 8.928 14.816 16.104 25.451 16.688-6.973 15.353-24.928 15.854-40.881 15.187-7.582.585-14.991 3.755-18.914 10.597-5.753 9.844-3.836 23.197-3.66 34.961 1.395 12.934 4.619 28.536 19.787 32.541 10.197 1.754 21.528 1.084 28.503-6.759 5.229-5.089 4.879-14.269 1.915-20.274-3.223-6.843-10.545-12.767-18.74-12.516-4.009.25-7.756 1.251-10.806 3.336-1.135.25-2.442.084-3.4-.417-.436-3.338 2.528-5.925 4.534-8.595 8.715-9.095 21.875-10.846 34.342-8.26 15.513 3.17 33.206 14.102 36.521 30.205 5.753 24.613-2.877 48.479-22.839 64.498-12.55 9.846-32.685 11.85-47.938 6.092-12.115-3.838-22.664-11.182-33.034-18.773-1.223-.416-2.441.082-3.313.75-1.396 1.168-1.918 2.754-1.656 4.59 1.569 6.508 9.238 10.428 14.208 14.602 7.496 4.59 16.037 11.516 15.168 20.943-.7 12.934-7.062 23.529-13.512 34.127-12.291 14.352-26.062 28.117-27.11 46.893-1.045-19.607-16.124-33.543-28.413-48.729-6.016-11.182-13.25-22.195-12.03-35.963 2.964-14.852 21.616-17.855 28.765-30.371.697-1.42.435-3.424-.175-4.84-.697-1.252-2.004-2.002-3.312-2.17l-2.004.502c-19.612 15.854-46.111 28.871-71.823 17.188-23.884-12.35-34.867-36.799-32.6-62.162 1.045-14.768 12.55-28.953 27.108-33.959 12.726-5.592 31.989-7.094 43.146 2.753 3.313 2.837 5.49 6.007 6.973 9.597.262 1.166-1.045 1.416-1.917 1.584-2.006.417-2.877-1.083-4.448-1.584-5.926-2.754-14.207-2.338-19.262 1.584-7.932 5.924-11.506 15.102-8.804 24.281 3.573 9.51 14.121 12.766 23.883 12.598 8.193.168 15.604-2.586 20.309-9.344 8.717-14.019 8.281-32.709 6.799-49.729-1.045-6.76-4.883-13.436-11.504-16.939-11.857-6.174-28.678.251-40.272-6.508-4.966-2.17-9.15-6.926-11.329-11.516 23.534-2.252 31.901-27.117 36.783-45.057 3.312-13.102 5.752-26.867 5.578-41.053-.349-4.17-2.441-8.344-6.624-10.43-6.887-2.835-13.686.752-19.352 3.922-23.795 13.018-45.848 30.039-67.116 48.563 15.167-4.173 35.214-8.679 50.381-1.003 4.184 2.503 6.712 6.508 6.712 11.098-.086 10.096-9.85 18.023-18.305 22.861-.61-4.339-1.917-8.593-5.926-11.347-11.507-6.092-25.19-.752-36 2.837-21.965 8.176-42.187 20.608-60.056 38.047-2.615 3.838-5.404 7.928-4.27 12.935 1.306 3.837 5.577 6.173 9.15 7.259-9.414 4.924-24.493 8.261-33.994 1-3.486-3.336-4.446-8.176-3.313-12.849 5.58-18.271 24.494-33.126 40.27-45.226.873-.667 2.18-1.416 2.528-2.167-15.951 1.751-33.384 0-48.813 2.919-2.703.836-6.188 1.503-7.322 4.676 0 3.504 2.877 5.922 5.317 8.424-7.235 1.086-15.864 1.754-21.354-3.671-5.839-6.341-4.881-16.521-3.487-24.446 3.051-10.18 14.557-12.016 24.057-12.684l56.222 7.76c.087 0 .174-.085.261-.168-14.905-8.259-28.153-20.608-43.407-28.201-3.313-1.418-7.147-3.337-10.896-1.667-4.446 2.919-3.749 8.593-3.749 13.348-9.064-6.676-14.557-15.685-12.988-26.618 1.221-6.84 4.534-14.266 11.943-17.271 12.115-3.669 24.23 1.001 33.732 7.677 16.822 10.512 33.035 26.117 46.371 41.304 8.979-22.196 11.594-53.569-1.744-74.678-3.834-6.511-8.541-12.601-14.207-18.442 28.851-2.919 60.404-14.351 71.823-42.97 9.066-23.78 4.184-53.067-8.105-74.01-4.708-7.426-12.551-15.771-22.141-16.104-7.061-.168-12.638 5.005-16.387 10.43l-21.879 36.713-19.088 29.036c-18.48 24.866-39.922 55.321-69.907 68.588-9.849 4.422-23.882 3.837-32.424-2.922-10.983-8.094-16.91-19.357-21.877-30.455 32.164-1.585 51.775-35.044 65.72-58.24 6.276-11.098 11.942-22.53 17.259-33.96.61-1.836 1.133-4.004.522-6.006-.609-1.252-2.092-1.669-3.399-1.252-7.496 3.337-13.597 9.594-20.744 13.601-19.002 11.431-38.266 22.444-61.8 23.362-10.72.168-20.745-3.672-26.323-12.933-5.056-8.344-6.538-18.022-6.711-28.37 14.991 3.671 27.805-4.506 40.094-10.513l49.945-29.288c2.353-1.333 5.144-2.252 6.887-4.338.173-.417-.262-.919-.785-.75l-17.521 1.668-34.953 4.421c-20.396 1.836-44.367 2.587-55.261-16.272-5.578-10.345-5.84-23.53-4.533-35.878 22.751 12.767 54.215 6.342 78.622 1.671l17.433-3.756c1.22-.584 2.354-1.752 2.701-3.004.175-1.417-.697-2.753-2.003-3.42-27.893-2.92-55.699-5.759-79.322-18.523-11.33-6.426-19.697-17.438-19.697-30.038.174-10.348 3.312-19.525 7.758-28.204 13.336 18.606 34.951 24.782 56.132 28.62 10.722 1.418 22.315 2.253 33.386 1.084 1.48-.333 2.875-1.586 3.574-2.92.609-1.084.173-2.419-.35-3.421-6.45-6.258-14.731-8.843-22.75-11.764-21.006-7.593-50.381-12.016-56.568-37.715-2.53-14.936 2.875-28.453 8.714-40.884 22.837 24.53 51.602 38.549 83.591 43.471 2.004.083 3.834-1.169 4.621-2.92.524-1.083.261-2.586-.35-3.588l-2.178-1.752c-26.585-8.595-57.528-24.614-68.25-52.568-3.138-9.177-1.394-20.024 6.885-26.282 8.802-6.675 19.698-8.176 31.204-8.51z"/><path d="m398.425 58.408c1.306 2.67 4.183 4.923 7.32 4.839 2.441 0 4.62-.666 6.364-2.252 1.481-1.418 2.003-3.254 2.265-5.006l7.845 4.339c-6.014 4.255-16.212 4.422-23.361 1.751-2.615-1.083-5.054-2.751-7.321-4.587 1.656-.919 4.357-1.752 6.449-2.087zm11.33-2.668c.086 1.084-.959 1.836-1.918 2.085-.698-.167-1.309-.667-1.744-1.334-.261-1 .523-1.668 1.221-2.17.958-.333 2.179.501 2.441 1.419zm113.663 212.101-17.522 48.812 7.061-39.133c-21.615 4.339-43.843 8.095-66.853 9.513-42.449 2.921-84.813-.833-123.425-9.513l4.795 47.143v.501l-13.775-57.323c64.241 18.357 145.127 16.606 209.719 0zm-25.451 145.518c-1.485 26.45-25.104 51.648-50.82 60.243-31.03 11.348-67.985 4.34-91.347-18.022-12.291-12.017-19.787-26.117-21.268-42.221z" fill="#fff"/><g fill="#da251d"><path d="m498.488 408.019-164.392.083v-63.664h164.217z"/><path d="m356.865 119.678c-4.949 0-9.818-.839-14.088-2.378.397.019.795.028 1.194.028h.001c2.271 0 4.519-.311 6.684-.923 6.734-1.684 12.233-6.048 17.55-10.269 5.733-4.55 11.149-8.847 17.841-9.769 2.224-.468 4.335-.688 6.46-.688 4.436 0 9.078.953 13.856 2.837-10.995 3.727-22.748 8.421-32.682 17.386-4.636 2.437-10.593 3.776-16.816 3.776z"/></g></g></g></g></svg>