<svg xmlns="http://www.w3.org/2000/svg" height="525" width="470"><path d="M5 5h460v295c0 145-125 220-230 220S5 445 5 300z" fill="#da251d" fill-rule="evenodd"/><path d="M5 5v134h460V5z" fill="#fcdb00" fill-rule="evenodd" stroke="#000" stroke-width="5" stroke-linecap="round" stroke-linejoin="round"/><path d="M62.635 90.733c5.903.461 11.805 4.732 17.707-1.038 7.54-21.91 19.348-38.778 43.31-43.31 12.894-2.44 25.087-8.019 38.358-17.169 14.429-9.948 22.26-1.107 7.155 7.626l-46.98 27.16c-12.599 7.284-23.48 29.508 7.34 31.565 25 1.67 41.12-21.318 56.487-38.171 19.553-21.444 43.882-20.714 60.498-30.884 9.72-5.949 17.008 2.396 3.67 11.709-20.389 14.235-63.22 31.07-54.767 47.982 8.817 17.638 32.918 9.48 45.691-3.115 20.499-20.212 36.583-41.856 79.17-53.765 21.937-6.135 26.647-6.663 15.777 4.582C325.18 45.154 305.948 52.09 298.4 58.13c-23.392 18.716-25.21 37.596 3.633 33.73 28.683-3.843 41.556-21.96 58.726-34.464 11.07-8.062 31.228-7.965 40.856-14.037 10.426-6.575 21.772-1.655 6.088 7.037-12.253 6.79-33.087 16.074-45.35 25.53-17.994 13.874.795 20.19 10.885 21.844 14.799 2.424 27.933-4.43 44.905 3.114 7.64 3.396 16.186 8.95 28.502 15.972 10.077 5.745-5.02 11.028-11.745 6.606-10.235-6.729-17.755-11.67-28.629-11.01-10.437.632-25.214 2.831-40.337 3.832-15.981 1.059-19.162-13.612-30.4-11.693-15.326 2.618-25.18 6.987-40.842 6.214-11.996-.592-23.855-7.883-35.54-8.023-8.501-.101-28.936 10.96-43.74 12.605-21.67 2.41-27.157-9.813-37.437-11.01-9.192-1.071-31.342 13.747-48.16 15.022-15.74 1.193-28.905-4.134-40.485-13.859-8.54 7.396-16.04 3.487-24.58 2.848 5.456 8.428 5.567 19.626-5.695 21.68-11.52 2.103-16.433-5.274-12.783-18.01-11.26 7.421-25.117 7.558-26.212-4.708-1.186-13.287 11.8-16.92 22.809-11.415-17.192-23.04 23.185-33.742 19.767-5.202z" fill-rule="evenodd" stroke="#000" stroke-width="2" stroke-linecap="round" stroke-linejoin="round"/><path d="M117.5 187h235l47 98h-27v190c-47.058 33.797-93.641 43.797-140 45-46.202 1.2-92.956-18.038-135-42V285h-27z" fill="#fcdb00" fill-rule="evenodd" stroke="#000001" stroke-width="5" stroke-linecap="round" stroke-linejoin="round"/><path d="M97.2 285h275m-74.5-97c0 30 25 30 25 0m-50 0c0 30 25 30 25 0m50 0c0 17.514 8.52 24.803 15.612 21.868M322.7 188c0 30 25 30 25 0m-150 0c0 30 25 30 25 0m-50 0c0 30 25 30 25 0m50 0c0 30 25 30 25 0m-50 0c0 30 25 30 25 0m-140.883 21.751c7.144 3.236 15.883-4.014 15.883-21.751m25 0c0 30 25 30 25 0m-50 0c0 30 25 30 25 0m162 24c0 30 25 30 25 0m-50 0c0 30 25 30 25 0m50 0c0 17.18 8.2 24.522 15.206 22.024M334.7 212c0 30 25 30 25 0m-150 0c0 30 25 30 25 0m-50 0c0 30 25 30 25 0m50 0c0 30 25 30 25 0m-50 0c0 30 25 30 25 0m-150 0c0 30 25 30 25 0m-39.444 22.256c6.826 1.723 14.444-5.695 14.444-22.256m50 0c0 30 25 30 25 0m-50 0c0 30 25 30 25 0m-25 48c0 30 25 30 25 0m0 0c0 30 25 30 25 0m-100 0c0 30 25 30 25 0m0 0c0 30 25 30 25 0m100 0c0 30 25 30 25 0m0 0c0 30 25 30 25 0m-100 0c0 30 25 30 25 0m0 0c0 30 25 30 25 0m100 0c0 30 25 30 25 0m0 0c0 30 25 30 25 0m-100 0c0 30 25 30 25 0m0 0c0 30 25 30 25 0m-212-24c0 30 25 30 25 0m0 0c0 30 25 30 25 0m-89.166 22.321C90.287 259.777 97.7 252.336 97.7 236m0 0c0 30 25 30 25 0m100 0c0 30 25 30 25 0m0 0c0 30 25 30 25 0m-100 0c0 30 25 30 25 0m0 0c0 30 25 30 25 0m100 0c0 30 25 30 25 0m0 0c0 30 25 30 25 0m-100 0c0 30 25 30 25 0m0 0c0 30 25 30 25 0m50 0c0 13.664 5.186 21.104 10.834 22.321" fill="none" stroke="#000" stroke-width="5" stroke-linecap="round" stroke-linejoin="round"/><g stroke-linecap="round" stroke-linejoin="round"><path d="M130 312h62v61h-62z" fill-rule="evenodd" stroke="#000" stroke-width="2"/><path d="M134 338h54m-54-22h54v53h-54v-53m27 0v53" fill="none" stroke="#fff" stroke-width="3"/><g><path d="M278 312h62v61h-62z" fill-rule="evenodd" stroke="#000" stroke-width="2"/><path d="M282 338h54m-54-22h54v53h-54v-53m27 0v53" fill="none" stroke="#fff" stroke-width="3"/></g></g><g stroke-width="4"><path d="M215 518.8V446c0-26 40-26 40 0v72.8c-13.333 2.632-26.667 1.444-40 0z" fill-rule="evenodd" stroke="#fff" stroke-linecap="round" stroke-linejoin="round"/><path d="M195 517v-74c0-50.262 80-50.27 80 0v75m-65 1v-71c0-35.178 50-35.092 50 0v72m-55-3v-72c0-38.276 60-38.256 60 0v75m-65-3v-74c0-42.885 70-42.913 70 0v77" fill="none" stroke="#000"/></g><path d="M5 5h460v295c0 145-125 220-230 220S5 445 5 300z" fill="none" stroke="#000" stroke-width="8" stroke-linecap="round" stroke-linejoin="round"/></svg>