<?xml version="1.0" encoding="UTF-8" standalone="no"?>
<!-- Created with Inkscape (http://www.inkscape.org/) -->
<svg xmlns:dc="http://purl.org/dc/elements/1.1/" xmlns:cc="http://creativecommons.org/ns#" xmlns:rdf="http://www.w3.org/1999/02/22-rdf-syntax-ns#" xmlns:svg="http://www.w3.org/2000/svg" xmlns="http://www.w3.org/2000/svg" xmlns:xlink="http://www.w3.org/1999/xlink" xmlns:sodipodi="http://sodipodi.sourceforge.net/DTD/sodipodi-0.dtd" xmlns:inkscape="http://www.inkscape.org/namespaces/inkscape" width="950.80396" height="1001.2471" id="svg2" sodipodi:version="0.32" inkscape:version="0.47 r22583" version="1.0" sodipodi:docname="Wappen Überlingen.svg" inkscape:output_extension="org.inkscape.output.svg.inkscape">
  <defs id="defs4">
    <linearGradient id="linearGradient2893">
      <stop offset="0" style="stop-color:#ffffff;stop-opacity:0.3137255" id="stop2895" />
      <stop offset="0.19" style="stop-color:#ffffff;stop-opacity:0.25098041" id="stop2897" />
      <stop offset="0.60000002" style="stop-color:#6b6b6b;stop-opacity:0.1254902" id="stop2901" />
      <stop offset="1" style="stop-color:#000000;stop-opacity:0.1254902" id="stop2899" />
    </linearGradient>
    <radialGradient inkscape:collect="always" xlink:href="#linearGradient2893" id="radialGradient3035" gradientUnits="userSpaceOnUse" gradientTransform="matrix(0.42252733,0,0,0.40007584,-22.788535,-22.717763)" cx="221.44487" cy="226.33101" fx="221.44487" fy="226.33101" r="300" />
  </defs>
  <sodipodi:namedview id="base" pagecolor="#ffffff" bordercolor="#666666" borderopacity="1.0" inkscape:pageopacity="0.0" inkscape:pageshadow="2" inkscape:zoom="0.47" inkscape:cx="455.30414" inkscape:cy="515.0143" inkscape:document-units="px" inkscape:current-layer="svg2" showgrid="false" inkscape:window-width="834" inkscape:window-height="690" inkscape:window-x="-1" inkscape:window-y="0" inkscape:window-maximized="0" />
  <metadata id="metadata7">
    <rdf:RDF>
      <cc:Work rdf:about="">
        <dc:format>image/svg+xml</dc:format>
        <dc:type rdf:resource="http://purl.org/dc/dcmitype/StillImage" />
        <dc:title />
        <dc:date>2011-01-23</dc:date>
        <dc:creator>
          <cc:Agent>
            <dc:title>Owen Blacker</dc:title>
          </cc:Agent>
        </dc:creator>
        <cc:license rdf:resource="http://web.resource.org/cc/PublicDomain" />
        <dc:language>en-GB</dc:language>
        <dc:subject>
          <rdf:Bag>
            <rdf:li>Wappen Überlingen</rdf:li>
          </rdf:Bag>
        </dc:subject>
        <dc:rights>
          <cc:Agent>
            <dc:title />
          </cc:Agent>
        </dc:rights>
        <dc:publisher>
          <cc:Agent>
            <dc:title />
          </cc:Agent>
        </dc:publisher>
        <dc:identifier />
        <dc:source />
        <dc:relation />
        <dc:coverage />
        <dc:description />
        <dc:contributor>
          <cc:Agent>
            <dc:title>Owen Blacker</dc:title>
          </cc:Agent>
        </dc:contributor>
      </cc:Work>
      <cc:License rdf:about="http://web.resource.org/cc/PublicDomain">
        <cc:permits rdf:resource="http://web.resource.org/cc/Reproduction" />
        <cc:permits rdf:resource="http://web.resource.org/cc/Distribution" />
        <cc:permits rdf:resource="http://web.resource.org/cc/DerivativeWorks" />
      </cc:License>
    </rdf:RDF>
  </metadata>
  <g inkscape:label="Field" inkscape:groupmode="layer" id="field" transform="matrix(5.1073859,0,0,5.1073859,-9.7996864,-10.10181)">
    <path sodipodi:nodetypes="ccszsc" id="path3156" d="m 3.9187284,3.9778826 182.1625416,0 -3.99459,92.7325464 C 178.7769,173.54556 134.69793,196.01693 95,196.01693 c -39.697059,0 -84.977417,-26.42184 -87.662072,-99.265169 L 3.9187284,3.9778826 z" style="fill:#fcef3c;stroke:none" inkscape:label="Or" />
  </g>
  <g inkscape:label="Charges" inkscape:groupmode="layer" id="charges" transform="matrix(5.1073859,0,0,5.1073859,-9.7996864,-10.10181)">
    <g inkscape:label="Eagle" id="g3015" transform="matrix(1.0250673,0,0,1.0250673,741.68764,-500.49723)">
      <path style="fill:#e20909;fill-opacity:1;fill-rule:nonzero;stroke:none" id="path299" d="m -660.39468,515.37697 c 0.5791,4.1985 3.96324,3.96324 3.96324,3.96324 0,0 3.09459,1.30298 11.34681,-2.04496 5.32052,-2.15354 4.97667,-2.29832 8.48749,-2.26212 4.99476,0.0362 0.68768,-4.54234 -5.4291,-2.04496 0,0 -6.29775,3.04029 -12.36024,1.03153 -3.74608,-1.24869 -1.91828,-4.65093 -1.91828,-4.65093 0,0 -0.79612,-3.07648 -3.29365,1.24869 -1.24855,2.15355 -1.14011,3.40224 -0.79627,4.75951" />
      <path style="fill:#000000;fill-opacity:1;fill-rule:nonzero;stroke:none" id="path301" d="m -633.73768,502.67289 c -0.59734,1.44776 0,3.25746 2.84109,3.25746 3.32999,0 4.21659,-3.13078 2.986,-3.07649 -2.31642,0.0724 -5.82709,-0.18097 -5.82709,-0.18097 m 14.98416,-0.70578 3.05839,-0.76008 c 0.25336,2.55168 -2.55153,2.55168 -3.81832,3.81847 0,1.7916 2.28008,3.5651 3.81832,4.34327 0.76022,-0.27145 2.29832,-1.53824 2.29832,0 0.76007,3.81847 -4.08992,2.28022 -6.11664,3.56511 1.77336,3.31175 6.37,6.87685 9.9351,3.5651 1.01343,2.80504 -1.7916,4.57854 -3.81846,5.10335 l -4.84985,-0.77817 c -1.01357,3.05839 2.55153,5.10335 4.84985,6.89495 l 5.61006,-1.28488 c 0.25336,2.55167 -2.80489,4.84999 -4.84999,5.3567 l -6.11678,-1.03152 c -0.25336,2.04495 2.29832,5.3567 4.85014,6.62349 l 3.56496,0 c 0.50671,1.53824 -1.28489,2.55168 -2.29832,3.07649 l -7.38357,-1.28489 c 0,1.7916 2.02686,4.07182 4.32518,4.84999 l -4.32518,1.26679 c 0.25336,2.04496 2.78694,4.57854 4.32518,6.87686 11.72685,-9.68189 32.86412,-7.13022 36.70068,-25.73391 -0.25336,-4.57854 0.76022,-9.93525 -2.04496,-13.50035 -3.31175,-1.03153 -8.92181,0.25336 -9.68174,-4.84999 0,-3.31175 1.79146,-7.38357 5.60992,-7.38357 6.37028,-0.76007 14.51378,2.04496 19.36392,-2.55168 0.50657,1.01344 0.25321,5.10335 -2.29847,5.61007 l 1.79161,1.7735 c 5.61021,-0.50671 11.45539,-1.01343 15.79866,-4.32518 0.25336,4.57854 -4.34327,7.13022 -7.90838,8.66846 l -1.26679,0 c 4.8319,13.7537 3.31175,31.85069 6.11693,47.14264 1.01328,1.7735 1.01328,3.81846 2.55153,5.33861 -11.98021,-4.57854 -5.86328,-20.12385 -10.96678,-29.29902 l -1.7916,4.32518 c 2.55182,24.21376 1.53839,49.94767 7.90838,72.64129 -4.83174,2.28022 -7.38356,-3.83656 -9.17517,-7.14831 l -4.83189,-50.70774 -1.28489,-1.26679 -3.05839,3.5651 c -1.52014,22.92888 2.29832,44.84432 3.56511,67.26648 1.53824,3.05839 2.55167,6.87686 6.11693,8.66846 -5.86357,0.50671 -10.69547,-5.10335 -12.74043,-9.93524 -2.80503,-19.11042 -4.57853,-38.72755 -5.61006,-58.61613 -3.5651,-1.26679 -5.08525,4.08992 -6.09868,6.6235 l 2.53358,48.93424 3.05838,4.83189 c -19.36377,-10.1886 -7.63678,-37.44266 -13.5002,-55.53964 -3.56525,0.50672 -3.81861,4.32518 -4.85013,6.87686 2.04495,9.68188 -1.77336,21.66208 3.05853,30.33054 -3.31175,1.01343 -4.83189,-4.59664 -6.87685,-7.14831 -2.55182,-8.90372 0.25321,-19.87049 -2.28037,-28.7923 -7.14816,3.56511 -1.7916,12.23356 -2.55167,18.35034 -7.14831,-3.31175 -3.31175,-12.23356 -6.11678,-17.84362 -4.34328,3.83656 -1.79146,10.71341 -1.03153,15.29195 1.53839,8.16174 5.86342,15.79866 11.98035,21.40873 l -3.05854,0 c 2.55168,7.13021 7.14845,14.53187 12.99364,20.90201 5.3567,7.63693 17.33705,-0.25336 23.20033,6.6235 l 0,4.83189 c -2.04496,-4.57854 -6.87686,-0.50672 -9.68174,-4.83189 -1.28504,1.52014 -3.56525,-0.50672 -4.34342,1.7735 5.10334,4.08992 10.46005,8.66845 9.17516,15.29195 l -2.55167,1.28489 c -1.01343,-4.08992 -3.05839,-6.38824 -4.83189,-10.46006 -1.53825,-1.52015 -3.05839,-3.31175 -5.61007,-3.05839 0,3.56511 2.29832,9.68189 -1.01343,12.99363 -1.03153,1.7916 -3.05824,1.28489 -4.34327,1.7916 0.77817,-4.59663 1.53824,-9.68188 1.28503,-15.29195 -3.56511,-5.61006 -9.93539,-4.57853 -15.2921,-5.61006 l -1.26679,2.04496 c -1.7916,-0.50672 -1.03153,-3.31175 -1.28488,-5.10335 3.31189,-3.56511 7.65502,2.04496 10.44196,-0.50672 -2.02687,-5.61006 -5.84533,-11.72684 -11.70875,-14.78523 -1.28489,2.80503 -1.7916,5.86342 -4.08992,8.16174 0.52481,-2.04496 1.28489,-8.16174 -0.75993,-11.20203 -1.52029,1.52014 -2.02701,3.04029 -3.56525,4.32518 1.26679,-3.31175 0.50672,-7.13022 -1.7735,-9.68189 -3.83656,3.56511 -4.59664,10.44196 -3.05839,15.79867 1.52014,6.37013 5.59196,12.23356 10.94867,16.55873 -2.80503,2.55168 -6.62349,0.50672 -9.17502,-0.50671 -1.26694,3.05839 1.7916,5.86342 3.56496,8.4151 2.04496,2.28022 6.11678,3.5651 8.66845,1.26678 2.0451,-1.7916 3.31175,-3.81846 3.05839,-6.62349 3.56511,2.80503 3.31175,8.14364 2.29846,12.23356 -3.05853,4.32518 -8.66845,4.83189 -13.26523,3.5651 -0.76007,-1.28488 -2.02686,-1.28488 -3.04029,-1.7916 3.04029,8.66846 -6.6416,13.77181 -8.16174,21.40873 -0.25321,-7.89028 -10.69517,-12.48692 -6.6235,-21.40873 -3.31175,1.28489 -8.92181,2.55168 -13.50035,1.28489 -4.34328,-3.05839 -5.35656,-9.17517 -3.05825,-13.51845 l 2.53344,-2.53357 c -1.26679,3.81846 1.53825,6.37013 4.34342,7.89028 4.83175,1.26679 8.397,-3.81846 10.18846,-7.13021 l 0.76007,-2.55168 c -2.80503,-0.76007 -7.13021,2.29832 -9.93524,-0.50671 8.41509,-7.13021 13.50035,-16.30538 11.72684,-27.0188 -0.77817,-2.02686 -1.03138,-4.07182 -3.05839,-5.59196 -2.55153,2.78693 -3.05839,7.13021 -1.7916,10.44196 l -4.32503,-3.56511 0,9.17517 -4.34342,-7.40167 c -5.59197,3.83656 -8.65036,9.42853 -12.21533,14.78524 2.78679,4.32518 7.13022,-4.57854 10.44182,1.01343 1.52015,2.04496 0,4.08992 -1.26679,5.61006 0,-1.01343 -1.28488,-1.52014 -1.7916,-2.55167 -5.60992,1.28489 -13.50035,-0.50672 -15.29195,6.87685 1.26679,4.84999 0,9.95334 1.26679,13.51845 -4.8319,1.52015 -2.53358,-4.34328 -5.59183,-5.61007 -1.03167,-3.5651 1.77336,-6.37013 0.75993,-9.17517 -7.63678,1.26679 -6.11663,9.93525 -10.44196,13.50035 -2.04495,0.52482 -2.55153,-1.7735 -3.05839,-3.05839 -1.03152,-5.86342 5.59197,-9.17517 9.17517,-13.50035 -1.28488,-1.7735 -4.84999,-1.7735 -6.11678,0 -2.29831,5.10335 -6.11663,-2.55167 -7.40166,3.56511 -2.80503,-5.61006 4.34327,-7.38357 7.90852,-9.17517 4.83175,0.77817 8.92167,1.53824 13.50021,-0.50672 7.13021,-6.62349 11.22013,-14.26042 15.79867,-21.91544 -0.75993,-1.26679 -2.29832,-0.50672 -3.56511,-0.76007 10.69532,-7.90839 12.74028,-20.64866 14.00707,-32.86412 -0.75993,-1.28489 -1.01343,-2.80504 -2.28022,-3.83656 -4.08992,4.59663 0.50686,14.27852 -6.11678,17.84362 -0.25322,-4.57854 3.31175,-15.54531 -3.05839,-18.35034 -3.81847,10.96677 3.31175,28.7923 -8.66846,36.70068 2.04496,-10.96677 4.07182,-24.46712 0.50671,-36.70068 l -2.28022,-1.7735 -1.28488,1.7735 c -1.01343,16.83019 0,34.40236 -5.61007,49.44096 -2.02686,2.55167 -4.32517,4.32517 -7.13006,4.32517 l 3.05824,-3.5651 c 0.50672,-18.09698 3.81847,-36.42923 1.7916,-53.76613 l -3.83656,-3.81847 -1.7735,3.05839 -4.34328,53.76614 c -1.01343,4.57853 -4.83189,8.92181 -9.17517,10.94867 -1.52014,0 -2.53357,1.03153 -4.07182,0.77817 l 5.35671,-7.40167 4.83189,-61.65641 c -0.25335,-3.31175 -1.52014,-6.6235 -3.5651,-8.66846 l -1.26679,1.7916 c -2.80503,18.33225 -1.01343,38.72755 -8.4151,55.03293 -1.77336,1.7916 -4.07182,1.7916 -6.11678,2.55167 l 3.05839,-7.90838 c 1.03153,-23.18223 7.13021,-46.11111 4.85014,-69.05808 -0.50686,-0.50672 -0.76022,-1.01344 -1.28503,-0.76008 -3.56511,9.68189 1.03153,25.2272 -10.94868,28.7923 7.63693,-15.29195 2.29832,-35.66915 9.17517,-51.46782 -3.5651,-1.52014 -9.17517,-4.07182 -8.66845,-9.17517 5.10335,2.55168 10.96677,5.10335 17.06545,3.05839 -0.76007,-2.04495 -3.31174,-3.31174 -2.28022,-6.11678 6.37014,5.61007 27.77902,-4.83189 23.68895,11.72685 -1.77336,2.55167 -4.83189,2.55167 -7.89028,2.55167 -4.08992,3.31175 -4.08992,9.42853 -3.05825,14.51378 4.5784,18.09698 25.73377,14.78524 37.46062,25.2272 1.7735,-2.02687 2.55182,-5.08526 5.33875,-6.11678 l -5.33875,-2.55168 c 2.28022,-0.25336 4.32518,-1.52015 6.11678,-3.5651 -2.55168,-0.50672 -8.4151,1.03152 -9.17503,-2.55168 3.81832,-0.50671 7.89014,-1.52015 9.68174,-5.59197 -3.05839,-0.25335 -7.40166,-1.03152 -7.90838,-4.84999 3.56511,2.29832 9.68189,-0.76007 12.23371,-5.33861 -2.55182,-3.05839 -5.86357,-3.05839 -9.17532,-3.83656 1.03153,-1.7735 15.29195,2.29832 10.46006,-7.38357 -3.05825,-3.31174 -8.1616,-3.5651 -12.23356,-2.29831 -1.28489,0.25336 -2.29832,1.53824 -3.05825,2.29831 -1.28503,0.25336 -0.50686,-4.07182 -0.77831,-6.11678 3.05839,-5.3567 10.46005,-1.26678 13.51844,-6.62349 6.11678,0.25336 12.48706,-1.01343 16.55874,4.32518" />
      <path style="fill:#000000;fill-opacity:1;fill-rule:nonzero;stroke:none" id="path303" d="m -632.29006,503.65013 c 0,-0.34385 0.12682,-0.6334 0.32574,-0.86866 l 2.02687,0.0724 c 0.16287,0.21716 0.25335,0.48862 0.25335,0.79627 0,0.70578 -0.57895,1.30298 -1.30298,1.30298 -0.70564,0 -1.30298,-0.5972 -1.30298,-1.30298" />
    </g>
  </g>
  <g id="g3117" transform="matrix(0.34590607,0,0,0.34590607,308.12897,297.98767)" inkscape:label="Inescutcheon">
    <g transform="matrix(5.1073859,0,0,5.1073859,-9.7996864,-10.10181)" id="field-5" inkscape:label="Field">
      <path inkscape:label="Or" style="fill:#fcef3c;stroke:none" d="m 3.9187284,3.9778826 182.1625416,0 -3.99459,92.7325464 C 178.7769,173.54556 134.69793,196.01693 95,196.01693 c -39.697059,0 -84.977417,-26.42184 -87.662072,-99.265169 L 3.9187284,3.9778826 z" id="path3156-1" sodipodi:nodetypes="ccszsc" />
    </g>
    <g transform="matrix(5.1073859,0,0,5.1073859,-9.7996864,-10.10181)" id="charges-7" inkscape:label="Charges">
      <g id="g7545" style="display:inline" transform="matrix(0.3063608,0,0,0.3063608,2.9763478,-0.94265657)">
        <path id="path1738" style="fill:#e20909;fill-opacity:1;fill-rule:evenodd;stroke:#000000;stroke-width:2.99999928;stroke-linecap:butt;stroke-linejoin:miter;stroke-miterlimit:4;stroke-opacity:1;stroke-dasharray:none;display:inline" d="m 131.3893,198.93086 c -10.53863,7.94487 -26.31217,9.3172 -32.550358,1.47957 0,0 10.595528,2.48036 15.387438,-3.25502 6.50309,-7.78347 6.73896,-11.46092 7.69373,-9.76511 l 9.46919,11.54056 z" />
        <path id="path1748" style="fill:#e20909;fill-opacity:1;fill-rule:evenodd;stroke:#000000;stroke-width:2.99999928;stroke-linecap:butt;stroke-linejoin:miter;stroke-miterlimit:4;stroke-opacity:1;stroke-dasharray:none;display:inline" d="m 111.26726,165.49281 c -9.22818,-7.20832 -20.357007,-6.38383 -24.856613,5.3264 -1.191862,-0.44695 0.503465,-14.66726 5.622329,-19.8261 5.263521,-5.30463 6.65802,-7.17588 14.499694,-7.3978 7.84167,-0.22194 17.75473,4.43868 17.75473,4.43868 l -13.02014,17.45882 z" />
        <path id="path1750" style="fill:#e20909;fill-opacity:1;fill-rule:evenodd;stroke:#000000;stroke-width:2.99999928;stroke-linecap:butt;stroke-linejoin:miter;stroke-miterlimit:4;stroke-opacity:1;stroke-dasharray:none;display:inline" d="m 127.24653,132.94247 c -4.83938,-13.23985 -8.18062,-27.10243 -28.999395,-24.85663 0,0 10.390995,-6.55849 22.489325,-4.73458 14.94961,2.25376 25.94519,20.40914 25.15252,20.71385 l -18.64245,8.87736 z" />
        <path id="path1752" style="fill:#e20909;fill-opacity:1;fill-rule:evenodd;stroke:#000000;stroke-width:2.99999928;stroke-linecap:butt;stroke-linejoin:miter;stroke-miterlimit:4;stroke-opacity:1;stroke-dasharray:none;display:inline" d="m 161.57233,124.95284 c 6.30599,-6.02368 5.63408,-19.02525 7.69372,-29.295301 0,0 8.06361,7.027911 10.06101,16.866991 1.99741,9.83909 -2.07139,22.48933 -2.07139,22.48933 l -15.68334,-10.06102 z" />
        <path id="path1727" style="fill:#e20909;fill-opacity:1;fill-rule:evenodd;stroke:#000000;stroke-width:2.99999928;stroke-linecap:butt;stroke-linejoin:miter;stroke-miterlimit:4;stroke-opacity:1;stroke-dasharray:none;display:inline" d="m 208.62235,241.83813 -10.35692,-5.10448 c 3.75587,-4.00052 -0.53144,-7.19671 -4.43868,-10.4309 -2.31949,-3.84335 -6.56604,-3.88068 -11.24467,-2.21934 -0.67436,-7.34101 -5.99975,-8.70211 -12.13239,-9.02532 -1.36634,-11.19672 -6.96073,-10.55487 -12.13239,-11.09671 -2.08411,-5.71782 -5.85769,-6.79722 -9.32124,-5.91824 -1.14055,-2.06672 -4.25572,-2.65247 -11.68853,0 0,0 -4.73458,8.13758 -10.061,5.91824 -5.32642,-2.21934 -10.50488,-8.58145 -12.42832,-13.02013 -1.92343,-4.43868 7.24985,-3.55094 7.10189,-8.87737 -0.14795,-5.32641 -3.6989,-9.17327 -7.69372,-12.4283 -3.99481,-3.25504 -9.7651,0.2959 -8.72941,-7.39781 1.0357,-7.69372 1.51655,-14.72162 6.65803,-18.79041 5.14147,-4.06879 13.90787,2.51525 13.90787,2.51525 0,0 5.73329,-1.03569 4.67911,-4.4017 -1.05419,-3.366 -8.89585,-9.0623 -5.86275,-13.05712 6.06619,-7.98963 10.65283,-11.7625 18.05063,-11.83648 7.39781,-0.074 4.66062,11.46659 9.32124,12.4283 4.66061,0.96172 5.51136,-10.57886 12.87218,-7.69372 7.36081,2.88515 16.95453,8.65306 14.49968,16.57109 -2.08565,6.72724 -4.55435,4.39001 -3.7435,6.7893 1.13287,3.35222 -2.01991,0.38946 9.95766,11.40929 5.08903,4.68211 12.10929,11.34176 20.14225,17.64781 8.03298,6.30604 17.25133,14.94646 25.18316,21.297 7.93184,6.35056 15.46488,8.93169 20.71906,13.18023 5.25417,4.24854 8.52539,6.90943 8.52539,6.90943 l -51.78463,26.63209 z" />
        <path id="path1572" style="fill:#e20909;fill-opacity:1;fill-rule:evenodd;stroke:#000000;stroke-width:2.99999928;stroke-linecap:butt;stroke-linejoin:miter;stroke-miterlimit:4;stroke-opacity:1;stroke-dasharray:none;display:inline" d="m 150.63203,459.06083 c 1.14617,-15.60774 -14.83169,-24.56215 -30.34001,-24.48127 0,0 18.51787,-7.16648 29.08457,-3.34786 10.56669,3.81863 14.43766,9.83435 14.43766,9.83435 l -13.18222,17.99478 z" />
        <path id="path1574" style="fill:#e20909;fill-opacity:1;fill-rule:evenodd;stroke:#000000;stroke-width:2.99999928;stroke-linecap:butt;stroke-linejoin:miter;stroke-miterlimit:4;stroke-opacity:1;stroke-dasharray:none;display:inline" d="m 142.68085,482.49585 c -13.76185,-12.03156 -22.83396,0.11105 -34.73407,5.44035 0,0 7.74193,-18.36092 17.1578,-24.06281 9.41586,-5.70178 20.50566,1.25548 20.50566,1.25548 l -2.92939,17.36698 z" />
        <path id="path1624" style="fill:#e20909;fill-opacity:1;fill-rule:evenodd;stroke:#000000;stroke-width:2.99999928;stroke-linecap:butt;stroke-linejoin:miter;stroke-miterlimit:4;stroke-opacity:1;stroke-dasharray:none;display:inline" d="m 153.14293,503.62926 c -5.56013,2.58951 -10.32083,8.37671 -12.55448,24.27204 0,0 -2.30166,-14.75153 -0.83697,-22.59811 1.46469,-7.84658 6.69572,-8.78811 6.69572,-8.78811 l 6.69573,7.11418 z" />
        <path id="path1626" style="fill:#e20909;fill-opacity:1;fill-rule:evenodd;stroke:#000000;stroke-width:2.99999928;stroke-linecap:butt;stroke-linejoin:miter;stroke-miterlimit:4;stroke-opacity:1;stroke-dasharray:none;display:inline" d="m 184.94764,506.1402 c -4.73448,4.82607 -5.16778,11.49553 -2.09242,19.66871 0,0 -8.36965,-10.77598 -10.46207,-16.32085 -2.09242,-5.54496 2.09241,-5.8588 2.09241,-5.8588 l 10.46208,2.51094 z" />
        <path id="path1760" style="fill:#e20909;fill-opacity:1;fill-rule:evenodd;stroke:#000000;stroke-width:2.99999928;stroke-linecap:butt;stroke-linejoin:miter;stroke-miterlimit:4;stroke-opacity:1;stroke-dasharray:none;display:inline" d="m 325.80355,379.73317 c 0,0 -47.19798,-9.91305 -75.16167,-5.32641 -27.96369,4.58664 -36.6931,23.67296 -36.6931,23.67296 0,0 19.08632,27.96367 9.46918,40.83584 -9.61714,12.87217 -35.95912,19.48257 -46.16228,10.65292 l -7.69372,-6.65808 c -3.75361,-3.2483 -2.21935,-8.28549 -8.13759,-5.32645 -5.91825,2.95914 -11.37484,11.30907 -12.57626,14.35174 -3.34118,8.46182 8.28553,8.87742 8.28553,8.87742 l -3.55094,2.95915 c -0.33652,0.75708 -4.1039,-5.41388 -7.69372,-2.95915 -5.7024,3.8993 -7.69372,13.90787 -7.54576,20.26992 0.14796,6.36216 8.13759,5.1785 8.13759,5.1785 l 1.77548,6.51012 c 0,0 -5.17847,1.03559 -4.58665,5.32635 0.59183,4.29076 7.28684,8.72947 10.50489,9.76507 3.21804,1.0357 4.88255,-5.03044 4.88255,-5.03044 l 12.87217,-2.36732 c 0,0 -3.25503,4.14281 1.92342,5.91829 5.17847,1.77549 9.21027,2.81108 13.90787,1.33162 4.6976,-1.47958 1.33161,-8.28561 1.33161,-8.28561 34.22816,-10.08829 71.15725,-16.23784 114.81391,-12.57625 -13.10815,-16.64892 -16.43437,-36.83015 -15.38744,-58.59061 26.97026,-5.27004 36.10926,7.29124 52.08054,13.02013 4.62159,-22.63956 -5.67876,-41.96312 -14.79561,-61.54971 z" />
        <path id="path1564" style="fill:#e20909;fill-opacity:1;fill-rule:evenodd;stroke:#000000;stroke-width:2.99999928;stroke-linecap:butt;stroke-linejoin:miter;stroke-miterlimit:4;stroke-opacity:1;stroke-dasharray:none;display:inline" d="m 111.0854,265.72173 c -2.58203,-6.78137 -10.50009,-12.74179 -20.296434,-18.41326 0,0 13.548384,1.46471 21.551874,4.18484 8.00349,2.72014 10.46208,6.69572 10.46208,6.69572 l -11.71752,7.5327 z" />
        <path id="path1566" style="fill:#e20909;fill-opacity:1;fill-rule:evenodd;stroke:#000000;stroke-width:2.99999928;stroke-linecap:butt;stroke-linejoin:miter;stroke-miterlimit:4;stroke-opacity:1;stroke-dasharray:none;display:inline" d="m 99.786353,290.62146 c -10.775457,-7.4601 -18.884521,1.07816 -27.619867,5.85877 0,0 7.54321,-13.8638 15.285144,-18.78098 7.741924,-4.91717 15.68258,-0.88773 15.68258,-0.88773 l -3.347857,13.80994 z" />
        <path id="path1568" style="fill:#e20909;fill-opacity:1;fill-rule:evenodd;stroke:#000000;stroke-width:2.99999928;stroke-linecap:butt;stroke-linejoin:miter;stroke-miterlimit:4;stroke-opacity:1;stroke-dasharray:none;display:inline" d="m 107.10981,315.93968 c -7.59577,0.0728 -15.680326,1.91063 -26.782913,14.64691 0,0 -0.36617,-10.20053 5.23104,-17.1578 5.597209,-6.95728 17.157803,-10.67132 17.157803,-10.67132 l 4.39407,13.18221 z" />
        <path id="path1570" style="fill:#e20909;fill-opacity:1;fill-rule:evenodd;stroke:#000000;stroke-width:2.99999928;stroke-linecap:butt;stroke-linejoin:miter;stroke-miterlimit:4;stroke-opacity:1;stroke-dasharray:none;display:inline" d="m 119.24364,326.00866 c -0.59275,4.11507 -5.17805,8.37811 -11.99022,10.93966 0,0 12.09647,0.44495 17.01419,-1.96767 4.91773,-2.41262 3.76635,-6.27724 3.76635,-6.27724 l -8.79032,-2.69475 z" />
        <path id="path1634" style="fill:#e20909;fill-opacity:1;fill-rule:evenodd;stroke:#000000;stroke-width:2.99999928;stroke-linecap:butt;stroke-linejoin:miter;stroke-miterlimit:4;stroke-opacity:1;stroke-dasharray:none;display:inline" d="m 334.34604,594.44004 c 3.69166,2.36795 5.27386,6.21241 -2.09241,16.32085 0,0 10.35745,-4.91718 13.80994,-9.20657 3.45248,-4.28949 0,-7.95119 0,-7.95119 l -11.71753,0.83691 z" />
        <path id="path1632" style="fill:#e20909;fill-opacity:1;fill-rule:evenodd;stroke:#000000;stroke-width:2.99999928;stroke-linecap:butt;stroke-linejoin:miter;stroke-miterlimit:4;stroke-opacity:1;stroke-dasharray:none;display:inline" d="m 309.23707,588.9998 c -0.46614,10.85676 -10.70449,10.34086 -22.17959,15.06537 0,0 15.58849,4.18487 23.01656,-0.41846 7.42807,-4.60333 10.88055,-8.78821 10.88055,-8.78821 l -11.71752,-5.8587 z" />
        <path id="path1630" style="fill:#e20909;fill-opacity:1;fill-rule:evenodd;stroke:#000000;stroke-width:2.99999928;stroke-linecap:butt;stroke-linejoin:miter;stroke-miterlimit:4;stroke-opacity:1;stroke-dasharray:none;display:inline" d="m 305.05224,583.55955 c -10.2638,-11.57103 -23.70642,-0.89027 -35.98954,1.67393 0,0 12.03139,-12.55453 21.76111,-15.48393 9.72973,-2.92941 17.1578,3.76642 17.1578,3.76642 l -2.92937,10.04358 z" />
        <path id="path1628" style="fill:#e20909;fill-opacity:1;fill-rule:evenodd;stroke:#000000;stroke-width:2.99999928;stroke-linecap:butt;stroke-linejoin:miter;stroke-miterlimit:4;stroke-opacity:1;stroke-dasharray:none;display:inline" d="m 312.16645,558.86905 c -4.14374,-18.29575 -20.75091,-15.81918 -34.3156,-18.41333 0,0 20.08717,-6.59111 30.54925,-6.69572 10.46207,-0.10462 11.29904,6.27726 11.29904,6.27726 l -7.53269,18.83179 z" />
        <path id="path1756" style="fill:#e20909;fill-opacity:1;fill-rule:evenodd;stroke:#000000;stroke-width:2.99999928;stroke-linecap:butt;stroke-linejoin:miter;stroke-miterlimit:4;stroke-opacity:1;stroke-dasharray:none;display:inline" d="m 246.04615,239.14806 c 0,0 -43.73147,18.20401 -72.81603,24.27201 -29.08456,6.068 -45.19616,-2.09242 -45.19616,-2.09242 0,0 1.46469,-8.99737 -5.85876,-7.95116 -7.32345,1.0462 -12.34525,6.068 -15.06539,11.29903 -1.36008,2.61552 3.24324,4.18483 4.42023,6.77419 1.17698,2.58936 -1.90933,5.36181 -1.90933,5.36181 0,0 -6.69572,-8.5789 -10.043596,-3.34786 -3.34787,5.23104 -6.90498,11.71752 -4.603323,18.83173 1.150828,3.55711 5.440289,-0.31386 8.605059,1.20315 3.16478,1.51699 2.694,7.16651 2.694,7.16651 0,0 -7.951188,-2.82476 -6.695736,2.92938 1.255456,5.75415 0.836966,11.71752 5.440276,15.48387 4.60332,3.76635 6.69574,-4.60331 6.69574,-4.60331 l 7.11421,5.85877 c 0,0 -4.81256,4.18482 -0.83697,7.53268 3.97559,3.34786 8.5789,5.85877 12.55449,5.85877 3.97558,0 2.92937,-7.95119 2.92937,-7.95119 3.35295,-4.03516 7.39567,-6.69078 12.97297,-6.27724 8.75175,3.26114 8.13656,9.33236 5.85877,15.90236 11.16601,0.29192 19.34468,-5.39083 28.45683,-9.20663 6.88026,1.04675 8.73989,3.97625 6.69573,8.36966 15.24842,4.86898 27.88267,-2.02579 41.01133,-6.69573 2.81075,2.28914 3.79965,5.67138 1.0462,11.29903 15.0654,-22.31908 30.13078,-30.96772 45.19616,-25.94593 11.97896,17.8382 23.83283,29.14668 37.45423,42.05754 -2.33017,23.80778 12.88296,44.85398 20.92415,60.26157 3.88196,7.43814 -11.04165,19.60912 -11.71753,21.97032 -4.57634,15.98749 -1.2653,41.38518 -0.14361,41.01134 3.55778,-7.20867 9.3448,-9.95869 16.04596,-10.8806 -0.63497,5.17333 -4.27989,8.08913 0.83697,17.57632 6.84051,7.03118 14.18416,12.80456 22.59807,15.90238 -9.85689,12.55495 -16.31055,27.38737 -25.10897,41.01124 -2.30245,3.56531 -4.60331,1.88326 -8.36966,0 -3.76635,-1.88316 -3.58684,-7.99317 -6.69572,-7.53263 -7.53429,1.11605 -17.47222,20.0029 -13.72943,27.12962 2.76735,5.2693 5.46965,-0.41234 7.22807,2.01182 1.75842,2.42426 2.15588,5.76379 -0.19437,7.68502 -2.35025,1.92123 -5.85877,-5.83772 -9.20663,-2.0714 -3.34786,3.76642 -2.86373,9.89351 -1.81753,14.17773 1.04622,4.28411 4.96668,1.62753 4.96668,1.62753 l 1.67444,2.59004 c -1.55769,0.99858 -2.56859,0.5604 -1.91523,3.19474 0.99131,3.99684 9.66514,10.75183 13.27684,5.73837 1.3906,-1.9304 1.81679,-3.04868 1.87265,-3.03897 l 7.32465,-1.40154 c 1.71516,-0.32818 -0.36094,5.59337 0.75782,5.87801 5.02037,1.27677 16.80295,1.1169 19.93922,-1.58113 4.2892,-3.68986 -1.97903,-9.1222 5.13204,-8.32325 0,0 1.84276,1.31991 3.30801,0.37163 26.56695,-17.19424 44.9174,-44.36384 46.75329,-50.64036 1.86541,-6.37745 -1.04621,-5.85881 2.30165,-8.57888 3.34786,-2.72018 11.0898,-2.30172 11.0898,-2.30172 0,0 14.33077,-6.42269 1.67393,-15.06537 -10.2146,-6.97498 -20.1245,-40.22178 -16.73932,-44.3592 -0.79126,-11.32004 -7.43153,-21.57654 -14.22842,-31.80467 -1.96823,-10.14683 1.17723,-16.88452 5.85877,-22.59811 2.67716,-0.96378 41.26595,46.51064 54.40278,62.77243 16.70671,20.68099 39.3374,-12.55442 39.3374,-12.55442 0,0 15.06538,-20.50573 14.01917,-46.66092 -1.04621,-26.15514 -18.20401,-57.95984 -18.20401,-57.95984 -3.74621,-16.77342 6.81625,-29.45865 18.41325,-41.84829 -11.06973,5.17266 -22.59986,5.28123 -32.64167,21.76111 0,0 -2.72014,-11.71752 -0.41848,-24.27201 2.30165,-12.55449 15.06539,-20.92415 15.06539,-20.92415 -14.9866,7.49933 -27.56904,15.39935 -29.29381,25.10898 -4.66593,-28.28278 8.5947,-53.15097 27.20139,-77.00086 -19.37592,12.48181 -36.4697,26.78936 -44.77768,48.12553 -10.59719,-50.53718 28.91714,-74.47463 72.39756,-113.40887 32.63336,-29.2213 6.69572,-55.23974 6.69572,-55.23974 -24.93149,-7.27193 -45.60062,1.10615 -62.77244,10.46206 0,0 -16.44795,-17.15686 -26.36443,-0.83695 -11.50062,18.92698 -20.69852,28.52276 -15.48387,50.21794 -2.68933,-3.58578 23.19273,-21.59597 43.10375,-21.76111 16.02931,-0.13294 4.60331,-19.2502 4.60331,-19.2502 0,0 40.59284,-17.36705 48.54402,-9.62512 7.95118,7.74194 10.78082,17.31859 -9.62511,36.40801 l -51.89188,48.54402 c -25.02682,23.41219 -31.73345,48.29257 -17.57629,88.2999 15.08355,42.62528 59.92089,75.90701 59.21534,104.20225 -0.70553,28.29525 2.0537,30.0236 -6.06799,42.68527 -8.12169,12.66167 -14.46836,25.73727 -29.7123,6.90495 -15.24393,-18.83232 -35.43492,-50.23351 -51.68264,-73.23451 -26.33292,-37.27801 -37.92502,-49.74715 -48.33478,-79.72099 -10.40976,-29.97384 2.5109,-24.6905 2.09241,-42.26678 -0.41848,-17.57628 -3.76634,-28.03836 -3.76634,-28.03836 l -106.29466,5.0218 z" />
        <path id="path1401" style="fill:#e20909;fill-opacity:1;fill-rule:evenodd;stroke:#000000;stroke-width:2.99999928;stroke-linecap:butt;stroke-linejoin:miter;stroke-miterlimit:4;stroke-opacity:1;stroke-dasharray:none;display:inline" d="m 317.51802,158.98274 c -20.99477,2.99502 -41.05486,9.88986 -63.91702,8.28553 -31.02185,-2.17692 -21.99164,-17.01246 -17.75473,-21.8975 4.0376,-4.65525 19.96099,10.9109 33.73399,15.97926 15.98021,5.8806 31.96043,-1.57147 47.93776,-2.36729 z" />
        <path style="fill:#fcef3c;fill-opacity:1;fill-rule:evenodd;stroke:#000000;stroke-width:2.99999905;stroke-linecap:butt;stroke-linejoin:miter;stroke-miterlimit:4;stroke-opacity:1;stroke-dasharray:none" d="m 272.02554,39.568414 15.58987,50.648193 c 32.30417,2.519583 68.70402,5.416562 97.17322,7.151667 l 27.42906,-47.826049 c -8.36008,0.976897 -16.13605,4.279321 -22.24673,14.211747 -5.11326,-7.206842 -11.15562,-6.172229 -18.04609,2.384929 10.90077,-2.17396 13.01277,7.003402 6.65835,11.328112 -3.58091,2.437119 -11.67942,2.738582 -13.7427,-10.982287 -4.21066,8.844407 -9.7917,8.128227 -14.50686,7.393309 -10.40107,-1.314844 -2.87754,-21.483766 6.23914,-8.903886 4.95655,-5.005395 1.30857,-15.904139 -8.45343,-13.670192 0.7428,-6.991663 -1.06988,-12.989483 -5.25448,-18.064867 -4.77047,3.555886 -9.52819,7.130609 -10.09756,16.900114 -7.07425,-6.247356 -16.51747,1.350889 -12.80362,11.836603 11.34117,-10.267332 15.45353,5.480084 9.62262,9.763571 -3.04155,2.234366 -11.48004,6.001399 -16.51699,-8.83462 0.79743,6.299245 -9.91589,13.247848 -14.48067,9.491689 -6.16817,-5.075488 -2.92279,-14.743013 6.86712,-11.079692 C 302.36096,51.84527 296.65863,49.04394 287.8454,56.034867 283.66999,44.470369 278.07909,39.912283 272.02554,39.568414 z" id="path6599" sodipodi:nodetypes="ccccccscccccccscsccc" />
        <path id="path1723" style="fill:#e20909;fill-opacity:1;fill-rule:evenodd;stroke:#000000;stroke-width:2.99999928;stroke-linecap:butt;stroke-linejoin:miter;stroke-miterlimit:4;stroke-opacity:1;stroke-dasharray:none;display:inline" d="m 307.45701,145.37078 c -5.04236,-5.3597 -14.94789,-5.63157 -25.00458,-4.29072 -1.68504,-2.29856 -9.0573,-6.6029 -27.9637,-5.7703 -6.81405,-8.64153 -7.95813,-22.28112 0.29592,-27.51982 7.55134,-4.7927 21.27743,-2.57576 22.78523,-3.55095 8.83361,-5.713255 4.88254,-13.316048 24.26479,-16.571074 19.38224,-3.255036 53.26419,3.55094 53.26419,3.55094 0,0 11.0967,-5.326415 18.05063,-5.918244 6.95394,-0.591818 6.36211,-0.591818 9.7651,3.550951 3.403,4.142768 6.87997,5.992222 3.84687,13.020137 -3.0331,7.02791 -15.97926,15.09151 -15.97926,15.09151 0,0 -6.0662,17.97667 0,30.47895 6.0662,12.50229 27.22392,21.30567 27.22392,21.30567 -9.5727,0.50449 -16.95532,2.26047 -21.00977,5.91825 -2.26866,1.77547 -4.23036,5.19561 -3.25503,7.98962 2.30436,6.6012 14.7956,17.75473 14.7956,17.75473 0,0 -5.10449,-2.36729 -7.69372,3.84686 -2.58923,6.21416 -2.66319,21.00976 -2.66319,21.00976 0,0 -16.42371,0.21105 -20.41794,11.24465 -5.53053,15.27744 7.84876,38.33162 10.65283,34.32582 0,0 -8.72941,3.32902 -15.38743,0.88773 -6.65802,-2.44127 -12.72422,-10.65284 -12.72422,-10.65284 -6.39243,1.1594 -11.73913,4.27983 -14.20378,8.58145 -41.86675,-13.75509 -52.80965,3.41365 -63.02929,21.30568 -3.17344,3.21242 -7.08499,4.57956 -11.83648,3.84686 6.32907,-8.01022 7.30389,-17.35899 7.3978,-26.928 -17.59077,1.11109 -33.8994,15.96235 -56.81512,12.72422 11.8624,-7.99899 18.09348,-18.25051 14.20378,-32.55034 -9.74768,-5.97861 -23.73327,-6.87172 -37.28493,-8.28554 41.53116,-8.83858 67.537,-19.37297 73.68212,-35.50945 l 27.22392,-2.3673 c 9.80529,-5.86809 10.07465,-10.86928 11.54056,-15.97925 -6.65479,-7.05795 -17.60637,-1.17609 -26.92799,-3.84686 -3.92954,-1.12586 -4.19439,-6.21243 -2.32821,-7.60454 0.93309,-0.69605 1.9599,-3.2281 3.56174,-3.56582 1.60185,-0.33771 3.77873,1.51893 5.82834,1.31471 7.63775,-0.76103 31.88562,-1.21946 39.69224,-2.57266 4.77716,-8.74795 2.77041,-17.54559 -3.55094,-24.26479 z" />
        <path id="path1387" style="fill:#e20909;fill-opacity:1;fill-rule:evenodd;stroke:#000000;stroke-width:2.99999928;stroke-linecap:butt;stroke-linejoin:miter;stroke-miterlimit:4;stroke-opacity:1;stroke-dasharray:none;display:inline" d="m 321.79155,106.48891 c 0.003,2.08113 -3.55766,3.76902 -7.95117,3.76902 -4.39352,0 -7.9543,-1.68789 -7.95117,-3.76902 -0.003,-2.08114 3.55765,-3.76902 7.95117,-3.76902 4.39351,0 7.95429,1.68788 7.95117,3.76902 z" />
      </g>
    </g>
    <g transform="matrix(5.1073859,0,0,5.1073859,-9.7996864,-10.10181)" id="outline-1" inkscape:label="Outline">
      <path inkscape:label="Outline" sodipodi:nodetypes="ccszsc" id="path2384-5" d="m 3.9187284,3.9778826 182.1625416,0 -3.99459,92.7325464 C 178.7769,173.54556 134.69793,196.01693 95,196.01693 c -39.697059,0 -84.977417,-26.42184 -87.662072,-99.265169 L 3.9187284,3.9778826 z" style="fill:none;stroke:#000000;stroke-width:4" />
    </g>
  </g>
  <g inkscape:label="Outline" inkscape:groupmode="layer" id="outline" transform="matrix(5.1073859,0,0,5.1073859,-9.7996864,-10.10181)">
    <path style="fill:url(#radialGradient3035);fill-opacity:1;fill-rule:evenodd;stroke:none" id="path2875" d="m 3.9187284,3.9778826 182.1625416,0 -3.99459,92.7325464 C 178.7769,173.54556 134.69793,196.01693 95,196.01693 c -39.697059,0 -84.977417,-26.42184 -87.662072,-99.265169 L 3.9187284,3.9778826 z" inkscape:label="3D sheen" />
    <path style="fill:none;stroke:#000000;stroke-width:4" d="m 3.9187284,3.9778826 182.1625416,0 -3.99459,92.7325464 C 178.7769,173.54556 134.69793,196.01693 95,196.01693 c -39.697059,0 -84.977417,-26.42184 -87.662072,-99.265169 L 3.9187284,3.9778826 z" id="path2384" sodipodi:nodetypes="ccszsc" inkscape:label="Outline" />
  </g>
</svg>
