<?xml version="1.0" encoding="UTF-8" standalone="no"?>
<!-- Generator: Adobe Illustrator 15.1.0, SVG Export Plug-In . SVG Version: 6.00 Build 0)  -->

<svg
   version="1.1"
   id="Ebene_1"
   x="0px"
   y="0px"
   width="100"
   height="127.477"
   viewBox="0 0 100 127.477"
   xml:space="preserve"
   sodipodi:docname="Freudenstadt-CoA-Vector.svg"
   inkscape:version="1.1.1 (3bf5ae0d25, 2021-09-20)"
   xmlns:inkscape="http://www.inkscape.org/namespaces/inkscape"
   xmlns:sodipodi="http://sodipodi.sourceforge.net/DTD/sodipodi-0.dtd"
   xmlns="http://www.w3.org/2000/svg"
   xmlns:svg="http://www.w3.org/2000/svg"><defs
   id="defs53" /><sodipodi:namedview
   id="namedview51"
   pagecolor="#ffffff"
   bordercolor="#666666"
   borderopacity="1.0"
   inkscape:pageshadow="2"
   inkscape:pageopacity="0.0"
   inkscape:pagecheckerboard="0"
   showgrid="false"
   inkscape:zoom="4.5961941"
   inkscape:cx="36.551981"
   inkscape:cy="51.673188"
   inkscape:window-width="1920"
   inkscape:window-height="1017"
   inkscape:window-x="-8"
   inkscape:window-y="-8"
   inkscape:window-maximized="1"
   inkscape:current-layer="g48" />
<g
   id="g48"
   transform="translate(0,-0.262)">
	<path
   style="fill:#da251d;fill-opacity:1"
   d="m 2.551,38.15 v 39.234 c 0,22.611 19.486,47.805 47.449,47.805 27.962,0 47.451,-25.193 47.451,-47.805 V 38.15 Z"
   id="path2" />
	<rect
   x="2.5510001"
   y="2.74"
   style="fill:#fcdb00;fill-opacity:1"
   width="94.900002"
   height="34.561001"
   id="rect4" />
	<path
   d="m 0,0.262 v 77.123 c 0,11.626 5.17,24.276 13.83,33.841 9.643,10.648 22.488,16.513 36.17,16.513 13.683,0 26.529,-5.864 36.169,-16.513 C 94.83,101.661 100,89.011 100,77.385 V 0.262 Z m 97.451,2.549 v 34.49 H 2.551 V 2.811 Z M 50,125.189 C 22.037,125.189 2.551,99.996 2.551,77.384 V 38.15 h 94.9 v 39.234 c 0,22.612 -19.488,47.805 -47.451,47.805 z"
   id="path6" />
	<path
   d="m 18.627,26.182 c 0,0 6.09,-1.416 7.365,-3.541 1.273,-2.124 4.768,-12.181 13.031,-13.173 1.77,-0.212 2.336,1.842 0.637,2.479 -1.699,0.638 -7.223,3.966 -7.223,8.003 0,1.7 4.592,-0.142 8.244,-0.354 3.652,-0.213 5.068,0 5.354,-0.496 0.283,-0.495 3.332,-7.39 9.56,-9.646 1.912,-0.693 3.824,0.652 1.699,2.493 -2.125,1.842 -4.32,4.037 -5.1,4.887 -0.779,0.851 -0.779,2.551 1.912,2.621 2.691,0.07 6.658,0.566 7.648,0.85 0.992,0.283 1.346,0.071 2.195,-1.274 0.852,-1.346 5.24,-6.657 11.828,-6.657 2.975,0 3.115,3.611 -0.566,3.611 -3.684,0 -4.873,2.627 -6.445,4.462 -0.426,0.496 -0.354,1.204 0.92,1.487 1.275,0.283 7.152,1.983 7.508,2.054 0.354,0.071 1.203,0.354 1.912,-0.213 0.709,-0.566 3.684,-2.762 4.604,-3.187 0.92,-0.425 4.746,-0.496 6.586,0.708 1.842,1.204 3.188,2.55 2.338,3.258 -0.85,0.708 -2.832,-0.85 -5.1,-0.85 -2.266,0 -4.32,2.267 -4.604,2.762 0,0 7.791,3.188 9.207,4.462 1.416,1.274 1.842,4.674 -1.912,3.683 -3.754,-0.991 -20.893,-9.915 -39.873,-9.915 -18.979,0 -26.557,3.188 -30.098,6.021 0,0 2.479,4.674 -1.629,5.24 -4.108,0.566 -3.684,-2.408 -3.684,-2.408 0,0 -4.248,1.134 -5.453,-2.337 -1.203,-3.47 3.824,-4.674 3.824,-4.674 0,0 -1.068,-4.075 1.559,-4.533 3.26,-0.568 3.756,4.177 3.756,4.177 z"
   id="path8" />
	<path
   style="fill:#ffffff"
   d="m 15.086,24.27 c 0.424,0.566 0.566,1.7 0.566,2.195 0,0.496 1.557,-0.282 0.99,-1.487 -0.565,-1.205 -1.556,-0.708 -1.556,-0.708 z"
   id="path10" />
	<path
   style="fill:#ffffff"
   d="m 11.545,30.997 c 0.498,-0.397 0.566,0.709 1.346,0.921 0.779,0.213 1.273,0.213 1.273,0.496 0,0.283 -1.203,0.779 -2.053,0.354 -0.849,-0.425 -0.921,-1.487 -0.566,-1.771 z"
   id="path12" />
	<path
   style="fill:#ffffff"
   d="m 17.495,32.934 c 0.99,0.118 1.77,0.448 2.123,0 0.355,-0.449 -0.211,1.747 -0.777,1.747 -0.566,0 -0.143,-0.533 -0.639,-0.904 -0.496,-0.371 -0.707,-0.843 -0.707,-0.843 z"
   id="path14" />
	<path
   style="fill:#ffffff"
   d="m 30.809,20.162 c -0.426,-1.276 0.051,2.865 -1.629,4.007 -0.568,0.384 2.973,-0.891 3.895,-0.891 0.92,0 -1.492,-0.425 -1.877,-0.425 -0.477,10e-4 -0.248,-2.266 -0.389,-2.691 z"
   id="path16" />
	<path
   style="fill:#ffffff"
   d="m 50.249,17.364 c -0.4,0.577 -1.133,1.948 -1.133,4.002 0,0.248 -0.283,0.425 -0.531,0.46 -0.248,0.035 1.982,0.009 4.001,0.603 0.602,0.177 0.686,-0.564 -2.337,-1.134 -1.129,-0.212 0.035,-2.938 0.283,-3.435 0.248,-0.497 0.011,-0.92 -0.283,-0.496 z"
   id="path18" />
	<path
   style="fill:#ffffff"
   d="m 66.678,21.685 c -0.494,0.46 -1.416,1.877 -1.416,1.877 0,0 1.346,0.46 1.664,0.566 0.32,0.106 0.957,-0.212 0.957,-0.212 0,0 -1.203,-0.283 -1.311,-0.744 -0.105,-0.461 0.106,-1.487 0.106,-1.487 z"
   id="path20" />
	<path
   style="fill:#ffffff"
   d="m 77.443,26.606 c 0.881,0.328 1.381,0.566 1.629,0.531 0.248,-0.035 1.238,-1.452 2.053,-1.346 0,0 -1.486,1.487 -1.84,2.09 0,0 -1.205,-0.998 -2.303,-1.048 0,0.001 0.022,-0.39 0.461,-0.227 z"
   id="path22" />
	<path
   style="fill:#fcdb00;fill-opacity:1"
   d="m 42.209,44.312 c 0,0 14.306,1.346 20.892,-0.85 0,0 -0.99,4.249 0,8.356 0,0 -9.334,-2.954 -12.675,-0.566 -1.488,1.063 -0.85,4.037 -0.922,4.887 -0.07,0.85 0.496,18.839 0.496,18.839 0.07,1.346 1.345,1.346 3.187,0 v 6.94 c 0,0 -1.77,-2.408 -3.187,-1.063 -1.416,1.346 1.062,17.493 1.062,17.493 0,0 -4.107,-0.638 -6.798,0 0,0.001 3.117,-41.572 -2.055,-54.036 z"
   id="path24" />
	<path
   d="m 44.264,98.773 c -0.1,0 -0.197,-0.035 -0.275,-0.102 -0.104,-0.088 -0.158,-0.22 -0.148,-0.355 0.031,-0.415 3.049,-41.612 -2.023,-53.842 -0.057,-0.138 -0.037,-0.295 0.051,-0.415 0.09,-0.12 0.234,-0.189 0.383,-0.171 0.043,0.004 4.379,0.406 9.296,0.406 5.117,0 8.961,-0.416 11.42,-1.235 0.146,-0.05 0.307,-0.015 0.422,0.089 0.113,0.104 0.162,0.26 0.127,0.41 -0.01,0.041 -0.955,4.204 0,8.16 0.035,0.149 -0.012,0.307 -0.123,0.411 -0.113,0.104 -0.273,0.14 -0.418,0.094 -0.047,-0.015 -4.721,-1.479 -8.539,-1.479 -1.705,0 -2.971,0.287 -3.763,0.853 -0.965,0.689 -0.844,2.561 -0.77,3.679 0.025,0.379 0.045,0.678 0.025,0.897 -0.057,0.678 0.34,13.793 0.498,18.79 0.031,0.598 0.338,0.598 0.504,0.598 0.275,0 0.902,-0.12 2.005,-0.928 0.131,-0.094 0.301,-0.107 0.443,-0.035 0.142,0.072 0.232,0.219 0.232,0.379 v 6.94 c 0,0.184 -0.117,0.346 -0.291,0.403 -0.174,0.057 -0.365,-0.004 -0.475,-0.151 -0.268,-0.361 -1.127,-1.298 -1.888,-1.298 -0.24,0 -0.457,0.095 -0.664,0.292 -0.785,0.746 -0.012,9.29 1.189,17.12 0.021,0.134 -0.023,0.27 -0.119,0.365 -0.098,0.096 -0.232,0.139 -0.365,0.119 -0.02,-0.003 -1.82,-0.278 -3.775,-0.278 -1.137,0 -2.1,0.091 -2.861,0.271 -0.031,0.01 -0.065,0.013 -0.098,0.013 z m 2.959,-1.133 c 1.365,0 2.633,0.127 3.334,0.212 -0.658,-4.377 -2.248,-15.976 -0.85,-17.305 0.367,-0.349 0.787,-0.525 1.25,-0.525 0.695,0 1.335,0.407 1.804,0.818 v -5.069 c -0.701,0.421 -1.326,0.641 -1.832,0.641 -0.801,0 -1.307,-0.527 -1.354,-1.412 -0.023,-0.744 -0.566,-18.031 -0.494,-18.896 0.012,-0.157 -0.006,-0.441 -0.027,-0.771 -0.086,-1.295 -0.227,-3.462 1.123,-4.426 0.939,-0.671 2.371,-1.011 4.257,-1.011 3.102,0 6.631,0.896 8.1,1.313 -0.563,-2.963 -0.207,-5.838 0.016,-7.134 -2.547,0.711 -6.242,1.071 -11.004,1.071 -3.808,0 -7.271,-0.24 -8.693,-0.353 4.551,12.413 2.236,47.923 1.875,53.028 0.716,-0.12 1.552,-0.181 2.495,-0.181 z"
   id="path26" />
	<path
   style="fill:#ffffff"
   d="m 8.145,52.243 c 1.133,-1.558 1.699,-2.479 2.338,-2.69 0.637,-0.213 3.398,-0.496 9.418,0 6.021,0.496 9.561,3.116 10.766,4.745 1.205,1.629 4.32,4.744 5.736,6.09 1.416,1.346 3.967,3.329 3.895,4.037 -0.07,0.709 -3.045,1.912 -3.045,1.912 0,0 2.195,7.436 2.195,13.314 0,8.074 -5.098,16.714 -4.814,20.326 0.283,3.611 1.873,5.233 7.01,7.436 0.496,0.213 -4.793,3.887 -9.064,2.691 -1.77,-0.496 -5.453,-7.224 -5.453,-7.224 0,0 -4.887,1.558 -6.869,0.495 -1.982,-1.062 -4.887,-5.948 -4.816,-10.623 0,0 5.736,4.958 9.914,3.116 4.18,-1.841 3.826,-7.932 3.754,-9.561 h -1.912 c 0,0 -0.07,-3.187 -0.211,-4.604 -0.143,-1.416 -1.984,-3.753 -2.551,-5.523 -0.567,-1.77 -1.346,-4.533 -1.77,-4.533 -0.426,0 -1.275,1.204 -1.912,1.063 -0.639,-0.142 0.354,-11.119 -5.666,-14.447 0,0 0,4.887 0.566,5.736 0,0 -1.834,-0.688 -2.125,-4.745 -0.07,-0.991 -2.762,-1.912 -3.398,-1.912 -0.639,0 1.416,-1.7 1.486,-2.479 0.069,-0.778 -3.472,-2.62 -3.472,-2.62 z"
   id="path28" />
	<g
   id="g36">
		<path
   d="m 41.811,107.022 c -5.037,-2.159 -6.488,-3.682 -6.754,-7.078 -0.113,-1.448 0.74,-3.897 1.73,-6.734 1.375,-3.941 3.086,-8.847 3.086,-13.559 0,-5.127 -1.67,-11.484 -2.109,-13.066 1.383,-0.585 2.883,-1.384 2.957,-2.118 0.066,-0.671 -0.793,-1.508 -2.773,-3.256 -0.459,-0.405 -0.891,-0.787 -1.252,-1.131 -1.344,-1.276 -4.502,-4.43 -5.688,-6.035 -1.455,-1.967 -5.227,-4.435 -11.072,-4.916 -2.23,-0.184 -4.205,-0.276 -5.871,-0.276 -1.77,0 -3.158,0.11 -3.717,0.297 -0.666,0.222 -1.184,0.946 -2.043,2.146 -0.154,0.216 -0.322,0.449 -0.504,0.699 -0.072,0.1 -0.098,0.227 -0.07,0.347 0.029,0.12 0.109,0.221 0.219,0.278 1.629,0.848 3.145,1.897 3.242,2.205 -0.021,0.248 -0.582,0.909 -0.883,1.265 -0.551,0.649 -0.855,1.008 -0.682,1.383 0.086,0.185 0.273,0.295 0.502,0.295 0.668,0 2.932,0.922 2.975,1.518 0.307,4.279 2.314,5.081 2.398,5.112 0.049,0.019 0.1,0.027 0.15,0.027 0.002,0 0.006,0 0.008,0 0.234,0 0.426,-0.189 0.426,-0.425 0,-0.108 -0.041,-0.206 -0.107,-0.281 -0.281,-0.545 -0.428,-2.83 -0.461,-4.682 3.746,2.669 4.254,8.838 4.504,11.885 0.135,1.614 0.174,2.102 0.637,2.204 0.066,0.014 0.133,0.021 0.201,0.021 0.5,0 0.959,-0.385 1.363,-0.724 0.109,-0.092 0.258,-0.217 0.354,-0.291 0.307,0.504 0.836,2.206 1.166,3.262 0.1,0.321 0.195,0.632 0.287,0.916 0.266,0.833 0.789,1.762 1.293,2.66 0.574,1.023 1.168,2.082 1.238,2.777 0.139,1.384 0.211,4.538 0.211,4.57 0.006,0.23 0.193,0.415 0.424,0.415 H 28.7 c 0.156,4.708 -1.027,7.65 -3.516,8.747 -0.564,0.248 -1.195,0.374 -1.879,0.374 -3.58,0 -7.547,-3.389 -7.588,-3.423 -0.125,-0.108 -0.301,-0.133 -0.451,-0.065 -0.15,0.068 -0.248,0.216 -0.25,0.381 -0.076,4.951 2.982,9.902 5.039,11.004 0.521,0.279 1.244,0.422 2.148,0.421 1.809,0 3.91,-0.553 4.717,-0.786 0.805,1.439 3.82,6.646 5.543,7.128 0.604,0.169 1.258,0.254 1.943,0.254 3.531,0 7.51,-2.355 7.684,-3.204 0.047,-0.227 -0.068,-0.45 -0.279,-0.541 z m -14.686,-4.566 c -0.043,0 -0.086,0.006 -0.129,0.02 -0.021,0.007 -1.736,0.547 -3.504,0.761 -3.949,-0.108 -4.006,-1.222 -3.555,-1.312 1.859,-0.372 3.965,-1.381 3.186,-1.239 -4.691,0.852 -5.912,-2.09 -5.24,-2.09 3.719,0 4.143,-1.31 4.143,-1.31 -6.16,0.071 -5.701,-1.806 -5.488,-2.343 0.09,-0.229 0.387,-0.325 0.744,-0.334 1.578,0.99 3.828,2.095 6.023,2.095 0.803,0 1.549,-0.15 2.221,-0.446 2.896,-1.276 4.246,-4.597 4.012,-9.87 L 29.534,86.29 c -0.01,-0.228 -0.197,-0.406 -0.426,-0.406 h -1.496 c -0.025,-0.915 -0.092,-3.096 -0.205,-4.221 -0.088,-0.871 -0.697,-1.958 -1.344,-3.108 -0.482,-0.861 -0.984,-1.752 -1.225,-2.503 -0.09,-0.283 -0.186,-0.591 -0.285,-0.909 -0.975,-3.131 -1.299,-3.919 -1.889,-3.919 -0.334,0 -0.637,0.255 -0.988,0.549 -0.191,0.16 -0.459,0.384 -0.666,0.479 -0.051,-0.3 -0.096,-0.856 -0.141,-1.399 -0.17,-2.063 -0.455,-5.493 -1.742,-8.439 0.191,-0.205 0.457,-0.466 0.846,-0.466 0.779,0 2.408,1.912 1.982,2.762 0,0 1.275,-0.779 -0.779,-3.754 0,0 2.691,-2.832 4.107,-5.948 0,0 -2.588,4.729 -6.865,6.019 -0.746,-1.248 -1.73,-2.332 -3.037,-3.079 -0.16,-0.225 -0.271,-0.396 -0.363,-0.537 -0.145,-0.226 -0.26,-0.403 -0.467,-0.633 -0.156,-0.175 -0.426,-0.188 -0.6,-0.031 -0.174,0.156 -0.189,0.425 -0.031,0.6 0.16,0.179 0.25,0.316 0.385,0.525 0.092,0.142 0.201,0.311 0.357,0.53 0.002,0.734 0.027,2.762 0.225,4.26 -0.402,-0.65 -0.813,-1.718 -0.936,-3.435 -0.082,-1.139 -2.203,-1.969 -3.297,-2.225 0.098,-0.119 0.207,-0.249 0.303,-0.36 0.127,-0.15 0.244,-0.291 0.354,-0.428 0.639,0.383 1.035,0.689 1.619,1.187 0.039,0.034 0.088,0.051 0.137,0.051 0.061,0 0.121,-0.025 0.162,-0.075 0.076,-0.09 0.064,-0.224 -0.023,-0.3 -0.592,-0.501 -0.996,-0.815 -1.633,-1.199 0.268,-0.364 0.439,-0.681 0.467,-0.973 0.072,-0.806 -1.643,-1.931 -3.264,-2.806 0.076,-0.105 0.148,-0.208 0.221,-0.307 0.732,-1.023 1.217,-1.699 1.621,-1.835 0.078,-0.025 0.836,-0.253 3.447,-0.253 1.643,0 3.594,0.092 5.803,0.274 5.947,0.489 9.371,3.105 10.457,4.574 1.176,1.591 4.174,4.613 5.785,6.146 0.373,0.354 0.811,0.741 1.275,1.151 0.893,0.787 2.373,2.097 2.484,2.531 -0.156,0.277 -1.219,0.895 -2.408,1.41 -0.406,-0.819 -0.883,-1.615 -0.906,-1.653 -0.121,-0.201 -0.381,-0.268 -0.584,-0.146 -0.201,0.121 -0.266,0.382 -0.145,0.583 0.006,0.011 0.617,1.032 1.027,1.916 0.15,0.521 2.17,7.603 2.17,13.163 0,4.567 -1.686,9.397 -3.039,13.278 -1.063,3.048 -1.902,5.456 -1.775,7.081 0.285,3.639 1.824,5.393 6.785,7.583 -0.119,0.095 -0.273,0.204 -0.453,0.322 -1.85,0.004 -3.451,0.023 -3.607,-0.29 0,0 0.035,1.098 0.248,1.452 0,0 -0.949,0.434 -3.967,-1.452 -0.85,-0.531 0.107,1.452 0.639,1.842 0,0 -0.742,0.229 -1.795,-0.182 -1.313,-1.162 -3.383,-4.459 -4.561,-6.609 -0.076,-0.141 -0.22,-0.222 -0.373,-0.222 z"
   id="path30" />
		<path
   d="m 18.167,50.757 c -0.959,0 -1.734,0.776 -1.734,1.735 0,0.31 0.088,0.597 0.23,0.85 -0.004,-0.031 -0.01,-0.062 -0.01,-0.093 0,-0.418 0.338,-0.757 0.758,-0.757 0.416,0 0.756,0.339 0.756,0.757 0,0.417 -0.34,0.756 -0.756,0.756 -0.033,0 -0.063,-0.006 -0.094,-0.01 0.252,0.144 0.539,0.231 0.85,0.231 0.959,0 1.734,-0.776 1.734,-1.734 0,-0.959 -0.776,-1.735 -1.734,-1.735 z"
   id="path32" />
		<path
   d="m 12.924,53.795 c -0.217,-0.128 -1.947,-1.85 -2.557,-2.638 -0.072,-0.093 -0.205,-0.109 -0.299,-0.038 -0.092,0.072 -0.109,0.205 -0.037,0.298 0.594,0.77 2.383,2.575 2.682,2.747 0.033,0.019 0.07,0.027 0.105,0.027 0.072,0 0.145,-0.038 0.184,-0.106 0.059,-0.101 0.024,-0.231 -0.078,-0.29 z"
   id="path34" />
	</g>
	<path
   style="fill:#ffffff"
   d="m 94.83,50.544 c 0,-2.975 -12.607,-4.887 -20.893,-0.495 -8.287,4.391 -10.41,10.48 -11.189,10.905 -0.779,0.426 -4.795,1.572 -5.736,4.392 -0.143,0.425 2.336,2.125 2.336,2.125 0,0 -1.629,4.744 -1.629,8.853 0,4.107 1.004,12.756 7.225,22.804 0.92,1.487 1.416,5.313 -4.674,10.481 0,0 6.02,2.602 8.002,0.734 1.982,-1.868 4.107,-6.471 4.107,-6.471 0,0 7.012,1.912 8.994,0.779 1.984,-1.134 4.18,-4.107 4.18,-9.915 0,0 -6.525,5.808 -12.678,2.975 -4.461,-2.054 -4.533,-10.27 -4.533,-10.27 0,0 1.629,-0.354 2.338,-1.346 0.709,-0.992 -0.426,-4.498 0.213,-6.285 0.637,-1.788 2.902,-4.338 3.895,-5.684 0.992,-1.345 1.699,-4.887 1.699,-4.887 0,0 1.346,1.488 2.338,1.665 0,0 -1.031,-4.645 4.178,-11.048 1.699,-2.09 4.676,-2.09 5.666,-2.656 0.992,-0.566 1.488,-1.204 1.488,-1.204 0,0 0.566,1.77 -1.984,5.665 0,0 1.559,0.992 3.541,-3.682 0,0 2.762,-0.496 2.621,-2.62 0,0 -2.502,0.354 -2.551,-0.921 -0.071,-1.911 3.046,-2.265 3.046,-3.894 z"
   id="path38" />
	<g
   id="g46">
		<path
   d="m 94.602,55.03 c -0.092,-0.074 -0.211,-0.108 -0.328,-0.091 -0.002,0 -0.299,0.041 -0.674,0.041 -0.412,0 -1.373,-0.054 -1.391,-0.557 -0.029,-0.768 0.674,-1.25 1.418,-1.762 0.764,-0.523 1.627,-1.118 1.627,-2.118 0,-2.277 -5.037,-3.506 -9.775,-3.506 -4.365,0 -8.533,0.936 -11.74,2.635 -6.453,3.419 -9.203,7.814 -10.523,9.927 -0.279,0.445 -0.568,0.905 -0.67,0.981 -0.113,0.063 -0.346,0.158 -0.613,0.269 -1.455,0.598 -4.482,1.842 -5.324,4.361 -0.082,0.246 -0.232,0.698 2.238,2.428 -0.361,1.128 -1.551,5.105 -1.551,8.685 0,3.385 0.709,12.404 7.287,23.027 1.131,1.826 0.607,5.524 -4.588,9.935 -0.113,0.095 -0.168,0.241 -0.146,0.387 0.021,0.145 0.117,0.269 0.252,0.327 0.137,0.059 3.371,1.443 5.941,1.443 1.117,0 1.965,-0.266 2.521,-0.79 1.734,-1.632 3.521,-5.184 4.051,-6.279 1.066,0.273 4.355,1.063 6.756,1.063 1.002,0 1.727,-0.136 2.215,-0.415 1.32,-0.755 4.393,-3.268 4.393,-10.284 0,-0.167 -0.098,-0.319 -0.25,-0.388 -0.152,-0.067 -0.332,-0.041 -0.457,0.07 -0.041,0.037 -4.158,3.646 -8.785,3.646 -1.211,0.001 -2.365,-0.249 -3.432,-0.739 -3.678,-1.693 -4.201,-8.046 -4.273,-9.562 0.561,-0.172 1.658,-0.598 2.246,-1.421 0.445,-0.624 0.336,-1.783 0.211,-3.126 -0.109,-1.152 -0.232,-2.458 0.057,-3.264 0.461,-1.296 1.895,-3.103 2.941,-4.423 0.346,-0.435 0.656,-0.827 0.895,-1.151 0.752,-1.02 1.332,-3.146 1.604,-4.29 0.523,0.481 1.314,1.109 2.018,1.234 0.023,0.005 0.049,0.007 0.074,0.007 0.002,0 0.004,0 0.008,0 0.234,0 0.426,-0.189 0.426,-0.425 0,-0.056 -0.012,-0.109 -0.031,-0.158 -0.094,-0.578 -0.584,-4.858 4.105,-10.622 1.092,-1.342 2.813,-1.766 4.068,-2.075 0.604,-0.149 1.125,-0.277 1.479,-0.479 0.346,-0.197 0.637,-0.404 0.871,-0.593 -0.107,0.838 -0.527,2.303 -1.934,4.452 -0.063,0.095 -0.084,0.211 -0.059,0.322 0.023,0.111 0.09,0.208 0.186,0.27 0.041,0.025 0.262,0.154 0.613,0.154 0.822,0 2.08,-0.671 3.459,-3.825 1.117,-0.271 2.865,-1.17 2.742,-3.019 -0.01,-0.118 -0.067,-0.228 -0.158,-0.302 z m -3.28,2.784 c -1.016,2.393 -1.869,3.165 -2.369,3.406 2.104,-3.491 1.668,-5.164 1.607,-5.353 -0.049,-0.15 -0.176,-0.261 -0.33,-0.288 -0.154,-0.029 -0.313,0.032 -0.41,0.155 -0.004,0.006 -0.465,0.584 -1.363,1.097 -0.25,0.144 -0.719,0.259 -1.26,0.393 -1.039,0.256 -2.369,0.585 -3.506,1.407 -2.398,-1.194 -4.264,-1.697 -5.717,-5.573 0,0 -1.314,2.388 1.807,4.922 h -0.002 c -0.672,1.204 -1.592,3.328 -1.592,5.028 0,0 1.123,-3.171 2.234,-4.55 0.596,0.409 1.316,0.817 2.184,1.217 -4.057,5.026 -4.365,8.981 -4.283,10.57 -0.604,-0.358 -1.26,-1.003 -1.52,-1.291 -0.109,-0.118 -0.273,-0.167 -0.43,-0.124 -0.154,0.043 -0.271,0.169 -0.303,0.326 -0.008,0.034 -0.701,3.463 -1.625,4.718 -0.234,0.317 -0.539,0.702 -0.877,1.127 -1.145,1.442 -2.566,3.237 -3.076,4.665 -0.352,0.984 -0.225,2.329 -0.102,3.629 0.096,1.025 0.205,2.187 -0.057,2.554 -0.604,0.843 -2.068,1.174 -2.082,1.177 -0.197,0.044 -0.336,0.219 -0.334,0.419 0.002,0.347 0.127,8.51 4.779,10.651 1.178,0.543 2.453,0.818 3.787,0.817 2.143,0 4.148,-0.692 5.748,-1.491 1.189,-0.257 2.217,-0.414 2.742,-0.254 -0.063,0.485 -0.137,0.947 -0.23,1.373 -1.227,1.034 -3.902,1.896 -3.902,1.896 2.146,-0.596 3.018,-0.372 3.275,0.132 -0.34,0.828 -0.73,1.494 -1.123,2.019 -1.422,0.438 -3.904,0.346 -3.904,0.346 0.963,0.186 1.855,0.847 2.049,1.361 -0.252,0.136 -0.756,0.29 -1.77,0.29 -2.727,0 -6.836,-1.111 -6.879,-1.123 -0.199,-0.054 -0.41,0.044 -0.496,0.232 -0.021,0.045 -2.113,4.549 -4.014,6.34 -0.025,0.023 -0.055,0.044 -0.082,0.066 -0.434,-0.272 -0.865,-0.899 -0.865,-0.899 -0.453,0.604 -1.129,1.074 -1.705,1.355 -0.365,-0.035 -0.738,-0.093 -1.109,-0.166 0.086,-0.651 0.529,-1.773 0.529,-1.773 -0.518,0.862 -1.074,1.097 -1.859,1.452 -0.725,-0.205 -1.369,-0.431 -1.814,-0.598 6.6,-5.883 4.691,-9.822 4.23,-10.568 -6.463,-10.438 -7.16,-19.269 -7.16,-22.58 0,-3.987 1.59,-8.668 1.605,-8.715 0.043,-0.125 0.021,-0.257 -0.047,-0.363 0.111,-0.214 0.225,-0.436 0.342,-0.666 0.686,-1.351 1.463,-2.881 2.004,-3.42 0.082,-0.083 0.082,-0.218 0,-0.301 -0.084,-0.083 -0.219,-0.083 -0.301,0 -0.588,0.588 -1.381,2.149 -2.082,3.527 -0.102,0.2 -0.201,0.393 -0.297,0.58 -0.604,-0.425 -1.229,-0.912 -1.605,-1.264 0.658,-0.948 1.729,-2.209 2.316,-2.504 0.105,-0.053 0.148,-0.18 0.096,-0.284 -0.053,-0.105 -0.182,-0.147 -0.285,-0.096 -0.664,0.333 -1.736,1.587 -2.426,2.567 -0.002,-0.004 -0.01,-0.011 -0.012,-0.015 0.775,-2.081 3.486,-3.195 4.801,-3.736 0.314,-0.13 0.543,-0.223 0.697,-0.308 0.279,-0.151 0.516,-0.527 0.982,-1.276 1.283,-2.05 3.951,-6.314 10.203,-9.627 3.086,-1.635 7.113,-2.536 11.342,-2.536 5.26,0 8.926,1.4 8.926,2.656 0,0.553 -0.582,0.954 -1.258,1.418 -0.859,0.59 -1.832,1.259 -1.787,2.493 0.016,0.42 0.232,1.073 1.355,1.297 -0.512,0.913 -0.828,1.479 -1.002,1.795 -0.039,0.008 -0.066,0.014 -0.076,0.015 -0.138,0.028 -0.257,0.123 -0.312,0.254 z m 0.975,-0.443 c 0.197,-0.355 0.48,-0.862 0.871,-1.56 0.135,0.011 0.277,0.019 0.432,0.019 0.102,0 0.197,-0.002 0.285,-0.006 -0.162,0.86 -0.985,1.32 -1.588,1.547 z"
   id="path40" />
		<path
   d="m 91.078,51.69 c -0.111,-0.04 -0.232,0.017 -0.273,0.127 -0.004,0.015 -0.561,1.523 -1.295,2.259 -0.084,0.083 -0.084,0.218 0,0.301 0.041,0.042 0.096,0.063 0.15,0.063 0.054,0 0.107,-0.021 0.15,-0.063 0.803,-0.803 1.371,-2.349 1.395,-2.415 0.039,-0.11 -0.017,-0.232 -0.127,-0.272 z"
   id="path42" />
		<path
   d="m 84.746,48.969 c -1.07,0 -1.939,0.868 -1.939,1.938 0,1.07 0.869,1.938 1.939,1.938 0.316,0 0.609,-0.083 0.871,-0.216 0.002,0.001 0.004,0.004 0.006,0.005 l 0.02,-0.019 c 0.314,-0.165 0.576,-0.41 0.76,-0.714 l 0.014,-0.013 0.006,-0.024 c 0.162,-0.283 0.264,-0.607 0.264,-0.958 -10e-4,-1.069 -0.871,-1.937 -1.941,-1.937 z m -1.514,1.938 c 0,-0.835 0.68,-1.514 1.514,-1.514 0.828,0 1.502,0.668 1.512,1.493 -0.596,0.033 -1.133,0.32 -1.219,0.578 -0.07,0.212 0.094,0.563 0.289,0.839 -0.18,0.075 -0.375,0.117 -0.582,0.117 -0.834,10e-4 -1.514,-0.679 -1.514,-1.513 z"
   id="path44" />
	</g>
</g>
</svg>
