<?xml version="1.0" encoding="UTF-8"?>
<!-- Created with Inkscape (http://www.inkscape.org/) -->
<svg width="207.22mm" height="234.91mm" version="1.1" viewBox="0 0 207.22 234.91" xmlns="http://www.w3.org/2000/svg">
 <title>Stadtwappen Lahr/Schwarzwald</title>
 <path d="m103.61 231c75-37.5 115-127.5 95-227.5h-95z" fill="#005198"/>
 <path d="m103.61 3.5h-95c-20 100 20 190 95 227.5z" fill="#fcdb00"/>
 <path d="m103.61 24.1v146.2h25.6v-24.7c0-12.1 9.4001-22.1 22.019-28.687 12.381 6.5875 24.081 16.587 24.081 28.687v18.043c22.838-38.679 32.936-87.157 26.523-139.54h-24.394l3.4711 19.4h-16.4l3.5-19.4-30.059-5.29e-4 3.159 19.4h-16.4l3.4334-19.4z"/>
 <path d="m4.261 73.5c1.6352 20.259 5.8479 39.551 12.377 57.432h86.974v-57.432z" fill="#da251d" stroke="#000" stroke-linecap="square" stroke-miterlimit="8" stroke-width="3"/>
 <g fill="none" stroke="#000">
  <path d="m128.61 149.9h46.7" stroke-width="4"/>
  <g stroke-linecap="round" stroke-width="4.5">
   <path d="m151.15 119.24v35.718"/>
   <path d="m162.97 125.08v30.232"/>
   <path d="m139.12 125.74v29.623"/>
  </g>
 </g>
 <g fill="#fff" stroke="#fff" stroke-width=".26458">
  <g shape-rendering="auto" stroke-linecap="round" stroke-linejoin="round">
   <path d="m176.22 45.993c-0.90436-1.6e-5 -1.6375 0.8056-1.6375 1.7994v4.9775c2.4e-4 0.99357 0.73331 1.7989 1.6375 1.7989h15.46c0.90401-2.6e-4 1.6368-0.80548 1.637-1.7989v-4.9775c2e-5 -0.99358-0.73284-1.7991-1.637-1.7994z"/>
   <path d="m155.91 45.993c-0.90118-1.6e-5 -1.6317 0.8056-1.6317 1.7994v4.9775c2.4e-4 0.99357 0.73072 1.7989 1.6317 1.7989h15.405c0.90082-2.6e-4 1.631-0.80548 1.6313-1.7989v-4.9775c3e-5 -0.99358-0.73025-1.7991-1.6313-1.7994z"/>
   <path d="m135.8 45.993c-0.90117-1.6e-5 -1.6317 0.8056-1.6317 1.7994v4.9775c2.4e-4 0.99357 0.73072 1.7989 1.6317 1.7989h15.405c0.90082-2.6e-4 1.631-0.80548 1.6313-1.7989v-4.9775c2e-5 -0.99358-0.73025-1.7991-1.6313-1.7994z"/>
   <path d="m115.65 45.993c-0.87563-1.6e-5 -1.5855 0.8056-1.5855 1.7994v4.9775c2.3e-4 0.99357 0.71 1.7989 1.5855 1.7989h14.968c0.87528-2.6e-4 1.5848-0.80548 1.585-1.7989v-4.9775c2e-5 -0.99358-0.70955-1.7991-1.585-1.7994z"/>
   <path d="m103.61 26.414v8.5757h6.2668c0.90081-2.57e-4 1.6312-0.80548 1.6314-1.7989v-4.9775c3e-5 -0.99358-0.73041-1.7991-1.6314-1.7994z"/>
   <path d="m115.64 26.414c-0.90117-1.9e-5 -1.6314 0.8056-1.6314 1.7994v4.9775c2.4e-4 0.99357 0.73043 1.7989 1.6314 1.7989h10.578l1.5177-8.5757z"/>
   <path d="m138.33 26.414 1.3963 8.5757h9.8402c0.90081-2.57e-4 1.6312-0.80548 1.6314-1.7989v-4.9775c3e-5 -0.99358-0.73041-1.7991-1.6314-1.7994z"/>
   <path d="m155.86 26.414c-0.90117-1.9e-5 -1.6314 0.8056-1.6314 1.7994v4.9775c2.4e-4 0.99357 0.73044 1.7989 1.6314 1.7989h10.191l1.5472-8.5757z"/>
   <path d="m177.85 26.414 1.5343 8.5757h10.394c0.90081-2.57e-4 1.6312-0.80548 1.6314-1.7989v-4.9775c3e-5 -0.99358-0.73042-1.7991-1.6314-1.7994z"/>
   <path d="m195.54 26.414c-0.90117-1.9e-5 -1.6314 0.8056-1.6314 1.7994v4.9775c2.4e-4 0.99357 0.73044 1.7989 1.6314 1.7989h7.3887c-0.22689-2.846-0.50076-5.7046-0.82631-8.5757z"/>
   <path d="m103.61 45.993v8.5757h7.0606c0.90081-2.59e-4 1.6312-0.80548 1.6314-1.7989v-4.9775c3e-5 -0.99358-0.73041-1.7991-1.6314-1.7994z"/>
   <path d="m196.47 45.993c-0.90117-1.9e-5 -1.6314 0.8056-1.6314 1.7994v4.9775c2.3e-4 0.99357 0.73043 1.7989 1.6314 1.7989h7.2585c-3e-3 -2.8432-0.0535-5.7015-0.15658-8.5757z"/>
   <path d="m103.61 59.645v8.5757h14.469c0.90082-2.59e-4 1.6312-0.80548 1.6314-1.7989v-4.9775c2e-5 -0.99358-0.73042-1.7991-1.6314-1.7994z"/>
   <path d="m189.45 59.645c-0.90437-1.6e-5 -1.6376 0.8056-1.6376 1.7994v4.9775c2.4e-4 0.99357 0.73345 1.7989 1.6376 1.7989h13.905c0.159-2.8407 0.26774-5.6994 0.32504-8.5757z"/>
   <path d="m103.61 69.593v8.5757h6.5314c0.90082-2.62e-4 1.6312-0.80548 1.6314-1.7989v-4.9775c2e-5 -0.99358-0.73042-1.7991-1.6314-1.7994z"/>
   <path d="m103.61 79.57v8.5757h13.44c0.90082-2.6e-4 1.6312-0.80548 1.6314-1.7989v-4.9775c2e-5 -0.99358-0.73042-1.7991-1.6314-1.7994z"/>
   <path d="m103.61 89.839v8.5757h6.2937c0.90082-2.59e-4 1.6312-0.80548 1.6314-1.7989v-4.9775c3e-5 -0.99358-0.73041-1.7991-1.6314-1.7994z"/>
   <path d="m188.68 104.36c-0.90436-2e-5 -1.6371 0.8056-1.6371 1.7994v4.9775c2.4e-4 0.99358 0.73293 1.7989 1.6371 1.7989h7.6631c0.74846-2.8304 1.4423-5.6893 2.08-8.5757z"/>
   <path d="m164.38 59.645c-0.90117-1.6e-5 -1.6317 0.8056-1.6317 1.7994v4.9775c2.4e-4 0.99357 0.73072 1.7989 1.6317 1.7989h20.168c0.90082-2.59e-4 1.631-0.80548 1.6313-1.7989v-4.9775c2e-5 -0.99358-0.73025-1.7991-1.6313-1.7994z"/>
   <path d="m148.5 59.645c-0.90117-1.6e-5 -1.6317 0.8056-1.6317 1.7994v4.9775c2.4e-4 0.99357 0.73072 1.7989 1.6317 1.7989h10.643c0.90082-2.59e-4 1.631-0.80548 1.6313-1.7989v-4.9775c2e-5 -0.99358-0.73025-1.7991-1.6313-1.7994z"/>
   <path d="m123.06 59.645c-0.87563-1.6e-5 -1.5855 0.8056-1.5855 1.7994v4.9775c2.3e-4 0.99357 0.71001 1.7989 1.5855 1.7989h20.26c0.87528-2.59e-4 1.5848-0.80548 1.585-1.7989v-4.9775c2e-5 -0.99358-0.70955-1.7991-1.585-1.7994z"/>
   <path d="m157.2 69.654c-0.90117-1.6e-5 -1.632 0.8056-1.6319 1.7994v4.9775c2.4e-4 0.99357 0.73095 1.7989 1.6319 1.7989h44.509c0.33173-9.5e-5 0.6401-0.10952 0.89762-0.29714 0.23403-2.3887 0.43109-4.7917 0.59221-7.2083-0.25382-0.62987-0.82449-1.07-1.4898-1.0702z"/>
   <path d="m114.82 69.655c-0.87563-1.6e-5 -1.5855 0.8056-1.5855 1.7994v4.9775c2.3e-4 0.99357 0.71001 1.7989 1.5855 1.7989h36.135c0.87528-2.59e-4 1.5848-0.80548 1.585-1.7989v-4.9775c3e-5 -0.99358-0.70955-1.7991-1.585-1.7994z"/>
   <path d="m121.83 79.57c-0.90118-1.6e-5 -1.6317 0.8056-1.6317 1.7994v4.9775c2.4e-4 0.99357 0.73072 1.7989 1.6317 1.7989h21.755c0.90082-2.6e-4 1.631-0.80548 1.6313-1.7989v-4.9775c3e-5 -0.99358-0.73025-1.7991-1.6313-1.7994z"/>
   <path d="m148.41 79.57c-0.90117-1.6e-5 -1.6317 0.8056-1.6317 1.7994v4.9775c2.4e-4 0.99357 0.73072 1.7989 1.6317 1.7989h10.643c0.90081-2.6e-4 1.631-0.80548 1.6312-1.7989v-4.9775c3e-5 -0.99358-0.73025-1.7991-1.6312-1.7994z"/>
   <path d="m163.75 79.57c-0.90117-1.6e-5 -1.6317 0.8056-1.6317 1.7994v4.9775c2.4e-4 0.99357 0.73072 1.7989 1.6317 1.7989h21.226c0.90082-2.6e-4 1.631-0.80548 1.6313-1.7989v-4.9775c3e-5 -0.99358-0.73025-1.7991-1.6313-1.7994z"/>
   <path d="m189.68 79.57c-0.90118-1.6e-5 -1.632 0.8056-1.6319 1.7994v4.9775c2.3e-4 0.99357 0.73095 1.7989 1.6319 1.7989h10.643c0.43608-1.27e-4 0.83079-0.18969 1.1234-0.49713 0.17988-1.2712 0.34853-2.5471 0.50746-3.8272v-2.452c2e-5 -0.99358-0.7299-1.7991-1.6309-1.7994z"/>
   <path d="m166.34 104.36c-0.90117-2e-5 -1.6317 0.8056-1.6317 1.7994v4.9775c2.3e-4 0.99357 0.73071 1.7989 1.6317 1.7988h17.522c0.90081-2.6e-4 1.631-0.80548 1.6312-1.7988v-4.9775c3e-5 -0.99357-0.73024-1.7991-1.6312-1.7994z"/>
   <path d="m146.15 104.36c-0.90118-2e-5 -1.6317 0.8056-1.6317 1.7994v4.9775c2.4e-4 0.99357 0.73072 1.7989 1.6317 1.7988h15.405c0.90082-2.6e-4 1.631-0.80548 1.6313-1.7988v-4.9775c3e-5 -0.99357-0.73025-1.7991-1.6313-1.7994z"/>
   <path d="m122.29 104.36c-0.87563-2e-5 -1.5855 0.8056-1.5855 1.7994v4.9775c2.3e-4 0.99357 0.71 1.7989 1.5855 1.7988h18.673c0.87528-2.6e-4 1.5848-0.80548 1.585-1.7988v-4.9775c2e-5 -0.99357-0.70955-1.7991-1.585-1.7994z"/>
   <path d="m103.61 104.36v8.5757h13.702c0.90082-2.6e-4 1.6312-0.80548 1.6314-1.7989v-4.9775c2e-5 -0.99358-0.73042-1.7991-1.6314-1.7994z"/>
   <path d="m178.1 89.839c-0.90437-1.6e-5 -1.6371 0.8056-1.6371 1.7994v4.9775c2.4e-4 0.99357 0.73293 1.7989 1.6371 1.7989h21.554c0.51188-2.6675 0.97813-5.3564 1.3953-8.0667-0.29476-0.31449-0.69618-0.50889-1.1395-0.50901z"/>
   <path d="m157 89.839c-0.90117-1.6e-5 -1.6317 0.8056-1.6317 1.7994v4.9775c2.4e-4 0.99357 0.73072 1.7989 1.6317 1.7989h15.405c0.90081-2.59e-4 1.631-0.80548 1.6312-1.7989v-4.9775c3e-5 -0.99358-0.73024-1.7991-1.6312-1.7994z"/>
   <path d="m136.09 89.839c-0.90117-1.6e-5 -1.6317 0.8056-1.6317 1.7994v4.9775c2.4e-4 0.99357 0.73072 1.7989 1.6317 1.7989h15.405c0.90081-2.59e-4 1.631-0.80548 1.6312-1.7989v-4.9775c3e-5 -0.99358-0.73024-1.7991-1.6312-1.7994z"/>
   <path d="m114.88 89.839c-0.87563-1.6e-5 -1.5855 0.8056-1.5855 1.7994v4.9775c2.4e-4 0.99357 0.71001 1.7989 1.5855 1.7989h15.736c0.87528-2.59e-4 1.5848-0.80548 1.585-1.7989v-4.9775c3e-5 -0.99358-0.70954-1.7991-1.585-1.7994z"/>
   <path d="m103.61 36.617v8.076h99.908c-0.11011-2.6797-0.26223-5.3715-0.46043-8.076h-23.378l1.2314 6.8838h-16.4l1.2418-6.8838h-25.763l1.1209 6.8838h-16.4l1.218-6.8838z"/>
   <path d="m114.35 115.48c-0.87563-2e-5 -1.5855 0.8056-1.5855 1.7994v4.9775c2.3e-4 0.99357 0.71 1.7989 1.5855 1.7988h15.273c0.87528-2.6e-4 1.5848-0.80548 1.585-1.7988v-4.9775c3e-5 -0.99357-0.70955-1.7991-1.585-1.7994z"/>
   <path d="m103.61 115.48v8.5757h5.7645c0.90082-2.6e-4 1.6312-0.80548 1.6314-1.7989v-4.9775c2e-5 -0.99358-0.73042-1.7991-1.6314-1.7994z"/>
   <path d="m134.46 115.48c-0.87564-2e-5 -1.5854 0.8056-1.5854 1.7994v4.9775c2.3e-4 0.99358 0.70998 1.7989 1.5854 1.7989h6.0678c3.1271-2.6866 6.7579-5.08 10.703-7.1396 3.8711 2.0596 7.6757 4.4529 11.077 7.1396h10.024c0.87528-2.6e-4 1.5847-0.80548 1.5849-1.7989v-4.9775c2e-5 -0.99358-0.70945-1.7991-1.5849-1.7994z"/>
   <path d="m177.32 115.48c-0.87564-2e-5 -1.5854 0.8056-1.5854 1.7994v4.9775c2.3e-4 0.99358 0.70998 1.7989 1.5854 1.7989h15.272c0.18184-5e-5 0.35566-0.0368 0.51831-0.10077 0.36371-1.123 0.72086-2.2502 1.0666-3.3833v-3.2923c3e-5 -0.99358-0.70944-1.7991-1.5849-1.7994z"/>
   <path d="m103.61 126.24v8.5757h13.841c0.87528-2.6e-4 1.5847-0.80548 1.5849-1.7989v-4.9775c2e-5 -0.99357-0.70945-1.7991-1.5849-1.7994z"/>
   <path d="m122.29 126.24c-0.87563-1e-5 -1.5854 0.8056-1.5854 1.7994v4.9775c2.3e-4 0.99357 0.70998 1.7989 1.5854 1.7989h9.5353c1.5191-3.043 3.6485-5.8797 6.241-8.4811-0.15845-0.0604-0.32748-0.0945-0.50384-0.0946z"/>
   <path d="m165.15 126.24c-0.0746 0-0.14773 8e-3 -0.21962 0.0191 2.9192 2.622 5.4194 5.4841 7.2332 8.5566h8.2589c0.87528-2.6e-4 1.5847-0.80548 1.5849-1.7988v-4.9775c2e-5 -0.99357-0.70944-1.7991-1.5849-1.7994z"/>
   <path d="m185.79 126.24c-0.87563-1e-5 -1.5854 0.8056-1.5854 1.7994v4.9775c2.3e-4 0.99357 0.70998 1.7989 1.5854 1.7989h3.4665c1.0933-2.8224 2.126-5.6823 3.1006-8.5757z"/>
   <path d="m115.41 137.17c-0.87564-2e-5 -1.5854 0.8056-1.5854 1.7994v4.9775c2.3e-4 0.99357 0.70998 1.7989 1.5854 1.7988h13.802v-0.14831c0-2.9376 0.55807-5.75 1.5777-8.4212-0.0358-3e-3 -0.0711-6e-3 -0.10749-6e-3z"/>
   <path d="m103.61 137.17v8.5757h6.4327c0.87528-2.6e-4 1.5847-0.80548 1.5849-1.7988v-4.9775c3e-5 -0.99357-0.70944-1.7991-1.5849-1.7994z"/>
   <path d="m173.4 137.17c1.223 2.6728 1.9151 5.4879 1.9151 8.4274v0.14831h9.3317c1.289-2.8183 2.5176-5.6768 3.6825-8.5757z"/>
   <path d="m122.29 148.28c-0.87563-2e-5 -1.5854 0.8056-1.5854 1.7994v4.9775c2.3e-4 0.99357 0.70998 1.7989 1.5854 1.7989h6.9231v-8.5757z"/>
   <path d="m103.61 148.28v8.5757h13.841c0.87528-2.6e-4 1.5847-0.80548 1.5849-1.7989v-4.9775c2e-5 -0.99357-0.70945-1.7991-1.5849-1.7994z"/>
   <path d="m115.41 159.92c-0.87564-2e-5 -1.5854 0.8056-1.5854 1.7994v4.9775c2.3e-4 0.99358 0.70998 1.7989 1.5854 1.7989h13.802v-8.5757z"/>
  </g>
  <path d="m103.61 159.92v8.5757h6.4327c0.87528-2.6e-4 1.5847-0.80548 1.5849-1.7989v-4.9775c3e-5 -0.99358-0.70944-1.7991-1.5849-1.7994z" stroke-linecap="square"/>
 </g>
 <path d="m127.66 88.899h10.051v-20.928c0-3.5444-2.1288-5.3788-5.0915-5.4256-2.9627-0.04677-5.1092 2.6239-5.0915 5.4256z" stroke="#000" stroke-width=".26458px"/>
 <path d="m169.2 88.899h10.051v-20.928c0-3.5444-2.1288-5.3788-5.0915-5.4256-2.9627-0.04677-5.1092 2.6239-5.0915 5.4256z" stroke="#000" stroke-width=".26458px"/>
 <path d="m175.31 148.28v8.5757h3.8168c1.5096-2.8122 2.9548-5.671 4.3336-8.5757z" fill="#fff" stroke="#fff" stroke-linecap="square" stroke-width=".26458"/>
 <path d="m103.61 36.236v8.5757h97.04c0.99698-4.5e-5 1.9579-0.02611 2.8696-0.07235-0.11471-2.8042-0.27455-5.6214-0.48576-8.4527-0.76641-0.03184-1.5617-0.05061-2.3838-0.05064h-21.04l1.2997 7.2647h-16.4l1.3105-7.2647h-25.894l1.1829 7.2647h-16.4l1.2857-7.2647z" fill="#fff" stroke="#fff" stroke-linecap="square" stroke-width=".26458"/>
 <g fill="none" stroke="#000">
  <path d="m8.612 3.5c-20 100 20 190 95 227.5 75-37.5 115-127.5 95-227.5z" stroke-linecap="square" stroke-miterlimit="8" stroke-width="7"/>
  <path d="m103.61 3.5v225" stroke-width="5"/>
  <path d="m103.61 24.1v146.2h67.584c25.725-39.703 37.425-90.764 30.638-146.2h-24.394l3.471 19.4h-16.4l3.5-19.4-30.059-1.88e-4 3.159 19.4h-16.4l3.433-19.4z" stroke-linecap="square" stroke-width="4"/>
  <path d="m151.23 116.91c-12.619 6.5875-22.019 16.587-22.019 28.687v24.7h41.985c1.4154-2.1844 2.7858-4.4054 4.1155-6.6575v-18.043c0-12.1-11.7-22.1-24.081-28.687z" stroke-linejoin="round" stroke-width="4"/>
 </g>
</svg>
