<?xml version="1.0" encoding="UTF-8" standalone="no"?>
<svg
   inkscape:version="1.1.1 (3bf5ae0d25, 2021-09-20)"
   sodipodi:docname="CoA Tuttlingen.svg"
   id="svg2130"
   version="1.1"
   viewBox="0 0 528.43571 557.33331"
   height="557.33331"
   width="528.43573"
   xmlns:inkscape="http://www.inkscape.org/namespaces/inkscape"
   xmlns:sodipodi="http://sodipodi.sourceforge.net/DTD/sodipodi-0.dtd"
   xmlns="http://www.w3.org/2000/svg"
   xmlns:svg="http://www.w3.org/2000/svg">
  <defs
     id="defs2124" />
  <sodipodi:namedview
     inkscape:pagecheckerboard="false"
     fit-margin-bottom="0"
     fit-margin-right="0"
     fit-margin-left="0"
     fit-margin-top="0"
     lock-margins="true"
     units="px"
     inkscape:snap-smooth-nodes="true"
     inkscape:snap-object-midpoints="true"
     inkscape:window-maximized="1"
     inkscape:window-y="-11"
     inkscape:window-x="-11"
     inkscape:window-height="1506"
     inkscape:window-width="2560"
     showgrid="false"
     inkscape:document-rotation="0"
     inkscape:current-layer="layer1"
     inkscape:document-units="px"
     inkscape:cy="278.66667"
     inkscape:cx="264"
     inkscape:zoom="1.5"
     inkscape:pageshadow="2"
     inkscape:pageopacity="0"
     borderopacity="1.0"
     bordercolor="#666666"
     pagecolor="#333333"
     id="base"
     showguides="true"
     inkscape:guide-bbox="true"
     inkscape:snap-intersection-paths="true"
     inkscape:object-paths="true"
     inkscape:snap-grids="false"
     inkscape:snap-global="false"
     inkscape:lockguides="false"
     guidecolor="#00ffff"
     guideopacity="0.49803922"
     inkscape:snap-midpoints="true" />
  <g
     id="layer1"
     inkscape:groupmode="layer"
     inkscape:label="tuttlingen"
     transform="translate(-52.448789,-32.000001)">
    <g
       id="g19890"
       inkscape:label="coa">
      <path
         id="path1720"
         style="opacity:1;fill:#ffffff;stroke:#000000;stroke-width:12"
         transform="scale(1,-1)"
         d="m 58.666667,-38.000001 10.32249,-289.333379 c 5.080493,-142.40326 114.288923,-255.99996 247.677503,-255.99996 133.38858,0 242.597,113.5967 247.6775,255.99996 l 10.32251,289.333379 z"
         sodipodi:nodetypes="cszscc"
         inkscape:label="coa-0" />
      <path
         id="path3583"
         style="opacity:1;fill:#fcdb00;stroke:#000000;stroke-width:9;stroke-miterlimit:4;stroke-dasharray:none"
         transform="scale(1,-1)"
         d="m 316.66602,-501.36328 c -86.84962,0 -162.1147,74.82465 -165.75782,176.95117 l -7.29297,204.44141 H 489.7168 l -7.29297,-204.44141 c -3.64313,-102.12653 -78.9082,-176.95117 -165.75781,-176.95117 z"
         sodipodi:nodetypes="ssccss"
         inkscape:label="inescutcheon" />
      <path
         id="path12053"
         style="opacity:1;fill:#000000;stroke:#000000;stroke-width:1;stroke-linejoin:miter;stroke-miterlimit:4;stroke-dasharray:none"
         d="M 233.33333,401.16667 C 242.38032,396.95499 250.98492,393.0279 252.5,388 c 6.17406,-20.48902 14.11858,-37.51597 32,-40.66667 7.99478,-1.40868 11.66737,-4.97292 19.66666,-7.00001 -2.1779,2.20858 -4.18178,4.66674 -7.06029,6.99842 -36.31264,29.41442 -7.88249,59.20057 15.89363,23.00159 8.78809,-13.37981 13.93582,-20.37413 24.33333,-21.33333 7.89011,-0.72789 13.24753,-5.3678 18.33334,-9.33333 -0.44925,9.04487 -7.98046,13.74979 -13.83334,20 -25.19495,26.90537 5.91181,42.03739 29,17.5 6.6209,-7.03648 7.91241,-17.31236 26.5,-18.33334 7.07516,-0.38862 14.11111,-2.51305 21.16667,-5.83333 -11.14739,17.96179 -14.69812,15.22977 -23.83333,22.83333 -8.5125,7.08525 -21.96986,30.49499 17.16666,38.83334 9.18115,1.95612 14.05428,12.45045 16.16667,21.33333 -6.45938,-6.24367 -15.81124,-10.17221 -28.5,-8.83333 -9.17789,0.96842 -20.80326,-0.89514 -33.33333,-7.5 -7.43281,-3.91798 -18.78866,-4.64545 -30.66667,-4 -7.41645,0.40301 -12.59335,-0.88202 -16.83333,-2.66667 -12.22086,-5.14388 -19.7869,-2.87541 -24.83334,0 -6.6628,3.7964 -11.63411,2.94114 -16.83333,1.66667 -5.31384,-1.30257 -13.15117,-1.11617 -23.33333,-1.33334 -2.61111,3.18395 -5.22223,4.69076 -7.83334,5.66667 10.05227,22.91762 -12.38706,29.99165 -23.5,13 -20.08432,12.57328 -23.92869,-17.86566 -8,-20.66667 -10.99698,-16.91856 13.05295,-26.38667 19,-10.16666 z m -17.5,-67.83334 c 6.05197,-3.5 11.43267,-7 14.83334,-10.5 18.75378,1.95993 28.37574,0.0658 35.66666,-2.83333 6.80432,-2.70566 15.56205,-3.76825 24.83334,-1.5 12.42954,3.04092 21.67741,1.5511 31.16666,-1.16667 4.78482,-1.3704 11.0219,-1.12692 17.16667,2 7.4866,3.80974 13.24969,3.05483 19.66667,1.16667 11.77383,-3.46439 14.77757,-0.87811 17.83333,1.5 10.60563,8.25369 20.6422,16.65556 44.83333,15.5 18.91856,-0.9037 28.86152,7.34046 36.33334,17.16667 C 457.47047,337.83096 450.20101,323.16739 422,319 c -15.76706,-2.32997 -20.43264,-22.79941 2.66667,-40 8.72291,-6.49539 16.40181,-12.31812 21.5,-19.16667 -4.27115,1.66293 -8.15583,3.41066 -15,3.16667 -19.70385,-0.70242 -26.1237,7.27855 -32,15.33333 -32.49184,44.53726 -57.30098,10.76944 -20.16667,-14.66666 7.17156,-4.91234 14.22748,-9.68948 15.83333,-17.5 -6.47526,3.62044 -13.37654,7.08509 -21.66666,7.5 -20.11113,1.00653 -26.79696,12.35745 -33,24.33333 -20.22199,39.04156 -54.63077,13.69894 -13.5,-21 7.22845,-6.0981 13.71545,-12.08672 16.83333,-20 -7.25581,5.37728 -15.30437,10.06481 -24.5,10.66667 -19.80339,1.29614 -29.00334,16.33941 -38.66667,34.83333 -18.36346,35.14446 -47.80185,10.27087 -9.66666,-31.83333 3.01328,-3.3269 6.58502,-7.39932 7.33333,-11.66667 -5.57372,6.16772 -11.78172,10.42976 -18.66667,12.66667 -15.18192,4.93258 -28.29595,14.01047 -33,41 -2.0572,11.8032 -8.61882,20.21136 -21,24 -0.61438,-22.19953 -30.04466,-14.86376 -24,7.16666 -20.42172,4.10436 -11.36553,35.51384 9.33334,22.5 12.19928,14.28341 35.55933,11.15224 25.16666,-13 z m 0,-107.66666 c 4.73201,-2.43466 7.42431,-5.24236 10.33334,-8.66667 20.47839,2.75814 36.25832,1.34497 46.83333,-5 5.1331,-3.07984 14.57803,-2.25966 19.66667,0.33333 6.48637,3.30523 15.93834,3.72527 30.16666,0 10.96561,-2.87102 20.65345,-3.03856 27.16667,0.83334 7.77492,4.62194 14.40112,2.78405 22.66667,2 9.38448,-0.8902 17.46339,0.95437 21,4.66666 9.08322,9.53441 22.1597,14.81212 43.66666,12.66667 14.09072,-1.40564 21.23694,3.90025 25.16667,11.66667 4.17054,-12.03981 -5.82947,-20.25896 -25.16667,-26.16667 -24.64158,-7.52826 -19.45628,-32.43351 8.16667,-44.5 9.94355,-4.34362 18.36113,-9.35098 23.33333,-20.16667 -6.40963,4.13555 -13.77335,7.46975 -22.83333,7 -15.5747,-0.80752 -26.62086,14.55197 -42.5,27.66667 -31.98298,26.41499 -45.46539,-18.00951 -2.66667,-39 6.57015,-3.22231 12.27966,-5.97067 15.33334,-10.66667 -7.77592,3.6008 -14.06719,5.89132 -23.83334,5.33334 -15.83752,-0.90485 -25.85653,14.1468 -37.83333,28.66666 -34.69672,42.06395 -65.39529,7.00899 -16.33333,-23 9.72412,-5.94781 14.26376,-10.98608 17.33333,-15.66666 -8.6572,4.0998 -15.21203,7.86681 -27.91667,9.66666 -15.37643,2.17836 -23.07577,15.05536 -33.91666,29.33334 -35.3624,46.57401 -56.13708,4.2204 -18.33334,-22.66667 6.28117,-4.46734 11.33732,-9.92327 14.83334,-16.33333 -7.17546,4.21519 -14.94691,7.22248 -24,10.66666 -13.04821,4.9641 -24.61314,0.70208 -37.66667,39.16667 -5.70961,16.82441 -14.58964,25.9118 -24.66667,26 -8.45593,-20.26376 -31.50767,-3.70296 -22.83333,12.66667 -21.67434,9.50812 -10.80251,41.23517 14.33333,23 6.89321,15.75417 36.80487,6.78548 20.5,-19.5 z"
         inkscape:label="antlers" />
    </g>
  </g>
</svg>
