<?xml version="1.0"?>
<svg xmlns="http://www.w3.org/2000/svg" height="720" width="620" xmlns:xlink="http://www.w3.org/1999/xlink" viewBox="-62 -72 124 144">
<defs>
<clipPath id="Form"><path id="Rahmen" d="m-60-70v80a60 60 0 1 0 120 0v-80z"/></clipPath>
<clipPath id="Form_erstes_Feld"><rect id="erstes_Feld" height="70" width="60" stroke="#000" y="-70" x="-60" stroke-width="1.8" fill="none"/></clipPath>
<pattern id="Raute" height="10" width="16" patternUnits="userSpaceOnUse" patternTransform="rotate(2.5)" y="1" x="-1">
<path stroke="#000" stroke-width=".5" d="m0 5l8 5 8-5-8-5z" fill="#fff"/>
</pattern>
</defs>
<g stroke="#000">
<g clip-path="url(#Form)">
<use xlink:href="#Rahmen" fill="#0081c9"/>
<rect height="70" width="60" y="0" x="-60" fill="url(#Raute)"/>
<path id="halbes_Kreuz" stroke-width=".5" fill="#fff" d="m30-35h-30v5h25l5-5v35h5v-30l-5-5 5 5h25v-5h-30l5-5v-30h-5v35"/>
<use xlink:href="#halbes_Kreuz" transform="rotate(180 30,-35)" fill="#fff"/>
<path d="m0-70h-60v70h120v70h-60z" stroke-width="0.2" fill="#ffd700"/>
<g clip-path="url(#Form_erstes_Feld)">
<line x2="0" y1="-70" x1="-60" stroke-width="20"/>
<line stroke-width="18" x2="0" stroke="#ed1d24" y1="-70" x1="-60"/>
</g>
<use xlink:href="#erstes_Feld" transform="translate(60,70)"/>
</g>
<use xlink:href="#erstes_Feld"/>
<use xlink:href="#Rahmen" stroke-width="2.2" fill="none"/>
</g>
<use xlink:href="#a" transform="matrix(1 -.0121 .0121 1 8.03 12.3)"/>
<use xlink:href="#a" transform="matrix(.997 -.0762 .0762 .997 14.6 28)"/>
<path id="a" d="m33 1.25c-5 0.64-7.3 3.5-8.1 8.18-0.2 0.77-0.2 1.57-0.7 2.27-0.8 1.2-2.1 2.1-3.4 2.6-0.2-2.9-0.2-5.72 1-7.77 0.6-0.93 1.3-1.76 1.8-2.7-5.6 2.17-6.8 7.17-5.9 13.1-1.1 1.2-2.3 2.3-3.7 3.2-1.6-4.1-0.6-8.9 2.3-12.4-6.1 2.5-6.84 9.4-6 14.6-0.36 0.6-0.69 1.1-1.12 1.6-0.59 0.7-1.46 0-1.86-0.8-1.24-2.4-0.92-5.4-0.66-7.7-3.86 3-3.3 7.9-1.12 11.8-0.26 0.8-0.5 1.6-0.8 2.3-0.76-0.2-1.6-0.3-2.3 0-0.94 0.5-1.17 1.8-0.46 2.6 0.48 0.5 1.22 0.8 1.9 0.9-0.26 0.8-0.52 1.7-0.22 2.5s1.54 1.1 2.24 0.5c0.62-0.5 0.9-1.4 1.06-2.2 0.74 0.2 1.58 0.3 2.3 0 0.94-0.4 1.14-1.8 0.46-2.5-0.47-0.5-1.16-0.7-1.82-0.9 0.26-0.9 0.54-1.8 0.78-2.7 2.42-0.8 4.32-2.7 5.72-4.5 3.8-0.4 5-3.2 6.2-5.1 2-0.1 3.3-1.5 4.3-2.7 0.3-0.4 0.8-0.5 1.3-0.6 2.1-0.6 3.8-2 5.2-3.7 1.9-2.57 5-3.29 7.7-3.89-1.5-0.68-3.2-0.96-4.7-0.64-2.3 0.4-4.3 1.74-6 3.2 0-3.38 2-6.76 4.6-8.52z"/>
</svg>